<svg xmlns="http://www.w3.org/2000/svg" xmlns:xlink="http://www.w3.org/1999/xlink" id="Layer_1" x="0" y="0" version="1.1" viewBox="0 0 60.2 60.2" xml:space="preserve" style="enable-background:new 0 0 60.2 60.2"><style type="text/css">.st0{fill:#f37738}.st1{fill:#fff}</style><title>INDIVIDUAL ICONS</title><g id="Layer_2"><circle cx="30.1" cy="30.1" r="30.1" class="st0"/></g><rect width="4" height=".9" x="14.2" y="41.4" class="st1" transform="matrix(0.6124 -0.7906 0.7906 0.6124 -26.8342 29.0278)"/><rect width="5.2" height=".9" x="14.5" y="44" class="st1" transform="matrix(0.7057 -0.7085 0.7085 0.7057 -26.4337 25.2276)"/><rect width="4.1" height=".9" x="17.7" y="44.9" class="st1" transform="matrix(0.7915 -0.6112 0.6112 0.7915 -23.6102 21.5171)"/><path d="M46.4,15.3c0,0-7.3-6.2-18.8,10.4l-1.3,1.8l0,0C19.7,27.2,15.9,34,15.9,34l5.1,1.4l-1.2,1.7v0.1l0,0	c0,0-0.4,0.6,1.6,2.9l0.1,0.1c0.1,0.1,0.2,0.1,0.3,0.2c1.9,1.6,2.6,1.6,2.8,1.6l0.2-0.1l1.8-1.2L28,46c0,0,6.8-3.8,6.4-10.4	c0-0.1,0-0.2,0-0.3l1.7-1.2C52.6,22.6,46.4,15.3,46.4,15.3z M37,28.1c-1.8,0-3.2-1.4-3.3-3.2c0-1.8,1.4-3.2,3.2-3.3	c1.8,0,3.2,1.4,3.3,3.2c0,0,0,0,0,0C40.2,26.6,38.8,28.1,37,28.1z" class="st1"/></svg>