<svg xmlns="http://www.w3.org/2000/svg" xmlns:xlink="http://www.w3.org/1999/xlink" id="Layer_1" x="0" y="0" version="1.1" viewBox="0 0 60.5 60.5" xml:space="preserve" style="enable-background:new 0 0 60.5 60.5"><style type="text/css">.st0{fill:#f3783a}.st1{fill:#fff}</style><title>INDIVIDUAL ICONS</title><g id="Layer_2"><circle id="devops_build_test_ci" cx="30.2" cy="30.2" r="30.2" class="st0"/></g><path d="M39,45.5h6.4v-6.4h-2.3v-10H30.8v-7.6h2.3v-6.4h-6.4v6.4h2.3v7.6H17.4v10H15v6.4h6.4v-6.4h-2.3v-8.3h10V39h-2.3	v6.4h6.4v-6.4h-2.3v-8.3h10.6V39H39V45.5z M43.7,40.8v2.9h-2.9v-3L43.7,40.8z M19.8,40.8v2.9h-2.9v-3L19.8,40.8z M31.5,40.8v2.9	h-2.9v-3L31.5,40.8z" class="st1"/></svg>