<svg xmlns="http://www.w3.org/2000/svg" xmlns:xlink="http://www.w3.org/1999/xlink" id="Layer_1" x="0" y="0" version="1.1" viewBox="0 0 60.3 60.3" xml:space="preserve" style="enable-background:new 0 0 60.3 60.3"><style type="text/css">.st0{fill:#00b09c}.st1{fill:#fff}</style><title>INDIVIDUAL ICONS</title><circle cx="30.1" cy="30.1" r="30.1" class="st0"/><rect width="21.9" height="1.3" x="19.6" y="45.3" class="st1"/><path d="M41.4,25.3c-0.5-6.2-5.9-10.8-12.1-10.3c-5.1,0.4-9.3,4.3-10.2,9.4l-1.3-0.2c1.1-6.8,7.5-11.4,14.3-10.3	c5.7,0.9,10,5.6,10.5,11.3L41.4,25.3z" class="st1"/><path d="M19.6,46.6c-6.3,0-11.5-5.2-11.5-11.5s5.2-11.5,11.5-11.5c2.8,0,5.5,1,7.6,2.9l-0.8,1	c-4.2-3.7-10.6-3.4-14.4,0.8S8.7,39,12.9,42.7c1.9,1.7,4.3,2.6,6.8,2.6h0.2v1.3h-0.1C19.7,46.6,19.7,46.6,19.6,46.6z" class="st1"/><path d="M41.2,46.6L41.2,46.6l-0.1-1.3h0.1c5.3-0.1,9.6-4.5,9.5-9.9c-0.1-5.1-4.2-9.3-9.3-9.5v-1.3	c6,0.6,10.4,6,9.8,12.1C50.6,42,46.4,46.2,41.2,46.6L41.2,46.6z" class="st1"/><circle cx="17.8" cy="31.8" r="3.9" class="st1"/><circle cx="41.6" cy="36.4" r="6.6" class="st1"/><circle cx="33.5" cy="25.3" r="4.1" class="st1"/><circle cx="29.4" cy="38.9" r="4.1" class="st1"/><circle cx="26.3" cy="20.7" r="2.1" class="st1"/><circle cx="19.6" cy="40.1" r="2.1" class="st1"/><circle cx="26.3" cy="30.9" r="2.1" class="st1"/><polygon points="19.3 40.6 17.4 31.9 18.2 31.7 20 39.6 29.3 38.4 40.8 36.1 33.2 25.6 26.1 21 26.5 20.3 33.8 24.9 42.3 36.6 29.5 39.3" class="st1"/><polygon points="29.8 38.1 29 37.8 32.6 26.5 26.6 31.3 26 30.6 34.3 24" class="st1"/><rect width=".8" height="14.1" x="23" y="28" class="st1" transform="matrix(0.5369 -0.8437 0.8437 0.5369 -18.7629 35.9983)"/></svg>