<svg xmlns="http://www.w3.org/2000/svg" xmlns:xlink="http://www.w3.org/1999/xlink" id="Layer_1" x="0" y="0" version="1.1" viewBox="0 0 59.9 59.9" xml:space="preserve" style="enable-background:new 0 0 59.9 59.9"><style type="text/css">.st0{fill:#01af9c}.st1{fill:#fff}</style><title>INDIVIDUAL ICONS</title><circle id="devops_monitoring_metrics" cx="29.9" cy="29.9" r="29.9" class="st0"/><polygon points="13.4 41.7 13.4 16.9 12.2 16.9 12.2 41.7 12.2 42.9 13.4 42.9 47.7 42.9 47.7 41.7" class="st1"/><rect width="8.3" height="9.5" x="15.7" y="29.9" class="st1"/><path d="M34.6,20.5h-8.3v18.9h8.3V20.5z M33.4,38.1h-5.9V21.6h5.9L33.4,38.1z" class="st1"/><rect width="8.3" height="1.2" x="37" y="26.4" class="st1"/><rect width="8.3" height="1.2" x="37" y="28.7" class="st1"/><rect width="8.3" height="1.2" x="37" y="31" class="st1"/><rect width="8.3" height="1.2" x="37" y="33.4" class="st1"/><rect width="8.3" height="1.2" x="37" y="35.8" class="st1"/><rect width="8.3" height="1.2" x="37" y="38.1" class="st1"/></svg>