<svg xmlns="http://www.w3.org/2000/svg" xmlns:xlink="http://www.w3.org/1999/xlink" id="Layer_1" x="0" y="0" version="1.1" viewBox="0 0 50 50" xml:space="preserve" style="enable-background:new 0 0 50 50"><style type="text/css">.st0{fill:#59b4d9}.st1{opacity:.2;fill:#fff;enable-background:new}.st2{fill:#fcd116}.st3{opacity:.3;enable-background:new}.st3,.st4{fill:#ff8c00}.st4,.st5{enable-background:new}.st4{opacity:.4}.st5{opacity:.5;fill:#fff}</style><path d="M28.6,10.3c0,5.7-4.6,10.3-10.3,10.3S8,16,8,10.3C8.1,4.6,12.7,0,18.3,0C24,0,28.6,4.6,28.6,10.3" class="st0"/><polygon points="25.8 24.1 18.3 34.6 10.8 24.1 0 24.1 0 50 36.7 50 36.7 24.1" class="st0"/><path d="M8.1,10.3c0,5.6,4.5,10.1,10,10.3l2.6-20.2C19.9,0.1,19.1,0,18.3,0C12.7,0,8.1,4.6,8.1,10.3" class="st1"/><polygon points="10.8 24.1 0 24.1 0 50 14.4 50 16.7 32.2" class="st1"/><path d="M46.5,42.7c2,0,3.5-1.6,3.5-3.5v-8.6c0-2-1.6-3.5-3.5-3.5h-8.6c-2,0-3.5,1.6-3.5,3.5v7.6L27,45.4V50h4l0,0h2.3	v-2.3h2.3v-2.3h2.3v-2.3l0.3-0.3L46.5,42.7z M47.2,29.8c0.8,0.8,0.8,2.1,0,2.8c-0.8,0.8-2.1,0.8-2.8,0c-0.8-0.8-0.8-2.1,0-2.8	C45.1,29,46.4,29,47.2,29.8z" class="st2"/><path d="M46.5,42.7c2,0,3.5-1.6,3.5-3.5v-8.6c0-2-1.6-3.5-3.5-3.5h-8.6c-2,0-3.5,1.6-3.5,3.5v7.6L27,45.4V50h4l0,0h2.3	v-2.3h2.3v-2.3h2.3v-2.3l0.3-0.3L46.5,42.7z M47.2,29.8c0.8,0.8,0.8,2.1,0,2.8c-0.8,0.8-2.1,0.8-2.8,0c-0.8-0.8-0.8-2.1,0-2.8	C45.1,29,46.4,29,47.2,29.8z" class="st3"/><polygon points="28.4 47.1 28.4 48.9 35.4 41.9 35 40.6" class="st4"/><rect width="1.7" height="11.6" x="41.347" y="29.657" class="st5" transform="matrix(0.7071 -0.7071 0.7071 0.7071 -12.7125 40.2227)"/><rect width="1.7" height="11.6" x="39.548" y="31.573" class="st5" transform="matrix(0.7071 -0.7071 0.7071 0.7071 -14.5947 39.5121)"/></svg>