<svg xmlns="http://www.w3.org/2000/svg" xmlns:xlink="http://www.w3.org/1999/xlink" id="Layer_1" width="50" height="50" x="0" style="enable-background:new 0 0 50 50" y="0" version="1.1" viewBox="0 0 50 50" xml:space="preserve"><style type="text/css">.st0{fill:#59b4d9}.st1{opacity:.2;fill:#fff;enable-background:new}.st2{fill:#ba141a}.st3{fill:#dd5900}.st4{fill:#ff8c00}.st5{opacity:.15;fill:#fff;enable-background:new}</style><path d="M50,25.4c0-3.3-2.7-5.8-5.8-5.8c-0.3,0-0.5,0-0.8,0c0.3-1.3,0.6-2.7,0.6-4.1C44,6.9,37.1,0,28.5,0	C21.8,0,16,4.4,14,10.7c-1.1-0.3-2.2-0.6-3.4-0.6C4.7,10,0,14.7,0,20.7s4.7,10.7,10.5,10.7l0,0l0,0h34.2l0,0	C47.6,31,50,28.5,50,25.4" class="st0"/><path d="M16,31.3c-1.4-1.4-2.4-3.1-2.8-5.2c-1.3-5.8,2.2-11.4,8-12.7c1.3-0.3,2.4-0.3,3.4-0.2C25.1,8,28.4,3.1,33.2,0.8	c-1.4-0.5-3-0.8-4.7-0.8C21.8,0,16,4.4,14,10.7c-1.1-0.3-2.2-0.6-3.4-0.6C4.7,10,0,14.7,0,20.7s4.7,10.7,10.5,10.7l0,0l0,0H16z" class="st1"/><path d="M36.5,32c-1.6,1.4-3.7,2.3-6,2.3s-4.4-0.9-6-2.3l-0.9,18l6.8-6.9l6.8,6.9L36.5,32z" class="st2"/><circle cx="30.6" cy="25.7" r="11.6" class="st3"/><circle cx="30.6" cy="25.7" r="8.8" class="st4"/><path d="M22.3,34c-4.5-4.5-4.5-11.9,0-16.4s11.9-4.5,16.4,0L22.3,34z" class="st5"/></svg>