<svg xmlns="http://www.w3.org/2000/svg" xmlns:svg="http://www.w3.org/2000/svg" id="Layer_1" width="44" height="50" x="0" y="0" enable-background="new 1 -1 50 50" version="1.1" viewBox="1 -1 44 50" xml:space="preserve"><metadata id="metadata1583"/><polygon id="polygon1564" points="4 49 48 49 48 -1 4 -1" transform="translate(-3)" style="fill:#59b4d9"/><polygon id="polygon1566" points="6 47 46 47 46 1 6 1" enable-background="new" transform="translate(-3)" style="opacity:.8;fill:#fff"/><path id="path1568" d="m 26.8,41.1 c 0,0.6 -0.5,1.1 -1.1,1.1 H 10.6 C 10,42.2 9.5,41.7 9.5,41.1 9.5,40.5 10,40 10.6,40 h 15.1 c 0.6,0 1.1,0.5 1.1,1.1" style="fill:#59b4d9"/><path id="path1570" d="m 36.9,26.1 c 0,0.6 -0.5,1.1 -1.1,1.1 H 10.6 C 10,27.2 9.5,26.7 9.5,26.1 9.5,25.5 10,25 10.6,25 h 25.1 c 0.7,0 1.2,0.5 1.2,1.1" style="fill:#59b4d9"/><path id="path1572" d="m 36.9,33.6 c 0,0.6 -0.5,1.1 -1.1,1.1 H 10.6 C 10,34.7 9.5,34.2 9.5,33.6 9.5,33 10,32.5 10.6,32.5 h 25.1 c 0.7,0 1.2,0.5 1.2,1.1" style="fill:#59b4d9"/><path id="path1574" d="m 35.717,-1 v 12.47 h -6.423 c -0.236,-1.418 -0.946,-2.778 -2.009,-3.9 -1.418,-1.418 -3.25,-2.187 -5.26,-2.187 -1.95,0 -3.841,0.768 -5.26,2.187 -0.473,0.473 -0.473,1.241 0,1.773 0.473,0.473 1.241,0.473 1.773,0 0.946,-0.946 2.187,-1.418 3.487,-1.418 1.3,0 2.541,0.532 3.487,1.418 1.95,1.95 1.95,5.082 0,6.973 -0.946,0.946 -2.187,1.418 -3.487,1.418 -1.3,0 -2.541,-0.532 -3.487,-1.418 -0.473,-0.473 -1.241,-0.473 -1.773,0 -0.473,0.473 -0.473,1.241 0,1.773 1.418,1.418 3.25,2.187 5.26,2.187 1.95,0 3.841,-0.768 5.26,-2.187 1.182,-1.182 1.832,-2.6 2.068,-4.137 h 7.605 c 0.709,0 1.241,-0.532 1.241,-1.241 V -1" style="fill:#59b4d9"/><path id="path1576" d="m 7.801,-1 v 13.711 c 0,0.709 0.532,1.241 1.241,1.241 h 10.382 c 0.473,1.005 1.477,1.714 2.659,1.714 1.655,0 2.955,-1.3 2.955,-2.955 -0.059,-1.655 -1.418,-2.955 -3.014,-2.955 -1.182,0 -2.187,0.709 -2.659,1.714 H 10.224 V -1" style="fill:#59b4d9"/></svg>