<svg xmlns="http://www.w3.org/2000/svg" xmlns:svg="http://www.w3.org/2000/svg" id="Layer_1" width="50" height="37" x="0" y="0" enable-background="new 0 0 50 50" version="1.1" viewBox="0 0 50 37" xml:space="preserve"><metadata id="metadata1637"/><path id="path1616" d="m 0,33 c 0,0.9 0.7,1.6 1.6,1.6 H 39 c 0.9,0 1.6,-0.7 1.6,-1.6 V 7.5 H 0 Z" style="fill:#0072c6"/><path id="path1618" d="M 39.1,0 H 1.6 C 0.7,0 0,0.7 0,1.6 v 8.6 H 40.7 V 1.6 C 40.7,0.7 40,0 39.1,0" style="fill:#a0a1a2"/><path id="path1620" d="M 1.6,0 C 0.7,0 0,0.7 0,1.6 V 7.5 10.2 33 c 0,0.9 0.7,1.6 1.6,1.6 H 3.4 L 35.5,0 Z" style="opacity:.2;fill:#fff"/><rect id="rect1622" width="27.4" height="3.2" x="10.5" y="3.9" style="fill:#fff"/><path id="path1624" d="m 9.2,5.4 c 0,2.2 -1.8,4 -4,4 -2.2,0 -4,-1.8 -4,-4 0,-2.2 1.8,-4 4,-4 2.2,0 4,1.8 4,4" style="fill:#59b4d9"/><polygon id="polygon1626" points="5.6 14.2 3.2 12 5.6 9.7 6.6 9.7 4.8 11.6 9.2 11.6 9.2 12.3 4.8 12.3 6.6 14.2" transform="translate(0,-6.5)" style="fill:#fff"/><path id="path1628" d="m 50,33.3 c 0,-2.1 -1.7,-3.8 -3.7,-3.8 -0.2,0 -0.3,0 -0.5,0 0.2,-0.8 0.4,-1.7 0.4,-2.7 0,-5.5 -4.5,-10 -10,-10 -4.4,0 -8.1,2.9 -9.4,6.8 -0.7,-0.2 -1.4,-0.4 -2.2,-0.4 -3.8,0 -6.8,3.1 -6.8,6.9 0,3.8 3,6.9 6.8,6.9 0,0 0,0 0,0 v 0 h 22 v 0 C 48.5,36.9 50,35.3 50,33.3" style="fill:#59b4d9"/><path id="path1630" d="m 28.2,37 c -0.9,-0.9 -1.6,-2 -1.9,-3.4 -0.8,-3.7 1.4,-7.4 5.1,-8.2 0.8,-0.2 1.5,-0.2 2.3,-0.1 0.3,-3.5 2.4,-6.5 5.6,-8 -1,-0.3 -2,-0.5 -3,-0.5 -4.4,0 -8.1,2.9 -9.4,6.8 -0.7,-0.2 -1.4,-0.4 -2.2,-0.4 -3.8,0 -6.8,3.1 -6.8,6.9 0,3.8 3,6.9 6.8,6.9 0,0 0,0 0,0 v 0 z" enable-background="new" style="opacity:.2;fill:#fff"/></svg>