<svg xmlns="http://www.w3.org/2000/svg" xmlns:svg="http://www.w3.org/2000/svg" id="Layer_1" width="50" height="42.6" x="0" y="0" enable-background="new 0 0 50 50" version="1.1" viewBox="0 0 50 42.6" xml:space="preserve"><metadata id="metadata4170"/><path id="path4156" d="M 0,40.6 C 0,41.7 0.9,42.6 2,42.6 L 48,42.6 C 49.1,42.6 50,41.7 50,40.6 L 50,9.3 0,9.3 0,40.6 Z" style="fill:#59b4d9"/><path id="path4158" d="M 44,3.7 C 44,2.5 43.1,1.6 41.9,1.6 40.7,1.6 39.8,2.5 39.8,3.7 L 39.8,24.8 35.7,24.8 C 35.3,22.4 34.1,20.1 32.3,18.2 29.9,15.8 26.8,14.5 23.4,14.5 20.1,14.5 16.9,15.8 14.5,18.2 13.7,19 13.7,20.3 14.5,21.2 15.3,22 16.6,22 17.5,21.2 19.1,19.6 21.2,18.8 23.4,18.8 25.6,18.8 27.7,19.7 29.3,21.2 32.6,24.5 32.6,29.8 29.3,33 27.7,34.6 25.6,35.4 23.4,35.4 21.2,35.4 19.1,34.5 17.5,33 16.7,32.2 15.4,32.2 14.5,33 13.7,33.8 13.7,35.1 14.5,36 16.9,38.4 20,39.7 23.4,39.7 26.7,39.7 29.9,38.4 32.3,36 34.3,34 35.4,31.6 35.8,29 L 41.9,29 C 43.1,29 44,28.1 44,26.9 L 44,3.7 Z" style="fill:#fff"/><path id="path4160" d="M 23.4,21.9 C 21.4,21.9 19.7,23.1 18.9,24.8 L 10.2,24.8 10.2,3.7 C 10.2,2.5 9.3,1.6 8.1,1.6 7,1.6 6.1,2.6 6.1,3.7 L 6.1,26.9 C 6.1,28.1 7,29 8.2,29 L 19,29 C 19.8,30.7 21.5,31.9 23.5,31.9 26.3,31.9 28.5,29.7 28.5,26.9 28.4,24.1 26.1,21.9 23.4,21.9 Z" style="fill:#fff"/><path id="path4162" d="M 48,0 2,0 C 0.9,0 0,0.9 0,2 L 0,9.6 50,9.6 50,2 C 50,0.9 49.1,0 48,0" style="fill:#a0a1a2"/><path id="path4164" d="M 2,0 C 0.9,0 0,0.9 0,2 L 0,9.3 0,12.6 0,40.6 C 0,41.7 0.9,42.6 2,42.6 L 4.2,42.6 43.6,0 2,0 Z" enable-background="new" style="opacity:.2;fill:#fff"/></svg>