<svg xmlns="http://www.w3.org/2000/svg" xmlns:svg="http://www.w3.org/2000/svg" id="Layer_1" width="50" height="46.1" x="0" y="0" enable-background="new 0 0 50 50" version="1.1" viewBox="0 0 50 46.1" xml:space="preserve"><metadata id="metadata1723"/><path id="path1694" d="M 32.4,36.5 H 31.2 19.4 18.8 c 1.6,5.8 -0.6,6.6 -10.2,6.6 v 3 h 12.2 8.9 11.5 v -3 c -9.5,0 -10.4,-0.8 -8.8,-6.6" style="fill:#7a7a7a"/><path id="path1696" d="M 47,0 H 2.7 C 1.2,0 0,1.3 0,2.8 v 30.9 c 0,1.5 1.2,2.8 2.7,2.8 H 47 c 1.5,0 3,-1.3 3,-2.8 V 2.8 C 50,1.3 48.5,0 47,0 M 46.2,3.8 V 32.6 H 3.8 V 3.8 L 46.2,3.7 Z" style="fill:#a0a1a2"/><polygon id="polygon1698" points="3.8 34.6 3.8 5.8 46.2 5.7 46.1 5.8 46.1 34.6" transform="translate(0,-2)" style="fill:#59b4d9"/><path id="path1700" d="m 3.8,32.6 v 0 V 3.8 L 42.5,3.7 47,0 c 0,0 0,0 0,0 H 2.7 C 1.2,0 0,1.3 0,2.8 v 30.9 c 0,1.5 1.2,2.8 2.7,2.8 H 3.8 L 8.4,32.7 H 3.8 Z" style="opacity:.2;fill:#fff"/><polygon id="polygon1702" points="3.8 5.8 42.5 5.7 42.5 5.7 3.8 5.8 3.8 34.6" transform="translate(0,-2)" style="fill:#59b4d9"/><rect id="rect1704" width="32.7" height="3" x="8.7" y="43.1" style="fill:#a0a1a2"/><path id="path1706" d="m 25.5,2 c 0,0.4 -0.3,0.7 -0.7,0.7 -0.4,0 -0.7,-0.3 -0.7,-0.7 0,-0.4 0.3,-0.7 0.7,-0.7 0.4,0 0.7,0.4 0.7,0.7" style="fill:#b8d432"/><path id="path1708" d="m 41.3,17.9 c 0.3,-0.3 0.3,-0.8 0,-1.2 l -1.6,-1.6 -7.1,-7 c -0.3,-0.3 -0.8,-0.3 -1.2,0 v 0 C 31,8.4 31,9 31.4,9.3 l 7.5,7.4 c 0.3,0.3 0.3,0.9 0,1.2 l -7.5,7.6 c -0.3,0.3 -0.3,0.9 0,1.2 v 0 c 0.3,0.3 0.8,0.3 1.2,0 l 7.1,-7 c 0,0 0,0 0,0 z" style="fill:#fff"/><path id="path1710" d="m 8.7,17.9 c -0.3,-0.3 -0.3,-0.8 0,-1.2 l 1.6,-1.6 7.1,-7 c 0.3,-0.3 0.8,-0.3 1.2,0 v 0 C 19,8.4 19,9 18.6,9.3 l -7.5,7.4 c -0.3,0.3 -0.3,0.9 0,1.2 l 7.5,7.6 c 0.3,0.3 0.3,0.9 0,1.2 v 0 c -0.3,0.3 -0.8,0.3 -1.2,0 l -7.1,-7 c 0,0 0,0 0,0 z" style="fill:#fff"/><path id="path1712" d="m 20.5,17.3 c 0,1.3 -1,2.2 -2.2,2.2 -1.2,0 -2.3,-1 -2.3,-2.2 0,-1.1 0.9,-2.2 2.3,-2.2 1.3,0 2.2,1 2.2,2.2 z" style="fill:#fff"/><path id="path1714" d="m 27.2,17.3 c 0,1.3 -1,2.2 -2.2,2.2 -1.2,0 -2.3,-1 -2.3,-2.2 0,-1.1 1,-2.2 2.3,-2.2 1.3,0 2.2,1 2.2,2.2 z" style="fill:#fff"/><circle id="circle1716" cx="31.8" cy="17.3" r="2.2" style="fill:#fff"/></svg>