<svg xmlns="http://www.w3.org/2000/svg" xmlns:svg="http://www.w3.org/2000/svg" id="Layer_1" width="50" height="46" x="0" y="0" enable-background="new 0 0 50 50" version="1.1" viewBox="0 0 50 46" xml:space="preserve"><metadata id="metadata1789"/><polygon id="polygon1762" points="6 32 44 32 50 43 0 43" style="fill:#b8d432"/><rect id="rect1764" width="50" height="3" x="0" y="43" style="fill:#7a7a7a"/><rect id="rect1766" width="50" height="3" x="0" y="43" enable-background="new" style="opacity:.5;fill:#dd5900"/><g id="g1776"><path id="path1768" d="M 21.4,34.9 H 8.8 V 22.5 h 2.5 c -0.3,-0.8 -0.5,-1.6 -0.5,-2.4 0,0 0,-0.1 0,-0.2 H 6.2 V 37.5 H 23.9 V 27 h -2.6 v 7.9 z" style="fill:#a0a1a2"/><path id="path1770" d="m 38.9,22.5 h 2.3 V 35 H 28.6 V 27 H 26 V 37.5 H 43.7 V 19.8 h -5.6 c 0.4,0.7 0.7,1.5 0.7,2.4 0.1,0.2 0.1,0.2 0.1,0.3 z" style="fill:#a0a1a2"/><path id="path1772" d="M 8.8,15 V 2.6 H 21.3 V 9.8 C 22.1,9.2 23,8.8 23.9,8.6 V 0 H 6.2 v 17.7 h 5.1 c 0.3,-1 0.9,-1.9 1.6,-2.6 z" style="fill:#a0a1a2"/><path id="path1774" d="M 28.6,8.4 V 2.6 H 41.1 V 15 h -5.4 c 0.2,0.8 0.3,1.7 0.3,2.5 0,0 0,0.1 0,0.1 h 7.7 V 0 H 26.1 v 8.2 c 0.2,0 0.4,0 0.6,0 0.6,-0.1 1.3,0 1.9,0.2 z" style="fill:#a0a1a2"/></g><g id="g1782"><path id="path1778" d="m 36.8,22.3 c 0,-1.5 -1.2,-2.8 -2.8,-2.8 -0.1,0 -0.2,0 -0.3,0 0.2,-0.6 0.3,-1.3 0.3,-2 0,-4.1 -3.3,-7.5 -7.4,-7.5 -3.3,0 -6,2.1 -7,5.1 -0.5,-0.2 -1.1,-0.3 -1.7,-0.3 -2.8,0 -5.1,2.3 -5.1,5.1 0,2.8 2.3,5.1 5.1,5.1 0,0 0,0 0,0 v 0 h 16.4 v 0 c 1.4,0 2.5,-1.2 2.5,-2.7" style="fill:#59b4d9"/><path id="path1780" d="m 20.6,25.1 c -0.7,-0.7 -1.2,-1.5 -1.4,-2.5 -0.6,-2.7 1.1,-5.5 3.8,-6.1 0.6,-0.1 1.1,-0.2 1.7,-0.1 0.2,-2.6 1.8,-4.8 4.1,-6 -0.7,-0.2 -1.5,-0.4 -2.2,-0.4 -3.3,0 -6,2.1 -7,5.1 -0.5,-0.2 -1.1,-0.3 -1.7,-0.3 -2.8,0 -5.1,2.3 -5.1,5.1 0,2.8 2.3,5.1 5.1,5.1 0,0 0,0 0,0 v 0 h 2.7 z" style="opacity:.2;fill:#fff"/></g></svg>