<svg xmlns="http://www.w3.org/2000/svg" xmlns:svg="http://www.w3.org/2000/svg" id="Layer_1" width="49.8" height="42.8" x="0" y="0" enable-background="new 0 0 50 50" version="1.1" viewBox="0 0 49.8 42.8" xml:space="preserve"><metadata id="metadata1877"/><path id="path1858" d="M 7.9,24.8 C 5.8,24.8 4.3,24.4 3.4,23.7 2.5,22.9 2.1,21.6 2.1,19.7 V 16.3 C 2.1,14.6 1.4,13.7 0,13.7 v -2.6 c 1.4,0 2.1,-0.9 2.1,-2.7 V 5.2 C 2.1,3.3 2.5,1.9 3.4,1.1 4.3,0.3 5.8,0 7.9,0 V 2.6 C 6.4,2.6 5.6,3.4 5.6,5.1 v 3 c 0,2.3 -0.7,3.7 -2.2,4.3 v 0 c 1.4,0.6 2.2,2 2.2,4.3 v 2.9 c 0,0.9 0.2,1.6 0.5,2 0.4,0.4 0.9,0.6 1.7,0.6 v 2.6 h 0.1 z" style="fill:#59b4d9"/><path id="path1860" d="m 41.9,18 c 2.1,0 3.6,0.4 4.5,1.1 0.9,0.8 1.3,2.1 1.3,4 v 3.4 c 0,1.7 0.7,2.6 2.1,2.6 v 2.6 c -1.4,0 -2.1,0.9 -2.1,2.7 v 3.1 c 0,1.9 -0.4,3.3 -1.3,4.1 -0.9,0.8 -2.4,1.2 -4.5,1.2 v -2.6 c 1.5,0 2.3,-0.8 2.3,-2.5 v -3 c 0,-2.3 0.7,-3.7 2.2,-4.3 v 0 c -1.4,-0.6 -2.2,-2 -2.2,-4.3 v -2.9 c 0,-0.9 -0.2,-1.6 -0.5,-2 -0.4,-0.4 -0.9,-0.6 -1.7,-0.6 z" style="fill:#59b4d9"/><path id="path1862" d="M 25.6,23.4 H 12.8 c -1.3,0 -2.4,-1.1 -2.4,-2.1 0,-1 1.1,-1.9 2.4,-1.9 h 12.8 c 1.4,0 2.4,0.8 2.4,1.9 0,1.1 -1,2.1 -2.4,2.1 z" style="fill:#a0a1a2"/><path id="path1864" d="M 36.6,32.5 H 16.8 c -1.3,0 -2.4,-1.1 -2.4,-2.1 0,-1 1.1,-1.9 2.4,-1.9 h 19.8 c 1.4,0 2.4,0.8 2.4,1.9 0,1.1 -1,2.1 -2.4,2.1 z" style="fill:#a0a1a2"/><path id="path1866" d="M 36.6,13.5 H 12.8 c -1.3,0 -2.4,-1.1 -2.4,-2.1 0,-1 1.1,-1.9 2.4,-1.9 h 23.8 c 1.4,0 2.4,0.8 2.4,1.9 0,1.1 -1,2.1 -2.4,2.1 z" style="fill:#a0a1a2"/><path id="path1868" d="M 32.6,4 H 12.8 C 11.5,4 10.4,2.9 10.4,1.9 10.4,0.9 11.5,0 12.8,0 H 32.6 C 34,0 35,0.8 35,1.9 35,3 34,4 32.6,4 Z" style="fill:#a0a1a2"/><path id="path1870" d="M 31.6,42.8 H 16.8 c -1.3,0 -2.4,-1.1 -2.4,-2.1 0,-1 1.1,-1.9 2.4,-1.9 h 14.8 c 1.3,0 2.4,0.8 2.4,1.9 0,1 -1,2.1 -2.4,2.1 z" style="fill:#a0a1a2"/></svg>