<svg xmlns="http://www.w3.org/2000/svg" xmlns:svg="http://www.w3.org/2000/svg" id="Layer_1" width="40" height="50" x="0" y="0" enable-background="new 0 0 50 50" version="1.1" viewBox="0 0 40 50" xml:space="preserve"><metadata id="metadata1931"/><path id="path1910" d="M 38.4,0 H 1.6 C 0.7,0 0,0.7 0,1.6 V 7 7.5 48.3 c 0,1 0.7,1.7 1.6,1.7 H 38.4 C 39.3,50 40,49.3 40,48.4 V 7.5 7 1.6 C 40,0.7 39.3,0 38.4,0 Z" style="fill:#59b4d9"/><path id="path1912" d="M 1.6,0 C 0.7,0 0,0.7 0,1.6 v 5.9 17 23.8 c 0,1 0.7,1.7 1.6,1.7 H 17 L 34.9,0 Z" style="opacity:.1;fill:#fff"/><rect id="rect1914" width="13.3" height="2.6" x="20.3" y="25.3" style="opacity:.6;fill:#fff"/><path id="path1916" d="M 5.9,11.5 5.5,11 C 5.4,10.9 5.4,10.7 5.5,10.6 L 6.8,9.4 C 6.9,9.3 6.9,9.3 7,9.3 c 0.1,0 0.2,0 0.2,0.1 l 3.5,3.8 6,-7.8 c 0.1,-0.1 0.2,-0.1 0.2,-0.1 0.1,0 0.1,0 0.2,0.1 l 1.4,1.1 c 0.1,0.1 0.1,0.1 0.1,0.2 0,0.1 0,0.2 -0.1,0.2 l -7.8,10 z" style="fill:#fff"/><path id="path1918" d="M 5.9,25.1 5.5,24.6 C 5.4,24.5 5.4,24.3 5.5,24.2 L 6.8,23 c 0.1,-0.1 0.1,-0.1 0.2,-0.1 0.1,0 0.2,0 0.2,0.1 l 3.5,3.8 6,-7.8 c 0.1,-0.1 0.2,-0.1 0.2,-0.1 0.1,0 0.1,0 0.2,0.1 l 1.4,1.1 c 0.1,0.1 0.1,0.1 0.1,0.2 0,0.1 0,0.2 -0.1,0.2 l -7.8,10 z" style="fill:#fff"/><rect id="rect1920" width="13.3" height="2.6" x="20.3" y="11.4" style="opacity:.6;fill:#fff"/><path id="path1922" d="M 5.9,40 5.5,39.5 c -0.1,-0.1 -0.1,-0.3 0,-0.4 l 1.3,-1.2 c 0.1,-0.1 0.1,-0.1 0.2,-0.1 0.1,0 0.2,0 0.2,0.1 l 3.5,3.8 6,-7.8 c 0.1,-0.1 0.2,-0.1 0.2,-0.1 0.1,0 0.1,0 0.2,0.1 l 1.4,1.1 c 0.1,0.1 0.1,0.1 0.1,0.2 0,0.1 0,0.2 -0.1,0.2 l -7.8,10 z" style="fill:#fff"/><rect id="rect1924" width="13.3" height="2.6" x="20.3" y="39.9" style="opacity:.6;fill:#fff"/></svg>