<svg xmlns="http://www.w3.org/2000/svg" xmlns:svg="http://www.w3.org/2000/svg" id="Layer_1" width="50" height="41.666" x="0" y="0" enable-background="new 0 0 50 50" version="1.1" viewBox="0 0 50 41.666" xml:space="preserve"><metadata id="metadata11"/><path id="path3" d="M 45.083,11.633 C 45.116,11.283 45.133,10.916 45.133,10.55 45.133,4.7330004 40.35,4.4965651e-7 34.483,4.4965651e-7 31,-9.9955034e-4 27.8,1.6660004 25.833,4.3990004 24.567,3.6160004 23.1,3.1830004 21.567,3.1830004 17.384,3.1830004 13.934,6.3660004 13.55,10.416 14.2,10.333 14.85,10.266 15.517,10.266 18.6,10.266 21.567,11.266 23.984,13.033 25.8,8.8490004 30.417,6.1660004 35.533,6.0160004 L 35.533,2.4330004 41.783,7.7830004 35.533,13.1 35.533,9.6000004 C 32.6,9.7160004 29.75,10.816 28.1,13.483 L 28.433,13.45 C 34.4,13.45 39.333,17.917 40.033,23.633 41.45,24.7 42.566,25.983 43.366,27.45 47.233,26.416 50,23.083 50,18.999 50,15.716 48.233,13.099 45.083,11.633 Z" style="fill:#0072c6"/><path id="path5" d="M 4.917,25.499 C 4.884,25.132 4.867,24.766 4.867,24.399 4.867,18.582 9.65,13.866 15.517,13.866 19,13.866 22.2,15.533 24.167,18.249 25.434,17.466 26.9,17.049 28.434,17.049 32.867,17.049 36.484,20.632 36.484,25.032 L 36.467,25.666 C 39.467,27.183 41.084,29.699 41.084,32.849 41.084,37.799 37.051,41.666 31.901,41.666 L 9.183,41.666 C 4.033,41.666 0,37.799 0,32.849 0,29.583 1.767,26.966 4.917,25.499 Z" style="fill:#59b4d9"/></svg>