<svg xmlns="http://www.w3.org/2000/svg" xmlns:svg="http://www.w3.org/2000/svg" id="Layer_1" width="50" height="41.69" x="0" y="0" enable-background="new 0 0 50 50" version="1.1" viewBox="0 0 50 41.69" xml:space="preserve"><metadata id="metadata2261"/><path id="path2244" d="M 47.583,23.524 H 16.787 c -1.325,0 -2.417,-1.12 -2.417,-2.14 0,-1.02 1.091,-1.86 2.417,-1.86 h 30.796 c 1.351,0 2.417,0.84 2.417,1.86 0,1.02 -1.065,2.14 -2.417,2.14 z" style="fill:#a0a1a2"/><path id="path2246" d="M 47.583,7.932 H 16.787 c -1.325,0 -2.417,-1.12 -2.417,-2.14 0,-1.02 1.091,-1.86 2.417,-1.86 h 30.796 c 1.351,0 2.417,0.84 2.417,1.86 0,1.02 -1.065,2.14 -2.417,2.14 z" style="fill:#a0a1a2"/><path id="path2248" d="M 47.609,39.117 H 16.787 c -1.325,0 -2.417,-1.12 -2.417,-2.14 0,-1.04 1.091,-1.86 2.417,-1.86 h 30.822 c 1.325,0 2.391,0.82 2.391,1.86 0,1.02 -1.065,2.14 -2.391,2.14 z" style="fill:#a0a1a2"/><polygon id="polygon2250" points="2.248 8.157 2.248 8.157 2.248 8.157 5.749 11.658 12.752 4.655 12.752 4.655 12.752 4.655 14.5 6.406 14.5 6.406 14.5 6.406 5.749 15.16 .5 9.907" transform="translate(-0.5,-4.655)" style="fill:#b8d432"/><polygon id="polygon2252" points="2.248 23.75 2.248 23.75 2.248 23.75 5.749 27.25 12.752 20.248 12.752 20.248 12.752 20.248 14.5 21.999 14.5 21.999 14.5 21.999 5.749 30.752 .5 25.5" transform="translate(-0.5,-4.655)" style="fill:#b8d432"/><polygon id="polygon2254" points="2.248 39.342 2.248 39.342 2.248 39.342 5.749 42.843 12.752 35.84 12.752 35.84 12.752 35.84 14.5 37.591 14.5 37.591 14.5 37.591 5.749 46.345 .5 41.092" transform="translate(-0.5,-4.655)" style="fill:#b8d432"/></svg>