<svg xmlns="http://www.w3.org/2000/svg" xmlns:svg="http://www.w3.org/2000/svg" id="Layer_1" width="50" height="44" x="0" y="0" enable-background="new 0 0 50 50" version="1.1" viewBox="0 0 50 44" xml:space="preserve"><metadata id="metadata2420"/><path id="path2399" d="m 0,42 c 0,1.1 0.9,2 2,2 h 46 c 1.1,0 2,-0.9 2,-2 V 8.6 H 0 Z" style="fill:#3999c6"/><path id="path2401" d="M 48,0 H 2 C 0.9,0 0,0.9 0,2 V 9.3 H 50 V 2 C 50,0.9 49.1,0 48,0 Z" style="fill:#a0a1a2"/><rect id="rect2403" width="50" height="3.3" x="0" y="9.3" style="opacity:.15;fill:#fff"/><path id="path2405" d="M 2,0 C 0.9,0 0,0.9 0,2 V 9.3 12.6 42 c 0,1.1 0.9,2 2,2 H 21.2 L 43.6,0 Z" style="opacity:.1;fill:#fff"/><path id="path2407" d="M 8.6,20.9 8.1,20.4 C 8,20.3 8,20.1 8.1,20 l 1.4,-1.2 c 0.1,-0.1 0.1,-0.1 0.2,-0.1 0.1,0 0.2,0 0.2,0.1 l 3.7,4 6.4,-8.1 c 0.1,-0.1 0.2,-0.1 0.3,-0.1 0.1,0 0.1,0 0.2,0.1 l 1.5,1.1 c 0.1,0.1 0.1,0.1 0.1,0.2 0,0.1 0,0.2 -0.1,0.2 l -8.3,10.5 z" style="fill:#fff"/><rect id="rect2409" width="20" height="3.3" x="22" y="20.9" style="opacity:.6;fill:#fff"/><path id="path2411" d="M 8.6,34 8.1,33.5 C 8,33.4 8,33.2 8.1,33 l 1.4,-1.2 c 0.1,-0.1 0.1,-0.1 0.2,-0.1 0.1,0 0.2,0 0.2,0.1 l 3.7,4 6.4,-8.1 c 0.1,-0.1 0.2,-0.1 0.3,-0.1 0.1,0 0.1,0 0.2,0.1 l 1.5,1.1 c 0.1,0.1 0.1,0.1 0.1,0.2 0,0.1 0,0.2 -0.1,0.2 l -8.3,10.5 z" style="fill:#fff"/><rect id="rect2413" width="20" height="3.3" x="22" y="34" style="opacity:.6;fill:#fff"/></svg>