<svg xmlns="http://www.w3.org/2000/svg" xmlns:svg="http://www.w3.org/2000/svg" id="Layer_1" width="50" height="46.4" x="0" y="0" version="1.1" viewBox="0 0 50 46.4" xml:space="preserve"><metadata id="metadata2355"/><path id="path2314" d="m 0,25.2 c 0,0.7 0.5,1.2 1.2,1.2 h 27.6 c 0.7,0 1.2,-0.5 1.2,-1.2 V 5.2 H 0 Z" style="fill:#0072c6"/><path id="path2316" d="M 28.8,0 H 1.2 C 0.5,0 0,0.5 0,1.2 V 5.6 H 30 V 1.2 C 30,0.5 29.5,0 28.8,0 Z" style="fill:#a0a1a2"/><path id="path2318" d="M 1.2,0 C 0.5,0 0,0.5 0,1.2 v 4.4 2 17.6 c 0,0.7 0.5,1.2 1.2,1.2 H 12.7 L 26.2,0 Z" style="opacity:.1;fill:#fff"/><path id="path2320" d="M 5.1,12.6 4.8,12.3 C 4.7,12.2 4.7,12.1 4.8,12 l 0.8,-0.7 c 0,0 0.1,-0.1 0.1,-0.1 0.1,0 0.1,0 0.1,0.1 L 8,13.7 11.9,8.8 c 0,0 0.1,-0.1 0.2,-0.1 0,0 0.1,0 0.1,0 l 0.9,0.7 c 0,0 0.1,0.1 0.1,0.1 0,0.1 0,0.1 0,0.1 l -5,6.3 z" style="fill:#fff"/><path id="path2322" d="M 5.1,20.4 4.8,20.1 C 4.7,20 4.7,19.9 4.8,19.8 l 0.8,-0.7 c 0,0 0.1,-0.1 0.1,-0.1 0.1,0 0.1,0 0.1,0.1 l 2.2,2.4 3.9,-4.9 c 0,0 0.1,-0.1 0.2,-0.1 0,0 0.1,0 0.1,0 l 0.9,0.7 c 0,0 0.1,0.1 0.1,0.1 0,0.1 0,0.1 0,0.1 l -5,6.3 z" style="fill:#fff"/><path id="path2324" d="m 10,35.2 c 0,0.7 0.5,1.2 1.2,1.2 h 27.6 c 0.7,0 1.2,-0.5 1.2,-1.2 v -20 H 10 Z" style="fill:#3999c6"/><path id="path2326" d="M 38.8,10 H 11.2 C 10.5,10 10,10.5 10,11.2 v 4.4 H 40 V 11.2 C 40,10.5 39.5,10 38.8,10 Z" style="fill:#a0a1a2"/><path id="path2328" d="M 11.2,10 C 10.5,10 10,10.5 10,11.2 v 4.4 2 17.6 c 0,0.7 0.5,1.2 1.2,1.2 H 22.7 L 36.2,10 Z" style="opacity:.1;fill:#fff"/><path id="path2330" d="m 15.1,22.6 -0.3,-0.3 c -0.1,-0.1 -0.1,-0.2 0,-0.3 l 0.8,-0.7 c 0,0 0.1,-0.1 0.1,-0.1 0.1,0 0.1,0 0.1,0.1 l 2.2,2.4 3.9,-4.9 c 0,0 0.1,-0.1 0.2,-0.1 0,0 0.1,0 0.1,0 l 0.9,0.7 c 0,0 0.1,0.1 0.1,0.1 0,0.1 0,0.1 0,0.1 l -5,6.3 z" style="fill:#fff"/><path id="path2332" d="m 15.1,30.4 -0.3,-0.3 c -0.1,-0.1 -0.1,-0.2 0,-0.3 l 0.8,-0.7 c 0,0 0.1,-0.1 0.1,-0.1 0.1,0 0.1,0 0.1,0.1 l 2.2,2.4 3.9,-4.9 c 0,0 0.1,-0.1 0.2,-0.1 0,0 0.1,0 0.1,0 l 0.9,0.7 c 0,0 0.1,0.1 0.1,0.1 0,0.1 0,0.1 0,0.1 l -5,6.3 z" style="fill:#fff"/><path id="path2334" d="m 20,45.2 c 0,0.7 0.5,1.2 1.2,1.2 h 27.6 c 0.7,0 1.2,-0.5 1.2,-1.2 v -20 H 20 Z" style="fill:#59b4d9"/><path id="path2336" d="M 48.8,20 H 21.2 C 20.5,20 20,20.5 20,21.2 v 4.4 H 50 V 21.2 C 50,20.5 49.5,20 48.8,20 Z" style="fill:#a0a1a2"/><rect id="rect2338" width="30" height="2" x="20" y="25.6" style="opacity:.15;fill:#fff"/><path id="path2340" d="M 21.2,20 C 20.5,20 20,20.5 20,21.2 v 4.4 2 17.6 c 0,0.7 0.5,1.2 1.2,1.2 H 32.7 L 46.2,20 Z" style="opacity:.1;fill:#fff"/><path id="path2342" d="m 25.1,32.6 -0.3,-0.3 c -0.1,-0.1 -0.1,-0.2 0,-0.3 l 0.8,-0.7 c 0,0 0.1,-0.1 0.1,-0.1 0.1,0 0.1,0 0.1,0.1 l 2.2,2.4 3.9,-4.9 c 0,0 0.1,-0.1 0.2,-0.1 0,0 0.1,0 0.1,0 l 0.9,0.7 c 0,0 0.1,0.1 0.1,0.1 0,0.1 0,0.1 0,0.1 l -5,6.3 z" style="fill:#fff"/><rect id="rect2344" width="12" height="2" x="33.2" y="32.5" style="opacity:.6;fill:#fff"/><path id="path2346" d="m 25.1,40.4 -0.3,-0.3 c -0.1,-0.1 -0.1,-0.2 0,-0.3 l 0.8,-0.7 c 0,0 0.1,-0.1 0.1,-0.1 0.1,0 0.1,0 0.1,0.1 l 2.2,2.4 3.9,-4.9 c 0,0 0.1,-0.1 0.2,-0.1 0,0 0.1,0 0.1,0 l 0.9,0.7 c 0,0 0.1,0.1 0.1,0.1 0,0.1 0,0.1 0,0.1 l -5,6.3 z" style="fill:#fff"/><rect id="rect2348" width="12" height="2" x="33.2" y="40.4" style="opacity:.6;fill:#fff"/></svg>