<svg xmlns="http://www.w3.org/2000/svg" xmlns:svg="http://www.w3.org/2000/svg" id="Layer_1" width="50" height="48.4" x="0" y="0" enable-background="new 0 0 50 50" version="1.1" viewBox="0 0 50 48.4" xml:space="preserve"><metadata id="metadata15"/><path id="path3" d="M 29.6,23.2 C 29.6,20.7 27.6,18.7 25.1,18.7 22.6,18.7 20.6,20.7 20.6,23.2 20.6,25.7 22.6,27.7 25.1,27.7 27.6,27.7 29.6,25.7 29.6,23.2 Z" style="fill:#b8d432"/><path id="path5" d="M 43.1,15.3 C 43.4,14.3 43.5,13.3 43.5,12.2 43.5,5.5 38.2,0 31.7,0 26.8,0 22.6,3.1 20.8,7.5 19.3,5.6 17,4.5 14.4,4.5 9.8,4.5 6.1,8.4 6.1,13.1 6.1,13.9 6.2,14.7 6.4,15.5 2.7,16.9 0,20.2 0,24.6 0,30.2 4.4,34.4 9.9,34.4 L 12.8,34.4 24.1,34.4 24.1,30.3 C 22.3,30 20.7,29.1 19.7,27.7 L 15.9,29.7 17.2,32.7 11.4,31.2 13.4,25.2 14.9,28 18.6,25.8 C 18.3,25 18.1,24 18.1,23 18.1,22.1 18.3,21.2 18.6,20.4 L 18.6,20.4 14.7,18.1 13.2,20.8 11.3,14.8 17.2,13.8 15.8,16.3 19.7,18.6 C 20.8,17.2 22.4,16.2 24.3,15.9 L 24.3,11.5 21.5,11.5 25.3,6.9 29.3,11.5 26.3,11.5 26.3,15.9 C 28.2,16.2 29.8,17.2 30.9,18.6 L 34.8,16.3 33.3,13.7 39.2,14.9 37.3,20.8 35.8,18.2 31.9,20.5 C 32.2,21.3 32.4,22.2 32.4,23.1 32.4,24 32.2,24.9 31.9,25.7 L 35.8,28 37.5,25.1 39.3,31.3 33,32.7 34.6,29.8 30.7,27.5 C 29.6,29 27.9,30 26.1,30.2 L 26.1,34.4 38.3,34.4 40.2,34.4 C 45.7,34.4 50,30.2 50,24.6 50,20.1 47.1,16.6 43.1,15.3 Z" style="fill:#59b4d9"/><rect id="rect7" width="3" height="7" x="23.5" y="34.4" style="fill:#3999c6"/><circle id="circle9" cx="25" cy="44.4" r="4" style="fill:#0072c6"/></svg>