<svg xmlns="http://www.w3.org/2000/svg" xmlns:svg="http://www.w3.org/2000/svg" id="Layer_1" width="47" height="50" x="0" y="0" enable-background="new 0 0 50 50" version="1.1" viewBox="0 0 47 50" xml:space="preserve"><metadata id="metadata19"/><circle id="circle3" cx="22.8" cy="11.1" r="4" style="fill:#7fba00"/><circle id="circle5" cx="23.1" cy="38.9" r="4" style="fill:#7fba00"/><path id="path7" d="M 13,40.9 11.1,40.9 C 5,40.9 0,35.9 0,29.8 L 0,20.1 C 0.1,14.3 5,9.3 11,9 L 14,9 C 15,9 15.8,9.8 15.8,10.8 15.8,11.8 15,12.6 14,12.6 L 11.1,12.6 C 7.1,12.8 3.7,16.1 3.7,20 L 3.7,29.7 C 3.7,33.8 7,37.1 11.1,37.1 L 13,37.1 C 14,37.1 14.8,37.9 14.8,38.9 14.8,40.1 14,40.9 13,40.9 Z" style="fill:#59b4d9"/><path id="path9" d="M 35.9,40.9 32,40.9 C 31,40.9 30.2,40.1 30.2,39.1 30.2,38.1 31,37.3 32,37.3 L 35.9,37.3 C 40,37.3 43.3,34 43.3,29.9 L 43.3,20.2 C 43.3,16.1 40,12.8 35.9,12.8 L 33,12.8 C 32,12.8 31.2,12 31.2,11 31.2,10 32,9.2 33,9.2 L 35.9,9.2 C 42,9.2 47,14.2 47,20.3 L 47,30 C 47,36 42,40.9 35.9,40.9 Z" style="fill:#804998"/><path id="path11" d="M 22.6,22.2 C 19.8,22.2 16.9,21.1 14.8,19 14.1,18.3 14.1,17.1 14.8,16.4 15.5,15.7 16.7,15.7 17.4,16.4 20.3,19.3 25,19.3 27.8,16.4 30.7,13.5 30.7,8.8 27.8,6 26.4,4.6 24.5,3.8 22.6,3.8 20.6,3.8 18.8,4.6 17.4,6 16.7,6.7 15.5,6.7 14.8,6 14.1,5.3 14.1,4.1 14.8,3.4 16.9,1.2 19.7,0 22.6,0 25.6,0 28.3,1.2 30.4,3.2 34.7,7.5 34.7,14.6 30.4,18.9 28.3,21.1 25.5,22.2 22.6,22.2 Z" style="fill:#68217a"/><path id="path13" d="M 23,50 C 20,50 17.3,48.8 15.2,46.8 10.9,42.5 10.9,35.4 15.2,31.1 17.3,29 20.1,27.9 23,27.9 26,27.9 28.7,29.1 30.8,31.1 31.5,31.8 31.5,33 30.8,33.7 30.1,34.4 28.9,34.4 28.2,33.7 26.8,32.3 24.9,31.5 23,31.5 21,31.5 19.2,32.3 17.8,33.7 14.9,36.6 14.9,41.3 17.8,44.1 19.2,45.5 21,46.3 23,46.3 25,46.3 26.8,45.5 28.2,44.1 28.9,43.4 30.1,43.4 30.8,44.1 31.5,44.8 31.5,46 30.8,46.7 28.8,48.8 26,50 23,50 Z" style="fill:#0072c6"/></svg>