<svg xmlns="http://www.w3.org/2000/svg" xmlns:svg="http://www.w3.org/2000/svg" id="Layer_1" width="50" height="42.7" x="0" y="0" enable-background="new 0 0 50 50" version="1.1" viewBox="0 0 50 42.7" xml:space="preserve"><metadata id="metadata4859"/><path id="path4840" d="m 0,40.8 c 0,1 0.8,1.9 1.8,1.9 h 46.3 c 1,0 1.9,-0.8 1.9,-1.9 V 7.7 H 0 Z" style="fill:#a0a1a2"/><path id="path4842" d="M 48.1,0 H 1.8 C 0.8,0 0,0.9 0,1.9 V 7.6 H 50 V 1.9 C 50,0.9 49.2,0 48.1,0" style="fill:#7a7a7a"/><polygon id="polygon4844" points="3.7 43 22.7 43 22.7 25.6 13.1 16 3.7 16" transform="translate(0,-4)" style="fill:#b8d432"/><polygon id="polygon4846" points="4.8 42 21.6 42 21.6 26.3 12.4 26.3 12.4 17.1 4.8 17.1" transform="translate(0,-4)" style="opacity:.8;fill:#fff"/><polygon id="polygon4848" points="27.2 43 46.2 43 46.2 25.6 36.6 16 27.2 16" transform="translate(0,-4)" style="fill:#b8d432"/><polygon id="polygon4850" points="28.3 42 45.1 42 45.1 26.3 35.9 26.3 35.9 17.1 28.3 17.1" transform="translate(0,-4)" style="opacity:.8;fill:#fff"/><path id="path4852" d="M 2,0 C 0.9,0 0,0.9 0,2 v 7.3 3.3 28 c 0,1.1 0.9,2 2,2 H 4.2 L 43.6,0 Z" style="opacity:.2;fill:#fff"/></svg>