<svg xmlns="http://www.w3.org/2000/svg" xmlns:svg="http://www.w3.org/2000/svg" id="Layer_1" width="48.158" height="35.919" x="0" y="0" version="1.1" viewBox="0 0 48.158 35.919" xml:space="preserve"><metadata id="metadata4360"/><style id="style4335" type="text/css">.st0{fill:#0072c6}.st1{opacity:.3}.st2{fill:#fff}</style><title id="title4337">Blockchain_icon</title><g id="g4351" transform="translate(0.02080241,0.00819059)"><g id="g4345"><circle id="circle4339" cx="23" cy="15" r="5" class="st0" style="fill:#0072c6"/><path id="path4341" d="M 37.2,10.2 C 34.6,2.4 26.1,-1.9 18.2,0.8 13,2.6 9.1,7.1 8.2,12.6 c -6.3,2.1 -9.7,8.9 -7.6,15.1 2.1,6.2 8.9,9.7 15.1,7.6 2.6,-0.9 4.8,-2.6 6.3,-4.8 v -8.7 c -1.6,-0.2 -3.1,-1 -4.2,-2.3 l -0.9,0.9 c 1.9,2.7 1.3,6.5 -1.4,8.4 C 12.8,30.7 9,30.1 7.1,27.4 5.2,24.7 5.8,21 8.5,19.1 c 2.1,-1.5 4.9,-1.5 7,0 l 1.2,-1.2 c -1.6,-3.5 -0.1,-7.7 3.4,-9.3 3.5,-1.6 7.7,-0.1 9.3,3.4 0.8,1.8 0.9,3.9 0.1,5.7 l 2.2,1.6 c 0.2,-0.2 0.4,-0.4 0.6,-0.5 2.4,-1.7 5.7,-1.1 7.3,1.2 1.7,2.4 1.1,5.7 -1.2,7.3 C 36,29 32.7,28.4 31.1,26.1 30,24.6 29.8,22.6 30.6,20.9 l -2.1,-1.5 c -1.1,1.3 -2.6,2.2 -4.3,2.4 v 8 c 0,0 0,0 0,0 3.8,6.1 11.9,7.9 17.9,4 6,-3.9 7.9,-11.9 4,-17.9 -2,-2.9 -5.2,-5.1 -8.9,-5.7 z" class="st0" style="fill:#0072c6"/><circle id="circle4343" cx="12" cy="24" r="4" class="st0" style="fill:#0072c6"/></g><g id="g4349" class="st1" style="opacity:.3"><path id="path4347" d="M 12.2,16.6 C 13.5,8.5 21.1,2.9 29.3,4.2 c 2.2,0.3 4.3,1.2 6.1,2.4 -4.6,-6.8 -13.9,-8.7 -20.8,-4 -3.4,2.3 -5.8,6 -6.4,10.1 -6.2,2 -9.6,8.8 -7.6,15.1 0.9,2.7 2.7,5 5.2,6.5 -3.5,-5.6 -1.7,-13 4,-16.5 0.7,-0.5 1.6,-0.9 2.4,-1.2 z" class="st2" style="fill:#fff"/></g></g></svg>