<svg xmlns="http://www.w3.org/2000/svg" xmlns:svg="http://www.w3.org/2000/svg" id="Layer_1" width="50" height="42.634" x="0" y="0" enable-background="new .5 .5 50 50" version="1.1" viewBox="0.5 0.5 50 42.634" xml:space="preserve"><metadata id="metadata5063"/><path id="path5046" d="m 0.5,41.127 c 0,1.108 0.898,2.007 2.007,2.007 h 45.986 c 1.109,0 2.007,-0.899 2.007,-2.007 V 9.798 h -50 z" style="fill:#59b4d9"/><path id="path5048" d="M 48.493,0.5 H 2.507 C 1.398,0.5 0.5,1.398 0.5,2.507 v 10.627 h 50 V 2.507 C 50.5,1.398 49.601,0.5 48.493,0.5" style="fill:#a0a1a2"/><path id="path5050" d="M 2.514,0.5 C 1.406,0.5 0.507,1.398 0.507,2.507 v 7.291 3.336 27.993 c 0,1.108 0.899,2.007 2.007,2.007 H 4.702 L 44.12,0.5 Z" enable-background="new" style="opacity:.2;fill:#fff"/><rect id="rect5052" width="33.671" height="3.942" x="13.357" y="5.279" style="fill:#fff"/><path id="path5054" d="m 11.81,7.183 c 0,2.693 -2.184,4.878 -4.878,4.878 -2.694,0 -4.878,-2.185 -4.878,-4.878 0,-2.694 2.184,-4.879 4.878,-4.879 2.693,0 4.878,2.185 4.878,4.879" style="fill:#59b4d9"/><polygon id="polygon5056" points="7.428 14.068 4.469 11.25 7.417 8.432 8.615 8.432 6.416 10.754 11.809 10.754 11.809 11.732 6.416 11.732 8.629 14.068" transform="translate(0,-4)" style="fill:#fff"/></svg>