<svg xmlns="http://www.w3.org/2000/svg" xmlns:svg="http://www.w3.org/2000/svg" id="Layer_1" width="50.002" height="42.139" x="0" y="0" enable-background="new 0 0 50 50" version="1.1" viewBox="0 0 50.002 42.139" xml:space="preserve"><metadata id="metadata41"/><g id="g3" transform="translate(5.3339518e-5,-3.8605)"><path id="path5" d="M 0.01,35.63 C -0.075,36.162 0.379,36.706 1.372,37.113 L 21.688,45.437 C 23.517,46.187 26.483,46.187 28.313,45.437 L 48.629,37.113 C 49.622,36.706 50.076,36.162 49.991,35.63 L 49.996,30.862 C 50.058,31.384 49.602,31.914 48.629,32.313 L 28.313,40.637 C 26.484,41.387 23.518,41.387 21.688,40.637 L 1.372,32.313 C 0.304,31.875 -0.141,31.279 0.039,30.709 L 0.01,35.63 Z" style="fill:#ba141a"/><path id="path7" d="M 48.628,29.599 C 50.457,30.349 50.457,31.564 48.628,32.313 L 28.312,40.637 C 26.483,41.387 23.517,41.387 21.687,40.637 L 1.372,32.313 C -0.457,31.563 -0.457,30.348 1.372,29.599 L 21.688,21.275 C 23.517,20.525 26.483,20.525 28.313,21.275 L 48.628,29.599 Z" style="fill:#ba141a"/></g><g id="g9" transform="translate(5.3339518e-5,-3.8605)"><path id="path11" d="M 0.01,27.204 C -0.075,27.736 0.379,28.28 1.372,28.687 L 21.688,37.011 C 23.517,37.761 26.483,37.761 28.313,37.011 L 48.629,28.687 C 49.622,28.28 50.076,27.736 49.991,27.204 L 49.996,22.436 C 50.058,22.958 49.602,23.488 48.629,23.887 L 28.313,32.211 C 26.484,32.961 23.518,32.961 21.688,32.211 L 1.372,23.887 C 0.304,23.449 -0.141,22.853 0.039,22.283 L 0.01,27.204 Z" style="fill:#ba141a"/><path id="path13" d="M 48.628,21.173 C 50.457,21.923 50.457,23.138 48.628,23.887 L 28.312,32.211 C 26.483,32.961 23.517,32.961 21.687,32.211 L 1.372,23.887 C -0.457,23.137 -0.457,21.922 1.372,21.173 L 21.688,12.849 C 23.517,12.099 26.483,12.099 28.313,12.849 L 48.628,21.173 Z" style="fill:#ba141a"/></g><g id="g15" transform="translate(5.3339518e-5,-3.8605)"><path id="path17" d="M 0.01,18.778 C -0.075,19.31 0.379,19.854 1.372,20.261 L 21.688,28.585 C 23.517,29.335 26.483,29.335 28.313,28.585 L 48.629,20.261 C 49.622,19.854 50.076,19.31 49.991,18.778 L 49.996,14.01 C 50.058,14.532 49.602,15.062 48.629,15.461 L 28.313,23.785 C 26.484,24.535 23.518,24.535 21.688,23.785 L 1.372,15.461 C 0.304,15.023 -0.141,14.427 0.039,13.857 L 0.01,18.778 Z" style="fill:#ba141a"/><path id="path19" d="M 0.01,35.63 C -0.075,36.162 0.379,36.706 1.372,37.113 L 21.688,45.437 C 23.517,46.187 26.483,46.187 28.313,45.437 L 48.629,37.113 C 49.622,36.706 50.076,36.162 49.991,35.63 L 49.996,30.862 C 50.058,31.384 49.602,31.914 48.629,32.313 L 28.313,40.637 C 26.484,41.387 23.518,41.387 21.688,40.637 L 1.372,32.313 C 0.304,31.875 -0.141,31.279 0.039,30.709 L 0.01,35.63 Z" style="opacity:.25;fill:#1e1e1e"/><path id="path21" d="M 0.01,27.204 C -0.075,27.736 0.379,28.28 1.372,28.687 L 21.688,37.011 C 23.517,37.761 26.483,37.761 28.313,37.011 L 48.629,28.687 C 49.622,28.28 50.076,27.736 49.991,27.204 L 49.996,22.436 C 50.058,22.958 49.602,23.488 48.629,23.887 L 28.313,32.211 C 26.484,32.961 23.518,32.961 21.688,32.211 L 1.372,23.887 C 0.304,23.449 -0.141,22.853 0.039,22.283 L 0.01,27.204 Z" style="opacity:.25;fill:#1e1e1e"/><path id="path23" d="M 0.01,18.778 C -0.075,19.31 0.379,19.854 1.372,20.261 L 21.688,28.585 C 23.517,29.335 26.483,29.335 28.313,28.585 L 48.629,20.261 C 49.622,19.854 50.076,19.31 49.991,18.778 L 49.996,14.01 C 50.058,14.532 49.602,15.062 48.629,15.461 L 28.313,23.785 C 26.484,24.535 23.518,24.535 21.688,23.785 L 1.372,15.461 C 0.304,15.023 -0.141,14.427 0.039,13.857 L 0.01,18.778 Z" style="opacity:.25;fill:#1e1e1e"/><path id="path25" d="M 48.628,12.747 C 50.457,13.497 50.457,14.712 48.628,15.461 L 28.312,23.785 C 26.483,24.535 23.517,24.535 21.687,23.785 L 1.372,15.461 C -0.457,14.711 -0.457,13.496 1.372,12.747 L 21.688,4.423 C 23.517,3.673 26.483,3.673 28.313,4.423 L 48.628,12.747 Z" style="fill:#ba141a"/></g><path id="path27" d="M 18.740053,11.8125 C 16.421053,12.8435 12.662053,12.8435 10.344053,11.8125 8.0260533,10.7815 8.0250533,9.1095 10.344053,8.0775 12.663053,7.0455 16.422053,7.0465 18.740053,8.0775 21.058053,9.1085 21.059053,10.7815 18.740053,11.8125 Z" style="fill:#fff"/><polygon id="polygon29" points="17.167 18.329 29.065 16.911 25.877 22.203" transform="translate(5.3339518e-5,-3.8605)" style="fill:#fff"/><polygon id="polygon31" points="42.926 13.834 35.81 16.999 28.695 13.834 35.81 10.669" transform="translate(5.3339518e-5,-3.8605)" style="opacity:.25;fill:#1e1e1e"/><polygon id="polygon33" points="35.81 16.999 28.695 13.834 35.81 10.669" transform="translate(5.3339518e-5,-3.8605)" style="opacity:.25;fill:#1e1e1e"/><polygon id="polygon35" points="21.661 6.412 25.156 7.837 29.47 6.963 27.504 8.881 30.707 10.436 25.997 10.197 23.662 12.033 22.717 9.966 18.072 9.546 22.198 8.508" transform="translate(5.3339518e-5,-3.8605)" style="fill:#fff"/></svg>