<svg xmlns="http://www.w3.org/2000/svg" xmlns:svg="http://www.w3.org/2000/svg" id="Layer_1" width="40.667" height="41.417" x="0" y="0" enable-background="new 0 0 300 250" version="1.1" viewBox="0 0 244 207.083" xml:space="preserve"><metadata id="metadata31"/><path id="path3" d="M 0,9.0000046 0,189.5 C 0,208.5 42,223.5 93.5,223.5 L 93.5,9.0000046 0,9.0000046 Z" style="fill:#3999c6"/><path id="path5" d="M 92.5,223.5 94,223.5 C 146,223.5 187.5,208.5 187.5,189.5 L 187.5,9.0000046 92.5,9.0000046 92.5,223.5 Z" style="fill:#59b4d9"/><path id="path7" d="M 187.5,9.0000046 C 187.5,27.500005 145.5,43.000005 94,43.000005 42.5,43.000005 0,27.500005 0,9.0000046 0,-9.4999954 42,-24.999995 93.5,-24.999995 145,-24.999995 187.5,-9.4999954 187.5,9.0000046" style="fill:#fff"/><path id="path9" d="M 168.5,7.0000046 C 168.5,19.500005 135,29.500005 94,29.500005 53,29.500005 19,19.500005 19,7.0000046 19,-5.4999954 52.5,-15.499995 93.5,-15.499995 134.5,-15.499995 168.5,-5.4999954 168.5,7.0000046" style="fill:#7fba00"/><path id="path11" d="M 152.5,20.500005 C 162.5,16.500005 168,12.000005 168,7.0000046 168,-5.4999954 134.5,-15.499995 93.5,-15.499995 52.5,-15.499995 19,-5.4999954 19,7.0000046 19,12.000005 25,17.000005 34.5,20.500005 48,15.000005 69.5,12.000005 93.5,12.000005 117.5,12.000005 139,15.500005 152.5,20.500005" style="fill:#b8d432"/><path id="path13" d="M 119,80.500005 119,201 C 119,213.5 147,223.5 181.5,223.5 L 181.5,80.500005 119,80.500005 Z" style="fill:#0072c6"/><path id="path15" d="M 180.5,223.5 181.5,223.5 C 216,223.5 244,213.5 244,201 L 244,80.500005 180.5,80.500005 180.5,223.5 Z" style="fill:#0072c6"/><path id="path17" d="M 180.5,223.5 181.5,223.5 C 216,223.5 244,213.5 244,201 L 244,80.500005 180.5,80.500005 180.5,223.5 Z" enable-background="new" style="opacity:.15;fill:#fff"/><path id="path19" d="M 244,80.500005 C 244,93.000005 216,103 181.5,103 147,103 119,93.000005 119,80.500005 119,68.000005 147,58.000005 181.5,58.000005 216,58.000005 244,68.000005 244,80.500005" style="fill:#fff"/><path id="path21" d="M 231,79.000005 C 231,87.000005 208.5,94.000005 181.5,94.000005 154.5,94.000005 132,87.500005 132,79.000005 132,71.000005 154.5,64.000005 181.5,64.000005 208.5,64.000005 231,71.000005 231,79.000005" style="fill:#7fba00"/><path id="path23" d="M 220.5,88.000005 C 227,85.500005 231,82.500005 231,79.000005 231,71.000005 208.5,64.000005 181.5,64.000005 154,64.000005 132,70.500005 132,79.000005 132,82.500005 136,85.500005 142.5,88.000005 151.5,84.500005 166,82.000005 182,82.000005 197,82.000005 211,84.500005 220.5,88.000005" style="fill:#b8d432"/><polygon id="polygon25" points="174.5 193 244 136 217 180 240.5 180 171 237.5 198 193" transform="translate(-25,-26.499995)" style="fill:#fff"/></svg>