<svg xmlns="http://www.w3.org/2000/svg" xmlns:xlink="http://www.w3.org/1999/xlink" id="Layer_1" width="15" height="15" x="0" y="0" enable-background="new 0 0 15 15" version="1.1" viewBox="0 0 15 15" xml:space="preserve"><g><path fill="#A0A1A2" d="M14.2,0H0.9C0.4,0,0,0.4,0,0.9V14c0,0.6,0.4,1,0.9,1h13.2c0.5,0,0.9-0.4,0.9-0.9V0.9 C15.1,0.4,14.7,0,14.2,0z M14,14H1V4h13V14z"/><rect width="2" height="2" x="5" y="5" fill="#A0A1A2"/><rect width="2" height="2" x="8" y="5" fill="#A0A1A2"/><rect width="2" height="2" x="2" y="8" fill="#A0A1A2"/><rect width="2" height="2" x="5" y="8" fill="#A0A1A2"/><rect width="2" height="2" x="8" y="8" fill="#A0A1A2"/><rect width="2" height="2" x="11" y="8" fill="#A0A1A2"/><rect width="2" height="2" x="2" y="11" fill="#A0A1A2"/><rect width="2" height="2" x="5" y="11" fill="#A0A1A2"/><rect width="2" height="2" x="8" y="11" fill="#A0A1A2"/><rect width="2" height="2" x="11" y="5" fill="#A0A1A2"/></g></svg>