<svg xmlns="http://www.w3.org/2000/svg" xmlns:svg="http://www.w3.org/2000/svg" id="Layer_1" width="50" height="42.143" x="0" y="0" enable-background="new 0 0 50 50" version="1.1" viewBox="0 0 50 42.143" xml:space="preserve"><metadata id="metadata5550"/><path id="path5529" d="m 50,33.571 c 0,1.973 -1.599,3.571 -3.571,3.571 H 3.571 C 1.599,37.143 0,35.544 0,33.571 v -30 C 0,1.599 1.599,0 3.571,0 H 46.428 C 48.401,0 50,1.599 50,3.571 Z" style="fill:#fcd116"/><rect id="rect5531" width="41.429" height="28.571" x="4.286" y="4.286" style="fill:#fff"/><circle id="circle5533" cx="12.143" cy="26.429" r="5.714" style="fill:#dd5900"/><circle id="circle5535" cx="12.143" cy="26.429" r="4.286" style="fill:#ff8c00"/><path id="path5537" d="m 12.143,30.714 c -1.662,0 -3.174,-0.64 -4.317,-1.679 l -0.678,13.031 4.923,-4.923 5,5 0.072,-0.714 -0.683,-12.394 c -1.143,1.04 -2.655,1.679 -4.317,1.679 z" style="fill:#dd5900"/><path id="path5539" d="m 40.962,25.085 c 0,0.441 -0.358,0.799 -0.799,0.799 H 22.227 c -0.441,0 -0.799,-0.358 -0.799,-0.799 0,-0.441 0.358,-0.799 0.799,-0.799 h 17.936 c 0.441,0 0.799,0.358 0.799,0.799" style="fill:#7a7a7a"/><path id="path5541" d="m 40.962,20.714 c 0,0.441 -0.358,0.799 -0.799,0.799 H 22.227 c -0.441,0 -0.799,-0.358 -0.799,-0.799 0,-0.441 0.358,-0.799 0.799,-0.799 h 17.936 c 0.441,0 0.799,0.358 0.799,0.799" style="fill:#7a7a7a"/><path id="path5543" d="m 40.962,14.286 c 0,0.441 -0.358,0.799 -0.799,0.799 H 10.084 c -0.441,0 -0.799,-0.358 -0.799,-0.799 0,-0.441 0.358,-0.799 0.799,-0.799 h 30.078 c 0.442,-10e-4 0.8,0.357 0.8,0.799" style="fill:#7a7a7a"/></svg>