<svg xmlns="http://www.w3.org/2000/svg" xmlns:svg="http://www.w3.org/2000/svg" id="Layer_1" width="16" height="13.82" x="0" y="0" enable-background="new 0 0 16 16" version="1.1" viewBox="0 0 16 13.82" xml:space="preserve"><metadata id="metadata5634"/><path id="path5627" d="m 0.6319024,7.427 -0.531,-0.575 c -0.138,-0.152 -0.138,-0.393 0.022,-0.538 l 1.534,-1.418 c 0.073,-0.066 0.16,-0.101 0.255,-0.101 0.108,0 0.204,0.044 0.276,0.123 l 4.218,4.523 7.2579996,-9.296 c 0.073,-0.094 0.182,-0.145 0.298,-0.145 0.088,0 0.167,0.029 0.233,0.081 l 1.659,1.28 c 0.081,0.059 0.13,0.145 0.145,0.248 0.007,0.101 -0.015,0.204 -0.081,0.276 L 6.5949024,13.82 Z" style="fill:#7fba00"/></svg>