<svg xmlns="http://www.w3.org/2000/svg" xmlns:svg="http://www.w3.org/2000/svg" id="Layer_1" width="50" height="42.6" x="0" y="0" enable-background="new 0 0 50 50" version="1.1" viewBox="0 0 50 42.6" xml:space="preserve"><metadata id="metadata5720"/><path id="path5699" d="m 0,40.6 c 0,1.1 0.9,2 2,2 h 46 c 1.1,0 2,-0.9 2,-2 V 9.3 H 0 Z" style="fill:#59b4d9"/><path id="path5701" d="M 48,0 H 2 C 0.9,0 0,0.9 0,2 V 12.6 H 50 V 2 C 50,0.9 49.1,0 48,0" style="fill:#0072c6"/><rect id="rect5703" width="33.7" height="3.9" x="12.9" y="4.8" style="fill:#fff"/><path id="path5705" d="m 11.3,6.7 c 0,2.7 -2.2,4.9 -4.9,4.9 C 3.7,11.6 1.5,9.4 1.5,6.7 1.5,4 3.7,1.8 6.4,1.8 c 2.7,0 4.9,2.2 4.9,4.9" style="fill:#59b4d9"/><polygon id="polygon5707" points="7.4 14.1 4.5 11.3 7.4 8.4 8.6 8.4 6.4 10.8 11.8 10.8 11.8 11.7 6.4 11.7 8.6 14.1" transform="translate(-0.5,-4.5)" style="fill:#fff"/><path id="path5709" d="m 17.4,32.1 c 0,0.6 -0.2,1 -0.6,1.4 -0.4,0.4 -0.9,0.5 -1.6,0.5 -0.6,0 -1.1,-0.2 -1.5,-0.6 -0.4,-0.4 -0.6,-0.8 -0.6,-1.4 0,-0.6 0.2,-1 0.6,-1.4 0.4,-0.4 0.9,-0.5 1.6,-0.5 0.6,0 1.1,0.2 1.5,0.6 0.4,0.4 0.6,0.8 0.6,1.4 z" style="fill:#0072c6"/><path id="path5711" d="m 26.3,32.1 c 0,0.6 -0.2,1 -0.6,1.4 C 25.3,33.9 24.8,34 24.1,34 23.5,34 23,33.8 22.6,33.4 22.2,33 22,32.6 22,32 c 0,-0.6 0.2,-1 0.6,-1.4 0.4,-0.4 0.9,-0.5 1.6,-0.5 0.6,0 1.1,0.2 1.5,0.6 0.4,0.4 0.6,0.8 0.6,1.4 z" style="fill:#0072c6"/><path id="path5713" d="m 35.2,32.1 c 0,0.6 -0.2,1 -0.6,1.4 C 34.2,33.9 33.7,34 33,34 32.4,34 31.9,33.8 31.5,33.4 31.1,33 30.9,32.6 30.9,32 c 0,-0.6 0.2,-1 0.6,-1.4 0.4,-0.4 0.9,-0.5 1.6,-0.5 0.6,0 1.1,0.2 1.5,0.6 0.4,0.4 0.6,0.8 0.6,1.4 z" style="fill:#0072c6"/></svg>