<svg xmlns="http://www.w3.org/2000/svg" xmlns:svg="http://www.w3.org/2000/svg" id="Layer_1" width="50" height="42.6" x="0" y="0" enable-background="new 0 0 50 50" version="1.1" viewBox="0 0 50 42.6" xml:space="preserve"><metadata id="metadata6111"/><path id="path6092" d="m 0,40.6 c 0,1.1 0.9,2 2,2 h 46 c 1.1,0 2,-0.9 2,-2 V 8.6 H 0 Z" style="fill:#3999c6"/><path id="path6094" d="M 48,0 H 2 C 0.9,0 0,0.9 0,2 V 9.3 H 50 V 2 C 50,0.9 49.1,0 48,0 Z" style="fill:#a0a1a2"/><rect id="rect6096" width="50" height="3.3" x="0" y="9.3" enable-background="new" style="opacity:.15;fill:#fff"/><path id="path6098" d="M 2,0 C 0.9,0 0,0.9 0,2 v 7.3 3.3 28 c 0,1.1 0.9,2 2,2 H 21.2 L 43.6,0 Z" enable-background="new" style="opacity:.1;fill:#fff"/><polygon id="polygon6100" points="20.4 40 27.8 22.2 30.6 22.2 23.1 40" transform="translate(0.5,-4.5)" style="fill:#fff"/><polygon id="polygon6102" points="17.7 24.2 6.5 30.1 6.5 32.2 17.7 38.1 17.7 35.4 9.8 31.1 17.7 26.9" transform="translate(0.5,-4.5)" style="fill:#fff"/><polygon id="polygon6104" points="32.4 24.2 43.6 30.1 43.6 32.2 32.4 38.1 32.4 35.4 40.4 31.1 32.4 26.9" transform="translate(0.5,-4.5)" style="fill:#fff"/></svg>