<svg xmlns="http://www.w3.org/2000/svg" xmlns:svg="http://www.w3.org/2000/svg" id="Layer_1" width="49.996" height="47" x="0" y="0" enable-background="new 0 0 50 50" version="1.1" viewBox="0 0 49.996 47" xml:space="preserve"><metadata id="metadata6296"/><polygon id="polygon6281" points="17.167 12.251 25.496 3.5 33.833 12.22 33.833 15.762 26.968 9.256 26.968 20.854 24.069 20.854 24.069 9.256 17.167 15.804" transform="translate(-0.5,-3.5)" style="fill:#59b4d9"/><path id="path6283" d="M 48.148,22 H 1.853 C 0.833,22 0,22.832 0,23.853 V 28 41 45.147 C 0,46.168 0.836,47 1.848,47 h 46.295 c 1.02,0 1.853,-0.832 1.853,-1.853 V 41 28 23.853 C 49.996,22.832 49.16,22 48.148,22 Z m -1.92,21.01 H 3.728 V 26 h 42.5 z" style="fill:#59b4d9"/><rect id="rect6285" width="8.323" height="8.324" x="20.646" y="30.676" style="fill:#59b4d9"/><rect id="rect6287" width="8.32" height="8.324" x="33.064" y="30.676" style="fill:#59b4d9"/><rect id="rect6289" width="8.324" height="8.324" x="8.229" y="30.676" style="fill:#59b4d9"/></svg>