<svg xmlns="http://www.w3.org/2000/svg" xmlns:svg="http://www.w3.org/2000/svg" id="Layer_1" width="50" height="31.251" x="0" y="0" enable-background="new 0 0 50 50" version="1.1" viewBox="0 0 50 31.251" xml:space="preserve"><metadata id="metadata6337"/><path id="path6328" d="m 39.063,9.375 c 1.514,0 2.934,0.289 4.26,0.867 1.326,0.578 2.482,1.359 3.467,2.344 0.985,0.985 1.766,2.14 2.344,3.467 0.578,1.327 0.866,2.746 0.866,4.26 0,1.514 -0.289,2.934 -0.867,4.26 -0.578,1.326 -1.359,2.482 -2.344,3.467 -0.985,0.985 -2.14,1.766 -3.467,2.344 -1.327,0.578 -2.747,0.867 -4.26,0.867 h -12.5 c -1.514,0 -2.934,-0.289 -4.26,-0.867 -1.326,-0.578 -2.482,-1.359 -3.467,-2.344 -0.985,-0.985 -1.766,-2.14 -2.344,-3.467 -0.578,-1.327 -0.867,-2.747 -0.867,-4.26 0,-1.513 0.289,-2.934 0.867,-4.26 0.578,-1.326 1.359,-2.482 2.344,-3.467 0.985,-0.985 2.14,-1.766 3.467,-2.344 1.327,-0.578 2.747,-0.867 4.26,-0.867 h 1.563 V 12.5 c -1.237,0 -2.421,0.142 -3.552,0.427 -1.131,0.285 -2.128,0.741 -2.991,1.367 -0.863,0.626 -1.55,1.432 -2.063,2.417 -0.513,0.985 -0.769,2.185 -0.769,3.601 0,1.074 0.208,2.083 0.623,3.027 0.415,0.944 0.977,1.77 1.685,2.478 0.708,0.708 1.534,1.27 2.478,1.685 0.944,0.415 1.953,0.623 3.027,0.623 h 12.5 c 1.074,0 2.083,-0.208 3.027,-0.623 0.944,-0.415 1.77,-0.977 2.478,-1.685 0.708,-0.708 1.27,-1.534 1.685,-2.478 0.415,-0.944 0.623,-1.953 0.623,-3.027 0,-1.416 -0.256,-2.616 -0.769,-3.601 -0.513,-0.985 -1.2,-1.79 -2.063,-2.417 -0.863,-0.627 -1.86,-1.082 -2.991,-1.367 C 39.922,12.642 38.738,12.5 37.501,12.5 V 9.375 Z" style="fill:#7fba00"/><path id="path6330" d="M 21.875,21.875 V 18.75 c 1.237,0 2.421,-0.142 3.552,-0.427 1.131,-0.285 2.128,-0.741 2.991,-1.367 0.863,-0.626 1.55,-1.432 2.063,-2.417 0.513,-0.985 0.769,-2.185 0.769,-3.601 0,-1.074 -0.208,-2.083 -0.623,-3.027 C 30.212,6.967 29.65,6.141 28.942,5.433 28.234,4.725 27.408,4.163 26.464,3.748 25.52,3.333 24.512,3.125 23.438,3.125 h -12.5 C 9.864,3.125 8.855,3.333 7.911,3.748 6.967,4.163 6.141,4.725 5.433,5.433 4.725,6.141 4.163,6.967 3.748,7.911 3.333,8.855 3.125,9.864 3.125,10.938 c 0,1.416 0.256,2.616 0.769,3.601 0.513,0.985 1.2,1.79 2.063,2.417 0.863,0.627 1.86,1.082 2.991,1.367 1.131,0.285 2.315,0.427 3.552,0.427 v 3.125 h -1.563 c -1.514,0 -2.934,-0.289 -4.26,-0.867 C 5.351,20.43 4.195,19.649 3.21,18.665 2.225,17.681 1.444,16.525 0.866,15.198 0.288,13.871 0,12.451 0,10.938 0,9.425 0.289,8.004 0.867,6.678 1.445,5.352 2.226,4.196 3.211,3.211 4.196,2.226 5.351,1.445 6.678,0.867 8.005,0.289 9.425,0 10.938,0 h 12.5 c 1.514,0 2.934,0.289 4.26,0.867 1.326,0.578 2.482,1.359 3.467,2.344 0.985,0.985 1.766,2.14 2.344,3.467 0.578,1.327 0.867,2.747 0.867,4.26 0,1.513 -0.289,2.934 -0.867,4.26 -0.578,1.326 -1.359,2.482 -2.344,3.467 -0.985,0.985 -2.14,1.766 -3.467,2.344 -1.327,0.578 -2.747,0.867 -4.26,0.867 h -1.563 z" style="fill:#59b4d9"/></svg>