<svg xmlns="http://www.w3.org/2000/svg" xmlns:svg="http://www.w3.org/2000/svg" id="Layer_1" width="42.003" height="50" x="0" y="0" enable-background="new 0 0 50 50" version="1.1" viewBox="0 0 42.003 50" xml:space="preserve"><metadata id="metadata1280"/><rect id="rect1239" width="10.003" height="50" x="0" y="0" style="fill:#e5e5e5"/><rect id="rect1241" width="5.941" height="46" x="2" y="2" style="fill:#59b4d9"/><rect id="rect1243" width="6.003" height="28" x="2" y="20" style="opacity:.6;fill:#fff"/><rect id="rect1245" width="9.999" height="4" x="0" y="18" style="fill:#7a7a7a"/><rect id="rect1247" width="10" height="2" x=".001" y="18" style="opacity:.7;fill:#fff"/><rect id="rect1249" width="10.003" height="50" x="16" y="0" style="fill:#e5e5e5"/><rect id="rect1251" width="5.941" height="46" x="18" y="2" style="fill:#59b4d9"/><rect id="rect1253" width="6.003" height="12" x="18.005" y="36" style="opacity:.6;fill:#fff"/><rect id="rect1255" width="9.999" height="4" x="16" y="34" style="fill:#7a7a7a"/><rect id="rect1257" width="10" height="2" x="16.001" y="34" style="opacity:.7;fill:#fff"/><rect id="rect1259" width="10.003" height="50" x="32" y="0" style="fill:#e5e5e5"/><rect id="rect1261" width="5.941" height="46" x="34" y="2" style="fill:#59b4d9"/><rect id="rect1263" width="6.003" height="28" x="34" y="20" style="opacity:.6;fill:#fff"/><rect id="rect1265" width="9.999" height="4" x="32" y="18" style="fill:#7a7a7a"/><rect id="rect1267" width="10" height="2" x="32.001" y="18" style="opacity:.7;fill:#fff"/><rect id="rect1269" width="10" height="2" x=".001" y="22" style="opacity:.2;fill:#1e1e1e"/><rect id="rect1271" width="10" height="2" x="31.97" y="22" style="opacity:.2;fill:#1e1e1e"/><rect id="rect1273" width="10" height="2" x="16.007" y="38" style="opacity:.2;fill:#1e1e1e"/></svg>