<svg xmlns="http://www.w3.org/2000/svg" xmlns:svg="http://www.w3.org/2000/svg" id="Layer_1" width="50" height="22.8" x="0" y="0" version="1.1" viewBox="0 0 50 22.8" xml:space="preserve"><metadata id="metadata19"/><style id="style3" type="text/css">.st0{fill:#7a7a7a}.st1{fill:#3999c6}.st2{opacity:.2;fill:#fff;enable-background:new}</style><path id="path5" d="M 34.9,6.1 8.3,6.1 C 7.2,6.1 6.3,5.2 6.3,4.1 L 6.3,4.1 C 6.3,3 7.2,2.1 8.3,2.1 L 34.9,2.1 C 36,2.1 36.9,3 36.9,4.1 L 36.9,4.1 C 36.9,5.2 36,6.1 34.9,6.1 Z" class="st0" style="fill:#7a7a7a"/><path id="path7" d="M 29.5,22.8 4.9,22.8 C 3.8,22.8 2.9,21.9 2.9,20.8 L 2.9,20.8 C 2.9,19.7 3.8,18.8 4.9,18.8 L 29.5,18.8 C 30.6,18.8 31.5,19.7 31.5,20.8 L 31.5,20.8 C 31.5,21.9 30.6,22.8 29.5,22.8 Z" class="st0" style="fill:#7a7a7a"/><path id="path9" d="M 26.6,14.7 2,14.7 C 0.9,14.7 0,13.8 0,12.7 L 0,12.7 C 0,11.6 0.9,10.7 2,10.7 L 26.6,10.7 C 27.7,10.7 28.6,11.6 28.6,12.7 L 28.6,12.7 C 28.6,13.8 27.7,14.7 26.6,14.7 Z" class="st0" style="fill:#7a7a7a"/><path id="path11" d="M 50,18.5 C 50,16.1 48.1,14.2 45.8,14.2 45.6,14.2 45.5,14.2 45.2,14.2 45.4,13.3 45.6,12.3 45.6,11.2 45.6,5 40.5,0 34.4,0 29.5,0 25.3,3.3 23.8,7.6 23,7.4 22.2,7.2 21.3,7.2 17,7.2 13.7,10.7 13.7,15 13.7,19.3 17.1,22.8 21.3,22.8 L 21.3,22.8 21.3,22.8 46,22.8 46,22.8 C 48.3,22.5 50,20.7 50,18.5" class="st1" style="fill:#3999c6"/><path id="path13" d="M 25.3,22.7 C 24.3,21.7 23.5,20.5 23.2,18.9 22.3,14.7 24.8,10.6 28.9,9.7 29.8,9.5 30.6,9.5 31.5,9.6 31.8,5.7 34.2,2.3 37.8,0.6 36.7,0.3 35.6,0 34.4,0 29.5,0 25.3,3.3 23.8,7.6 23,7.4 22.2,7.2 21.3,7.2 17,7.2 13.7,10.7 13.7,15 13.7,19.3 17.1,22.8 21.3,22.8 L 21.3,22.8 21.3,22.8 25.3,22.7 25.3,22.7 Z" class="st2" style="opacity:.2;fill:#fff;enable-background:new"/></svg>