<svg xmlns="http://www.w3.org/2000/svg" xmlns:svg="http://www.w3.org/2000/svg" id="Layer_1" width="50" height="42.002" x="0" y="0" enable-background="new 0 0 50 50" version="1.1" viewBox="0 0 50 42.002" xml:space="preserve"><metadata id="metadata1423"/><rect id="rect1382" width="50" height="10.003" x="0" y="31.999" style="fill:#e5e5e5"/><rect id="rect1384" width="46" height="5.941" x="2" y="34.062" style="fill:#7fba00"/><rect id="rect1386" width="28" height="6.003" x="20" y="33.999" enable-background="new" style="opacity:.6;fill:#fff"/><rect id="rect1388" width="4" height="9.999" x="18" y="32.003" style="fill:#7a7a7a"/><rect id="rect1390" width="2" height="10" x="18" y="32.001" enable-background="new" style="opacity:.7;fill:#fff"/><rect id="rect1392" width="50" height="10.003" x="0" y="16" style="fill:#e5e5e5"/><rect id="rect1394" width="46" height="5.941" x="2" y="18.061" style="fill:#7fba00"/><rect id="rect1396" width="12" height="6.003" x="36" y="17.994" enable-background="new" style="opacity:.6;fill:#fff"/><rect id="rect1398" width="4" height="9.999" x="34" y="16.003" style="fill:#7a7a7a"/><rect id="rect1400" width="2" height="10" x="34" y="16.001" enable-background="new" style="opacity:.7;fill:#fff"/><rect id="rect1402" width="50" height="10.003" x="0" y="0" style="fill:#e5e5e5"/><rect id="rect1404" width="46" height="5.941" x="2" y="2.061" style="fill:#7fba00"/><rect id="rect1406" width="28" height="6.003" x="20" y="2" enable-background="new" style="opacity:.6;fill:#fff"/><rect id="rect1408" width="4" height="9.999" x="18" y=".003" style="fill:#7a7a7a"/><rect id="rect1410" width="2" height="10" x="18" y=".001" enable-background="new" style="opacity:.7;fill:#fff"/><rect id="rect1412" width="2" height="10" x="22" y="32.001" enable-background="new" style="opacity:.2;fill:#1e1e1e"/><rect id="rect1414" width="2" height="10" x="22" y=".032" enable-background="new" style="opacity:.2;fill:#1e1e1e"/><rect id="rect1416" width="2" height="10" x="38" y="15.995" enable-background="new" style="opacity:.2;fill:#1e1e1e"/></svg>