<svg xmlns="http://www.w3.org/2000/svg" xmlns:svg="http://www.w3.org/2000/svg" id="Layer_1" width="50" height="37" x="0" y="0" version="1.1" viewBox="-454 256 50 37" xml:space="preserve"><metadata id="metadata51"/><style id="style3" type="text/css">.st0{fill:#804998}.st1{opacity:.2;fill:#fff}</style><polygon id="polygon5" points="-431.1 265.2 -431.1 271.9 -438.8 274.9 -438.8 262.5" class="st0" transform="translate(0,-6.5)" style="fill:#804998"/><path id="path7" d="M -445.7,258.1 -445.7,266.2 -440,268.4 -440,256.1 -445.7,258.1 Z M -445.1,265.6 -445.4,265.5 -445.4,258.8 -445.1,258.7 -444.8,258.6 -444.5,258.5 -444.5,265.8 -444.8,265.7 -445.1,265.6 Z M -443.6,266 -444,265.9 -444,258.4 -443.6,258.3 -443.2,258.2 -442.8,258.1 -442.8,266.3 -443.2,266.2 -443.6,266 Z M -441.8,266.6 -442.3,266.4 -442.3,257.9 -441.8,257.8 -441.3,257.6 -440.7,257.4 -440.7,266.9 -441.3,266.7 -441.8,266.6 Z" class="st0" style="fill:#804998"/><polygon id="polygon9" points="-413.2 265.2 -413.2 271.9 -420.9 274.9 -420.9 262.5" class="st0" transform="translate(0,-6.5)" style="fill:#804998"/><path id="path11" d="M -427.8,258.1 -427.8,266.2 -422.1,268.4 -422.1,256.1 -427.8,258.1 Z M -427.2,265.6 -427.5,265.5 -427.5,258.8 -427.2,258.7 -426.9,258.6 -426.6,258.5 -426.6,265.8 -426.9,265.7 -427.2,265.6 Z M -425.7,266 -426.1,265.9 -426.1,258.4 -425.7,258.3 -425.3,258.2 -424.9,258.1 -424.9,266.3 -425.3,266.2 -425.7,266 Z M -423.9,266.6 -424.4,266.4 -424.4,257.9 -423.9,257.8 -423.4,257.6 -422.8,257.4 -422.8,266.9 -423.4,266.7 -423.9,266.6 Z" class="st0" style="fill:#804998"/><polygon id="polygon13" points="-431.1 289.8 -431.1 296.5 -438.8 299.5 -438.8 287.1" class="st0" transform="translate(0,-6.5)" style="fill:#804998"/><path id="path15" d="M -445.7,282.7 -445.7,290.8 -440,293 -440,280.7 -445.7,282.7 Z M -445.1,290.2 -445.4,290.1 -445.4,283.4 -445.1,283.3 -444.8,283.2 -444.5,283.1 -444.5,290.4 -444.8,290.3 -445.1,290.2 Z M -443.6,290.6 -444,290.5 -444,283 -443.6,282.9 -443.2,282.8 -442.8,282.7 -442.8,290.9 -443.2,290.8 -443.6,290.6 Z M -441.8,291.2 -442.3,291 -442.3,282.5 -441.8,282.4 -441.3,282.2 -440.7,282 -440.7,291.5 -441.3,291.3 -441.8,291.2 Z" class="st0" style="fill:#804998"/><polygon id="polygon17" points="-413.2 289.8 -413.2 296.5 -420.9 299.5 -420.9 287.1" class="st0" transform="translate(0,-6.5)" style="fill:#804998"/><path id="path19" d="M -427.8,282.7 -427.8,290.8 -422.1,293 -422.1,280.7 -427.8,282.7 Z M -427.2,290.2 -427.5,290.1 -427.5,283.4 -427.2,283.3 -426.9,283.2 -426.6,283.1 -426.6,290.4 -426.9,290.3 -427.2,290.2 Z M -425.7,290.6 -426.1,290.5 -426.1,283 -425.7,282.9 -425.3,282.8 -424.9,282.7 -424.9,290.9 -425.3,290.8 -425.7,290.6 Z M -423.9,291.2 -424.4,291 -424.4,282.5 -423.9,282.4 -423.4,282.2 -422.8,282 -422.8,291.5 -423.4,291.3 -423.9,291.2 Z" class="st0" style="fill:#804998"/><polygon id="polygon21" points="-421.6 277.5 -421.6 284.2 -429.2 287.1 -429.2 274.8" class="st0" transform="translate(0,-6.5)" style="fill:#804998"/><path id="path23" d="M -436.2,270.3 -436.2,278.4 -430.5,280.6 -430.5,268.3 -436.2,270.3 Z M -435.6,277.8 -435.9,277.7 -435.9,271 -435.6,270.9 -435.3,270.8 -435,270.7 -435,278 -435.3,277.9 -435.6,277.8 Z M -434.1,278.3 -434.5,278.2 -434.5,270.7 -434.1,270.6 -433.7,270.5 -433.3,270.4 -433.3,278.6 -433.7,278.5 -434.1,278.3 Z M -432.3,278.9 -432.8,278.7 -432.8,270.2 -432.3,270.1 -431.8,269.9 -431.2,269.7 -431.2,279.2 -431.8,279 -432.3,278.9 Z" class="st0" style="fill:#804998"/><polygon id="polygon25" points="-439.4 277.5 -439.4 284.2 -447 287.1 -447 274.8" class="st0" transform="translate(0,-6.5)" style="fill:#804998"/><path id="path27" d="M -454,270.3 -454,278.4 -448.3,280.6 -448.3,268.3 -454,270.3 Z M -453.4,277.8 -453.7,277.7 -453.7,271 -453.4,270.9 -453.1,270.8 -452.8,270.7 -452.8,278 -453.1,277.9 -453.4,277.8 Z M -451.9,278.3 -452.3,278.2 -452.3,270.7 -451.9,270.6 -451.5,270.5 -451.1,270.4 -451.1,278.6 -451.5,278.5 -451.9,278.3 Z M -450.1,278.9 -450.6,278.7 -450.6,270.2 -450.1,270.1 -449.6,269.9 -449,269.7 -449,279.2 -449.6,279 -450.1,278.9 Z" class="st0" style="fill:#804998"/><polygon id="polygon29" points="-404 277.5 -404 284.2 -411.6 287.1 -411.6 274.8" class="st0" transform="translate(0,-6.5)" style="fill:#804998"/><polygon id="polygon31" points="-431.1 265.2 -431.1 271.9 -438.8 274.9 -438.8 262.5" class="st1" transform="translate(0,-6.5)" style="opacity:.2;fill:#fff"/><polygon id="polygon33" points="-413.2 265.2 -413.2 271.9 -420.9 274.9 -420.9 262.5" class="st1" transform="translate(0,-6.5)" style="opacity:.2;fill:#fff"/><polygon id="polygon35" points="-431.1 289.8 -431.1 296.5 -438.8 299.5 -438.8 287.1" class="st1" transform="translate(0,-6.5)" style="opacity:.2;fill:#fff"/><polygon id="polygon37" points="-413.2 289.8 -413.2 296.5 -420.9 299.5 -420.9 287.1" class="st1" transform="translate(0,-6.5)" style="opacity:.2;fill:#fff"/><polygon id="polygon39" points="-421.6 277.5 -421.6 284.2 -429.2 287.1 -429.2 274.8" class="st1" transform="translate(0,-6.5)" style="opacity:.2;fill:#fff"/><polygon id="polygon41" points="-439.4 277.5 -439.4 284.2 -447 287.1 -447 274.8" class="st1" transform="translate(0,-6.5)" style="opacity:.2;fill:#fff"/><polygon id="polygon43" points="-404 277.5 -404 284.2 -411.6 287.1 -411.6 274.8" class="st1" transform="translate(0,-6.5)" style="opacity:.2;fill:#fff"/><path id="path45" d="M -418.6,270.3 -418.6,278.4 -412.9,280.6 -412.9,268.3 -418.6,270.3 Z M -418,277.8 -418.3,277.7 -418.3,271 -418,270.9 -417.7,270.8 -417.4,270.7 -417.4,278 -417.7,277.9 -418,277.8 Z M -416.5,278.3 -416.9,278.2 -416.9,270.7 -416.5,270.6 -416.1,270.5 -415.7,270.4 -415.7,278.6 -416.1,278.5 -416.5,278.3 Z M -414.7,278.9 -415.2,278.7 -415.2,270.2 -414.7,270.1 -414.2,269.9 -413.6,269.7 -413.6,279.2 -414.2,279 -414.7,278.9 Z" class="st0" style="fill:#804998"/></svg>