<svg xmlns="http://www.w3.org/2000/svg" xmlns:svg="http://www.w3.org/2000/svg" id="Layer_1" width="49.996" height="49.6" x="0" y="0" enable-background="new 0 0 50 50" version="1.1" viewBox="0 0 49.996 49.6" xml:space="preserve"><metadata id="metadata1147"/><g id="g1130" transform="translate(-0.00428913,-0.2)"><path id="path1126" d="m 19.4,45.9 2.8,-3.8 C 14.9,40.5 8.1,34.3 7.4,26.4 6.7,17.8 12.2,10.1 20.3,7.9 L 23.3,4 19.5,0.5 C 7.5,3.3 -1,14.5 0.1,27.1 c 1,12 10.5,21.3 22,22.7 z" style="fill:#0072c6"/><path id="path1128" d="m 28.8,0.2 2.4,3.9 -3.3,3.6 C 35.2,9.4 42,15.6 42.7,23.4 43.4,31.9 38,39.6 30,41.9 l -2.3,4.3 3.5,3 C 42.9,46.2 51,35.2 49.9,22.8 48.9,11 39.9,1.9 28.8,0.2 Z" style="fill:#0072c6"/></g><g id="g1140" transform="translate(-0.00428913,-0.2)"><rect id="rect1132" width="4.1" height="9.7" x="12.7" y="21.5" style="fill:#0072c6"/><rect id="rect1134" width="4.1" height="15.2" x="19.5" y="16" style="fill:#59b4d9"/><rect id="rect1136" width="4.1" height="8.3" x="26.3" y="22.9" style="fill:#3999c6"/><rect id="rect1138" width="4.1" height="12.4" x="33.2" y="18.7" style="fill:#0072c6"/></g></svg>