<svg xmlns="http://www.w3.org/2000/svg" xmlns:svg="http://www.w3.org/2000/svg" id="Layer_1" width="24" height="24" x="0" y="0" enable-background="new 0 0 24 24" version="1.1" viewBox="0 0 24 24" xml:space="preserve"><metadata id="metadata25"/><path id="path3" d="M 8.147,19.01 C 9.877,17.791 11.863,16.149 14.006,14.006 16.207,11.805 17.825,9.839 19.014,8.153 17.654,5.678 15.024,4 12,4 7.582,4 4,7.582 4,12 4,15.021 5.675,17.649 8.147,19.01 Z" style="fill:#b8d432"/><path id="path5" d="M 16.127,16.127 C 14.697,17.556 13.239,18.852 11.809,19.99 11.873,19.992 11.936,20 12,20 16.418,20 20,16.418 20,12 20,11.935 19.992,11.873 19.99,11.809 18.82,13.276 17.513,14.741 16.127,16.127 Z" style="fill:#b8d432"/><path id="path7" d="M 23.417,0.583 C 23.075,0.241 22.578,0.079 21.956,0.079 20.253,0.079 17.608,1.304 14.644,3.407 15.033,3.528 15.412,3.669 15.777,3.84 18.459,2.019 20.681,1.079 21.957,1.079 22.204,1.079 22.536,1.116 22.711,1.29 23.658,2.237 21.745,7.681 14.714,14.712 9.325,20.101 4.262,22.92 2.046,22.92 1.798,22.92 1.467,22.883 1.292,22.709 0.666,22.083 1.303,19.481 3.834,15.76 3.667,15.4 3.528,15.026 3.409,14.642 0.537,18.689 -0.691,22.139 0.585,23.416 0.927,23.758 1.424,23.92 2.046,23.92 4.865,23.92 10.256,20.583 15.421,15.419 21.725,9.114 25.305,2.472 23.417,0.583 Z" style="fill:#0078d7"/><path id="path9" d="M 4,0 C 4,2.209 2.209,4 0,4 2.209,4 4,5.791 4,8 4,5.791 5.791,4 8,4 5.791,4 4,2.209 4,0 L 4,0 Z" style="fill:#0078d7"/><path id="path11" d="M 21,18 C 21,19.657 19.657,21 18,21 19.657,21 21,22.343 21,24 21,22.343 22.343,21 24,21 22.343,21 21,19.657 21,18 L 21,18 Z" style="fill:#0078d7"/><path id="path13" d="M 8.639,13.194 8.312,13.194 C 8.353,13.031 8.373,12.867 8.373,12.684 8.373,11.479 7.393,10.5 6.189,10.5 L 4.146,10.5 C 4.053,10.986 4,11.487 4,12 4,14.164 4.863,16.123 6.258,17.563 L 8.639,17.563 C 9.844,17.563 10.823,16.583 10.823,15.379 10.823,14.174 9.843,13.194 8.639,13.194 Z" style="fill:#59b4d9"/><path id="path15" d="M 14.001,14.011 C 14.003,14.009 14.004,14.008 14.006,14.006 14.302,13.71 14.578,13.422 14.853,13.135 14.48,13.323 14.178,13.631 14.001,14.011 Z" style="fill:#59b4d9"/><path id="path17" d="M 16.127,16.127 C 15.191,17.063 14.242,17.942 13.296,18.759 13.632,19.092 14.093,19.299 14.6,19.299 L 15.265,19.299 C 17.784,18.17 19.611,15.78 19.941,12.929 L 19.07,12.929 C 18.147,14.017 17.159,15.094 16.127,16.127 Z" style="fill:#59b4d9"/><path id="path19" d="M 12.661,11.234 16.587,11.234 C 17.545,10.127 18.346,9.1 19.009,8.161 18.21,6.709 16.977,5.528 15.478,4.803 L 15.029,4.803 C 14.212,4.803 13.559,5.456 13.559,6.273 13.559,6.395 13.579,6.538 13.62,6.661 L 12.681,6.661 C 11.395,6.661 10.374,7.682 10.374,8.947 10.374,10.212 11.395,11.234 12.661,11.234 Z" style="fill:#59b4d9"/></svg>