<svg xmlns="http://www.w3.org/2000/svg" xmlns:svg="http://www.w3.org/2000/svg" id="Layer_1" width="50" height="40" x="0" y="0" enable-background="new 0 0 50 50" version="1.1" viewBox="0 0 50 40" xml:space="preserve"><metadata id="metadata1529"/><path id="path1504" d="M 44.5,40 H 5.5 C 2.5,40 0,37.5 0,34.5 V 5.5 C 0,2.5 2.5,0 5.5,0 h 39 c 3,0 5.5,2.5 5.5,5.5 v 29 c 0,3 -2.5,5.5 -5.5,5.5 z" style="fill:#a0a1a2"/><rect id="rect1506" width="13" height="24" x="2.7" y="8.1" style="fill:#0072c6"/><rect id="rect1508" width="13" height="12" x="2.7" y="8.1" style="opacity:.15;fill:#fff"/><path id="path1510" d="m 14.1,19.7 c 0,2.5 -0.5,4.4 -1.4,5.7 -0.9,1.3 -2.2,2 -3.8,2 C 7.3,27.4 6.1,26.8 5.2,25.5 4.4,24.2 4,22.4 4,20 c 0,-2.6 0.4,-4.5 1.3,-5.9 0.9,-1.4 2.2,-2 3.9,-2 3.3,0.1 4.9,2.6 4.9,7.6 z m -2.4,0.1 c 0,-2 -0.2,-3.4 -0.6,-4.3 -0.4,-0.9 -1.1,-1.4 -1.9,-1.4 -1.8,0 -2.7,2 -2.7,5.9 0,1.8 0.2,3.2 0.7,4.1 0.5,0.9 1.1,1.4 2,1.4 0.9,0 1.5,-0.5 1.9,-1.4 0.4,-0.9 0.5,-2.4 0.6,-4.3 z" style="fill:#fff"/><rect id="rect1512" width="13" height="24" x="18.7" y="8.1" style="fill:#0072c6"/><rect id="rect1514" width="13" height="12" x="18.7" y="8.1" style="opacity:.15;fill:#fff"/><path id="path1516" d="m 30.1,19.7 c 0,2.5 -0.5,4.4 -1.4,5.7 -0.9,1.3 -2.2,2 -3.8,2 -1.6,0 -2.8,-0.6 -3.7,-1.9 C 20.4,24.2 20,22.4 20,20 c 0,-2.6 0.4,-4.5 1.3,-5.9 0.9,-1.4 2.2,-2 3.9,-2 3.3,0.1 4.9,2.6 4.9,7.6 z m -2.4,0.1 c 0,-2 -0.2,-3.4 -0.6,-4.3 -0.4,-0.9 -1.1,-1.4 -1.9,-1.4 -1.8,0 -2.7,2 -2.7,5.9 0,1.8 0.2,3.2 0.7,4.1 0.5,0.9 1.1,1.4 2,1.4 0.9,0 1.5,-0.5 1.9,-1.4 0.4,-0.9 0.5,-2.4 0.6,-4.3 z" style="fill:#fff"/><rect id="rect1518" width="13" height="24" x="34.7" y="8.1" style="fill:#0072c6"/><rect id="rect1520" width="13" height="12" x="34.7" y="8.1" style="opacity:.15;fill:#fff"/><path id="path1522" d="m 42.5,12.1 v 15 H 40.1 V 15 c -0.8,0.6 -1.8,1 -3.1,1.4 v -2 c 0.9,-0.3 1.7,-0.6 2.4,-1 0.7,-0.4 1.4,-0.8 2,-1.2 h 1.1 z" style="fill:#fff"/></svg>