<svg xmlns="http://www.w3.org/2000/svg" xmlns:svg="http://www.w3.org/2000/svg" id="Layer_1" width="50" height="42.634" x="0" y="0" enable-background="new 0 0 50 50" version="1.1" viewBox="0 0 50 42.634" xml:space="preserve"><metadata id="metadata1814"/><path id="path1791" d="m 0,40.627 c 0,1.108 0.898,2.007 2.007,2.007 H 47.993 C 49.102,42.634 50,41.735 50,40.627 V 9.298 H 0 Z" style="fill:#0072c6"/><path id="path1793" d="M 47.993,0 H 2.007 C 0.898,0 0,0.898 0,2.007 V 12.634 H 50 V 2.007 C 50,0.898 49.101,0 47.993,0" style="fill:#a0a1a2"/><path id="path1795" d="M 2.014,0 C 0.906,0 0.007,0.898 0.007,2.007 v 7.291 3.336 27.993 c 0,1.108 0.899,2.007 2.007,2.007 H 4.202 L 43.62,0 Z" style="opacity:.2;fill:#fff"/><rect id="rect1797" width="33.671" height="3.942" x="12.857" y="4.779" style="fill:#fff"/><path id="path1799" d="m 11.31,6.683 c 0,2.693 -2.184,4.878 -4.878,4.878 -2.694,0 -4.878,-2.185 -4.878,-4.878 0,-2.694 2.184,-4.879 4.878,-4.879 2.693,0 4.878,2.185 4.878,4.879" style="fill:#59b4d9"/><polygon id="polygon1801" points="6.928 13.414 3.969 10.597 6.917 7.779 8.115 7.779 5.916 10.101 11.309 10.101 11.309 11.079 5.916 11.079 8.129 13.414" transform="translate(0,-3.847)" style="fill:#fff"/><path id="path1803" d="m 17.286,22.626 -2.644,8.816 H 13.179 L 11.362,25.131 C 11.293,24.89 11.247,24.617 11.224,24.313 H 11.19 c -0.017,0.207 -0.077,0.474 -0.181,0.801 L 9.037,31.442 H 7.625 L 4.956,22.626 h 1.481 l 1.825,6.629 c 0.058,0.201 0.098,0.465 0.121,0.792 h 0.069 c 0.017,-0.252 0.069,-0.522 0.155,-0.809 l 2.032,-6.612 h 1.292 l 1.825,6.646 c 0.057,0.213 0.101,0.477 0.129,0.792 h 0.069 c 0.011,-0.224 0.06,-0.488 0.146,-0.792 l 1.791,-6.646 z" style="fill:#fff"/><path id="path1805" d="m 30.91,22.626 -2.644,8.816 H 26.803 L 24.986,25.131 C 24.917,24.89 24.871,24.617 24.848,24.313 h -0.035 c -0.017,0.207 -0.077,0.474 -0.181,0.801 l -1.972,6.328 h -1.41 l -2.669,-8.816 h 1.481 l 1.825,6.629 c 0.058,0.201 0.098,0.465 0.121,0.792 h 0.069 c 0.017,-0.252 0.069,-0.522 0.155,-0.809 l 2.032,-6.612 h 1.292 l 1.825,6.646 c 0.057,0.213 0.101,0.477 0.129,0.792 h 0.069 c 0.011,-0.224 0.06,-0.488 0.146,-0.792 l 1.791,-6.646 z" style="fill:#fff"/><path id="path1807" d="m 44.535,22.626 -2.644,8.816 H 40.428 L 38.611,25.131 C 38.542,24.89 38.496,24.617 38.473,24.313 h -0.035 c -0.017,0.207 -0.077,0.474 -0.181,0.801 l -1.972,6.328 h -1.412 l -2.669,-8.816 h 1.481 l 1.825,6.629 c 0.058,0.201 0.098,0.465 0.121,0.792 H 35.7 c 0.017,-0.252 0.069,-0.522 0.155,-0.809 l 2.032,-6.612 h 1.292 l 1.825,6.646 c 0.057,0.213 0.101,0.477 0.129,0.792 h 0.069 c 0.011,-0.224 0.06,-0.488 0.146,-0.792 l 1.791,-6.646 z" style="fill:#fff"/></svg>