<svg xmlns="http://www.w3.org/2000/svg" xmlns:svg="http://www.w3.org/2000/svg" id="Layer_1" width="100" height="78.5" x="0" y="0" version="1.1" viewBox="-549 251 100 78.5" xml:space="preserve"><metadata id="metadata13"/><g id="g3" transform="translate(0,-10.7)"><path id="path5" d="M -489.9,269.8 -492.8,264.8 C -493.9,262.9 -496,261.7 -498.2,261.7 L -542.8,261.7 C -546.2,261.7 -549,264.5 -549,267.9 L -549,270.8 -549,271.1 -488.8,271.1 C -489.3,270.8 -489.6,270.3 -489.9,269.8 Z" style="fill:#3999c6"/><path id="path7" d="M -452.9,274.3 -549,274.3 -549,278.9 -549,334 C -549,337.4 -546.2,340.2 -542.8,340.2 L -455.2,340.2 C -451.8,340.2 -449,337.4 -449,334 L -449,280 C -449,277.5 -450.6,275.3 -452.9,274.3 Z M -486.3,304.3 -504,329.6 C -504.2,329.8 -504.4,330 -504.7,330 -504.8,330 -505,330 -505.1,329.9 -505.5,329.7 -505.7,329.3 -505.5,328.9 L -500.9,313.8 -511.2,313.8 C -511.5,313.8 -511.8,313.6 -512,313.3 -512.1,313 -512.1,312.7 -511.9,312.4 L -494.7,287.4 C -494.5,287.2 -494.3,287 -494,287 -493.9,287 -493.8,287 -493.6,287.1 -493.2,287.3 -493,287.7 -493.2,288.1 L -497.6,302.9 -487,302.9 -487,302.9 C -486.5,302.9 -486.1,303.3 -486.1,303.8 -486.1,304 -486.2,304.1 -486.3,304.3 Z" style="fill:#59b4d9"/></g></svg>