<svg xmlns="http://www.w3.org/2000/svg" xmlns:svg="http://www.w3.org/2000/svg" id="Layer_1" width="37.8" height="50" x="0" y="0" enable-background="new 0 0 50 50" version="1.1" viewBox="0 0 37.8 50" xml:space="preserve"><metadata id="metadata2732"/><path id="path2709" d="m 0,6.8 v 36.3 c 0,3.7 8.5,6.8 18.8,6.8 V 6.8 Z" style="fill:#3999c6"/><path id="path2711" d="m 18.6,50 h 0.3 c 10.5,0 18.8,-3 18.8,-6.8 V 6.8 H 18.6 Z" style="fill:#59b4d9"/><path id="path2713" d="m 37.8,6.8 c 0,3.7 -8.5,6.8 -18.8,6.8 C 8.7,13.6 0,10.6 0,6.8 0,3 8.5,0 18.8,0 c 10.3,0 19,3 19,6.8" style="fill:#fff"/><path id="path2715" d="m 33.9,6.4 c 0,2.5 -6.7,4.5 -15,4.5 -8.3,0 -15,-1.9 -15,-4.5 0,-2.6 6.7,-4.5 15,-4.5 8.3,0 15,2 15,4.5" style="fill:#7fba00"/><path id="path2717" d="M 30.7,9.2 C 32.7,8.4 33.8,7.5 33.8,6.5 33.8,4 27.1,2 18.8,2 c -8.3,0 -15,2 -15,4.5 0,1 1.2,2 3.1,2.7 2.7,-1.1 7,-1.7 11.9,-1.7 4.9,-0.1 9.2,0.6 11.9,1.7" style="fill:#b8d432"/><path id="path2719" d="M 10.4,24.9 H 8.7 v 9.9 h 1.7 c 1.5,0 2.7,-0.5 3.6,-1.4 0.8,-0.9 1.3,-2.1 1.3,-3.7 0,-1.4 -0.4,-2.6 -1.2,-3.4 -1,-0.9 -2.2,-1.4 -3.7,-1.4" style="fill:#3999c6"/><path id="path2721" d="m 27.7,27.8 c 0.4,-0.4 0.6,-0.8 0.6,-1.4 0,-1.1 -0.8,-1.7 -2.5,-1.7 h -1.3 v 3.6 H 26 c 0.7,0 1.3,-0.1 1.7,-0.5" style="fill:#59b4d9"/><path id="path2723" d="M 28.3,31.4 C 27.8,31.1 27.2,30.9 26.4,30.9 H 24.5 V 35 h 1.9 c 0.8,0 1.4,-0.2 1.9,-0.6 C 28.7,34 29,33.5 29,32.9 28.9,32.3 28.7,31.8 28.3,31.4" style="fill:#59b4d9"/><path id="path2725" d="m 10.5,38.2 2.6,-2.6 c 1.5,2.3 4.2,3.8 7.1,3.8 4.7,0 8.5,-3.7 8.4,-8.5 -0.1,-4.6 -3.9,-8.5 -8.7,-8.5 -2.7,0 -5.1,1.3 -6.6,3.3 l 4,4.3 H 7.1 V 19.3 l 3.7,3.9 C 13,20.6 16.2,19 20,19 c 6.7,0 12.2,5.4 12.4,12.1 0.1,6.6 -5.1,11.8 -11.9,11.8 -4.1,0 -7.8,-1.8 -10,-4.7 z" style="fill:#fff"/></svg>