<svg xmlns="http://www.w3.org/2000/svg" xmlns:svg="http://www.w3.org/2000/svg" id="Layer_1" width="47" height="50.2" x="0" y="0" enable-background="new 0 0 50 50" version="1.1" viewBox="0 0 47 50.2" xml:space="preserve"><metadata id="metadata29"/><path id="path3" d="M 35.7,35.7 37.3,35.7 37.3,0 8.1,0 6,0 C 5,0.1 2.9,2.6 2.9,2.9 2.9,3 2.9,37.4 2.9,37.4 2.9,38.4 3.7,39.3 4.8,39.3 L 33.3,39.3 33.3,38.7 35.7,35.7 Z" style="fill:#0072c6"/><path id="path5" d="M 7.4,1.6 C 6.5,1.6 6.2,1.7 5.4,2.4 3.7,3.9 5.8,3.9 6.6,3.9 L 33.3,3.9 33.3,38.7 35.7,35.6 35.7,1.6 7.4,1.6 Z" style="fill:#e5e5e5"/><polygon id="polygon7" points="34.3 3.9 34.3 38.7 36.7 35.7 36.7 1.6" enable-background="new" transform="translate(-1,0)" style="opacity:.5;fill:#a0a1a2"/><path id="path9" d="M 7.4,21.2 C 7.4,22 6.8,22.6 6,22.6 L 1.4,22.6 C 0.6,22.6 0,22 0,21.2 L 0,21.2 C 0,20.4 0.6,19.8 1.4,19.8 L 6,19.8 C 6.8,19.7 7.4,20.4 7.4,21.2 L 7.4,21.2 Z" style="fill:#a0a1a2"/><path id="path11" d="M 7.4,10.9 C 7.4,11.7 6.8,12.3 6,12.3 L 1.4,12.3 C 0.6,12.3 0,11.7 0,10.9 L 0,10.9 C 0,10.1 0.6,9.5 1.4,9.5 L 6,9.5 C 6.8,9.5 7.4,10.2 7.4,10.9 L 7.4,10.9 Z" style="fill:#a0a1a2"/><path id="path13" d="M 7.4,31.4 C 7.4,32.2 6.8,32.8 6,32.8 L 1.4,32.8 C 0.6,32.8 0,32.2 0,31.4 L 0,31.4 C 0,30.6 0.6,30 1.4,30 L 6,30 C 6.8,30 7.4,30.6 7.4,31.4 L 7.4,31.4 Z" style="fill:#a0a1a2"/><path id="path15" d="M 22.6,22.2 22.6,45.7 C 22.6,48.1 28.1,50.1 34.8,50.1 L 34.8,22.1 22.6,22.1 Z" style="fill:#3999c6"/><path id="path17" d="M 34.6,50.2 34.8,50.2 C 41.5,50.2 47,48.2 47,45.8 L 47,22.2 34.6,22.2 34.6,50.2 Z" style="fill:#59b4d9"/><path id="path19" d="M 47,22.2 C 47,24.6 41.5,26.6 34.8,26.6 28.1,26.6 22.6,24.6 22.6,22.2 22.6,19.8 28.1,17.8 34.8,17.8 41.5,17.8 47,19.8 47,22.2" style="fill:#fff"/><path id="path21" d="M 44.5,21.9 C 44.5,23.5 40.1,24.8 34.8,24.8 29.5,24.8 25.1,23.5 25.1,21.9 25.1,20.3 29.5,19 34.8,19 40.1,19 44.5,20.3 44.5,21.9" style="fill:#7fba00"/><path id="path23" d="M 42.5,23.7 C 43.8,23.2 44.5,22.6 44.5,21.9 44.5,20.3 40.1,19 34.8,19 29.4,19 25.1,20.3 25.1,21.9 25.1,22.6 25.9,23.2 27.1,23.7 28.9,23 31.7,22.6 34.8,22.6 37.9,22.6 40.7,23 42.5,23.7" style="fill:#b8d432"/></svg>