<svg xmlns="http://www.w3.org/2000/svg" xmlns:svg="http://www.w3.org/2000/svg" id="Layer_1" width="50" height="49.9" x="0" y="0" enable-background="new 0 0 50 50" version="1.1" viewBox="0 0 50 49.9" xml:space="preserve"><metadata id="metadata17"/><path id="path3" d="M 49.9,29.4 49.9,29.4 49.9,17.3 36.2,29.2 35.9,29.2 35.9,17.3 22.2,29.2 22.2,29.2 22.2,4.3 C 22.2,2.2 17.5,0.1 11.3,0.1 5.1,0.1 0,2.1 0,4.3 L 0,49.9 50,49.9 49.9,29.4 Z M 11.3,6.3 C 6.8,6.3 3.2,5.2 3.2,4 3.2,2.8 6.8,1.7 11.3,1.7 15.8,1.7 19.4,2.7 19.4,4 19.3,5.2 15.7,6.3 11.3,6.3 Z M 34.9,41.8 29.4,41.8 29.4,36.3 34.9,36.3 34.9,41.8 Z M 25.2,41.8 19.7,41.8 19.7,36.3 25.2,36.3 25.2,41.8 Z M 39.2,41.8 39.2,36.3 44.7,36.3 44.7,41.8 39.2,41.8 Z" style="fill:#59b4d9"/><rect id="rect5" width="11.1" height="45.9" x="0" y="4" style="fill:#3999c6"/><path id="path7" d="M 22.1,4 C 22.1,6.2 17.1,8 11,8 4.9,8 0,6.2 0,4 0,1.8 5,0 11.1,0 17.2,0 22.1,1.7 22.1,4" style="fill:#fff"/><path id="path9" d="M 19.9,3.7 C 19.9,5.2 16,6.3 11.1,6.3 6.2,6.3 2.3,5.2 2.3,3.7 2.3,2.2 6.2,1.1 11.1,1.1 16,1.1 19.9,2.3 19.9,3.7" style="fill:#7fba00"/><path id="path11" d="M 18,5.3 C 19.2,4.9 19.8,4.3 19.8,3.7 19.8,2.2 15.9,1.1 11,1.1 6.1,1.1 2.2,2.3 2.2,3.7 2.3,4.3 3,4.9 4.1,5.3 5.7,4.7 8.2,4.3 11.1,4.3 13.9,4.3 16.4,4.7 18,5.3" style="fill:#b8d432"/></svg>