<svg xmlns="http://www.w3.org/2000/svg" xmlns:svg="http://www.w3.org/2000/svg" id="Layer_1" width="50" height="42.504" x="0" y="0" version="1.1" viewBox="0 0 50 42.504" xml:space="preserve"><metadata id="metadata27"/><path id="path3" d="M 50,33.45 C 50,38.451 38.806,42.504 25,42.504 11.194,42.504 0,38.451 0,33.45 L 0,28.57 50,28.57 50,33.45 Z" style="fill:#7fba00"/><path id="path5" d="M 50,28.57 C 50,33.571 38.806,37.624 25,37.624 11.194,37.624 0,33.571 0,28.57 0,23.57 11.193,19.516 25,19.516 38.807,19.516 50,23.57 50,28.57" style="fill:#b8d432"/><path id="path7" d="M 33.013,28.049 C 33.013,29.379 29.425,30.456 24.999,30.456 20.573,30.456 16.984,29.379 16.984,28.049 16.984,26.719 20.573,25.642 24.999,25.642 29.425,25.642 33.013,26.72 33.013,28.049" style="fill:#7fba00"/><path id="path9" d="M 43.071,22.367 C 39.569,21.04 34.967,20.098 29.792,19.734 L 26.548,25.738 C 28.144,25.832 29.571,26.067 30.675,26.4 L 43.071,22.367 Z" style="opacity:.25;fill:#fff"/><path id="path11" d="M 5.902,34.46 C 9.503,36.003 14.5,37.103 20.19,37.505 L 23.983,30.485 C 22.404,30.425 20.969,30.228 19.815,29.933 L 5.902,34.46 Z" style="opacity:.25;fill:#fff"/><path id="path13" d="M 50,13.934 C 50,18.935 38.806,22.988 25,22.988 11.194,22.988 0,18.934 0,13.934 L 0,9.054 50,9.054 50,13.934 Z" style="fill:#0072c6"/><path id="path15" d="M 50,9.054 C 50,14.055 38.806,18.108 25,18.108 11.194,18.108 0,14.054 0,9.054 0,4.054 11.193,0 25,0 38.807,0 50,4.053 50,9.054" style="fill:#59b4d9"/><path id="path17" d="M 33.013,8.533 C 33.013,9.863 29.425,10.94 24.999,10.94 20.573,10.94 16.984,9.863 16.984,8.533 16.984,7.203 20.573,6.126 24.999,6.126 29.425,6.126 33.013,7.203 33.013,8.533" style="fill:#0072c6"/><path id="path19" d="M 43.071,2.801 C 39.569,1.474 34.967,0.532 29.792,0.168 L 26.548,6.172 C 28.144,6.266 29.571,6.501 30.675,6.834 L 43.071,2.801 Z" style="opacity:.25;fill:#fff"/><path id="path21" d="M 5.902,14.894 C 9.503,16.437 14.5,17.537 20.19,17.939 L 23.983,10.919 C 22.404,10.859 20.969,10.662 19.815,10.367 L 5.902,14.894 Z" style="opacity:.25;fill:#fff"/></svg>