<svg xmlns="http://www.w3.org/2000/svg" xmlns:svg="http://www.w3.org/2000/svg" id="Layer_1" width="50.001" height="46.149" x="0" y="0" enable-background="new 0 0 50 50" version="1.1" viewBox="0 0 50.001 46.149" xml:space="preserve"><metadata id="metadata4601"/><path id="path4580" d="M 32.426,36.534 H 31.235 19.445 18.83 c 1.634,5.768 -0.561,6.595 -10.175,6.595 v 3.02 h 12.227 8.927 11.538 v -3.02 c -9.614,0 -10.557,-0.824 -8.921,-6.595" style="fill:#7a7a7a"/><path id="path4582" d="M 46.98,0 H 2.718 C 1.214,0 0.001,1.345 0.001,2.847 v 30.866 c 0,1.493 1.213,2.823 2.717,2.823 H 46.98 c 1.501,0 3.021,-1.33 3.021,-2.823 V 2.847 C 50.001,1.341 48.481,0 46.98,0" style="fill:#a0a1a2"/><path id="path4584" d="M 47.011,0.003 C 47,0.003 46.99,10e-4 46.98,10e-4 H 2.717 C 1.213,10e-4 0,1.345 0,2.848 v 30.865 c 0,1.494 1.213,2.824 2.717,2.824 H 3.77 Z" enable-background="new" style="opacity:.2;fill:#fff"/><polygon id="polygon4586" points="3.79 34.689 3.79 5.848 46.212 5.786 46.212 5.848 46.212 34.689" transform="translate(0,-2)" style="fill:#59b4d9"/><polygon id="polygon4588" points="33.333 17.58 25.003 26.331 16.666 17.611 16.666 14.069 23.532 20.575 23.532 6.977 26.43 6.977 26.43 20.575 33.333 14.027" transform="translate(0,-2)" style="fill:#fff"/><rect id="rect4590" width="14.445" height="3.333" x="17.778" y="27.18" style="fill:#fff"/><rect id="rect4592" width="32.692" height="3.021" x="8.655" y="43.128" style="fill:#a0a1a2"/><path id="path4594" d="m 25.518,2.095 c 0,0.392 -0.318,0.71 -0.71,0.71 -0.393,0 -0.709,-0.318 -0.709,-0.71 0,-0.393 0.316,-0.71 0.709,-0.71 0.392,0 0.71,0.317 0.71,0.71" style="fill:#b8d432"/></svg>