<svg xmlns="http://www.w3.org/2000/svg" xmlns:svg="http://www.w3.org/2000/svg" id="Layer_1" width="45" height="50.1" x="0" y="0" enable-background="new 0 0 50 50" version="1.1" viewBox="0 0 45 50.1" xml:space="preserve"><metadata id="metadata4791"/><path id="path4766" d="m 43,45.4 h 2 V 0 H 6.7 4 C 2.7,0.2 0,3.3 0,3.8 0,4 0.1,47.7 0.1,47.7 c 0,1.3 1.1,2.4 2.4,2.4 h 37.6 v -0.7 z" style="fill:#0072c6"/><path id="path4768" d="M 5.8,2 C 4.7,2 4.2,2.2 3.3,3 1,5 3.7,5 4.8,5 H 40 v 44.3 l 3,-3.9 V 2 Z" style="fill:#e5e5e5"/><polygon id="polygon4770" points="45.5 2 42.5 5 42.5 49.3 45.5 45.4" enable-background="new" transform="translate(-2.5)" style="opacity:.5;fill:#a0a1a2"/><g id="g4778" transform="translate(-2.5)"><path id="path4772" d="M 30.8,25.9 H 22.4 14 c -1.3,0 -2,-1.4 -1.4,-2.5 L 16.8,16 21,9 c 0.7,-1.1 2,-1.1 2.7,0 l 4.2,7.3 4.2,7.2 c 0.7,1.1 0.1,2.4 -1.3,2.4 z" style="fill:#ff8c00"/><circle id="circle4774" cx="22.4" cy="21.9" r="1.4" style="fill:#fff"/><polygon id="polygon4776" points="21.3 13.6 21.6 19.9 22.3 19.9 22.7 19.9 23.4 19.9 23.7 13.6 22.7 13.6 22.3 13.6" style="fill:#fff"/></g><g id="g4784" transform="translate(-2.5)"><circle id="circle4780" cx="22.5" cy="37.7" r="9" style="fill:#ba141a"/><polygon id="polygon4782" points="22.5 36.1 19.1 32.7 17.5 34.3 20.9 37.7 17.5 41.1 19.1 42.7 22.5 39.3 25.9 42.7 27.5 41.1 24.1 37.7 27.5 34.3 25.9 32.7" style="fill:#fff"/></g></svg>