<svg xmlns="http://www.w3.org/2000/svg" xmlns:svg="http://www.w3.org/2000/svg" id="Layer_1" width="29" height="30" x="0" y="0" enable-background="new -163 237 32 32" version="1.1" viewBox="-163 237 29 30" xml:space="preserve"><metadata id="metadata23"/><path id="path3" d="M -145,250.5 C -145,250.8 -145.2,251 -145.5,251 L -149.4,251 C -149.7,251 -149.9,250.8 -149.9,250.5 L -149.9,247.6 C -149.9,247.3 -149.7,247.1 -149.4,247.1 L -145.5,247.1 C -145.2,247.1 -145,247.3 -145,247.6 L -145,250.5 Z" style="fill:#b8d432"/><path id="path5" d="M -138,253.5 C -138,253.8 -138.2,254 -138.5,254 L -142.4,254 C -142.7,254 -142.9,253.8 -142.9,253.5 L -142.9,250.6 C -142.9,250.3 -142.7,250.1 -142.4,250.1 L -138.5,250.1 C -138.2,250.1 -138,250.3 -138,250.6 L -138,253.5 Z" style="fill:#b8d432"/><path id="path7" d="M -145,256.5 C -145,256.8 -145.2,257 -145.5,257 L -149.4,257 C -149.7,257 -149.9,256.8 -149.9,256.5 L -149.9,253.6 C -149.9,253.3 -149.7,253.1 -149.4,253.1 L -145.5,253.1 C -145.2,253.1 -145,253.3 -145,253.6 L -145,256.5 Z" style="fill:#b8d432"/><path id="path9" d="M -152,247.5 C -152,247.8 -152.2,248 -152.5,248 L -156.5,248 C -156.8,248 -157,247.8 -157,247.5 L -157,244.5 C -157,244.2 -156.8,244 -156.5,244 L -152.6,244 C -152.2,244 -152,244.2 -152,244.5 L -152,247.5 Z" style="fill:#b8d432"/><path id="path11" d="M -134.5,237 -134.5,237 -137.5,237 -159.6,237 -161.5,237 -162.5,237 C -162.8,237 -163,237.2 -163,237.5 L -163,243.5 C -163,243.8 -162.8,244 -162.5,244 L -159.5,244 C -159.2,244 -159,243.8 -159,243.5 L -159,241 -138,241 -138,243.5 C -138,243.8 -137.8,244 -137.4,244 L -134.5,244 C -134.2,244 -134,243.8 -134,243.5 L -134,240.5 -134,237.5 C -134,237.2 -134.2,237 -134.5,237 Z" style="fill:#0072c6"/><path id="path13" d="M -134.5,260.1 -137.4,260.1 C -137.7,260.1 -137.9,260.3 -137.9,260.6 L -137.9,263 -159,263 -159,260.5 C -159,260.2 -159.2,260 -159.6,260 L -162.5,260 C -162.8,260 -163,260.2 -163,260.6 L -163,266.5 C -163,266.8 -162.8,267 -162.5,267 L -161.5,267 -159.5,267 -137.4,267 -134.6,267 -134.5,267 C -134.2,267 -134,266.8 -134,266.5 L -134,260.6 C -134,260.3 -134.2,260.1 -134.5,260.1 Z" style="fill:#0072c6"/><path id="path15" d="M -152,253.5 C -152,253.8 -152.2,254 -152.5,254 L -156.5,254 C -156.8,254 -157,253.8 -157,253.5 L -157,250.5 C -157,250.2 -156.8,250 -156.5,250 L -152.6,250 C -152.2,250 -152,250.2 -152,250.5 L -152,253.5 Z" style="fill:#b8d432"/><path id="path17" d="M -152,259.5 C -152,259.8 -152.2,260 -152.5,260 L -156.5,260 C -156.8,260 -157,259.8 -157,259.5 L -157,256.5 C -157,256.2 -156.8,256 -156.5,256 L -152.6,256 C -152.2,256 -152,256.2 -152,256.5 L -152,259.5 Z" style="fill:#b8d432"/></svg>