<svg xmlns="http://www.w3.org/2000/svg" xmlns:svg="http://www.w3.org/2000/svg" id="Layer_1" width="50" height="30.6" x="0" y="0" enable-background="new 0 0 50 50" version="1.1" viewBox="0 0 50 30.6" xml:space="preserve"><metadata id="metadata19"/><rect id="rect3" width="31" height="3.8" x="9.8" y="23.1" style="fill:#68217a"/><rect id="rect5" width="21.2" height="3.8" x="-11.054" y="19.709" transform="matrix(0.70710678,-0.70710678,0.70710678,0.70710678,0,0)" style="fill:#68217a"/><rect id="rect7" width="21.2" height="3.8" x="25.289" y="-15.693" transform="matrix(0.70710678,0.70710678,-0.70710678,0.70710678,0,0)" style="fill:#68217a"/><path id="path9" d="M 25,0 C 21.9,0 19.4,2.5 19.4,5.6 19.4,8.7 21.9,11.2 25,11.2 28.1,11.2 30.6,8.7 30.6,5.6 30.6,2.5 28.1,0 25,0 Z M 25,7.4 C 24,7.4 23.2,6.6 23.2,5.6 23.2,4.6 24,3.8 25,3.8 26,3.8 26.8,4.6 26.8,5.6 26.8,6.6 26,7.4 25,7.4 Z" style="fill:#7fba00"/><path id="path11" d="M 5.6,19.4 C 2.5,19.4 0,21.9 0,25 0,28.1 2.5,30.6 5.6,30.6 8.7,30.6 11.2,28.1 11.2,25 11.2,21.9 8.7,19.4 5.6,19.4 Z M 5.6,26.8 C 4.6,26.8 3.8,26 3.8,25 3.8,24 4.6,23.2 5.6,23.2 6.6,23.2 7.4,24 7.4,25 7.4,26 6.6,26.8 5.6,26.8 Z" style="fill:#7fba00"/><path id="path13" d="M 44.4,19.4 C 41.3,19.4 38.8,21.9 38.8,25 38.8,28.1 41.3,30.6 44.4,30.6 47.5,30.6 50,28.1 50,25 50,21.9 47.5,19.4 44.4,19.4 Z M 44.4,26.8 C 43.4,26.8 42.6,26 42.6,25 42.6,24 43.4,23.2 44.4,23.2 45.4,23.2 46.2,24 46.2,25 46.2,26 45.4,26.8 44.4,26.8 Z" style="fill:#7fba00"/></svg>