<svg xmlns="http://www.w3.org/2000/svg" xmlns:svg="http://www.w3.org/2000/svg" id="Layer_1" width="48" height="50" x="0" y="0" enable-background="new 0 0 50 50" version="1.1" viewBox="0 0 48 50" xml:space="preserve"><metadata id="metadata1056"/><polygon id="polygon1029" points="41.8 12 41.6 12 13 12 13 50 49 50 49 19.4 49 19.2 47.4 17.5 43.5 13.6" transform="translate(-1)" style="fill:#59b4d9"/><polygon id="polygon1031" points="15 48 47 48 47 20 41 20 41 14 15 14" transform="translate(-1)" style="opacity:.8;fill:#fff"/><path id="path1033" d="m 19,39.1 c 0,-0.5 0.4,-0.9 0.9,-0.9 h 12.4 c 0.5,0 0.9,0.4 0.9,0.9 0,0.5 -0.4,0.9 -0.9,0.9 H 19.9 C 19.4,40 19,39.6 19,39.1" style="fill:#59b4d9"/><path id="path1035" d="M 19,32.9 C 19,32.4 19.4,32 19.9,32 h 20.5 c 0.5,0 0.9,0.4 0.9,0.9 0,0.5 -0.4,0.9 -0.9,0.9 H 19.9 C 19.4,33.8 19,33.4 19,32.9" style="fill:#59b4d9"/><path id="path1037" d="m 19,27.1 c 0,-0.5 0.4,-0.9 0.9,-0.9 h 20.5 c 0.5,0 0.9,0.4 0.9,0.9 0,0.5 -0.4,0.9 -0.9,0.9 H 19.9 C 19.4,28 19,27.6 19,27.1" style="fill:#59b4d9"/><rect id="rect1039" width="29" height="6" x="2" y="0" style="fill:#59b4d9"/><rect id="rect1041" width="6" height="40" x="0" y="0" style="fill:#59b4d9"/><polygon id="polygon1043" points="3 38 7 38 7 6 30 6 30 2 5 2 3 2" transform="translate(-1)" style="opacity:.8;fill:#fff"/><rect id="rect1045" width="29" height="6" x="8" y="6" style="fill:#59b4d9"/><rect id="rect1047" width="6" height="38" x="6" y="6" style="fill:#59b4d9"/><polygon id="polygon1049" points="9 42 13 42 13 12 36 12 36 8 11 8 9 8" transform="translate(-1)" style="opacity:.8;fill:#fff"/></svg>