<svg xmlns="http://www.w3.org/2000/svg" xmlns:svg="http://www.w3.org/2000/svg" id="Layer_1" width="44" height="50" x="0" y="0" enable-background="new 0 0 50 50" version="1.1" viewBox="0 0 44 50" xml:space="preserve"><metadata id="metadata959"/><polygon id="polygon942" points="38.2 0 38 0 3 0 3 50 47 50 47 9 47 8.8 45 6.8 40.2 2" transform="translate(-3)" style="fill:#59b4d9"/><polygon id="polygon944" points="5 48 45 48 45 9 38 9 38 2 5 2" transform="translate(-3)" style="opacity:.8;fill:#fff"/><path id="path946" d="m 25.8,39.2 c 0,0.6 -0.5,1.1 -1.1,1.1 H 9.6 C 9,40.3 8.5,39.8 8.5,39.2 8.5,38.6 9,38.1 9.6,38.1 h 15.1 c 0.6,0 1.1,0.5 1.1,1.1" style="fill:#59b4d9"/><path id="path948" d="m 35.9,24.2 c 0,0.6 -0.5,1.1 -1.1,1.1 H 9.6 C 9,25.3 8.5,24.8 8.5,24.2 8.5,23.6 9,23.1 9.6,23.1 h 25.1 c 0.7,0 1.2,0.5 1.2,1.1" style="fill:#59b4d9"/><path id="path950" d="m 35.9,31.7 c 0,0.6 -0.5,1.1 -1.1,1.1 H 9.6 C 9,32.8 8.5,32.3 8.5,31.7 8.5,31.1 9,30.6 9.6,30.6 h 25.1 c 0.7,0 1.2,0.5 1.2,1.1" style="fill:#59b4d9"/><path id="path952" d="m 35.9,16.7 c 0,0.6 -0.5,1.1 -1.1,1.1 H 9.6 C 9,17.8 8.5,17.3 8.5,16.7 8.5,16.1 9,15.6 9.6,15.6 h 25.1 c 0.7,0 1.2,0.5 1.2,1.1" style="fill:#59b4d9"/></svg>