<svg xmlns="http://www.w3.org/2000/svg" xmlns:svg="http://www.w3.org/2000/svg" id="Layer_1" width="49.999" height="46.08" x="0" y="0" enable-background="new 0 0 50 50" version="1.1" viewBox="0 0 49.999 46.08" xml:space="preserve"><metadata id="metadata1327"/><path id="path1312" d="M 48.065,9.912 V 5.935 H 21.897 L 15.963,0 H 0 v 43.708 c 0,1.31 1.06,2.371 2.37,2.372 v 0 h 45.258 c 1.309,0 2.371,-1.062 2.371,-2.372 V 9.912 Z" style="fill:#fee087"/><path id="path1314" d="m 26.176,25.945 c -0.052,0 -0.105,-0.016 -0.155,-0.044 L 15.846,20.028 c -0.093,-0.055 -0.152,-0.158 -0.152,-0.267 0,-0.11 0.059,-0.212 0.152,-0.266 L 25.958,13.66 c 0.097,-0.053 0.213,-0.053 0.306,0 l 10.178,5.876 c 0.094,0.054 0.152,0.155 0.152,0.265 0,0.112 -0.058,0.212 -0.152,0.267 l -10.111,5.833 c -0.048,0.028 -0.099,0.044 -0.155,0.044" style="fill:#dd5900"/><path id="path1316" d="m 24.714,40.221 c -0.056,0 -0.11,-0.013 -0.155,-0.041 L 14.415,34.325 C 14.316,34.269 14.259,34.17 14.259,34.058 V 22.309 c 0,-0.11 0.057,-0.211 0.156,-0.269 0.093,-0.053 0.208,-0.053 0.31,0 l 10.143,5.855 c 0.09,0.057 0.15,0.158 0.15,0.268 v 11.75 c 0,0.113 -0.06,0.211 -0.15,0.267 -0.051,0.028 -0.103,0.041 -0.154,0.041" style="fill:#ff8c00"/><path id="path1318" d="m 27.585,40.221 c -0.055,0 -0.107,-0.013 -0.157,-0.041 -0.093,-0.056 -0.152,-0.154 -0.152,-0.267 V 28.239 c 0,-0.11 0.059,-0.211 0.152,-0.268 l 10.141,-5.853 c 0.097,-0.054 0.212,-0.054 0.306,0 0.097,0.055 0.156,0.157 0.156,0.266 v 11.674 c 0,0.112 -0.059,0.211 -0.156,0.267 l -10.14,5.855 c -0.042,0.028 -0.097,0.041 -0.15,0.041" enable-background="new" style="opacity:.5;fill:#ff8c00"/><path id="path1320" d="m 4.742,9.912 v 33.796 c 0,1.31 -1.062,2.372 -2.371,2.372 C 1.06,46.08 0,45.018 0,43.708 V 0 h 15.963 l 5.934,5.935 h 26.168 v 3.977 z" enable-background="new" style="opacity:.2;fill:#1e1e1e"/></svg>