<svg xmlns="http://www.w3.org/2000/svg" xmlns:svg="http://www.w3.org/2000/svg" id="Layer_1" width="64.027" height="59" x="0" y="0" enable-background="new 0 0 64 64" version="1.1" viewBox="0 0 64.027 59" xml:space="preserve"><metadata id="metadata17"/><g id="g3" transform="translate(0.01334878,-2.5)"><path id="path5" d="M 63.6,32.4 C 64.2,31.8 64.1,30.7 63.6,30.1 L 60.5,27 46.7,13.6 C 46.1,13 45.2,13 44.5,13.6 L 44.5,13.6 C 43.9,14.2 43.7,15.3 44.5,15.9 L 59,30.1 C 59.6,30.7 59.6,31.8 59,32.4 L 44.2,47.1 C 43.6,47.7 43.6,48.8 44.2,49.4 L 44.2,49.4 C 44.8,50 45.9,49.9 46.4,49.4 L 60.1,35.8 C 60.1,35.8 60.1,35.8 60.2,35.7 L 63.6,32.4 Z" style="fill:#3999c6"/><path id="path7" d="M 0.4,32.4 C -0.2,31.8 -0.1,30.7 0.4,30.1 L 3.5,27 17.3,13.6 C 17.9,13 18.8,13 19.5,13.6 L 19.5,13.6 C 20.1,14.2 20.3,15.3 19.5,15.9 L 5.3,30.1 C 4.7,30.7 4.7,31.8 5.3,32.4 L 19.8,47.1 C 20.4,47.7 20.4,48.8 19.8,49.4 L 19.8,49.4 C 19.2,50 18.1,49.9 17.6,49.4 L 3.6,36 C 3.6,36 3.6,36 3.5,35.9 L 0.4,32.4 Z" style="fill:#3999c6"/><polygon id="polygon9" points="30.4 32.2 20.4 61.5 48 22.4 34.6 22.4 47.6 2.5 28.1 2.5 17.6 32.1" style="fill:#fcd116"/><polygon id="polygon11" points="26.6 27.1 39.4 27.2 20.4 61.5 48 22.4 34.6 22.4 47.6 2.5 37.4 2.5" enable-background="new" style="opacity:.3;fill:#ff8c00"/></g></svg>