<svg xmlns="http://www.w3.org/2000/svg" xmlns:svg="http://www.w3.org/2000/svg" id="Layer_1" width="42" height="48" x="0" y="0" enable-background="new 0 0 50 50" version="1.1" viewBox="0 0 42 48" xml:space="preserve"><metadata id="metadata11"/><path id="path3" d="M 17,35 4,48 38,48 25,35 17,35 Z" style="clip-rule:evenodd;fill:#59b4d9;fill-rule:evenodd"/><path id="path5" d="M 21,0 C 6.1,0 0,10.5 0,21 L 0,45.9 1,47 14,34 C 14,34 14,30.5 14,26 14,21 16,18 21,18 26,18 28,21 28,26 28,30.5 28,34 28,34 L 41,47 42,45.9 42,20 C 42,9.5 35.9,0 21,0 Z" style="clip-rule:evenodd;fill:#7a7a7a;fill-rule:evenodd"/></svg>