<svg xmlns="http://www.w3.org/2000/svg" xmlns:svg="http://www.w3.org/2000/svg" id="Layer_1" width="45" height="47.5" x="0" y="0" enable-background="new 0 0 50 50" version="1.1" viewBox="0 0 45 47.5" xml:space="preserve"><metadata id="metadata2179"/><path id="path2164" d="M 22.5,45 C 10.1,45 0,34.9 0,22.5 0,10.1 10.1,0 22.5,0 34.9,0 45,10.1 45,22.5 45,34.9 34.9,45 22.5,45 Z m 0,-44 C 10.6,1 1,10.6 1,22.5 1,34.4 10.6,44 22.5,44 34.4,44 44,34.4 44,22.5 44,10.6 34.4,1 22.5,1 Z" style="fill:#59b4d9"/><path id="path2166" stroke-miterlimit="10" d="m 24.4,32.7 c 0.8,-0.8 2,-0.8 2.7,0 L 24,29.6 c -0.8,-0.8 -0.8,-2 0,-2.7 0.8,-0.8 2,-0.8 2.7,0 l 0.8,0.8 0.6,0.6 1.5,1.5 c 0.8,0.8 2,0.8 2.7,0 0.8,-0.8 0.8,-2 0,-2.7 l -1.5,-1.5 -0.9,-0.9 -4.4,-4.6 c -0.8,-0.8 -0.8,-2 0,-2.7 0.8,-0.8 2,-0.8 2.7,0 l 2,2 c -0.8,-0.8 -0.8,-2 0,-2.7 0.8,-0.8 2,-0.8 2.7,0 l 5.2,5.2 C 37.9,18.1 36.4,14.5 33.5,11.6 30.9,9 27.5,7.5 24,7.1 l 2.3,2.3 c 1,1 1,2.5 0,3.4 -1,0.9 -2.5,1 -3.4,0 l -1.6,-1.6 c -1,-1 -2.5,-1 -3.4,0 -1,1 -1,2.5 0,3.4 l 3.1,3.1 c 1,1 1,2.5 0,3.4 -1,0.9 -2.5,1 -3.4,0 l -3.4,-3.4 c 0.4,0.9 0.2,2 -0.5,2.7 -1,1 -2.5,1 -3.4,0 l 2.5,2.5 c 1,1 1,2.5 0,3.4 -1,1 -2.5,1 -3.4,0 L 7.1,24 c 0.4,3.5 1.8,6.8 4.5,9.5 4.1,4.1 9.9,5.4 15.1,4 l -2.2,-2.2 c -0.9,-0.6 -0.9,-1.8 -0.1,-2.6 z" style="fill:#59b4d9;stroke:#59b4d9;stroke-width:.1937;stroke-miterlimit:10"/><path id="path2168" d="M 38.2,21.9 33,16.7 c -0.8,-0.8 -2,-0.8 -2.7,0 -0.7,0.8 -0.8,2 0,2.7 l -2,-2 c -0.8,-0.8 -2,-0.8 -2.7,0 -0.8,0.8 -0.8,2 0,2.7 l 4.5,4.5 0.9,0.9 1.5,1.5 c 0.8,0.8 0.8,2 0,2.7 -0.8,0.8 -2,0.8 -2.7,0 l -1.5,-1.5 -0.6,-0.6 -0.8,-0.8 c -0.8,-0.8 -2,-0.8 -2.7,0 -0.8,0.8 -0.8,2 0,2.7 l 3.1,3.1 c -0.8,-0.8 -2,-0.8 -2.7,0 -0.8,0.8 -0.8,2 0,2.7 l 2.2,2.2 c 2.6,-0.7 5,-2 7,-4 3.1,-3.1 4.6,-7.4 4.4,-11.6 z" style="fill:#b8d432"/><path id="path2170" d="m 12.6,26.3 c 1,-1 1,-2.5 0,-3.4 l -2.5,-2.5 c 1,1 2.5,1 3.4,0 0.7,-0.7 0.9,-1.8 0.5,-2.7 l 3.4,3.4 c 1,1 2.5,1 3.4,0 0.9,-1 1,-2.5 0,-3.4 l -3,-3.2 c -1,-1 -1,-2.5 0,-3.4 1,-0.9 2.5,-1 3.4,0 l 1.6,1.6 c 1,1 2.5,1 3.4,0 1,-1 1,-2.5 0,-3.4 L 23.9,7 C 19.4,6.5 14.7,8 11.3,11.5 7.9,15 6.3,19.6 6.8,24.1 l 2.3,2.3 c 1,0.9 2.6,0.9 3.5,-0.1 z" style="fill:#b8d432"/><circle id="circle2172" cx="22.5" cy="43.9" r="3.6" style="fill:#0072c6"/></svg>