<svg xmlns="http://www.w3.org/2000/svg" xmlns:svg="http://www.w3.org/2000/svg" id="Layer_1" width="47.8" height="49.96" x="0" y="0" version="1.1" viewBox="0 0 47.8 49.96" xml:space="preserve"><metadata id="metadata2488"/><style id="style2453" type="text/css">.st0{fill:#0072c6}.st1,.st2{opacity:.15;fill:#fff;enable-background:new}.st2{opacity:.25;fill:#1e1e1e}.st3{fill:#b8d432}.st4{fill:#7fba00}.st5{opacity:.25;fill:#fcd116;enable-background:new}</style><path id="path2455" d="m 23.9,21.359808 -23.9,-9.6 v -0.1 L 23.9,1.9598076 47.8,11.559808 v 0.1 z" class="st0" style="fill:#0072c6"/><path id="path2457" d="m 23.9,49.959808 23.9,-9.7 v -28.6 l -23.9,9.7 z" class="st0" style="fill:#0072c6"/><path id="path2459" d="m 23.9,49.959808 23.9,-9.7 v -28.6 l -23.9,9.7 z" class="st1" style="opacity:.15;fill:#fff;enable-background:new"/><path id="path2461" d="m 23.9,49.959808 -23.9,-9.6 v -28.6 l 23.9,9.6 z" class="st0" style="fill:#0072c6"/><path id="path2463" d="m 23.9,49.959808 -23.9,-9.6 v -28.6 l 23.9,9.6 z" class="st2" style="opacity:.25;fill:#1e1e1e;enable-background:new"/><polygon id="polygon2465" points="41.2 43.4 41.2 14.7 34.9 17.4 34.9 46" class="st3" transform="translate(-1.1,-0.04019238)" style="fill:#b8d432"/><polygon id="polygon2467" points="8.4 43.4 8.4 14.7 14.9 17.4 14.9 46" class="st4" transform="translate(-1.1,-0.04019238)" style="fill:#7fba00"/><polygon id="polygon2469" points="34.9 17.4 41.2 14.7 41.2 14.6 17.3 5 10.9 7.6 10.9 7.7" class="st4" transform="translate(-1.1,-0.04019238)" style="fill:#7fba00"/><polygon id="polygon2471" points="14.9 17.4 8.4 14.7 8.4 14.6 32.7 5 39.1 7.6 39.1 7.7" class="st3" transform="translate(-1.1,-0.04019238)" style="fill:#b8d432"/><path id="path2473" d="m 17.9,15.259808 c 0.5,0.1 1.1,0.1 1.7,-0.2 l 7.7,-3.1 -5.9,-3.1000004 -6.9,-2.5 c -0.6,-0.2 -1.1,-0.3 -1.8,0 -1.7,0.7 -3.1,2.6 -3.1,4.3000004 0,0.8 0.4,1.5 0.9,1.8 z" class="st4" style="fill:#7fba00"/><path id="path2475" d="m 20.5,9.4598076 5.9,-7.8 c 0.6,-0.6 1.1,-1.09999998 1.8,-1.39999998 0.6,-0.2 1.2,-0.3 1.7,-0.2 l 7,2.59999998 c 0.7,0.3 1.2,1 1.2,2 0,1.7 -1.4,3.6 -3.1,4.3 l -7.7,3.1000004 z" class="st4" style="fill:#7fba00"/><path id="path2477" d="M 37,2.6598076 30,0.05980762 c -0.5,-0.1 -1.1,-0.1 -1.7,0.2 -0.7,0.3 -1.3,0.79999998 -1.8,1.39999998 l -5.4,7.2 -6.5,-2.4 c -0.6,-0.2 -1.1,-0.3 -1.8,0 -1.7,0.7 -3.1,2.6 -3.1,4.3000004 0,0.8 0.4,1.5 0.9,1.8 l 7.3,2.7 c 0.5,0.1 1.1,0.1 1.7,-0.2 l 7.7,-3.1 -0.7,-0.4 0.8,0.3 7.7,-3.1000004 c 1.7,-0.7 3.1,-2.6 3.1,-4.3 0,-0.9 -0.5,-1.6 -1.2,-1.8 z" class="st5" style="opacity:.25;fill:#fcd116;enable-background:new"/><path id="path2479" d="m 33.3,4.1598076 c 0.6,-0.6 1.1,-1.1 1.8,-1.4 1.7,-0.7 3.1,0.2 3.1,1.9 0,1.7 -1.4,3.6 -3.1,4.3 l -7.7,3.1000004 z" class="st2" style="opacity:.25;fill:#1e1e1e;enable-background:new"/><path id="path2481" d="m 21.4,8.8598076 c -0.6,-0.2 -1.1,-0.3 -1.8,0 -1.7,0.7 -3.1,2.6000004 -3.1,4.3000004 0,1.7 1.4,2.5 3.1,1.9 l 7.7,-3.1 z" class="st2" style="opacity:.25;fill:#1e1e1e;enable-background:new"/></svg>