<svg xmlns="http://www.w3.org/2000/svg" xmlns:svg="http://www.w3.org/2000/svg" id="Layer_1" width="43.708" height="50.051" x="0" y="0" enable-background="new 0 0 50 50" version="1.1" viewBox="0 0 43.708 50.051" xml:space="preserve"><metadata id="metadata2577"/><path id="path2560" d="m 21.039299,40.402308 h -3.951 c 0.957,5.788 -2.336,6.618 -7.9680003,6.618 v 3.031 h 7.1630003 5.229 6.759 v -3.031 c -5.631,0 -8.19,-0.827 -7.232,-6.618" style="fill:#ff8c00"/><rect id="rect2562" width="19.151" height="3.032" x="9.122" y="47.019" style="fill:#fcd116"/><path id="path2564" stroke-miterlimit="10" d="m 21.020299,30.979308 c 0.904,-0.904 2.37,-0.904 3.274,0 l -3.66,-3.66 c -0.904,-0.904 -0.904,-2.37 0,-3.274 0.904,-0.904 2.37,-0.904 3.274,0 l 0.971,0.971 0.756,0.686 1.79,1.79 c 0.904,0.904 2.37,0.904 3.274,0 0.904,-0.904 0.904,-2.37 0,-3.274 l -1.79,-1.79 -1.133,-1.133 -5.447,-5.447 c -0.904,-0.904 -0.904,-2.37 0,-3.274 0.904,-0.904 2.37,-0.904 3.274,0 l 2.387,2.387 c -0.904,-0.904 -0.904,-2.37 0,-3.274 0.904,-0.904 2.37,-0.904 3.274,0 l 6.195,6.195 c -0.208,-4.491 -2.028,-8.9210004 -5.458,-12.3510004 -3.17,-3.17 -7.195,-4.96300003 -11.332,-5.38300003 l 2.778,2.77800003 c 1.141,1.141 1.141,2.99 0,4.131 -1.141,1.141 -2.99,1.141 -4.131,0 l -1.9,-1.9 c -1.141,-1.141 -2.99,-1.141 -4.131,0 -1.141,1.141 -1.141,2.99 0,4.131 l 3.743,3.7430004 c 1.141,1.141 1.141,2.99 0,4.131 -1.141,1.141 -2.99,1.141 -4.131,0 l -4.1060003,-4.106 c 0.489,1.076 0.294,2.388 -0.591,3.273 -1.141,1.141 -2.99,1.141 -4.131,0 l 2.988,2.988 c 1.141,1.141 1.141,2.99 0,4.131 -1.141,1.141 -2.99,1.141 -4.131,0 l -2.77799998,-2.778 c 0.42,4.138 2.21299998,8.162 5.38299998,11.332 4.8980003,4.898 11.8340003,6.508 18.0770003,4.842 l -2.589,-2.589 c -0.904,-0.906 -0.904,-2.372 0.001,-3.276 z" style="fill:#59b4d9;stroke:#59b4d9;stroke-width:.23199999;stroke-miterlimit:10"/><path id="path2566" d="m 37.461299,17.882308 -6.195,-6.195 c -0.904,-0.904 -2.37,-0.904 -3.274,0 -0.904,0.904 -0.904,2.37 0,3.274 l -2.387,-2.387 c -0.904,-0.904 -2.37,-0.904 -3.274,0 -0.904,0.904 -0.904,2.37 0,3.274 l 5.447,5.447 1.133,1.133 1.79,1.79 c 0.904,0.904 0.904,2.37 0,3.274 -0.904,0.904 -2.37,0.904 -3.274,0 l -1.79,-1.79 -0.756,-0.686 -0.971,-0.971 c -0.904,-0.904 -2.37,-0.904 -3.274,0 -0.904,0.904 -0.904,2.37 0,3.274 l 3.66,3.66 c -0.904,-0.904 -2.37,-0.904 -3.274,0 -0.904,0.904 -0.904,2.37 0,3.274 l 2.589,2.589 c 3.074,-0.82 5.981,-2.431 8.392,-4.842 3.877,-3.88 5.697,-9.038 5.458,-14.118 z" style="fill:#b8d432"/><path id="path2568" d="m 7.0572987,23.445308 c 1.141,-1.141 1.141,-2.99 0,-4.131 l -2.988,-2.988 c 1.141,1.141 2.99,1.141 4.131,0 0.885,-0.885 1.08,-2.196 0.591,-3.273 l 4.1060003,4.106 c 1.141,1.141 2.99,1.141 4.131,0 1.141,-1.141 1.141,-2.99 0,-4.131 l -3.743,-3.7430004 c -1.141,-1.141 -1.141,-2.99 0,-4.131 1.141,-1.141 2.99,-1.141 4.131,0 l 1.9,1.9 c 1.141,1.141 2.99,1.141 4.131,0 1.141,-1.141 1.141,-2.99 0,-4.131 l -2.778,-2.77800003 c -5.403,-0.546 -10.9980003,1.24700003 -15.1370003,5.38600003 -4.139,4.139 -5.93199998,9.7340004 -5.38299998,15.1370004 l 2.77799998,2.778 c 1.14,1.14 2.989,1.14 4.13,-10e-4 z" style="fill:#b8d432"/><path id="path2570" d="m 18.766299,43.707308 c -6.662,0 -12.9260003,-2.594 -17.6370003,-7.305 -0.67999998,-0.68 -0.67999998,-1.781 0,-2.461 0.68,-0.679 1.781,-0.68 2.461,0 4.054,4.054 9.4430003,6.286 15.1760003,6.286 5.733,0 11.122,-2.232 15.176,-6.286 4.054,-4.054 6.286,-9.443 6.286,-15.176 0,-5.733 -2.232,-11.1220004 -6.286,-15.1760004 -0.68,-0.68 -0.68,-1.781 0,-2.461 0.68,-0.68000003 1.782,-0.67900003 2.461,0 4.711,4.711 7.305,10.9740004 7.305,17.6370004 0,6.663 -2.594,12.926 -7.305,17.637 -4.711,4.711 -10.975,7.305 -17.637,7.305 z" style="fill:#fcd116"/></svg>