<svg xmlns="http://www.w3.org/2000/svg" xmlns:svg="http://www.w3.org/2000/svg" id="Layer_1" width="43.656" height="50" x="0" y="0" enable-background="new 0 0 50 50" version="1.1" viewBox="0 0 43.656 50" xml:space="preserve"><metadata id="metadata2869"/><path id="path2852" d="m 20.987202,40.350514 h -3.951 c 0.957,5.788 -2.336,6.618 -7.9679998,6.618 v 3.031 h 7.1629998 5.229 6.759 v -3.031 c -5.631,0 -8.19,-0.827 -7.232,-6.618" style="fill:#7a7a7a"/><rect id="rect2854" width="19.151" height="3.032" x="9.07" y="46.968" style="fill:#a0a1a2"/><path id="path2856" d="m 31.948202,5.4795139 c -3.17,-3.17 -7.195,-4.96299995 -11.332,-5.38299995 -5.402,-0.549 -10.9969998,1.24399995 -15.1359998,5.38299995 -4.139,4.139 -5.93200005,9.7340001 -5.38400005,15.1360001 0.42,4.138 2.21300005,8.162 5.38300005,11.332 4.8979998,4.898 11.8329998,6.508 18.0769998,4.842 3.074,-0.82 5.981,-2.431 8.392,-4.842 3.879,-3.879 5.699,-9.038 5.461,-14.117 -0.211,-4.491 -2.03,-8.9210001 -5.461,-12.3510001 z" style="fill:#ff8c00"/><path id="path2858" d="m 28.440202,28.441514 c -3.221,3.222 -7.105,5.373 -11.211,6.469 -2.025,0.54 -4.105,0.818 -6.187,0.842 3.95,1.775 8.378,2.142 12.515,1.038 3.074,-0.82 5.981,-2.431 8.392,-4.842 3.879,-3.879 5.699,-9.038 5.461,-14.117 -0.111,-2.361 -0.679,-4.7 -1.679,-6.891 -0.046,6.338 -2.454,12.664 -7.291,17.501 z" style="opacity:.2;fill:#1e1e1e"/><path id="path2860" d="m 18.714202,43.655514 c -6.662,0 -12.9259998,-2.594 -17.6369998,-7.305 -0.68000005,-0.68 -0.68000005,-1.781 0,-2.461 0.68,-0.679 1.781,-0.68 2.461,0 4.054,4.054 9.4429998,6.286 15.1759998,6.286 5.733,0 11.122,-2.232 15.176,-6.286 4.054,-4.054 6.286,-9.443 6.286,-15.176 0,-5.733 -2.232,-11.1220001 -6.286,-15.1760001 -0.68,-0.68 -0.68,-1.781 0,-2.461 0.68,-0.67999995 1.782,-0.67899995 2.461,0 4.711,4.711 7.305,10.9740001 7.305,17.6370001 0,6.663 -2.594,12.926 -7.305,17.637 -4.711,4.711 -10.975,7.305 -17.637,7.305 z" style="fill:#a0a1a2"/><path id="path2862" d="m 29.760202,24.445514 -4.743,-8.137 -4.808,-8.2500001 c -0.741,-1.275 -2.255,-1.257 -3.016,0.02 l -4.742,7.9280001 -4.7909998,8.419 c -0.746,1.275 0.051,2.845 1.562,2.845 h 9.4949998 9.49 c 1.547,0 2.308,-1.555 1.553,-2.825 z m -11.199,-11.217 h 0.464 1.159 l -0.416,7.182 h -0.743 -0.464 -0.743 l -0.413,-7.182 z m 0.153,11 c -0.856,0 -1.55,-0.694 -1.55,-1.55 0,-0.856 0.694,-1.55 1.55,-1.55 0.856,0 1.55,0.694 1.55,1.55 0,0.856 -0.694,1.55 -1.55,1.55 z" style="fill:#fff"/></svg>