<svg xmlns="http://www.w3.org/2000/svg" xmlns:svg="http://www.w3.org/2000/svg" id="Layer_1" width="50" height="44.051" x="0" y="0" enable-background="new 0 0 50 50" version="1.1" viewBox="0 0 50 44.051" xml:space="preserve"><metadata id="metadata3118"/><path id="path3055" d="m 11.6,42.051484 c 0,1.1 -0.8,2 -1.7,2 H 6.3 c -0.9,0 -1.7,-0.9 -1.7,-2 v -9.3 c 0,-1.1 0.8,-2 1.7,-2 h 3.5 c 0.9,0 1.7,0.9 1.7,2 v 9.3 z" style="fill:#1e1e1e"/><path id="path3057" d="m 45.9,42.051484 c 0,1.1 -0.8,2 -1.7,2 h -3.5 c -0.9,0 -1.7,-0.9 -1.7,-2 v -9.3 c 0,-1.1 0.8,-2 1.7,-2 h 3.5 c 0.9,0 1.7,0.9 1.7,2 z" style="fill:#1e1e1e"/><path id="path3059" d="m 46.6,33.551484 c 0,0.4 -0.3,0.7 -0.6,0.7 H 4.8 c -0.3,0 -0.6,-0.3 -0.6,-0.7 l 0.7,-4.2 c 0,-0.4 0.3,-0.7 0.6,-0.7 h 39.9 c 0.3,0 0.6,0.3 0.6,0.7 z" style="fill:#1e1e1e"/><path id="path3061" d="m 45.9,28.051484 c 0,0.4 -0.3,0.7 -0.6,0.7 H 5.4 c -0.3,0 -0.6,-0.3 -0.6,-0.7 l 2.9,-4.5 c 0,-0.4 0.3,-0.7 0.6,-0.7 h 34.1 c 0.3,0 0.6,0.3 0.6,0.7 z" style="fill:#a0a1a2"/><path id="path3063" d="m 42.6,22.451484 c 0,0.4 -0.3,0.7 -0.6,0.7 H 8.7 c -0.3,0 -0.6,-0.3 -0.6,-0.7 l 4.9,-5 c 0,-0.4 0.3,-0.7 0.6,-0.7 H 37 c 0.3,0 0.6,0.3 0.6,0.7 z" style="fill:#a0a1a2"/><path id="path3065" d="m 42.2,22.251484 c 0,0.4 -0.3,0.6 -0.6,0.6 H 9.2 c -0.3,0 -0.6,-0.3 -0.6,-0.6 l 4.9,-4.5 c 0,-0.4 0.3,-0.6 0.6,-0.6 h 22.7 c 0.3,0 0.6,0.3 0.6,0.6 z" style="fill:#59b4d9"/><path id="path3067" d="m 45.7,36.951484 c 0,0.2 -0.3,0.4 -0.6,0.4 H 5.7 c -0.3,0 -0.6,-0.2 -0.6,-0.4 l -0.9,-2.5 c 0,-0.2 0.3,-0.4 0.6,-0.4 H 46 c 0.3,0 0.6,0.2 0.6,0.4 z" style="fill:#7a7a7a"/><path id="path3069" d="m 45.7,37.951484 c 0,0.2 -0.3,0.4 -0.6,0.4 H 5.7 c -0.3,0 -0.6,-0.2 -0.6,-0.4 l -0.9,-2.5 c 0,-0.2 0.3,-0.4 0.6,-0.4 H 46 c 0.3,0 0.6,0.2 0.6,0.4 z" style="fill:#1e1e1e"/><path id="path3071" d="m 45.3,39.151484 c 0,0.1 -0.3,0.3 -0.6,0.3 H 6.1 c -0.3,0 -0.6,-0.1 -0.6,-0.3 l -0.2,-1.6 c 0,-0.1 0.3,-0.3 0.6,-0.3 h 38.9 c 0.3,0 0.6,0.1 0.6,0.3 z" style="fill:#7a7a7a"/><path id="path3073" d="m 11.3,32.551484 c 0,0.4 -0.3,0.7 -0.6,0.7 H 6.4 c -0.3,0 -0.6,-0.3 -0.6,-0.7 v -2.2 c 0,-0.4 0.3,-0.7 0.6,-0.7 h 4.3 c 0.3,0 0.6,0.3 0.6,0.7 z" style="fill:#e5e5e5"/><path id="path3075" d="m 18.4,32.551484 c 0,0.4 -0.3,0.7 -0.6,0.7 h -4.3 c -0.3,0 -0.6,-0.3 -0.6,-0.7 v -2.2 c 0,-0.4 0.3,-0.7 0.6,-0.7 h 4.3 c 0.3,0 0.6,0.3 0.6,0.7 z" style="fill:#e5e5e5"/><path id="path3077" d="m 28.2,32.051484 c 0,0.1 -0.3,0.3 -0.6,0.3 h -4.3 c -0.3,0 -0.6,-0.1 -0.6,-0.3 v -0.9 c 0,-0.1 0.3,-0.2 0.6,-0.2 h 4.3 c 0.3,0 0.6,0.1 0.6,0.2 z" style="fill:#e5e5e5"/><path id="path3079" d="m 14.1,36.351484 c 0,0.1 -0.2,0.1 -0.6,0.1 H 9.2 c -0.3,0 -0.7,0 -0.7,-0.1 v -0.7 c 0,-0.1 0.3,-0.1 0.7,-0.1 h 4.3 c 0.3,0 0.6,0 0.6,0.1 z" style="fill:#ff8c00"/><path id="path3081" d="m 42.6,36.351484 c 0,0.1 -0.3,0.1 -0.6,0.1 h -4.3 c -0.3,0 -0.6,0 -0.6,-0.1 v -0.7 c 0,-0.1 0.3,-0.1 0.6,-0.1 H 42 c 0.3,0 0.6,0 0.6,0.1 z" style="fill:#ff8c00"/><path id="path3083" d="m 38,32.551484 c 0,0.4 -0.3,0.7 -0.6,0.7 h -4.3 c -0.3,0 -0.6,-0.3 -0.6,-0.7 v -2.2 c 0,-0.4 0.3,-0.7 0.6,-0.7 h 4.3 c 0.3,0 0.6,0.3 0.6,0.7 z" style="fill:#e5e5e5"/><path id="path3085" d="m 44.9,32.551484 c 0,0.4 -0.3,0.7 -0.6,0.7 H 40 c -0.3,0 -0.6,-0.3 -0.6,-0.7 v -2.2 c 0,-0.4 0.3,-0.7 0.6,-0.7 h 4.3 c 0.3,0 0.6,0.3 0.6,0.7 z" style="fill:#e5e5e5"/><g id="g3091" transform="translate(0,-2.0485163)"><g id="g3089"><path id="path3087" d="M 22,17.8 21,13.1 C 20.6,12.5 17.5,7.8 11.4,7.1 4.6,6.4 0.9,11 0.9,11.1 L 0,10.5 C 0.2,10.3 4.1,5.3 11.5,6.1 18.6,6.9 21.9,12.4 22,12.7 l 0.1,0.2 1,4.7 z" style="fill:#1e1e1e"/></g></g><path id="path3093" d="m 21.5,10.851484 c 0,0 -2.3,-4.0000003 -7.2,-5.7000003 0.2,-0.3 0.2,-0.7 0.1,-1.1 L 13.6,0.95148372 c -0.2,-0.7 -0.9,-1.1 -1.5,-0.9 l -0.7,0.3 c -0.6,0.2 -1,0.99999998 -0.8,1.69999998 l 0.4,2.5 c -7,-0.5 -10,3.6 -10,3.6 l 1,2.8000003 9.8,-4.0000003 c 0,0 2.2,0.3 4.2,1.6 1.8,1.1 3.5,3.1000003 3.5,3.1000003 l 1,3.9 h 2.1 z" style="clip-rule:evenodd;fill:#a0a1a2;fill-rule:evenodd"/><path id="path3095" d="m 7.5,7.3514837 c 0,0.4 -3.8,2 -4.1,2 -0.3,0 -0.6,-0.3 -0.6,-0.7 0,-0.4 3.8,-2 4.1,-2 0.4,0 0.6,0.3 0.6,0.7 z" style="clip-rule:evenodd;fill:#1e1e1e;fill-rule:evenodd"/><g id="g3101" transform="translate(0,-2.0485163)"><g id="g3099"><path id="path3097" d="M 28,17.8 26.9,17.6 28,12.7 C 28.1,12.5 31.4,6.9 38.5,6.1 46,5.3 49.8,10.3 50,10.5 l -0.9,0.7 c 0,0 -3.7,-4.7 -10.5,-4 -6.1,0.7 -9.2,5.4 -9.6,6 z" style="fill:#1e1e1e"/></g></g><path id="path3103" d="m 28.5,10.851484 c 0,0 2.3,-4.0000003 7.2,-5.7000003 -0.2,-0.3 -0.2,-0.7 -0.1,-1.1 l 0.8,-3.09999998 c 0.2,-0.7 0.9,-1.1 1.5,-0.9 l 0.7,0.3 c 0.6,0.2 1,0.99999998 0.8,1.69999998 l -0.4,2.5 c 7,-0.5 10,3.6 10,3.6 L 48,10.951484 38.2,6.9514837 c 0,0 -2.2,0.3 -4.2,1.6 -1.8,1.1 -3.5,3.1000003 -3.5,3.1000003 l -1,3.9 h -2.1 z" style="clip-rule:evenodd;fill:#a0a1a2;fill-rule:evenodd"/><path id="path3105" d="m 42.7,7.3514837 c 0,0.4 3.6,1.9 3.9,1.9 0.3,0 0.6,-0.3 0.6,-0.7 0,-0.4 -3.6,-1.9 -3.9,-1.9 -0.3,0.1 -0.6,0.4 -0.6,0.7 z" style="clip-rule:evenodd;fill:#1e1e1e;fill-rule:evenodd"/><path id="path3107" d="m 24.1,23.051484 c 0,0.1 -0.1,0.1 -0.2,0.1 l -9.9,-1.1 c -0.1,0 -0.1,0 -0.1,-0.1 v -0.1 c 0,-0.1 0.1,-0.2 0.2,-0.2 l 9.9,1.1 c 0,0 0.1,0.1 0.1,0.3 z" style="fill:#1e1e1e"/><path id="path3109" d="m 35.4,23.051484 c 0,0.1 -0.1,0.1 -0.2,0.1 l -9.9,-1.1 c -0.1,0 -0.1,0 -0.1,-0.1 v -0.1 c 0,-0.1 0.1,-0.2 0.2,-0.2 l 9.9,1.1 c 0.1,0 0.2,0.1 0.1,0.3 z" style="fill:#1e1e1e"/><path id="path3111" d="m 37.6,16.751484 c 0,0.1 -0.2,0.1 -0.5,0.1 H 13.6 c -0.3,0 -0.5,0 -0.5,-0.1 l 2.5,-1 c 0,-0.1 0.2,-0.1 0.5,-0.1 h 18.5 c 0.3,0 0.5,0 0.5,0.1 z" style="fill:#a0a1a2"/></svg>