<svg xmlns="http://www.w3.org/2000/svg" xmlns:svg="http://www.w3.org/2000/svg" id="Layer_1" width="40" height="40" x="0" y="0" enable-background="new 0 0 50 50" version="1.1" viewBox="0 0 40 40" xml:space="preserve"><metadata id="metadata3243"/><rect id="rect3206" width="8.868" height="8.792" x="0" y="0" style="fill:#b8d432"/><rect id="rect3208" width="8.868" height="8.792" x="10.377" y="0" style="fill:#b8d432"/><rect id="rect3210" width="8.895" height="8.792" x="20.728" y="0" style="fill:#b8d432"/><rect id="rect3212" width="8.868" height="8.792" x="31.132" y="0" style="fill:#b8d432"/><rect id="rect3214" width="8.868" height="8.792" x="0" y="10.402" style="fill:#b8d432"/><rect id="rect3216" width="8.868" height="8.792" x="10.377" y="10.402" style="fill:#b8d432"/><rect id="rect3218" width="8.895" height="8.792" x="20.728" y="10.402" style="fill:#b8d432"/><rect id="rect3220" width="8.868" height="8.792" x="31.132" y="10.402" style="fill:#b8d432"/><rect id="rect3222" width="8.868" height="8.917" x="0" y="20.804" style="fill:#b8d432"/><rect id="rect3224" width="8.868" height="8.917" x="10.377" y="20.804" style="fill:#b8d432"/><rect id="rect3226" width="8.895" height="8.917" x="20.728" y="20.804" style="fill:#b8d432"/><rect id="rect3228" width="8.868" height="8.917" x="31.132" y="20.804" style="fill:#b8d432"/><rect id="rect3230" width="8.868" height="8.792" x="0" y="31.208" style="fill:#b8d432"/><rect id="rect3232" width="8.868" height="8.792" x="10.377" y="31.208" style="fill:#b8d432"/><rect id="rect3234" width="8.895" height="8.792" x="20.728" y="31.208" style="fill:#b8d432"/><rect id="rect3236" width="8.868" height="8.792" x="31.132" y="31.208" style="fill:#b8d432"/></svg>