<svg xmlns="http://www.w3.org/2000/svg" xmlns:svg="http://www.w3.org/2000/svg" id="Layer_1" width="48.062" height="40.839" x="0" y="0" enable-background="new 0 0 50 50" version="1.1" viewBox="0 0 48.062 40.839" xml:space="preserve"><metadata id="metadata3950"/><path id="path3943" d="m 44.454189,2.9391304 c -4.8,-5.2 -14.6,-2.99999997 -20.4,5.1 -7.2,-8.59999997 -15.8000001,-10.3 -20.7000001,-5.1 -5,5.4 -3.69999999,11.6999996 -0.7,16.8999996 l 5.1,-0.1 4.9000001,-0.2 3.7,-9.7999996 c 0.2,-0.6 0.6,-1.7 2.1,-1.7 1.6,0 1.7,1.2 1.7,1.8 l 0.1,16.2999996 2.6,-5.5 c 0.2,-0.5 0.7,-0.8 1.2,-0.8 h 15.6 c 0.7,0 1.3,0.7 1.3,1.4 0,0.7 -0.6,1.7 -1.3,1.7 h -14 l -5,10 c -0.3,1 -0.8,1.3 -1.9,1.2 v 0 c -0.6,-0.1 -1.1,-1 -1.1,-1.6 l -0.2,-15 -1.5,4.1 c -0.1,0.5 -0.6,1.3 -1.1,1.4 h -4.6 -6.2000001 c 6.1000001,8.9 16.6000001,16.4 19.6000001,17.7 v 0.1 0 0 -0.1 c 6,-2.2 34.3,-23.2 20.8,-37.7999996 z" style="fill:#59b4d9"/></svg>