<svg xmlns="http://www.w3.org/2000/svg" xmlns:svg="http://www.w3.org/2000/svg" id="Layer_1" width="45.001" height="38.306" x="0" y="0" enable-background="new 0 0 50 50" version="1.1" viewBox="0 0 45.001 38.306" xml:space="preserve"><metadata id="metadata3884"/><path id="path3875" d="m 41.701114,2.7900673 c -0.8,-0.872 -1.755,-1.513 -2.807,-1.95 -4.855,-2.022 -11.869,0.495 -16.261,6.731 -6.757,-8.151 -14.8349997,-9.681 -19.3309997,-4.781 -8.986,9.7839997 2.267,22.6399997 11.1429997,29.9379997 3.498,2.877 6.627,4.891 8.003,5.514 v 0.064 c 0.012,-0.002 0.038,-0.023 0.047,-0.025 0,0 0.049,0.023 0.066,0.025 v -0.064 c 4.856,-2.202 31.661,-21.81 19.14,-35.4519997" style="fill:#ba141a"/><path id="path3877" d="m 22.632114,7.5720673 c -6.756,-8.151 -14.8319997,-9.683 -19.3299997,-4.78 -8.986,9.7829997 2.268,22.6379997 11.1429997,29.9369997 l 24.449,-31.8879997 c -4.856,-2.022 -11.869,0.495 -16.262,6.731" enable-background="new" style="opacity:.2;fill:#fff"/></svg>