<svg xmlns="http://www.w3.org/2000/svg" xmlns:svg="http://www.w3.org/2000/svg" id="Layer_1" width="50" height="32.9" x="0" y="0" enable-background="new 0 0 50 50" version="1.1" viewBox="0 0 50 32.9" xml:space="preserve"><metadata id="metadata4108"/><path id="path4095" d="m 37,13.5 h 10.3 c 1.5,0 2.7,1.2 2.7,2.7 0,1.5 -1.2,2.7 -2.7,2.7 H 37 c -1.5,0 -2.7,-1.2 -2.7,-2.7 -0.1,-1.5 1.2,-2.7 2.7,-2.7 z" style="fill:#59b4d9"/><path id="path4097" d="m 2.7,13.5 h 7.7 c 1.5,0 2.7,1.2 2.7,2.7 0,1.5 -1.2,2.7 -2.7,2.7 H 2.7 C 1.2,18.9 0,17.7 0,16.2 0,14.7 1.2,13.5 2.7,13.5 Z" style="fill:#59b4d9"/><path id="path4099" d="m 23,0 c 4.4,0 8.5,1.7 11.7,4.8 6.4,6.4 6.4,16.9 0,23.3 -3.1,3.1 -7.3,4.8 -11.7,4.8 -4.4,0 -8.5,-1.7 -11.7,-4.8 -1.1,-1.1 -1.1,-2.8 0,-3.9 1.1,-1.1 2.8,-1.1 3.9,0 2.1,2.1 4.8,3.3 7.8,3.3 3,0 5.7,-1.1 7.8,-3.2 C 35.1,20 35.1,13 30.8,8.8 28.7,6.7 25.9,5.5 23,5.5 20.1,5.5 17.3,6.6 15.2,8.7 14.1,9.8 12.4,9.8 11.3,8.7 10.2,7.6 10.2,5.9 11.3,4.8 14.4,1.7 18.6,0 23,0 Z" style="fill:#0072c6"/><circle id="circle4101" cx="22.8" cy="16.5" r="6" style="fill:#7fba00"/></svg>