<svg xmlns="http://www.w3.org/2000/svg" xmlns:svg="http://www.w3.org/2000/svg" id="Layer_1" width="50" height="39" x="0" y="0" enable-background="new 0 0 50 50" version="1.1" viewBox="0 0 50 39" xml:space="preserve"><metadata id="metadata4275"/><rect id="rect4254" width="50" height="39" x="0" y="0" style="fill:#7a7a7a"/><rect id="rect4256" width="45.7" height="34.8" x="2.2" y="2.2" style="fill:#59b4d9"/><rect id="rect4258" width="45.7" height="34.8" x="2.2" y="2.2" style="fill:#59b4d9"/><path id="path4260" d="M 47.8,22.3 44.5,19 c -1.3,-1.3 -3.4,-1.3 -4.8,0 L 21.9,37 h 26 V 22.3 Z" style="fill:#b8d432"/><path id="path4262" d="M 47.8,22.3 44.5,19 c -1.3,-1.3 -3.4,-1.3 -4.8,0 L 21.9,37 h 26 V 22.3 Z" style="opacity:.25;fill:#fff"/><path id="path4264" d="m 43.1,37 -14,-14 c -1,-1 -2.7,-1 -3.7,0 l -14,14 z" style="fill:#7fba00"/><path id="path4266" d="m 43.1,37 -14,-14 c -1,-1 -2.7,-1 -3.7,0 l -14,14 z" style="opacity:.25;fill:#fff"/><path id="path4268" d="m 27.6,17.3 c 0,-1.4 -1.1,-2.5 -2.4,-2.5 -0.1,0 -0.2,0 -0.3,0 0.1,-0.6 0.2,-1.1 0.2,-1.7 0,-3.6 -2.9,-6.6 -6.5,-6.6 -2.9,0 -5.3,1.9 -6.2,4.5 -0.5,-0.2 -0.9,-0.3 -1.5,-0.3 -2.5,0 -4.4,2 -4.4,4.5 0,2.5 2,4.5 4.4,4.5 0,0 0,0 0,0 v 0 h 14.4 v 0 c 1.3,-0.1 2.3,-1.1 2.3,-2.4" style="opacity:.62999998;fill:#fff"/></svg>