<svg xmlns="http://www.w3.org/2000/svg" xmlns:svg="http://www.w3.org/2000/svg" id="Layer_1" width="44.494" height="44.493" x="0" y="0" enable-background="new 0 0 50 50" version="1.1" viewBox="0 0 44.494 44.493" xml:space="preserve"><metadata id="metadata4607"/><path id="path4600" d="M 22.247,0 C 9.96,0 0,9.96 0,22.247 0,34.534 9.96,44.493 22.247,44.493 34.534,44.493 44.494,34.534 44.494,22.247 44.494,9.961 34.533,0 22.247,0 Z m -1.543,7.913 c 0.652,-0.659 1.441,-0.989 2.369,-0.989 0.94,0 1.737,0.33 2.39,0.989 0.651,0.659 0.976,1.451 0.976,2.378 0,0.927 -0.329,1.717 -0.987,2.369 -0.659,0.651 -1.453,0.977 -2.379,0.977 -0.928,0 -1.717,-0.326 -2.369,-0.977 -0.652,-0.652 -0.978,-1.442 -0.978,-2.369 0,-0.927 0.326,-1.719 0.978,-2.378 z m 7.865,29.165 H 17.597 v -0.782 c 0.898,-0.029 1.564,-0.29 1.999,-0.782 0.289,-0.333 0.434,-1.217 0.434,-2.651 V 21.001 c 0,-1.433 -0.166,-2.349 -0.498,-2.748 -0.334,-0.398 -0.979,-0.627 -1.935,-0.684 v -0.804 h 8.517 v 16.098 c 0,1.434 0.166,2.35 0.499,2.749 0.333,0.398 0.985,0.626 1.956,0.684 z" style="fill:#59b4d9"/></svg>