<svg xmlns="http://www.w3.org/2000/svg" xmlns:svg="http://www.w3.org/2000/svg" id="Layer_1" width="50" height="32.889" x="0" y="0" enable-background="new 0 0 50 50" version="1.1" viewBox="0 0 50 32.889" xml:space="preserve"><metadata id="metadata4725"/><polygon id="polygon4712" points="16.789 18.256 23.333 24.978 16.822 31.667 12.844 31.667 17.7 26.511 0 26.511 0 23.411 17.7 23.411 12.811 18.256" transform="translate(0,-8)" style="fill:#804998"/><polygon id="polygon4714" points="43.456 18.256 50 24.978 43.489 31.667 39.511 31.667 44.367 26.511 26.667 26.511 26.667 23.411 44.367 23.411 39.478 18.256" transform="translate(0,-8)" style="fill:#59b4d9"/><polygon id="polygon4716" points="5.556 30.556 10 30.556 10 36.444 32.222 36.444 32.222 30.556 36.667 30.556 36.667 40.889 5.556 40.889" transform="translate(0,-8)" style="fill:#a0a1a2"/><polygon id="polygon4718" points="32.222 12.444 10 12.444 10 19.444 5.556 19.444 5.556 8 36.667 8 36.667 19.444 32.222 19.444" transform="translate(0,-8)" style="fill:#a0a1a2"/></svg>