<svg xmlns="http://www.w3.org/2000/svg" xmlns:svg="http://www.w3.org/2000/svg" id="Layer_1" width="31.003" height="50.001" x="0" y="0" enable-background="new 0 0 50 50" version="1.1" viewBox="0 0 31.003 50.001" xml:space="preserve"><metadata id="metadata5040"/><path id="path5027" d="m 29.33675,19.5245 c 2.222,-2.22 2.222,-5.824 0,-8.045 l -9.812,-9.813 c -2.222,-2.222 -5.824,-2.222 -8.046,0 l -9.813,9.813 c -2.221,2.221 -2.221,5.825 0,8.045 l 8.633,8.633 v 16.641 l 5.202,5.202 4.519,-4.519 v -0.033 l 2.652,-2.653 -2.629,-2.629 2.629,-2.629 -2.629,-2.629 2.629,-2.629 -2.652,-2.653 v -0.784 z m -13.835,-15.486 c 1.783,0 3.229,1.446 3.229,3.229 0,1.784 -1.446,3.229 -3.229,3.229 -1.783,0 -3.229,-1.445 -3.229,-3.229 0,-1.784 1.446,-3.229 3.229,-3.229 z" style="fill:#fcd116"/><polygon id="polygon5029" points="24.758 30.008 22.728 29.008 22.728 43.961 24.758 45.961" enable-background="new" transform="translate(-10.00025,-5e-4)" style="opacity:.4;fill:#ff8c00"/><rect id="rect5031" width="18.64" height="2.679" x="5.868" y="13.617" enable-background="new" style="opacity:.5;fill:#fff"/><rect id="rect5033" width="18.64" height="2.679" x="5.868" y="17.976" enable-background="new" style="opacity:.5;fill:#fff"/></svg>