<svg xmlns="http://www.w3.org/2000/svg" xmlns:svg="http://www.w3.org/2000/svg" id="Layer_1" width="50" height="30.3" x="0" y="0" enable-background="new 0 0 50 50" version="1.1" viewBox="0 0 50 30.3" xml:space="preserve"><metadata id="metadata5157"/><polygon id="polygon5126" points="6.2 11.9 26.7 11.9 50 11.9 50 34.6 6.2 34.6" transform="translate(0,-11.9)" style="fill:#7a7a7a"/><rect id="rect5128" width="35.7" height="3.8" x="10.3" y="3.8" style="opacity:.6;fill:#e5e5e5"/><rect id="rect5130" width="4.5" height="3.8" x="41.3" y="9.7" style="opacity:.6;fill:#e5e5e5"/><rect id="rect5132" width="22.3" height="3.8" x="16.8" y="9.7" style="opacity:.6;fill:#e5e5e5"/><rect id="rect5134" width="16.5" height="3.8" x="19.8" y="15.8" style="opacity:.6;fill:#e5e5e5"/><rect id="rect5136" width="7.3" height="3.8" x="38.7" y="15.8" style="opacity:.6;fill:#e5e5e5"/><rect id="rect5138" width="7.3" height="3.8" x="10.3" y="15.8" style="opacity:.6;fill:#e5e5e5"/><rect id="rect5140" width="4.3" height="3.8" x="10.3" y="9.7" style="opacity:.6;fill:#e5e5e5"/><polygon id="polygon5142" points="26.7 11.9 50 11.9 6.2 34.6 6.2 11.9" enable-background="new" transform="translate(0,-11.9)" style="opacity:.25;fill:#fff"/><g id="g5148" transform="translate(0,-11.9)"><rect id="rect5144" width="15.2" height="15.2" x=".8" y="26.2" style="fill:#7fba00"/><path id="path5146" d="M 15.2,27.1 V 40.6 H 1.7 V 27.1 h 13.5 m 1.6,-1.7 H 0 v 16.8 h 16.8 z" style="fill:#fff"/></g><polygon id="polygon5150" points="12.5 36.4 5.8 29.6 12.5 29.6" transform="translate(0,-11.9)" style="fill:#fff"/></svg>