<svg xmlns="http://www.w3.org/2000/svg" xmlns:svg="http://www.w3.org/2000/svg" id="Layer_1" width="40.933" height="50" x="0" y="0" enable-background="new 0 0 50 50" version="1.1" viewBox="0 0 40.933 50" xml:space="preserve"><metadata id="metadata5267"/><path id="path5236" d="m 9.5,14.8 25.6,25.6 c 4,4 3.8,9.5 3.8,9.5 0,0 -5.9,-0.2 -9.5,-3.8 L 3.8,20.5 Z" style="fill:#afafaf"/><path id="path5238" d="m 40.7,0.2 c -0.4,1.4 -1.5,2.6 -3,3.1 -0.4,0.1 -0.9,0.2 -1.3,0.2 L 33.9,2.8 31.7,2.2 31.2,2.1 c -0.7,-0.2 -1.5,0.2 -1.7,1 -0.2,0.7 0.2,1.5 1,1.7 l 4.2,1.1 0.9,0.2 c 0.7,0.1 1.5,0.1 2.2,-0.2 0.6,-0.2 1.1,-0.5 1.6,-0.9 1.3,-1.1 1.9,-3 1.3,-4.8 z" style="fill:#999"/><path id="path5240" d="m 33.1,11.9 c -0.7,0.2 -1.5,-0.2 -1.7,-1 L 29.5,3.8 c -0.2,-0.7 0.2,-1.5 1,-1.7 v 0 c 0.7,-0.2 1.5,0.2 1.7,1 l 1.9,7.1 c 0.2,0.7 -0.3,1.5 -1,1.7 z" style="fill:#e5e5e5"/><path id="path5242" d="M 24.2,8.3 C 24,9 24.4,9.8 25.2,10 l 7.1,1.9 c 0.7,0.2 1.5,-0.2 1.7,-1 v 0 C 34.2,10.2 33.8,9.4 33,9.2 L 25.9,7.3 c -0.7,-0.2 -1.5,0.3 -1.7,1 z" style="fill:#999"/><path id="path5244" d="m 27.8,17.1 c -0.7,0.2 -1.5,-0.2 -1.7,-1 L 24.2,9 C 24,8.3 24.4,7.5 25.2,7.3 v 0 c 0.7,-0.2 1.5,0.2 1.7,1 l 1.9,7.1 c 0.2,0.8 -0.2,1.5 -1,1.7 z" style="fill:#e5e5e5"/><path id="path5246" d="m 19,13.5 c -0.2,0.7 0.2,1.5 1,1.7 l 7.1,1.9 c 0.7,0.2 1.5,-0.2 1.7,-1 v 0 c 0.2,-0.7 -0.2,-1.5 -1,-1.7 l -7.1,-1.9 c -0.7,-0.1 -1.5,0.3 -1.7,1 z" style="fill:#999"/><path id="path5248" d="m 22.6,22.4 c -0.7,0.2 -1.5,-0.2 -1.7,-1 L 19,14.3 c -0.2,-0.7 0.2,-1.5 1,-1.7 v 0 c 0.7,-0.2 1.5,0.2 1.7,1 l 1.9,7.1 c 0.2,0.7 -0.3,1.5 -1,1.7 z" style="fill:#e5e5e5"/><path id="path5250" d="m 13.7,18.8 c -0.2,0.7 0.2,1.5 1,1.7 l 7.1,1.9 c 0.7,0.2 1.5,-0.2 1.7,-1 v 0 c 0.2,-0.7 -0.2,-1.5 -1,-1.7 l -7.1,-1.9 c -0.7,-0.2 -1.5,0.2 -1.7,1 z" style="fill:#999"/><path id="path5252" d="m 17.4,27.6 c -0.7,0.2 -1.5,-0.2 -1.7,-1 l -1.9,-7.1 c -0.2,-0.7 0.2,-1.5 1,-1.7 v 0 c 0.7,-0.2 1.5,0.2 1.7,1 l 1.9,7.1 c 0.2,0.8 -0.3,1.5 -1,1.7 z" style="fill:#e5e5e5"/><path id="path5254" d="m 8.5,24 c -0.2,0.7 0.2,1.5 1,1.7 l 7.1,1.9 c 0.7,0.2 1.5,-0.2 1.7,-1 v 0 c 0.2,-0.7 -0.2,-1.5 -1,-1.7 L 10.2,23 C 9.5,22.8 8.7,23.3 8.5,24 Z" style="fill:#999"/><path id="path5256" d="m 14.8,42.6 c 0,4.1 -3.3,7.4 -7.4,7.4 v 0 C 3.3,50 0,46.7 0,42.6 V 7.4 C 0,3.3 3.3,0 7.4,0 v 0 c 4.1,0 7.4,3.3 7.4,7.4 z" style="fill:#0072c6"/><path id="path5258" d="M 0,32.6 V 7.4 C 0,3.3 3.3,0 7.4,0 v 0 c 4.1,0 7.4,3.3 7.4,7.4 v 12.2 z" style="opacity:.1;fill:#fff"/><path id="path5260" d="m 12.4,27.7 c 0,-0.6 -0.5,-1.2 -1.2,-1.2 0,0 -0.1,0 -0.1,0 0.1,-0.3 0.1,-0.5 0.1,-0.8 0,-1.7 -1.4,-3.1 -3.1,-3.1 -1.4,0 -2.5,0.9 -2.9,2.1 C 5,24.6 4.8,24.6 4.5,24.6 c -1.2,0 -2.1,1 -2.1,2.1 0,1.2 0.9,2.1 2.1,2.1 0,0 0,0 0,0 v 0 h 6.8 v 0 c 0.6,0 1.1,-0.5 1.1,-1.1" style="fill:#fff"/></svg>