<svg xmlns="http://www.w3.org/2000/svg" xmlns:svg="http://www.w3.org/2000/svg" id="Layer_1" width="29.9" height="50" x="0" y="0" enable-background="new 0 0 50 50" version="1.1" viewBox="0 0 29.9 50" xml:space="preserve"><metadata id="metadata5461"/><path id="path5436" d="m 29.9,47.5 c 0,1.4 -1.1,2.5 -2.5,2.5 H 2.5 C 1.1,50 0,48.9 0,47.5 V 2.5 C 0,1.1 1.1,0 2.5,0 h 24.9 c 1.4,0 2.5,1.1 2.5,2.5 z" style="fill:#a0a1a2"/><rect id="rect5438" width="6" height="7" x="4" y="5" style="fill:#7a7a7a"/><rect id="rect5440" width="6" height="7" x="12" y="5" style="fill:#7a7a7a"/><rect id="rect5442" width="6" height="7" x="20" y="5" style="fill:#7a7a7a"/><rect id="rect5444" width="6" height="7" x="4" y="16" style="fill:#7a7a7a"/><rect id="rect5446" width="6" height="7" x="12" y="16" style="fill:#7a7a7a"/><rect id="rect5448" width="6" height="7" x="20" y="16" style="fill:#7a7a7a"/><rect id="rect5450" width="6" height="7" x="4" y="27" style="fill:#7a7a7a"/><rect id="rect5452" width="6" height="7" x="12" y="27" style="fill:#7a7a7a"/><rect id="rect5454" width="6" height="7" x="20" y="27" style="fill:#7a7a7a"/></svg>