<svg xmlns="http://www.w3.org/2000/svg" xmlns:svg="http://www.w3.org/2000/svg" id="Layer_1" width="44.992" height="50" x="0" y="0" enable-background="new -10.5 -9.5 50 50" version="1.1" viewBox="-10.5 -9.5 44.992 50" xml:space="preserve"><metadata id="metadata5727"/><path id="path5714" d="m 32.492,35.865 h 2 V -9.5 H -3.841 -6.508 c -1.293,0.167 -3.992,3.3 -3.992,3.751 0,0.187 0.059,43.882 0.059,43.882 0,1.307 1.06,2.367 2.368,2.367 h 37.565 v -0.729 z" style="fill:#0072c6"/><path id="path5716" d="m -4.726,-7.5 c -1.105,0 -1.58,0.185 -2.507,1 -2.275,2 0.39,2 1.495,2 h 35.23 v 44.271 l 3,-3.906 V -7.5 Z" style="fill:#e5e5e5"/><polygon id="polygon5718" points="34.492 -7.5 31.492 -4.5 31.492 39.771 34.492 35.865" enable-background="new" transform="translate(-2)" style="opacity:.5;fill:#a0a1a2"/><path id="path5720" d="m 20.492,10.5 c 0,1.105 -0.895,2 -2,2 h -17 c -1.105,0 -2,-0.895 -2,-2 v -5 c 0,-1.105 0.895,-2 2,-2 h 17 c 1.105,0 2,0.895 2,2 z" style="fill:#fff"/></svg>