<svg xmlns="http://www.w3.org/2000/svg" xmlns:svg="http://www.w3.org/2000/svg" id="Layer_1" width="44.992" height="50" x="0" y="0" enable-background="new -10.5 -9.5 50 50" version="1.1" viewBox="-10.5 -9.5 44.992 50" xml:space="preserve"><metadata id="metadata5792"/><path id="path5777" d="m 32.492,35.865 h 2 V -9.5 H -3.841 -6.508 c -1.293,0.167 -3.992,3.3 -3.992,3.751 0,0.187 0.059,43.882 0.059,43.882 0,1.307 1.06,2.367 2.368,2.367 h 37.565 v -0.729 z" style="fill:#7fba00"/><path id="path5779" d="m -4.726,-7.5 c -1.105,0 -1.58,0.185 -2.507,1 -2.275,2 0.39,2 1.495,2 h 35.23 v 44.271 l 3,-3.906 V -7.5 Z" style="fill:#e5e5e5"/><polygon id="polygon5781" points="34.492 -7.5 31.492 -4.5 31.492 39.771 34.492 35.865" enable-background="new" transform="translate(-2)" style="opacity:.5;fill:#a0a1a2"/><g id="g5785" transform="translate(-2)"><path id="path5783" d="M 15.417,29.203 11.115,11.622 8.874,17.698 H 0.492 c -0.828,0 -1.5,-0.671 -1.5,-1.5 0,-0.829 0.672,-1.5 1.5,-1.5 h 6.29 l 4.915,-13.32 4.507,18.419 2.197,-5.099 h 7.091 c 0.828,0 1.5,0.671 1.5,1.5 0,0.829 -0.672,1.5 -1.5,1.5 h -5.116 z" style="fill:#fff"/></g></svg>