<svg xmlns="http://www.w3.org/2000/svg" xmlns:svg="http://www.w3.org/2000/svg" id="Layer_1" width="49.017" height="50" x="0" y="0" enable-background="new 0 0 50 50" version="1.1" viewBox="0 0 49.017 50" xml:space="preserve"><metadata id="metadata17"/><path id="path3" d="M 48.28808,44.623 32.72008,17.659 32.72008,6.743 33.00108,6.743 C 34.86308,6.743 36.37308,5.233 36.37308,3.371 36.37308,1.509 34.86308,0 33.00108,0 L 16.01608,0 C 14.15408,0 12.64408,1.51 12.64408,3.372 12.64408,5.234 14.15408,6.744 16.01608,6.744 L 16.29708,6.744 16.29708,17.659 0.72907993,44.623 C -0.97892007,47.58 0.41807993,50 3.8330799,50 L 45.18408,50 C 48.59808,50 49.99508,47.58 48.28808,44.623 Z" style="fill:#59b4d9"/><polygon id="polygon5" points="35.466 33.017 13.551 33.017 7.127 44.143 41.889 44.143" transform="translate(7.9934474e-5,0)" style="fill:#b8d432"/><path id="path7" d="M 25.33408,37.532 C 27.06908,37.532 28.47508,36.126 28.47508,34.391 28.47508,33.898 28.35808,33.433 28.15508,33.017 L 22.51208,33.017 C 22.30908,33.432 22.19208,33.897 22.19208,34.391 22.19308,36.126 23.59908,37.532 25.33408,37.532 Z" style="fill:#7fba00"/><circle id="circle9" cx="29.232" cy="39.956" r="1.541" style="fill:#7fba00"/><path id="path11" d="M 0.72907993,44.623 16.29708,17.658 16.29708,6.743 16.01608,6.743 C 14.15408,6.743 12.64408,5.233 12.64408,3.371 12.64408,1.509 14.15308,0 16.01608,0 L 23.33508,0 23.33508,17.572 15.13008,50 3.8330799,50 C 0.41807993,50 -0.97892007,47.58 0.72907993,44.623 Z" style="opacity:.25;fill:#fff"/></svg>