<svg xmlns="http://www.w3.org/2000/svg" xmlns:svg="http://www.w3.org/2000/svg" id="Layer_1" width="23.525" height="24" x="0" y="0" enable-background="new 0 0 24 24" version="1.1" viewBox="0 0 23.525 24" xml:space="preserve"><metadata id="metadata17"/><path id="path3" d="M 11.525227,8 4.5252273,8 4.5252273,9 5.5252273,9 5.5252273,12.969 0.24522727,22.224 C -0.33077273,23.184 0.14922727,24 1.2532273,24 L 14.741227,24 C 15.893227,24 16.325227,23.232 15.749227,22.224 L 10.525227,12.969 10.525227,9 11.525227,9 11.525227,8 11.525227,8 Z" style="fill:#59b4d9"/><path id="path5" d="M 11.652227,17 4.3762273,17 1.1132273,22.72 C 1.0412273,22.84 1.0152273,22.921 1.0052273,22.966 1.0482273,22.981 1.1262273,23 1.2532273,23 L 14.741227,23 C 14.855227,23 14.937227,22.988 14.991227,22.975 14.976227,22.917 14.944227,22.832 14.881227,22.721 L 11.652227,17 Z" style="fill:#0072c6"/><path id="path7" d="M 4.5252273,9 5.5252273,9 5.5252273,12.969 0.24522727,22.224 C -0.33077273,23.184 0.14922727,24 1.2532273,24 L 2.7072273,24 6.5252273,17 8.5252273,13.333 8.5252273,8 4.5252273,8 4.5252273,9 Z" enable-background="new" style="opacity:.25;fill:#ecf0f1"/><path id="path9" d="M 3.2522273,23 6.5252273,17 4.3762273,17 1.1132273,22.72 C 1.0412273,22.84 1.0152273,22.921 1.0052273,22.966 1.0482273,22.981 1.1262273,23 1.2532273,23 L 3.2522273,23 Z" enable-background="new" style="opacity:.25;fill:#ecf0f1"/><path id="path11" d="M 10.525227,6 8.5252273,6 8.5252273,4 10.525227,4 10.525227,6 Z M 10.525227,3 8.5252273,3 8.5252273,1 10.525227,1 10.525227,3 Z M 13.525227,6 11.525227,6 11.525227,4 13.525227,4 13.525227,6 Z M 13.525227,3 11.525227,3 11.525227,1 13.525227,1 13.525227,3 Z M 16.525227,12 14.525227,12 14.525227,10 16.525227,10 16.525227,12 Z M 16.525227,9 14.525227,9 14.525227,7 16.525227,7 16.525227,9 Z M 16.525227,6 14.525227,6 14.525227,4 16.525227,4 16.525227,6 Z M 16.525227,3 14.525227,3 14.525227,1 16.525227,1 16.525227,3 Z M 19.525227,12 17.525227,12 17.525227,10 19.525227,10 19.525227,12 Z M 19.525227,9 17.525227,9 17.525227,7 19.525227,7 19.525227,9 Z M 19.525227,6 17.525227,6 17.525227,4 19.525227,4 19.525227,6 Z M 19.525227,3 17.525227,3 17.525227,1 19.525227,1 19.525227,3 Z M 20.525227,13 22.525227,13 23.525227,13 23.525227,0 7.5252273,0 7.5252273,7 8.5252273,7 10.525227,7 11.525227,7 12.525227,7 13.525227,7 13.525227,9 12.525227,9 12.525227,10 13.525227,10 13.525227,12 11.525227,12 11.525227,12.707 11.691227,13 13.525227,13 20.525227,13 Z M 22.525227,12 20.525227,12 20.525227,10 22.525227,10 22.525227,12 Z M 22.525227,9 20.525227,9 20.525227,7 22.525227,7 22.525227,9 Z M 22.525227,6 20.525227,6 20.525227,4 22.525227,4 22.525227,6 Z M 22.525227,3 20.525227,3 20.525227,1 22.525227,1 22.525227,3 Z" style="fill:#a0a1a2"/></svg>