<svg xmlns="http://www.w3.org/2000/svg" xmlns:svg="http://www.w3.org/2000/svg" id="Layer_1" width="50" height="42.6" x="0" y="0" enable-background="new 0 0 50 50" version="1.1" viewBox="0 0 50 42.6" xml:space="preserve"><metadata id="metadata25"/><path id="path3" d="M 0,40.6 C 0,41.7 0.9,42.6 2,42.6 L 48,42.6 C 49.1,42.6 50,41.7 50,40.6 L 50,6.3 0,6.3 0,40.6 Z" style="fill:#1e1e1e"/><path id="path5" d="M 0,40.6 C 0,41.7 0.9,42.6 2,42.6 L 48,42.6 C 49.1,42.6 50,41.7 50,40.6 L 50,6 0,6 0,40.6 Z" style="opacity:.25;fill:#0072c6"/><path id="path7" d="M 48,0 2,0 C 0.9,0 0,0.9 0,2 L 0,8 50,8 50,2 C 50,0.9 49.1,0 48,0" style="fill:#a0a1a2"/><rect id="rect9" width="38" height="26" x="12" y="12" style="fill:#e5e5e5"/><rect id="rect11" width="12" height="26" x="0" y="12" style="fill:#59b4d9"/><g id="g13" transform="translate(0,-3.7)" style="opacity:.2"><g id="g15"><g id="g17"><path id="path19" d="M 2,3.7 C 0.9,3.7 0,4.6 0,5.7 L 0,13 0,16.3 0,44.3 C 0,45.4 0.9,46.3 2,46.3 L 4.2,46.3 43.6,3.7 2,3.7 Z" style="fill:#fff"/></g></g></g></svg>