<svg xmlns="http://www.w3.org/2000/svg" xmlns:svg="http://www.w3.org/2000/svg" id="Layer_1" width="21" height="24" x="0" y="0" enable-background="new 0 0 24 24" version="1.1" viewBox="0 0 21 24" xml:space="preserve"><metadata id="metadata29"/><path id="path3" d="M 2.5,23 C 2.224,23 2,22.776 2,22.5 2,22.224 2.224,22 2.5,22 L 21,22 21,0 3,0 C 1.895,0 1,0.895 1,2 L 1,22.5 C 1,23.328 1.672,24 2.5,24 L 21,24 21,23 2.5,23 Z" style="fill:#0072c6"/><path id="path5" d="M 1,22.5 C 1,23.328 1.672,24 2.5,24 L 21,24 21,23 2.5,23 C 2.224,23 2,22.776 2,22.5 2,22.224 2.224,22 2.5,22 L 21,22 21,21 2.5,21 C 1.672,21 1,21.672 1,22.5 Z" style="opacity:.5;fill:#000c82"/><path id="path7" d="M 2.5,23 C 2.224,23 2,22.776 2,22.5 2,22.224 2.224,22 2.5,22 L 21,22 C 20.724,22 20.5,22.224 20.5,22.5 20.5,22.776 20.724,23 21,23 L 2.5,23 Z" style="fill:#a0a1a2"/><rect id="rect9" width="3" height="1" x="0" y="3" style="fill:#a0a1a2"/><rect id="rect11" width="3" height="1" x="0" y="7" style="fill:#a0a1a2"/><rect id="rect13" width="3" height="1" x="0" y="11" style="fill:#a0a1a2"/><rect id="rect15" width="3" height="1" x="0" y="15" style="fill:#a0a1a2"/><rect id="rect17" width="3" height="1" x="0" y="19" style="fill:#a0a1a2"/><polygon id="polygon19" points="12 10.141 9 8.641 9 12.86 12 14.352" transform="translate(-1,0)" style="fill:#fff"/><polygon id="polygon21" points="12.5 9.273 15.383 7.836 12.5 6.398 9.617 7.836" transform="translate(-1,0)" style="fill:#fff"/><polygon id="polygon23" points="13 10.141 13 14.352 16 12.86 16 8.641" transform="translate(-1,0)" style="fill:#fff"/></svg>