<svg xmlns="http://www.w3.org/2000/svg" xmlns:svg="http://www.w3.org/2000/svg" id="Layer_1" width="43.301" height="50" x="0" y="0" enable-background="new 0 0 50 50" version="1.1" viewBox="0 0 43.301 50" xml:space="preserve"><metadata id="metadata19"/><polygon id="polygon3" points="24.65 0 46.301 12.5 46.301 37.5 24.65 50 3 37.5 3 12.5" transform="translate(-3,0)" style="fill:#3e3e3e"/><path id="path5" d="M 21.651,50 43.3,37.5 43.3,12.5 C 43.3,12.5 25.413,26.12 21.651,50" enable-background="new" style="opacity:.2;fill:#fff"/><path id="path7" d="M 31.172,14.958 C 25.622,9.432 16.654,9.432 11.098,14.958 5.549,20.507 5.549,29.493 11.098,35.042 16.647,40.567 25.622,40.567 31.172,35.042 36.715,29.497 36.715,20.511 31.172,14.958" style="fill:#fff"/><path id="path9" d="M 29.227,16.903 C 24.753,12.447 17.522,12.447 13.042,16.903 8.569,21.377 8.569,28.622 13.042,33.095 17.517,37.551 24.753,37.551 29.227,33.095 33.697,28.626 33.697,21.38 29.227,16.903" style="fill:#59b4d9"/><polygon id="polygon11" points="30.986 25.015 31.029 24.986 20.127 17.816 20.127 25.015" transform="translate(-3,0)" style="fill:#fff"/><polygon id="polygon13" points="30.986 25.015 20.127 25.015 20.127 32.213" enable-background="new" transform="translate(-3,0)" style="opacity:.8;fill:#fff"/></svg>