<svg xmlns="http://www.w3.org/2000/svg" xmlns:svg="http://www.w3.org/2000/svg" id="Layer_1" width="44" height="50" x="0" y="0" enable-background="new 0 0 50 50" version="1.1" viewBox="0 0 44 50" xml:space="preserve"><metadata id="metadata6346"/><polygon id="polygon6327" points="38.239 0 38 0 3 0 3 50 47 50 47 9 47 8.761 45 6.761 40.239 2" transform="translate(-3)" style="fill:#59b4d9"/><polygon id="polygon6329" points="5 48 45 48 45 9 38 9 38 2 5 2" transform="translate(-3)" style="opacity:.8;fill:#fff"/><path id="path6331" d="m 35.857,24.738 c 0,0.618 -0.501,1.119 -1.119,1.119 H 19.637 c -0.618,0 -1.119,-0.501 -1.119,-1.119 0,-0.618 0.501,-1.119 1.119,-1.119 h 15.101 c 0.618,0 1.119,0.501 1.119,1.119" style="fill:#59b4d9"/><polygon id="polygon6333" points="11.509 26.485 11.509 11.203 24.765 18.844" transform="translate(-3)" style="fill:#59b4d9"/><path id="path6335" d="m 35.857,29.89 c 0,0.618 -0.501,1.118 -1.119,1.118 H 9.628 c -0.617,0 -1.118,-0.5 -1.118,-1.118 0,-0.618 0.501,-1.119 1.118,-1.119 h 25.11 c 0.618,0 1.119,0.501 1.119,1.119" style="fill:#59b4d9"/><path id="path6337" d="m 35.857,35.042 c 0,0.618 -0.501,1.119 -1.119,1.119 H 9.628 c -0.617,0 -1.118,-0.501 -1.118,-1.119 0,-0.617 0.501,-1.119 1.118,-1.119 h 25.11 c 0.618,0 1.119,0.502 1.119,1.119" style="fill:#59b4d9"/><path id="path6339" d="m 35.857,40.194 c 0,0.618 -0.501,1.119 -1.119,1.119 H 9.628 c -0.617,0 -1.118,-0.501 -1.118,-1.119 0,-0.618 0.501,-1.119 1.118,-1.119 h 25.11 c 0.618,0 1.119,0.501 1.119,1.119" style="fill:#59b4d9"/></svg>