<svg xmlns="http://www.w3.org/2000/svg" xmlns:svg="http://www.w3.org/2000/svg" id="Layer_1" width="34.4" height="50" x="0" y="0" enable-background="new 0 0 50 50" version="1.1" viewBox="0 0 34.4 50" xml:space="preserve"><metadata id="metadata29"/><path id="path3" d="M 34.4,47 C 34.4,48.7 33.1,50 31.4,50 L 3,50 C 1.3,50 0,48.7 0,47 L 0,3 C 0,1.3 1.3,0 3,0 L 31.4,0 C 33.1,0 34.4,1.3 34.4,3 L 34.4,47 Z" style="fill:#3e3e3e"/><rect id="rect5" width="30" height="35.2" x="2.2" y="5" style="fill:#59b4d9"/><path id="path7" d="M 20.1,45.1 C 20.1,46.7 18.8,48 17.2,48 15.6,48 14.3,46.7 14.3,45.1 14.3,43.5 15.6,42.2 17.2,42.2 18.8,42.2 20.1,43.5 20.1,45.1" style="fill:#fff"/><path id="path9" d="M 19.1,45.1 C 19.1,46.1 18.3,47 17.2,47 16.2,47 15.3,46.2 15.3,45.1 15.3,44 16.1,43.2 17.2,43.2 18.3,43.2 19.1,44.1 19.1,45.1" style="fill:#b8d432"/><path id="path11" d="M 2.2,40.2 2.2,5 25,5 27,0 3,0 C 1.3,0 0,1.3 0,3 L 0,47 C 0,48.7 1.3,50 3,50 L 6.7,50 10.7,40.2 2.2,40.2 Z" enable-background="new" style="opacity:.15;fill:#fff"/><path id="path13" d="M 22.3,2.8 C 22.3,3.2 22,3.5 21.6,3.5 L 12.9,3.5 C 12.5,3.5 12.2,3.2 12.2,2.8 12.2,2.4 12.5,2.1 12.9,2.1 L 21.6,2.1 C 22,2.1 22.3,2.4 22.3,2.8" style="fill:#1e1e1e"/><path id="path15" d="M 22.3,2.8 C 22.3,3.2 22,3.5 21.6,3.5 L 12.9,3.5 C 12.5,3.5 12.2,3.2 12.2,2.8 12.2,2.4 12.5,2.1 12.9,2.1 L 21.6,2.1 C 22,2.1 22.3,2.4 22.3,2.8" style="fill:#fff"/><rect id="rect17" width="6" height="6" x="5.3" y="32.3" style="clip-rule:evenodd;opacity:.75;fill:#fff;fill-rule:evenodd"/><rect id="rect19" width="6" height="10.5" x="14" y="27.8" style="clip-rule:evenodd;opacity:.75;fill:#fff;fill-rule:evenodd"/><rect id="rect21" width="6" height="15" x="22.7" y="23.3" style="clip-rule:evenodd;opacity:.75;fill:#fff;fill-rule:evenodd"/><path id="path23" d="M 25.9,7 8.1,7 C 6.5,7 5.3,8.3 5.3,9.8 L 5.3,18.4 C 5.3,20 6.6,21.2 8.1,21.2 L 11.6,21.2 11.6,24.9 15.3,21.2 25.9,21.2 C 27.5,21.2 28.7,19.9 28.7,18.4 L 28.7,9.8 C 28.7,8.3 27.5,7 25.9,7 Z" style="opacity:.75;fill:#fff"/></svg>