<svg xmlns="http://www.w3.org/2000/svg" xmlns:svg="http://www.w3.org/2000/svg" id="Layer_1" width="23.239" height="50.118" x="0" y="0" enable-background="new 0 0 50 50" version="1.1" viewBox="0 0 23.239 50.118" xml:space="preserve"><metadata id="metadata13"/><ellipse id="ellipse3" cx="8.428" cy="3.709" rx="2.8" ry="1.6" style="fill:#b8d432"/><path id="path5" d="M 18.427906,22.30945 4.7279057,24.00945 2.9279057,9.6094496 C 2.8279057,8.4094496 3.6279057,7.4094496 4.8279057,7.3094496 L 12.727906,6.3094496 C 13.927906,6.2094496 14.927906,6.9094496 15.127906,8.1094496 L 16.427906,18.50945 C 16.527906,19.10945 17.027906,19.50945 17.627906,19.40945 18.227906,19.30945 18.627906,18.80945 18.527906,18.20945 L 16.527906,1.8094496 C 16.427906,0.60944956 15.327906,-0.09055044 14.127906,0.00944956 L 1.9279057,1.6094496 C 0.72790572,1.7094496 -0.17209428,2.7094496 0.02790572,3.9094496 L 2.5279057,24.00945 C 2.5279057,24.20945 2.6279057,24.30945 2.6279057,24.50945 2.0279057,24.90945 1.7279057,25.60945 1.8279057,26.30945 L 4.6279057,48.30945 C 4.7279057,49.40945 5.8279057,50.20945 6.8279057,50.10945 L 21.627906,48.10945 C 22.727906,48.00945 23.327906,46.90945 23.227906,45.80945 L 20.427906,23.80945 C 20.327906,22.80945 19.427906,22.20945 18.427906,22.30945 Z M 7.5279057,3.0094496 9.2279057,2.8094496 C 9.6279057,2.7094496 10.027906,3.0094496 10.027906,3.4094496 10.127906,3.8094496 9.8279057,4.2094496 9.4279057,4.2094496 L 7.7279057,4.4094496 C 7.3279057,4.5094496 6.9279057,4.2094496 6.9279057,3.8094496 6.8279057,3.4094496 7.1279057,3.1094496 7.5279057,3.0094496 Z M 13.627906,34.60945 14.027906,38.10945 11.427906,38.40945 10.927906,34.80945 C 10.127906,34.40945 9.3279057,33.60945 9.1279057,32.50945 8.9279057,30.90945 10.027906,29.50945 11.627906,29.30945 13.227906,29.10945 14.627906,30.20945 14.827906,31.80945 15.027906,33.00945 14.727906,34.00945 13.627906,34.60945 Z" style="fill:#3e3e3e"/><path id="path7" d="M 2.5279057,23.90945 C 2.5279057,24.10945 2.6279057,24.20945 2.6279057,24.40945 2.0279057,24.80945 1.7279057,25.50945 1.8279057,26.20945 L 3.5279057,39.70945 10.127906,23.40945 4.7279057,24.00945 2.9279057,9.6094496 C 2.8279057,8.4094496 3.6279057,7.4094496 4.8279057,7.3094496 L 12.727906,6.3094496 C 13.927906,6.2094496 14.927906,6.9094496 15.127906,8.1094496 L 15.427906,10.30945 17.127906,6.2094496 16.627906,1.9094496 C 16.527906,0.70944956 15.427906,0.00944956 14.227906,0.10944956 L 1.9279057,1.6094496 C 0.72790572,1.7094496 -0.17209428,2.7094496 0.02790572,3.9094496 L 2.5279057,23.90945 Z M 7.5279057,3.0094496 9.2279057,2.8094496 C 9.6279057,2.7094496 10.027906,3.0094496 10.027906,3.4094496 10.127906,3.8094496 9.8279057,4.2094496 9.4279057,4.2094496 L 7.7279057,4.4094496 C 7.3279057,4.5094496 6.9279057,4.2094496 6.9279057,3.8094496 6.8279057,3.4094496 7.1279057,3.1094496 7.5279057,3.0094496 Z" enable-background="new" style="opacity:.15;fill:#fff"/></svg>