<svg xmlns="http://www.w3.org/2000/svg" xmlns:svg="http://www.w3.org/2000/svg" id="Layer_1" width="38" height="50" x="0" y="0" enable-background="new 0 0 50 50" version="1.1" viewBox="0 0 38 50" xml:space="preserve"><metadata id="metadata23"/><path id="path3" d="M 0,6.831 0,43.169 C 0,46.941 8.507,50 19,50 L 19,6.831 0,6.831 Z" style="fill:#0072c6"/><path id="path5" d="M 18.74,49.999 19,49.999 C 29.493,49.999 38,46.942 38,43.168 L 38,6.831 18.74,6.831 18.74,49.999 Z" style="fill:#0072c6"/><path id="path7" d="M 18.74,49.999 19,49.999 C 29.493,49.999 38,46.942 38,43.168 L 38,6.831 18.74,6.831 18.74,49.999 Z" enable-background="new" style="opacity:.15;fill:#fff"/><path id="path9" d="M 38,6.831 C 38,10.604 29.493,13.662 19,13.662 8.507,13.662 0,10.603 0,6.831 0,3.058 8.507,0 19,0 29.493,0 38,3.058 38,6.831" style="fill:#fff"/><path id="path11" d="M 34.115,6.438 C 34.115,8.929 27.347,10.945 19,10.945 10.653,10.945 3.884,8.928 3.884,6.438 3.884,3.948 10.652,1.931 19,1.931 27.348,1.931 34.115,3.948 34.115,6.438" style="fill:#dd5900"/><path id="path13" d="M 30.949,9.191 C 32.928,8.429 34.117,7.475 34.117,6.439 34.117,3.948 27.349,1.931 19.001,1.931 10.653,1.931 3.886,3.949 3.886,6.439 3.886,7.475 5.075,8.429 7.054,9.191 9.816,8.126 14.134,7.439 19,7.439 23.867,7.439 28.183,8.126 30.949,9.191" style="fill:#ff8c00"/><path id="path15" d="M 3.947,33.582 6.35,33.582 6.35,24.092 10.07,32.365 C 10.509,33.366 11.11,33.721 12.288,33.721 13.466,33.721 14.044,33.367 14.483,32.365 L 18.203,24.092 18.203,33.582 20.606,33.582 20.606,24.108 C 20.606,23.184 20.236,22.737 19.474,22.506 17.649,21.936 16.424,22.429 15.869,23.661 L 12.218,31.826 8.683,23.661 C 8.152,22.429 6.904,21.936 5.078,22.506 4.315,22.737 3.946,23.184 3.946,24.108 L 3.946,33.582 3.947,33.582 Z" style="fill:#fff"/><path id="path17" d="M 22.605,25.858 25.007,25.858 25.007,31.086 C 24.985,31.37 25.098,32.037 26.414,32.057 27.086,32.068 31.598,32.057 31.64,32.057 L 31.64,25.832 34.048,25.832 C 34.059,25.832 34.046,34.321 34.046,34.357 34.059,36.451 31.448,36.905 30.245,36.941 L 22.657,36.941 22.657,35.324 C 22.67,35.324 30.239,35.326 30.258,35.324 31.805,35.161 31.622,34.392 31.622,34.133 L 31.622,33.503 26.514,33.503 C 24.138,33.481 22.624,32.444 22.606,31.251 22.605,31.14 22.658,25.91 22.605,25.858 L 22.605,25.858 Z" style="fill:#fff"/></svg>