<svg xmlns="http://www.w3.org/2000/svg" xmlns:svg="http://www.w3.org/2000/svg" id="Layer_1" width="44.706" height="50" x="0" y="0" enable-background="new 0 0 50 50" version="1.1" viewBox="0 0 44.706 50" xml:space="preserve"><metadata id="metadata6682"/><rect id="rect6655" width="40.205" height="50" x="0" y="0" style="fill:#7fba00"/><rect id="rect6657" width="18.921" height="11.888" x="16.19" y="4.915"/><rect id="rect6659" width="4.501" height="8.577" x="40.205" y="3.846" style="fill:#fcd116"/><rect id="rect6661" width="4.501" height="22.825" x="40.205" y="16.084" style="fill:#fcd116"/><rect id="rect6663" width="3.243" height="13.391" x="17.809" y="31.718"/><rect id="rect6665" width="3.243" height="13.391" x="12.565" y="31.718"/><polygon id="polygon6667" points="11.492 11.908 19.734 11.908 19.734 14.006 13.59 14.006 13.59 35.267 17.636 35.267 17.636 37.365 11.492 37.365" transform="translate(-3)" style="opacity:.2"/><polygon id="polygon6669" points="7.296 7.713 20.783 7.713 20.783 9.811 9.394 9.811 9.394 40.512 15.538 40.512 15.538 42.61 7.296 42.61" transform="translate(-3)" style="opacity:.2"/><polygon id="polygon6671" points="27.058 22.834 31.798 22.834 31.798 15.035 33.896 15.035 33.896 24.932 29.156 24.932 29.156 38.046 33.12 38.046 33.12 40.144 27.058 40.144" transform="translate(-3)" style="opacity:.2"/><path id="path6673" d="m 20.003,24.11 c 0,1.343 -1.089,2.431 -2.431,2.431 v 0 c -1.343,0 -2.431,-1.089 -2.431,-2.431 v 0 c 0,-1.343 1.089,-2.431 2.431,-2.431 v 0 c 1.343,-10e-4 2.431,1.088 2.431,2.431 z" style="fill:#e5e5e5"/><rect id="rect6675" width="4.322" height="12.365" x="29.846" y="32.343" style="fill:#e5e5e5"/></svg>