<svg xmlns="http://www.w3.org/2000/svg" xmlns:svg="http://www.w3.org/2000/svg" id="svg6831" width="16" height="16.1" x="0" y="0" enable-background="new 0 0 16 16" version="1.1" viewBox="0 0 16 16.1" xml:space="preserve"><metadata id="metadata6837"/><g id="icon_x5F_bg" transform="translate(0,0.1)"><g id="g6822"><path id="path6806" d="M 3.8,8.7 C 3.8,8.5 3.7,8.3 3.7,8 3.7,7.8 3.7,7.6 3.8,7.3 V 7 H 0 v 1.8 h 3.9 z" style="fill:#fcd116"/><path id="path6808" d="m 12.1,7.1 v 0.3 c 0,0.2 0.1,0.4 0.1,0.7 0,0.2 0,0.4 -0.1,0.7 V 9.1 H 16 v -2 z" style="fill:#fcd116"/><path id="path6810" d="M 4.6,10.5 4.4,10.3 1.3,13.4 2.6,14.7 5.7,11.6 5.5,11.4 C 5.2,11.1 4.9,10.8 4.6,10.5 Z" style="fill:#fcd116"/><path id="path6812" d="m 11.4,5.5 0.2,0.2 3.1,-3.1 -1.3,-1.3 -3.1,3.1 0.2,0.2 c 0.3,0.3 0.6,0.6 0.9,0.9 z" style="fill:#fcd116"/><path id="path6814" d="M 7.3,12.2 H 7 V 16 H 8.8 V 12.1 H 8.5 c -0.3,0.1 -0.7,0.1 -1.2,0.1 z" style="fill:#fcd116"/><path id="path6816" d="M 8.7,3.8 H 9 V -0.1 H 7.1 v 3.9 h 0.3 c 0.4,0 0.8,0 1.3,0 z" style="fill:#fcd116"/><path id="path6818" d="m 11.4,10.5 c -0.3,0.4 -0.6,0.7 -0.9,0.9 l -0.2,0.2 3.1,3.1 1.3,-1.3 -3.1,-3.1 z" style="fill:#fcd116"/><path id="path6820" d="M 1.3,2.6 4.4,5.7 4.6,5.5 C 4.9,5.1 5.2,4.8 5.5,4.6 L 5.7,4.4 2.6,1.3 Z" style="fill:#fcd116"/></g></g></svg>