<svg xmlns="http://www.w3.org/2000/svg" xmlns:svg="http://www.w3.org/2000/svg" id="Layer_1" width="50" height="50" x="0" y="0" enable-background="new 0 0 50 50" version="1.1" viewBox="0 0 50 50" xml:space="preserve"><metadata id="metadata6953"/><path id="path6926" d="M 47.285,0 H 2.997 C 1.332,0 0,1.333 0,3 V 46.667 C 0,48.667 1.332,50 2.997,50 h 43.955 c 1.665,0 2.997,-1.333 2.997,-3 V 3 C 50.282,1.333 48.95,0 47.285,0 Z M 46.619,46.667 H 3.33 V 13.333 h 43.289 z" style="fill:#59b4d9"/><rect id="rect6928" width="6.66" height="6.667" x="16.65" y="16.667" style="fill:#a0a1a2"/><rect id="rect6930" width="6.66" height="6.667" x="26.639" y="16.667" style="fill:#a0a1a2"/><rect id="rect6932" width="6.66" height="6.667" x="6.66" y="26.667" style="fill:#a0a1a2"/><rect id="rect6934" width="6.66" height="6.667" x="16.65" y="26.667" style="fill:#a0a1a2"/><rect id="rect6936" width="6.66" height="6.667" x="26.639" y="26.667" style="fill:#ba141a"/><rect id="rect6938" width="6.66" height="6.667" x="36.629" y="26.667" style="fill:#a0a1a2"/><rect id="rect6940" width="6.66" height="6.667" x="6.66" y="36.667" style="fill:#a0a1a2"/><rect id="rect6942" width="6.66" height="6.667" x="16.65" y="36.667" style="fill:#a0a1a2"/><rect id="rect6944" width="6.66" height="6.667" x="26.639" y="36.667" style="fill:#a0a1a2"/><rect id="rect6946" width="6.66" height="6.667" x="36.629" y="16.667" style="fill:#a0a1a2"/></svg>