<svg xmlns="http://www.w3.org/2000/svg" xmlns:svg="http://www.w3.org/2000/svg" id="Layer_1" width="50" height="49.5" x="0" y="0" enable-background="new 0 0 50 50" version="1.1" viewBox="0 0 50 49.5" xml:space="preserve"><metadata id="metadata7290"/><path id="path7257" d="M 42.3,0 28.6,0.5 0,29.1 20.3,49.4 48.9,20.8 50,7.7 Z m 1.1,10.6 c -1.1,1.1 -2.9,1.1 -4,0 -1.1,-1.1 -1.1,-2.9 0,-4 1.1,-1.1 2.9,-1.1 4,0 1.1,1.1 1.1,2.9 0,4 z" style="fill:#3999c6"/><polygon id="polygon7259" points="24.4 14.4 23 13 25.4 10.5 27.9 13 26.5 14.4 25.4 13.3" style="fill:#fff"/><polygon id="polygon7261" points="15 20.9 15.7 21.6 15 20.9 16.4 22.3 13.3 25.4 11.9 24" style="fill:#fff"/><rect id="rect7263" width="2" height="4.3" x="25.426" y="-3.589" transform="rotate(45)" style="fill:#fff;stroke-width:.9999904"/><polygon id="polygon7265" points="9.5 26.5 10.9 27.9 9.8 28.9 10.9 30 9.5 31.4 7 28.9" style="fill:#fff"/><rect id="rect7267" width="4.7" height="2" x="32.599" y="13.523" transform="rotate(45)" style="fill:#fff;stroke-width:.9999904"/><polygon id="polygon7269" points="19.5 38.6 20.5 39.6 21.6 38.6 23 40 20.5 42.5 18 40" style="fill:#fff"/><rect id="rect7271" width="2" height="4.3" x="42.556" y="4.187" transform="rotate(45)" style="fill:#fff;stroke-width:.9999904"/><polygon id="polygon7273" points="32.6 27.5 34 28.9 31 32 30.3 31.3 31 32 29.5 30.6" style="fill:#fff"/><polygon id="polygon7275" points="35.1 25.1 36.5 26.5 35.1 25.1" style="fill:#fff"/><polygon id="polygon7277" points="36.1 24 35.1 23 36.5 21.5 39 24 36.5 26.5 35.1 25.1" style="fill:#fff"/><rect id="rect7279" width="4.7" height="2" x="32.683" y="-10.525" transform="rotate(45)" style="fill:#fff;stroke-width:.9999904"/><polygon id="polygon7281" points="24.9 44.9 24.9 4.3 0 29.1 20.3 49.5" style="opacity:.1;fill:#fff"/><path id="path7283" d="m 45.1,4.9 c -2,-2 -5.3,-2 -7.3,0 -2,2 -2,5.3 0,7.3 2,2 5.3,2 7.3,0 2,-2 2,-5.2 0,-7.3 z m -1.7,5.7 c -1.1,1.1 -2.9,1.1 -4,0 -1.1,-1.1 -1.1,-2.9 0,-4 1.1,-1.1 2.9,-1.1 4,0 1.1,1.1 1.1,2.9 0,4 z" style="opacity:.3;fill:#1e1e1e"/></svg>