<svg xmlns="http://www.w3.org/2000/svg" xmlns:svg="http://www.w3.org/2000/svg" id="Layer_1" width="44.5" height="50" x="0" y="0" enable-background="new 0 0 50 50" version="1.1" viewBox="0 0 44.5 50" xml:space="preserve"><metadata id="metadata7409"/><path id="path7382" d="M 30,47.5 C 30,48.9 28.9,50 27.5,50 H 2.5 C 1.1,50 0,48.9 0,47.5 V 2.5 C 0,1.1 1.1,0 2.5,0 h 24.9 c 1.4,0 2.5,1.1 2.5,2.5 v 45 z" style="fill:#a0a1a2"/><rect id="rect7384" width="6" height="7" x="4" y="5" style="fill:#7a7a7a"/><rect id="rect7386" width="6" height="7" x="12" y="5" style="fill:#7a7a7a"/><rect id="rect7388" width="6" height="7" x="20" y="5" style="fill:#7a7a7a"/><rect id="rect7390" width="6" height="7" x="4" y="16" style="fill:#7a7a7a"/><rect id="rect7392" width="6" height="7" x="12" y="16" style="fill:#7a7a7a"/><rect id="rect7394" width="6" height="7" x="20" y="16" style="fill:#7a7a7a"/><rect id="rect7396" width="6" height="7" x="4" y="27" style="fill:#7a7a7a"/><rect id="rect7398" width="6" height="7" x="12" y="27" style="fill:#7a7a7a"/><rect id="rect7400" width="6" height="7" x="20" y="27" style="fill:#7a7a7a"/><path id="path7402" d="m 29.8,49.1 2.1,0.9 0.2,-0.3 1.7,-2 h 1.7 l 2,2.3 2.1,-0.9 v -0.3 l -0.2,-2.6 1.2,-1.2 3,0.2 0.9,-2.2 -0.2,-0.3 -2,-1.7 v -1.8 l 2.2,-2 -0.8,-2.2 h -0.3 l -2.6,0.2 -1.2,-1.2 0.2,-3 -2.2,-1 -0.2,0.3 -1.7,2 H 34 L 32,30 29.9,30.9 v 0.4 l 0.2,2.6 -1.2,1.2 -3,-0.2 -0.9,2.2 0.3,0.2 2,1.7 v 1.8 l -2.2,2 0.9,2.2 h 0.3 l 2.6,-0.2 1.2,1.3 z m 0.7,-11 c 1,-2.5 3.8,-3.6 6.2,-2.6 2.4,1 3.5,3.9 2.5,6.3 -1,2.5 -3.8,3.6 -6.2,2.6 -2.4,-1 -3.6,-3.8 -2.5,-6.3" style="fill:#3e3e3e"/></svg>