<svg xmlns="http://www.w3.org/2000/svg" xmlns:svg="http://www.w3.org/2000/svg" id="Layer_1" width="48.4" height="48.4" x="0" y="0" enable-background="new 0 0 50 50" version="1.1" viewBox="0 0 48.4 48.4" xml:space="preserve"><metadata id="metadata65"/><rect id="rect3" width="3.2" height="3.2" x="4.9" y="21" style="clip-rule:evenodd;fill:#59b4d9;fill-rule:evenodd"/><rect id="rect5" width="3.2" height="3.2" x="4.9" y="25.8" style="clip-rule:evenodd;fill:#59b4d9;fill-rule:evenodd"/><path id="path7" d="M 4.9,19.4 8.1,19.4 8.1,16.5 C 6.9,17.1 5.9,17.8 4.9,18.6 L 4.9,19.4 Z" style="clip-rule:evenodd;fill:#59b4d9;fill-rule:evenodd"/><rect id="rect9" width="3.2" height="3.2" x="9.7" y="35.5" style="clip-rule:evenodd;fill:#59b4d9;fill-rule:evenodd"/><rect id="rect11" width="3.2" height="3.2" x="9.7" y="40.3" style="clip-rule:evenodd;fill:#59b4d9;fill-rule:evenodd"/><rect id="rect13" width="3.2" height="3.2" x="9.7" y="45.2" style="clip-rule:evenodd;fill:#59b4d9;fill-rule:evenodd"/><rect id="rect15" width="3.2" height="3.2" x="9.7" y="30.7" style="clip-rule:evenodd;fill:#59b4d9;fill-rule:evenodd"/><rect id="rect17" width="3.2" height="3.2" x="0" y="25.8" style="clip-rule:evenodd;fill:#59b4d9;fill-rule:evenodd"/><rect id="rect19" width="3.2" height="3.2" x="4.9" y="40.3" style="clip-rule:evenodd;fill:#59b4d9;fill-rule:evenodd"/><rect id="rect21" width="3.2" height="3.2" x="0" y="35.5" style="clip-rule:evenodd;fill:#59b4d9;fill-rule:evenodd"/><rect id="rect23" width="3.2" height="3.2" x="0" y="30.7" style="clip-rule:evenodd;fill:#59b4d9;fill-rule:evenodd"/><path id="path25" d="M 4.9,45.9 C 5.9,46.7 7,47.4 8.1,48 L 8.1,45.1 4.9,45.1 4.9,45.9 Z" style="clip-rule:evenodd;fill:#59b4d9;fill-rule:evenodd"/><path id="path27" d="M 0.39999998,24.2 3.3,24.2 3.3,21 2.5,21 C 1.6,22 0.89999998,23 0.39999998,24.2 Z" style="clip-rule:evenodd;fill:#59b4d9;fill-rule:evenodd"/><rect id="rect29" width="3.2" height="3.2" x="4.9" y="35.5" style="clip-rule:evenodd;fill:#59b4d9;fill-rule:evenodd"/><path id="path31" d="M 29,43.5 29.8,43.5 C 30.6,42.5 31.3,41.4 31.9,40.3 L 29,40.3 29,43.5 Z" style="clip-rule:evenodd;fill:#59b4d9;fill-rule:evenodd"/><rect id="rect33" width="3.2" height="3.2" x="9.7" y="25.8" style="clip-rule:evenodd;fill:#59b4d9;fill-rule:evenodd"/><rect id="rect35" width="3.2" height="3.2" x="24.2" y="40.3" style="clip-rule:evenodd;fill:#59b4d9;fill-rule:evenodd"/><path id="path37" d="M 31.5,0 C 22.2,0 14.6,7.6 14.6,16.9 14.6,21.9 14.6,33.8 14.6,33.8 14.6,33.8 27.2,33.8 31.5,33.8 40.8,33.8 48.4,26.2 48.4,16.9 48.4,7.6 40.8,0 31.5,0 Z" style="fill:#7fba00"/><rect id="rect39" width="3.2" height="9.7" x="22.6" y="14.5" style="fill:#68217a"/><rect id="rect41" width="3.2" height="6.5" x="29" y="17.7" style="fill:#68217a"/><rect id="rect43" width="3.2" height="12.9" x="35.5" y="11.3" style="fill:#68217a"/><path id="path45" d="M 24.2,48 C 25.4,47.4 26.4,46.7 27.4,45.9 L 27.4,45.1 24.2,45.1 24.2,48 Z" style="clip-rule:evenodd;fill:#59b4d9;fill-rule:evenodd"/><rect id="rect47" width="3.2" height="3.2" x="29" y="35.5" style="clip-rule:evenodd;fill:#59b4d9;fill-rule:evenodd"/><rect id="rect49" width="3.2" height="3.2" x="24.2" y="35.5" style="clip-rule:evenodd;fill:#59b4d9;fill-rule:evenodd"/><rect id="rect51" width="3.2" height="3.2" x="14.5" y="40.3" style="clip-rule:evenodd;fill:#59b4d9;fill-rule:evenodd"/><polygon id="polygon53" points="11.3 16.1 11.3 19.4 14.5 19.4 14.5 16.1" transform="translate(-1.6,0)" style="clip-rule:evenodd;fill:#59b4d9;fill-rule:evenodd"/><rect id="rect55" width="3.2" height="3.2" x="19.4" y="40.3" style="clip-rule:evenodd;fill:#59b4d9;fill-rule:evenodd"/><rect id="rect57" width="3.2" height="3.2" x="19.4" y="45.2" style="clip-rule:evenodd;fill:#59b4d9;fill-rule:evenodd"/><rect id="rect59" width="3.2" height="3.2" x="14.5" y="35.5" style="clip-rule:evenodd;fill:#59b4d9;fill-rule:evenodd"/></svg>