<svg xmlns="http://www.w3.org/2000/svg" xmlns:svg="http://www.w3.org/2000/svg" id="Layer_1" width="50" height="50" x="0" y="0" enable-background="new 0 0 50 50" version="1.1" viewBox="0 0 50 50" xml:space="preserve"><metadata id="metadata955"/><path id="path940" d="M 47.6,31.8 H 16.8 c -1.3,0 -2.4,-1.1 -2.4,-2.1 0,-1 1.1,-1.9 2.4,-1.9 h 30.8 c 1.4,0 2.4,0.8 2.4,1.9 0,1 -1.1,2.1 -2.4,2.1 z" style="fill:#a0a1a2"/><path id="path942" d="M 47.6,47.4 H 16.8 c -1.3,0 -2.4,-1.1 -2.4,-2.1 0,-1 1.1,-1.9 2.4,-1.9 h 30.8 c 1.3,0 2.4,0.8 2.4,1.9 0,1 -1.1,2.1 -2.4,2.1 z" style="fill:#a0a1a2"/><polygon id="polygon944" points="2.2 27.4 2.2 27.4 2.2 27.4 5.7 30.9 12.8 23.9 12.8 23.9 12.8 23.9 14.5 25.7 14.5 25.7 14.5 25.7 5.7 34.4 .5 29.2" transform="translate(-0.5)" style="fill:#b8d432"/><polygon id="polygon946" points="2.2 43 2.2 43 2.2 43 5.7 46.5 12.8 39.5 12.8 39.5 12.8 39.5 14.5 41.2 14.5 41.2 14.5 41.2 5.7 50 .5 44.7" transform="translate(-0.5)" style="fill:#b8d432"/><polygon id="polygon948" points="16.6 8.8 24.9 0 33.2 8.8 33.2 12.3 26.4 5.8 26.4 19.4 23.5 19.4 23.5 5.8 16.6 12.4" transform="translate(-0.5)" style="fill:#0072c6"/></svg>