<svg xmlns="http://www.w3.org/2000/svg" xmlns:xlink="http://www.w3.org/1999/xlink" id="Layer_1" width="50" height="50" x="0" y="0" enable-background="new -774 1476 50 50" version="1.1" viewBox="-774 1476 50 50" xml:space="preserve"><rect width="3.8" height="31" x="-750.9" y="1485.2" fill="#68217A"/><rect width="21.2" height="3.8" x="-769" y="1509.141" fill="#68217A" transform="matrix(0.7071 0.7071 -0.7071 0.7071 846.3374 978.8433)"/><rect width="21.2" height="3.8" x="-768.975" y="1488.969" fill="#68217A" transform="matrix(-0.7071 0.7071 -0.7071 -0.7071 -240.4243 3081.3254)"/><path fill="#7FBA00" d="M-774,1501c0,3.1,2.5,5.6,5.6,5.6c3.1,0,5.6-2.5,5.6-5.6s-2.5-5.6-5.6-5.6	C-771.5,1495.4-774,1497.9-774,1501z M-766.6,1501c0,1-0.8,1.8-1.8,1.8s-1.8-0.8-1.8-1.8s0.8-1.8,1.8-1.8S-766.6,1500-766.6,1501z"/><rect width="21.2" height="3.8" x="-750.2" y="1488.969" fill="#68217A" transform="matrix(-0.7071 -0.7071 0.7071 -0.7071 -2316.7805 2022.0966)"/><rect width="21.2" height="3.8" x="-750.224" y="1509.141" fill="#68217A" transform="matrix(0.7071 -0.7071 0.7071 0.7071 -1285.0985 -80.4197)"/><path fill="#7FBA00" d="M-724,1500.911c0-3.1-2.5-5.6-5.6-5.6c-3.1,0-5.6,2.5-5.6,5.6c0,3.1,2.5,5.6,5.6,5.6	C-726.5,1506.51-724,1504.01-724,1500.911z M-731.4,1500.911c0-1,0.8-1.8,1.8-1.8s1.8,0.8,1.8,1.8s-0.8,1.8-1.8,1.8	S-731.4,1501.911-731.4,1500.911z"/><path fill="#7FBA00" d="M-754.6,1520.4c0,3.1,2.5,5.6,5.6,5.6s5.6-2.5,5.6-5.6s-2.5-5.6-5.6-5.6S-754.6,1517.3-754.6,1520.4z M-747.2,1520.4c0,1-0.8,1.8-1.8,1.8s-1.8-0.8-1.8-1.8s0.8-1.8,1.8-1.8S-747.2,1519.4-747.2,1520.4z"/><path fill="#7FBA00" d="M-754.6,1481.6c0,3.1,2.5,5.6,5.6,5.6s5.6-2.5,5.6-5.6s-2.5-5.6-5.6-5.6S-754.6,1478.5-754.6,1481.6z M-747.2,1481.6c0,1-0.8,1.8-1.8,1.8s-1.8-0.8-1.8-1.8s0.8-1.8,1.8-1.8S-747.2,1480.6-747.2,1481.6z"/></svg>