<svg xmlns="http://www.w3.org/2000/svg" xmlns:xlink="http://www.w3.org/1999/xlink" id="Layer_1" width="16" height="16" x="0" y="0" enable-background="new 0 0 16 16" version="1.1" viewBox="0 0 16 16" xml:space="preserve"><path fill="#0072C6" d="M16,8.175c0-3.916-3.027-7.152-6.831-7.497v2.246c2.582,0.315,4.619,2.526,4.619,5.213	c0,1.669-0.794,3.137-2.022,4.063L9.135,9.726V16h6.673l-2.406-2.262C14.983,12.41,16,10.426,16,8.175z"/><path fill="#0072C6" d="M2.212,7.864c0-1.669,0.794-3.137,2.023-4.063l2.631,2.474V0H0.192l2.406,2.262C1.017,3.59,0,5.574,0,7.825	c0,3.928,3.046,7.171,6.865,7.499v-2.244C4.267,12.782,2.212,10.563,2.212,7.864z"/></svg>