<svg xmlns="http://www.w3.org/2000/svg" xmlns:svg="http://www.w3.org/2000/svg" id="Layer_1" width="50" height="49.709" x="0" y="0" enable-background="new 0 0 50 50" version="1.1" viewBox="0 0 50 49.709" xml:space="preserve"><metadata id="metadata1613"/><path id="path1600" d="m 44.977,10.209 c 0,5.638 -4.571,10.209 -10.21,10.209 -5.639,0 -10.209,-4.571 -10.209,-10.209 C 24.558,4.571 29.128,0 34.767,0 c 5.639,0 10.21,4.571 10.21,10.209" style="fill:#59b4d9"/><polygon id="polygon1602" points="27.302 24.209 19.534 24.209 19.534 50 50 50 50 24.209 42.232 24.209 34.767 34.668" transform="translate(0,-0.291)" style="fill:#59b4d9"/><path id="path1604" d="m 14.294,27.345 c 0,3.168 -2.568,5.734 -5.736,5.734 -3.168,0 -5.736,-2.566 -5.736,-5.734 0,-3.168 2.568,-5.735 5.736,-5.735 3.168,0 5.736,2.567 5.736,5.735" style="fill:#59b4d9"/><polygon id="polygon1606" points="4.364 35.512 0 35.512 0 50 17.115 50 17.115 35.512 12.751 35.512 8.558 41.388" transform="translate(0,-0.291)" style="fill:#59b4d9"/></svg>