<svg xmlns="http://www.w3.org/2000/svg" xmlns:svg="http://www.w3.org/2000/svg" id="Layer_1" width="50" height="42.6" x="0" y="0" enable-background="new 0 0 50 50" version="1.1" viewBox="0 0 50 42.6" xml:space="preserve"><metadata id="metadata1799"/><path id="path1770" d="m 0,40.6 c 0,1.1 0.9,2 2,2 h 46 c 1.1,0 2,-0.9 2,-2 V 9.3 H 0 Z" style="fill:#1e1e1e"/><path id="path1772" d="m 0,40.6 c 0,1.1 0.9,2 2,2 h 46 c 1.1,0 2,-0.9 2,-2 V 9.3 H 0 Z" style="opacity:.25;fill:#0072c6"/><path id="path1774" d="M 48,0 H 2 C 0.9,0 0,0.9 0,2 V 12.6 H 50 V 2 C 50,0.9 49.1,0 48,0" style="fill:#a0a1a2"/><rect id="rect1776" width="33.7" height="3.9" x="12.9" y="4.8" style="fill:#fff"/><path id="path1778" d="m 11.3,6.7 c 0,2.7 -2.2,4.9 -4.9,4.9 C 3.7,11.6 1.5,9.4 1.5,6.7 1.5,4 3.7,1.8 6.4,1.8 c 2.7,0 4.9,2.2 4.9,4.9" style="fill:#59b4d9"/><polygon id="polygon1780" points="6.9 13.3 4 10.4 6.9 7.6 8.1 7.6 5.9 9.9 11.3 9.9 11.3 10.9 5.9 10.9 8.1 13.3" transform="translate(0,-3.7)" style="fill:#fff"/><rect id="rect1782" width="38" height="20" x="12" y="19" style="fill:#e5e5e5"/><rect id="rect1784" width="12" height="20" x="0" y="19" style="fill:#59b4d9"/><g id="g1792" transform="translate(0,-3.7)" style="opacity:.2"><g id="g1790"><g id="g1788"><path id="path1786" d="m 2,3.7 c -1.1,0 -2,0.9 -2,2 v 7.3 3.3 28 c 0,1.1 0.9,2 2,2 H 4.2 L 43.6,3.7 Z" style="fill:#fff"/></g></g></g></svg>