<svg xmlns="http://www.w3.org/2000/svg" xmlns:svg="http://www.w3.org/2000/svg" id="Layer_1" width="20" height="20" x="0" y="0" enable-background="new .5 .5 24 24" version="1.1" viewBox="0.5 0.5 20 20" xml:space="preserve"><metadata id="metadata1854"/><path id="path1843" d="m 10.5,0.5 c -5.523,0 -10,4.477 -10,10 0,5.523 4.477,10 10,10 5.523,0 10,-4.477 10,-10 0,-5.523 -4.477,-10 -10,-10 z m 0,16.875 c -3.797,0 -6.875,-3.078 -6.875,-6.875 0,-3.797 3.078,-6.875 6.875,-6.875 3.797,0 6.875,3.078 6.875,6.875 0,3.797 -3.078,6.875 -6.875,6.875 z" style="fill:#7a7a7a"/><rect id="rect1845" width="1.25" height="6.25" x="9.25" y="4.25" style="fill:#7a7a7a"/><rect id="rect1847" width="6.25" height="1.25" x="9.25" y="10.5" style="fill:#7a7a7a"/></svg>