<svg xmlns="http://www.w3.org/2000/svg" xmlns:svg="http://www.w3.org/2000/svg" id="Layer_1" width="50" height="42.634" x="0" y="0" enable-background="new 0 0 50 50" version="1.1" viewBox="0 0 50 42.634" xml:space="preserve"><metadata id="metadata2089"/><path id="path2072" d="m 0,40.627 c 0,1.108 0.898,2.007 2.007,2.007 H 47.993 C 49.102,42.634 50,41.735 50,40.627 V 8.634 H 0 Z" style="fill:#3999c6"/><path id="path2074" d="M 47.993,0 H 2.007 C 0.898,0 0,0.898 0,2.007 V 9.298 H 50 V 2.007 C 50,0.898 49.101,0 47.993,0 Z" style="fill:#a0a1a2"/><rect id="rect2076" width="50" height="3.336" x="0" y="9.298" style="opacity:.15;fill:#fff"/><path id="path2078" d="M 2.014,0 C 0.906,0 0.007,0.898 0.007,2.007 v 7.291 3.336 27.993 c 0,1.108 0.899,2.007 2.007,2.007 H 21.202 L 43.62,0 Z" style="opacity:.1;fill:#fff"/><polygon id="polygon2080" points="16.343 31.637 16.343 31.584 7.363 26.563 7.363 25.317 18.397 31.505 18.397 31.743 7.363 37.334 7.363 36.062" transform="translate(0,-4)" style="fill:#fff"/><rect id="rect2082" width="11.262" height="1.576" x="17.621" y="37.785" style="fill:#fff"/></svg>