<svg xmlns="http://www.w3.org/2000/svg" xmlns:svg="http://www.w3.org/2000/svg" id="Layer_1" width="30.796" height="49.82" x="0" y="0" enable-background="new 0 0 50 50" version="1.1" viewBox="0 0 30.796 49.82" xml:space="preserve"><metadata id="metadata1996"/><g id="g1989" transform="translate(-9.5382955)"><g id="g1981"><path id="path1979" d="M 36.4,0 H 17.6 l -8,25.2 c -0.2,0.6 0.1,1 0.7,1 h 8.8 c 0.3,0 0.5,0.1 0.6,0.2 0.2,0.2 0.2,0.5 0.1,0.8 L 10.7,49.3 C 10.5,49.9 10.6,50 11,49.5 L 40.1,17 c 0.4,-0.5 0.2,-0.9 -0.4,-0.9 h -9.5 -1.7 c -0.6,0 -0.9,-0.4 -0.6,-1 z" style="fill:#fcd116"/></g><path id="path1983" d="M 39.7,16.1 H 33.9 L 12.3,48.5 40.1,17 c 0.4,-0.5 0.3,-0.9 -0.4,-0.9 z" style="opacity:.3;fill:#ff8c00"/><g id="g1987" style="opacity:.3"><path id="path1985" d="m 36.4,0 h -5.5 l -7.8,16.1 h 5.2 c -0.5,-0.1 -0.7,-0.5 -0.4,-1 z" style="fill:#ff8c00"/></g></g></svg>