<svg xmlns="http://www.w3.org/2000/svg" xmlns:svg="http://www.w3.org/2000/svg" id="Layer_1" width="45" height="50" x="0" y="0" enable-background="new 0 0 50 50" version="1.1" viewBox="0 0 45 50" xml:space="preserve"><metadata id="metadata2503"/><polygon id="polygon2490" points="19.7 50 30.3 50 27.1 21.8 22.9 21.8" transform="translate(-2.5)" style="fill:#59b4d9"/><path id="path2492" d="M 37.8,22.5 C 37.8,14 31,7.1 22.5,7.1 14,7.1 7.2,14 7.2,22.5 c 0,5.6 3,10.5 7.6,13.2 0.5,-0.8 0.9,-1.6 1.3,-2.3 -3.7,-2.2 -6.2,-6.2 -6.2,-10.9 0,-7 5.7,-12.7 12.7,-12.7 7,0 12.7,5.7 12.7,12.7 0,4.6 -2.5,8.7 -6.2,10.9 0.4,0.7 0.9,1.5 1.3,2.3 4.4,-2.7 7.4,-7.6 7.4,-13.2" style="opacity:.5;fill:#3e3e3e"/><path id="path2494" d="m 11.2,41.9 c 0.4,-0.8 0.9,-1.6 1.3,-2.4 C 6.6,36.1 2.7,29.7 2.7,22.4 2.7,11.6 11.6,2.7 22.5,2.7 c 10.9,0 19.8,8.9 19.8,19.8 0,7.3 -4,13.6 -9.8,17.1 0.4,0.8 0.9,1.6 1.3,2.4 C 40.5,38.1 45,30.9 45,22.6 45,10.1 34.9,0 22.5,0 10.1,0 0,10.1 0,22.5 0,30.7 4.6,38 11.2,41.9" style="opacity:.2;fill:#3e3e3e"/><circle id="circle2496" cx="22.5" cy="22.6" r="6.8" style="fill:#0072c6"/></svg>