<svg xmlns="http://www.w3.org/2000/svg" xmlns:svg="http://www.w3.org/2000/svg" id="Layer_1" width="50" height="46" x="0" y="0" enable-background="new 0 0 50 50" version="1.1" viewBox="0 0 50 46" xml:space="preserve"><metadata id="metadata2592"/><path id="path2567" d="M 32.4,36.4 H 31.2 19.4 18.8 C 20.4,42.1 18.2,43 8.6,43 v 3 h 12.2 8.9 11.5 v -3 c -9.5,0 -10.4,-0.8 -8.8,-6.6" style="fill:#7a7a7a"/><path id="path2569" d="M 47,0 H 2.7 C 1.2,0 0,1.3 0,2.8 v 30.8 c 0,1.5 1.2,2.8 2.7,2.8 H 47 c 1.5,0 3,-1.3 3,-2.8 V 2.8 C 50,1.3 48.5,0 47,0 M 46.2,3.8 V 32.5 H 3.8 V 3.8 L 46.2,3.7 Z" style="fill:#a0a1a2"/><polygon id="polygon2571" points="3.8 34.6 3.8 5.8 46.2 5.8 46.1 5.8 46.1 34.6" transform="translate(0,-2)" style="fill:#59b4d9"/><path id="path2573" d="m 3.8,32.6 v 0 V 3.8 L 42.5,3.7 47,0 c 0,0 0,0 0,0 H 2.7 C 1.2,0 0,1.3 0,2.8 v 30.8 c 0,1.5 1.2,2.8 2.7,2.8 h 1.1 l 4.6,-3.8 z" style="opacity:.2;fill:#fff"/><polygon id="polygon2575" points="3.8 5.8 42.5 5.8 42.5 5.8 3.8 5.8 3.8 34.6" transform="translate(0,-2)" style="fill:#59b4d9"/><rect id="rect2577" width="32.7" height="3" x="8.7" y="43" style="fill:#a0a1a2"/><path id="path2579" d="m 25.5,2.1 c 0,0.4 -0.3,0.7 -0.7,0.7 -0.4,0 -0.7,-0.3 -0.7,-0.7 0,-0.4 0.3,-0.7 0.7,-0.7 0.4,0 0.7,0.3 0.7,0.7" style="fill:#b8d432"/><polygon id="polygon2581" points="16.2 24.9 21.5 18.8 25.1 22.2 31.3 10.6 35 27.1 38.6 18.9 46.2 21.9 46.2 34.6 3.8 34.6 3.8 20.7 12.5 18.8" transform="translate(0,-2)" style="fill:#0072c6"/><g id="g2585" transform="translate(0,-2)"><path id="path2583" d="M 38.1,17.4 35.3,23.7 31.7,7.5 24.9,20.3 21.4,17.1 16.3,23 13,17.4 l -9.2,2 v 2 c 0.1,0 0.1,0 0.2,0 l 8,-1.8 4,6.7 5.6,-6.4 3.8,3.6 5.5,-10.4 3.7,16.8 4.5,-9.9 6.7,2.6 c 0.1,0 0.2,0 0.3,0 v -2.1 z" style="fill:#b8d432"/></g></svg>