<svg xmlns="http://www.w3.org/2000/svg" xmlns:svg="http://www.w3.org/2000/svg" id="Layer_1" width="37.722" height="50" x="0" y="0" enable-background="new 0 0 50 50" version="1.1" viewBox="0 0 37.722 50" xml:space="preserve"><metadata id="metadata2665"/><path id="path2648" d="M 0,6.831 V 43.169 C 0,46.941 8.445,50 18.861,50 V 6.831 Z" style="fill:#3999c6"/><path id="path2650" d="m 18.603,49.999 h 0.258 c 10.416,0 18.861,-3.057 18.861,-6.831 V 6.831 H 18.603 Z" style="fill:#59b4d9"/><path id="path2652" d="m 37.722,6.831 c 0,3.773 -8.445,6.831 -18.861,6.831 C 8.445,13.662 0,10.603 0,6.831 0,3.058 8.445,0 18.861,0 29.277,0 37.722,3.058 37.722,6.831" style="fill:#fff"/><path id="path2654" d="m 33.866,6.438 c 0,2.491 -6.718,4.507 -15.005,4.507 -8.287,0 -15.006,-2.017 -15.006,-4.507 0,-2.49 6.719,-4.507 15.006,-4.507 8.287,0 15.005,2.017 15.005,4.507" style="fill:#7fba00"/><path id="path2656" d="m 30.722,9.191 c 1.964,-0.762 3.145,-1.716 3.145,-2.752 0,-2.491 -6.718,-4.508 -15.006,-4.508 -8.287,0 -15.005,2.018 -15.005,4.508 0,1.036 1.18,1.99 3.145,2.752 2.743,-1.065 7.03,-1.752 11.86,-1.752 4.831,0 9.116,0.687 11.861,1.752" style="fill:#b8d432"/><polygon id="polygon2658" points="17.325 26.483 17.325 26.483 17.325 26.483 23.112 32.271 34.689 20.694 34.689 20.694 34.689 20.694 37.579 23.589 37.579 23.589 37.579 23.589 23.112 38.06 14.435 29.376" transform="translate(-6.139)" style="fill:#fff"/></svg>