<svg xmlns="http://www.w3.org/2000/svg" xmlns:svg="http://www.w3.org/2000/svg" id="Layer_1" width="41.4" height="50" x="0" y="0" enable-background="new 0 0 50 50" version="1.1" viewBox="0 0 41.4 50" xml:space="preserve"><metadata id="metadata2856"/><path id="path2847" d="M 4.8,33.6 C 2.2,33.8 0,36 0,38.8 v 6 C 0,47.7 2.4,50 5.2,50 h 6 c 2.9,0 5.2,-2.4 5.2,-5.2 v -6 c 0,-2.6 -2.1,-5 -4.8,-5.2 V 16.4 c 2.6,-0.2 4.8,-2.4 4.8,-5.2 v -6 C 16.4,2.3 14,0 11.2,0 h -6 C 2.4,0 0.1,2.4 0.1,5.2 v 6 c 0,2.6 2.1,5 4.8,5.2 v 0.6 0 16.1 0 0.5 M 12,11.2 c 0,0.2 -0.2,0.5 -0.5,0.5 h -6 C 5.3,11.7 5,11.5 5,11.2 v -6 C 5,5 5.2,4.7 5.5,4.7 h 6 C 11.7,4.8 12,5 12,5.2 v 6 M 4.8,39.3 c 0,-0.2 0.2,-0.5 0.5,-0.5 h 6 c 0.2,0 0.5,0.2 0.5,0.5 v 6 c 0,0.2 -0.2,0.5 -0.5,0.5 h -6 c -0.2,0 -0.5,-0.2 -0.5,-0.5 z" style="clip-rule:evenodd;fill:#194f7a;fill-rule:evenodd"/><path id="path2849" d="M 36.7,33.6 H 36.6 V 23.3 c 0,-1 -0.5,-1.9 -1,-2.6 l -4,-3.9 4.4,-4.4 H 21.5 v 14.5 l 5.1,-5.1 2.8,2.8 v 9.1 C 27,34 25,36.1 25,38.8 v 6 c 0,2.9 2.4,5.2 5.2,5.2 h 6 c 2.9,0 5.2,-2.4 5.2,-5.2 v -6 c 0,-2.6 -2.1,-5 -4.7,-5.2 z m 0,11.6 c 0,0.2 -0.2,0.5 -0.5,0.5 h -6 c -0.2,0 -0.5,-0.2 -0.5,-0.5 v -6 c 0,-0.2 0.2,-0.5 0.5,-0.5 h 6 c 0.2,0 0.5,0.2 0.5,0.5 z" style="fill:#59b4d9"/></svg>