<svg xmlns="http://www.w3.org/2000/svg" xmlns:svg="http://www.w3.org/2000/svg" id="Layer_1" width="44.4" height="49.8" x="0" y="0" enable-background="new 0 0 50 50" version="1.1" viewBox="0 0 44.4 49.8" xml:space="preserve"><metadata id="metadata3007"/><path id="path2992" d="m 27.6,39 c 0,0.8 -0.6,1.4 -1.4,1.4 H 10.4 C 9.6,40.4 9,39.8 9,39 9,38.2 9.6,37.6 10.4,37.6 h 15.8 c 0.8,0 1.4,0.6 1.4,1.4" style="fill:#59b4d9"/><path id="path2994" d="m 35.3,22.9 c 0,0.8 -0.6,1.4 -1.4,1.4 H 10.4 C 9.6,24.3 9,23.7 9,22.9 9,22.1 9.6,21.5 10.4,21.5 H 34 c 0.7,0.1 1.3,0.7 1.3,1.4" style="fill:#59b4d9"/><path id="path2996" d="m 35.3,31 c 0,0.8 -0.6,1.4 -1.4,1.4 H 10.4 C 9.6,32.4 9,31.8 9,31 9,30.3 9.6,29.6 10.4,29.6 H 34 c 0.7,0 1.3,0.6 1.3,1.4" style="fill:#59b4d9"/><path id="path2998" d="M 3.4,46.4 V 3.5 H 32.1 L 28.6,0 H 2.3 C 1.2,0 0,1.2 0,2.4 v 45 c 0,1.2 1.2,2.4 2.3,2.4 H 42 c 1.2,0 2.3,-1.2 2.3,-2.4 V 15.8 l -3.4,-3.4 v 34 z" style="fill:#59b4d9"/><path id="path3000" d="m 28.7,0.1 v 13.3 c 0,1.2 1.2,2.4 2.3,2.4 h 13.4 z" style="fill:#59b4d9"/></svg>