<svg xmlns="http://www.w3.org/2000/svg" xmlns:svg="http://www.w3.org/2000/svg" id="Layer_1" width="50" height="38" x="0" y="0" enable-background="new 0 0 50 50" version="1.1" viewBox="0 0 50 38" xml:space="preserve"><metadata id="metadata3061"/><g id="g3052" transform="translate(0,-6)"><path id="path3050" d="M 24.6,30.2 C 24,30.2 23.5,30 23,29.7 L 1,12.4 l 3.1,-3 20.5,16 21.3,-16.5 3.1,3 -22.8,17.7 c -0.5,0.4 -1,0.6 -1.6,0.6 z" style="fill:#59b4d9"/></g><path id="path3054" d="M 4.4,34.3 H 46.1 L 46,4 H 3.8 L 3.9,33.7 Z M 48,38 H 2.6 C 1.1,38 0,36.9 0,35.5 V 2.6 C 0,1.1 1.1,0 2.6,0 H 47.5 C 48.9,0 50,1.1 50,2.6 v 32.9 c 0,1.4 -1.1,2.5 -2.6,2.5 z" style="fill:#59b4d9"/></svg>