<svg xmlns="http://www.w3.org/2000/svg" xmlns:svg="http://www.w3.org/2000/svg" id="Layer_1" width="45.956" height="40.95" x="0" y="0" enable-background="new 0 0 50 50" version="1.1" viewBox="0 0 45.956 40.95" xml:space="preserve"><metadata id="metadata3104"/><path id="path3097" d="m 45.369446,35.15 -9.6,-16.5 -9.8,-16.7 c -1.5,-2.6 -4.6,-2.6 -6.1,0 l -9.6,16.1 -9.70000028,17.1 c -1.5,2.6 0.1,5.8 3.19999998,5.8 h 19.2000003 19.3 c 3.1,-0.1 4.6,-3.2 3.1,-5.8 z m -22.7,-22.7 h 0.9 2.4 l -0.8,14.6 h -1.5 -0.9 -1.5 l -0.8,-14.6 z m 0.3,22.3 c -1.7,0 -3.1,-1.4 -3.1,-3.1 0,-1.7 1.4,-3.1 3.1,-3.1 1.7,0 3.1,1.4 3.1,3.1 0,1.7 -1.4,3.1 -3.1,3.1 z" style="fill:#59b4d9"/></svg>