<svg xmlns="http://www.w3.org/2000/svg" xmlns:svg="http://www.w3.org/2000/svg" id="Layer_1" width="50" height="48.8" x="0" y="0" enable-background="new 0 0 50 50" version="1.1" viewBox="0 0 50 48.8" xml:space="preserve"><metadata id="metadata3459"/><rect id="rect3420" width="3.9" height="4.3" x="15.9" y="0" style="fill:#fcd116"/><rect id="rect3422" width="3.9" height="4.3" x="24.4" y="0" style="fill:#fcd116"/><rect id="rect3424" width="3.9" height="4.3" x="33" y="0" style="fill:#fcd116"/><rect id="rect3426" width="3.9" height="4.3" x="41.5" y="0" style="fill:#fcd116"/><rect id="rect3428" width="3.9" height="4.3" x="33" y="18" style="fill:#fcd116"/><rect id="rect3430" width="3.9" height="4.3" x="41.5" y="18" style="fill:#fcd116"/><rect id="rect3432" width="3.9" height="4.3" x="3.6" y="26.5" style="fill:#fcd116"/><rect id="rect3434" width="3.9" height="4.3" x="12.1" y="26.5" style="fill:#fcd116"/><rect id="rect3436" width="3.9" height="4.3" x="3.6" y="44.5" style="fill:#fcd116"/><rect id="rect3438" width="3.9" height="4.3" x="12.1" y="44.5" style="fill:#fcd116"/><rect id="rect3440" width="3.9" height="4.3" x="20.6" y="44.5" style="fill:#fcd116"/><rect id="rect3442" width="3.9" height="4.3" x="29.1" y="44.5" style="fill:#fcd116"/><g id="g3450"><g id="g3448"><polygon id="polygon3444" points="22.4 8.2 24.4 6.2 26.5 8.2 31.7 13.4 32.5 14.3 32.5 15.5 32.5 18 50 18 50 4.3 12.4 4.3 12.4 18 16.4 18 16.4 15.5 16.4 14.3 17.2 13.4" style="fill:#7fba00"/><polygon id="polygon3446" points="26.5 39.9 24.4 42 22.4 39.9 17.2 34.8 16.4 33.9 16.4 32.7 16.4 30.8 0 30.8 0 44.5 37.6 44.5 37.6 30.8 32.5 30.8 32.5 32.7 32.5 33.9 31.7 34.8" style="fill:#7fba00"/></g></g><polygon id="polygon3452" points="22.7 17.2 22.7 31 19.3 27.5 19.3 32.7 24.4 37.9 29.6 32.7 29.6 27.5 26.2 31 26.2 17.2 29.6 20.6 29.6 15.5 24.4 10.3 19.3 15.5 19.3 20.6" style="fill:#0072c6"/></svg>