<svg xmlns="http://www.w3.org/2000/svg" xmlns:svg="http://www.w3.org/2000/svg" id="Layer_1" width="50.025" height="34.142" x="0" y="0" enable-background="new 0 0 50 50" version="1.1" viewBox="0 0 50.025 34.142" xml:space="preserve"><metadata id="metadata3549"/><path id="path3522" d="m 10.212558,11.541811 v 12.7 c 0,3 6.6,5.3 14.8,5.3 v -18 z" style="fill:#0072c6"/><path id="path3524" d="m 24.812558,29.641811 h 0.2 c 8.1,0 14.8,-2.4 14.8,-5.3 v -12.8 h -15 z" style="fill:#0072c6"/><path id="path3526" d="m 24.812558,29.641811 h 0.2 c 8.1,0 14.8,-2.4 14.8,-5.3 v -12.8 h -15 z" style="opacity:.15;fill:#fff"/><g id="g3530" transform="translate(0.054153,-7.875)"><path id="path3528" d="m 48.6,16.6 c 1.8,0.7 1.8,2 0,2.7 l -20.3,8.3 c -1.8,0.7 -4.8,0.7 -6.6,0 L 1.4,19.4 c -1.8,-0.7 -1.8,-2 0,-2.7 L 21.7,8.4 c 1.8,-0.7 4.8,-0.7 6.6,0 z" style="fill:#0072c6"/></g><path id="path3532" d="m 0.01255848,11.741811 c -0.1,0.5 0.4,1.1 1.40000002,1.5 l 20.2999995,8.3 c 1.8,0.7 4.8,0.7 6.6,0 l 20.3,-8.3 c 1,-0.4 1.4,-1 1.4,-1.5 v -1.8 c 0.1,0.5 -0.4,1.1 -1.4,1.5 l -20.3,8.3 c -1.8,0.7 -4.8,0.7 -6.6,0 l -20.2999995,-8.3 c -1.10000002,-0.4 -1.50000002,-1 -1.30000002,-1.6 z" style="fill:#0072c6"/><path id="path3534" d="m 0.01255848,11.741811 c -0.1,0.5 0.4,1.1 1.40000002,1.5 l 20.2999995,8.3 c 1.8,0.7 4.8,0.7 6.6,0 l 20.3,-8.3 c 1,-0.4 1.4,-1 1.4,-1.5 v -1.8 c 0.1,0.5 -0.4,1.1 -1.4,1.5 l -20.3,8.3 c -1.8,0.7 -4.8,0.7 -6.6,0 l -20.2999995,-8.3 c -1.10000002,-0.4 -1.50000002,-1 -1.30000002,-1.6 z" style="opacity:.25;fill:#1e1e1e"/><circle id="circle3536" cx="25.013" cy="9.042" r="1.9" style="opacity:.25;fill:#1e1e1e"/><g id="g3540" transform="translate(0.01255848,-7.958189)"><polygon id="polygon3538" points="10 22.6 23.1 17.3 23.5 18.2 11 23.3 11 41.3 10 41.3" style="fill:#fcd116"/></g><path id="path3542" d="m 9.1125585,34.141811 v -12.5 c 0,-0.7 0.6,-1.4 1.3999995,-1.4 v 0 c 0.7,0 1.4,0.6 1.4,1.4 v 12.4 H 9.1125585 Z" style="fill:#ff8c00"/></svg>