<svg xmlns="http://www.w3.org/2000/svg" xmlns:svg="http://www.w3.org/2000/svg" id="Layer_1" width="45" height="50" x="0" y="0" enable-background="new 0 0 50 50" version="1.1" viewBox="0 0 45 50" xml:space="preserve"><metadata id="metadata3727"/><path id="path3714" d="m 22.561,23.167 c -0.103,0 -0.197,-0.03 -0.288,-0.083 L 3.011,12.045 C 2.828,11.942 2.719,11.748 2.719,11.539 c 0,-0.203 0.108,-0.395 0.292,-0.496 L 22.149,0.075 c 0.182,-0.1 0.405,-0.1 0.579,0 L 41.994,11.12 c 0.174,0.102 0.29,0.291 0.29,0.496 0,0.212 -0.116,0.4 -0.29,0.504 L 22.853,23.084 c -0.091,0.053 -0.188,0.083 -0.292,0.083" style="fill:#3999c6"/><path id="path3716" d="m 19.792,50 c -0.104,0 -0.207,-0.024 -0.295,-0.077 L 0.295,38.917 C 0.11,38.814 0,38.626 0,38.416 V 16.331 c 0,-0.207 0.11,-0.397 0.295,-0.506 0.176,-0.1 0.401,-0.1 0.586,0 L 20.08,26.831 c 0.178,0.107 0.286,0.297 0.286,0.504 v 22.086 c 0,0.212 -0.108,0.397 -0.286,0.502 C 19.985,49.976 19.888,50 19.792,50" style="fill:#59b4d9"/><path id="path3718" d="M 25.225,50 C 25.127,50 25.026,49.976 24.93,49.923 24.752,49.818 24.642,49.634 24.642,49.421 V 27.478 c 0,-0.207 0.11,-0.397 0.288,-0.504 L 44.126,15.972 c 0.185,-0.102 0.403,-0.102 0.587,0 0.176,0.103 0.287,0.295 0.287,0.5 v 21.943 c 0,0.211 -0.111,0.398 -0.287,0.502 L 25.511,49.923 C 25.429,49.976 25.325,50 25.225,50" style="fill:#59b4d9"/><path id="path3720" d="M 25.225,50 C 25.127,50 25.026,49.976 24.93,49.923 24.752,49.818 24.642,49.634 24.642,49.421 V 27.478 c 0,-0.207 0.11,-0.397 0.288,-0.504 L 44.126,15.972 c 0.185,-0.102 0.403,-0.102 0.587,0 0.176,0.103 0.287,0.295 0.287,0.5 v 21.943 c 0,0.211 -0.111,0.398 -0.287,0.502 L 25.511,49.923 C 25.429,49.976 25.325,50 25.225,50" style="opacity:.5;fill:#fff"/></svg>