<svg xmlns="http://www.w3.org/2000/svg" xmlns:svg="http://www.w3.org/2000/svg" id="Layer_1" width="48.2" height="49.7" x="0" y="0" enable-background="new 0 0 50 50" version="1.1" viewBox="0 0 48.2 49.7" xml:space="preserve"><metadata id="metadata3992"/><path id="path3971" d="m 28.4,10.2 c 0,5.6 -4.6,10.2 -10.2,10.2 C 12.6,20.4 8,15.9 8,10.2 8,4.6 12.6,0 18.2,0 23.9,0 28.4,4.6 28.4,10.2" style="fill:#b8d432"/><polygon id="polygon3973" points="10.8 24.1 0 24.1 0 49.9 36.5 49.9 36.5 24.1 25.7 24.1 18.2 34.6" transform="translate(0,-0.2)" style="fill:#b8d432"/><path id="path3975" d="m 8,10.2 c 0,5.6 4.4,10.1 10,10.2 L 20.6,0.3 C 19.9,0.1 19.1,0 18.3,0 12.6,0 8,4.6 8,10.2" style="opacity:.2;fill:#fff"/><polygon id="polygon3977" points="0 49.9 14.3 49.9 16.6 32.3 10.8 24.1 0 24.1" transform="translate(0,-0.2)" style="opacity:.2;fill:#fff"/><path id="path3979" d="m 37.7,37.1 c 0,0 -0.1,0 -0.1,0 l -9,-5.2 c -0.1,0 -0.1,-0.1 -0.1,-0.2 0,-0.1 0.1,-0.2 0.1,-0.2 l 9,-5.2 c 0.1,0 0.2,0 0.3,0 l 9,5.2 c 0.1,0 0.1,0.1 0.1,0.2 0,0.1 -0.1,0.2 -0.1,0.2 l -9,5.2 c -0.1,-0.1 -0.2,0 -0.2,0" style="fill:#3999c6"/><path id="path3981" d="m 36.4,49.7 c 0,0 -0.1,0 -0.1,0 l -9,-5.2 c -0.1,0 -0.1,-0.1 -0.1,-0.2 V 33.8 c 0,-0.1 0.1,-0.2 0.1,-0.2 0.1,0 0.2,0 0.3,0 l 9,5.2 c 0.1,0.1 0.1,0.1 0.1,0.2 v 10.4 c 0,0.1 -0.1,0.2 -0.1,0.2 -0.1,0.1 -0.2,0.1 -0.2,0.1" style="fill:#59b4d9"/><path id="path3983" d="m 38.9,49.7 c 0,0 -0.1,0 -0.1,0 -0.1,0 -0.1,-0.1 -0.1,-0.2 V 39.1 c 0,-0.1 0.1,-0.2 0.1,-0.2 l 9,-5.2 c 0.1,0 0.2,0 0.3,0 0.1,0 0.1,0.1 0.1,0.2 v 10.4 c 0,0.1 -0.1,0.2 -0.1,0.2 l -9,5.2 c -0.1,0 -0.1,0 -0.2,0" style="fill:#59b4d9"/><path id="path3985" d="m 38.9,49.7 c 0,0 -0.1,0 -0.1,0 -0.1,0 -0.1,-0.1 -0.1,-0.2 V 39.1 c 0,-0.1 0.1,-0.2 0.1,-0.2 l 9,-5.2 c 0.1,0 0.2,0 0.3,0 0.1,0 0.1,0.1 0.1,0.2 v 10.4 c 0,0.1 -0.1,0.2 -0.1,0.2 l -9,5.2 c -0.1,0 -0.1,0 -0.2,0" style="opacity:.5;fill:#fff"/></svg>