<svg xmlns="http://www.w3.org/2000/svg" xmlns:svg="http://www.w3.org/2000/svg" id="Layer_1" width="50.043" height="42.008" x="0" y="0" enable-background="new 0 0 50 50" version="1.1" viewBox="0 0 50.043 42.008" xml:space="preserve"><metadata id="metadata29"/><polygon id="polygon3" points="41.681 36.313 39.199 46 30.594 40.905" transform="translate(0,-3.992)" style="fill:#804998"/><path id="path5" d="M 24.025,22.004 C 24.025,22.004 23.55,22.866 23.025,23.004 29.619,23.004 33.927,33.954 36.494,40.344 L 39.825,39.382 C 37.202,32.443 34.025,22.004 24.025,22.004 Z" style="fill:#804998"/><polygon id="polygon7" points="41.681 13.679 39.199 3.992 30.594 9.087" transform="translate(0,-3.992)" style="fill:#804998"/><path id="path9" d="M 24.025,20.004 C 24.025,20.004 23.55,19.142 23.025,19.004 29.619,19.004 33.927,8.054 36.494,1.664 L 39.825,2.626 C 37.202,9.565 34.025,20.004 24.025,20.004 Z" style="fill:#804998"/><polygon id="polygon11" points="42.043 18.996 50.043 24.996 42.043 30.996" transform="translate(0,-3.992)" style="fill:#804998"/><rect id="rect13" width="4.004" height="24.204" x="19.004" y="-45.204" transform="matrix(0,1,-1,0,0,0)" style="fill:#804998"/><path id="path15" d="M 4.754,34.008 19,34.008 C 21.625,34.008 23.754,31.88 23.754,29.254 L 23.754,12.758 C 23.754,10.133 21.626,8.004 19,8.004 L 4.754,8.004 C 2.128,8.004 0,10.132 0,12.758 L 0,29.255 C 0,31.88 2.128,34.008 4.754,34.008 Z" style="fill:#7fba00"/><path id="path17" d="M 4.754,34.008 19,8.004 4.754,8.004 C 2.128,8.004 0,10.132 0,12.758 L 0,29.255 C 0,31.88 2.128,34.008 4.754,34.008 Z" style="opacity:.2;fill:#fff"/><rect id="rect19" width="6" height="6" x="14" y="18.004" style="fill:#fff"/><rect id="rect21" width="6" height="6" x="4" y="12.008" style="fill:#fff"/><rect id="rect23" width="6" height="6" x="4" y="24.008" style="fill:#fff"/></svg>