<svg xmlns="http://www.w3.org/2000/svg" xmlns:svg="http://www.w3.org/2000/svg" id="Layer_1" width="46.206" height="49.9" x="0" y="0" enable-background="new 0 0 50 50" version="1.1" viewBox="0 0 46.206 49.9" xml:space="preserve"><metadata id="metadata17"/><path id="path3" d="M 37.2,23.2 9,23.2 C 7.8,23.2 6.7,24.2 6.7,25.7 L 6.7,36.4 10.6,37.5 10.6,27.1 35.5,27.1 35.5,37.4 39.4,36.3 39.4,25.7 C 39.4,24.2 38.3,23.2 37.2,23.2 Z" style="clip-rule:evenodd;fill:#7a7a7a;fill-rule:evenodd"/><rect id="rect5" width="3.9" height="10.4" x="21.1" y="16.4" style="clip-rule:evenodd;fill:#7a7a7a;fill-rule:evenodd"/><path id="path7" d="M 29.4,0 16.8,0 C 15.5,0 14.4,1.1 14.4,2.4 L 14.4,14.1 C 14.4,15.4 15.5,16.5 16.8,16.5 L 29.3,16.5 C 30.6,16.5 31.7,15.4 31.7,14.1 L 31.7,2.4 C 31.8,1.1 30.7,0 29.4,0 Z" style="clip-rule:evenodd;fill:#59b4d9;fill-rule:evenodd"/><path id="path9" d="M 14.9,33.4 2.4,33.4 C 1.1,33.4 0,34.5 0,35.8 L 0,47.5 C 0,48.8 1.1,49.9 2.4,49.9 L 14.9,49.9 C 16.2,49.9 17.3,48.8 17.3,47.5 L 17.3,35.8 C 17.3,34.5 16.2,33.4 14.9,33.4 Z" style="clip-rule:evenodd;fill:#59b4d9;fill-rule:evenodd"/><path id="path11" d="M 43.8,33.4 31.3,33.4 C 30,33.4 28.9,34.5 28.9,35.8 L 28.9,47.5 C 28.9,48.8 30,49.9 31.3,49.9 L 43.8,49.9 C 45.1,49.9 46.2,48.8 46.2,47.5 L 46.2,35.8 C 46.3,34.5 45.2,33.4 43.8,33.4 Z" style="clip-rule:evenodd;fill:#59b4d9;fill-rule:evenodd"/></svg>