<svg xmlns="http://www.w3.org/2000/svg" xmlns:xlink="http://www.w3.org/1999/xlink" id="Layer_1" x="0" y="0" enable-background="new 0 0 50 50" version="1.1" viewBox="0 0 50 50" xml:space="preserve"><path fill="#0072C6" d="M0,48c0,1.1,0.9,2,2,2h46c1.1,0,2-0.9,2-2V8.6H0V48z"/><path fill="#A0A1A2" d="M48,0H2C0.9,0,0,0.9,0,2v7.3h50V2C50,0.9,49.1,0,48,0z"/><path fill="#FFF" d="M2,0C0.9,0,0,0.9,0,2v7.3v3.3V48c0,1.1,0.9,2,2,2h19.2L43.6,0H2z" opacity=".1"/><path fill="#E5E5E5" fill-rule="evenodd" d="M34.6,28.8H15.4c-0.8,0-1.5,0.7-1.5,1.7v7.2l2.6,0.7v-7h16.9v7	l2.6-0.7v-7.2C36.1,29.5,35.4,28.8,34.6,28.8z" clip-rule="evenodd"/><polygon fill="#E5E5E5" fill-rule="evenodd" points="26.3 31.2 23.7 31.2 23.7 24.1 26.3 24.1" clip-rule="evenodd"/><path fill="#59B4D9" fill-rule="evenodd" d="M29.3,13h-8.5c-0.9,0-1.7,0.7-1.7,1.7v8c0,0.9,0.7,1.7,1.7,1.7h8.5	c0.9,0,1.7-0.7,1.7-1.7v-8C30.9,13.7,30.2,13,29.3,13z" clip-rule="evenodd"/><path fill="#59B4D9" fill-rule="evenodd" d="M19.4,35.7h-8.5c-0.9,0-1.7,0.7-1.7,1.7v8c0,0.9,0.7,1.7,1.7,1.7	h8.5c0.9,0,1.7-0.7,1.7-1.7v-8C21.1,36.5,20.3,35.7,19.4,35.7z" clip-rule="evenodd"/><path fill="#59B4D9" fill-rule="evenodd" d="M39.1,35.7h-8.5c-0.9,0-1.7,0.7-1.7,1.7v8c0,0.9,0.7,1.7,1.7,1.7	h8.5c0.9,0,1.7-0.7,1.7-1.7v-8C40.7,36.5,40,35.7,39.1,35.7z" clip-rule="evenodd"/></svg>