<svg xmlns="http://www.w3.org/2000/svg" xmlns:svg="http://www.w3.org/2000/svg" id="Layer_1" width="49.8" height="43.104" x="0" y="0" enable-background="new 0 0 50 50" version="1.1" viewBox="0 0 49.8 43.104" xml:space="preserve"><metadata id="metadata4723"/><path id="path4680" d="m 27.3,6.3038672 c -3.4,0.4 -6.3,2 -8.3,4.4999998 -2,2.5 -3,5.7 -2.7,9 0.4,3.4 2,6.3 4.5,8.3 2.5,2 5.7,3 9,2.7 3.4,-0.4 6.3,-2.1 8.3,-4.5 2,-2.5 3,-5.7 2.7,-9 -0.4,-3.4 -2.1,-6.3 -4.6,-8.3999998 -2.1,-1.7 -4.8,-2.7 -7.6,-2.7 -0.4,0 -0.8,0 -1.3,0.1" style="fill:#fff"/><path id="path4682" d="m 42.7,17.003867 c -0.4,-4 -2.5,-7.4999998 -5.4,-9.7999998 -0.6,-0.5 -1.2,-0.9 -1.8,-1.2 l -1.1,2.2 c 0.5,0.3 0.9,0.6 1.4,0.9 2.4,1.9999998 4.1,4.7999998 4.5,8.0999998 0.3,3.3 -0.7,6.4 -2.6,8.8 -1.9,2.4 -4.8,4 -8.1,4.4 -2.2,0.2 -4.3,-0.2 -6.2,-1 l -1.1,2.2 c 2.3,1.1 4.9,1.6 7.6,1.3 4,-0.4 7.4,-2.4 9.7,-5.3 2.3,-2.8 3.5,-6.6 3.1,-10.6" style="fill:#3999c6"/><path id="path4684" d="m 20.8,27.903867 c -2.4,-1.9 -4,-4.8 -4.4,-8.1 -0.3,-3.3 0.7,-6.4 2.6,-8.8 1.9,-2.3999998 4.8,-3.9999998 8.1,-4.3999998 2.7,-0.3 5.2,0.3 7.3,1.6 l 1.1,-2.2 c -2.6,-1.5 -5.6,-2.2 -8.7,-1.9 -4,0.4 -7.4,2.4 -9.7,5.3 v 0 C 14.8,12.303867 13.5,16.003867 14,20.003867 c 0.4,4 2.4,7.4 5.3,9.7 0.9,0.7 1.9,1.4 3,1.9 l 1.1,-2.2 c -1,-0.4 -1.8,-0.9 -2.6,-1.5" style="fill:#a0a1a2"/><path id="path4686" d="m 20.8,27.903867 c -2.4,-1.9 -4,-4.8 -4.4,-8.1 -0.3,-3.3 0.7,-6.4 2.6,-8.8 1.9,-2.3999998 4.8,-3.9999998 8.1,-4.3999998 2.7,-0.3 5.2,0.3 7.3,1.6 l 1.1,-2.2 c -2.6,-1.5 -5.6,-2.2 -8.7,-1.9 -4,0.4 -7.4,2.4 -9.7,5.3 v 0 C 14.8,12.303867 13.5,16.003867 14,20.003867 c 0.4,4 2.4,7.4 5.3,9.7 0.9,0.7 1.9,1.4 3,1.9 l 1.1,-2.2 c -1,-0.4 -1.8,-0.9 -2.6,-1.5" style="fill:#59b4d9"/><path id="path4688" d="m 34.4,22.303867 -5.6,-2 c -0.6,-0.2 -0.9,-0.9 -0.7,-1.5 0.2,-0.6 0.9,-0.9 1.5,-0.7 l 5.6,2 c 0.6,0.2 0.9,0.9 0.7,1.5 -0.2,0.6 -0.9,1 -1.5,0.7 z" style="fill:#7a7a7a"/><path id="path4690" d="m 28.2,20.103867 c -0.6,0 -1.2,-0.5 -1.2,-1.2 V 9.1038672 c 0,-0.6 0.5,-1.2 1.2,-1.2 0.6,0 1.2,0.5 1.2,1.2 v 9.7999998 c 0,0.7 -0.5,1.2 -1.2,1.2 z" style="fill:#7a7a7a"/><circle id="circle4692" cx="28.2" cy="19.004" r="1.7" style="fill:#1e1e1e"/><g id="g4710" transform="translate(-0.1,-3.4961328)"><path id="path4694" d="M 28.4,37.6" style="fill:#bad80a"/><path id="path4696" d="M 28.7,42.3" style="fill:#bad80a"/><path id="path4698" d="M 32.5,41.6" style="fill:#bad80a"/><path id="path4700" d="M 31.6,41.8" style="fill:#bad80a"/><path id="path4702" d="M 39.8,10.2" style="fill:#bad80a"/><path id="path4704" d="M 30.5,38.3" style="fill:#bad80a"/><path id="path4706" d="M 27.1,38.4" style="fill:#bad80a"/><path id="path4708" d="m 26.9,35 5.9,5.5 -5.2,6 0.1,-3.9 c -0.4,0 -1,0 -1.4,0 -10.5,0 -19.1,-8.5 -19.1,-19.1 0,-10.6 8.4,-19 19,-19 5.3,0 10.1,2.2 13.6,5.7 -3,-2.9 -7.1,-4.7 -11.6,-4.8 -9.1,0 -16.5,7.4 -16.5,16.5 0,8.8 7.1,15.9 15.7,16.5 z" style="fill:#b8d432"/></g><path id="path4712" d="m 27.9,37.403867 c -10.5,-0.4 -18.6,-9.2 -18.2,-19.6 0.3,-6.5 3.8,-12.0999998 8.9,-15.2999998 -6.8,2.9 -11.6,9.6999998 -11.6,17.5999998 0,10.5 8.5,19.1 19.1,19.1 0.4,0 1,0 1.4,0 l -0.1,3.9 5.2,-6 c -1.5,0.3 -3.1,0.4 -4.7,0.3 z" style="opacity:.2;fill:#1e1e1e"/><path id="path4714" d="m 9.5,40.403867 c -0.2,0 -0.5,-0.1 -0.7,-0.2 l -6.8,-4 c -1.2,-0.7 -2,-2.1 -2,-3.4 V 7.6038672 c 0,-1.3 0.8,-2.8 2,-3.4 l 6.8,-4 c 0.7,-0.4 1.6,-0.2 2,0.5 0.4,0.7 0.2,1.6 -0.5,2 l -6.8,4 c -0.2,0.1 -0.5,0.6 -0.5,0.9 V 32.803867 c 0,0.3 0.3,0.8 0.5,0.9 l 6.8,4 c 0.7,0.4 0.9,1.3 0.5,2 -0.3,0.4 -0.8,0.7 -1.3,0.7 z" style="fill:#7a7a7a"/><path id="path4716" d="m 40.3,0.0038672 c 0.2,0 0.5,0.1 0.7,0.2 l 6.8,4 c 1.2,0.7 2,2.1 2,3.4 V 32.803867 c 0,1.3 -0.8,2.8 -2,3.4 l -6.8,4 c -0.7,0.4 -1.6,0.2 -2,-0.5 -0.4,-0.7 -0.2,-1.6 0.5,-2 l 6.8,-4 c 0.2,-0.1 0.5,-0.6 0.5,-0.9 V 7.6038672 c 0,-0.3 -0.3,-0.8 -0.5,-0.9 l -6.8,-4 c -0.7,-0.4 -0.9,-1.3 -0.5,-2 0.4,-0.4 0.8,-0.7 1.3,-0.7 z" style="fill:#7a7a7a"/></svg>