<svg xmlns="http://www.w3.org/2000/svg" xmlns:svg="http://www.w3.org/2000/svg" id="Layer_1" width="48.497" height="47.367" x="0" y="0" enable-background="new 0 0 50 50" version="1.1" viewBox="0 0 48.497 47.367" xml:space="preserve"><metadata id="metadata4885"/><rect id="rect4860" width="9.802" height="9.695" x="15.758" y="0" style="fill:#b8d432"/><rect id="rect4862" width="9.831" height="9.695" x="27.199" y="0" style="fill:#b8d432"/><rect id="rect4864" width="9.801" height="9.695" x="38.696" y="0" style="fill:#b8d432"/><rect id="rect4866" width="9.801" height="9.695" x="38.696" y="11.469" style="fill:#b8d432"/><rect id="rect4868" width="9.801" height="9.831" x="38.696" y="22.938" style="fill:#b8d432"/><path id="path4870" d="m 3.6180498,47.367 c -0.961,0 -1.865,-0.373 -2.546,-1.048 C 0.38604975,45.64 0.00404975,44.732 4.9754595e-5,43.766 -0.00495025,42.798 0.36704975,41.889 1.0480498,41.202 l 8.747,-8.83 c -1.479,-2.758 -1.888,-5.921 -1.145,-8.952 1.3990002,-5.652 6.4310002,-9.599 12.2360002,-9.599 1.01,0 2.026,0.124 3.022,0.368 3.269,0.805 6.029,2.836 7.771,5.718 1.742,2.882 2.258,6.272 1.45,9.541 -1.389,5.646 -6.421,9.589 -12.235,9.589 -1.017,0 -2.031,-0.124 -3.018,-0.367 -1.032,-0.254 -2.033,-0.643 -2.984,-1.16 l -8.7010002,8.784 c -0.687,0.693 -1.6,1.073 -2.573,1.073 M 20.88605,18.598 c -3.604,0 -6.728,2.452 -7.598,5.965 -0.525,2.141 -0.105,4.429 1.151,6.27 0.545,0.802 1.223,1.488 2.017,2.037 0.793,0.547 1.655,0.94 2.563,1.163 0.612,0.152 1.244,0.227 1.875,0.227 3.609,0 6.734,-2.448 7.597,-5.956 0.502,-2.028 0.182,-4.133 -0.901,-5.926 -1.081,-1.79 -2.795,-3.051 -4.823,-3.551 -0.619,-0.153 -1.252,-0.229 -1.881,-0.229" style="fill:#3e3e3e"/><path id="path4872" d="m 24.28905,13.08 c 0.432,0.106 0.854,0.234 1.271,0.379 v -1.991 h -9.802 v 2.284 c 1.631,-0.686 3.412,-1.068 5.27,-1.068 1.092,0 2.189,0.132 3.261,0.396" style="fill:#b8d432"/><path id="path4874" d="m 32.67205,19.249 c 0.372,0.617 0.679,1.26 0.946,1.915 h 3.41 v -9.696 h -9.83 v 2.704 c 2.245,1.137 4.139,2.869 5.474,5.077" style="fill:#b8d432"/><path id="path4876" d="m 34.23805,29.541 c -0.282,1.146 -0.704,2.227 -1.243,3.227 h 4.034 v -9.831 h -2.807 c 0.546,2.142 0.561,4.398 0.016,6.604" style="fill:#b8d432"/><path id="path4878" d="m 27.70505,26.414 c 0,3.703 -3.003,6.704 -6.705,6.704 -3.703,0 -6.705,-3.001 -6.705,-6.704 0,-3.703 3.002,-6.704 6.705,-6.704 3.701,0 6.705,3.001 6.705,6.704" style="fill:#b8d432"/></svg>