<svg xmlns="http://www.w3.org/2000/svg" xmlns:svg="http://www.w3.org/2000/svg" id="svg2" width="36.654" height="50.001" focusable="false" role="img" version="1.1" viewBox="0 0 36.654 50.001" style="fill:#fff"><metadata id="metadata14"/><path id="path4" d="M 31.185,5.96 31.185,5.96 C 20.169,4.745 18.326,0 18.326,0 18.326,0 15.847,6.242 0,6.242 L 0,31.853 C 0,34.95 1.721,37.85 4.104,40.385 L 4.104,40.385 C 9.506,46.133 18.327,50.001 18.327,50.001 18.327,50.001 36.654,41.972 36.654,31.852 L 36.654,6.242 C 34.616,6.242 32.803,6.139 31.185,5.96 Z" style="fill:#7fba00"/><path id="path6" d="M 22.86,16.543 31.185,5.96 C 20.169,4.745 18.326,0 18.326,0 18.326,0 15.847,6.242 0,6.242 L 0,31.853 C 0,34.95 1.721,37.85 4.104,40.385 L 10.258,32.563 22.86,16.543 Z" style="opacity:.4;fill:#b8d432"/><path id="path8" d="M 25.595,24.46 24.529,24.46 24.529,20.908 C 24.529,19.199 23.9,17.632 22.86,16.458 L 22.86,16.458 C 22.821,16.415 22.786,16.368 22.748,16.325 21.641,15.139 20.065,14.377 18.326,14.378 16.59,14.377 15.014,15.139 13.907,16.325 12.797,17.512 12.124,19.136 12.124,20.907 L 12.124,24.46 11.059,24.46 C 10.616,24.46 10.258,24.819 10.258,25.261 L 10.258,32.478 10.258,32.479 10.258,34.653 C 10.258,35.095 10.617,35.454 11.059,35.454 L 25.595,35.454 C 26.037,35.454 26.396,35.095 26.396,34.653 L 26.396,25.262 C 26.396,24.818 26.037,24.46 25.595,24.46 Z M 21.584,24.461 16.564,24.461 16.565,24.46 15.07,24.46 15.07,20.908 C 15.07,19.886 15.456,18.981 16.058,18.338 16.663,17.695 17.453,17.325 18.326,17.325 19.2,17.325 19.991,17.695 20.596,18.338 20.739,18.491 20.867,18.661 20.985,18.842 L 20.984,18.843 C 21.357,19.422 21.584,20.131 21.584,20.907 L 21.584,24.461 Z" style="fill:#fff"/></svg>