<svg xmlns="http://www.w3.org/2000/svg" xmlns:svg="http://www.w3.org/2000/svg" id="Layer_1" width="29.3" height="50" x="0" y="0" enable-background="new 0 0 50 50" version="1.1" viewBox="0 0 29.3 50" xml:space="preserve"><metadata id="metadata5184"/><g id="g5177" transform="translate(-10.4)"><path id="path5163" d="m 39.7,47.5 c 0,1.4 -1.1,2.5 -2.5,2.5 H 12.9 c -1.4,0 -2.5,-1.1 -2.5,-2.5 V 2.5 C 10.4,1.1 11.5,0 12.9,0 h 24.3 c 1.4,0 2.5,1.1 2.5,2.5 z" style="fill:#3e3e3e"/><path id="path5165" d="m 14.6,27 c 0,-1.8 1.4,-3.2 3.2,-3.2 h 14.6 c 1.8,0 3.2,1.4 3.2,3.2 v 0 c 0,1.8 -1.4,3.2 -3.2,3.2 H 17.8 c -1.7,0 -3.2,-1.4 -3.2,-3.2 z" style="fill:#1e1e1e"/><circle id="circle5167" cx="18" cy="27" r="2.1" style="fill:#b8d432"/><path id="path5169" d="m 14.6,17.5 c 0,-1.8 1.4,-3.2 3.2,-3.2 h 14.6 c 1.8,0 3.2,1.4 3.2,3.2 v 0 c 0,1.8 -1.4,3.2 -3.2,3.2 H 17.8 c -1.7,0 -3.2,-1.4 -3.2,-3.2 z" style="fill:#1e1e1e"/><circle id="circle5171" cx="18" cy="17.5" r="2.1" style="fill:#b8d432"/><path id="path5173" d="m 14.6,8.1 c 0,-1.8 1.4,-3.2 3.2,-3.2 h 14.6 c 1.8,0 3.2,1.4 3.2,3.2 v 0 c 0,1.8 -1.4,3.2 -3.2,3.2 H 17.8 c -1.7,0 -3.2,-1.5 -3.2,-3.2 z" style="fill:#1e1e1e"/><circle id="circle5175" cx="18" cy="8.1" r="2.1" style="fill:#b8d432"/></g></svg>