<svg xmlns="http://www.w3.org/2000/svg" xmlns:svg="http://www.w3.org/2000/svg" id="Layer_1" width="44.904" height="48.9" x="0" y="0" enable-background="new 275 1149 50 50" version="1.1" viewBox="275 1149 44.904 48.9" xml:space="preserve"><metadata id="metadata5605"/><g id="g5575" transform="translate(-2.5,-0.6)"><path id="path5561" d="m 306.2,1196 c 0,1.4 -1.1,2.4 -2.4,2.4 H 280 c -1.4,0 -2.5,-1.1 -2.5,-2.4 v -44 c 0,-1.4 1.1,-2.4 2.5,-2.4 h 23.8 c 1.4,0 2.4,1.1 2.4,2.4 z" style="fill:#3e3e3e"/><path id="path5563" d="m 281.6,1175.9 c 0,-1.8 1.4,-3.1 3.1,-3.1 H 299 c 1.8,0 3.1,1.4 3.1,3.1 v 0 c 0,1.8 -1.4,3.1 -3.1,3.1 h -14.3 c -1.7,0 -3.1,-1.4 -3.1,-3.1 z" style="fill:#1e1e1e"/><circle id="circle5565" cx="284.9" cy="1175.9" r="2.1" style="fill:#b8d432"/><path id="path5567" d="m 281.6,1166.6 c 0,-1.8 1.4,-3.1 3.1,-3.1 H 299 c 1.8,0 3.1,1.4 3.1,3.1 v 0 c 0,1.8 -1.4,3.1 -3.1,3.1 h -14.3 c -1.7,0 -3.1,-1.4 -3.1,-3.1 z" style="fill:#1e1e1e"/><circle id="circle5569" cx="284.9" cy="1166.6" r="2.1" style="fill:#b8d432"/><path id="path5571" d="m 281.6,1157.3 c 0,-1.8 1.4,-3.1 3.1,-3.1 H 299 c 1.8,0 3.1,1.4 3.1,3.1 v 0 c 0,1.8 -1.4,3.1 -3.1,3.1 h -14.3 c -1.7,0.1 -3.1,-1.4 -3.1,-3.1 z" style="fill:#1e1e1e"/><circle id="circle5573" cx="284.9" cy="1157.3" r="2.1" style="fill:#b8d432"/></g><g id="Phone" transform="translate(-2.5,-0.6)"><path id="path5577" d="m 318.5,1162.4 c 1.2,0 2.1,0.9 2.1,2.1 v 30 c 0,1.2 -0.9,2.1 -2.1,2.1 H 301 c -1.2,0 -2.1,-0.9 -2.1,-2.1 v -30.1 c 0,-1.2 0.9,-2.1 2.1,-2.1 l 17.5,0.1 m 0,-1.9 H 301 c -2.3,0 -4,1.8 -4,4 v 30 c 0,2.3 1.8,4 4,4 h 17.4 c 2.3,0 4,-1.8 4,-4 v -30.1 c 0.1,-2.2 -1.7,-3.9 -3.9,-3.9 z" style="fill:#fff"/><path id="path5579" d="m 320.5,1194.5 c 0,1.2 -0.9,2.1 -2.1,2.1 H 301 c -1.2,0 -2.1,-0.9 -2.1,-2.1 v -30.1 c 0,-1.2 0.9,-2.1 2.1,-2.1 h 17.4 c 1.2,0 2.1,0.9 2.1,2.1 z" style="fill:#3e3e3e"/><rect id="rect5581" width="18.5" height="24" x="300.5" y="1165.8" style="fill:#59b4d9"/><path id="path5583" d="m 312.7,1193.2 c 0,1.1 -0.9,2 -2,2 -1.1,0 -2,-0.9 -2,-2 0,-1.1 0.9,-2 2,-2 1.1,0 2,0.9 2,2" style="fill:#fff"/><path id="path5585" d="m 312,1193.2 c 0,0.7 -0.6,1.3 -1.3,1.3 -0.7,0 -1.3,-0.6 -1.3,-1.3 0,-0.7 0.6,-1.3 1.3,-1.3 0.7,0 1.3,0.6 1.3,1.3" style="fill:#b8d432"/><path id="path5587" d="m 300.5,1189.9 v -24 h 15.6 l 1.4,-3.4 h -16.4 c -1.2,0 -2.1,0.9 -2.1,2.1 v 30 c 0,1.2 0.9,2.1 2.1,2.1 h 2.5 l 2.7,-6.7 z" enable-background="new" style="opacity:.15;fill:#fff"/><path id="path5589" d="m 314.3,1164.3 c 0,0.3 -0.2,0.5 -0.5,0.5 h -6 c -0.3,0 -0.5,-0.2 -0.5,-0.5 0,-0.3 0.2,-0.5 0.5,-0.5 h 6 c 0.2,0 0.5,0.2 0.5,0.5" style="fill:#1e1e1e"/><path id="path5591" d="m 314.3,1164.3 c 0,0.3 -0.2,0.5 -0.5,0.5 h -6 c -0.3,0 -0.5,-0.2 -0.5,-0.5 0,-0.3 0.2,-0.5 0.5,-0.5 h 6 c 0.2,0 0.5,0.2 0.5,0.5" style="fill:#fff"/><path id="path5593" d="m 309.8,1176.9 v 0 l -6.1,-3.5 c -0.1,0 -0.1,-0.1 -0.1,-0.2 0,-0.1 0,-0.1 0.1,-0.2 l 6,-3.4 c 0.1,0 0.1,0 0.2,0 l 6,3.4 c 0.1,0 0.1,0.1 0.1,0.2 0,0.1 0,0.1 -0.1,0.2 l -6.1,3.5 c 0,0 0,0 0,0" style="fill:#fff"/><path id="path5595" d="m 308.9,1185.4 v 0 l -6.1,-3.5 c -0.1,0 -0.1,-0.1 -0.1,-0.2 v -7 c 0,-0.1 0,-0.1 0.1,-0.2 0.1,0 0.1,0 0.2,0 l 6,3.4 c 0.1,0 0.1,0.1 0.1,0.2 v 7 c 0,0.2 0,0.3 -0.2,0.3 0.1,0 0.1,0 0,0" enable-background="new" style="opacity:.7;fill:#fff"/><path id="path5597" d="m 310.6,1185.4 c -0.1,0 -0.1,0 0,0 -0.2,-0.1 -0.2,-0.1 -0.2,-0.2 v -6.9 c 0,-0.1 0,-0.1 0.1,-0.2 l 6,-3.4 c 0.1,0 0.1,0 0.2,0 0.1,0 0.1,0.1 0.1,0.2 v 6.9 c 0,0.1 0,0.1 -0.1,0.2 l -6.1,3.4 v 0" enable-background="new" style="opacity:.4;fill:#fff"/></g></svg>