<svg xmlns="http://www.w3.org/2000/svg" xmlns:svg="http://www.w3.org/2000/svg" id="Layer_1" width="40" height="50" x="0" y="0" enable-background="new 0 0 50 50" version="1.1" viewBox="0 0 40 50" xml:space="preserve"><metadata id="metadata5441"/><g id="g5430" transform="translate(-7)"><path id="path5416" d="m 36.4,47.5 c 0,1.4 -1.1,2.5 -2.5,2.5 H 9.5 C 8.1,50 7,48.9 7,47.5 V 2.5 C 7,1.1 8.1,0 9.5,0 h 24.3 c 1.4,0 2.5,1.1 2.5,2.5 v 45 z" style="fill:#3e3e3e"/><path id="path5418" d="m 11.3,27 c 0,-1.8 1.4,-3.2 3.2,-3.2 h 14.6 c 1.8,0 3.2,1.4 3.2,3.2 v 0 c 0,1.8 -1.4,3.2 -3.2,3.2 H 14.5 c -1.8,0 -3.2,-1.4 -3.2,-3.2 z" style="fill:#1e1e1e"/><circle id="circle5420" cx="14.6" cy="27" r="2.1" style="fill:#b8d432"/><path id="path5422" d="m 11.3,17.5 c 0,-1.8 1.4,-3.2 3.2,-3.2 h 14.6 c 1.8,0 3.2,1.4 3.2,3.2 v 0 c 0,1.8 -1.4,3.2 -3.2,3.2 H 14.5 c -1.8,0 -3.2,-1.4 -3.2,-3.2 z" style="fill:#1e1e1e"/><circle id="circle5424" cx="14.6" cy="17.5" r="2.1" style="fill:#b8d432"/><path id="path5426" d="m 11.3,8.1 c 0,-1.8 1.4,-3.2 3.2,-3.2 h 14.6 c 1.8,0 3.2,1.4 3.2,3.2 v 0 c 0,1.8 -1.4,3.2 -3.2,3.2 H 14.5 c -1.8,0 -3.2,-1.5 -3.2,-3.2 z" style="fill:#1e1e1e"/><circle id="circle5428" cx="14.6" cy="8.1" r="2.1" style="fill:#b8d432"/></g><polygon id="polygon5432" points="41.2 27.5 47 33.5 41.2 39.4 37.7 39.4 42 34.8 26.4 34.8 26.4 32.1 42 32.1 37.7 27.5" transform="translate(-7)" style="fill:#59b4d9"/><polygon id="polygon5434" points="32.2 50 26.4 44.1 32.1 38.1 35.6 38.1 31.3 42.7 47 42.7 47 45.4 31.3 45.4 35.7 50" transform="translate(-7)" style="fill:#59b4d9"/></svg>