<svg xmlns="http://www.w3.org/2000/svg" xmlns:svg="http://www.w3.org/2000/svg" id="Layer_1" width="24" height="21.012" x="0" y="0" enable-background="new 0 0 24 24" version="1.1" viewBox="0 0 24 21.012" xml:space="preserve"><metadata id="metadata13"/><path id="path3" d="M 17.625,0 C 16.977,0 16.398,0.074 15.891,0.223 15.383,0.371 14.912,0.577 14.479,0.838 14.045,1.1 13.631,1.414 13.237,1.781 12.842,2.148 12.43,2.551 12,2.988 11.57,2.55 11.158,2.148 10.764,1.781 10.369,1.414 9.955,1.1 9.521,0.838 9.088,0.576 8.617,0.371 8.109,0.223 7.602,0.074 7.023,0 6.375,0 5.492,0 4.664,0.168 3.891,0.504 3.117,0.84 2.441,1.295 1.863,1.869 1.285,2.443 0.83,3.119 0.498,3.896 0.166,4.674 0,5.5 0,6.375 0,7.227 0.162,8.043 0.486,8.824 0.81,9.605 1.269,10.293 1.863,10.886 L 12,21.012 22.137,10.887 C 22.731,10.293 23.19,9.606 23.514,8.825 23.838,8.044 24,7.227 24,6.375 24,5.5 23.834,4.674 23.502,3.896 23.17,3.119 22.715,2.443 22.137,1.869 21.559,1.295 20.883,0.84 20.11,0.504 19.336,0.168 18.508,0 17.625,0 L 17.625,0 Z" style="fill:#59b4d9"/><path id="path5" d="M 12,2.988 C 11.57,2.55 11.158,2.148 10.764,1.781 10.369,1.414 9.955,1.1 9.521,0.838 9.088,0.576 8.617,0.371 8.109,0.223 7.602,0.074 7.023,0 6.375,0 5.492,0 4.664,0.168 3.891,0.504 3.117,0.84 2.441,1.295 1.863,1.869 1.285,2.443 0.83,3.119 0.498,3.896 0.166,4.674 0,5.5 0,6.375 0,7.227 0.162,8.043 0.486,8.824 0.81,9.605 1.269,10.293 1.863,10.886 L 12,21.012 12,2.988 Z" style="opacity:.2;fill:#fff"/><polygon id="polygon7" points="3 13 2 12 7.691 12 10.127 7.126 12.184 14.323 13.732 12 17 12 17 13 14.268 13 11.816 16.677 9.873 9.874 8.309 13" transform="translate(0,-1)" style="fill:#fff"/></svg>