<svg xmlns="http://www.w3.org/2000/svg" xmlns:svg="http://www.w3.org/2000/svg" id="Layer_1" width="36.6" height="49.9" x="0" y="0" enable-background="new 0 0 50 50" version="1.1" viewBox="0 0 36.6 49.9" xml:space="preserve"><metadata id="metadata5845"/><path id="path5826" d="M 31.2,6 V 6 C 20.2,4.8 18.3,0 18.3,0 18.3,0 15.8,6.2 0,6.2 v 25.6 c 0,3.1 1.7,6 4.1,8.5 v 0 c 5.4,5.7 14.2,9.6 14.2,9.6 0,0 18.3,-8 18.3,-18.1 V 6.2 c -2,0 -3.8,-0.1 -5.4,-0.2 z" style="fill:#3999c6"/><path id="path5828" d="M 22.9,16.5 31.2,6 C 20.2,4.8 18.3,0 18.3,0 18.3,0 15.8,6.2 0,6.2 v 25.6 c 0,3.1 1.7,6 4.1,8.5 l 6.2,-7.8 z" style="opacity:.4;fill:#59b4d9"/><g id="g5838" transform="translate(-7)"><path id="path5830" d="m 10.8,24.4 v 6.1 c 0,2.5 1.4,4.8 3.3,6.8 4.3,4.6 11.3,7.6 11.3,7.6 V 24.4 Z" style="opacity:.3;fill:#fff"/><path id="path5832" d="m 25.3,44.9 c 0,0 14.6,-6.4 14.6,-14.4 V 24.4 H 25.3 Z" style="opacity:.7;fill:#fff"/><path id="path5834" d="m 25.3,5.1 c 0,0 0,0 0,0 0,0 -2,5 -14.6,5 v 14.3 h 14.6 z" style="opacity:.7;fill:#fff"/><path id="path5836" d="M 35.5,9.9 C 26.8,8.9 25.3,5.2 25.3,5.2 V 24.4 H 39.9 V 10.1 c -1.6,0 -3.1,-0.1 -4.4,-0.2 z" style="opacity:.3;fill:#fff"/></g></svg>