<svg xmlns="http://www.w3.org/2000/svg" xmlns:svg="http://www.w3.org/2000/svg" id="Layer_1" width="49.9" height="41.8" x="0" y="0" enable-background="new 0 0 50 50" version="1.1" viewBox="0 0 49.9 41.8" xml:space="preserve"><metadata id="metadata11"/><path id="path3" d="M 28.4,13.6 C 34.4,13.6 39.3,18.1 40,23.8 41.4,24.9 42.5,26.2 43.3,27.6 47.2,26.6 49.9,23.2 49.9,19.1 49.9,15.8 48.1,13.2 45,11.7 45,11.3 45,11 45,10.6 45,4.8 40.2,0 34.4,0 30.9,0 27.7,1.7 25.7,4.4 24.4,3.6 23,3.2 21.4,3.2 17.2,3.2 13.8,6.4 13.4,10.4 14,10.3 14.7,10.3 15.4,10.3 18.5,10.3 22,10.8 24.9,13.9 L 28.4,13.6 Z" style="fill:#59b4d9"/><path id="path5" d="M 36.5,25.8 36.5,25.2 C 36.5,20.8 32.9,17.2 28.5,17.2 27.1,17.2 25.8,17.6 24.6,18.2 L 24.6,18.3 24.6,18.2 C 24.5,18.3 24.3,18.3 24.2,18.4 24.2,18.4 24.2,18.4 24.1,18.3 21.8,20 20.8,22.6 20.7,25.4 L 24.2,25.4 18.9,31.7 13.5,25.4 17.1,25.4 C 17.2,21.6 18.7,18 21.3,15.7 19.6,14.6 17.6,14 15.5,14 9.6,14 4.8,18.7 4.8,24.5 4.8,24.9 4.8,25.2 4.8,25.6 1.8,27.1 0,29.7 0,33 0,38 4,41.8 9.2,41.8 L 31.9,41.8 C 37.1,41.8 41.1,37.9 41.1,33 41.1,29.8 39.5,27.3 36.5,25.8 Z" style="fill:#0072c6"/></svg>