<svg xmlns="http://www.w3.org/2000/svg" xmlns:svg="http://www.w3.org/2000/svg" id="Layer_1" width="468.527" height="324.201" x="0" y="0" enable-background="new -382 215 500 500" version="1.1" viewBox="-382 215 468.527 324.201" xml:space="preserve"><metadata id="metadata25"/><path id="path3" d="M -259.9,517.10057 29.3,517.10057 C 29.3,517.10057 80.4,516.40057 85.7,483.80057 92.4,442.50057 56.2,438.90057 56.2,438.90057 56.2,438.90057 95.9,391.20057 65.6,341.60057 29,281.70057 -33.8,314.70057 -33.8,314.70057 -33.8,314.70057 -47.1,189.50057 -191.8,219.70057 -311.3,244.70057 -290.5,375.60057 -290.5,375.60057 -290.5,375.60057 -360.6,357.90057 -367.1,433.80057 -373.5,509.60057 -259.9,517.10057 -259.9,517.10057 Z" style="fill:#ddd"/><path id="path5" d="M -282,310.10057 -282,310.10057 -382,310.10057 -382,502.80057 C -382,522.60057 -338,538.80057 -283,539.00057 L -283,539.20057 -282.8,539.20057 C -282.6,539.20057 -282,539.00057 -282,539.00057 L -282,539.20057 -281.8,539.20057 C -226.7,539.20057 -182,522.80057 -182,502.90057 L -182,310.10057 -282,310.10057 Z" style="fill:#edb51d"/><g id="g7" transform="translate(-27,-75.899429)"><polygon id="polygon9" points=".4 485.4 -76 546.8 -76 507 -206 507 -206 464 -76 464 -76 426.2" style="fill:#edb51d"/><g id="g11"><path id="path13" d="M -354.7,386.3 -354.7,578.6 C -354.7,598.6 -310,614.8 -254.9,614.8 L -254.9,386.3 -354.7,386.3 Z" enable-background="new" style="opacity:.3;fill:#fff"/><path id="path15" d="M -155,386.3 C -155,406.3 -199.7,422.5 -254.8,422.5 -309.9,422.5 -354.6,406.3 -354.6,386.3 -354.6,366.3 -309.9,350.1 -254.8,350.1 -199.7,350.2 -155,366.4 -155,386.3" style="fill:#fff"/><path id="path17" d="M -175.4,384.2 C -175.4,397.4 -211,408.1 -254.8,408.1 -298.7,408.1 -334.2,397.4 -334.2,384.2 -334.2,371 -298.6,360.3 -254.8,360.3 -211,360.4 -175.4,371.1 -175.4,384.2" style="fill:#7fba00"/><path id="path19" d="M -192,398.8 C -181.6,394.8 -175.4,389.7 -175.4,384.2 -175.4,371 -211,360.3 -254.8,360.3 -298.7,360.3 -334.2,371 -334.2,384.2 -334.2,389.7 -328,394.7 -317.5,398.8 -303,393.2 -280.3,389.5 -254.7,389.5 -229.3,389.5 -206.6,393.2 -192,398.8" style="fill:#b8d432"/></g></g></svg>