<svg xmlns="http://www.w3.org/2000/svg" xmlns:xlink="http://www.w3.org/1999/xlink" id="Layer_1" width="50" height="50" x="0" style="enable-background:new 0 0 50 50" y="0" version="1.1" viewBox="0 0 50 50" xml:space="preserve"><style type="text/css">.st0{fill:#59b4d9}.st1{fill:#3999c6}.st2{fill:#fff}.st3{fill:#7fba00}.st4{fill:#b8d432}.st5{fill:#a0a1a2}.st6{fill:#7a7a7a}.st7{fill:#804998}</style><path d="M18.5,50h0.3c10.4,0,18.8-3,18.8-6.8V6.9H18.5V50L18.5,50z" class="st0"/><path d="M0,6.9v36.3C0,47,8.4,50,18.8,50V6.9H0L0,6.9z" class="st1"/><path d="M37.6,6.8c0,3.8-8.4,6.8-18.8,6.8S0,10.6,0,6.8S8.4,0,18.8,0S37.6,3,37.6,6.8" class="st2"/><path d="M33.7,6.4c0,2.5-6.7,4.5-14.9,4.5S3.9,8.9,3.9,6.4s6.7-4.5,14.9-4.5S33.7,3.9,33.7,6.4" class="st3"/><path d="M30.6,9.2c2-0.8,3.1-1.8,3.1-2.8c0-2.5-6.7-4.5-14.9-4.5S3.9,3.9,3.9,6.4c0,1,1.1,2,3.1,2.8	c2.8-1,7-1.8,11.8-1.8S27.8,8.2,30.6,9.2" class="st4"/><polygon points="12.2 47.6 47.6 47.6 47.6 35.8 12.2 35.8" class="st2"/><path d="M12.2,47.6h35.4V35.8H12.2V47.6z M9.9,50V33.5H50V50H9.9z" class="st5"/><rect width="2.4" height="7.1" x="15.8" y="38.2" class="st6"/><circle cx="9.9" cy="27" r="6.5" class="st7"/><circle cx="21.7" cy="15.2" r="6.5" class="st7"/><circle cx="31.1" cy="27" r="6.5" class="st7"/><circle cx="42.9" cy="15.2" r="6.5" class="st7"/><polygon points="31 29.6 21.5 17.8 11.1 28.2 8.6 25.7 21.8 12.5 31.3 24.3 41.7 13.9 44.2 16.4" class="st7"/></svg>