<svg xmlns="http://www.w3.org/2000/svg" xmlns:svg="http://www.w3.org/2000/svg" id="Layer_1" width="40.228" height="50.038" x="0" y="0" enable-background="new 0 0 50 50" version="1.1" viewBox="0 0 40.228 50.038" xml:space="preserve"><metadata id="metadata6737"/><rect id="rect6710" width="20.1" height="4.5" x="6.6" y="39.138" style="fill:#7a7a7a"/><polygon id="polygon6712" points="9 45.9 9 28.3 4.9 28.3 4.9 50 4.9 50 8.9 50 34.8 50 38.1 50 38.7 50 38.7 28.3 34.7 28.3 34.7 45.9" transform="translate(-4.9,0.03843925)" style="fill:#7a7a7a"/><rect id="rect6714" width="20.099" height="4.5" x="9.511" y="31.604" transform="rotate(4.1724194)" style="fill:#7a7a7a;stroke-width:.99995023"/><rect id="rect6716" width="20.099" height="4.5" x="9.511" y="31.604" transform="rotate(4.1724194)" style="opacity:.1;fill:#ff8c00;stroke-width:.99995023"/><rect id="rect6718" width="20.101" height="4.5" x="14.778" y="20.197" transform="rotate(14.654619)" style="fill:#7a7a7a;stroke-width:1.00003266"/><rect id="rect6720" width="20.101" height="4.5" x="14.778" y="20.197" transform="rotate(14.654619)" style="opacity:.35;fill:#ff8c00;stroke-width:1.00003266"/><rect id="rect6722" width="20.1" height="4.5" x="18.695" y="4.556" transform="rotate(30.40367)" style="fill:#7a7a7a;stroke-width:1.0000217"/><rect id="rect6724" width="20.1" height="4.5" x="18.695" y="4.556" transform="rotate(30.40367)" style="opacity:.75;fill:#ff8c00;stroke-width:1.0000217"/><rect id="rect6726" width="20.099" height="4.5" x="16.934" y="-17.58" transform="rotate(55.825235)" style="fill:#ff8c00;stroke-width:.99996608"/><rect id="rect6728" width="20.101" height="4.5" x="5.996" y="-36.479" transform="rotate(80.665776)" style="fill:#ff8c00;stroke-width:1.00004148"/><rect id="rect6730" width="20.101" height="4.5" x="5.996" y="-36.479" transform="rotate(80.665776)" style="opacity:.4;fill:#dd5900;stroke-width:1.00004148"/></svg>