<svg xmlns="http://www.w3.org/2000/svg" xmlns:svg="http://www.w3.org/2000/svg" id="Layer_1" width="50" height="43" x="0" y="0" enable-background="new 0 0 50 50" version="1.1" viewBox="0 0 50 43" xml:space="preserve"><metadata id="metadata6857"/><path id="path6840" d="m 0,41.1 c 0,1 0.8,1.9 1.8,1.9 h 46.3 c 1,0 1.9,-0.8 1.9,-1.9 V 8 H 0 Z" style="fill:#a0a1a2"/><path id="path6842" d="M 48.1,0.1 H 1.8 C 0.8,0.1 0,1 0,2 V 8 H 50 V 2 C 50,1 49.2,0.4 48.1,0.4" style="fill:#7a7a7a"/><rect id="rect6844" width="42" height="7" x="4" y="21.5" style="fill:#b8d432"/><rect id="rect6846" width="42" height="7" x="4" y="11" style="fill:#fff"/><rect id="rect6848" width="42" height="7" x="4" y="32" style="fill:#b8d432"/><path id="path6850" d="M 2,0 C 0.9,0 0,0.9 0,2 v 7.3 3.3 28 c 0,1.1 0.9,2 2,2 H 4.2 L 43.6,0 Z" enable-background="new" style="opacity:.2;fill:#fff"/></svg>