<svg xmlns="http://www.w3.org/2000/svg" xmlns:svg="http://www.w3.org/2000/svg" id="Layer_1" width="49.8" height="49.9" x="0" y="0" enable-background="new 0 0 50 50" version="1.1" viewBox="0 0 49.8 49.9" xml:space="preserve"><metadata id="metadata33"/><path id="path3" d="M 43.247,13.881 C 43.619,12.854 43.824,11.761 43.824,10.624 43.824,4.756 38.473,0 31.872,0 26.719,0 22.34,2.904 20.662,6.968 19.144,5.415 16.905,4.423 14.407,4.423 9.828,4.423 6.098,7.752 6.098,11.863 6.098,12.583 6.214,13.253 6.417,13.897 2.678,15.131 0,18.355 0,22.13 0,26.967 4.38,30.9 9.792,30.9 L 40.005,30.9 C 45.431,30.9 49.8,26.973 49.8,22.13 49.813,18.31 47.073,15.073 43.247,13.881 Z" style="fill:#59b4d9"/><path id="path5" d="M 8.349,19.86 C 8.117,19.125 7.985,18.36 7.985,17.539 7.985,12.845 12.243,9.045 17.47,9.045 20.321,9.045 22.877,10.178 24.61,11.951 26.526,7.313 31.524,3.997 37.407,3.997 38.923,3.997 40.376,4.226 41.739,4.632 39.586,1.836 35.972,0 31.873,0 26.72,0 22.341,2.904 20.663,6.968 19.145,5.415 16.905,4.423 14.408,4.423 9.829,4.423 6.099,7.752 6.099,11.863 6.099,12.583 6.215,13.253 6.418,13.897 2.678,15.131 0,18.355 0,22.13 0,23.786 0.523,25.33 1.416,26.653 2.364,23.511 4.974,20.975 8.349,19.86 Z" enable-background="new" style="opacity:.2;fill:#fff"/><path id="path7" d="M 37.899,15.4 15.9,14.9 15.9,12.338 C 15.9,11.689 15.131,11.346 14.648,11.781 L 7.905,17.4 14.648,23.019 C 15.131,23.452 15.9,23.11 15.9,22.461 L 15.9,19.9 20.9,19.9 20.9,47.022 C 20.9,48.059 21.751,48.9 22.801,48.9 L 37.899,48.9 C 38.949,48.9 39.8,48.059 39.8,47.022 L 39.8,17.278 C 39.8,16.241 38.949,15.4 37.899,15.4 Z M 20.9,15.9 21.13,15.9 C 20.988,16.163 20.9,16.459 20.9,16.778 L 20.9,15.9 Z" enable-background="new" style="opacity:.8;fill:#fff"/><path id="path9" d="M 39.9,48.022 C 39.9,49.059 39.049,49.9 37.999,49.9 L 22.801,49.9 C 21.751,49.9 20.9,49.059 20.9,48.022 L 20.9,17.778 C 20.9,16.741 21.751,15.9 22.801,15.9 L 37.999,15.9 C 39.049,15.9 39.9,16.741 39.9,17.778 L 39.9,48.022 Z" style="fill:#7a7a7a"/><path id="path11" d="M 22.95,44.293 C 22.95,42.972 24.025,41.9 25.351,41.9 L 35.348,41.9 C 36.674,41.9 37.749,42.972 37.749,44.293 L 37.749,44.293 C 37.749,45.614 36.674,46.686 35.348,46.686 L 25.351,46.686 C 24.025,46.686 22.95,45.615 22.95,44.293 L 22.95,44.293 Z" style="fill:#1e1e1e"/><circle id="circle13" cx="25.582" cy="44.293" r="1.607" style="fill:#b8d432"/><path id="path15" d="M 22.95,37.293 C 22.95,35.972 24.025,34.9 25.351,34.9 L 35.348,34.9 C 36.674,34.9 37.749,35.972 37.749,37.293 L 37.749,37.293 C 37.749,38.614 36.674,39.686 35.348,39.686 L 25.351,39.686 C 24.025,39.686 22.95,38.615 22.95,37.293 L 22.95,37.293 Z" style="fill:#1e1e1e"/><circle id="circle17" cx="25.582" cy="37.293" r="1.607" style="fill:#b8d432"/><path id="path19" d="M 22.95,21.4 C 22.95,20.078 24.025,19.007 25.351,19.007 L 35.348,19.007 C 36.674,19.007 37.749,20.079 37.749,21.4 L 37.749,21.4 C 37.749,22.722 36.674,23.793 35.348,23.793 L 25.351,23.793 C 24.025,23.794 22.95,22.722 22.95,21.4 L 22.95,21.4 Z" style="fill:#1e1e1e"/><circle id="circle21" cx="25.582" cy="21.4" r="1.607" style="fill:#b8d432"/><path id="path23" d="M 28.9,31.9 20.85,31.9 20.85,27.9 19.9,27.9 20.9,26.9 28.9,26.9 28.9,24.339 C 28.9,23.69 29.669,23.347 30.152,23.782 L 36.895,29.401 30.152,35.02 C 29.669,35.453 28.9,35.11 28.9,34.461 L 28.9,31.9 Z" style="opacity:.9;fill:#fff"/><polygon id="polygon25" points="35.45 29.5 29.95 25 29.95 28 18.95 28 18.95 31 29.95 31 29.95 34" transform="translate(-0.1,-0.1)" style="fill:#59b4d9"/><polygon id="polygon27" points="9.5 17.5 15 22 15 19 26 19 26 16 15 16 15 13" transform="translate(-0.1,-0.1)" style="fill:#7a7a7a"/></svg>