<svg xmlns="http://www.w3.org/2000/svg" xmlns:svg="http://www.w3.org/2000/svg" id="Layer_1" width="50" height="42.7" x="0" y="0" enable-background="new 0 0 50 50" version="1.1" viewBox="0 0 50 42.7" xml:space="preserve"><metadata id="metadata7255"/><path id="path7238" d="m 0,40.8 c 0,1 0.8,1.9 1.8,1.9 h 46.3 c 1,0 1.9,-0.8 1.9,-1.9 V 7.7 H 0 Z" style="fill:#a0a1a2"/><path id="path7240" d="M 48.1,0 H 1.8 C 0.8,0 0,0.9 0,1.9 V 7.6 H 50 V 1.9 C 50,0.9 49.2,0 48.1,0" style="fill:#7a7a7a"/><rect id="rect7242" width="12" height="27.8" x="3.7" y="11.1" style="fill:#804998"/><rect id="rect7244" width="12" height="27.8" x="19" y="11.1" style="fill:#804998"/><rect id="rect7246" width="12" height="27.8" x="34.3" y="11.1" style="fill:#804998"/><path id="path7248" d="M 2,0 C 0.9,0 0,0.9 0,2 v 7.3 3.3 28 c 0,1.1 0.9,2 2,2 H 4.2 L 43.6,0 Z" style="opacity:.2;fill:#fff"/></svg>