<svg xmlns="http://www.w3.org/2000/svg" xmlns:svg="http://www.w3.org/2000/svg" id="Layer_1" width="43.334" height="50" x="0" y="0" enable-background="new 0 0 50 50" version="1.1" viewBox="0 0 43.334 50" xml:space="preserve"><metadata id="metadata19"/><polygon id="polygon3" points="42.699 12.364 42.699 12.364 39.667 12.364 39.667 12.364 4.111 12.364 3 47.105 39.667 50 39.667 50 42.699 47.664 46.334 44.864 46.332 44.863 45.222 12.364" transform="translate(-3,0)" style="fill:#3999c6"/><polygon id="polygon5" points="42.699 44.345 42.699 12.364 39.667 12.364 39.667 50" transform="translate(-3,0)" style="opacity:.3;fill:#fff"/><polygon id="polygon7" points="42.699 47.664 46.334 44.864 42.722 44.302 42.699 44.345 39.667 50" transform="translate(-3,0)" style="opacity:.2;fill:#1e1e1e"/><path id="path9" d="M 30.037,34.209 C 30.037,32.657 28.791,31.399 27.252,31.399 27.136,31.399 27.022,31.408 26.912,31.423 27.082,30.792 27.176,30.128 27.176,29.442 27.176,25.305 23.85,21.951 19.748,21.951 16.471,21.951 13.692,24.091 12.705,27.062 12.185,26.879 11.629,26.776 11.047,26.776 8.241,26.776 5.97,29.069 5.97,31.897 5.97,34.727 8.241,37.02 11.047,37.02 11.047,37.02 11.052,37.018 11.054,37.018 L 11.054,37.02 27.478,37.02 27.475,37.006 C 28.908,36.893 30.037,35.686 30.037,34.209" style="fill:#fff"/><path id="path11" d="M 20.406,6.76 C 20.406,4.309 22.55,2.314 25.185,2.314 27.82,2.314 29.962,4.309 29.962,6.76 L 29.962,12.364 32.258,12.364 32.258,6.76 C 32.258,3.032 29.085,0 25.185,0 21.284,0 18.112,3.032 18.112,6.76 L 18.112,12.364 20.406,12.364 20.406,6.76 Z" style="fill:#a0a1a2"/><path id="path13" d="M 13.369,6.76 C 13.369,4.309 15.513,2.314 18.148,2.314 20.783,2.314 22.927,4.309 22.927,6.76 L 22.927,12.364 25.221,12.364 25.221,6.76 C 25.221,3.032 22.048,0 18.148,0 14.248,0 11.075,3.032 11.075,6.76 L 11.075,12.364 13.369,12.364 13.369,6.76 Z" style="fill:#7a7a7a"/></svg>