<svg xmlns="http://www.w3.org/2000/svg" xmlns:svg="http://www.w3.org/2000/svg" id="Layer_1" width="50.001" height="44.822" x="0" y="0" enable-background="new 0 0 50 50" version="1.1" viewBox="0 0 50.001 44.822" xml:space="preserve"><metadata id="metadata19"/><path id="path3" d="M 44.352,20.06 C 44.039,20.06 43.882,20.06 43.568,20.06 43.881,18.65 44.195,17.239 44.195,15.829 44.195,7.053 37.926,0 29.15,0 22.254,0 16.299,4.545 14.262,10.814 13.165,10.501 11.911,10.187 10.658,10.187 4.858,10.187 0,15.202 0,21.157 0,27.426 4.388,31.657 10.343,31.657 L 14.574,31.657 14.574,28.993 26.485,28.993 26.485,34.321 38.24,34.321 38.24,31.657 44.352,31.657 C 47.643,31.657 49.994,29.306 49.994,26.015 50.15,22.724 47.486,20.06 44.352,20.06 Z M 26.329,26.329 14.575,26.329 14.575,23.821 26.329,23.821 26.329,26.329 Z M 26.329,21.157 14.575,21.157 14.575,18.649 26.329,18.649 26.329,21.157 Z" style="fill:#59b4d9"/><rect id="rect5" width="11.754" height="2.508" x="26.486" y="36.986" style="fill:#59b4d9"/><rect id="rect7" width="11.754" height="2.508" x="26.486" y="42.314" style="fill:#59b4d9"/><g id="g9" transform="translate(0,-2.589)"><path id="path11" d="M 19.594,16.391 C 20.794,16.091 21.994,16.091 23.094,16.191 23.593,10.798 27.846,5.399 32.639,2.995 31.529,2.738 30.366,2.59 29.15,2.59 22.254,2.59 16.299,7.135 14.262,13.404 13.165,13.091 11.911,12.777 10.658,12.777 4.858,12.776 0,17.791 0,23.746 0,30.015 4.388,34.246 10.343,34.246 L 14.555,34.246 C 13.177,32.854 12.189,31.169 11.694,29.09 10.394,23.391 13.894,17.691 19.594,16.391 Z" style="opacity:.2;fill:#fff"/><path id="path13" d="M 32.656,2.985 C 32.65,2.988 32.645,2.991 32.639,2.994 32.642,2.995 32.646,2.996 32.649,2.997 L 32.656,2.985 Z" enable-background="new" style="opacity:.2;fill:#fff"/></g></svg>