<svg xmlns="http://www.w3.org/2000/svg" xmlns:svg="http://www.w3.org/2000/svg" id="Layer_1" width="50" height="38.8" x="0" y="0" enable-background="new 0 0 50 50" version="1.1" viewBox="0 0 50 38.8" xml:space="preserve"><metadata id="metadata21"/><path id="path3" d="M 43.3,26.3 44.5,23.2 50,21.3 50,16.9 49.4,16.7 44.5,15.3 43.3,12.2 45.8,7.1 45.8,7.1 42.7,4 42.1,4.3 37.6,6.6 34.4,5.3 32.4,0 27.9,0 27.7,0.6 26.2,5.3 23.1,6.5 17.8,4.2 14.6,7.3 14.9,7.9 16.3,10.5 C 18.8,9.1 21.4,8.5 24.2,8.5 28.1,8.7 31.7,10.1 34.5,12.7 35.1,13.2 35.7,13.6 36.4,14.3 36.7,14.6 37,15.1 37.2,15.4 39.1,18.7 38.3,22.9 35.2,25.4 32.9,27.3 29.7,27.6 27.3,26.5 27,26.3 26.8,26.3 26.7,26.2 L 26.7,26.2 26.7,26.2 C 26.1,25.9 25.5,25.4 25,25 24.8,25 24.7,24.8 24.4,24.8 23.8,24.8 23.2,25.1 22.7,25.6 L 22.5,25.8 22.5,25.8 C 20.6,27.7 18.5,29.1 16.1,29.8 L 15.2,31.7 18.2,34.7 18.4,34.9 19,34.6 23.5,32.3 26.6,33.5 28.3,38.8 32.8,38.8 33,38.2 34.6,33.5 37.7,32.3 43,34.6 46,31.3 45.7,30.7 43.3,26.3 Z" style="fill:#7a7a7a"/><path id="path5" d="M 16.5,18.5 16.5,18.5 16.5,18.5 C 13.1,22.1 7.6,22.1 4.4,18.3 4.1,17.8 3.3,17.8 3,18.3 2.8,18.5 2.7,18.8 2.7,19.1 2.7,19.4 2.9,19.7 3,19.9 7,24.4 13.7,24.5 18,20.1 L 18,20.1 18,20.1 C 21.4,16.7 26.7,16.6 30,20.4 30.5,20.9 31.1,20.9 31.4,20.4 31.6,20.2 31.7,19.9 31.7,19.6 31.7,19.3 31.5,19 31.4,18.8 27.4,14.3 20.7,14.2 16.5,18.5 Z" style="fill:#48c8ef"/><path id="path7" d="M 24,20.4 C 22.1,20.4 20.6,21 19.2,22.4 L 19,22.6 18.8,22.8 C 16.5,25.3 13.3,26.5 10.1,26.4 6.8,26.4 3.9,24.8 1.5,22.4 1,21.9 0.4,21.9 0.1,22.4 0,22.4 0,22.6 0,22.9 0,23.2 0.3,23.7 0.5,23.8 3.1,26.8 6.7,28.5 10.5,28.5 14.2,28.7 17.8,27.1 20.6,24.1 L 20.8,23.9 21,23.7 C 21.9,22.8 23,22.3 24.3,22.3 25.5,22.3 26.6,22.9 27.6,23.9 28.1,24.4 28.7,24.4 29,23.9 29.2,23.7 29.3,23.4 29.3,23.1 29.3,22.8 29.1,22.5 29,22.3 27.6,21.2 25.9,20.4 24,20.4 Z" style="fill:#00abec"/><path id="path9" d="M 15.6,16.3 C 17.9,13.8 21.1,12.6 24.3,12.6 27.5,12.6 30.5,14.2 32.7,16.6 33.2,17.1 33.8,17.1 34.1,16.6 34.3,16.4 34.4,16.1 34.4,15.8 34.4,15.5 34.2,15.2 34.1,15 31.5,12 27.9,10.3 24.1,10.3 20.3,10.3 16.8,11.7 14,14.7 L 13.8,14.9 13.6,15.1 C 12.7,16 11.6,16.5 10.3,16.5 9,16.5 8,15.9 7,14.9 6.5,14.4 5.9,14.4 5.6,14.9 5.4,15.1 5.3,15.4 5.3,15.7 5.3,16 5.5,16.3 5.6,16.5 6.8,17.9 8.6,18.7 10.3,18.7 12.2,18.7 13.7,18.1 15.1,16.7 L 15.3,16.5 15.6,16.3 Z" style="fill:#84d6ef"/><g id="g11" transform="translate(0,-5.7)" style="opacity:.2"><path id="path13" d="M 24.9,30.6 C 24.7,30.6 24.6,30.4 24.3,30.4 23.7,30.4 23.1,30.7 22.6,31.2 L 22.4,31.4 C 20.5,33.3 18.4,34.7 16,35.4 L 15.1,37.3 16.7,38.9 24.9,30.6 C 24.9,30.6 24.9,30.6 24.9,30.6 Z" style="fill:#f1f1f1"/><path id="path15" d="M 16.4,16.3 C 18.9,14.9 21.5,14.3 24.3,14.3 28.2,14.5 31.8,15.9 34.6,18.5 35.1,18.9 35.5,19.2 36,19.6 L 44.3,11.3 42.6,9.6 42,9.9 37.5,12.2 34.4,11 32.4,5.7 27.9,5.7 27.7,6.3 26.2,11 23.1,12.2 17.8,9.9 14.6,13 14.9,13.6 16.4,16.3 Z" style="fill:#f1f1f1"/></g></svg>