<svg xmlns="http://www.w3.org/2000/svg" xmlns:svg="http://www.w3.org/2000/svg" id="Layer_1" width="50.077" height="28.714" x="0" y="0" enable-background="new 0 0 50 50" version="1.1" viewBox="0 0 50.077 28.714" xml:space="preserve"><metadata id="metadata7572"/><path id="path7561" d="m 49.738535,15.075 c 0.5,-0.5 0.4,-1.3 0,-1.8 l -2.4,-2.4 -10.8,-10.5 c -0.5,-0.5 -1.2,-0.5 -1.7,0 v 0 c -0.5,0.5 -0.6,1.3 0,1.8 l 11.3,11.1 c 0.5,0.5 0.5,1.3 0,1.8 l -11.5,11.5 c -0.5,0.5 -0.5,1.3 0,1.8 v 0 c 0.5,0.5 1.3,0.4 1.7,0 l 10.7,-10.6 c 0,0 0,0 0.1,-0.1 z" style="fill:#3999c6"/><path id="path7563" d="m 0.33853532,15.075 c -0.5,-0.5 -0.4,-1.3 0,-1.8 l 2.39999998,-2.4 10.7999997,-10.5 c 0.5,-0.5 1.2,-0.5 1.7,0 v 0 c 0.5,0.5 0.6,1.3 0,1.8 l -11.0999997,11.1 c -0.5,0.5 -0.5,1.3 0,1.8 l 11.2999997,11.5 c 0.5,0.5 0.5,1.3 0,1.8 v 0 c -0.5,0.5 -1.3,0.4 -1.7,0 L 2.8385353,17.875 c 0,0 0,0 -0.1,-0.1 z" style="fill:#3999c6"/><path id="path7565" d="m 28.438535,14.175 c 0,1.9 -1.6,3.3 -3.3,3.3 -1.7,0 -3.5,-1.6 -3.5,-3.3 0,-1.7 1.4,-3.3 3.5,-3.3 2,0 3.3,1.6 3.3,3.3 z" style="fill:#7fba00"/></svg>