<svg xmlns="http://www.w3.org/2000/svg" xmlns:svg="http://www.w3.org/2000/svg" id="Layer_1" width="32.379" height="50" x="0" y="0" enable-background="new 0 0 50 50" version="1.1" viewBox="0 0 32.379 50" xml:space="preserve"><metadata id="metadata7880"/><path id="path7869" d="m 25.255,14.928 c 0,5.006 -4.059,9.065 -9.066,9.065 -5.007,0 -9.065,-4.059 -9.065,-9.065 0,-5.006 4.058,-9.065 9.065,-9.065 5.007,0 9.066,4.059 9.066,9.065" style="fill:#59b4d9"/><polygon id="polygon7871" points="18.562 27.1 9.001 27.1 9.001 50 41.38 50 41.38 27.1 31.818 27.1 25.19 36.387" transform="translate(-9.001)" style="fill:#59b4d9"/><path id="path7873" d="m 30.965,24.14 h -6.881 v -3.33 h 3.552 V 14.983 C 27.636,8.557 22.408,3.329 15.982,3.329 9.556,3.329 4.328,8.557 4.328,14.983 v 1.665 H 0.998 V 14.983 C 0.998,6.722 7.72,0 15.981,0 24.242,0 30.964,6.722 30.964,14.983 Z" style="fill:#59b4d9"/></svg>