<svg xmlns="http://www.w3.org/2000/svg" xmlns:svg="http://www.w3.org/2000/svg" id="Layer_1" width="32.38" height="50" x="0" y="0" enable-background="new 0 0 50 50" version="1.1" viewBox="0 0 32.38 50" xml:space="preserve"><metadata id="metadata7775"/><path id="path7758" d="m 25.256,14.928 c 0,5.006 -4.059,9.065 -9.066,9.065 -5.007,0 -9.065,-4.059 -9.065,-9.065 0,-5.006 4.058,-9.065 9.065,-9.065 5.007,0 9.066,4.059 9.066,9.065" style="fill:#59b4d9"/><polygon id="polygon7760" points="18.562 27.1 9.001 27.1 9.001 50 41.38 50 41.38 27.1 31.818 27.1 25.19 36.387" transform="translate(-9)" style="fill:#59b4d9"/><path id="path7762" d="m 7.126,14.928 c 0,4.931 3.939,8.935 8.843,9.054 L 18.246,6.107 C 17.585,5.953 16.9,5.864 16.191,5.864 11.183,5.863 7.126,9.922 7.126,14.928" style="opacity:.2;fill:#fff"/><polygon id="polygon7764" points="9 50 21.696 50 23.698 34.297 18.564 27.1 9 27.1" transform="translate(-9)" style="opacity:.2;fill:#fff"/><path id="path7766" d="m 30.966,24.14 h -6.881 v -3.33 h 3.552 V 14.983 C 27.637,8.557 22.409,3.329 15.983,3.329 9.557,3.329 4.329,8.557 4.329,14.983 v 1.665 H 0.999 V 14.983 C 0.999,6.722 7.721,0 15.982,0 24.243,0 30.965,6.722 30.965,14.983 v 9.157 z" style="fill:#3e3e3e"/><path id="path7768" d="M 15.982,0 C 7.721,0 0.999,6.722 0.999,14.983 v 1.665 h 3.33 v -1.665 c 0,-6.426 5.228,-11.654 11.654,-11.654 0.964,0 1.896,0.131 2.793,0.352 L 19.192,0.354 C 18.156,0.128 17.085,0 15.982,0 Z" style="opacity:.2;fill:#fff"/></svg>