<svg xmlns="http://www.w3.org/2000/svg" xmlns:svg="http://www.w3.org/2000/svg" id="Layer_1" width="50" height="49.4" x="0" y="0" enable-background="new 0 0 50 50" version="1.1" viewBox="0 0 50 49.4" xml:space="preserve"><metadata id="metadata7963"/><path id="path7952" d="M 42.3,0 28.6,0.5 0,29.1 20.3,49.4 48.9,20.8 50,7.7 Z m 1.1,10.6 c -1.1,1.1 -2.9,1.1 -4,0 -1.1,-1.1 -1.1,-2.9 0,-4 1.1,-1.1 2.9,-1.1 4,0 1.1,1.1 1.1,2.9 0,4 z" style="fill:#804998"/><polygon id="polygon7954" points="24.9 45.2 24.9 4.5 0 29.4 20.3 49.7" transform="translate(0,-0.3)" style="opacity:.1;fill:#fff"/><path id="path7956" d="m 45.1,4.9 c -2,-2 -5.3,-2 -7.3,0 -2,2 -2,5.3 0,7.3 2,2 5.3,2 7.3,0 2,-2 2,-5.3 0,-7.3 z m -1.7,5.7 c -1.1,1.1 -2.9,1.1 -4,0 -1.1,-1.1 -1.1,-2.9 0,-4 1.1,-1.1 2.9,-1.1 4,0 1.1,1.1 1.1,2.9 0,4 z" style="opacity:.3;fill:#1e1e1e"/></svg>