<svg xmlns="http://www.w3.org/2000/svg" xmlns:svg="http://www.w3.org/2000/svg" id="Layer_1" width="42.2" height="50" x="0" y="0" enable-background="new 0 0 50 50" version="1.1" viewBox="0 0 42.2 50" xml:space="preserve"><metadata id="metadata25"/><path id="path3" d="M 30.6,0 20.7,0.4 0,21.1 14.7,35.8 35.4,15.1 36.2,5.6 30.6,0 Z M 31.4,7.7 C 30.6,8.5 29.3,8.5 28.5,7.7 27.7,6.9 27.7,5.6 28.5,4.8 29.3,4 30.6,4 31.4,4.8 32.2,5.6 32.2,6.9 31.4,7.7 Z" style="fill:#7fba00"/><polygon id="polygon5" points="21.9 3.1 3.9 21.1 18.6 35.8 21.9 32.5" transform="translate(-3.9,0)" style="opacity:.1;fill:#fff"/><path id="path7" d="M 32.6,3.6 C 31.1,2.1 28.8,2.1 27.3,3.6 25.8,5.1 25.8,7.4 27.3,8.9 28.8,10.4 31.1,10.4 32.6,8.9 34.1,7.4 34.1,5 32.6,3.6 Z M 31.4,7.7 C 30.6,8.5 29.3,8.5 28.5,7.7 27.7,6.9 27.7,5.6 28.5,4.8 29.3,4 30.6,4 31.4,4.8 32.2,5.6 32.2,6.9 31.4,7.7 Z" style="opacity:.3;fill:#1e1e1e"/><path id="path9" d="M 33.6,7.1 23.7,7.5 3,28.2 17.7,42.9 38.4,22.2 39.2,12.7 33.6,7.1 Z M 34.4,14.8 C 33.6,15.6 32.3,15.6 31.5,14.8 30.7,14 30.7,12.7 31.5,11.9 32.3,11.1 33.6,11.1 34.4,11.9 35.2,12.7 35.2,14 34.4,14.8 Z" style="fill:#3999c6"/><polygon id="polygon11" points="24.9 10.2 6.9 28.2 21.6 42.9 24.9 39.6" transform="translate(-3.9,0)" style="opacity:.1;fill:#fff"/><path id="path13" d="M 35.6,10.7 C 34.1,9.2 31.8,9.2 30.3,10.7 28.8,12.2 28.8,14.5 30.3,16 31.8,17.5 34.1,17.5 35.6,16 37.1,14.5 37.1,12.2 35.6,10.7 Z M 34.4,14.8 C 33.6,15.6 32.3,15.6 31.5,14.8 30.7,14 30.7,12.7 31.5,11.9 32.3,11.1 33.6,11.1 34.4,11.9 35.2,12.7 35.2,14 34.4,14.8 Z" style="opacity:.3;fill:#1e1e1e"/><path id="path15" d="M 36.6,14.2 26.7,14.6 6,35.3 20.7,50 41.4,29.3 42.2,19.8 36.6,14.2 Z M 37.4,21.9 C 36.6,22.7 35.3,22.7 34.5,21.9 33.7,21.1 33.7,19.8 34.5,19 35.3,18.2 36.6,18.2 37.4,19 38.2,19.8 38.2,21.1 37.4,21.9 Z" style="fill:#804998"/><polygon id="polygon17" points="27.9 17.3 9.9 35.3 24.6 50 27.9 46.7" transform="translate(-3.9,0)" style="opacity:.1;fill:#fff"/><path id="path19" d="M 38.6,17.8 C 37.1,16.3 34.8,16.3 33.3,17.8 31.8,19.3 31.8,21.6 33.3,23.1 34.8,24.6 37.1,24.6 38.6,23.1 40.1,21.6 40.1,19.3 38.6,17.8 Z M 37.4,21.9 C 36.6,22.7 35.3,22.7 34.5,21.9 33.7,21.1 33.7,19.8 34.5,19 35.3,18.2 36.6,18.2 37.4,19 38.2,19.8 38.2,21.1 37.4,21.9 Z" style="opacity:.3;fill:#1e1e1e"/></svg>