<svg xmlns="http://www.w3.org/2000/svg" xmlns:svg="http://www.w3.org/2000/svg" id="Layer_1" width="50" height="47.3" x="0" y="0" enable-background="new 0 0 50 50" version="1.1" viewBox="0 0 50 47.3" xml:space="preserve"><metadata id="metadata8328"/><path id="path8303" d="M 32.4,37.7 H 31.2 19.4 18.8 c 1.6,5.8 -0.6,6.6 -10.2,6.6 v 3 h 12.2 8.9 11.5 v -3 c -9.5,0 -10.4,-0.8 -8.8,-6.6" style="fill:#7a7a7a"/><path id="path8305" d="M 47,0 H 2.7 C 1.2,0 0,1.4 0,2.9 v 32 c 0,1.5 1.2,2.8 2.7,2.8 H 47 c 1.5,0 3,-1.3 3,-2.8 V 2.9 C 50,1.4 48.5,0 47,0 M 46.2,3.9 V 33.8 H 3.8 V 3.9 L 46.2,3.8 Z" style="fill:#a0a1a2"/><polygon id="polygon8307" points="3.8 4.6 46.2 4.5 46.2 34.5 3.8 34.5" transform="translate(0,-0.7)" style="fill:#59b4d9"/><path id="path8309" d="m 3.8,33.8 v 0 V 3.9 L 42.5,3.8 47,0 c 0,0 0,0 0,0 H 2.7 C 1.2,0 0,1.4 0,2.9 v 32 c 0,1.5 1.2,2.8 2.7,2.8 H 3.8 L 8.4,33.9 H 3.8 Z" style="opacity:.2;fill:#fff"/><polygon id="polygon8311" points="3.8 4.6 42.5 4.5 42.5 4.5 3.8 4.6 3.8 34.5" transform="translate(0,-0.7)" style="fill:#59b4d9"/><rect id="rect8313" width="32.7" height="3" x="8.7" y="44.3" style="fill:#a0a1a2"/><path id="path8315" d="M 8.6,12.6 8.1,12.1 C 8,12 8,11.8 8.1,11.6 l 1.4,-1.2 c 0,-0.1 0.1,-0.1 0.2,-0.1 0.1,0 0.2,0 0.2,0.1 l 3.7,4 6.4,-8.1 c 0.1,-0.1 0.2,-0.1 0.3,-0.1 0.1,0 0.1,0 0.2,0.1 l 1.5,1 c 0.1,0.1 0.1,0.1 0.1,0.2 0,0.1 0,0.2 -0.1,0.2 l -8.3,10.5 z" style="fill:#fff"/><rect id="rect8317" width="20" height="3.3" x="22" y="12.6" style="opacity:.6;fill:#fff"/><path id="path8319" d="M 8.6,25.7 8.1,25.2 C 8,25.1 8,24.9 8.1,24.7 l 1.4,-1.2 c 0.1,-0.1 0.1,-0.1 0.2,-0.1 0.1,0 0.2,0 0.2,0.1 l 3.7,4 6.4,-8.1 c 0.1,-0.1 0.2,-0.1 0.3,-0.1 0.1,0 0.1,0 0.2,0.1 l 1.5,1.1 c 0.1,0.1 0.1,0.1 0.1,0.2 0,0.1 0,0.2 -0.1,0.2 l -8.2,10.4 z" style="fill:#fff"/><rect id="rect8321" width="20" height="3.3" x="22" y="25.7" style="opacity:.6;fill:#fff"/></svg>