<svg xmlns="http://www.w3.org/2000/svg" xmlns:svg="http://www.w3.org/2000/svg" id="Layer_1" width="49.5" height="38.3" x="0" y="0" enable-background="new 0 0 50 50" version="1.1" viewBox="0 0 49.5 38.3" xml:space="preserve"><metadata id="metadata8210"/><path id="path8191" d="M 47.3,3.5 H 13.4 c -1.2,0 -2.2,1 -2.2,2.2 0,1.2 1,2.2 2.2,2.2 h 33.9 c 1.2,0 2.2,-1 2.2,-2.2 0,-1.2 -1,-2.2 -2.2,-2.2 z" style="fill:#59b4d9"/><path id="path8193" d="M 47.3,16.6 H 13.4 c -1.2,0 -2.2,1 -2.2,2.2 0,1.2 1,2.2 2.2,2.2 h 33.9 c 1.2,0 2.2,-1 2.2,-2.2 0,-1.2 -1,-2.2 -2.2,-2.2 z" style="fill:#59b4d9"/><path id="path8195" d="M 47.3,29.8 H 13.4 c -1.2,0 -2.2,1 -2.2,2.2 0,1.2 1,2.2 2.2,2.2 h 33.9 c 1.2,0 2.2,-1 2.2,-2.2 0,-1.2 -1,-2.2 -2.2,-2.2 z" style="fill:#59b4d9"/><g id="g8203" transform="translate(-0.5,-7.1)"><path id="path8197" d="m 4.8,7.2 v 10 H 2.6 V 9.6 C 2.4,9.8 2.1,10 1.7,10.1 1.3,10.2 0.9,10.4 0.5,10.4 V 8.6 C 1.6,8.3 2.6,7.8 3.4,7.1 h 1.4 z"/><path id="path8199" d="m 2.9,29.4 h 4.2 v 1.8 H 0.6 V 30.5 C 0.6,30 0.7,29.5 0.9,29.1 1.1,28.7 1.3,28.3 1.7,27.9 2,27.5 2.5,27.1 3.2,26.6 3.8,26.1 4.3,25.7 4.5,25.4 4.8,25.1 4.9,24.7 4.9,24.3 4.9,23.5 4.4,23 3.5,23 2.7,23 1.9,23.3 1.1,24 V 22 C 2,21.4 2.9,21.2 4,21.2 c 1,0 1.8,0.2 2.3,0.7 0.6,0.5 0.9,1.2 0.9,2 0,0.5 -0.1,0.9 -0.3,1.3 C 6.7,25.6 6.5,26 6.2,26.3 5.9,26.6 5.4,27.1 4.7,27.5 4,28 3.6,28.3 3.4,28.6 3,29 2.9,29.2 2.9,29.4 Z"/><path id="path8201" d="m 7.3,42.4 c 0,0.9 -0.3,1.6 -1,2.2 -0.7,0.5 -1.6,0.8 -2.8,0.8 -1,0 -1.8,-0.2 -2.5,-0.5 V 43 c 0.6,0.5 1.4,0.7 2.3,0.7 0.6,0 1,-0.1 1.3,-0.4 C 4.9,43.1 5,42.7 5,42.3 5,41.9 4.8,41.5 4.4,41.3 4,41.1 3.6,41 2.9,41 H 2 v -1.7 h 0.8 c 1.3,0 1.9,-0.4 1.9,-1.3 0,-0.8 -0.5,-1.2 -1.5,-1.2 -0.7,0 -1.3,0.2 -1.9,0.6 v -1.8 c 0.7,-0.3 1.5,-0.5 2.4,-0.5 1,0 1.7,0.2 2.3,0.7 0.6,0.5 0.9,1 0.9,1.8 C 7,38.9 6.3,39.7 5,40 v 0 c 0.7,0.1 1.2,0.3 1.6,0.7 0.4,0.5 0.7,1.1 0.7,1.7 z"/></g></svg>