<svg xmlns="http://www.w3.org/2000/svg" xmlns:xlink="http://www.w3.org/1999/xlink" id="Layer_1" width="50" height="50" x="0" y="0" enable-background="new .5 .5 50 50" version="1.1" viewBox="0.5 0.5 50 50" xml:space="preserve"><rect width="11.062" height="3.571" x="26.839" y="12.777" fill="#68217A"/><rect width="3.571" height="11.232" x="12.777" y="26.768" fill="#68217A"/><rect width="12.926" height="3.571" x="21.35" y="26.028" fill="#68217A" transform="matrix(0.7071 0.7071 -0.7071 0.7071 27.8135 -11.5206)"/><path fill="#804998" d="M14.562,28.625C6.808,28.625,0.5,22.317,0.5,14.563S6.808,0.5,14.562,0.5s14.062,6.308,14.062,14.062	S22.316,28.625,14.562,28.625z M14.562,4.072c-5.784,0-10.491,4.706-10.491,10.491s4.707,10.491,10.491,10.491	s10.491-4.706,10.491-10.491S20.347,4.072,14.562,4.072z"/><circle cx="43.357" cy="14.563" r="7.143" fill="#804998"/><circle cx="14.563" cy="43.357" r="7.143" fill="#804998"/><circle cx="34.987" cy="34.987" r="7.143" fill="#804998"/></svg>