<svg xmlns="http://www.w3.org/2000/svg" xmlns:svg="http://www.w3.org/2000/svg" id="Layer_1" width="23" height="23" x="0" y="0" enable-background="new 0 0 24 24" version="1.1" viewBox="0 0 23 23" xml:space="preserve"><metadata id="metadata13"/><path id="path3" d="M 12.661,15.093 10.661,4.093 8.15,11 0.025,11 C 0.018,11.167 0,11.331 0,11.5 0,11.669 0.018,11.833 0.025,12 L 8.85,12 10.338,7.907 12.338,18.907 14.851,12 22.975,12 C 22.982,11.833 23,11.669 23,11.5 23,11.331 22.982,11.167 22.975,11 L 14.15,11 12.661,15.093 Z" style="fill:#0072c6"/><path id="path5" d="M 1.12,10 C 1.852,4.92 6.221,1 11.5,1 16.779,1 21.148,4.92 21.88,10 L 22.891,10 C 22.154,4.359 17.342,0 11.5,0 5.658,0 0.846,4.359 0.109,10 L 1.12,10 Z" style="fill:#59b4d9"/><path id="path7" d="M 21.88,13 C 21.148,18.08 16.779,22 11.5,22 6.221,22 1.852,18.08 1.12,13 L 0.109,13 C 0.846,18.641 5.658,23 11.5,23 17.342,23 22.154,18.641 22.891,13 L 21.88,13 Z" style="fill:#59b4d9"/></svg>