<svg xmlns="http://www.w3.org/2000/svg" xmlns:svg="http://www.w3.org/2000/svg" id="Layer_1" width="45" height="40.6" x="0" y="0" enable-background="new 0 0 50 50" version="1.1" viewBox="0 0 45 40.6" xml:space="preserve"><metadata id="metadata991"/><path id="path968" d="M 0,40.6 V 12.8 C 0,11.2 1.3,9.9 2.9,9.9 H 42 c 1.6,0 2.9,1.3 2.9,2.9 v 27.8 z" style="fill:#ba141a"/><path id="path970" d="m 42.3,26.6 c -2.9,0 -5.2,2.3 -5.2,5.2 0,2.9 2.3,5.2 5.2,5.2 1,0 1.9,-0.3 2.7,-0.8 v -8.8 c -0.8,-0.5 -1.7,-0.8 -2.7,-0.8 z" style="fill:#804998"/><path id="path972" d="M 35.1,9.9 H 31.7 V 5 C 31.7,4.1 31,3.4 30.1,3.4 H 14.9 C 14,3.4 13.3,4.1 13.3,5 V 9.9 H 9.9 V 5 c 0,-2.8 2.2,-5 5,-5 h 15.2 c 2.8,0 5,2.2 5,5 z" style="fill:#0f0f0f"/><polygon id="polygon974" points="2 38.3 17.6 42.1 19.1 35.8 2 31.7" enable-background="new" transform="translate(-2,-5)" style="opacity:.6;fill:#fee087"/><path id="path976" d="m 14.8,14.3 c 0.3,1.7 -2.4,3.4 -6,4 -3.6,0.6 -6.7,-0.3 -7,-2 -0.3,-1.7 2.4,-3.4 6,-4 3.7,-0.5 6.8,0.4 7,2" enable-background="new" style="opacity:.8;fill:#ff8c00"/><path id="path978" d="m 42.3,28.3 c -2,0 -3.5,1.6 -3.5,3.5 0,1.9 1.6,3.5 3.5,3.5 1.1,0 2.1,-0.5 2.7,-1.3 v -4.4 c -0.6,-0.8 -1.6,-1.3 -2.7,-1.3 z" enable-background="new" style="opacity:.2;fill:#fff"/><rect id="rect980" width="45" height="2.1" x="0" y="22.1" enable-background="new" style="opacity:.3;fill:#1e1e1e"/><path id="path982" d="m 26.2,21 c 0.7,0 1.3,0.6 1.3,1.3 v 4 c 0,0.7 -0.6,1.3 -1.3,1.3 h -7.4 c -0.7,0 -1.3,-0.6 -1.3,-1.3 v -4 c 0,-0.7 0.6,-1.3 1.3,-1.3 z" enable-background="new" style="opacity:.3;fill:#1e1e1e"/><rect id="rect984" width="45" height="2.1" x="0" y="21" style="fill:#e5e5e5"/></svg>