<svg xmlns="http://www.w3.org/2000/svg" xmlns:svg="http://www.w3.org/2000/svg" id="Layer_1" width="46.8" height="50.036" x="0" y="0" enable-background="new 0 0 50 50" version="1.1" viewBox="0 0 46.8 50.036" xml:space="preserve"><metadata id="metadata1067"/><path id="path1056" d="m 39.6,11.235954 0.5,0.5 2.5,-2.1000004 4.2,-6.9 -1.1,-1.1 -6.6,4.4 -2,2.6 0.5,0.5 -13.1,13.5000004 -2.7,-2.8 -3,3.1 c 0.2,1.5 -0.3,3.1 -1.4,4.3 -1.1,1.2 -2.7,1.7 -4.1,1.5 l -13.3,13.6 7.4,7.7 13.2,-13.7 c -0.2,-1.5 0.3,-3.1 1.5,-4.3 1.1,-1.2 2.7,-1.7 4.1,-1.5 l 3,-3.1 -2.7,-2.8 z" style="fill:#59b4d9"/><path id="path1058" d="m 38.4,46.035954 c 1.9,2 5,2 6.9,0 1,-1 1.4,-2.3 1.4,-3.6 0,-1.3 -0.5,-2.6 -1.4,-3.6 l -14.8,-15.2 -1.4,1.5 2.7,2.8 -1.2,1.1 -3,3.1 -0.4,0.4 -0.6,-0.1 c -0.4,0 -0.9,0 -1.3,0.1 z" style="fill:#59b4d9"/><path id="path1060" d="M 18.7,3.1359536 C 16,0.33595355 12.1,-0.56404645 8.7,0.33595355 l 5.9,6.00000005 -1.5,5.9000004 -5.8,1.6 -5.8,-6.0000004 c -0.9,3.6000004 0,7.5000004 2.7,10.3000004 2.7,2.8 6.6,3.7 10.1,2.7 l 0.2,0.2 2.7,2.8 c 0.1,-0.3 0.1,-0.6 0.1,-0.9 0,-0.2 0,-0.3 0,-0.5 l -0.2,-0.4 4.5,-4.7 0.8,0.9 1.8,1.9 1.4,-1.5 -4.3,-4.6 v 0 c 1.1,-3.7 0.3,-7.9000004 -2.6,-10.9000004 z" style="fill:#59b4d9"/></svg>