<svg xmlns="http://www.w3.org/2000/svg" xmlns:svg="http://www.w3.org/2000/svg" id="Layer_1" width="50" height="50" x="0" y="0" enable-background="new 0 0 50 50" version="1.1" viewBox="0 0 50 50" xml:space="preserve"><metadata id="metadata1222"/><polygon id="polygon1207" points="35.368 0 14.662 0 0 15.029 0 35.426 14.632 50 35.368 50 50 35.5 50 14.588" style="fill:#804998"/><path id="path1209" d="M 34.538,2 H 15.488 L 2,15.827 V 34.592 L 15.462,48 H 34.539 L 48,34.66 V 15.421 Z m -1.135,43.24 h -0.152 l -11.28,-11.446 2.382,-2.662 h -8.177 v 8.382 l 2.677,-2.882 8.868,8.608 H 16.602 L 4.76,33.446 V 16.95 l 3.322,-3.406 8.829,7.955 -5.029,5.221 H 27.941 V 10.765 L 22.691,16 13.806,7.677 16.652,4.76 H 33.397 L 45.24,16.567 v 14.745 l -5.622,-5.298 4.118,-3.706 H 32.353 v 10.75 l 3.72,-3.691 6.368,6.915 z" enable-background="new" style="opacity:.8;fill:#fff"/><polygon id="polygon1211" points="14.662 0 0 15.029 0 35.427 7.503 42.899 42.896 7.506 35.368 0" enable-background="new" style="opacity:.2;fill:#fff"/><circle id="circle1213" cx="8" cy="42" r="8" style="fill:#7fba00"/><path id="path1215" d="M 3.989,42.469 3.7,42.156 C 3.625,42.073 3.625,41.942 3.712,41.863 l 0.835,-0.772 c 0.04,-0.036 0.087,-0.055 0.139,-0.055 0.059,0 0.111,0.024 0.15,0.067 l 2.296,2.462 3.951,-5.06 c 0.04,-0.051 0.099,-0.079 0.162,-0.079 0.048,0 0.091,0.016 0.127,0.044 l 0.903,0.697 c 0.044,0.032 0.071,0.079 0.079,0.135 0.004,0.055 -0.008,0.111 -0.044,0.15 l -5.075,6.497 z" style="fill:#fff"/></svg>