<svg xmlns="http://www.w3.org/2000/svg" xmlns:xlink="http://www.w3.org/1999/xlink" id="Layer_1" width="50" height="50" x="0" y="0" enable-background="new 0 0 50 50" version="1.1" viewBox="0 0 50 50" xml:space="preserve"><polygon fill="#804998" points="50 35.5 50 14.588 35.368 0 14.662 0 0 15.029 0 35.426 14.632 50 35.368 50"/><path fill="#FFF" d="M34.538,2h-19.05L2,15.827v18.765L15.462,48h19.077L48,34.66	V15.421L34.538,2z M33.403,45.24h-0.152l-11.28-11.446l2.382-2.662h-8.177v8.382l2.677-2.882l8.868,8.608H16.602L4.76,33.446V16.95	l3.322-3.406l8.829,7.955l-5.029,5.221h16.059V10.765L22.691,16l-8.885-8.323l2.846-2.917h16.745L45.24,16.567v14.745l-5.622-5.298	l4.118-3.706H32.353v10.75l3.72-3.691l6.368,6.915L33.403,45.24z" enable-background="new" opacity=".8"/><polygon fill="#FFF" points="42.896 7.506 35.368 0 14.662 0 0 15.029 0 35.427 7.503 42.899" enable-background="new" opacity=".2"/><circle cx="8" cy="42" r="8" fill="#7A7A7A"/><rect width="10" height="2" x="3" y="41" fill="#FFF"/></svg>