<svg xmlns="http://www.w3.org/2000/svg" xmlns:xlink="http://www.w3.org/1999/xlink" id="Layer_1" width="50" height="50" x="0" style="enable-background:new 0 0 50 50" y="0" version="1.1" viewBox="0 0 50 50" xml:space="preserve"><style type="text/css">.st0{fill:#59b4d9}.st1{opacity:.2;fill:#fff;enable-background:new}.st2{fill:#a0a1a2}</style><path d="M43,15.9c0,4.9-3.9,8.8-8.8,8.8s-8.8-3.9-8.8-8.8c0.1-4.9,4-8.8,8.8-8.8C39.1,7.1,43,11,43,15.9" class="st0"/><polygon points="40.6 27.8 34.2 36.8 27.8 27.8 18.5 27.8 18.5 50 50 50 50 27.8" class="st0"/><path d="M25.5,15.9c0,4.8,3.9,8.7,8.6,8.8l2.2-17.3c-0.7-0.3-1.4-0.3-2.1-0.3C29.4,7.1,25.5,11,25.5,15.9" class="st1"/><polygon points="27.8 27.8 18.5 27.8 18.5 50 30.9 50 32.8 34.7" class="st1"/><polygon points="5.6 18.4 10.5 23.6 6.5 23.6 0 16.9 6.5 10.2 10.5 10.2 5.6 15.3 20 15.3 20 18.4" class="st2"/><polygon points="20 0 20 18.4 16.9 18.4 16.9 0" class="st2"/></svg>