<svg xmlns="http://www.w3.org/2000/svg" xmlns:svg="http://www.w3.org/2000/svg" id="Layer_1" width="50" height="44.501" x="0" y="0" enable-background="new 0 0 50 50" version="1.1" viewBox="0 0 50 44.501" xml:space="preserve"><metadata id="metadata1492"/><path id="path1475" d="m 0,31.283 c 0,0.853 0.691,1.545 1.545,1.545 h 35.41 c 0.854,0 1.545,-0.692 1.545,-1.545 V 7.16 H 0 Z" style="fill:#59b4d9"/><path id="path1477" d="M 36.955,0 H 1.545 C 0.691,0 0,0.691 0,1.545 V 7.418 H 38.501 V 1.545 C 38.501,0.691 37.808,0 36.955,0" style="fill:#a0a1a2"/><path id="path1479" d="M 1.551,0 C 0.698,0 0.006,0.691 0.006,1.545 v 5.614 2.569 21.555 c 0,0.853 0.692,1.545 1.545,1.545 H 3.236 L 33.588,0 Z" style="opacity:.2;fill:#fff"/><path id="path1481" d="m 11.499,42.956 c 0,0.853 0.691,1.545 1.545,1.545 h 35.41 c 0.854,0 1.545,-0.692 1.545,-1.545 V 18.832 h -38.5 z" style="fill:#0072c6"/><path id="path1483" d="m 48.455,11.673 h -35.41 c -0.854,0 -1.545,0.691 -1.545,1.545 v 5.873 H 50 v -5.873 c 0,-0.854 -0.692,-1.545 -1.545,-1.545" style="fill:#3e3e3e"/><path id="path1485" d="m 13.05,11.673 c -0.853,0 -1.545,0.691 -1.545,1.545 v 5.614 2.569 21.555 c 0,0.853 0.692,1.545 1.545,1.545 h 1.685 L 45.087,11.672 H 13.05 Z" style="opacity:.2;fill:#fff"/></svg>