<svg xmlns="http://www.w3.org/2000/svg" xmlns:svg="http://www.w3.org/2000/svg" id="Layer_1" width="50" height="46.1" x="0" y="0" enable-background="new 0 0 50 50" version="1.1" viewBox="0 0 50 46.1" xml:space="preserve"><metadata id="metadata2266"/><g id="g2249" transform="translate(0,-2)"><path id="path2237" d="M 32.4,38.5 H 31.2 19.4 18.8 c 1.6,5.8 -0.6,6.6 -10.2,6.6 v 3 h 12.2 8.9 11.5 v -3 c -9.5,0 -10.4,-0.8 -8.8,-6.6" style="fill:#7a7a7a"/><path id="path2239" d="M 47,2 H 2.7 C 1.2,2 0,3.3 0,4.8 v 30.9 c 0,1.5 1.2,2.8 2.7,2.8 H 47 c 1.5,0 3,-1.3 3,-2.8 V 4.8 C 50,3.3 48.5,2 47,2 M 46.2,5.8 V 34.6 H 3.8 V 5.8 L 46.2,5.7 Z" style="fill:#a0a1a2"/><polygon id="polygon2241" points="3.8 34.7 3.8 5.8 46.2 5.8 46.1 5.8 46.1 34.7" style="fill:#59b4d9"/><path id="path2243" d="m 3.8,34.7 v 0 V 5.8 L 42.5,5.7 47,2 c 0,0 0,0 0,0 H 2.7 C 1.2,2 0,3.3 0,4.8 v 30.9 c 0,1.5 1.2,2.8 2.7,2.8 h 1.1 l 4.6,-3.8 z" style="opacity:.2;fill:#fff"/><polygon id="polygon2245" points="3.8 5.8 42.5 5.8 42.5 5.8 3.8 5.8 3.8 34.7" style="fill:#59b4d9"/><path id="path2247" d="m 25.5,4.1 c 0,0.4 -0.3,0.7 -0.7,0.7 -0.4,0 -0.7,-0.3 -0.7,-0.7 0,-0.4 0.3,-0.7 0.7,-0.7 0.4,0 0.7,0.3 0.7,0.7" style="fill:#b8d432"/></g><g id="g2259" transform="translate(0,-2)"><polygon id="polygon2251" points="35.7 9.3 25.9 11 25.9 19 35.7 19" style="fill:#fff"/><polygon id="polygon2253" points="13.7 12.4 13.7 19 23.5 19 23.5 11.1" style="fill:#fff"/><polygon id="polygon2255" points="13.7 28.2 23.5 29.5 23.5 21.5 13.7 21.5" style="fill:#fff"/><polygon id="polygon2257" points="35.7 31.3 35.7 21.5 25.9 21.5 25.9 29.6" style="fill:#fff"/></g></svg>