<svg xmlns="http://www.w3.org/2000/svg" xmlns:svg="http://www.w3.org/2000/svg" id="Layer_1" width="50.077" height="28.714" x="0" y="0" enable-background="new 0 0 50 50" version="1.1" viewBox="0 0 50.077 28.714" xml:space="preserve"><metadata id="metadata17"/><path id="path3" d="M 49.738535,15.075 C 50.238535,14.575 50.138535,13.775 49.738535,13.275 L 47.338535,10.875 36.538535,0.375 C 36.038535,-0.125 35.338535,-0.125 34.838535,0.375 L 34.838535,0.375 C 34.338535,0.875 34.238535,1.675 34.838535,2.175 L 46.138535,13.275 C 46.638535,13.775 46.638535,14.575 46.138535,15.075 L 34.638535,26.575 C 34.138535,27.075 34.138535,27.875 34.638535,28.375 L 34.638535,28.375 C 35.138535,28.875 35.938535,28.775 36.338535,28.375 L 47.038535,17.775 C 47.038535,17.775 47.038535,17.775 47.138535,17.675 L 49.738535,15.075 Z" style="fill:#3999c6"/><path id="path5" d="M 0.33853532,15.075 C -0.16146468,14.575 -0.06146468,13.775 0.33853532,13.275 L 2.7385353,10.875 13.538535,0.375 C 14.038535,-0.125 14.738535,-0.125 15.238535,0.375 L 15.238535,0.375 C 15.738535,0.875 15.838535,1.675 15.238535,2.175 L 4.1385353,13.275 C 3.6385353,13.775 3.6385353,14.575 4.1385353,15.075 L 15.438535,26.575 C 15.938535,27.075 15.938535,27.875 15.438535,28.375 L 15.438535,28.375 C 14.938535,28.875 14.138535,28.775 13.738535,28.375 L 2.8385353,17.875 C 2.8385353,17.875 2.8385353,17.875 2.7385353,17.775 L 0.33853532,15.075 Z" style="fill:#3999c6"/><path id="path7" d="M 18.238535,14.175 C 18.238535,16.075 16.638535,17.475 14.938535,17.475 13.238535,17.475 11.438535,15.875 11.438535,14.175 11.438535,12.475 12.838535,10.875 14.938535,10.875 16.938535,10.875 18.238535,12.475 18.238535,14.175 Z" style="fill:#7fba00"/><path id="path9" d="M 28.338535,14.175 C 28.338535,16.075 26.738535,17.475 25.038535,17.475 23.338535,17.475 21.538535,15.875 21.538535,14.175 21.538535,12.475 23.138535,10.875 25.038535,10.875 26.938535,10.875 28.338535,12.475 28.338535,14.175 Z" style="fill:#7fba00"/><circle id="circle11" cx="35.239" cy="14.175" r="3.3" style="fill:#7fba00"/></svg>