<svg xmlns="http://www.w3.org/2000/svg" xmlns:svg="http://www.w3.org/2000/svg" id="Layer_1" width="50" height="46.1" x="0" y="0" enable-background="new 0 0 50 50" version="1.1" viewBox="0 0 50 46.1" xml:space="preserve"><metadata id="metadata17"/><path id="path3" d="M 47,0 2.7,0 C 1.2,0 0,1.3 0,2.8 L 0,33.7 C 0,35.2 1.2,36.5 2.7,36.5 L 18.8,36.5 C 20.4,42.3 18.2,43.1 8.6,43.1 L 8.6,46.1 20.8,46.1 29.7,46.1 41.2,46.1 41.2,43.1 C 31.6,43.1 30.6,42.3 32.3,36.5 L 47,36.5 C 48.5,36.5 50,35.2 50,33.7 L 50,2.8 C 50,1.3 48.5,0 47,0 Z" style="fill:#59b4d9"/><polygon id="polygon5" points="3.8 5.8 46.1 5.8 46.1 34.7 3.8 34.7" transform="translate(0,-2)" style="fill:#fff"/><path id="path7" d="M 25.5,17.4 C 25.5,17.4 25.4,17.4 25.4,17.4 L 16.6,12.3 C 16.5,12.3 16.5,12.2 16.5,12.1 16.5,12 16.6,11.9 16.6,11.9 L 25.4,6.9 C 25.5,6.9 25.6,6.9 25.7,6.9 L 34.5,12 C 34.6,12 34.6,12.1 34.6,12.2 34.6,12.3 34.6,12.4 34.5,12.4 L 25.8,17.4 C 25.6,17.4 25.6,17.4 25.5,17.4" style="fill:#0072c6"/><path id="path9" d="M 24.3,29.7 C 24.3,29.7 24.2,29.7 24.2,29.7 L 15.4,24.6 C 15.3,24.6 15.3,24.5 15.3,24.4 L 15.3,14.2 C 15.3,14.1 15.4,14 15.4,14 15.5,14 15.6,14 15.7,14 L 24.5,19.1 C 24.6,19.1 24.6,19.2 24.6,19.3 L 24.6,29.5 C 24.6,29.6 24.5,29.7 24.5,29.7 24.4,29.7 24.3,29.7 24.3,29.7" style="fill:#0072c6"/><path id="path11" d="M 26.8,29.7 C 26.8,29.7 26.7,29.7 26.7,29.7 26.6,29.7 26.6,29.6 26.6,29.5 L 26.6,19.4 C 26.6,19.3 26.7,19.2 26.7,19.2 L 35.5,14.1 C 35.6,14.1 35.7,14.1 35.8,14.1 35.9,14.1 35.9,14.2 35.9,14.3 L 35.9,24.4 C 35.9,24.5 35.8,24.6 35.8,24.6 L 27,29.7 C 26.9,29.7 26.8,29.7 26.8,29.7" style="fill:#0072c6"/></svg>