<svg xmlns="http://www.w3.org/2000/svg" xmlns:svg="http://www.w3.org/2000/svg" id="Layer_1" width="50" height="46.1" x="0" y="0" enable-background="new 0 0 50 50" version="1.1" viewBox="0 0 50 46.1" xml:space="preserve"><metadata id="metadata2018"/><g id="g1995" transform="translate(0,-2)"><path id="path1983" d="M 32.4,38.5 H 31.2 19.4 18.8 c 1.6,5.8 -0.6,6.6 -10.2,6.6 v 3 h 12.2 8.9 11.5 v -3 c -9.5,0 -10.4,-0.8 -8.8,-6.6" style="fill:#7a7a7a"/><path id="path1985" d="M 47,2 H 2.7 C 1.2,2 0,3.3 0,4.8 v 30.9 c 0,1.5 1.2,2.8 2.7,2.8 H 47 c 1.5,0 3,-1.3 3,-2.8 V 4.8 C 50,3.3 48.5,2 47,2 M 46.2,5.8 V 34.6 H 3.8 V 5.8 L 46.2,5.7 Z" style="fill:#a0a1a2"/><polygon id="polygon1987" points="3.8 34.7 3.8 5.8 46.2 5.8 46.1 5.8 46.1 34.7" style="fill:#59b4d9"/><path id="path1989" d="m 3.8,34.7 v 0 V 5.8 L 42.5,5.7 47,2 c 0,0 0,0 0,0 H 2.7 C 1.2,2 0,3.3 0,4.8 v 30.9 c 0,1.5 1.2,2.8 2.7,2.8 h 1.1 l 4.6,-3.8 z" style="opacity:.2;fill:#fff"/><polygon id="polygon1991" points="3.8 5.8 42.5 5.8 42.5 5.8 3.8 5.8 3.8 34.7" style="fill:#59b4d9"/><path id="path1993" d="m 25.5,4.1 c 0,0.4 -0.3,0.7 -0.7,0.7 -0.4,0 -0.7,-0.3 -0.7,-0.7 0,-0.4 0.3,-0.7 0.7,-0.7 0.4,0 0.7,0.3 0.7,0.7" style="fill:#b8d432"/></g><g id="g2011" transform="translate(0,-2)"><polygon id="polygon1997" points="18 27.8 19.7 25.1 18.8 21.2 18.2 18.4 19.6 15.5 26.3 13.8 28.5 15.4 30.3 18.7 29.3 25.6 32.6 34.1 32.9 34.7 14.2 34.7 15 32.7" style="clip-rule:evenodd;fill:#fff;fill-rule:evenodd"/><g id="g2009"><path id="path1999" d="m 28.8,24.9 c 0,0 2.7,-0.5 2.4,-2.8 -0.3,-2 -2.5,-0.6 -3.6,-0.8 -1.1,-0.2 -1.6,-0.5 -1.6,-0.5 0,0 -0.8,-0.1 -1.2,-0.4 -0.4,-0.3 -0.5,-0.4 -0.7,-0.4 -0.2,0 -0.7,0.1 -0.9,0.1 -0.2,0.1 -1.1,0.7 -1.4,0.9 -0.3,0.2 -1.4,0.8 -1.6,0.9 -0.1,0.1 -1.4,1.1 -0.9,1.6 0.5,0.5 1.1,2.6 1.7,2.9 0.7,0.4 1.6,0.7 2.2,0.6 2.1,-0.1 3.3,-0.6 3.3,-0.6 0,0 1.8,-0.5 2.3,-1.5 z" style="clip-rule:evenodd;fill:#fcd116;fill-rule:evenodd"/><g id="g2007"><path id="path2001" d="m 13,34.7 c 0.7,-1.6 1.5,-3.1 2.5,-4.4 1.4,-1.9 3.3,-3.6 2.9,-7.5 -0.1,-1.5 -0.8,-2.9 -0.9,-4.3 0,-2.2 1,-4.7 2.4,-5.8 3.1,-2.6 8.6,-1.7 10.6,1.2 0.7,1 1.2,2.8 1.4,4.1 0.4,3.9 0.4,7.6 2.4,10.8 1.2,1.9 2.9,3.6 3.9,6 h -7 c -0.4,-0.8 -0.8,-1.6 -1.1,-2.5 -0.4,-1 -0.8,-2.2 -1.2,-3.3 -0.5,-1.2 -0.7,-2.6 -1.2,-3.3 -0.2,-0.3 2.7,-1 2.7,-2.8 -0.3,-2 -2.3,-1.3 -3.1,-1.5 0.8,-0.7 2,-1.8 1.8,-3.1 -0.2,-1 -1.8,-2.3 -3.4,-1.6 -1.2,0.5 -1.1,2.5 -1.3,3.7 -0.7,-0.1 -1.5,0.1 -1.5,-0.2 -0.1,-1.5 -0.3,-3.1 -1.7,-3.2 -2.4,-0.2 -3.9,2.6 -0.9,4.9 -0.3,0.5 -1,0.5 -0.9,1.4 2.2,2.7 6.1,0.3 8.9,-0.3 -2,1.3 -5.1,2.5 -8.3,1.6 -0.2,1.8 1.9,2.7 2.8,2.6 1.5,0 3.6,-0.3 4.6,-1.2 -1.8,1.5 -4.6,2 -7.3,0.7 -1.1,3.2 -3.5,5.2 -5,8 z" style="clip-rule:evenodd;fill:#1e1e1e;fill-rule:evenodd"/><path id="path2003" d="m 27.2,19.3 c 0.2,1.1 -0.5,1.4 -0.8,1.9 -0.4,-0.1 -0.7,-0.3 -1.1,-0.4 -0.1,-1.2 1,-2.6 1.9,-1.5 z" style="clip-rule:evenodd;fill:#1e1e1e;fill-rule:evenodd"/><path id="path2005" d="m 22.2,20.8 c -0.3,0.2 -0.6,0.4 -0.9,0.5 -0.5,-0.4 -1,-0.8 -0.9,-1.4 0.3,-1.2 1.9,-0.6 1.8,0.9 z" style="clip-rule:evenodd;fill:#1e1e1e;fill-rule:evenodd"/></g></g></g></svg>