<svg xmlns="http://www.w3.org/2000/svg" xmlns:svg="http://www.w3.org/2000/svg" id="Layer_1" width="50.001" height="46.149" x="0" y="0" enable-background="new 0 0 50 50" version="1.1" viewBox="0 0 50.001 46.149" xml:space="preserve"><metadata id="metadata27"/><path id="path3" d="M 32.426,36.534 31.235,36.534 19.445,36.534 18.83,36.534 C 20.464,42.302 18.269,43.129 8.655,43.129 L 8.655,46.149 20.882,46.149 29.809,46.149 41.347,46.149 41.347,43.129 C 31.733,43.129 30.79,42.305 32.426,36.534" style="fill:#7a7a7a"/><path id="path5" d="M 46.98,0 2.718,0 C 1.214,0 0.001,1.345 0.001,2.847 L 0.001,33.713 C 0.001,35.206 1.214,36.536 2.718,36.536 L 46.98,36.536 C 48.481,36.536 50.001,35.206 50.001,33.713 L 50.001,2.847 C 50.001,1.341 48.481,0 46.98,0" style="fill:#a0a1a2"/><path id="path7" d="M 47.011,0.003 C 47,0.003 46.99,10e-4 46.98,10e-4 L 2.717,10e-4 C 1.213,10e-4 0,1.345 0,2.848 L 0,33.713 C 0,35.207 1.213,36.537 2.717,36.537 L 3.77,36.537 47.011,0.003 Z" enable-background="new" style="opacity:.2;fill:#fff"/><polygon id="polygon9" points="3.79 5.848 46.098 5.848 46.098 34.689 3.79 34.689" transform="translate(0,-2)" style="fill:#59b4d9"/><polygon id="polygon11" points="42.528 5.791 42.53 5.791 3.79 5.849 3.79 34.689 3.848 34.689 3.848 5.849" transform="translate(0,-2)" style="fill:#59b4d9"/><rect id="rect13" width="32.692" height="3.021" x="8.655" y="43.128" style="fill:#a0a1a2"/><path id="path15" d="M 25.518,2.095 C 25.518,2.487 25.2,2.805 24.808,2.805 24.415,2.805 24.099,2.487 24.099,2.095 24.099,1.702 24.415,1.385 24.808,1.385 25.2,1.385 25.518,1.702 25.518,2.095" style="fill:#b8d432"/><path id="path17" d="M 25.546,17.394 C 25.501,17.394 25.455,17.38 25.412,17.356 L 16.608,12.274 C 16.527,12.226 16.476,12.137 16.476,12.043 16.476,11.948 16.527,11.86 16.608,11.813 L 25.359,6.764 C 25.441,6.718 25.541,6.718 25.622,6.764 L 34.429,11.848 C 34.511,11.895 34.56,11.983 34.56,12.078 34.56,12.174 34.511,12.261 34.429,12.308 L 25.681,17.356 C 25.638,17.38 25.595,17.394 25.546,17.394" style="fill:#fff"/><path id="path19" d="M 24.281,29.746 C 24.231,29.746 24.186,29.734 24.147,29.71 L 15.369,24.644 C 15.284,24.597 15.233,24.511 15.233,24.413 L 15.233,14.247 C 15.233,14.151 15.284,14.064 15.369,14.016 15.45,13.967 15.55,13.967 15.637,14.016 L 24.414,19.08 C 24.492,19.13 24.544,19.217 24.544,19.313 L 24.544,29.479 C 24.544,29.576 24.492,29.662 24.414,29.71 24.37,29.734 24.324,29.746 24.281,29.746" enable-background="new" style="opacity:.7;fill:#fff"/><path id="path21" d="M 26.766,29.746 C 26.718,29.746 26.673,29.734 26.628,29.71 26.55,29.662 26.499,29.576 26.499,29.479 L 26.499,19.377 C 26.499,19.283 26.55,19.195 26.628,19.146 L 35.405,14.082 C 35.489,14.034 35.587,14.034 35.669,14.082 35.753,14.129 35.804,14.217 35.804,14.312 L 35.804,24.413 C 35.804,24.511 35.753,24.597 35.669,24.644 L 26.895,29.71 C 26.859,29.734 26.812,29.746 26.766,29.746" enable-background="new" style="opacity:.4;fill:#fff"/></svg>