<svg xmlns="http://www.w3.org/2000/svg" xmlns:xlink="http://www.w3.org/1999/xlink" id="Layer_1" width="50" height="50" x="0" y="0" enable-background="new 0 0 50 50" version="1.1" viewBox="0 0 50 50" xml:space="preserve"><path fill="#59B4D9" d="M40.217,12.583c-0.012,0-0.023,0.002-0.035,0.002C39.821,5.631,34.1,0.1,27.075,0.1	c-5.134,0-9.569,2.958-11.731,7.262c-0.899-0.207-1.832-0.327-2.794-0.327c-6.876,0-12.45,5.589-12.45,12.483	C0.1,26.411,5.674,32,12.55,32h27.667c5.348,0,9.683-4.347,9.683-9.709C49.9,16.929,45.565,12.583,40.217,12.583z"/><path fill="#FFF" d="M40.217,12.583c-0.012,0-0.023,0.002-0.035,0.002C39.821,5.631,34.1,0.1,27.075,0.1	c-5.134,0-9.569,2.958-11.731,7.262c-0.899-0.207-1.832-0.327-2.794-0.327c-6.876,0-12.45,5.589-12.45,12.483	C0.1,26.411,5.674,32,12.55,32h27.667c5.348,0,9.683-4.347,9.683-9.709C49.9,16.929,45.565,12.583,40.217,12.583z" opacity=".2"/><g><path fill="#FFF" d="M12.55,32H28V17.522C28,16.132,26.854,15,25.444,15H11.556C10.146,15,9,16.132,9,17.522 v13.956C10.126,31.813,11.316,32,12.55,32z" opacity=".4"/><path fill="#7A7A7A" d="M27,45.477C27,46.318,26.304,47,25.444,47H11.556C10.696,47,10,46.318,10,45.477V17.523 C10,16.682,10.696,16,11.556,16h13.888C26.304,16,27,16.682,27,17.523V45.477z"/><g><path fill="#1E1E1E" d="M12.201,33c0-1.057,0.857-1.915,1.915-1.915h8.768c1.057,0,1.915,0.857,1.915,1.915l0,0 c0,1.057-0.857,1.915-1.915,1.915h-8.768C13.059,34.915,12.201,34.058,12.201,33L12.201,33z"/><circle cx="14.5" cy="33" r="1.285" fill="#B8D432"/><path fill="#1E1E1E" d="M12.201,27c0-1.057,0.857-1.915,1.915-1.915h8.768c1.057,0,1.915,0.857,1.915,1.915l0,0 c0,1.057-0.857,1.915-1.915,1.915h-8.768C13.059,28.915,12.201,28.057,12.201,27L12.201,27z"/><circle cx="14.5" cy="27" r="1.285" fill="#B8D432"/><path fill="#1E1E1E" d="M12.201,21c0-1.057,0.857-1.915,1.915-1.915h8.768c1.057,0,1.915,0.857,1.915,1.915l0,0 c0,1.057-0.857,1.915-1.915,1.915h-8.768C13.059,22.915,12.201,22.058,12.201,21L12.201,21z"/><circle cx="14.5" cy="21" r="1.285" fill="#B8D432"/></g></g><g><path fill="#59B4D9" d="M33.5,27.808L33.5,27.808H24v18.386c0,1.893,4.184,3.429,9.37,3.454v0.002h0.113 c0.006,0,0.011,0.001,0.017,0.001v-0.001l0,0c5.246,0,9.5-1.547,9.5-3.456V27.808H33.5z"/><path fill="#3999C6" d="M33.37,49.65c5.246,0,9.629-1.547,9.629-3.456V27.808l-9.63,0.25L33.37,49.65z"/><path fill="#FFF" d="M43,27.808c0,1.909-4.254,3.706-9.5,3.706S24,29.716,24,27.808c0-1.909,4.254-3.456,9.5-3.456 S43,25.899,43,27.808"/><path fill="#59B4D9" d="M41.058,27.764c0,1.174-3.384,2.125-7.558,2.125s-7.558-0.951-7.558-2.125c0-1.174,3.384-2.125,7.558-2.125 S41.058,26.59,41.058,27.764"/></g></svg>