<svg xmlns="http://www.w3.org/2000/svg" xmlns:svg="http://www.w3.org/2000/svg" id="Layer_1" width="30" height="22.593" x="0" y="0" enable-background="new -.5 .5 30 30" version="1.1" viewBox="-0.5 0.5 30 22.593" xml:space="preserve"><metadata id="metadata13"/><path id="path3" d="M 29.5,23.092 16.441,23.092 23.932,15.648 23.932,8.074 16.441,0.547 29.5,0.547 29.5,23.092 Z" style="fill:#804998"/><path id="path5" d="M 29.5,23.092 16.441,23.092 23.932,15.648 23.932,8.074 16.441,0.547 29.5,0.547 29.5,23.092 Z" style="opacity:.4;fill:#fff"/><path id="path7" d="M 10.754,15.613 C 8.676,15.613 6.991,13.927 6.991,11.849 L 6.991,11.742 C 6.991,9.664 8.677,7.979 10.754,7.979 L 14.517,7.979 14.517,0.5 10.647,0.5 C 4.486,0.5 -0.5,5.486 -0.5,11.636 L -0.5,11.957 C -0.5,18.106 4.486,23.093 10.648,23.093 L 14.518,23.093 14.518,15.614 10.754,15.614 10.754,15.613 Z" style="fill:#3e3e3e"/></svg>