<svg xmlns="http://www.w3.org/2000/svg" xmlns:svg="http://www.w3.org/2000/svg" id="Layer_1" width="44.8" height="50" x="0" y="0" enable-background="new 0 0 50 50" version="1.1" viewBox="0 0 44.8 50" xml:space="preserve"><metadata id="metadata15"/><path id="path3" d="M 39.5,18.5 39.5,18.5 39.5,16.3 C 39.5,11.9 37.9,7.8 35.1,4.9 32.5,1.9 26.7,0 22.4,0 18.1,0 12.3,1.9 9.7,4.9 7,7.8 5.3,11.9 5.3,16.3 L 5.3,18.5 5.3,18.5 13.2,19.4 13.2,17.4 C 13.2,14.8 14.1,11.5 15.6,9.8 17.1,8.1 20.3,7.3 22.4,7.2 24.5,7.2 27.7,8.1 29.2,9.8 30.7,11.5 31.6,13.7 31.6,16.2 L 31.6,19.4 39.5,18.5 Z" style="fill:#a0a1a2"/><path id="path5" d="M 5.3,18.5 5.3,18.5 C 1.4,18.5 0,20.8 0,23.8 L 0,44.7 C 0,47.3 1.6,50 4.6,50 L 40.2,50 C 43.6,50 44.8,47.3 44.8,44.7 L 44.8,23.8 C 44.8,21.1 43.7,18.5 39.5,18.5 L 39.5,18.5 5.3,18.5 Z" style="fill:#59b4d9"/><path id="path7" d="M 31.5,18.5 31.5,18.5 5.3,18.5 5.3,18.5 C 1.4,18.5 0,20.8 0,23.8 L 0,44.7 C 0,47.3 1.6,50 4.6,50 L 11.3,50 31.5,18.5 Z" style="opacity:.15;fill:#fff"/><path id="path9" d="M 16.4,27.1 22.2,21.3 28,27.1 23.9,27.1 23.9,31.3 20.4,31.3 20.4,27.1 C 20.4,27.1 16.4,27.1 16.4,27.1 Z M 5.7,35.9 5.7,32.5 11.7,32.5 11.7,28.5 17.3,34.1 11.7,39.7 11.7,35.8 5.7,35.8 5.7,35.9 Z M 22.2,47.2 16.3,41.3 20.4,41.3 20.4,37.2 23.9,37.2 23.9,41.3 28.1,41.3 22.2,47.2 Z M 38.7,35.9 32.7,35.9 32.7,39.9 27,34.2 32.7,28.5 32.7,32.5 38.7,32.5 38.7,35.9 Z" style="fill:#fff"/></svg>