<svg xmlns="http://www.w3.org/2000/svg" xmlns:svg="http://www.w3.org/2000/svg" id="Layer_1" width="42" height="47" x="0" y="0" enable-background="new 0 0 50 50" version="1.1" viewBox="0 0 42 47" xml:space="preserve"><metadata id="metadata2716"/><path id="path2683" d="M 30,44.5 C 30,45.9 28.9,47 27.5,47 H 2.5 C 1.1,47 0,45.9 0,44.5 V 2.5 C 0,1.1 1.1,0 2.5,0 H 27.4 C 28.9,0 30,1.1 30,2.5 Z" style="fill:#a0a1a2"/><rect id="rect2685" width="6" height="7" x="4" y="5" style="fill:#0072c6"/><rect id="rect2687" width="6" height="7" x="12" y="5" style="fill:#0072c6"/><rect id="rect2689" width="6" height="7" x="20" y="5" style="fill:#0072c6"/><rect id="rect2691" width="6" height="7" x="4" y="16" style="fill:#0072c6"/><rect id="rect2693" width="6" height="7" x="12" y="16" style="fill:#0072c6"/><rect id="rect2695" width="6" height="7" x="4" y="27" style="fill:#0072c6"/><rect id="rect2697" width="6" height="7" x="12" y="27" style="fill:#0072c6"/><rect id="rect2699" width="6" height="7" x="20" y="27" style="fill:#777"/><path id="path2701" d="m 42,44.5 c 0,1.4 -1.1,2.5 -2.5,2.5 h -17 C 21.1,47 20,45.9 20,44.5 v -28 C 20,15.1 21.1,14 22.5,14 h 16.9 c 1.4,0 2.5,1.1 2.5,2.5 v 28 z" style="fill:#7a7a7a"/><rect id="rect2703" width="6" height="7" x="24" y="19" style="fill:#59b4d9"/><rect id="rect2705" width="6" height="7" x="32" y="19" style="fill:#59b4d9"/><rect id="rect2707" width="6" height="7" x="24" y="30" style="fill:#59b4d9"/><rect id="rect2709" width="6" height="7" x="32" y="30" style="fill:#59b4d9"/></svg>