<svg xmlns="http://www.w3.org/2000/svg" xmlns:svg="http://www.w3.org/2000/svg" id="Layer_1" width="50.14" height="45.705" x="0" y="0" enable-background="new 0 0 50 50" version="1.1" viewBox="0 0 50.14 45.705" xml:space="preserve"><metadata id="metadata3059"/><path id="path3046" d="m 33.140029,37 c -3.7,2.9 -8.1,4.2 -12.5,4.2 -6.2,0 -12.3000001,-2.8 -16.4000001,-8.1 -6.9,-9 -5.2,-22 3.8,-28.9 C 11.840029,1.4 16.240029,0 20.640029,0 c 6.2,0 12.3,2.8 16.4,8.1 6.9,9 5.2,22 -3.9,28.9" style="fill:#59b4d9"/><path id="path3048" d="m 29.440029,24.2 c 1.5,2 4.3,2.3 6.2,0.8 0.1,-0.1 0.2,-0.2 0.3,-0.3 2,1.4 3.5,2.4 4.3,3 0.2,-0.6 0.4,-1.2 0.5,-1.8 -0.8,-0.6 -2.1,-1.6 -3.7,-2.9 0.5,-1.4 0.4,-3 -0.6,-4.3 -1.4,-1.8 -3.8,-2.2 -5.7,-1.1 -2.1,-1.9 -4.4,-4 -6.8,-6.5 7.6,-4.1 12.9,-3.5 12.9,-3.5 -0.9,-1.1 -1.9,-2.1 -3,-3 -3.2,-0.4 -8.1,-0.3 -13.8,2.7 v 0 0 c -1.9,-2 -3.8,-4.1 -5.8,-6.4 -0.9,0.3 -1.8,0.7 -2.7,1.1 1.4,2.3 3.4,4.7 5.5,7 -1.8,1.3 -3.8,3 -5.7,5 -0.2,0.3 -0.5,0.5 -0.7,0.8 -1.1000001,-0.2 -2.3000001,-0.2 -3.4000001,0.2 -1.9,-4 -1.7,-7.3 -1.4,-8.9 -0.8,0.9 -1.5,1.8 -2.2,2.8 -0.5,2 -0.6,4.9 0.8,8.3 -1.7,2.2 -1.7,5.3 0,7.5 0.1,0.2 0.3,0.4 0.5,0.5 -0.8,2.6 -1.1,5.1 -1.2,7.2 0.2,0.3 0.2,0.5 0.4,0.7 1,1.3 2.2,2.5 3.4,3.4 -0.1,-2.3 0,-5.7 1.4,-9.5 1,0.1 2.0000001,-0.1 2.9000001,-0.5 0.5,0.5 1.1,0.9 1.7,1.4 2,1.6 4,2.8 6,3.8 -0.1,1 0.1,2 0.8,2.9 1.4,1.8 4,2.1 5.8,0.8 0.4,-0.3 0.7,-0.6 0.9,-1 3.2,0.7 6,0.8 8.1,0.8 0.3,0 1.8,-2 2.6,-3.3 -1.3,0.3 -5,0.8 -10.1,-0.7 -0.1,-0.6 -0.4,-1.1 -0.7,-1.6 -1.3,-1.7 -3.7,-2.1 -5.5,-0.9 -1.8,-1 -3.6,-2.2 -5.6,-3.7 -0.4,-0.3 -0.8,-0.6 -1.1,-0.9 1.2,-1.9 1.3,-4.2 0.3,-6.2 0.2,-0.2 0.5,-0.5 0.7,-0.7 1.9,-1.8 3.7,-3.2 5.4,-4.3 -0.1,-0.1 -0.1,-0.1 -0.2,-0.2 0.1,0.1 0.1,0.1 0.2,0.2 v 0 c 2.6,2.4 5.3,4.6 7.9,6.7 -0.8,1.5 -0.7,3.3 0.4,4.6 z" style="fill:#fff"/><path id="path3050" d="m 45.040029,43 v -3.1 c 0,-1.5 -1.3,-2.8 -2.8,-2.8 h -3.7 l -3.5,-3.5 v -5.4 h -3.8 v 6 c 0,0.5 0.3,1 0.5,1.4 l 4.5,4.4 v 2.9 c 0,1.5 1.3,2.8 2.8,2.8 h 3.2 c 1.5,0.1 2.8,-1.2 2.8,-2.7 m -6.1,0.3 c -0.1,0 -0.3,-0.1 -0.3,-0.3 v -3.1 c 0,-0.1 0.1,-0.3 0.3,-0.3 h 3.2 c 0.1,0 0.3,0.1 0.3,0.3 V 43 c 0,0.1 -0.1,0.3 -0.3,0.3 z" style="fill:#804998"/><path id="path3052" d="m 28.740029,28.2 h 0.3 v 0 h 12 v 0 h 0.3 c 0.1,1.4 1.4,2.5 2.8,2.5 h 3.2 c 1.5,0 2.8,-1.3 2.8,-2.8 v -3.1 c 0,-1.5 -1.3,-2.8 -2.8,-2.8 h -3.2 c -1.5,0 -2.6,1.1 -2.8,2.5 h -12.6 c -0.1,-1.4 -1.4,-2.5 -2.8,-2.5 h -3.2 c -1.5,0 -2.8,1.3 -2.8,2.8 v 3.1 c 0,1.5 1.3,2.8 2.8,2.8 h 3.2 c 1.5,0 2.7,-1.1 2.8,-2.5 m 15.4,-3.8 h 3.2 c 0.1,0 0.3,0.1 0.3,0.3 v 3.1 c 0,0.1 -0.1,0.3 -0.3,0.3 h -3.2 c -0.1,0 -0.3,-0.1 -0.3,-0.3 v -3.1 c 0,-0.2 0.2,-0.3 0.3,-0.3 m -21.6,3.8 c -0.1,0 -0.3,-0.1 -0.3,-0.3 v -3.1 c 0,-0.1 0.1,-0.3 0.3,-0.3 h 3.2 c 0.1,0 0.3,0.1 0.3,0.3 v 3.1 c 0,0.1 -0.1,0.3 -0.3,0.3 z" style="fill:#68217a"/></svg>