<svg xmlns="http://www.w3.org/2000/svg" xmlns:svg="http://www.w3.org/2000/svg" id="Layer_1" width="47.351" height="50" x="0" y="0" enable-background="new 0 0 50 50" version="1.1" viewBox="0 0 47.351 50" xml:space="preserve"><metadata id="metadata3581"/><path id="path3562" d="M 41.418,50 H 5.93 C 2.66,50 0,47.34 0,44.07 v -9.863 c 0,-0.864 0.699,-1.563 1.563,-1.563 0.864,0 1.563,0.699 1.563,1.563 v 9.863 c 0,1.546 1.259,2.805 2.805,2.805 H 41.42 c 1.546,0 2.805,-1.259 2.805,-2.805 v -9.863 c 0,-0.864 0.699,-1.563 1.563,-1.563 0.864,0 1.563,0.699 1.563,1.563 V 44.07 C 47.348,47.34 44.688,50 41.418,50 Z" style="fill:#a0a1a2"/><rect id="rect3564" width="9.87" height="27.614" x="5.68" y="16.691" style="fill:#59b4d9"/><rect id="rect3566" width="9.87" height="27.614" x="18.739" y="16.691" style="fill:#59b4d9"/><rect id="rect3568" width="9.869" height="27.614" x="31.799" y="16.691" style="fill:#b8d432"/><g id="g3572" transform="translate(-1.326)"><path id="path3570" d="M 16.908,11.426 C 16.908,5.125 22.035,0 28.336,0 34.637,0 39.89,4.784 39.89,11.084 c 0,0.864 -0.699,1.563 -1.563,1.563 -0.864,0 -1.563,-0.699 -1.563,-1.563 0,-4.578 -3.852,-7.959 -8.429,-7.959 -4.577,0 -8.302,3.723 -8.302,8.301 z" style="fill:#b8d432"/></g><polygon id="polygon3574" points="32.033 8.782 44.365 8.782 38.199 14.948" transform="translate(-1.326)" style="fill:#b8d432"/></svg>