<svg xmlns="http://www.w3.org/2000/svg" xmlns:svg="http://www.w3.org/2000/svg" id="Layer_1" width="50.027" height="35" x="0" y="0" enable-background="new 0 0 50 50" version="1.1" viewBox="0 0 50.027 35" xml:space="preserve"><metadata id="metadata4013"/><path id="path3994" d="m 36.056545,0 c 0,0 -0.5,0 -0.8,0.3 -0.3,0.3 -2,1.7 -3.3,2.3 -0.7,0.3 -1.2,0.7 -1.5,0.7 -0.7,0.1 -2.4,0.3 -5.4,0.3 -3,0 -4.7,-0.2 -5.3,-0.3 -0.3,-0.2 -0.8,-0.3 -1.5,-0.7 -1.2,-0.7 -3,-2.2 -3.3,-2.3 -0.3,-0.3 -0.8,-0.3 -0.8,-0.3 -1.3,0.2 -2.5,0.3 -3.7,0.7 -2.0000003,0.7 -3.5000003,1.7 -3.5000003,1.7 0,0 -4,9.1 -5,13.3 -1.30000001,6 -2.70000001,11.8 -1.50000001,16 0.3,1.5 1.20000001,3.3 3.80000001,3.3 v 0 c 2.3,0 7.6000003,-5.2 10.3000003,-7.5 2.3,-2 4.7,-2.3 10.5,-2.3 5.8,0 8.2,0.2 10.5,2.2 2.5,2.3 8,7.3 10.1,7.5 h 0.2 c 2.8,0 3.5,-1.8 3.8,-3.2 1,-4.2 -0.2,-10 -1.5,-16 -1,-4.2 -5,-13.3 -5,-13.3 0,0 -1.5,-1 -3.5,-1.7 -1.1,-0.4 -2.3,-0.6 -3.6,-0.7 z" style="fill:#3e3e3e"/><path id="path3996" d="m 14.156545,8.7 c -2.8,0 -5.0000003,2.2 -5.0000003,5 0,2.8 2.2000003,5 5.0000003,5 2.8,0 5,-2.2 5,-5 0,-2.8 -2.3,-5 -5,-5 z m 0,7.9 c -1.6,0 -2.9,-1.3 -2.9,-2.9 0,-1.6 1.3,-2.9 2.9,-2.9 1.6,0 2.9,1.3 2.9,2.9 0,1.5 -1.4,2.9 -2.9,2.9 z" style="fill:#a0a1a2"/><circle id="circle3998" cx="32.157" cy="13.2" r="2.1" style="fill:#0072c6"/><circle id="circle4000" cx="40.857" cy="13.2" r="2.1" style="fill:#ba141a"/><circle id="circle4002" cx="36.457" cy="8.8" r="2.1" style="fill:#fcd116"/><circle id="circle4004" cx="36.457" cy="17.6" r="2.1" style="fill:#7fba00"/><path id="path4006" d="m 14.156545,17.3 c -2,0 -3.7,-1.7 -3.7,-3.7 0,-2 1.7,-3.7 3.7,-3.7 2,0 3.7,1.7 3.7,3.7 0,2 -1.7,3.7 -3.7,3.7 z" style="fill:#3e3e3e"/></svg>