<svg xmlns="http://www.w3.org/2000/svg" xmlns:xlink="http://www.w3.org/1999/xlink" id="Layer_1" x="0" y="0" version="1.1" viewBox="0 0 128.082 131.636" xml:space="preserve" style="enable-background:new 0 0 128.082 131.636"><style type="text/css">.st0{fill:none;stroke:#626366;stroke-width:3.106;stroke-linejoin:round}.st1{fill:#416895}.st2{fill:#7d91b4}.st3{fill:#607ba4}.st4,.st5{fill:none;stroke:#dfe0df;stroke-width:1.027;stroke-linecap:round;stroke-linejoin:round}.st5{stroke-width:1.026}.st6{fill:#dfe0df}.st7{fill:none;stroke:#fefefe;stroke-width:.434;stroke-linejoin:round}</style><title>icon-blueSwitch-large-generic</title><desc>Created with Sketch.</desc><polygon id="Stroke-1" points="82.71 73.552 126.486 50.32 126.529 106.845 82.748 130.083" class="st0"/><polygon id="Stroke-3" points="1.553 24.789 45.33 1.553 126.487 50.319 82.71 73.552" class="st0"/><polygon id="Stroke-5" points="82.71 73.552 82.748 130.083 1.59 81.32 1.553 24.789" class="st0"/><polygon id="Fill-8" points="82.71 73.552 126.486 50.32 126.529 106.845 82.748 130.083" class="st1"/><polygon id="Fill-9" points="1.553 24.789 45.33 1.553 126.487 50.319 82.71 73.552" class="st2"/><polygon id="Fill-10" points="82.71 73.552 82.748 130.083 1.59 81.32 1.553 24.789" class="st3"/><path id="Stroke-11" d="M1.573,25.199l81.156,49.172" class="st4"/><path id="Stroke-13" d="M82.729,74.457v55.215" class="st5"/><path id="Fill-15" d="M21.977,48.092c0,0.367-0.256,0.509-0.568,0.315l-15.197-9.41	c-0.312-0.193-0.567-0.651-0.566-1.018l0.01-6.973c0.001-0.367,0.256-0.509,0.568-0.315l15.192,9.408	c0.313,0.193,0.567,0.651,0.567,1.018L21.977,48.092z" class="st6"/><path id="Stroke-17" d="M21.977,48.092c0,0.367-0.256,0.509-0.568,0.315l-15.197-9.41	c-0.312-0.193-0.567-0.651-0.566-1.018l0.01-6.973c0.001-0.367,0.256-0.509,0.568-0.315l15.192,9.408	c0.313,0.193,0.567,0.651,0.567,1.018L21.977,48.092z" class="st7"/><path id="Fill-19" d="M21.966,58.653c-0.001,0.367-0.256,0.509-0.568,0.315L6.204,49.555	c-0.312-0.193-0.567-0.651-0.566-1.018l0.006-6.973c0.001-0.367,0.256-0.509,0.568-0.315l15.195,9.411	c0.313,0.193,0.568,0.651,0.567,1.018L21.966,58.653z" class="st6"/><path id="Stroke-21" d="M21.966,58.653c-0.001,0.367-0.256,0.509-0.568,0.315L6.204,49.555	c-0.312-0.193-0.567-0.651-0.566-1.018l0.006-6.973c0.001-0.367,0.256-0.509,0.568-0.315l15.195,9.411	c0.313,0.193,0.568,0.651,0.567,1.018L21.966,58.653z" class="st7"/><path id="Fill-23" d="M21.956,69.215c-0.001,0.367-0.256,0.509-0.568,0.315L6.193,60.116	c-0.312-0.193-0.566-0.651-0.566-1.018l0.006-6.976c0-0.367,0.256-0.509,0.568-0.315l15.194,9.413	c0.313,0.193,0.568,0.651,0.567,1.018L21.956,69.215z" class="st6"/><path id="Stroke-25" d="M21.956,69.215c-0.001,0.367-0.256,0.509-0.568,0.315L6.193,60.116	c-0.312-0.193-0.566-0.651-0.566-1.018l0.006-6.976c0-0.367,0.256-0.509,0.568-0.315l15.194,9.413	c0.313,0.193,0.568,0.651,0.567,1.018L21.956,69.215z" class="st7"/><path id="Fill-27" d="M21.945,79.772c-0.001,0.367-0.256,0.509-0.568,0.315L6.181,70.676	c-0.312-0.193-0.567-0.651-0.566-1.018l0.01-6.975c0.001-0.367,0.256-0.509,0.568-0.315l15.193,9.412	c0.313,0.193,0.568,0.651,0.567,1.018L21.945,79.772z" class="st6"/><path id="Stroke-29" d="M21.945,79.772c-0.001,0.367-0.256,0.509-0.568,0.315L6.181,70.676	c-0.312-0.193-0.567-0.651-0.566-1.018l0.01-6.975c0.001-0.367,0.256-0.509,0.568-0.315l15.193,9.412	c0.313,0.193,0.568,0.651,0.567,1.018L21.945,79.772z" class="st7"/><path id="Fill-31" d="M21.934,90.332c0,0.367-0.255,0.509-0.567,0.315L6.173,81.235	c-0.312-0.193-0.567-0.651-0.566-1.018l0.006-6.975c0.001-0.367,0.256-0.509,0.568-0.315l15.192,9.412	c0.313,0.193,0.568,0.651,0.567,1.018L21.934,90.332z" class="st6"/><path id="Stroke-33" d="M21.934,90.332c0,0.367-0.255,0.509-0.567,0.315L6.173,81.235	c-0.312-0.193-0.567-0.651-0.566-1.018l0.006-6.975c0.001-0.367,0.256-0.509,0.568-0.315l15.192,9.412	c0.313,0.193,0.568,0.651,0.567,1.018L21.934,90.332z" class="st7"/><path id="Fill-35" d="M40.025,59.27c-0.001,0.367-0.256,0.509-0.568,0.315l-15.194-9.409	c-0.312-0.193-0.567-0.651-0.567-1.018l0.006-6.975c0.001-0.367,0.256-0.509,0.568-0.315l15.197,9.412	c0.313,0.193,0.567,0.651,0.567,1.018L40.025,59.27z" class="st6"/><path id="Stroke-37" d="M40.025,59.27c-0.001,0.367-0.256,0.509-0.568,0.315l-15.194-9.409	c-0.312-0.193-0.567-0.651-0.567-1.018l0.006-6.975c0.001-0.367,0.256-0.509,0.568-0.315l15.197,9.412	c0.313,0.193,0.567,0.651,0.567,1.018L40.025,59.27z" class="st7"/><path id="Fill-39" d="M40.016,69.83c0,0.367-0.255,0.509-0.567,0.315l-15.196-9.41	c-0.312-0.193-0.567-0.651-0.566-1.018l0.006-6.974c0.001-0.367,0.256-0.509,0.568-0.315l15.193,9.409	c0.313,0.193,0.568,0.651,0.568,1.018L40.016,69.83z" class="st6"/><path id="Stroke-41" d="M40.016,69.83c0,0.367-0.255,0.509-0.567,0.315l-15.196-9.41	c-0.312-0.193-0.567-0.651-0.566-1.018l0.006-6.974c0.001-0.367,0.256-0.509,0.568-0.315l15.193,9.409	c0.313,0.193,0.568,0.651,0.568,1.018L40.016,69.83z" class="st7"/><path id="Fill-43" d="M40.005,80.392c-0.001,0.367-0.256,0.509-0.568,0.315l-15.198-9.413	c-0.312-0.193-0.567-0.651-0.566-1.018l0.009-6.975c0-0.367,0.256-0.509,0.568-0.315l15.195,9.411	c0.313,0.193,0.568,0.651,0.567,1.018L40.005,80.392z" class="st6"/><path id="Stroke-45" d="M40.005,80.392c-0.001,0.367-0.256,0.509-0.568,0.315l-15.198-9.413	c-0.312-0.193-0.567-0.651-0.566-1.018l0.009-6.975c0-0.367,0.256-0.509,0.568-0.315l15.195,9.411	c0.313,0.193,0.568,0.651,0.567,1.018L40.005,80.392z" class="st7"/><path id="Fill-47" d="M39.993,90.951c-0.001,0.367-0.256,0.509-0.568,0.315L24.23,81.852	c-0.312-0.193-0.567-0.651-0.566-1.018l0.006-6.973c0-0.367,0.255-0.509,0.567-0.315l15.197,9.411	c0.313,0.193,0.568,0.651,0.567,1.018L39.993,90.951z" class="st6"/><path id="Stroke-49" d="M39.993,90.951c-0.001,0.367-0.256,0.509-0.568,0.315L24.23,81.852	c-0.312-0.193-0.567-0.651-0.566-1.018l0.006-6.973c0-0.367,0.255-0.509,0.567-0.315l15.197,9.411	c0.313,0.193,0.568,0.651,0.567,1.018L39.993,90.951z" class="st7"/><path id="Fill-51" d="M39.985,101.51c-0.001,0.367-0.256,0.509-0.568,0.315L24.22,92.412	c-0.312-0.193-0.567-0.651-0.566-1.018l0.007-6.974c0.001-0.367,0.256-0.509,0.568-0.315l15.194,9.413	c0.313,0.193,0.568,0.651,0.568,1.018L39.985,101.51z" class="st6"/><path id="Stroke-53" d="M39.985,101.51c-0.001,0.367-0.256,0.509-0.568,0.315L24.22,92.412	c-0.312-0.193-0.567-0.651-0.566-1.018l0.007-6.974c0.001-0.367,0.256-0.509,0.568-0.315l15.194,9.413	c0.313,0.193,0.568,0.651,0.568,1.018L39.985,101.51z" class="st7"/><path id="Fill-55" d="M58.073,70.452c0,0.367-0.255,0.509-0.567,0.315l-15.198-9.413	c-0.312-0.193-0.567-0.651-0.566-1.018l0.006-6.975c0.001-0.367,0.256-0.509,0.568-0.315l15.196,9.414	c0.313,0.193,0.568,0.651,0.567,1.018L58.073,70.452z" class="st6"/><path id="Stroke-57" d="M58.073,70.452c0,0.367-0.255,0.509-0.567,0.315l-15.198-9.413	c-0.312-0.193-0.567-0.651-0.566-1.018l0.006-6.975c0.001-0.367,0.256-0.509,0.568-0.315l15.196,9.414	c0.313,0.193,0.568,0.651,0.567,1.018L58.073,70.452z" class="st7"/><path id="Fill-59" d="M58.062,81.01c-0.001,0.367-0.256,0.509-0.568,0.315l-15.197-9.411	c-0.312-0.193-0.566-0.651-0.566-1.018l0.009-6.975c0.001-0.367,0.256-0.509,0.568-0.315l15.197,9.411	c0.313,0.193,0.568,0.651,0.567,1.018L58.062,81.01z" class="st6"/><path id="Stroke-61" d="M58.062,81.01c-0.001,0.367-0.256,0.509-0.568,0.315l-15.197-9.411	c-0.312-0.193-0.566-0.651-0.566-1.018l0.009-6.975c0.001-0.367,0.256-0.509,0.568-0.315l15.197,9.411	c0.313,0.193,0.568,0.651,0.567,1.018L58.062,81.01z" class="st7"/><path id="Fill-63" d="M58.052,91.57c-0.001,0.367-0.256,0.509-0.568,0.315l-15.196-9.41	c-0.312-0.193-0.567-0.651-0.566-1.018l0.006-6.978c0.001-0.367,0.256-0.509,0.568-0.315l15.197,9.414	c0.313,0.193,0.568,0.651,0.567,1.018L58.052,91.57z" class="st6"/><path id="Stroke-65" d="M58.052,91.57c-0.001,0.367-0.256,0.509-0.568,0.315l-15.196-9.41	c-0.312-0.193-0.567-0.651-0.566-1.018l0.006-6.978c0.001-0.367,0.256-0.509,0.568-0.315l15.197,9.414	c0.313,0.193,0.568,0.651,0.567,1.018L58.052,91.57z" class="st7"/><path id="Fill-67" d="M58.041,102.128c-0.001,0.367-0.256,0.509-0.568,0.315l-15.196-9.409	c-0.312-0.193-0.567-0.651-0.566-1.018l0.006-6.974c0-0.367,0.255-0.509,0.567-0.315l15.195,9.408	c0.313,0.193,0.568,0.651,0.568,1.018L58.041,102.128z" class="st6"/><path id="Stroke-69" d="M58.041,102.128c-0.001,0.367-0.256,0.509-0.568,0.315l-15.196-9.409	c-0.312-0.193-0.567-0.651-0.566-1.018l0.006-6.974c0-0.367,0.255-0.509,0.567-0.315l15.195,9.408	c0.313,0.193,0.568,0.651,0.568,1.018L58.041,102.128z" class="st7"/><path id="Fill-71" d="M58.032,112.686c0,0.367-0.255,0.509-0.567,0.315l-15.198-9.412	c-0.312-0.193-0.567-0.651-0.566-1.018l0.008-6.971c0.001-0.367,0.256-0.509,0.568-0.315l15.194,9.409	c0.313,0.193,0.568,0.651,0.567,1.018L58.032,112.686z" class="st6"/><path id="Stroke-73" d="M58.032,112.686c0,0.367-0.255,0.509-0.567,0.315l-15.198-9.412	c-0.312-0.193-0.567-0.651-0.566-1.018l0.008-6.971c0.001-0.367,0.256-0.509,0.568-0.315l15.194,9.409	c0.313,0.193,0.568,0.651,0.567,1.018L58.032,112.686z" class="st7"/><path id="Fill-75" d="M76.121,81.629c-0.001,0.367-0.256,0.509-0.568,0.315l-15.194-9.412	c-0.312-0.193-0.566-0.651-0.566-1.018l0.006-6.974c0-0.367,0.256-0.509,0.568-0.315l15.194,9.412	c0.313,0.193,0.568,0.651,0.567,1.018L76.121,81.629z" class="st6"/><path id="Stroke-77" d="M76.121,81.629c-0.001,0.367-0.256,0.509-0.568,0.315l-15.194-9.412	c-0.312-0.193-0.566-0.651-0.566-1.018l0.006-6.974c0-0.367,0.256-0.509,0.568-0.315l15.194,9.412	c0.313,0.193,0.568,0.651,0.567,1.018L76.121,81.629z" class="st7"/><path id="Fill-79" d="M76.113,92.187c-0.001,0.367-0.256,0.509-0.568,0.315l-15.197-9.411	c-0.312-0.193-0.566-0.651-0.566-1.018l0.009-6.975c0.001-0.367,0.256-0.509,0.568-0.315l15.194,9.412	c0.313,0.193,0.568,0.651,0.567,1.018L76.113,92.187z" class="st6"/><path id="Stroke-81" d="M76.113,92.187c-0.001,0.367-0.256,0.509-0.568,0.315l-15.197-9.411	c-0.312-0.193-0.566-0.651-0.566-1.018l0.009-6.975c0.001-0.367,0.256-0.509,0.568-0.315l15.194,9.412	c0.313,0.193,0.568,0.651,0.567,1.018L76.113,92.187z" class="st7"/><path id="Fill-83" d="M76.103,102.75c-0.001,0.367-0.256,0.509-0.568,0.315L60.34,93.652	c-0.312-0.193-0.567-0.651-0.566-1.018l0.006-6.976c0-0.367,0.255-0.509,0.567-0.315l15.195,9.412	c0.313,0.193,0.568,0.651,0.567,1.018L76.103,102.75z" class="st6"/><path id="Stroke-85" d="M76.103,102.75c-0.001,0.367-0.256,0.509-0.568,0.315L60.34,93.652	c-0.312-0.193-0.567-0.651-0.566-1.018l0.006-6.976c0-0.367,0.255-0.509,0.567-0.315l15.195,9.412	c0.313,0.193,0.568,0.651,0.567,1.018L76.103,102.75z" class="st7"/><path id="Fill-87" d="M76.092,113.307c0,0.367-0.255,0.509-0.567,0.315l-15.198-9.411	c-0.312-0.193-0.567-0.651-0.566-1.018l0.006-6.974c0.001-0.367,0.256-0.509,0.568-0.315l15.196,9.414	c0.313,0.193,0.568,0.651,0.567,1.018L76.092,113.307z" class="st6"/><path id="Stroke-89" d="M76.092,113.307c0,0.367-0.255,0.509-0.567,0.315l-15.198-9.411	c-0.312-0.193-0.567-0.651-0.566-1.018l0.006-6.974c0.001-0.367,0.256-0.509,0.568-0.315l15.196,9.414	c0.313,0.193,0.568,0.651,0.567,1.018L76.092,113.307z" class="st7"/><path id="Fill-91" d="M76.079,123.868c-0.001,0.367-0.256,0.509-0.568,0.315l-15.192-9.411	c-0.312-0.193-0.567-0.651-0.567-1.018l0.006-6.977c0.001-0.367,0.256-0.509,0.568-0.315l15.195,9.412	c0.313,0.193,0.567,0.651,0.567,1.018L76.079,123.868z" class="st6"/><path id="Stroke-93" d="M76.079,123.868c-0.001,0.367-0.256,0.509-0.568,0.315l-15.192-9.411	c-0.312-0.193-0.567-0.651-0.567-1.018l0.006-6.977c0.001-0.367,0.256-0.509,0.568-0.315l15.195,9.412	c0.313,0.193,0.567,0.651,0.567,1.018L76.079,123.868z" class="st7"/></svg>