<svg xmlns="http://www.w3.org/2000/svg" xmlns:xlink="http://www.w3.org/1999/xlink" id="Layer_1" x="0" y="0" version="1.1" viewBox="0 0 146.697 297.571" xml:space="preserve" style="enable-background:new 0 0 146.697 297.571"><style type="text/css">.st0{fill:#e7ebf0}.st1,.st2{fill:none;stroke:#b8c6d3;stroke-width:2;stroke-linecap:round;stroke-linejoin:round}.st2{stroke:#626366;stroke-width:2.7}.st3{fill:#416895}.st4{fill:#7d91b4}.st5{fill:#607ba4}.st6{fill:none;stroke:#dfe0df;stroke-width:.675;stroke-linecap:round;stroke-linejoin:round}.st7{fill:#fefefe}</style><title>icon-datacenter-rack1</title><desc>Created with Sketch.</desc><g id="Page-1"><g id="Desktop" transform="translate(-683.000000, -519.000000)"><g id="icon-datacenter-rack1" transform="translate(684.000000, 520.000000)"><path id="Fill-1" d="M0.005,32.92c0.003-1.264,0.062-1.974,0.316-2.658c0.254-0.686,1.677-1.444,1.677-1.444 L56.603,0l85.06,49.035c0,0,2.236,1.006,2.682,2.624c0.506,1.836,0.317,5.508,0.317,5.508l-0.128,202.769 c0,0,0.168,4.418-0.914,5.687c-0.592,0.695-3.136,2.226-3.136,2.226l-52.302,26.795c0,0-3.703,2.271-7.448-0.295 c-3.45-2.366-69.125-39.377-69.125-39.377S-0.184,251.2,0.005,231.766C0.172,214.682-0.035,52.578,0.005,32.92" class="st0"/><path id="Stroke-3" d="M0.005,32.92c0.003-1.264,0.062-1.974,0.316-2.658c0.254-0.686,1.677-1.444,1.677-1.444 L56.603,0l85.06,49.035c0,0,2.236,1.006,2.682,2.624c0.506,1.836,0.317,5.508,0.317,5.508l-0.128,202.769 c0,0,0.168,4.418-0.914,5.687c-0.592,0.695-3.136,2.226-3.136,2.226l-52.302,26.795c0,0-3.703,2.271-7.448-0.295 c-3.45-2.366-69.125-39.377-69.125-39.377S-0.184,251.2,0.005,231.766C0.172,214.682-0.035,52.578,0.005,32.92z" class="st1"/><polygon id="Stroke-5" points="89.147 269.13 127.2 248.932 127.207 259.808 89.155 280.005" class="st2"/><polygon id="Stroke-7" points="18.605 226.743 56.657 206.545 127.2 248.931 89.147 269.13" class="st2"/><polygon id="Stroke-9" points="89.147 269.13 89.155 280.005 18.612 237.619 18.605 226.743" class="st2"/><polygon id="Fill-11" points="89.147 269.13 127.2 248.934 127.207 259.809 89.155 280.007" class="st3"/><polygon id="Fill-13" points="18.605 226.744 56.657 206.546 127.2 248.933 89.147 269.13" class="st4"/><polygon id="Fill-15" points="89.147 269.13 89.155 280.007 18.612 237.619 18.605 226.744" class="st5"/><polyline id="Stroke-17" points="18.946 226.75 89.134 268.923 89.134 279.716" class="st6"/><polygon id="Fill-19" points="27.178 240.584 21.739 237.315 21.739 235.748 27.178 239.016" class="st7"/><polygon id="Fill-21" points="66.512 265.064 54.392 257.781 54.392 254.924 66.512 262.208" class="st7"/><polygon id="Fill-23" points="52.726 256.55 40.605 249.268 40.605 246.412 52.726 253.694" class="st7"/><polygon id="Fill-25" points="83.621 275.083 81.646 273.897 81.646 271.593 83.621 272.778" class="st7"/><polygon id="Stroke-27" points="88.876 253.039 126.928 232.84 126.935 243.716 88.883 263.914" class="st2"/><polygon id="Stroke-29" points="18.333 210.651 56.384 190.453 126.928 232.839 88.876 253.039" class="st2"/><polygon id="Stroke-31" points="88.876 253.039 88.883 263.914 18.34 221.527 18.333 210.651" class="st2"/><polygon id="Fill-33" points="88.876 253.039 126.928 232.842 126.935 243.717 88.883 263.915" class="st3"/><polygon id="Fill-35" points="18.333 210.652 56.384 190.454 126.928 232.841 88.876 253.039" class="st4"/><polygon id="Fill-37" points="88.876 253.039 88.883 263.915 18.34 221.527 18.333 210.652" class="st5"/><polyline id="Stroke-39" points="18.674 210.658 88.862 252.831 88.862 263.625" class="st6"/><polygon id="Fill-41" points="26.907 224.492 21.469 221.223 21.469 219.656 26.907 222.924" class="st7"/><polygon id="Fill-43" points="66.241 248.972 54.121 241.69 54.121 238.832 66.241 246.116" class="st7"/><polygon id="Fill-45" points="52.454 240.458 40.334 233.176 40.334 230.32 52.454 237.602" class="st7"/><polygon id="Fill-47" points="83.35 258.991 81.375 257.806 81.375 255.501 83.35 256.687" class="st7"/><polygon id="Stroke-49" points="88.783 235.313 126.835 215.114 126.842 225.99 88.789 246.188" class="st2"/><polygon id="Stroke-51" points="18.239 192.925 56.292 172.727 126.835 215.113 88.783 235.313" class="st2"/><polygon id="Stroke-53" points="88.783 235.313 88.789 246.188 18.247 203.801 18.239 192.925" class="st2"/><polygon id="Fill-55" points="88.783 235.313 126.835 215.116 126.842 225.991 88.789 246.189" class="st3"/><polygon id="Fill-57" points="18.239 192.926 56.292 172.728 126.835 215.115 88.783 235.313" class="st4"/><polygon id="Fill-59" points="88.783 235.313 88.789 246.189 18.247 203.801 18.239 192.926" class="st5"/><polyline id="Stroke-61" points="18.58 192.932 88.768 235.105 88.768 245.899" class="st6"/><polygon id="Fill-63" points="26.813 206.766 21.375 203.497 21.375 201.93 26.813 205.198" class="st7"/><polygon id="Fill-65" points="66.147 231.245 54.026 223.963 54.026 221.105 66.147 228.389" class="st7"/><polygon id="Fill-67" points="52.361 222.732 40.241 215.45 40.241 212.594 52.361 219.876" class="st7"/><polygon id="Fill-69" points="83.255 241.265 81.281 240.08 81.281 237.775 83.255 238.961" class="st7"/><polygon id="Stroke-71" points="89.055 217.949 127.108 197.75 127.114 208.626 89.063 228.824" class="st2"/><polygon id="Stroke-73" points="18.513 175.562 56.565 155.364 127.108 197.75 89.055 217.95" class="st2"/><polygon id="Stroke-75" points="89.055 217.949 89.063 228.824 18.52 186.437 18.513 175.561" class="st2"/><polygon id="Fill-77" points="89.055 217.949 127.108 197.752 127.114 208.627 89.063 228.825" class="st3"/><polygon id="Fill-79" points="18.513 175.563 56.565 155.365 127.108 197.752 89.055 217.95" class="st4"/><polygon id="Fill-81" points="89.055 217.949 89.063 228.825 18.52 186.437 18.513 175.562" class="st5"/><polyline id="Stroke-83" points="18.854 175.568 89.042 217.741 89.042 228.535" class="st6"/><polygon id="Fill-85" points="27.086 189.402 21.647 186.133 21.647 184.566 27.086 187.834" class="st7"/><polygon id="Fill-87" points="66.42 213.882 54.3 206.6 54.3 203.742 66.42 211.026" class="st7"/><polygon id="Fill-89" points="52.634 205.368 40.514 198.086 40.514 195.23 52.634 202.512" class="st7"/><polygon id="Fill-91" points="83.53 223.901 81.555 222.716 81.555 220.411 83.53 221.597" class="st7"/><polygon id="Stroke-93" points="89.149 201.197 127.201 180.998 127.208 191.875 89.156 212.072" class="st2"/><polygon id="Stroke-95" points="18.605 158.811 56.658 138.612 127.201 180.998 89.149 201.198" class="st2"/><polygon id="Stroke-97" points="89.149 201.197 89.156 212.072 18.613 169.685 18.605 158.81" class="st2"/><polygon id="Fill-99" points="89.149 201.197 127.201 181 127.208 191.875 89.156 212.074" class="st3"/><polygon id="Fill-101" points="18.605 158.811 56.658 138.614 127.201 181 89.149 201.198" class="st4"/><polygon id="Fill-103" points="89.149 201.197 89.156 212.074 18.613 169.685 18.605 158.81" class="st5"/><polyline id="Stroke-105" points="18.947 158.816 89.135 200.991 89.135 211.784" class="st6"/><polygon id="Fill-107" points="27.179 172.65 21.741 169.382 21.741 167.814 27.179 171.082" class="st7"/><polygon id="Fill-109" points="66.513 197.131 54.393 189.848 54.393 186.99 66.513 194.274" class="st7"/><polygon id="Fill-111" points="52.726 188.617 40.607 181.334 40.607 178.478 52.726 185.76" class="st7"/><polygon id="Fill-113" points="83.622 207.15 81.646 205.964 81.646 203.66 83.622 204.845" class="st7"/><polygon id="Stroke-115" points="88.877 185.105 126.929 164.907 126.936 175.784 88.884 195.98" class="st2"/><polygon id="Stroke-117" points="18.334 142.719 56.386 122.52 126.929 164.906 88.877 185.106" class="st2"/><polygon id="Stroke-119" points="88.877 185.105 88.884 195.98 18.341 153.594 18.334 142.719" class="st2"/><polygon id="Fill-121" points="88.877 185.105 126.929 164.909 126.936 175.784 88.884 195.982" class="st3"/><polygon id="Fill-123" points="18.334 142.719 56.386 122.522 126.929 164.908 88.877 185.106" class="st4"/><polygon id="Fill-125" points="88.877 185.105 88.884 195.982 18.341 153.594 18.334 142.719" class="st5"/><polyline id="Stroke-127" points="18.675 142.725 88.863 184.899 88.863 195.692" class="st6"/><polygon id="Fill-129" points="26.908 156.559 21.47 153.291 21.47 151.723 26.908 154.991" class="st7"/><polygon id="Fill-131" points="66.242 181.039 54.122 173.756 54.122 170.898 66.242 178.182" class="st7"/><polygon id="Fill-133" points="52.455 172.525 40.334 165.242 40.334 162.386 52.455 169.668" class="st7"/><polygon id="Fill-135" points="83.351 191.059 81.376 189.873 81.376 187.569 83.351 188.754" class="st7"/><polygon id="Stroke-137" points="88.784 167.379 126.835 147.18 126.843 158.057 88.791 178.254" class="st2"/><polygon id="Stroke-139" points="18.241 124.992 56.293 104.793 126.835 147.179 88.784 167.379" class="st2"/><polygon id="Stroke-141" points="88.784 167.379 88.791 178.254 18.248 135.867 18.241 124.992" class="st2"/><polygon id="Fill-143" points="88.784 167.379 126.835 147.182 126.843 158.057 88.791 178.256" class="st3"/><polygon id="Fill-145" points="18.241 124.992 56.293 104.795 126.835 147.181 88.784 167.379" class="st4"/><polygon id="Fill-147" points="88.784 167.379 88.791 178.256 18.248 135.867 18.241 124.992" class="st5"/><polyline id="Stroke-149" points="18.581 124.998 88.769 167.172 88.769 177.965" class="st6"/><polygon id="Fill-151" points="26.814 138.832 21.376 135.564 21.376 133.996 26.814 137.264" class="st7"/><polygon id="Fill-153" points="66.147 163.313 54.028 156.03 54.028 153.172 66.147 160.456" class="st7"/><polygon id="Fill-155" points="52.362 154.799 40.242 147.516 40.242 144.66 52.362 151.942" class="st7"/><polygon id="Fill-157" points="83.257 173.332 81.282 172.146 81.282 169.842 83.257 171.027" class="st7"/><polygon id="Stroke-159" points="89.057 150.016 127.109 129.817 127.116 140.694 89.064 160.891" class="st2"/><polygon id="Stroke-161" points="18.514 107.629 56.566 87.43 127.109 129.816 89.057 150.016" class="st2"/><polygon id="Stroke-163" points="89.057 150.016 89.064 160.891 18.521 118.505 18.514 107.629" class="st2"/><polygon id="Fill-165" points="89.057 150.016 127.109 129.819 127.116 140.694 89.064 160.893" class="st3"/><polygon id="Fill-167" points="18.514 107.629 56.566 87.432 127.109 129.818 89.057 150.016" class="st4"/><polygon id="Fill-169" points="89.057 150.016 89.064 160.893 18.521 118.505 18.514 107.629" class="st5"/><polyline id="Stroke-171" points="18.855 107.635 89.043 149.809 89.043 160.602" class="st6"/><polygon id="Fill-173" points="27.087 121.469 21.649 118.201 21.649 116.633 27.087 119.901" class="st7"/><polygon id="Fill-175" points="66.421 145.949 54.301 138.666 54.301 135.809 66.421 143.092" class="st7"/><polygon id="Fill-177" points="52.634 137.436 40.515 130.154 40.515 127.297 52.634 134.579" class="st7"/><polygon id="Fill-179" points="83.531 155.969 81.555 154.783 81.555 152.479 83.531 153.664" class="st7"/><polygon id="Stroke-181" points="89.123 132.909 127.175 112.71 127.182 123.586 89.13 143.784" class="st2"/><polygon id="Stroke-183" points="18.58 90.521 56.632 70.323 127.175 112.709 89.123 132.91" class="st2"/><polygon id="Stroke-185" points="89.123 132.909 89.13 143.784 18.587 101.397 18.58 90.521" class="st2"/><polygon id="Fill-187" points="89.123 132.909 127.175 112.712 127.182 123.587 89.13 143.785" class="st3"/><polygon id="Fill-189" points="18.58 90.522 56.632 70.325 127.175 112.711 89.123 132.91" class="st4"/><polygon id="Fill-191" points="89.123 132.909 89.13 143.785 18.587 101.397 18.58 90.522" class="st5"/><polyline id="Stroke-193" points="18.921 90.527 89.109 132.701 89.109 143.495" class="st6"/><polygon id="Fill-195" points="27.154 104.362 21.716 101.093 21.716 99.526 27.154 102.794" class="st7"/><polygon id="Fill-197" points="66.488 128.842 54.368 121.56 54.368 118.702 66.488 125.986" class="st7"/><polygon id="Fill-199" points="52.702 120.328 40.582 113.046 40.582 110.19 52.702 117.472" class="st7"/><polygon id="Fill-201" points="83.597 138.861 81.622 137.676 81.622 135.371 83.597 136.557" class="st7"/><polygon id="Stroke-203" points="88.851 116.817 126.904 96.618 126.91 107.494 88.859 127.692" class="st2"/><polygon id="Stroke-205" points="18.309 74.43 56.361 54.232 126.904 96.618 88.851 116.818" class="st2"/><polygon id="Stroke-207" points="88.851 116.817 88.859 127.692 18.316 85.306 18.309 74.429" class="st2"/><polygon id="Fill-209" points="88.851 116.817 126.904 96.62 126.91 107.495 88.859 127.693" class="st3"/><polygon id="Fill-211" points="18.309 74.431 56.361 54.233 126.904 96.62 88.851 116.818" class="st4"/><polygon id="Fill-213" points="88.851 116.817 88.859 127.693 18.316 85.306 18.309 74.43" class="st5"/><polyline id="Stroke-215" points="18.65 74.436 88.838 116.61 88.838 127.404" class="st6"/><polygon id="Fill-217" points="26.882 88.27 21.443 85.002 21.443 83.434 26.882 86.703" class="st7"/><polygon id="Fill-219" points="66.216 112.75 54.096 105.468 54.096 102.61 66.216 109.894" class="st7"/><polygon id="Fill-221" points="52.43 104.236 40.31 96.954 40.31 94.098 52.43 101.38" class="st7"/><polygon id="Fill-223" points="83.326 122.77 81.351 121.585 81.351 119.28 83.326 120.466" class="st7"/><polygon id="Stroke-225" points="88.758 99.091 126.81 78.892 126.817 89.768 88.765 109.966" class="st2"/><polygon id="Stroke-227" points="18.215 56.703 56.267 36.505 126.81 78.891 88.758 99.091" class="st2"/><polygon id="Stroke-229" points="88.758 99.091 88.765 109.966 18.222 67.579 18.215 56.703" class="st2"/><polygon id="Fill-231" points="88.758 99.091 126.81 78.894 126.817 89.769 88.765 109.967" class="st3"/><polygon id="Fill-233" points="18.215 56.704 56.267 36.506 126.81 78.893 88.758 99.091" class="st4"/><polygon id="Fill-235" points="88.758 99.091 88.765 109.967 18.222 67.579 18.215 56.704" class="st5"/><polyline id="Stroke-237" points="18.555 56.709 88.744 98.883 88.744 109.677" class="st6"/><polygon id="Fill-239" points="26.788 70.544 21.35 67.275 21.35 65.708 26.788 68.976" class="st7"/><polygon id="Fill-241" points="66.122 95.023 54.002 87.742 54.002 84.883 66.122 92.167" class="st7"/><polygon id="Fill-243" points="52.336 86.51 40.216 79.228 40.216 76.372 52.336 83.654" class="st7"/><polygon id="Fill-245" points="83.232 105.043 81.257 103.858 81.257 101.553 83.232 102.739" class="st7"/><polygon id="Stroke-247" points="89.032 81.727 127.084 61.528 127.091 72.405 89.039 92.603" class="st2"/><polygon id="Stroke-249" points="18.489 39.34 56.541 19.142 127.084 61.527 89.032 81.727" class="st2"/><polygon id="Stroke-251" points="89.032 81.727 89.039 92.603 18.496 50.217 18.489 39.34" class="st2"/><polygon id="Fill-253" points="89.032 81.727 127.084 61.53 127.091 72.406 89.039 92.604" class="st3"/><polygon id="Fill-255" points="18.489 39.341 56.541 19.143 127.084 61.529 89.032 81.727" class="st4"/><polygon id="Fill-257" points="89.032 81.727 89.039 92.604 18.496 50.217 18.489 39.341" class="st5"/><polyline id="Stroke-259" points="18.829 39.346 89.017 81.52 89.017 92.314" class="st6"/><polygon id="Fill-261" points="27.062 53.18 21.624 49.912 21.624 48.344 27.062 51.613" class="st7"/><polygon id="Fill-263" points="66.396 77.66 54.276 70.377 54.276 67.521 66.396 74.804" class="st7"/><polygon id="Fill-265" points="52.61 69.146 40.489 61.866 40.489 59.007 52.61 66.29" class="st7"/><polygon id="Fill-267" points="83.505 87.68 81.53 86.495 81.53 84.19 83.505 85.375" class="st7"/></g></g></g></svg>