<svg xmlns="http://www.w3.org/2000/svg" xmlns:xlink="http://www.w3.org/1999/xlink" id="Layer_1" x="0" y="0" version="1.1" viewBox="0 0 146.697 297.571" xml:space="preserve" style="enable-background:new 0 0 146.697 297.571"><style type="text/css">.st0{fill:#e7ebf0}.st1,.st2{fill:none;stroke:#b8c6d3;stroke-width:2;stroke-linecap:round;stroke-linejoin:round}.st2{stroke:#626366;stroke-width:2.7}.st3{fill:#416895}.st4{fill:#7d91b4}.st5{fill:#607ba4}.st6{fill:none;stroke:#dfe0df;stroke-width:.675;stroke-linecap:round;stroke-linejoin:round}.st7{fill:#fefefe}.st8{fill:#898b8e}.st9{fill:#bbbdbf}.st10{fill:#b3b5b7}</style><title>icon-datacenter-rack2</title><desc>Created with Sketch.</desc><path id="Fill-1" d="M1.005,33.92c0.003-1.264,0.062-1.974,0.316-2.658c0.254-0.686,1.677-1.444,1.677-1.444L57.603,1	l85.06,49.035c0,0,2.236,1.006,2.682,2.624c0.506,1.836,0.317,5.508,0.317,5.508l-0.128,202.769c0,0,0.168,4.418-0.914,5.687	c-0.592,0.695-3.136,2.226-3.136,2.226l-52.302,26.795c0,0-3.703,2.271-7.448-0.295c-3.45-2.366-69.125-39.377-69.125-39.377	S0.816,252.2,1.005,232.766C1.172,215.682,0.965,53.578,1.005,33.92" class="st0"/><path id="Stroke-3" d="M1.005,33.92c0.003-1.264,0.062-1.974,0.316-2.658c0.254-0.686,1.677-1.444,1.677-1.444L57.603,1	l85.06,49.035c0,0,2.236,1.006,2.682,2.624c0.506,1.836,0.317,5.508,0.317,5.508l-0.128,202.769c0,0,0.168,4.418-0.914,5.687	c-0.592,0.695-3.136,2.226-3.136,2.226l-52.302,26.795c0,0-3.703,2.271-7.448-0.295c-3.45-2.366-69.125-39.377-69.125-39.377	S0.816,252.2,1.005,232.766C1.172,215.682,0.965,53.578,1.005,33.92z" class="st1"/><polygon id="Stroke-5" points="90.147 270.13 128.2 249.932 128.207 260.808 90.155 281.005" class="st2"/><polygon id="Stroke-7" points="19.605 227.743 57.657 207.545 128.2 249.931 90.147 270.13" class="st2"/><polygon id="Stroke-9" points="90.147 270.13 90.155 281.005 19.612 238.619 19.605 227.743" class="st2"/><polygon id="Fill-11" points="90.147 270.13 128.2 249.934 128.207 260.809 90.155 281.007" class="st3"/><polygon id="Fill-13" points="19.605 227.744 57.657 207.546 128.2 249.933 90.147 270.13" class="st4"/><polygon id="Fill-15" points="90.147 270.13 90.155 281.007 19.612 238.619 19.605 227.744" class="st5"/><polyline id="Stroke-17" points="19.946 227.75 90.134 269.923 90.134 280.716" class="st6"/><polygon id="Fill-19" points="28.178 241.584 22.739 238.315 22.739 236.748 28.178 240.016" class="st7"/><polygon id="Fill-21" points="67.512 266.064 55.392 258.781 55.392 255.923 67.512 263.207" class="st7"/><polygon id="Fill-23" points="53.726 257.55 41.605 250.268 41.605 247.412 53.726 254.694" class="st7"/><polygon id="Fill-25" points="84.621 276.083 82.646 274.897 82.646 272.593 84.621 273.778" class="st7"/><polygon id="Stroke-27" points="89.876 254.039 127.928 233.84 127.935 244.716 89.883 264.914" class="st2"/><polygon id="Stroke-29" points="19.333 211.651 57.384 191.453 127.928 233.839 89.876 254.039" class="st2"/><polygon id="Stroke-31" points="89.876 254.039 89.883 264.914 19.34 222.527 19.333 211.651" class="st2"/><polygon id="Fill-33" points="89.876 254.039 127.928 233.842 127.935 244.717 89.883 264.915" class="st3"/><polygon id="Fill-35" points="19.333 211.652 57.384 191.454 127.928 233.841 89.876 254.039" class="st4"/><polygon id="Fill-37" points="89.876 254.039 89.883 264.915 19.34 222.527 19.333 211.652" class="st5"/><polyline id="Stroke-39" points="19.674 211.658 89.862 253.831 89.862 264.625" class="st6"/><polygon id="Fill-41" points="27.907 225.492 22.469 222.223 22.469 220.656 27.907 223.924" class="st7"/><polygon id="Fill-43" points="67.241 249.972 55.121 242.69 55.121 239.832 67.241 247.116" class="st7"/><polygon id="Fill-45" points="53.454 241.458 41.334 234.176 41.334 231.32 53.454 238.602" class="st7"/><polygon id="Fill-47" points="84.35 259.991 82.375 258.806 82.375 256.501 84.35 257.687" class="st7"/><polygon id="Stroke-49" points="89.783 236.313 127.835 216.113 127.842 226.99 89.789 247.188" class="st2"/><polygon id="Stroke-51" points="19.239 193.925 57.292 173.727 127.835 216.113 89.783 236.313" class="st2"/><polygon id="Stroke-53" points="89.783 236.313 89.789 247.188 19.247 204.801 19.239 193.924" class="st2"/><polygon id="Fill-55" points="89.783 236.313 127.835 216.115 127.842 226.99 89.789 247.189" class="st3"/><polygon id="Fill-57" points="19.239 193.926 57.292 173.728 127.835 216.115 89.783 236.313" class="st4"/><polygon id="Fill-59" points="89.783 236.313 89.789 247.189 19.247 204.801 19.239 193.926" class="st5"/><polyline id="Stroke-61" points="19.58 193.932 89.768 236.105 89.768 246.899" class="st6"/><polygon id="Fill-63" points="27.813 207.766 22.375 204.497 22.375 202.93 27.813 206.198" class="st7"/><polygon id="Fill-65" points="67.147 232.245 55.026 224.963 55.026 222.105 67.147 229.389" class="st7"/><polygon id="Fill-67" points="53.361 223.732 41.241 216.449 41.241 213.594 53.361 220.876" class="st7"/><polygon id="Fill-69" points="84.255 242.265 82.281 241.08 82.281 238.775 84.255 239.961" class="st7"/><polygon id="Stroke-71" points="90.055 218.949 128.108 198.75 128.114 209.626 90.063 229.824" class="st2"/><polygon id="Stroke-73" points="19.513 176.562 57.565 156.364 128.108 198.75 90.055 218.95" class="st2"/><polygon id="Stroke-75" points="90.055 218.949 90.063 229.824 19.52 187.437 19.513 176.561" class="st2"/><polygon id="Fill-77" points="90.055 218.949 128.108 198.752 128.114 209.627 90.063 229.825" class="st3"/><polygon id="Fill-79" points="19.513 176.563 57.565 156.365 128.108 198.751 90.055 218.949" class="st4"/><polygon id="Fill-81" points="90.055 218.949 90.063 229.825 19.52 187.437 19.513 176.562" class="st5"/><polyline id="Stroke-83" points="19.854 176.568 90.042 218.741 90.042 229.535" class="st6"/><polygon id="Fill-85" points="28.086 190.402 22.647 187.133 22.647 185.566 28.086 188.834" class="st7"/><polygon id="Fill-87" points="67.42 214.882 55.3 207.6 55.3 204.742 67.42 212.026" class="st7"/><polygon id="Fill-89" points="53.634 206.368 41.514 199.086 41.514 196.23 53.634 203.512" class="st7"/><polygon id="Fill-91" points="84.53 224.901 82.555 223.716 82.555 221.411 84.53 222.597" class="st7"/><polygon id="Stroke-93" points="90.149 202.197 128.201 181.998 128.208 192.875 90.156 213.072" class="st2"/><polygon id="Stroke-95" points="19.605 159.811 57.658 139.612 128.201 181.998 90.149 202.198" class="st2"/><polygon id="Stroke-97" points="90.149 202.197 90.156 213.072 19.613 170.685 19.605 159.81" class="st2"/><polygon id="Fill-99" points="90.149 202.197 128.201 182 128.208 192.875 90.156 213.074" class="st3"/><polygon id="Fill-101" points="19.605 159.811 57.658 139.614 128.201 182 90.149 202.198" class="st4"/><polygon id="Fill-103" points="90.149 202.197 90.156 213.074 19.613 170.685 19.605 159.81" class="st5"/><polyline id="Stroke-105" points="19.947 159.816 90.135 201.99 90.135 212.783" class="st6"/><polygon id="Fill-107" points="28.179 173.65 22.741 170.382 22.741 168.814 28.179 172.082" class="st7"/><polygon id="Fill-109" points="67.513 198.131 55.393 190.848 55.393 187.99 67.513 195.274" class="st7"/><polygon id="Fill-111" points="53.726 189.617 41.607 182.334 41.607 179.478 53.726 186.76" class="st7"/><polygon id="Fill-113" points="84.622 208.15 82.646 206.964 82.646 204.66 84.622 205.845" class="st7"/><polygon id="Stroke-115" points="89.877 186.105 127.929 165.906 127.936 176.783 89.884 196.98" class="st2"/><polygon id="Stroke-117" points="19.334 143.719 57.386 123.52 127.929 165.906 89.877 186.106" class="st2"/><polygon id="Stroke-119" points="89.877 186.105 89.884 196.98 19.341 154.594 19.334 143.719" class="st2"/><polygon id="Fill-121" points="89.877 186.105 127.929 165.908 127.936 176.783 89.884 196.982" class="st3"/><polygon id="Fill-123" points="19.334 143.719 57.386 123.522 127.929 165.908 89.877 186.106" class="st4"/><polygon id="Fill-125" points="89.877 186.105 89.884 196.982 19.341 154.594 19.334 143.719" class="st5"/><polyline id="Stroke-127" points="19.675 143.725 89.863 185.899 89.863 196.692" class="st6"/><polygon id="Fill-129" points="27.908 157.559 22.47 154.291 22.47 152.723 27.908 155.991" class="st7"/><polygon id="Fill-131" points="67.242 182.039 55.122 174.756 55.122 171.898 67.242 179.182" class="st7"/><polygon id="Fill-133" points="53.455 173.525 41.334 166.242 41.334 163.386 53.455 170.668" class="st7"/><polygon id="Fill-135" points="84.351 192.059 82.376 190.873 82.376 188.569 84.351 189.754" class="st7"/><polygon id="Stroke-137" points="89.784 168.379 127.835 148.18 127.843 159.057 89.791 179.254" class="st2"/><polygon id="Stroke-139" points="19.241 125.992 57.293 105.793 127.835 148.179 89.784 168.379" class="st2"/><polygon id="Stroke-141" points="89.784 168.379 89.791 179.254 19.248 136.867 19.241 125.992" class="st2"/><polygon id="Fill-143" points="89.784 168.379 127.835 148.182 127.843 159.057 89.791 179.256" class="st3"/><polygon id="Fill-145" points="19.241 125.992 57.293 105.795 127.835 148.181 89.784 168.379" class="st4"/><polygon id="Fill-147" points="89.784 168.379 89.791 179.256 19.248 136.867 19.241 125.992" class="st5"/><polyline id="Stroke-149" points="19.581 125.998 89.769 168.172 89.769 178.965" class="st6"/><polygon id="Fill-151" points="27.814 139.832 22.376 136.564 22.376 134.996 27.814 138.264" class="st7"/><polygon id="Fill-153" points="67.147 164.313 55.028 157.029 55.028 154.171 67.147 161.456" class="st7"/><polygon id="Fill-155" points="53.362 155.799 41.242 148.516 41.242 145.66 53.362 152.942" class="st7"/><polygon id="Fill-157" points="84.257 174.332 82.282 173.146 82.282 170.842 84.257 172.027" class="st7"/><polygon id="Stroke-159" points="90.057 151.016 128.109 130.817 128.116 141.694 90.064 161.891" class="st2"/><polygon id="Stroke-161" points="19.514 108.629 57.566 88.43 128.109 130.816 90.057 151.016" class="st2"/><polygon id="Stroke-163" points="90.057 151.016 90.064 161.891 19.521 119.505 19.514 108.629" class="st2"/><polygon id="Fill-165" points="90.057 151.016 128.109 130.819 128.116 141.694 90.064 161.893" class="st3"/><polygon id="Fill-167" points="19.514 108.629 57.566 88.432 128.109 130.818 90.057 151.016" class="st4"/><polygon id="Fill-169" points="90.057 151.016 90.064 161.893 19.521 119.505 19.514 108.629" class="st5"/><polyline id="Stroke-171" points="19.855 108.635 90.043 150.809 90.043 161.602" class="st6"/><polygon id="Fill-173" points="28.087 122.469 22.649 119.201 22.649 117.633 28.087 120.901" class="st7"/><polygon id="Fill-175" points="67.421 146.949 55.301 139.666 55.301 136.809 67.421 144.092" class="st7"/><polygon id="Fill-177" points="53.634 138.436 41.515 131.154 41.515 128.297 53.634 135.579" class="st7"/><polygon id="Fill-179" points="84.531 156.969 82.555 155.783 82.555 153.479 84.531 154.664" class="st7"/><polygon id="Stroke-181" points="90.123 133.909 128.175 113.71 128.182 124.586 90.13 144.784" class="st2"/><polygon id="Stroke-183" points="19.58 91.521 57.632 71.324 128.175 113.71 90.123 133.91" class="st2"/><polygon id="Stroke-185" points="90.123 133.909 90.13 144.784 19.587 102.397 19.58 91.521" class="st2"/><polygon id="Fill-187" points="90.123 133.909 128.175 113.712 128.182 124.587 90.13 144.785" class="st3"/><polygon id="Fill-189" points="19.58 91.522 57.632 71.325 128.175 113.712 90.123 133.91" class="st4"/><polygon id="Fill-191" points="90.123 133.909 90.13 144.785 19.587 102.397 19.58 91.522" class="st5"/><polyline id="Stroke-193" points="19.921 91.527 90.109 133.701 90.109 144.495" class="st6"/><polygon id="Fill-195" points="28.154 105.362 22.716 102.093 22.716 100.526 28.154 103.794" class="st7"/><polygon id="Fill-197" points="67.488 129.842 55.368 122.56 55.368 119.702 67.488 126.986" class="st7"/><polygon id="Fill-199" points="53.702 121.328 41.582 114.046 41.582 111.19 53.702 118.472" class="st7"/><polygon id="Fill-201" points="84.597 139.861 82.622 138.676 82.622 136.371 84.597 137.557" class="st7"/><polygon id="Stroke-203" points="89.851 117.817 127.904 97.618 127.91 108.494 89.859 128.692" class="st2"/><polygon id="Stroke-205" points="19.309 75.43 57.361 55.232 127.904 97.618 89.851 117.818" class="st2"/><polygon id="Stroke-207" points="89.851 117.817 89.859 128.692 19.316 86.306 19.309 75.429" class="st2"/><polygon id="Fill-209" points="89.851 117.817 127.904 97.62 127.91 108.495 89.859 128.693" class="st3"/><polygon id="Fill-211" points="19.309 75.431 57.361 55.233 127.904 97.62 89.851 117.818" class="st4"/><polygon id="Fill-213" points="89.851 117.817 89.859 128.693 19.316 86.306 19.309 75.43" class="st5"/><polyline id="Stroke-215" points="19.65 75.436 89.838 117.61 89.838 128.404" class="st6"/><polygon id="Fill-217" points="27.882 89.27 22.443 86.002 22.443 84.434 27.882 87.703" class="st7"/><polygon id="Fill-219" points="67.216 113.75 55.096 106.468 55.096 103.61 67.216 110.894" class="st7"/><polygon id="Fill-221" points="53.43 105.236 41.31 97.954 41.31 95.098 53.43 102.38" class="st7"/><polygon id="Fill-223" points="84.326 123.77 82.351 122.585 82.351 120.28 84.326 121.466" class="st7"/><polygon id="Stroke-225" points="89.758 100.091 127.81 79.892 127.817 90.768 89.765 110.966" class="st2"/><polygon id="Stroke-227" points="19.215 57.703 57.267 37.505 127.81 79.891 89.758 100.091" class="st2"/><polygon id="Stroke-229" points="89.758 100.091 89.765 110.966 19.222 68.579 19.215 57.703" class="st2"/><polygon id="Fill-231" points="89.758 100.091 127.81 79.894 127.817 90.769 89.765 110.967" class="st8"/><polygon id="Fill-233" points="19.215 57.704 57.267 37.506 127.81 79.893 89.758 100.091" class="st9"/><polygon id="Fill-235" points="89.758 100.091 89.765 110.967 19.222 68.579 19.215 57.704" class="st10"/><polyline id="Stroke-237" points="19.555 57.709 89.744 99.883 89.744 110.677" class="st6"/><polygon id="Fill-239" points="27.788 71.544 22.35 68.275 22.35 66.708 27.788 69.976" class="st7"/><polygon id="Fill-241" points="67.166 91.706 55.045 84.423 55.045 81.566 67.166 88.851" class="st7"/><polygon id="Fill-243" points="67.122 96.023 55.002 88.742 55.002 85.883 67.122 93.168" class="st7"/><polyline id="Fill-245" points="41.258 75.909 41.258 73.052 53.378 80.334 53.378 83.192" class="st7"/><polygon id="Fill-247" points="53.336 87.51 41.216 80.228 41.216 77.372 53.336 84.654" class="st7"/><polygon id="Fill-249" points="84.232 106.043 82.257 104.858 82.257 102.553 84.232 103.739" class="st7"/><polygon id="Stroke-251" points="90.032 82.727 128.084 62.528 128.091 73.405 90.039 93.603" class="st2"/><polygon id="Stroke-253" points="19.489 40.34 57.541 20.142 128.084 62.527 90.032 82.727" class="st2"/><polygon id="Stroke-255" points="90.032 82.727 90.039 93.603 19.496 51.217 19.489 40.34" class="st2"/><polygon id="Fill-257" points="90.032 82.727 128.084 62.53 128.091 73.406 90.039 93.604" class="st8"/><polygon id="Fill-259" points="19.489 40.341 57.541 20.143 128.084 62.529 90.032 82.727" class="st9"/><polygon id="Fill-261" points="90.032 82.727 90.039 93.604 19.496 51.217 19.489 40.341" class="st10"/><polyline id="Stroke-263" points="19.829 40.346 90.017 82.52 90.017 93.314" class="st6"/><polygon id="Fill-265" points="28.062 54.18 22.624 50.912 22.624 49.344 28.062 52.613" class="st7"/><polygon id="Fill-267" points="67.44 74.344 55.318 67.06 55.318 64.203 67.44 71.487" class="st7"/><polygon id="Fill-269" points="67.396 78.66 55.276 71.377 55.276 68.521 67.396 75.804" class="st7"/><polygon id="Fill-271" points="53.651 65.829 41.532 58.547 41.532 55.688 53.651 62.971" class="st7"/><polygon id="Fill-273" points="53.61 70.146 41.489 62.866 41.489 60.007 53.61 67.29" class="st7"/><polygon id="Fill-275" points="84.505 88.68 82.53 87.495 82.53 85.19 84.505 86.375" class="st7"/></svg>