<svg xmlns="http://www.w3.org/2000/svg" xmlns:svg="http://www.w3.org/2000/svg" xmlns:xlink="http://www.w3.org/1999/xlink" id="Layer_1" x="0" y="0" version="1.1" viewBox="0 0 66.553 93.942" xml:space="preserve" style="enable-background:new 0 0 66.553 93.942"><style type="text/css">.st0{fill:none;stroke:#626366;stroke-width:2.835;stroke-linejoin:round}.st1{fill:#dfe0df}.st2{fill:#bbbdbf}.st3{fill:#d7d8d9}.st4{fill:#a9abae}.st5{fill:#6c6e70}.st6{fill:#939597}.st7{fill:#fefefe}.st8,.st9{fill:none;stroke:#939597;stroke-width:.525;stroke-linecap:round;stroke-linejoin:round}.st9{stroke:#efeeee}</style><title id="title4">icon-IE200</title><desc id="desc6">Created with Sketch.</desc><path id="Stroke-1254-8-8-6-0-8" d="M60.199,19.312	c0.529,0.318,0.968,1.109,0.969,1.756l0.037,53.611c0,0.647-0.438,0.904-0.967,0.585L34.25,59.65	c-0.536-0.322-0.974-1.106-0.974-1.752L33.238,4.286c-0.001-0.647,0.437-0.912,0.973-0.589L60.199,19.312z" class="st0"/><path id="Stroke-1254-8-8-6-0" d="M53.951,22.673	c0.529,0.318,0.968,1.109,0.969,1.756l0.037,53.611c0,0.647-0.438,0.904-0.967,0.585L28.004,63.011	c-0.536-0.322-0.974-1.106-0.974-1.752L26.992,7.647C26.991,7,27.429,6.735,27.965,7.058L53.951,22.673z" class="st0"/><path id="Stroke-1254-8-8-6" d="M47.716,26.264c0.529,0.318,0.968,1.109,0.969,1.756	l0.037,53.611c0,0.647-0.438,0.904-0.967,0.585L21.769,66.601c-0.536-0.322-0.974-1.106-0.974-1.752l-0.038-53.611	c-0.001-0.647,0.437-0.912,0.973-0.589L47.716,26.264z" class="st0"/><path id="Stroke-1254-8-8" d="M41.597,29.823c0.529,0.318,0.968,1.109,0.969,1.756	l0.037,53.611c0,0.647-0.438,0.904-0.967,0.585L15.649,70.16c-0.536-0.322-0.974-1.106-0.974-1.752l-0.038-53.611	c-0.001-0.647,0.437-0.912,0.973-0.589L41.597,29.823z" class="st0"/><path id="Stroke-1254-8" d="M34.627,32.875c0.529,0.318,0.968,1.109,0.969,1.756	l0.037,53.611c0,0.647-0.438,0.904-0.967,0.585L8.68,73.214c-0.536-0.322-0.974-1.106-0.974-1.752L7.668,17.851	c-0.001-0.647,0.437-0.912,0.973-0.589L34.627,32.875z" class="st0"/><polygon id="Stroke-87-6" points="56.511 22.809 60.155 20.874 60.193 74.486 56.548 76.42" class="st0"/><path id="Stroke-35-2" d="M58.581,76.814l-3.645,1.935	c0.188-0.1,0.305-0.331,0.305-0.666l3.645-1.935C58.886,76.483,58.768,76.715,58.581,76.814z" class="st0"/><path id="Stroke-35-6" d="M52.193,80.361l-3.645,1.935	c0.188-0.1,0.305-0.331,0.305-0.666l3.645-1.935C52.498,80.03,52.38,80.262,52.193,80.361z" class="st0"/><path id="Stroke-35-60" d="M45.943,83.92l-3.645,1.935	c0.188-0.1,0.305-0.331,0.305-0.666l3.645-1.935C46.248,83.589,46.13,83.821,45.943,83.92z" class="st0"/><path id="Stroke-35-0" d="M38.973,86.975l-3.645,1.935	c0.188-0.1,0.305-0.331,0.305-0.666l3.645-1.935C39.278,86.644,39.16,86.876,38.973,86.975z" class="st0"/><path id="Stroke-35-54" d="M32.723,90.535l-3.645,1.935	c0.188-0.1,0.305-0.331,0.305-0.666l3.645-1.935C33.028,90.202,32.91,90.435,32.723,90.535z" class="st0"/><path id="Stroke-1343" d="M5.436,25.149l1.458-0.774	c0.175-0.092,0.408-0.073,0.665,0.082l-1.458,0.773C5.844,25.076,5.611,25.056,5.436,25.149z" class="st0"/><path id="Stroke-208-16" d="M33.805,3.378c0,0,0.147-0.062,0.307-0.011l0.159,0.052	l0.209,0.115l3.663-1.924l-0.266-0.141l-0.162-0.044l-0.14-0.007c0.14,0.007-0.125,0.025-0.125,0.025L33.805,3.378z" class="st0"/><path id="Stroke-208-16-6" d="M27.555,6.935c0,0,0.147-0.062,0.307-0.011l0.159,0.052	l0.209,0.115l3.663-1.924l-0.266-0.141l-0.162-0.044l-0.14-0.007C31.465,4.982,31.2,5,31.2,5L27.555,6.935z" class="st0"/><path id="Stroke-208-16-5" d="M21.167,10.483c0,0,0.147-0.062,0.307-0.011	l0.159,0.052l0.209,0.115l3.663-1.924l-0.266-0.141L25.077,8.53l-0.14-0.007c0.14,0.007-0.125,0.025-0.125,0.025L21.167,10.483z" class="st0"/><path id="Stroke-208-16-9" d="M14.935,14.052c0,0,0.147-0.062,0.307-0.011	l0.159,0.052l0.209,0.115l3.663-1.924l-0.266-0.141L18.844,12.1l-0.14-0.007c0.14,0.007-0.125,0.025-0.125,0.025L14.935,14.052z" class="st0"/><path id="Stroke-208-16-2" d="M7.948,17.096c0,0,0.147-0.062,0.307-0.011l0.159,0.052	l0.209,0.115l3.663-1.924l-0.266-0.141l-0.162-0.044l-0.14-0.007c0.14,0.007-0.125,0.025-0.125,0.025L7.948,17.096z" class="st0"/><path id="Stroke-208-16-3" d="M1.716,20.666c0,0,0.147-0.062,0.307-0.011l0.159,0.052	l0.209,0.115l3.663-1.924l-0.266-0.141l-0.162-0.044l-0.14-0.007c0.14,0.007-0.125,0.025-0.125,0.025L1.716,20.666z" class="st0"/><path id="Stroke-35" d="M64.831,73.257l-3.645,1.935	c0.188-0.1,0.305-0.331,0.305-0.666l3.645-1.935C65.136,72.924,65.018,73.157,64.831,73.257z" class="st0"/><polygon id="Stroke-85" points="34.498 3.543 38.143 1.608 64.13 17.226 60.485 19.159" class="st0"/><polygon id="Stroke-87" points="61.453 20.915 65.099 18.979 65.136 72.59 61.491 74.524" class="st0"/><path id="Stroke-206" d="M60.486,19.159c0.426,0.377,0.312,0.252,0.53,0.514	c0.27,0.322,0.429,1.07,0.429,1.07s3.621-1.832,3.645-1.935c0.046-0.206-0.198-0.727-0.391-1.017	c-0.24-0.361-0.568-0.566-0.568-0.566L60.486,19.159z" class="st0"/><path id="Stroke-1254" d="M28.378,36.436c0.529,0.318,0.968,1.109,0.969,1.756l0.037,53.611	c0,0.647-0.438,0.904-0.967,0.585L2.43,76.772c-0.536-0.322-0.974-1.106-0.974-1.752L1.418,21.41	c-0.001-0.647,0.437-0.912,0.973-0.589L28.378,36.436z" class="st0"/><path id="Stroke-1295" d="M24.296,89.831l-1.457,0.774	c0.189-0.1,0.308-0.334,0.308-0.67l1.458-0.774C24.605,89.498,24.485,89.73,24.296,89.831z" class="st0"/><polygon id="Stroke-1345" points="6.35 25.082 7.808 24.309 23.593 33.792 22.135 34.566" class="st0"/><polygon id="Stroke-1347" points="23.109 36.324 24.567 35.549 24.605 89.161 23.147 89.936" class="st0"/><path id="Stroke-1456" d="M22.135,34.567l1.458-0.774	c0.535,0.322,0.974,1.113,0.974,1.758l-1.458,0.774C23.109,35.679,22.671,34.889,22.135,34.567z" class="st0"/><path id="Stroke-1458" d="M22.135,34.566c0.536,0.322,0.974,1.112,0.974,1.758	l0.038,53.613c0,0.646-0.437,0.91-0.973,0.588L6.39,81.04c-0.537-0.323-0.975-1.114-0.975-1.759L5.377,25.67	c0-0.645,0.437-0.911,0.973-0.588L22.135,34.566z" class="st0"/><polygon id="Stroke-1460" points="18.607 46.354 15.212 44.292 15.212 39.465 18.607 41.525" class="st0"/><polygon id="Stroke-1462" points="18.607 52.48 15.212 50.422 15.212 45.591 18.607 47.653" class="st0"/><polygon id="Stroke-1464" points="18.607 58.611 15.212 56.549 15.212 51.722 18.607 53.783" class="st0"/><polygon id="Stroke-1466" points="18.607 64.738 15.212 62.68 15.212 57.851 18.607 59.91" class="st0"/><polygon id="Stroke-1468" points="13.31 65.984 9.917 63.924 9.917 59.097 13.31 61.157" class="st0"/><polygon id="Stroke-1470" points="18.607 75.65 15.212 73.589 15.212 68.761 18.607 70.821" class="st0"/><polygon id="Stroke-1472" points="18.607 81.779 15.212 79.719 15.212 74.89 18.607 76.952" class="st0"/><polygon id="Fill-1555" points="64.13 17.226 60.485 19.159 34.498 3.543 38.143 1.608" class="st1"/><polygon id="Fill-1557" points="65.136 72.59 61.491 74.524 61.453 20.915 65.099 18.979" class="st2"/><path id="Fill-1672" d="M60.486,19.159c0.529,0.318,0.968,1.109,0.969,1.756	l0.037,53.611c0,0.647-0.438,0.904-0.967,0.585L34.537,59.497c-0.536-0.322-0.974-1.106-0.974-1.752L33.526,4.133	c-0.001-0.647,0.437-0.912,0.973-0.589L60.486,19.159z" class="st3"/><polygon id="Fill-1759" points="57.88 20.784 54.235 22.716 28.248 7.102 31.893 5.168" class="st1"/><polygon id="Fill-1761" points="58.886 76.148 55.241 78.082 55.203 24.472 58.848 22.537" class="st2"/><path id="Fill-1876" d="M54.236,22.718c0.529,0.318,0.968,1.109,0.969,1.756	l0.037,53.611c0,0.647-0.438,0.904-0.967,0.585L28.288,63.055c-0.536-0.322-0.974-1.106-0.974-1.752L27.276,7.691	c-0.001-0.647,0.437-0.912,0.973-0.589L54.236,22.718z" class="st3"/><polygon id="Fill-1963" points="51.492 24.33 47.847 26.264 21.86 10.649 25.505 8.714" class="st1"/><polygon id="Fill-1965" points="52.498 79.695 48.853 81.629 48.816 28.02 52.46 26.083" class="st2"/><path id="Fill-2080" d="M47.847,26.264c0.529,0.318,0.968,1.109,0.969,1.756	l0.037,53.611c0,0.647-0.438,0.904-0.967,0.585L21.899,66.6c-0.536-0.322-0.974-1.106-0.974-1.752l-0.038-53.611	c-0.001-0.647,0.437-0.912,0.973-0.589L47.847,26.264z" class="st3"/><polygon id="Fill-2167" points="45.242 27.889 41.597 29.823 15.61 14.208 19.255 12.273" class="st1"/><polygon id="Fill-2169" points="46.248 83.254 42.603 85.188 42.566 31.579 46.21 29.642" class="st2"/><path id="Fill-2284" d="M41.597,29.823c0.529,0.318,0.968,1.109,0.969,1.756	l0.037,53.611c0,0.647-0.438,0.904-0.967,0.585L15.649,70.16c-0.536-0.322-0.974-1.106-0.974-1.752l-0.038-53.611	c-0.001-0.647,0.437-0.912,0.973-0.589L41.597,29.823z" class="st3"/><polygon id="Fill-2371" points="38.272 30.944 34.627 32.875 8.641 17.263 12.286 15.326" class="st1"/><polygon id="Fill-2373" points="39.278 86.309 35.633 88.242 35.597 34.632 39.242 32.698" class="st2"/><path id="Fill-2488" d="M34.627,32.877c0.529,0.318,0.968,1.109,0.969,1.756	l0.037,53.611c0,0.647-0.438,0.904-0.967,0.585L8.68,73.214c-0.536-0.322-0.974-1.106-0.974-1.752l-0.038-53.61	c-0.001-0.647,0.437-0.912,0.973-0.589L34.627,32.877z" class="st3"/><polygon id="Fill-2575" points="32.022 34.502 28.378 36.436 2.391 20.822 6.036 18.886" class="st1"/><polygon id="Fill-2577" points="33.028 89.867 29.384 91.801 29.347 38.192 32.992 36.256" class="st2"/><path id="Fill-2692" d="M28.378,36.436c0.529,0.318,0.968,1.109,0.969,1.756	l0.037,53.611c0,0.647-0.438,0.904-0.967,0.585L2.43,76.772c-0.536-0.322-0.974-1.106-0.974-1.752L1.418,21.41	c-0.001-0.647,0.437-0.912,0.973-0.589L28.378,36.436z" class="st3"/><polygon id="Fill-2779" points="7.571 24.458 23.493 34.041 22.022 34.824 6.101 25.239" class="st4"/><polygon id="Fill-2781" points="24.567 35.549 24.605 89.505 23.147 90.285 23.109 36.327" class="st5"/><path id="Fill-2890" d="M22.135,34.566c0.536,0.322,0.974,1.112,0.974,1.758	l0.038,53.613c0,0.646-0.437,0.91-0.973,0.588L6.39,81.04c-0.537-0.323-0.975-1.114-0.975-1.759L5.377,25.67	c0-0.645,0.437-0.911,0.973-0.588L22.135,34.566z" class="st6"/><polygon id="Fill-2892" points="18.607 46.354 15.212 44.292 15.212 39.465 18.607 41.525" class="st7"/><polygon id="Fill-2894" points="18.607 52.48 15.212 50.422 15.212 45.591 18.607 47.653" class="st7"/><polygon id="Fill-2896" points="18.607 58.611 15.212 56.549 15.212 51.722 18.607 53.783" class="st7"/><polygon id="Fill-2898" points="18.607 64.738 15.212 62.68 15.212 57.851 18.607 59.91" class="st7"/><polygon id="Fill-2900" points="13.31 65.984 9.917 63.924 9.917 59.097 13.31 61.157" class="st7"/><polygon id="Fill-2902" points="18.607 75.65 15.212 73.589 15.212 68.761 18.607 70.821" class="st7"/><polygon id="Fill-2904" points="18.607 81.779 15.212 79.719 15.212 74.89 18.607 76.952" class="st7"/><path id="Stroke-206-4" d="M60.199,19.312c0.459,0.407,0.336,0.272,0.572,0.555	c0.291,0.347,0.463,1.155,0.463,1.155s3.905-1.977,3.93-2.088c0.05-0.222-0.214-0.784-0.422-1.097	c-0.259-0.39-0.612-0.611-0.612-0.611L60.199,19.312z" class="st3"/><path id="Stroke-206-4-2" d="M28.378,36.436c0.426,0.377,0.312,0.252,0.53,0.514	c0.27,0.322,0.429,1.07,0.429,1.07s3.621-1.832,3.645-1.935c0.046-0.206-0.198-0.727-0.391-1.017	c-0.24-0.361-0.568-0.566-0.568-0.566L28.378,36.436z" class="st3"/><path id="Stroke-206-4-8" d="M34.627,32.877c0.426,0.377,0.312,0.252,0.53,0.514	c0.27,0.322,0.429,1.07,0.429,1.07s3.621-1.832,3.645-1.935c0.046-0.206-0.198-0.727-0.391-1.017	c-0.24-0.361-0.568-0.566-0.568-0.566L34.627,32.877z" class="st3"/><path id="Stroke-206-4-7" d="M41.597,29.823c0.426,0.377,0.312,0.252,0.53,0.514	c0.27,0.322,0.429,1.07,0.429,1.07s3.621-1.832,3.645-1.935c0.046-0.206-0.198-0.727-0.391-1.017	c-0.24-0.361-0.568-0.566-0.568-0.566L41.597,29.823z" class="st3"/><path id="Stroke-206-4-85" d="M47.847,26.264c0.426,0.377,0.312,0.252,0.53,0.514	c0.27,0.322,0.429,1.07,0.429,1.07s3.621-1.832,3.645-1.935c0.046-0.206-0.198-0.727-0.391-1.017	c-0.24-0.361-0.568-0.566-0.568-0.566L47.847,26.264z" class="st3"/><path id="Stroke-206-4-70" d="M54.235,22.718c0.426,0.377,0.312,0.252,0.53,0.514	c0.27,0.322,0.429,1.07,0.429,1.07s3.621-1.832,3.645-1.935c0.046-0.206-0.198-0.727-0.391-1.017	c-0.24-0.361-0.568-0.566-0.568-0.566L54.235,22.718z" class="st3"/><path id="Stroke-35-5" d="M64.831,73.257l-3.645,1.935	c0.188-0.1,0.305-0.331,0.305-0.666l3.645-1.935C65.136,72.924,65.018,73.157,64.831,73.257z" class="st2"/><path id="Stroke-35-5-2" d="M58.581,76.814l-3.645,1.935	c0.188-0.1,0.305-0.331,0.305-0.666l3.645-1.935C58.886,76.483,58.768,76.715,58.581,76.814z" class="st2"/><path id="Stroke-35-5-0" d="M52.193,80.361l-3.645,1.935	c0.188-0.1,0.305-0.331,0.305-0.666l3.645-1.935C52.498,80.03,52.38,80.262,52.193,80.361z" class="st2"/><path id="Stroke-35-5-6" d="M45.943,83.92l-3.645,1.935	c0.188-0.1,0.305-0.331,0.305-0.666l3.645-1.935C46.248,83.589,46.13,83.821,45.943,83.92z" class="st2"/><path id="Stroke-35-5-3" d="M38.973,86.975l-3.645,1.935	c0.188-0.1,0.305-0.331,0.305-0.666l3.645-1.935C39.278,86.644,39.16,86.876,38.973,86.975z" class="st2"/><path id="Stroke-35-5-9" d="M32.723,90.535l-3.645,1.935	c0.188-0.1,0.305-0.331,0.305-0.666l3.645-1.935C33.028,90.202,32.91,90.435,32.723,90.535z" class="st2"/><path id="Stroke-208-1-7-1" d="M27.555,6.935c0,0,0.147-0.062,0.307-0.011	l0.159,0.052l0.209,0.115l3.663-1.924l-0.266-0.141l-0.162-0.044l-0.14-0.007C31.465,4.982,31.2,5,31.2,5L27.555,6.935z" class="st2"/><path id="Stroke-208-1-7-5" d="M21.167,10.483c0,0,0.147-0.062,0.307-0.011	l0.159,0.052l0.209,0.115l3.663-1.924l-0.266-0.141L25.077,8.53l-0.14-0.007c0.14,0.007-0.125,0.025-0.125,0.025L21.167,10.483z" class="st2"/><path id="Stroke-208-1-7-6" d="M14.935,14.052c0,0,0.147-0.062,0.307-0.011	l0.159,0.052l0.209,0.115l3.663-1.924l-0.266-0.141L18.844,12.1l-0.14-0.007c0.14,0.007-0.125,0.025-0.125,0.025L14.935,14.052z" class="st2"/><path id="Stroke-208-1-7-57" d="M7.948,17.096c0,0,0.147-0.062,0.307-0.011	l0.159,0.052l0.209,0.115l3.663-1.924l-0.266-0.141l-0.162-0.044l-0.14-0.007c0.14,0.007-0.125,0.025-0.125,0.025L7.948,17.096z" class="st2"/><path id="Stroke-208-1-7-4" d="M1.716,20.666c0,0,0.147-0.062,0.307-0.011	l0.159,0.052l0.209,0.115l3.663-1.924l-0.266-0.141l-0.162-0.044l-0.14-0.007c0.14,0.007-0.125,0.025-0.125,0.025L1.716,20.666z" class="st2"/><path id="Stroke-2916" d="M1.265,21.128c0.012-0.813,1.759,0.185,1.759,0.185l25.071,15.065	c0,0,0.299,0.273,0.803,0.799c0.504,0.525,0.558,1.648,0.558,1.648l0.081,51.05c0,0-0.062,1.603-0.356,2.102	s-0.956,0.418-0.956,0.418" class="st8"/><path id="Stroke-208-1-7" d="M33.805,3.378c0,0,0.147-0.062,0.307-0.011l0.159,0.052	l0.209,0.115l3.663-1.924l-0.266-0.141l-0.162-0.044l-0.14-0.007c0.14,0.007-0.125,0.025-0.125,0.025L33.805,3.378z" class="st2"/><path id="Stroke-1343-7" d="M5.436,25.149l1.458-0.774	c0.175-0.092,0.408-0.073,0.665,0.082l-1.458,0.773C5.844,25.076,5.611,25.056,5.436,25.149z" class="st2"/><path id="Stroke-1456-7" d="M22.035,34.814l1.458-0.774	c0.535,0.322,0.974,1.113,0.974,1.758l-1.458,0.774C23.009,35.926,22.571,35.137,22.035,34.814z" class="st2"/><path id="Stroke-1295-2" d="M24.196,90.23l-1.457,0.774	c0.189-0.1,0.308-0.334,0.308-0.67l1.458-0.774C24.505,89.897,24.385,90.129,24.196,90.23z" class="st5"/><path id="Stroke-2918" d="M5.377,25.67c0.011-0.736,0.973-0.176,0.973-0.176l15.348,9.223c0,0,0.27,0.247,0.727,0.723	c0.456,0.475,0.505,1.492,0.505,1.492l0.093,52.034c0,0,0.082,1.189-0.184,1.641c-0.267,0.451-0.98-0.271-0.98-0.271" class="st9"/><path id="Stroke-2910" d="M20.887,11.014c0.012-0.813,1.759,0.185,1.759,0.185l25.071,15.065	c0,0,0.299,0.273,0.803,0.799c0.504,0.525,0.558,1.648,0.558,1.648l0.081,51.05c0,0-0.062,1.603-0.356,2.102	s-0.956,0.418-0.956,0.418" class="st8"/><path id="Stroke-2914" d="M7.724,17.545c0.012-0.813,1.759,0.185,1.759,0.185l25.071,15.065	c0,0,0.299,0.273,0.803,0.799c0.504,0.525,0.558,1.648,0.558,1.648l0.081,51.05c0,0-0.062,1.603-0.356,2.102	s-0.956,0.418-0.956,0.418" class="st8"/><path id="Stroke-2912" d="M14.637,14.573c0.012-0.813,1.759,0.185,1.759,0.185l25.071,15.065	c0,0,0.299,0.273,0.803,0.799c0.504,0.525,0.558,1.648,0.558,1.648l0.081,51.05c0,0-0.062,1.603-0.356,2.102	s-0.956,0.418-0.956,0.418" class="st8"/><path id="Stroke-2908" d="M27.122,7.422c0.012-0.813,1.759,0.185,1.759,0.185l25.071,15.065	c0,0,0.299,0.273,0.803,0.799c0.504,0.525,0.558,1.648,0.558,1.648l0.081,51.05c0,0-0.062,1.603-0.356,2.102	s-0.956,0.418-0.956,0.418" class="st8"/><path id="Stroke-2906" d="M33.564,3.844c0.012-0.813,1.759,0.185,1.759,0.185l25.071,15.065	c0,0,0.299,0.273,0.803,0.799c0.504,0.525,0.558,1.648,0.558,1.648l0.081,51.05c0,0-0.062,1.603-0.356,2.102	s-0.956,0.418-0.956,0.418" class="st8"/></svg>