<svg xmlns="http://www.w3.org/2000/svg" xmlns:xlink="http://www.w3.org/1999/xlink" id="Layer_1" x="0" y="0" version="1.1" viewBox="0 0 115.788 128.577" xml:space="preserve" style="enable-background:new 0 0 115.788 128.577"><style type="text/css">.st0{fill:none;stroke:#626467;stroke-width:2.722;stroke-linecap:square;stroke-linejoin:round}.st1{fill:#404042}.st2{fill:#231f20}.st3{fill:#58585b}.st4{fill:#6c6e70}.st5{fill:#d0d2d3}.st6{fill:#b2b3b6}.st7{fill:#a4a6a9}.st8{fill:#a2a5a7}.st9{fill:#a1a3a6}.st10{fill:#9fa1a4}.st11{fill:#9ea0a2}.st12{fill:#9c9ea1}.st13{fill:#9a9c9f}.st14{fill:#999b9d}.st15{fill:#97999c}.st16{fill:#96989a}.st17{fill:#949699}.st18{fill:#a6a8aa}.st19{fill:#a7a9ac}.st20{fill:#a9abae}.st21{fill:#abadaf}.st22{fill:#babcbe}.st23{fill:#898a8c}.st24{fill:#acaeb1}.st25{fill:#aeb0b2}.st26{fill:#b0b2b4}.st27{fill:#b1b3b6}.st28{fill:#b3b5b7}.st29{fill:#b5b7b9}.st30{fill:#b6b8bb}.st31{fill:#b8babc}.st32{fill:#bbbdc0}.st33{fill:#c0c2c4}.st34{fill:#c2c4c6}.st35{fill:#c3c5c7}.st36{fill:#c5c6c8}.st37{fill:#c6c7c9}.st38{fill:#a6a8ab}.st39{fill:#fefefe}.st40{fill:none;stroke:#efeeee;stroke-width:.336;stroke-linecap:round;stroke-linejoin:round}.st41{fill:#939597}.st42{fill:#808184}.st43{fill:#469049}.st44{fill:#bbddb1}.st45{fill:#8ccb8e}.st46{fill:none;stroke:#dfdfde;stroke-width:.345;stroke-linecap:round;stroke-linejoin:round}</style><title>icon-IE300</title><desc>Created with Sketch.</desc><polygon id="Stroke-1" points="56.617 9.061 58.95 7.822 58.995 71.181 56.661 72.419" class="st0"/><polygon id="Stroke-2" points="45.863 2.6 48.197 1.361 58.95 7.823 56.617 9.061" class="st0"/><polygon id="Stroke-4" points="56.617 9.061 56.661 72.418 45.908 65.958 45.863 2.6" class="st0"/><polygon id="Stroke-7" points="51.646 11.673 53.98 10.434 54.024 73.792 51.691 75.03" class="st0"/><polygon id="Stroke-8" points="40.893 5.211 43.227 3.972 53.98 10.434 51.646 11.672" class="st0"/><polygon id="Stroke-10" points="51.646 11.673 51.691 75.03 40.937 68.569 40.893 5.212" class="st0"/><polygon id="Stroke-11" points="46.677 14.607 49.011 13.369 49.055 76.726 46.721 77.965" class="st0"/><polygon id="Stroke-12" points="35.924 8.146 38.257 6.907 49.011 13.369 46.677 14.607" class="st0"/><polygon id="Stroke-13" points="46.677 14.607 46.721 77.965 35.968 71.504 35.924 8.146" class="st0"/><polygon id="Stroke-14" points="41.707 17.219 44.04 15.981 44.085 79.338 41.751 80.577" class="st0"/><polygon id="Stroke-15" points="30.953 10.758 33.287 9.519 44.04 15.981 41.707 17.219" class="st0"/><polygon id="Stroke-16" points="41.707 17.219 41.751 80.577 30.998 74.116 30.953 10.758" class="st0"/><polygon id="Stroke-17" points="36.736 19.574 39.07 18.335 39.114 81.693 36.781 82.932" class="st0"/><polygon id="Stroke-18" points="25.983 13.112 28.317 11.874 39.07 18.335 36.736 19.573" class="st0"/><polygon id="Stroke-19" points="36.736 19.574 36.781 82.932 26.028 76.47 25.983 13.113" class="st0"/><polygon id="Stroke-20" points="31.766 22.185 34.1 20.946 34.144 84.304 31.811 85.543" class="st0"/><polygon id="Stroke-21" points="21.013 15.724 23.346 14.485 34.1 20.946 31.766 22.185" class="st0"/><polygon id="Stroke-22" points="31.766 22.185 31.811 85.543 21.057 79.081 21.013 15.724" class="st0"/><polygon id="Stroke-23" points="26.797 25.12 29.13 23.881 29.175 87.239 26.841 88.477" class="st0"/><polygon id="Stroke-24" points="16.044 18.659 18.377 17.42 29.13 23.882 26.797 25.12" class="st0"/><polygon id="Stroke-25" points="26.797 25.12 26.841 88.477 16.088 82.016 16.044 18.659" class="st0"/><polygon id="Stroke-26" points="21.827 27.731 24.16 26.492 24.205 89.85 21.871 91.088" class="st0"/><polygon id="Stroke-27" points="11.073 21.27 13.407 20.031 24.16 26.493 21.827 27.731" class="st0"/><polygon id="Stroke-28" points="21.827 27.731 21.871 91.088 11.118 84.627 11.073 21.27" class="st0"/><polygon id="Stroke-29" points="16.856 30.236 19.19 28.998 19.234 92.355 16.901 93.594" class="st0"/><polygon id="Stroke-30" points="6.103 23.775 8.437 22.536 19.19 28.998 16.856 30.236" class="st0"/><polygon id="Stroke-31" points="16.856 30.236 16.901 93.594 6.148 87.133 6.103 23.775" class="st0"/><polygon id="Stroke-32" points="12.114 32.475 14.448 31.237 14.492 94.595 12.159 95.834" class="st0"/><polygon id="Stroke-33" points="1.361 26.014 3.695 24.776 14.448 31.237 12.114 32.475" class="st0"/><polygon id="Stroke-35" points="12.114 32.475 12.159 95.834 1.405 89.372 1.361 26.014" class="st0"/><polygon id="Stroke-38" points="54.035 57.205 105.373 29.955 105.42 95.757 54.081 123.007" class="st0"/><polygon id="Stroke-39" points="11.626 31.724 62.965 4.473 105.373 29.955 54.035 57.206" class="st0"/><polygon id="Stroke-41" points="54.035 57.205 54.081 123.007 11.672 97.526 11.626 31.724" class="st0"/><polygon id="Stroke-42" points="112.049 40.444 114.382 39.206 114.427 102.563 112.094 103.802" class="st0"/><polygon id="Stroke-44" points="101.297 33.983 103.63 32.744 114.383 39.206 112.05 40.444" class="st0"/><polygon id="Stroke-46" points="112.049 40.444 112.094 103.802 101.34 97.341 101.296 33.983" class="st0"/><polygon id="Stroke-49" points="107.08 43.056 109.413 41.817 109.458 105.175 107.124 106.413" class="st0"/><polygon id="Stroke-50" points="96.326 36.595 98.66 35.356 109.413 41.818 107.08 43.056" class="st0"/><polygon id="Stroke-51" points="107.08 43.056 107.124 106.413 96.371 99.952 96.326 36.595" class="st0"/><polygon id="Stroke-52" points="102.109 45.991 104.443 44.752 104.487 108.11 102.154 109.349" class="st0"/><polygon id="Stroke-53" points="91.356 39.53 93.69 38.291 104.443 44.752 102.109 45.991" class="st0"/><polygon id="Stroke-54" points="102.109 45.991 102.154 109.349 91.401 102.888 91.356 39.53" class="st0"/><polygon id="Stroke-55" points="97.139 48.602 99.473 47.363 99.517 110.721 97.183 111.96" class="st0"/><polygon id="Stroke-56" points="86.386 42.141 88.719 40.902 99.473 47.363 97.139 48.602" class="st0"/><polygon id="Stroke-57" points="97.139 48.602 97.183 111.96 86.43 105.499 86.386 42.141" class="st0"/><polygon id="Stroke-58" points="92.17 50.957 94.503 49.718 94.548 113.076 92.214 114.314" class="st0"/><polygon id="Stroke-59" points="81.416 44.495 83.75 43.257 94.503 49.718 92.17 50.956" class="st0"/><polygon id="Stroke-60" points="92.17 50.957 92.214 114.314 81.461 107.853 81.416 44.496" class="st0"/><polygon id="Stroke-61" points="87.199 53.568 89.533 52.329 89.577 115.687 87.244 116.926" class="st0"/><polygon id="Stroke-62" points="76.446 47.107 78.78 45.869 89.533 52.33 87.199 53.568" class="st0"/><polygon id="Stroke-63" points="87.199 53.568 87.244 116.926 76.491 110.464 76.446 47.107" class="st0"/><polygon id="Stroke-64" points="82.229 56.503 84.563 55.265 84.607 118.622 82.274 119.861" class="st0"/><polygon id="Stroke-65" points="71.476 50.042 73.81 48.803 84.563 55.265 82.229 56.503" class="st0"/><polygon id="Stroke-66" points="82.229 56.503 82.274 119.861 71.52 113.4 71.476 50.042" class="st0"/><polygon id="Stroke-67" points="77.259 59.114 79.592 57.876 79.638 121.233 77.304 122.472" class="st0"/><polygon id="Stroke-68" points="66.507 52.653 68.84 51.414 79.593 57.876 77.26 59.114" class="st0"/><polygon id="Stroke-69" points="77.259 59.114 77.304 122.472 66.55 116.011 66.507 52.653" class="st0"/><polygon id="Stroke-70" points="72.29 61.619 74.623 60.38 74.668 123.738 72.334 124.977" class="st0"/><polygon id="Stroke-72" points="61.536 55.158 63.87 53.919 74.623 60.38 72.29 61.619" class="st0"/><polygon id="Stroke-73" points="72.29 61.619 72.334 124.977 61.581 118.516 61.536 55.158" class="st0"/><polygon id="Stroke-75" points="67.547 63.859 69.881 62.62 69.926 125.978 67.592 127.216" class="st0"/><polygon id="Stroke-78" points="56.794 57.397 59.128 56.158 69.881 62.62 67.547 63.858" class="st0"/><polygon id="Stroke-79" points="67.547 63.859 67.592 127.216 56.839 120.755 56.794 57.398" class="st0"/><path id="Stroke-81" d="M52.648,122.157l1.4-0.744c0,0.015,0,0.029-0.001,0.043l-1.399,0.743V122.157" class="st0"/><path id="Stroke-84" d="M52.648,122.2l1.399-0.743c0,0.028-0.001,0.056-0.003,0.083l-1.399,0.743	C52.646,122.256,52.647,122.228,52.648,122.2" class="st0"/><path id="Stroke-87" d="M52.645,122.283l1.399-0.743c-0.001,0.028-0.003,0.056-0.005,0.083l-1.4,0.743	C52.641,122.339,52.643,122.311,52.645,122.283" class="st0"/><path id="Stroke-90" d="M52.639,122.366l1.399-0.744c-0.002,0.029-0.004,0.056-0.008,0.083l-1.401,0.743	C52.633,122.421,52.636,122.394,52.639,122.366" class="st0"/><path id="Stroke-93" d="M52.63,122.448l1.4-0.743c-0.004,0.029-0.008,0.056-0.013,0.084l-1.4,0.743	C52.622,122.505,52.626,122.477,52.63,122.448" class="st0"/><path id="Stroke-96" d="M52.617,122.533l1.399-0.743c-0.004,0.028-0.01,0.056-0.016,0.083l-1.401,0.743	C52.605,122.589,52.611,122.561,52.617,122.533" class="st0"/><path id="Stroke-99" d="M52.599,122.616l1.4-0.743c-0.007,0.031-0.015,0.06-0.024,0.09l-1.399,0.743	C52.584,122.677,52.592,122.647,52.599,122.616" class="st0"/><path id="Stroke-102" d="M52.576,122.706l1.399-0.743c-0.008,0.032-0.019,0.063-0.03,0.093l-1.4,0.743	C52.555,122.769,52.566,122.738,52.576,122.706" class="st0"/><path id="Stroke-105" d="M52.545,122.798l1.4-0.743c-0.013,0.035-0.027,0.068-0.043,0.1l-1.4,0.743	C52.518,122.866,52.531,122.833,52.545,122.798" class="st0"/><path id="Stroke-108" d="M52.502,122.898l1.4-0.743c-0.02,0.042-0.042,0.081-0.065,0.118l-1.4,0.744	C52.46,122.98,52.482,122.94,52.502,122.898" class="st0"/><path id="Stroke-111" d="M52.436,123.017l1.4-0.744c-0.085,0.134-0.194,0.236-0.32,0.303l-1.4,0.743	C52.243,123.252,52.351,123.15,52.436,123.017" class="st0"/><path id="Stroke-115" d="M53.516,122.576l-1.4,0.743c0.328-0.174,0.532-0.578,0.532-1.162l1.4-0.744	C54.048,121.997,53.844,122.402,53.516,122.576z" class="st0"/><path id="Stroke-117" d="M10.737,33.794l1.4-0.743c0.037-0.02,0.076-0.037,0.116-0.05l-1.4,0.743	C10.813,33.757,10.774,33.774,10.737,33.794" class="st0"/><path id="Stroke-120" d="M10.853,33.744l1.399-0.743c0.04-0.014,0.08-0.025,0.122-0.032l-1.399,0.743	C10.933,33.72,10.892,33.73,10.853,33.744" class="st0"/><path id="Stroke-123" d="M10.975,33.712l1.399-0.743c0.033-0.006,0.066-0.01,0.1-0.013l-1.4,0.743	C11.039,33.702,11.007,33.706,10.975,33.712" class="st0"/><path id="Stroke-126" d="M11.074,33.699l1.4-0.743c0.029-0.002,0.058-0.003,0.088-0.003l-1.4,0.744	C11.133,33.696,11.102,33.697,11.074,33.699" class="st0"/><path id="Stroke-129" d="M11.162,33.697l1.4-0.743c0.028,0,0.056,0.002,0.083,0.004l-1.399,0.743	C11.218,33.699,11.189,33.697,11.162,33.697" class="st0"/><path id="Stroke-132" d="M11.246,33.701l1.399-0.743c0.026,0.002,0.051,0.005,0.077,0.009l-1.401,0.744	C11.296,33.706,11.27,33.703,11.246,33.701" class="st0"/><path id="Stroke-135" d="M11.321,33.711l1.4-0.744c0.025,0.004,0.049,0.009,0.075,0.015l-1.401,0.743	C11.37,33.719,11.345,33.715,11.321,33.711" class="st0"/><path id="Stroke-138" d="M11.395,33.725l1.4-0.744c0.024,0.006,0.047,0.012,0.072,0.018l-1.401,0.744	C11.443,33.736,11.418,33.73,11.395,33.725" class="st0"/><path id="Stroke-141" d="M11.466,33.743l1.4-0.743c0.024,0.006,0.047,0.014,0.071,0.021l-1.401,0.743	C11.513,33.757,11.489,33.749,11.466,33.743" class="st0"/><path id="Stroke-144" d="M11.537,33.764l1.4-0.743c0.024,0.008,0.046,0.016,0.07,0.025l-1.401,0.743	C11.583,33.78,11.56,33.772,11.537,33.764" class="st0"/><path id="Stroke-147" d="M11.606,33.789l1.4-0.743c0.023,0.009,0.046,0.018,0.07,0.028l-1.401,0.743	C11.652,33.807,11.629,33.798,11.606,33.789" class="st0"/><path id="Stroke-150" d="M11.675,33.817l1.4-0.743c0.023,0.01,0.045,0.02,0.069,0.032l-1.401,0.743	C11.721,33.838,11.697,33.827,11.675,33.817" class="st0"/><path id="Stroke-153" d="M11.744,33.849l1.4-0.743c0.024,0.011,0.046,0.023,0.07,0.035l-1.401,0.743	C11.791,33.872,11.767,33.86,11.744,33.849" class="st0"/><path id="Stroke-156" d="M11.813,33.884l1.4-0.743c0.024,0.013,0.047,0.025,0.071,0.039l-1.401,0.743	C11.86,33.909,11.836,33.897,11.813,33.884" class="st0"/><polyline id="Stroke-159" points="11.883 33.923 13.283 33.18 13.31 33.196 11.91 33.939 11.883 33.923" class="st0"/><path id="Stroke-163" d="M10.737,33.794l1.4-0.743c0.307-0.163,0.72-0.128,1.173,0.145l-1.4,0.743	C11.457,33.667,11.044,33.631,10.737,33.794z" class="st0"/><polygon id="Stroke-165" points="11.91 33.939 13.31 33.196 52.323 56.637 50.923 57.38" class="st0"/><polygon id="Stroke-166" points="52.605 60.416 54.004 59.673 54.048 121.414 52.648 122.157" class="st0"/><path id="Stroke-167" d="M50.923,57.38l1.4-0.743c0.015,0.009,0.03,0.018,0.044,0.027l-1.4,0.743	C50.952,57.398,50.938,57.389,50.923,57.38" class="st0"/><path id="Stroke-170" d="M50.966,57.408l1.4-0.743c0.024,0.014,0.047,0.03,0.071,0.046l-1.401,0.743	C51.015,57.438,50.99,57.423,50.966,57.408" class="st0"/><path id="Stroke-173" d="M51.037,57.453l1.4-0.743c0.025,0.016,0.048,0.033,0.073,0.051l-1.401,0.743	C51.085,57.486,51.061,57.47,51.037,57.453" class="st0"/><path id="Stroke-176" d="M51.109,57.504l1.4-0.743c0.024,0.017,0.048,0.036,0.072,0.055l-1.401,0.743	C51.157,57.54,51.132,57.522,51.109,57.504" class="st0"/><path id="Stroke-179" d="M51.18,57.559l1.4-0.743c0.026,0.019,0.05,0.039,0.075,0.06l-1.401,0.743	C51.23,57.599,51.205,57.579,51.18,57.559" class="st0"/><path id="Stroke-182" d="M51.255,57.619l1.4-0.743c0.025,0.021,0.05,0.042,0.074,0.064l-1.4,0.743	C51.305,57.661,51.28,57.64,51.255,57.619" class="st0"/><path id="Stroke-185" d="M51.329,57.683l1.399-0.743c0.026,0.022,0.05,0.045,0.076,0.069l-1.401,0.743	C51.379,57.728,51.353,57.705,51.329,57.683" class="st0"/><path id="Stroke-188" d="M51.403,57.752l1.4-0.743c0.025,0.023,0.048,0.047,0.073,0.071l-1.401,0.744	C51.451,57.799,51.427,57.775,51.403,57.752" class="st0"/><path id="Stroke-191" d="M51.475,57.824l1.4-0.744c0.024,0.024,0.046,0.049,0.07,0.074l-1.401,0.743	C51.522,57.872,51.498,57.847,51.475,57.824" class="st0"/><path id="Stroke-194" d="M51.545,57.897l1.4-0.743c0.022,0.024,0.044,0.048,0.066,0.073L51.61,57.97	C51.589,57.945,51.567,57.921,51.545,57.897" class="st0"/><path id="Stroke-197" d="M51.61,57.97l1.4-0.743c0.022,0.024,0.042,0.048,0.063,0.073l-1.401,0.743	C51.652,58.018,51.631,57.994,51.61,57.97" class="st0"/><path id="Stroke-200" d="M51.673,58.043l1.4-0.743c0.021,0.024,0.04,0.049,0.06,0.074l-1.399,0.743	C51.713,58.092,51.694,58.067,51.673,58.043" class="st0"/><path id="Stroke-203" d="M51.733,58.117l1.399-0.743c0.02,0.025,0.039,0.05,0.059,0.075l-1.4,0.743	C51.771,58.167,51.753,58.142,51.733,58.117" class="st0"/><path id="Stroke-206" d="M51.791,58.192l1.4-0.743c0.021,0.028,0.042,0.056,0.063,0.085l-1.401,0.743	C51.833,58.249,51.812,58.22,51.791,58.192" class="st0"/><path id="Stroke-209" d="M51.853,58.277l1.4-0.743c0.022,0.03,0.043,0.061,0.064,0.092l-1.4,0.743	C51.896,58.338,51.874,58.307,51.853,58.277" class="st0"/><path id="Stroke-212" d="M51.918,58.37l1.399-0.743c0.1,0.148,0.192,0.303,0.273,0.464l-1.401,0.743	C52.108,58.674,52.018,58.518,51.918,58.37" class="st0"/><path id="Stroke-215" d="M52.189,58.833l1.4-0.743c0.017,0.032,0.033,0.065,0.048,0.097l-1.4,0.744	C52.221,58.898,52.206,58.865,52.189,58.833" class="st0"/><path id="Stroke-218" d="M52.237,58.931l1.4-0.743c0.014,0.03,0.028,0.059,0.041,0.09l-1.399,0.743	C52.265,58.991,52.252,58.961,52.237,58.931" class="st0"/><path id="Stroke-221" d="M52.279,59.021l1.399-0.743c0.012,0.025,0.023,0.051,0.035,0.077l-1.401,0.743	C52.301,59.072,52.29,59.047,52.279,59.021" class="st0"/><path id="Stroke-224" d="M52.312,59.098l1.4-0.743c0.011,0.025,0.021,0.051,0.032,0.077l-1.401,0.743	C52.333,59.149,52.323,59.123,52.312,59.098" class="st0"/><path id="Stroke-227" d="M52.343,59.175l1.4-0.743c0.011,0.025,0.021,0.051,0.031,0.077l-1.401,0.743	C52.365,59.226,52.355,59.2,52.343,59.175" class="st0"/><path id="Stroke-230" d="M52.374,59.252l1.4-0.743c0.01,0.026,0.02,0.052,0.029,0.078l-1.401,0.743	C52.394,59.304,52.384,59.278,52.374,59.252" class="st0"/><path id="Stroke-233" d="M52.402,59.33l1.4-0.743c0.01,0.027,0.019,0.054,0.028,0.08l-1.4,0.744	C52.422,59.384,52.412,59.357,52.402,59.33" class="st0"/><path id="Stroke-236" d="M52.43,59.411l1.399-0.743c0.01,0.028,0.019,0.056,0.028,0.084l-1.401,0.743	C52.448,59.467,52.439,59.439,52.43,59.411" class="st0"/><path id="Stroke-239" d="M52.457,59.495l1.4-0.743c0.009,0.029,0.017,0.057,0.026,0.086l-1.401,0.743	C52.475,59.553,52.466,59.524,52.457,59.495" class="st0"/><path id="Stroke-242" d="M52.482,59.581l1.4-0.743l0.024,0.089l-1.401,0.743C52.499,59.641,52.49,59.611,52.482,59.581" class="st0"/><path id="Stroke-245" d="M52.506,59.671l1.4-0.743c0.008,0.03,0.015,0.06,0.022,0.09l-1.401,0.743	C52.521,59.731,52.514,59.701,52.506,59.671" class="st0"/><path id="Stroke-248" d="M52.527,59.761l1.4-0.743c0.007,0.03,0.014,0.06,0.02,0.091l-1.4,0.743	C52.541,59.822,52.534,59.791,52.527,59.761" class="st0"/><path id="Stroke-251" d="M52.547,59.852l1.4-0.743c0.006,0.03,0.012,0.059,0.017,0.09l-1.4,0.743	C52.559,59.912,52.553,59.882,52.547,59.852" class="st0"/><path id="Stroke-254" d="M52.563,59.942l1.4-0.743c0.005,0.029,0.01,0.059,0.014,0.088l-1.4,0.743	C52.573,60.001,52.568,59.971,52.563,59.942" class="st0"/><path id="Stroke-257" d="M52.577,60.03l1.4-0.743c0.004,0.029,0.008,0.058,0.011,0.087l-1.4,0.743	C52.585,60.089,52.581,60.059,52.577,60.03" class="st0"/><path id="Stroke-260" d="M52.588,60.118l1.4-0.743c0.003,0.029,0.006,0.057,0.008,0.086l-1.399,0.743L52.588,60.118" class="st0"/><path id="Stroke-263" d="M52.596,60.204l1.399-0.743c0.003,0.028,0.005,0.057,0.006,0.085l-1.4,0.743	C52.6,60.261,52.598,60.232,52.596,60.204" class="st0"/><path id="Stroke-266" d="M52.601,60.289l1.4-0.743c0.002,0.028,0.003,0.056,0.003,0.084l-1.4,0.743	C52.604,60.346,52.603,60.317,52.601,60.289" class="st0"/><path id="Stroke-269" d="M52.604,60.374l1.4-0.743v0.042l-1.399,0.743C52.605,60.402,52.604,60.388,52.604,60.374" class="st0"/><path id="Stroke-273" d="M50.923,57.38l1.4-0.743c0.927,0.557,1.682,1.913,1.682,3.035l-1.399,0.744	C52.605,59.294,51.851,57.937,50.923,57.38z" class="st0"/><path id="Stroke-275" d="M50.923,57.38c0.928,0.557,1.682,1.914,1.683,3.036l0.043,61.741	c0.001,1.122-0.756,1.58-1.691,1.018L11.921,99.72c-0.927-0.557-1.681-1.918-1.682-3.036l-0.043-61.707	c-0.001-1.142,0.768-1.607,1.714-1.038L50.923,57.38z" class="st0"/><polygon id="Stroke-278" points="34.915 60.022 31.519 57.96 31.519 53.129 34.915 55.19" class="st0"/><polygon id="Stroke-279" points="34.915 66.155 31.519 64.094 31.519 59.261 34.915 61.323" class="st0"/><polygon id="Stroke-280" points="34.915 72.288 31.519 70.226 31.519 65.396 34.915 67.456" class="st0"/><polygon id="Stroke-281" points="34.915 78.42 31.519 76.359 31.519 71.527 34.915 73.589" class="st0"/><polygon id="Stroke-282" points="34.915 89.497 31.519 87.435 31.519 82.604 34.915 84.664" class="st0"/><polygon id="Stroke-283" points="34.915 95.628 31.519 93.567 31.519 88.735 34.915 90.797" class="st0"/><polygon id="Stroke-284" points="34.915 101.761 31.519 99.699 31.519 94.869 34.915 96.93" class="st0"/><polygon id="Stroke-285" points="34.915 107.894 31.519 105.833 31.519 101.001 34.915 103.063" class="st0"/><polygon id="Stroke-286" points="23.989 73.753 20.593 71.691 20.593 66.859 23.989 68.92" class="st0"/><path id="Stroke-287" d="M10.311,34.633c0.128-0.975,0.742-0.88,1.469-0.526c4.946,2.411,23.924,14.325,23.924,14.325	l15.358,9.228c0,0,0.321,0.203,0.727,0.723c0.513,0.657,0.692,2.241,0.692,2.241l0.149,54.095c0,0,0.01,7.092-0.029,7.472	c-0.183,1.747-1.73,0.817-1.73,0.817" class="st0"/><polygon id="Stroke-289" points="23.782 83.321 20.386 81.259 20.386 76.428 23.782 78.488" class="st0"/><polygon id="Stroke-291" points="23.782 89.453 20.386 87.392 20.386 82.56 23.782 84.622" class="st0"/><polygon id="Stroke-293" points="23.782 95.586 20.386 93.524 20.386 88.694 23.782 90.755" class="st0"/><polygon id="Stroke-295" points="23.782 101.719 20.386 99.658 20.386 94.826 23.782 96.888" class="st0"/><polygon id="Fill-297" points="56.617 9.061 58.95 7.823 58.995 71.181 56.661 72.418" class="st1"/><polygon id="Fill-299" points="45.863 2.6 48.197 1.361 58.95 7.823 56.617 9.061" class="st2"/><polygon id="Fill-301" points="56.617 9.061 56.661 72.418 45.908 65.958 45.863 2.6" class="st3"/><polygon id="Fill-303" points="51.646 11.673 53.98 10.434 54.024 73.792 51.691 75.03" class="st1"/><polygon id="Fill-305" points="40.893 5.211 43.227 3.972 53.98 10.434 51.646 11.672" class="st2"/><polygon id="Fill-307" points="51.646 11.673 51.691 75.03 40.937 68.569 40.893 5.212" class="st3"/><polygon id="Fill-309" points="46.677 14.607 49.011 13.369 49.055 76.726 46.721 77.965" class="st1"/><polygon id="Fill-311" points="35.924 8.146 38.257 6.907 49.011 13.369 46.677 14.607" class="st2"/><polygon id="Fill-313" points="46.677 14.607 46.721 77.965 35.968 71.504 35.924 8.146" class="st3"/><polygon id="Fill-315" points="41.707 17.219 44.04 15.981 44.085 79.338 41.751 80.577" class="st1"/><polygon id="Fill-317" points="30.953 10.758 33.287 9.519 44.04 15.981 41.707 17.219" class="st2"/><polygon id="Fill-319" points="41.707 17.219 41.751 80.577 30.998 74.116 30.953 10.758" class="st3"/><polygon id="Fill-321" points="36.736 19.574 39.07 18.335 39.114 81.693 36.781 82.932" class="st1"/><polygon id="Fill-323" points="25.983 13.112 28.317 11.874 39.07 18.335 36.736 19.573" class="st2"/><polygon id="Fill-325" points="36.736 19.574 36.781 82.932 26.028 76.47 25.983 13.113" class="st3"/><polygon id="Fill-327" points="31.766 22.185 34.1 20.946 34.144 84.304 31.811 85.543" class="st1"/><polygon id="Fill-329" points="21.013 15.724 23.346 14.485 34.1 20.946 31.766 22.185" class="st2"/><polygon id="Fill-331" points="31.766 22.185 31.811 85.543 21.057 79.081 21.013 15.724" class="st3"/><polygon id="Fill-333" points="26.797 25.12 29.13 23.881 29.175 87.239 26.841 88.477" class="st1"/><polygon id="Fill-335" points="16.044 18.659 18.377 17.42 29.13 23.882 26.797 25.12" class="st2"/><polygon id="Fill-337" points="26.797 25.12 26.841 88.477 16.088 82.016 16.044 18.659" class="st3"/><polygon id="Fill-339" points="21.827 27.731 24.16 26.492 24.205 89.85 21.871 91.088" class="st1"/><polygon id="Fill-341" points="11.073 21.27 13.407 20.031 24.16 26.493 21.827 27.731" class="st2"/><polygon id="Fill-343" points="21.827 27.731 21.871 91.088 11.118 84.627 11.073 21.27" class="st3"/><polygon id="Fill-345" points="16.856 30.236 19.19 28.998 19.234 92.355 16.901 93.594" class="st1"/><polygon id="Fill-347" points="6.103 23.775 8.437 22.536 19.19 28.998 16.856 30.236" class="st2"/><polygon id="Fill-349" points="16.856 30.236 16.901 93.594 6.148 87.133 6.103 23.775" class="st3"/><polygon id="Fill-351" points="12.114 32.476 14.448 31.237 14.492 94.595 12.159 95.834" class="st1"/><polygon id="Fill-353" points="1.361 26.014 3.695 24.776 14.448 31.237 12.114 32.475" class="st2"/><polygon id="Fill-355" points="12.114 32.476 12.159 95.834 1.405 89.372 1.361 26.015" class="st3"/><polygon id="Fill-357" points="54.035 57.205 105.373 29.955 105.42 95.757 54.081 123.008" class="st4"/><polygon id="Fill-359" points="11.626 31.724 62.965 4.473 105.373 29.955 54.035 57.206" class="st5"/><polygon id="Fill-361" points="54.035 57.205 54.081 123.008 11.672 97.526 11.626 31.724" class="st6"/><polygon id="Fill-363" points="112.049 40.444 114.382 39.206 114.427 102.563 112.093 103.802" class="st1"/><polygon id="Fill-365" points="101.297 33.983 103.63 32.744 114.383 39.206 112.05 40.444" class="st2"/><polygon id="Fill-367" points="112.049 40.444 112.093 103.802 101.34 97.341 101.297 33.983" class="st3"/><polygon id="Fill-369" points="107.08 43.056 109.413 41.817 109.458 105.175 107.124 106.413" class="st1"/><polygon id="Fill-371" points="96.326 36.595 98.66 35.356 109.413 41.818 107.08 43.056" class="st2"/><polygon id="Fill-373" points="107.08 43.056 107.124 106.413 96.371 99.952 96.326 36.595" class="st3"/><polygon id="Fill-375" points="102.109 45.991 104.443 44.752 104.487 108.11 102.154 109.349" class="st1"/><polygon id="Fill-377" points="91.356 39.53 93.69 38.291 104.443 44.752 102.109 45.991" class="st2"/><polygon id="Fill-379" points="102.109 45.991 102.154 109.349 91.401 102.888 91.356 39.53" class="st3"/><polygon id="Fill-381" points="97.139 48.602 99.473 47.363 99.517 110.721 97.183 111.96" class="st1"/><polygon id="Fill-383" points="86.386 42.141 88.719 40.902 99.473 47.363 97.139 48.602" class="st2"/><polygon id="Fill-385" points="97.139 48.602 97.183 111.96 86.43 105.499 86.386 42.141" class="st3"/><polygon id="Fill-387" points="92.17 50.957 94.503 49.718 94.548 113.076 92.214 114.314" class="st1"/><polygon id="Fill-389" points="81.416 44.495 83.75 43.257 94.503 49.718 92.17 50.956" class="st2"/><polygon id="Fill-391" points="92.17 50.957 92.214 114.314 81.461 107.853 81.416 44.496" class="st3"/><polygon id="Fill-393" points="87.199 53.568 89.533 52.329 89.577 115.687 87.244 116.926" class="st1"/><polygon id="Fill-395" points="76.446 47.107 78.78 45.869 89.533 52.33 87.199 53.568" class="st2"/><polygon id="Fill-397" points="87.199 53.568 87.244 116.926 76.491 110.464 76.446 47.107" class="st3"/><polygon id="Fill-399" points="82.229 56.503 84.563 55.265 84.607 118.622 82.274 119.861" class="st1"/><polygon id="Fill-401" points="71.476 50.042 73.81 48.803 84.563 55.265 82.229 56.503" class="st2"/><polygon id="Fill-403" points="82.229 56.503 82.274 119.861 71.52 113.4 71.476 50.042" class="st3"/><polygon id="Fill-405" points="77.259 59.114 79.592 57.876 79.638 121.233 77.304 122.472" class="st1"/><polygon id="Fill-407" points="66.507 52.653 68.84 51.414 79.593 57.876 77.26 59.114" class="st2"/><polygon id="Fill-409" points="77.259 59.114 77.304 122.472 66.55 116.011 66.507 52.653" class="st3"/><polygon id="Fill-411" points="72.29 61.619 74.623 60.38 74.668 123.738 72.334 124.977" class="st1"/><polygon id="Fill-413" points="61.536 55.158 63.87 53.919 74.623 60.38 72.29 61.619" class="st2"/><polygon id="Fill-415" points="72.29 61.619 72.334 124.977 61.581 118.516 61.536 55.158" class="st3"/><polygon id="Fill-417" points="67.547 63.859 69.881 62.62 69.926 125.978 67.592 127.216" class="st1"/><polygon id="Fill-419" points="56.794 57.397 59.128 56.158 69.881 62.62 67.547 63.858" class="st2"/><polygon id="Fill-421" points="67.547 63.859 67.592 127.216 56.839 120.755 56.794 57.398" class="st3"/><path id="Fill-424" d="M52.648,122.157l1.4-0.744c0,0.015,0,0.029-0.001,0.043l-1.399,0.743V122.157" class="st7"/><path id="Fill-427" d="M52.648,122.2l1.399-0.743c0,0.028-0.001,0.056-0.003,0.083l-1.399,0.743	C52.646,122.256,52.647,122.228,52.648,122.2" class="st8"/><path id="Fill-430" d="M52.645,122.283l1.399-0.743c-0.001,0.028-0.003,0.056-0.005,0.083l-1.4,0.743	C52.641,122.339,52.643,122.311,52.645,122.283" class="st9"/><path id="Fill-433" d="M52.639,122.366l1.399-0.744c-0.002,0.029-0.004,0.056-0.008,0.083l-1.401,0.743	C52.633,122.421,52.636,122.394,52.639,122.366" class="st10"/><path id="Fill-436" d="M52.63,122.448l1.4-0.743c-0.004,0.029-0.008,0.056-0.013,0.084l-1.4,0.743	C52.622,122.505,52.626,122.477,52.63,122.448" class="st11"/><path id="Fill-439" d="M52.617,122.533l1.399-0.743c-0.004,0.028-0.01,0.056-0.016,0.083l-1.401,0.743	C52.605,122.589,52.611,122.561,52.617,122.533" class="st12"/><path id="Fill-442" d="M52.599,122.616l1.4-0.743c-0.007,0.031-0.015,0.06-0.024,0.09l-1.399,0.743	C52.584,122.677,52.592,122.647,52.599,122.616" class="st13"/><path id="Fill-445" d="M52.576,122.706l1.399-0.743c-0.008,0.032-0.019,0.063-0.03,0.093l-1.4,0.743	C52.555,122.769,52.566,122.738,52.576,122.706" class="st14"/><path id="Fill-448" d="M52.545,122.798l1.4-0.743c-0.013,0.035-0.027,0.068-0.043,0.1l-1.4,0.743	C52.518,122.866,52.531,122.833,52.545,122.798" class="st15"/><path id="Fill-451" d="M52.502,122.898l1.4-0.743c-0.02,0.042-0.042,0.081-0.065,0.118l-1.4,0.744	C52.46,122.98,52.482,122.94,52.502,122.898" class="st16"/><path id="Fill-454" d="M52.436,123.017l1.4-0.744c-0.085,0.134-0.194,0.236-0.32,0.303l-1.4,0.743	C52.243,123.252,52.351,123.15,52.436,123.017" class="st17"/><path id="Fill-458" d="M10.737,33.794l1.4-0.743c0.037-0.02,0.076-0.037,0.116-0.05l-1.4,0.743	C10.813,33.757,10.774,33.774,10.737,33.794" class="st17"/><path id="Fill-461" d="M10.853,33.744l1.399-0.743c0.04-0.014,0.08-0.025,0.122-0.032l-1.399,0.743	C10.933,33.72,10.892,33.73,10.853,33.744" class="st16"/><path id="Fill-464" d="M10.975,33.712l1.399-0.743c0.033-0.006,0.066-0.01,0.1-0.013l-1.4,0.743	C11.039,33.702,11.007,33.706,10.975,33.712" class="st15"/><path id="Fill-467" d="M11.074,33.699l1.4-0.743c0.029-0.002,0.058-0.003,0.088-0.003l-1.4,0.744	C11.133,33.696,11.102,33.697,11.074,33.699" class="st14"/><path id="Fill-470" d="M11.162,33.697l1.4-0.743c0.028,0,0.056,0.002,0.083,0.004l-1.399,0.743	C11.218,33.699,11.189,33.697,11.162,33.697" class="st13"/><path id="Fill-473" d="M11.246,33.701l1.399-0.743c0.026,0.002,0.051,0.005,0.077,0.009l-1.401,0.744	C11.296,33.706,11.27,33.703,11.246,33.701" class="st12"/><path id="Fill-476" d="M11.321,33.711l1.4-0.744c0.025,0.004,0.049,0.009,0.075,0.015l-1.401,0.743	C11.37,33.719,11.345,33.715,11.321,33.711" class="st11"/><path id="Fill-479" d="M11.395,33.725l1.4-0.744c0.024,0.006,0.047,0.012,0.072,0.018l-1.401,0.744	C11.443,33.736,11.418,33.73,11.395,33.725" class="st10"/><path id="Fill-482" d="M11.466,33.743l1.4-0.743c0.024,0.006,0.047,0.014,0.071,0.021l-1.401,0.743	C11.513,33.757,11.489,33.749,11.466,33.743" class="st9"/><path id="Fill-485" d="M11.537,33.764l1.4-0.743c0.024,0.008,0.046,0.016,0.07,0.025l-1.401,0.743	C11.583,33.78,11.56,33.772,11.537,33.764" class="st8"/><path id="Fill-488" d="M11.606,33.789l1.4-0.743c0.023,0.009,0.046,0.018,0.07,0.028l-1.401,0.743	C11.652,33.807,11.629,33.798,11.606,33.789" class="st7"/><path id="Fill-491" d="M11.675,33.817l1.4-0.743c0.023,0.01,0.045,0.02,0.069,0.032l-1.401,0.743	C11.721,33.838,11.697,33.827,11.675,33.817" class="st18"/><path id="Fill-494" d="M11.744,33.849l1.4-0.743c0.024,0.011,0.046,0.023,0.07,0.035l-1.401,0.743	C11.791,33.872,11.767,33.86,11.744,33.849" class="st19"/><path id="Fill-497" d="M11.813,33.884l1.4-0.743c0.024,0.013,0.047,0.025,0.071,0.039l-1.401,0.743	C11.86,33.909,11.836,33.897,11.813,33.884" class="st20"/><polygon id="Fill-500" points="11.883 33.923 13.283 33.18 13.31 33.196 11.91 33.939" class="st21"/><polygon id="Fill-504" points="11.91 33.939 13.31 33.196 52.323 56.637 50.923 57.38" class="st22"/><polygon id="Fill-506" points="52.605 60.416 54.004 59.673 54.048 121.414 52.648 122.157" class="st23"/><path id="Fill-509" d="M50.923,57.38l1.4-0.743c0.015,0.009,0.03,0.018,0.044,0.027l-1.4,0.743	C50.952,57.398,50.938,57.389,50.923,57.38" class="st21"/><path id="Fill-512" d="M50.966,57.408l1.4-0.743c0.024,0.014,0.047,0.03,0.071,0.046l-1.401,0.743	C51.015,57.438,50.99,57.423,50.966,57.408" class="st24"/><path id="Fill-515" d="M51.037,57.453l1.4-0.743c0.025,0.016,0.048,0.033,0.073,0.051l-1.401,0.743	C51.085,57.486,51.061,57.47,51.037,57.453" class="st25"/><path id="Fill-518" d="M51.109,57.504l1.4-0.743c0.024,0.017,0.048,0.036,0.072,0.055l-1.401,0.743	C51.157,57.54,51.132,57.522,51.109,57.504" class="st26"/><path id="Fill-521" d="M51.18,57.559l1.4-0.743c0.026,0.019,0.05,0.039,0.075,0.06l-1.401,0.743	C51.23,57.599,51.205,57.579,51.18,57.559" class="st27"/><path id="Fill-524" d="M51.255,57.619l1.4-0.743c0.025,0.021,0.05,0.042,0.074,0.064l-1.4,0.743	C51.305,57.661,51.28,57.64,51.255,57.619" class="st28"/><path id="Fill-527" d="M51.329,57.683l1.399-0.743c0.026,0.022,0.05,0.045,0.076,0.069l-1.401,0.743	C51.379,57.728,51.353,57.705,51.329,57.683" class="st29"/><path id="Fill-530" d="M51.403,57.752l1.4-0.743c0.025,0.023,0.048,0.047,0.073,0.071l-1.401,0.744	C51.451,57.799,51.427,57.775,51.403,57.752" class="st30"/><path id="Fill-533" d="M51.475,57.824l1.4-0.744c0.024,0.024,0.046,0.049,0.07,0.074l-1.401,0.743	C51.522,57.872,51.498,57.847,51.475,57.824" class="st31"/><path id="Fill-536" d="M51.545,57.897l1.4-0.743c0.022,0.024,0.044,0.048,0.066,0.073L51.61,57.97	C51.589,57.945,51.567,57.921,51.545,57.897" class="st22"/><path id="Fill-539" d="M51.61,57.97l1.4-0.743c0.022,0.024,0.042,0.048,0.063,0.073l-1.401,0.743	C51.652,58.018,51.631,57.994,51.61,57.97" class="st32"/><path id="Fill-542" d="M51.673,58.043l1.4-0.743c0.021,0.024,0.04,0.049,0.06,0.074l-1.399,0.743	C51.713,58.092,51.694,58.067,51.673,58.043" class="st33"/><path id="Fill-545" d="M51.733,58.117l1.399-0.743c0.02,0.025,0.039,0.05,0.059,0.075l-1.4,0.743	C51.771,58.167,51.753,58.142,51.733,58.117" class="st34"/><path id="Fill-548" d="M51.791,58.192l1.4-0.743c0.021,0.028,0.042,0.056,0.063,0.085l-1.401,0.743	C51.833,58.249,51.812,58.22,51.791,58.192" class="st35"/><path id="Fill-551" d="M51.853,58.277l1.4-0.743c0.022,0.03,0.043,0.061,0.064,0.092l-1.4,0.743	C51.896,58.338,51.874,58.307,51.853,58.277" class="st36"/><path id="Fill-554" d="M51.918,58.37l1.399-0.743c0.1,0.148,0.192,0.303,0.273,0.464l-1.401,0.743	C52.108,58.674,52.018,58.518,51.918,58.37" class="st37"/><path id="Fill-557" d="M52.189,58.833l1.4-0.743c0.017,0.032,0.033,0.065,0.048,0.097l-1.4,0.744	C52.221,58.898,52.206,58.865,52.189,58.833" class="st36"/><path id="Fill-560" d="M52.237,58.931l1.4-0.743c0.014,0.03,0.028,0.059,0.041,0.09l-1.399,0.743	C52.265,58.991,52.252,58.961,52.237,58.931" class="st35"/><path id="Fill-563" d="M52.279,59.021l1.399-0.743c0.012,0.025,0.023,0.051,0.035,0.077l-1.401,0.743	C52.301,59.072,52.29,59.047,52.279,59.021" class="st34"/><path id="Fill-566" d="M52.312,59.098l1.4-0.743c0.011,0.025,0.021,0.051,0.032,0.077l-1.401,0.743	C52.333,59.149,52.323,59.123,52.312,59.098" class="st33"/><path id="Fill-569" d="M52.343,59.175l1.4-0.743c0.011,0.025,0.021,0.051,0.031,0.077l-1.401,0.743	C52.365,59.226,52.355,59.2,52.343,59.175" class="st32"/><path id="Fill-572" d="M52.374,59.252l1.4-0.743c0.01,0.026,0.02,0.052,0.029,0.078l-1.401,0.743	C52.394,59.304,52.384,59.278,52.374,59.252" class="st22"/><path id="Fill-575" d="M52.402,59.33l1.4-0.743c0.01,0.027,0.019,0.054,0.028,0.08l-1.4,0.744	C52.422,59.384,52.412,59.357,52.402,59.33" class="st31"/><path id="Fill-578" d="M52.43,59.411l1.399-0.743c0.01,0.028,0.019,0.056,0.028,0.084l-1.401,0.743	C52.448,59.467,52.439,59.439,52.43,59.411" class="st30"/><path id="Fill-581" d="M52.457,59.495l1.4-0.743c0.009,0.029,0.017,0.057,0.026,0.086l-1.401,0.743	C52.475,59.553,52.466,59.524,52.457,59.495" class="st29"/><path id="Fill-584" d="M52.482,59.581l1.4-0.743l0.024,0.089l-1.401,0.743C52.499,59.641,52.49,59.611,52.482,59.581" class="st28"/><path id="Fill-587" d="M52.506,59.671l1.4-0.743c0.008,0.03,0.015,0.06,0.022,0.09l-1.401,0.743	C52.521,59.731,52.514,59.701,52.506,59.671" class="st27"/><path id="Fill-590" d="M52.527,59.761l1.4-0.743c0.007,0.03,0.014,0.06,0.02,0.091l-1.4,0.743	C52.541,59.822,52.534,59.791,52.527,59.761" class="st26"/><path id="Fill-593" d="M52.547,59.852l1.4-0.743c0.006,0.03,0.012,0.059,0.017,0.09l-1.4,0.743	C52.559,59.912,52.553,59.882,52.547,59.852" class="st25"/><path id="Fill-596" d="M52.563,59.942l1.4-0.743c0.005,0.029,0.01,0.059,0.014,0.088l-1.4,0.743	C52.573,60.001,52.568,59.971,52.563,59.942" class="st24"/><path id="Fill-599" d="M52.577,60.03l1.4-0.743c0.004,0.029,0.008,0.058,0.011,0.087l-1.4,0.743	C52.585,60.089,52.581,60.059,52.577,60.03" class="st21"/><path id="Fill-602" d="M52.588,60.118l1.4-0.743c0.003,0.029,0.006,0.057,0.008,0.086l-1.399,0.743L52.588,60.118" class="st20"/><path id="Fill-605" d="M52.596,60.204l1.399-0.743c0.003,0.028,0.005,0.057,0.006,0.085l-1.4,0.743	C52.6,60.261,52.598,60.232,52.596,60.204" class="st19"/><path id="Fill-608" d="M52.601,60.289l1.4-0.743c0.002,0.028,0.003,0.056,0.003,0.084l-1.4,0.743	C52.604,60.346,52.603,60.317,52.601,60.289" class="st18"/><path id="Fill-611" d="M52.604,60.374l1.4-0.743v0.042l-1.399,0.743C52.605,60.402,52.604,60.388,52.604,60.374" class="st7"/><path id="Fill-615" d="M50.923,57.38c0.928,0.557,1.682,1.914,1.683,3.036l0.043,61.741	c0.001,1.122-0.756,1.58-1.691,1.018L11.921,99.72c-0.927-0.557-1.681-1.918-1.682-3.036l-0.043-61.707	c-0.001-1.142,0.768-1.607,1.714-1.038L50.923,57.38z" class="st38"/><polygon id="Fill-617" points="34.915 60.022 31.519 57.96 31.519 53.129 34.915 55.19" class="st39"/><polygon id="Fill-619" points="34.915 66.155 31.519 64.094 31.519 59.261 34.915 61.323" class="st39"/><polygon id="Fill-621" points="34.915 72.287 31.519 70.225 31.519 65.396 34.915 67.455" class="st39"/><polygon id="Fill-623" points="34.915 78.42 31.519 76.359 31.519 71.527 34.915 73.589" class="st39"/><polygon id="Fill-625" points="34.915 89.497 31.519 87.435 31.519 82.604 34.915 84.664" class="st39"/><polygon id="Fill-627" points="34.915 95.628 31.519 93.567 31.519 88.735 34.915 90.797" class="st39"/><polygon id="Fill-629" points="34.915 101.761 31.519 99.699 31.519 94.869 34.915 96.93" class="st39"/><polygon id="Fill-631" points="34.915 107.894 31.519 105.833 31.519 101.001 34.915 103.063" class="st39"/><polygon id="Fill-633" points="23.989 73.753 20.593 71.691 20.593 66.859 23.989 68.92" class="st39"/><path id="Stroke-635" d="M10.311,34.633c0.128-0.975,0.742-0.88,1.469-0.526c4.946,2.411,23.924,14.325,23.924,14.325	l15.358,9.228c0,0,0.321,0.203,0.727,0.723c0.513,0.657,0.692,2.241,0.692,2.241l0.149,54.095c0,0,0.01,7.092-0.029,7.472	c-0.183,1.747-1.73,0.817-1.73,0.817" class="st40"/><polygon id="Fill-637" points="23.782 83.321 20.386 81.259 20.386 76.428 23.782 78.488" class="st39"/><polygon id="Fill-639" points="23.782 89.453 20.386 87.392 20.386 82.56 23.782 84.622" class="st39"/><polygon id="Fill-641" points="23.782 95.586 20.386 93.524 20.386 88.694 23.782 90.755" class="st39"/><polygon id="Fill-643" points="23.782 101.719 20.386 99.658 20.386 94.826 23.782 96.888" class="st39"/><polygon id="Fill-645" points="77.925 20.781 81.515 18.876 81.518 23.545 77.93 25.45" class="st3"/><polygon id="Fill-647" points="74.053 18.454 77.641 16.549 81.514 18.876 77.925 20.781" class="st41"/><polygon id="Fill-649" points="77.925 20.781 77.93 25.45 74.057 23.123 74.054 18.454" class="st42"/><polygon id="Fill-651" points="72.225 23.849 75.813 21.944 75.816 26.613 72.228 28.518" class="st3"/><polygon id="Fill-653" points="68.352 21.522 71.94 19.617 75.813 21.944 72.225 23.849" class="st41"/><polygon id="Fill-655" points="72.225 23.849 72.228 28.518 68.355 26.191 68.352 21.522" class="st42"/><polygon id="Fill-657" points="70.252 33.618 79.586 28.663 79.59 34.85 70.256 39.805" class="st43"/><polygon id="Fill-659" points="65.411 30.709 74.746 25.754 79.586 28.663 70.252 33.617" class="st44"/><polygon id="Fill-661" points="70.252 33.618 70.256 39.805 65.416 36.897 65.411 30.71" class="st45"/><polyline id="Stroke-663" points="65.453 30.803 70.252 33.617 70.213 39.652" class="st46"/><polyline id="Stroke-665" points="68.352 21.522 72.193 23.935 72.225 26.97" class="st46"/><polyline id="Stroke-667" points="74.053 18.454 77.975 20.869 77.943 25.309" class="st46"/></svg>