<svg xmlns="http://www.w3.org/2000/svg" xmlns:xlink="http://www.w3.org/1999/xlink" id="Layer_1" x="0" y="0" version="1.1" viewBox="0 0 70.175 100.05" xml:space="preserve" style="enable-background:new 0 0 70.175 100.05"><style type="text/css">.st0{fill:none;stroke:#626366;stroke-width:3.375;stroke-linejoin:round}.st1{fill:#898b8e}.st2{fill:#bbbdbf}.st3{fill:#b3b5b7}.st4,.st5{fill:none;stroke:#e1e2e3;stroke-width:1.125;stroke-linecap:round;stroke-linejoin:round}.st5{stroke:#626366;stroke-width:3.002}.st6{fill:#fefefe}.st7{fill:#c4cace}.st8,.st9{fill:none;stroke:#636466;stroke-width:1.301}.st9{stroke:#e1e2e3;stroke-width:1.001;stroke-linecap:round;stroke-linejoin:round}.st10{filter:url(#Adobe_OpacityMaskFilter)}.st11{fill:#fff}.st12{mask:url(#mask-2_1_);fill:none;stroke:#636466;stroke-width:1.451}.st13{fill:none;stroke:#231f20;stroke-width:.504}.st14{fill:#231f20}.st15{fill:none;stroke:#231f20;stroke-width:.386}.st16{fill:#00a550}.st17{fill:none;stroke:#231f20;stroke-width:.259}.st18{fill:#00adee}.st19{fill:#fff100}.st20{fill:#faaf3f}.st21{fill:#8cc63f}.st22{fill:#d0d2d3}.st23{fill:#27a9e0}.st24{fill:#eb008b}.st25{fill:#2b388f}.st26{fill:#652c90}.st27{fill:#f6931d}.st28{fill:#ec1d24}.st29{fill:#91278f}.st30,.st31{fill:none;stroke:#fefefe;stroke-width:.504;stroke-linecap:round}.st31{stroke-width:.507}</style><title>icon-surveillance-monitor</title><desc>Created with Sketch.</desc><polygon id="Stroke-1" points="41.77 92.853 54.94 85.861 54.943 89.57 41.772 96.563" class="st0"/><polygon id="Stroke-3" points="8.137 72.645 21.307 65.654 54.94 85.861 41.77 92.853" class="st0"/><polygon id="Stroke-4" points="41.77 92.853 41.772 96.563 8.139 76.353 8.137 72.645" class="st0"/><polygon id="Fill-6" points="41.77 92.853 54.94 85.861 54.943 89.57 41.772 96.563" class="st1"/><polygon id="Fill-7" points="8.137 72.645 21.307 65.654 54.94 85.861 41.77 92.853" class="st2"/><polygon id="Fill-8" points="41.77 92.853 41.772 96.563 8.139 76.353 8.137 72.645" class="st3"/><polyline id="Stroke-9" points="8.409 72.682 41.491 92.558 41.491 96.163" class="st4"/><polygon id="Stroke-10" points="62.799 41.43 68.632 38.334 68.674 95.451 62.838 98.549" class="st5"/><polygon id="Stroke-12" points="1.501 4.599 7.336 1.501 68.632 38.334 62.799 41.43" class="st5"/><polygon id="Stroke-14" points="62.799 41.43 62.838 98.549 1.541 61.717 1.501 4.599" class="st5"/><polygon id="Fill-17" points="62.797 41.43 68.632 38.334 68.672 95.451 62.838 98.549" class="st1"/><polygon id="Fill-18" points="1.501 4.599 7.334 1.501 68.632 38.334 62.797 41.43" class="st2"/><polygon id="Fill-19" points="62.797 41.43 62.838 98.549 1.541 61.717 1.501 4.599" class="st3"/><polygon id="Fill-20" points="59.589 92.129 3.724 58.153 3.724 9.879 59.589 43.853" class="st6"/><path id="Fill-21" d="M38.863,34.4l18.541,11.139l0.103,10.367c0,0-0.33-7.435-5.842-12.092	C44.628,37.867,38.863,34.4,38.863,34.4" class="st7"/><path id="Stroke-23" d="M2.216,62.896l60.616,36.422" class="st8"/><polyline id="Stroke-25" points="2.018 4.79 62.776 41.298 62.817 98.063" class="st9"/><defs><filter id="Adobe_OpacityMaskFilter" width="1.451" height="15.008" x="68.667" y="76.61" filterUnits="userSpaceOnUse"><feColorMatrix type="matrix" values="1 0 0 0 0 0 1 0 0 0 0 0 1 0 0 0 0 0 1 0"/></filter></defs><mask id="mask-2_1_" width="1.451" height="15.008" x="68.667" y="76.61" maskUnits="userSpaceOnUse"><g class="st10"><polygon id="path-1_1_" points="69.393 76.61 70.174 76.61 70.174 91.618 69.393 91.618" class="st11"/></g></mask><path id="Stroke-27" d="M69.393,76.61v15.008" class="st12"/><polygon id="Fill-30" points="60.917 94.875 1.823 60.026 1.823 8.15 60.917 42.999" class="st6"/><polygon id="Stroke-32" points="60.917 94.875 1.823 60.026 1.823 8.15 60.917 42.999" class="st13"/><polygon id="Fill-34" points="22.045 54.319 1.941 42.464 1.941 25.501 22.045 37.356" class="st14"/><polygon id="Stroke-36" points="22.045 54.319 1.941 42.464 1.941 25.501 22.045 37.356" class="st15"/><path id="Fill-38" d="M11.692,40.222c0,1.858-1.973,2.202-4.405,0.767c-2.431-1.434-4.404-4.104-4.404-5.961	c0-1.859,1.973-2.201,4.404-0.767C9.719,35.695,11.692,38.364,11.692,40.222" class="st16"/><path id="Stroke-40" d="M11.692,40.222c0,1.858-1.973,2.202-4.405,0.767c-2.431-1.434-4.404-4.104-4.404-5.961	c0-1.859,1.973-2.201,4.404-0.767C9.719,35.695,11.692,38.364,11.692,40.222z" class="st17"/><path id="Fill-42" d="M20.125,48.947c0-0.928-0.545-2.002-1.217-2.399l-8.247-4.864	c-0.673-0.396-1.219,0.035-1.219,0.963c0,0.93,0.546,2.005,1.219,2.401l8.247,4.863C19.58,50.308,20.125,49.877,20.125,48.947" class="st18"/><path id="Stroke-44" d="M20.125,48.947c0-0.928-0.545-2.002-1.217-2.399l-8.247-4.864	c-0.673-0.396-1.219,0.035-1.219,0.963c0,0.93,0.546,2.005,1.219,2.401l8.247,4.863C19.58,50.308,20.125,49.877,20.125,48.947z" class="st17"/><polygon id="Fill-46" points="15.628 45.13 11.882 44.118 9.257 38.689 10.381 34.273 14.127 35.286 16.751 40.714" class="st19"/><polygon id="Stroke-48" points="15.628 45.13 11.882 44.118 9.257 38.689 10.381 34.273 14.127 35.286 16.751 40.714" class="st17"/><polygon id="Fill-50" points="22.045 71.578 1.941 59.722 1.941 42.761 22.045 54.616" class="st14"/><polygon id="Stroke-52" points="22.045 71.578 1.941 59.722 1.941 42.761 22.045 54.616" class="st15"/><path id="Fill-54" d="M11.692,57.48c0,1.858-1.973,2.202-4.405,0.767c-2.431-1.434-4.404-4.103-4.404-5.962	c0-1.858,1.973-2.201,4.404-0.766C9.719,52.953,11.692,55.622,11.692,57.48" class="st20"/><path id="Stroke-56" d="M11.692,57.48c0,1.858-1.973,2.202-4.405,0.767c-2.431-1.434-4.404-4.103-4.404-5.962	c0-1.858,1.973-2.201,4.404-0.766C9.719,52.953,11.692,55.622,11.692,57.48z" class="st17"/><path id="Fill-58" d="M20.964,67.085c0-0.929-0.546-2.003-1.219-2.4l-8.246-4.863	c-0.672-0.397-1.218,0.034-1.218,0.963c0,0.929,0.546,2.004,1.218,2.401l8.246,4.862C20.418,68.445,20.964,68.014,20.964,67.085" class="st21"/><path id="Stroke-60" d="M20.964,67.085c0-0.929-0.546-2.003-1.219-2.4l-8.246-4.863	c-0.672-0.397-1.218,0.034-1.218,0.963c0,0.929,0.546,2.004,1.218,2.401l8.246,4.862C20.418,68.445,20.964,68.014,20.964,67.085z" class="st17"/><polygon id="Fill-62" points="15.628 62.389 11.882 61.377 9.257 55.948 10.381 51.531 14.127 52.545 16.751 57.973" class="st22"/><polygon id="Stroke-64" points="15.628 62.389 11.882 61.377 9.257 55.948 10.381 51.531 14.127 52.545 16.751 57.973" class="st17"/><polygon id="Fill-66" points="22.045 37.05 1.941 25.194 1.941 8.232 22.045 20.087" class="st14"/><polygon id="Stroke-68" points="22.045 37.05 1.941 25.194 1.941 8.232 22.045 20.087" class="st15"/><path id="Fill-70" d="M11.692,22.952c0,1.859-1.973,2.201-4.405,0.767c-2.431-1.434-4.404-4.103-4.404-5.961	c0-1.859,1.973-2.201,4.404-0.767C9.719,18.427,11.692,21.096,11.692,22.952" class="st23"/><path id="Stroke-72" d="M11.692,22.952c0,1.859-1.973,2.201-4.405,0.767c-2.431-1.434-4.404-4.103-4.404-5.961	c0-1.859,1.973-2.201,4.404-0.767C9.719,18.427,11.692,21.096,11.692,22.952z" class="st17"/><path id="Fill-74" d="M20.125,31.679c0-0.928-0.546-2.004-1.217-2.4l-8.247-4.864	c-0.673-0.397-1.219,0.035-1.219,0.964c0,0.929,0.546,2.004,1.219,2.401l8.247,4.863C19.58,33.039,20.125,32.608,20.125,31.679" class="st24"/><path id="Stroke-76" d="M20.125,31.679c0-0.928-0.546-2.004-1.217-2.4l-8.247-4.864	c-0.673-0.397-1.219,0.035-1.219,0.964c0,0.929,0.546,2.004,1.219,2.401l8.247,4.863C19.58,33.039,20.125,32.608,20.125,31.679z" class="st17"/><polygon id="Fill-78" points="15.628 27.862 11.882 26.849 9.257 21.421 10.381 17.005 14.127 18.017 16.751 23.446" class="st25"/><polygon id="Stroke-80" points="15.628 27.862 11.882 26.849 9.257 21.421 10.381 17.005 14.127 18.017 16.751 23.446" class="st17"/><polygon id="Fill-82" points="41.854 66.391 21.75 54.535 21.75 37.572 41.854 49.429" class="st14"/><polygon id="Stroke-84" points="41.854 66.391 21.75 54.535 21.75 37.572 41.854 49.429" class="st15"/><path id="Fill-86" d="M31.502,52.294c0,1.857-1.972,2.201-4.405,0.766c-2.43-1.434-4.403-4.103-4.403-5.961	c0-1.858,1.973-2.201,4.403-0.767C29.53,47.767,31.502,50.436,31.502,52.294" class="st19"/><path id="Stroke-88" d="M31.502,52.294c0,1.857-1.972,2.201-4.405,0.766c-2.43-1.434-4.403-4.103-4.403-5.961	c0-1.858,1.973-2.201,4.403-0.767C29.53,47.767,31.502,50.436,31.502,52.294z" class="st17"/><path id="Fill-90" d="M39.936,61.019c0-0.929-0.545-2.003-1.218-2.4l-8.247-4.863	c-0.672-0.397-1.218,0.034-1.218,0.963c0,0.929,0.546,2.004,1.218,2.401l8.247,4.862C39.391,62.379,39.936,61.949,39.936,61.019" class="st24"/><path id="Stroke-92" d="M39.936,61.019c0-0.929-0.545-2.003-1.218-2.4l-8.247-4.863	c-0.672-0.397-1.218,0.034-1.218,0.963c0,0.929,0.546,2.004,1.218,2.401l8.247,4.862C39.391,62.379,39.936,61.949,39.936,61.019z" class="st17"/><polygon id="Fill-94" points="35.438 57.201 31.691 56.189 29.067 50.761 30.19 46.345 33.937 47.357 36.561 52.786" class="st21"/><polygon id="Stroke-96" points="35.438 57.201 31.691 56.189 29.067 50.761 30.19 46.345 33.937 47.357 36.561 52.786" class="st17"/><polygon id="Fill-98" points="41.854 83.649 21.75 71.794 21.75 54.831 41.854 66.687" class="st14"/><polygon id="Stroke-100" points="41.854 83.649 21.75 71.794 21.75 54.831 41.854 66.687" class="st15"/><path id="Fill-102" d="M31.502,69.552c0,1.858-1.972,2.202-4.405,0.767c-2.43-1.434-4.403-4.103-4.403-5.961	c0-1.859,1.973-2.202,4.403-0.767C29.53,65.025,31.502,67.694,31.502,69.552" class="st20"/><path id="Stroke-104" d="M31.502,69.552c0,1.858-1.972,2.202-4.405,0.767c-2.43-1.434-4.403-4.103-4.403-5.961	c0-1.859,1.973-2.202,4.403-0.767C29.53,65.025,31.502,67.694,31.502,69.552z" class="st17"/><path id="Fill-106" d="M40.773,79.157c0-0.929-0.546-2.003-1.218-2.4l-8.247-4.863	c-0.672-0.397-1.218,0.034-1.218,0.963s0.546,2.004,1.218,2.401l8.247,4.862C40.227,80.517,40.773,80.086,40.773,79.157" class="st16"/><path id="Stroke-108" d="M40.773,79.157c0-0.929-0.546-2.003-1.218-2.4l-8.247-4.863	c-0.672-0.397-1.218,0.034-1.218,0.963s0.546,2.004,1.218,2.401l8.247,4.862C40.227,80.517,40.773,80.086,40.773,79.157z" class="st17"/><polygon id="Fill-110" points="35.438 74.46 31.691 73.447 29.067 68.019 30.19 63.603 33.937 64.616 36.561 70.044" class="st24"/><polygon id="Stroke-112" points="35.438 74.46 31.691 73.447 29.067 68.019 30.19 63.603 33.937 64.616 36.561 70.044" class="st17"/><polygon id="Fill-114" points="41.854 49.122 21.75 37.266 21.75 20.305 41.854 32.16" class="st14"/><polygon id="Stroke-116" points="41.854 49.122 21.75 37.266 21.75 20.305 41.854 32.16" class="st15"/><path id="Fill-118" d="M31.502,35.025c0,1.857-1.972,2.201-4.405,0.766c-2.43-1.434-4.403-4.103-4.403-5.961	s1.973-2.201,4.403-0.766C29.53,30.499,31.502,33.167,31.502,35.025" class="st20"/><path id="Stroke-120" d="M31.502,35.025c0,1.857-1.972,2.201-4.405,0.766c-2.43-1.434-4.403-4.103-4.403-5.961	s1.973-2.201,4.403-0.766C29.53,30.499,31.502,33.167,31.502,35.025z" class="st17"/><path id="Fill-122" d="M39.936,43.75c0-0.929-0.546-2.003-1.218-2.4l-8.247-4.863	c-0.672-0.397-1.218,0.034-1.218,0.963c0,0.928,0.546,2.003,1.218,2.401l8.247,4.862C39.39,45.11,39.936,44.679,39.936,43.75" class="st23"/><path id="Stroke-124" d="M39.936,43.75c0-0.929-0.546-2.003-1.218-2.4l-8.247-4.863	c-0.672-0.397-1.218,0.034-1.218,0.963c0,0.928,0.546,2.003,1.218,2.401l8.247,4.862C39.39,45.11,39.936,44.679,39.936,43.75z" class="st17"/><polygon id="Fill-126" points="35.438 39.933 31.691 38.921 29.067 33.492 30.19 29.076 33.937 30.089 36.561 35.517" class="st26"/><polygon id="Stroke-128" points="35.438 39.933 31.691 38.921 29.067 33.492 30.19 29.076 33.937 30.089 36.561 35.517" class="st17"/><polygon id="Fill-130" points="60.922 77.461 40.818 65.605 40.818 48.642 60.922 60.498" class="st14"/><polygon id="Stroke-132" points="60.922 77.461 40.818 65.605 40.818 48.642 60.922 60.498" class="st15"/><path id="Fill-134" d="M50.57,63.363c0,1.857-1.971,2.201-4.403,0.766c-2.433-1.434-4.405-4.102-4.405-5.96	c0-1.858,1.972-2.202,4.405-0.767C48.599,58.836,50.57,61.505,50.57,63.363" class="st6"/><path id="Stroke-136" d="M50.57,63.363c0,1.857-1.971,2.201-4.403,0.766c-2.433-1.434-4.405-4.102-4.405-5.96	c0-1.858,1.972-2.202,4.405-0.767C48.599,58.836,50.57,61.505,50.57,63.363z" class="st17"/><path id="Fill-138" d="M59.005,72.088c0-0.928-0.546-2.002-1.218-2.399l-8.247-4.863	c-0.673-0.398-1.218,0.034-1.218,0.962c0,0.93,0.545,2.004,1.218,2.402l8.247,4.862C58.459,73.449,59.005,73.017,59.005,72.088" class="st21"/><path id="Stroke-140" d="M59.005,72.088c0-0.928-0.546-2.002-1.218-2.399l-8.247-4.863	c-0.673-0.398-1.218,0.034-1.218,0.962c0,0.93,0.545,2.004,1.218,2.402l8.247,4.862C58.459,73.449,59.005,73.017,59.005,72.088z" class="st17"/><polygon id="Fill-142" points="54.506 68.271 50.76 67.259 48.135 61.83 49.259 57.413 53.006 58.427 55.63 63.856" class="st27"/><polygon id="Stroke-144" points="54.506 68.271 50.76 67.259 48.135 61.83 49.259 57.413 53.006 58.427 55.63 63.856" class="st17"/><polygon id="Fill-146" points="60.922 94.719 40.818 82.864 40.818 65.901 60.922 77.757" class="st14"/><polygon id="Stroke-148" points="60.922 94.719 40.818 82.864 40.818 65.901 60.922 77.757" class="st15"/><path id="Fill-150" d="M50.57,80.621c0,1.858-1.971,2.202-4.403,0.767c-2.433-1.434-4.405-4.103-4.405-5.961	s1.972-2.202,4.405-0.767C48.599,76.094,50.57,78.763,50.57,80.621" class="st28"/><path id="Stroke-152" d="M50.57,80.621c0,1.858-1.971,2.202-4.403,0.767c-2.433-1.434-4.405-4.103-4.405-5.961	s1.972-2.202,4.405-0.767C48.599,76.094,50.57,78.763,50.57,80.621z" class="st17"/><path id="Fill-154" d="M59.842,90.226c0-0.929-0.546-2.003-1.217-2.4l-8.248-4.863	c-0.672-0.397-1.218,0.034-1.218,0.963c0,0.928,0.546,2.004,1.218,2.4l8.248,4.864C59.296,91.586,59.842,91.155,59.842,90.226" class="st27"/><path id="Stroke-156" d="M59.842,90.226c0-0.929-0.546-2.003-1.217-2.4l-8.248-4.863	c-0.672-0.397-1.218,0.034-1.218,0.963c0,0.928,0.546,2.004,1.218,2.4l8.248,4.864C59.296,91.586,59.842,91.155,59.842,90.226z" class="st17"/><polygon id="Fill-158" points="54.506 85.53 50.76 84.518 48.135 79.088 49.259 74.672 53.006 75.685 55.63 81.114" class="st23"/><polygon id="Stroke-160" points="54.506 85.53 50.76 84.518 48.135 79.088 49.259 74.672 53.006 75.685 55.63 81.114" class="st17"/><polygon id="Fill-162" points="60.922 60.191 40.818 48.335 40.818 31.373 60.922 43.229" class="st14"/><polygon id="Stroke-164" points="60.922 60.191 40.818 48.335 40.818 31.373 60.922 43.229" class="st15"/><path id="Fill-166" d="M50.57,46.094c0,1.857-1.971,2.202-4.403,0.767c-2.433-1.434-4.405-4.103-4.405-5.961	c0-1.858,1.972-2.201,4.405-0.767C48.599,41.568,50.57,44.236,50.57,46.094" class="st19"/><path id="Stroke-168" d="M50.57,46.094c0,1.857-1.971,2.202-4.403,0.767c-2.433-1.434-4.405-4.103-4.405-5.961	c0-1.858,1.972-2.201,4.405-0.767C48.599,41.568,50.57,44.236,50.57,46.094z" class="st17"/><path id="Fill-170" d="M59.005,54.819c0-0.928-0.546-2.004-1.218-2.4l-8.247-4.864	c-0.673-0.397-1.218,0.036-1.218,0.964c0,0.929,0.545,2.004,1.218,2.401l8.247,4.863C58.459,56.18,59.005,55.749,59.005,54.819" class="st29"/><path id="Stroke-172" d="M59.005,54.819c0-0.928-0.546-2.004-1.218-2.4l-8.247-4.864	c-0.673-0.397-1.218,0.036-1.218,0.964c0,0.929,0.545,2.004,1.218,2.401l8.247,4.863C58.459,56.18,59.005,55.749,59.005,54.819z" class="st17"/><polygon id="Fill-174" points="54.506 51.003 50.76 49.99 48.135 44.561 49.259 40.145 53.006 41.158 55.63 46.586" class="st28"/><polygon id="Stroke-176" points="54.506 51.003 50.76 49.99 48.135 44.561 49.259 40.145 53.006 41.158 55.63 46.586" class="st17"/><path id="Stroke-178" d="M21.702,19.754v52.683" class="st30"/><path id="Stroke-180" d="M41.136,30.896v52.682" class="st30"/><path id="Stroke-182" d="M1.482,25.678l59.952,35.355" class="st31"/><path id="Stroke-184" d="M1.495,43.052l59.954,35.355" class="st31"/></svg>