<svg xmlns="http://www.w3.org/2000/svg" xmlns:xlink="http://www.w3.org/1999/xlink" id="Layer_1" x="0" y="0" version="1.1" viewBox="0 0 113.141 119.688" xml:space="preserve" style="enable-background:new 0 0 113.141 119.688"><style type="text/css">.st0{fill:none;stroke:#626366;stroke-width:3;stroke-linecap:round;stroke-linejoin:round}.st1{fill:#898b8e}.st2{fill:#bbbdbf}.st3{fill:#b3b5b7}.st4,.st5{fill:none;stroke:#e1e2e3;stroke-linecap:round;stroke-linejoin:round}.st5{stroke:#626366}.st6{fill:#9fa2a4}.st7{fill:#9d9fa2}.st8{fill:#a8aaac}.st9{fill:#b2b4b7}.st10{fill:#939ba0}.st11{fill:#a4acb1}.st12{fill:#8c9499}.st13{fill:#90989e}.st14{fill:#8e969c}.st15{fill:#fefefe}.st16{fill:#b8bdc1}.st17{fill:#e1e2e3}.st18{fill:#626466}.st19{fill:#adafb2}.st20{fill:#dddedf}.st21{fill:none;stroke:#626366;stroke-width:3;stroke-linejoin:round}.st22{fill:#626366}.st23{fill:#a9abae}.st24{fill:#d2d4d5}.st25{fill:#231f20}.st26{fill:none;stroke:#626366;stroke-linecap:round}</style><title>icon-POS</title><desc>Created with Sketch.</desc><polygon id="Stroke-1" points="55.976 108.797 97.43 86.797 97.436 96.188 55.982 118.188" class="st0"/><polygon id="Stroke-3" points="1.5 76.069 42.954 54.069 97.43 86.798 55.976 108.798" class="st0"/><polygon id="Stroke-5" points="55.976 108.797 55.982 118.188 1.506 85.459 1.5 76.068" class="st0"/><polygon id="Stroke-7" points="64.979 104.966 111.632 80.202 111.641 92.294 64.988 117.059" class="st0"/><polygon id="Stroke-9" points="4.391 68.562 51.044 43.797 111.632 80.203 64.979 104.966" class="st0"/><polygon id="Stroke-11" points="64.979 104.966 64.988 117.059 4.4 80.654 4.391 68.562" class="st0"/><polygon id="Fill-14" points="65.034 105.018 111.687 80.254 111.696 92.346 65.043 117.111" class="st1"/><polygon id="Fill-15" points="4.391 68.562 51.044 43.797 111.632 80.203 64.979 104.966" class="st2"/><polygon id="Fill-16" points="64.979 104.966 64.988 117.059 4.4 80.654 4.391 68.562" class="st3"/><polyline id="Stroke-17" points="4.631 68.901 64.727 105.01 64.731 116.528" class="st4"/><polyline id="Stroke-18" points="6.673 73.213 62.172 106.561 62.106 115.927" class="st5"/><path id="Stroke-19" d="M46.996,2.714l2.188-1.161c0.097-0.053,0.216-0.067,0.348-0.04l-2.187,1.161	C47.214,2.647,47.095,2.661,46.996,2.714" class="st0"/><path id="Stroke-22" d="M47.345,2.674l2.187-1.161c0.094,0.019,0.196,0.06,0.301,0.124l-2.186,1.161	C47.541,2.735,47.44,2.694,47.345,2.674" class="st0"/><path id="Stroke-26" d="M46.995,2.714l2.188-1.161c0.168-0.09,0.396-0.068,0.65,0.084l-2.187,1.161	C47.393,2.645,47.165,2.624,46.995,2.714z" class="st0"/><path id="Stroke-28" d="M61.454,19.581l2.188-1.161c0,0.329-0.116,0.556-0.3,0.654l-2.187,1.16	C61.34,20.137,61.454,19.909,61.454,19.581" class="st0"/><path id="Stroke-31" d="M63.341,19.074l-2.187,1.16c0.185-0.098,0.299-0.325,0.299-0.653l2.188-1.161	C63.641,18.749,63.526,18.975,63.341,19.074z" class="st0"/><polygon id="Stroke-33" points="47.647 2.798 49.834 1.637 62.686 9.36 60.5 10.52" class="st0"/><polygon id="Stroke-36" points="61.449 12.235 63.636 11.074 63.641 18.42 61.454 19.581" class="st0"/><path id="Stroke-37" d="M60.499,10.52l2.187-1.16c0.013,0.008,0.027,0.016,0.04,0.025l-2.187,1.16	C60.525,10.537,60.512,10.529,60.499,10.52" class="st0"/><path id="Stroke-40" d="M60.539,10.546l2.187-1.16c0.121,0.077,0.234,0.178,0.338,0.295l-2.187,1.161	C60.772,10.725,60.659,10.624,60.539,10.546" class="st0"/><path id="Stroke-43" d="M60.877,10.841l2.187-1.161c0.064,0.072,0.126,0.151,0.181,0.234l-2.186,1.16	C61.002,10.991,60.941,10.913,60.877,10.841" class="st0"/><path id="Stroke-46" d="M61.059,11.075l2.187-1.16c0.067,0.098,0.126,0.204,0.179,0.312l-2.187,1.161	C61.186,11.279,61.125,11.175,61.059,11.075" class="st0"/><path id="Stroke-49" d="M61.238,11.388l2.188-1.161c0.13,0.274,0.209,0.572,0.209,0.847l-2.186,1.161	C61.449,11.959,61.37,11.662,61.238,11.388" class="st0"/><path id="Stroke-53" d="M60.499,10.52l2.187-1.16c0.523,0.314,0.949,1.075,0.949,1.714l-2.187,1.161	C61.447,11.596,61.022,10.834,60.499,10.52z" class="st0"/><path id="Stroke-55" d="M60.499,10.52c0.523,0.314,0.948,1.076,0.949,1.715l0.005,7.346	c0.001,0.631-0.424,0.887-0.947,0.573l-12.853-7.723c-0.529-0.317-0.949-1.081-0.949-1.714l-0.006-7.344	c0-0.64,0.419-0.893,0.948-0.575L60.499,10.52z" class="st0"/><path id="Stroke-57" d="M55.144,45.849c0.348,0.198,0.055,0.436-0.655,0.531c-0.71,0.096-1.568,0.013-1.916-0.185	c-0.348-0.198-0.055-0.436,0.655-0.532C53.938,45.569,54.795,45.652,55.144,45.849z" class="st0"/><path id="Stroke-81" d="M52.487,13.407c0-0.146,0.295-0.287,0.802-0.355c0.71-0.096,1.567-0.013,1.916,0.185	l-0.061,32.612c-0.348-0.197-1.206-0.28-1.916-0.185c-0.507,0.068-0.802,0.209-0.802,0.356	C52.445,36.236,52.47,23.191,52.487,13.407z" class="st0"/><path id="Fill-103" d="M55.144,45.849c0.348,0.198,0.055,0.436-0.655,0.531c-0.71,0.096-1.568,0.013-1.916-0.185	c-0.348-0.198-0.055-0.436,0.655-0.532C53.938,45.569,54.795,45.652,55.144,45.849" class="st6"/><path id="Fill-125" d="M52.426,46.02l0.061-32.613c0,0.059,0.046,0.119,0.146,0.175c0.179,0.102,0.491,0.173,0.85,0.206	L53.422,46.4c-0.358-0.032-0.671-0.104-0.85-0.205C52.473,46.138,52.426,46.079,52.426,46.02" class="st7"/><path id="Fill-128" d="M53.422,46.4l0.061-32.612c0.224,0.02,0.466,0.025,0.705,0.012l-0.061,32.614	C53.889,46.425,53.647,46.421,53.422,46.4" class="st8"/><path id="Fill-131" d="M54.127,46.414l0.061-32.613c0.122-0.006,0.244-0.017,0.361-0.033	c0.099-0.013,0.192-0.03,0.274-0.048l-0.06,32.612c-0.082,0.019-0.175,0.035-0.275,0.049C54.371,46.396,54.249,46.407,54.127,46.414" class="st9"/><path id="Fill-134" d="M54.763,46.332l0.061-32.612c0.231-0.052,0.393-0.122,0.472-0.2l-0.06,32.614	C55.157,46.21,54.994,46.28,54.763,46.332" class="st8"/><path id="Fill-137" d="M55.236,46.133l0.061-32.613c0.036-0.034,0.054-0.072,0.054-0.109l-0.06,32.614	C55.291,46.061,55.272,46.098,55.236,46.133" class="st7"/><path id="Fill-143" d="M46.996,2.714l2.188-1.161c0.097-0.053,0.216-0.067,0.348-0.04l-2.187,1.161	C47.214,2.647,47.095,2.661,46.996,2.714" class="st10"/><path id="Fill-146" d="M47.345,2.674l2.187-1.161c0.094,0.019,0.196,0.06,0.301,0.124l-2.186,1.161	C47.541,2.735,47.44,2.694,47.345,2.674" class="st11"/><path id="Fill-150" d="M61.454,19.581l2.188-1.161c0,0.329-0.116,0.556-0.3,0.654l-2.187,1.16	C61.34,20.137,61.454,19.909,61.454,19.581" class="st12"/><polygon id="Fill-153" points="47.647 2.798 49.834 1.637 62.686 9.36 60.5 10.52" class="st2"/><polygon id="Fill-154" points="61.449 12.235 63.636 11.074 63.641 18.42 61.454 19.581" class="st1"/><path id="Fill-155" d="M60.499,10.52l2.187-1.16c0.013,0.008,0.027,0.016,0.04,0.025l-2.187,1.16	C60.525,10.537,60.512,10.529,60.499,10.52" class="st11"/><path id="Fill-158" d="M60.539,10.546l2.187-1.16c0.121,0.077,0.234,0.178,0.338,0.295l-2.187,1.161	C60.772,10.725,60.659,10.624,60.539,10.546" class="st10"/><path id="Fill-161" d="M60.877,10.841l2.187-1.161c0.064,0.072,0.126,0.151,0.181,0.234l-2.186,1.16	C61.002,10.991,60.941,10.913,60.877,10.841" class="st13"/><path id="Fill-164" d="M61.059,11.075l2.187-1.16c0.067,0.098,0.126,0.204,0.179,0.312l-2.187,1.161	C61.186,11.279,61.125,11.175,61.059,11.075" class="st14"/><path id="Fill-167" d="M61.238,11.388l2.188-1.161c0.13,0.274,0.209,0.572,0.209,0.847l-2.186,1.161	C61.449,11.959,61.37,11.662,61.238,11.388" class="st1"/><path id="Fill-171" d="M60.499,10.52c0.523,0.314,0.948,1.076,0.949,1.715l0.005,7.346	c0.001,0.631-0.424,0.887-0.947,0.573l-12.853-7.723c-0.529-0.317-0.949-1.081-0.949-1.714l-0.006-7.344	c0-0.64,0.419-0.893,0.948-0.575L60.499,10.52z" class="st3"/><path id="Fill-173" d="M59.119,10.595c0.413,0.249,0.751,0.85,0.752,1.354l0.003,5.81c0,0.501-0.336,0.703-0.751,0.455	l-10.169-6.11c-0.413-0.25-0.748-0.857-0.75-1.355L48.202,4.94c-0.001-0.505,0.334-0.702,0.749-0.455L59.119,10.595z" class="st15"/><path id="Stroke-176" d="M60.368,48.691l-12.562-7.439c0.005-0.003,0.011-0.006,0.017-0.009l12.562,7.439	C60.379,48.684,60.373,48.687,60.368,48.691" class="st0"/><path id="Stroke-179" d="M60.384,48.682l-12.562-7.439c0.248-0.126,0.476-0.128,0.645-0.028l12.562,7.439	C60.86,48.553,60.631,48.555,60.384,48.682" class="st0"/><path id="Stroke-183" d="M48.467,41.215l12.562,7.438c-0.173-0.102-0.409-0.098-0.662,0.038l-12.561-7.44	C48.059,41.116,48.294,41.112,48.467,41.215z" class="st0"/><path id="Stroke-185" d="M45.019,66.832l-12.562-7.438c-0.162-0.097-0.269-0.288-0.285-0.552l12.562,7.438	C44.749,66.545,44.857,66.735,45.019,66.832" class="st0"/><path id="Stroke-188" d="M45.019,66.832l-12.562-7.438c-0.162-0.097-0.269-0.288-0.285-0.552l12.562,7.438	C44.749,66.545,44.857,66.735,45.019,66.832z" class="st0"/><polygon id="Stroke-190" points="44.734 66.28 32.172 58.842 31.715 50.823 44.276 58.261" class="st0"/><polygon id="Stroke-192" points="45.103 56.807 32.541 49.368 47.806 41.251 60.368 48.691" class="st0"/><path id="Stroke-195" d="M44.276,58.261l-12.561-7.438c-0.002-0.027-0.002-0.053-0.002-0.08l12.562,7.439	C44.274,58.208,44.275,58.235,44.276,58.261" class="st0"/><path id="Stroke-198" d="M44.275,58.182l-12.562-7.438c0.007-0.529,0.367-1.13,0.829-1.376l12.561,7.439	C44.641,57.052,44.281,57.655,44.275,58.182" class="st0"/><path id="Stroke-202" d="M44.276,58.261l-12.561-7.438c-0.031-0.546,0.341-1.198,0.827-1.456l12.561,7.44	C44.618,57.065,44.246,57.716,44.276,58.261z" class="st0"/><path id="Stroke-204" d="M60.368,48.691c0.491-0.262,0.914-0.033,0.945,0.512l0.457,8.018	c0.032,0.546-0.34,1.199-0.833,1.459l-15.263,8.116c-0.486,0.258-0.909,0.029-0.94-0.516l-0.458-8.019	c-0.03-0.545,0.342-1.196,0.827-1.454L60.368,48.691z" class="st0"/><path id="Fill-207" d="M60.368,48.692l-12.562-7.439c0.005-0.003,0.011-0.006,0.017-0.009l12.562,7.439	C60.379,48.685,60.373,48.688,60.368,48.692" class="st16"/><path id="Fill-210" d="M60.384,48.683l-12.562-7.439c0.248-0.126,0.476-0.128,0.645-0.028l12.562,7.439	C60.86,48.554,60.631,48.556,60.384,48.683" class="st10"/><path id="Fill-214" d="M45.019,66.833l-12.562-7.438c-0.162-0.097-0.269-0.288-0.285-0.552l12.562,7.438	C44.749,66.546,44.857,66.736,45.019,66.833" class="st10"/><polygon id="Fill-217" points="44.734 66.281 32.172 58.843 31.715 50.824 44.276 58.262" class="st3"/><polygon id="Fill-219" points="45.103 56.808 32.541 49.369 47.806 41.252 60.368 48.692" class="st2"/><path id="Fill-222" d="M44.276,58.262l-12.561-7.438c-0.002-0.027-0.002-0.053-0.002-0.08l12.562,7.439	C44.274,58.209,44.275,58.236,44.276,58.262" class="st10"/><path id="Fill-225" d="M44.275,58.183l-12.562-7.438c0.007-0.529,0.367-1.13,0.829-1.376l12.561,7.439	C44.641,57.053,44.281,57.656,44.275,58.183" class="st17"/><path id="Fill-229" d="M60.368,48.692c0.491-0.262,0.914-0.033,0.945,0.512l0.457,8.018	c0.032,0.546-0.34,1.199-0.833,1.459l-15.263,8.116c-0.486,0.258-0.909,0.029-0.94-0.516l-0.458-8.019	c-0.03-0.545,0.342-1.196,0.827-1.454L60.368,48.692z" class="st1"/><polygon id="Fill-231" points="36.413 48.334 37.717 47.642 48.487 54.114 47.184 54.806" class="st18"/><polygon id="Fill-233" points="48.175 50.647 48.93 50.52 48.112 53.965 47.357 54.092" class="st19"/><polygon id="Fill-235" points="38.538 44.809 39.293 44.682 48.931 50.52 48.175 50.647" class="st20"/><polygon id="Fill-237" points="48.175 50.647 47.357 54.092 37.719 48.254 38.537 44.809" class="st15"/><polygon id="Stroke-239" points="93.767 46.707 100.415 43.179 100.437 77.269 93.789 80.797" class="st21"/><polygon id="Stroke-241" points="59.98 26.406 66.629 22.878 100.416 43.178 93.767 46.707" class="st21"/><polygon id="Stroke-243" points="93.767 46.707 93.789 80.797 60.004 60.498 59.98 26.406" class="st21"/><polygon id="Fill-245" points="81.901 69.909 83.972 68.809 83.975 77.737 81.904 78.837" class="st22"/><polygon id="Fill-249" points="81.901 69.909 81.904 78.837 68.719 70.913 68.714 61.986" class="st22"/><polygon id="Fill-251" points="93.767 46.707 100.415 43.179 100.437 77.269 93.789 80.797" class="st1"/><polygon id="Fill-253" points="59.98 26.406 66.629 22.878 100.416 43.178 93.767 46.707" class="st2"/><polygon id="Fill-255" points="93.767 46.707 93.789 80.797 60.004 60.498 59.98 26.406" class="st3"/><polygon id="Fill-257" points="90.677 73.692 62.878 56.987 62.878 32.347 90.677 49.051" class="st15"/><polygon id="Stroke-259" points="90.677 73.692 62.878 56.987 62.878 32.347 90.677 49.051" class="st5"/><polyline id="Stroke-261" points="60.416 26.724 93.605 46.666 93.605 80.247" class="st4"/><path id="Fill-263" d="M92.149,77.109c0,0.592-0.478,0.785-1.065,0.431c-0.583-0.35-1.061-1.118-1.061-1.709	c0-0.586,0.478-0.77,1.061-0.419C91.671,75.764,92.149,76.52,92.149,77.109" class="st22"/><polyline id="Stroke-265" points="16.849 68.164 60.705 94.518 60.708 96.444" class="st4"/><polygon id="Fill-268" points="56.002 109.913 98.284 87.473 98.29 95.985 56.008 118.425" class="st1"/><polygon id="Fill-271" points=".439 76.53 42.721 54.091 98.285 87.472 56.002 109.913" class="st23"/><polygon id="Fill-274" points="56.002 109.913 56.008 118.425 .444 85.043 .439 76.53" class="st3"/><polygon id="Fill-277" points="2.447 76.562 43.083 54.997 96.481 87.079 55.846 108.645" class="st22"/><polygon id="Fill-280" points="44.71 102.397 59.288 94.659 60.293 95.262 45.714 103.001" class="st23"/><polygon id="Fill-283" points="33.492 96.056 48.07 88.318 49.075 88.921 34.496 96.66" class="st23"/><polygon id="Fill-286" points="23.059 89.457 37.637 81.719 38.642 82.322 24.063 90.061" class="st23"/><polygon id="Fill-289" points="11.492 82.556 26.07 74.818 27.075 75.421 12.496 83.16" class="st23"/><polygon id="Fill-292" points="50.354 104.311 64.933 96.572 70.711 100.044 56.132 107.783" class="st24"/><polygon id="Fill-295" points="39.521 97.881 54.1 90.142 59.878 93.614 45.299 101.353" class="st24"/><polygon id="Fill-298" points="28.758 91.355 43.337 83.616 49.115 87.088 34.536 94.827" class="st24"/><polygon id="Fill-301" points="17.954 84.925 32.533 77.186 38.311 80.658 23.732 88.397" class="st24"/><polyline id="Stroke-305" points="1.423 76.512 55.852 109.217 55.856 117.813" class="st4"/><polygon id="Fill-307" points="55.573 109.487 55.579 118.146 .89 85.29 .885 76.63" class="st3"/><path id="Fill-309" d="M10.381,77.448c0,0.553-0.896,1-2,1s-2-0.447-2-1s0.896-1,2-1S10.381,76.895,10.381,77.448" class="st24"/><path id="Fill-311" d="M13.548,79.781c0,0.553-0.896,1-2,1s-2-0.447-2-1s0.896-1,2-1S13.548,79.228,13.548,79.781" class="st24"/><path id="Fill-313" d="M13.715,77.948c0,0.553-0.896,1-2,1s-2-0.447-2-1s0.896-1,2-1S13.715,77.395,13.715,77.948" class="st24"/><path id="Stroke-315" d="M44.643,57.112l0.483,9.208" class="st4"/><polygon id="Stroke-317" points="60.577 94.929 75.156 87.19 75.158 89.834 60.58 97.573" class="st0"/><polygon id="Stroke-319" points="16.137 68.226 30.716 60.488 75.157 87.19 60.577 94.929" class="st0"/><polygon id="Stroke-321" points="60.577 94.929 60.58 97.573 16.139 70.87 16.138 68.226" class="st0"/><polygon id="Fill-323" points="60.577 94.929 75.156 87.19 75.158 89.834 60.58 97.573" class="st1"/><polygon id="Fill-325" points="16.137 68.226 30.716 60.488 75.157 87.19 60.577 94.929" class="st2"/><polygon id="Fill-327" points="60.577 94.929 60.58 97.573 16.139 70.87 16.138 68.226" class="st3"/><polygon id="Fill-329" points="25.112 67.628 26.675 66.798 26.675 67.101 25.112 67.931" class="st25"/><polygon id="Fill-331" points="23.765 66.818 25.327 65.988 26.675 66.797 25.112 67.628" class="st15"/><polygon id="Fill-333" points="25.112 67.628 25.112 67.931 23.765 67.121 23.765 66.818" class="st22"/><polygon id="Fill-335" points="27.107 68.826 28.669 67.996 28.669 68.3 27.107 69.129" class="st25"/><polygon id="Fill-337" points="25.759 68.016 27.322 67.186 28.669 67.995 27.107 68.826" class="st15"/><polygon id="Fill-339" points="27.107 68.826 27.107 69.129 25.759 68.319 25.759 68.016" class="st22"/><polygon id="Fill-341" points="29.201 70.084 30.763 69.255 30.764 69.559 29.201 70.388" class="st25"/><polygon id="Fill-343" points="27.853 69.274 29.416 68.445 30.763 69.254 29.201 70.084" class="st15"/><polygon id="Fill-345" points="29.201 70.084 29.201 70.388 27.853 69.577 27.853 69.274" class="st22"/><polygon id="Fill-347" points="31.203 71.288 32.764 70.457 32.764 70.76 31.203 71.589" class="st25"/><polygon id="Fill-349" points="29.855 70.477 31.418 69.648 32.764 70.456 31.203 71.288" class="st15"/><polygon id="Fill-351" points="31.203 71.288 31.203 71.589 29.854 70.781 29.854 70.477" class="st22"/><polygon id="Fill-353" points="33.269 72.529 34.832 71.699 34.832 72.002 33.269 72.832" class="st25"/><polygon id="Fill-355" points="31.921 71.718 33.484 70.889 34.832 71.698 33.269 72.529" class="st15"/><polygon id="Fill-357" points="33.269 72.529 33.269 72.832 31.921 72.022 31.921 71.718" class="st22"/><polygon id="Fill-359" points="35.271 73.731 36.834 72.902 36.834 73.205 35.271 74.035" class="st25"/><polygon id="Fill-361" points="33.916 72.918 35.478 72.088 36.834 72.902 35.27 73.731" class="st15"/><polygon id="Fill-363" points="35.271 73.731 35.271 74.035 33.917 73.22 33.917 72.918" class="st22"/><polygon id="Fill-365" points="37.365 74.99 38.927 74.16 38.928 74.463 37.365 75.292" class="st25"/><polygon id="Fill-367" points="36.016 74.179 37.58 73.35 38.927 74.159 37.365 74.99" class="st15"/><polygon id="Fill-369" points="37.365 74.99 37.365 75.292 36.017 74.483 36.016 74.179" class="st22"/><polygon id="Fill-371" points="39.359 76.187 40.922 75.358 40.922 75.662 39.359 76.491" class="st25"/><polygon id="Fill-373" points="38.012 75.379 39.574 74.549 40.922 75.358 39.359 76.188" class="st15"/><polygon id="Fill-375" points="39.359 76.187 39.359 76.491 38.012 75.68 38.012 75.378" class="st22"/><polygon id="Fill-377" points="41.322 77.367 42.884 76.537 42.884 76.841 41.322 77.67" class="st25"/><polygon id="Fill-379" points="39.974 76.558 41.536 75.727 42.884 76.537 41.322 77.367" class="st15"/><polygon id="Fill-381" points="41.322 77.367 41.322 77.67 39.974 76.86 39.974 76.558" class="st22"/><polygon id="Fill-383" points="43.316 78.566 44.879 77.736 44.879 78.038 43.316 78.869" class="st25"/><polygon id="Fill-385" points="41.968 77.755 43.531 76.926 44.879 77.735 43.316 78.566" class="st15"/><polygon id="Fill-387" points="43.316 78.566 43.316 78.869 41.968 78.059 41.968 77.755" class="st22"/><polygon id="Fill-389" points="45.41 79.823 46.973 78.993 46.973 79.297 45.41 80.126" class="st25"/><polygon id="Fill-391" points="44.062 79.014 45.625 78.185 46.973 78.993 45.41 79.823" class="st15"/><polygon id="Fill-393" points="45.41 79.823 45.41 80.126 44.062 79.317 44.062 79.014" class="st22"/><polygon id="Fill-395" points="47.411 81.026 48.974 80.197 48.974 80.5 47.411 81.329" class="st25"/><polygon id="Fill-397" points="46.064 80.215 47.627 79.386 48.975 80.196 47.412 81.026" class="st15"/><polygon id="Fill-399" points="47.411 81.026 47.411 81.329 46.063 80.519 46.063 80.215" class="st22"/><polygon id="Fill-401" points="49.478 82.268 51.041 81.439 51.041 81.741 49.478 82.572" class="st25"/><polygon id="Fill-403" points="48.13 81.459 49.693 80.629 51.041 81.439 49.478 82.269" class="st15"/><polygon id="Fill-405" points="49.478 82.268 49.478 82.572 48.13 81.761 48.13 81.458" class="st22"/><polygon id="Fill-407" points="51.434 83.443 52.996 82.614 52.997 82.916 51.434 83.747" class="st25"/><polygon id="Fill-409" points="50.085 82.633 51.649 81.803 52.995 82.613 51.434 83.443" class="st15"/><polygon id="Fill-411" points="51.434 83.443 51.434 83.747 50.086 82.936 50.085 82.633" class="st22"/><polygon id="Fill-413" points="27.256 66.421 28.819 65.591 28.819 65.894 27.256 66.724" class="st25"/><polygon id="Fill-415" points="25.909 65.612 27.472 64.782 28.82 65.591 27.257 66.422" class="st15"/><polygon id="Fill-417" points="27.256 66.421 27.256 66.724 25.908 65.914 25.908 65.611" class="st22"/><polygon id="Fill-419" points="29.25 67.62 30.813 66.79 30.813 67.094 29.25 67.923" class="st25"/><polygon id="Fill-421" points="27.904 66.81 29.466 65.98 30.814 66.789 29.251 67.62" class="st15"/><polygon id="Fill-423" points="29.25 67.62 29.25 67.923 27.903 67.113 27.903 66.81" class="st22"/><polygon id="Fill-425" points="31.345 68.878 32.907 68.049 32.907 68.352 31.345 69.182" class="st25"/><polygon id="Fill-427" points="29.998 68.068 31.559 67.239 32.907 68.048 31.346 68.878" class="st15"/><polygon id="Fill-429" points="31.345 68.878 31.345 69.182 29.997 68.371 29.997 68.068" class="st22"/><polygon id="Fill-431" points="33.346 70.082 34.908 69.251 34.909 69.554 33.346 70.383" class="st25"/><polygon id="Fill-433" points="31.999 69.271 33.561 68.442 34.908 69.25 33.346 70.082" class="st15"/><polygon id="Fill-435" points="33.346 70.082 33.346 70.383 31.999 69.575 31.999 69.271" class="st22"/><polygon id="Fill-437" points="35.414 71.323 36.976 70.493 36.976 70.796 35.414 71.626" class="st25"/><polygon id="Fill-439" points="34.066 70.512 35.629 69.683 36.976 70.492 35.414 71.323" class="st15"/><polygon id="Fill-441" points="35.414 71.323 35.414 71.626 34.066 70.816 34.066 70.512" class="st22"/><polygon id="Fill-443" points="37.415 72.525 38.977 71.696 38.977 71.999 37.415 72.829" class="st25"/><polygon id="Fill-445" points="36.06 71.712 37.623 70.882 38.978 71.696 37.415 72.525" class="st15"/><polygon id="Fill-447" points="37.415 72.525 37.415 72.829 36.06 72.014 36.06 71.712" class="st22"/><polygon id="Fill-449" points="39.509 73.784 41.071 72.954 41.071 73.257 39.509 74.086" class="st25"/><polygon id="Fill-451" points="38.161 72.973 39.725 72.144 41.071 72.953 39.51 73.784" class="st15"/><polygon id="Fill-453" points="39.509 73.784 39.509 74.086 38.161 73.277 38.16 72.973" class="st22"/><polygon id="Fill-455" points="41.503 74.981 43.066 74.152 43.066 74.456 41.503 75.285" class="st25"/><polygon id="Fill-457" points="40.156 74.172 41.718 73.342 43.067 74.151 41.504 74.981" class="st15"/><polygon id="Fill-459" points="41.503 74.981 41.503 75.285 40.155 74.474 40.155 74.172" class="st22"/><polygon id="Fill-461" points="43.465 76.161 45.028 75.331 45.028 75.635 43.465 76.464" class="st25"/><polygon id="Fill-463" points="42.118 75.352 43.681 74.521 45.029 75.331 43.466 76.161" class="st15"/><polygon id="Fill-465" points="43.465 76.161 43.465 76.464 42.117 75.654 42.117 75.352" class="st22"/><polygon id="Fill-467" points="45.46 77.36 47.022 76.53 47.022 76.832 45.46 77.663" class="st25"/><polygon id="Fill-469" points="44.113 76.549 45.675 75.72 47.023 76.529 45.461 77.36" class="st15"/><polygon id="Fill-471" points="45.46 77.36 45.46 77.663 44.112 76.853 44.112 76.549" class="st22"/><polygon id="Fill-473" points="47.554 78.617 49.116 77.787 49.116 78.091 47.554 78.92" class="st25"/><polygon id="Fill-475" points="46.207 77.808 47.77 76.979 49.117 77.787 47.555 78.617" class="st15"/><polygon id="Fill-477" points="47.554 78.617 47.554 78.92 46.206 78.11 46.206 77.808" class="st22"/><polygon id="Fill-479" points="49.556 79.82 51.118 78.991 51.118 79.294 49.556 80.123" class="st25"/><polygon id="Fill-481" points="48.208 79.009 49.77 78.18 51.118 78.99 49.556 79.82" class="st15"/><polygon id="Fill-483" points="49.556 79.82 49.556 80.123 48.208 79.313 48.208 79.009" class="st22"/><polygon id="Fill-485" points="51.623 81.062 53.186 80.233 53.186 80.535 51.623 81.366" class="st25"/><polygon id="Fill-487" points="50.275 80.253 51.838 79.423 53.186 80.233 51.623 81.063" class="st15"/><polygon id="Fill-489" points="51.623 81.062 51.623 81.366 50.275 80.555 50.275 80.252" class="st22"/><polygon id="Fill-491" points="53.578 82.237 55.14 81.407 55.14 81.71 53.578 82.54" class="st25"/><polygon id="Fill-493" points="52.23 81.427 53.793 80.597 55.14 81.406 53.579 82.237" class="st15"/><polygon id="Fill-495" points="53.578 82.237 53.578 82.54 52.23 81.73 52.229 81.427" class="st22"/><polygon id="Fill-497" points="29.535 65.214 31.098 64.385 31.098 64.688 29.535 65.518" class="st25"/><polygon id="Fill-499" points="28.187 64.406 29.75 63.576 31.098 64.385 29.535 65.215" class="st15"/><polygon id="Fill-501" points="29.535 65.214 29.535 65.518 28.187 64.708 28.187 64.405" class="st22"/><polygon id="Fill-503" points="31.529 66.414 33.092 65.584 33.092 65.888 31.529 66.717" class="st25"/><polygon id="Fill-505" points="30.181 65.604 31.744 64.774 33.092 65.583 31.529 66.414" class="st15"/><polygon id="Fill-507" points="31.529 66.414 31.529 66.717 30.181 65.907 30.181 65.604" class="st22"/><polygon id="Fill-509" points="33.623 67.671 35.185 66.842 35.186 67.145 33.623 67.975" class="st25"/><polygon id="Fill-511" points="32.276 66.862 33.838 66.033 35.185 66.842 33.623 67.672" class="st15"/><polygon id="Fill-513" points="33.623 67.671 33.623 67.975 32.276 67.164 32.276 66.861" class="st22"/><polygon id="Fill-515" points="35.624 68.876 37.186 68.045 37.187 68.348 35.624 69.177" class="st25"/><polygon id="Fill-517" points="34.277 68.065 35.84 67.236 37.187 68.044 35.625 68.876" class="st15"/><polygon id="Fill-519" points="35.624 68.876 35.624 69.177 34.276 68.369 34.276 68.065" class="st22"/><polygon id="Fill-521" points="37.692 70.117 39.254 69.287 39.254 69.59 37.692 70.42" class="st25"/><polygon id="Fill-523" points="36.344 69.306 37.906 68.477 39.254 69.286 37.692 70.117" class="st15"/><polygon id="Fill-525" points="37.692 70.117 37.692 70.42 36.344 69.61 36.344 69.306" class="st22"/><polygon id="Fill-527" points="39.693 71.319 41.256 70.49 41.256 70.793 39.693 71.623" class="st25"/><polygon id="Fill-529" points="38.338 70.505 39.901 69.675 41.256 70.489 39.692 71.318" class="st15"/><polygon id="Fill-531" points="39.693 71.319 39.693 71.623 38.339 70.808 38.339 70.506" class="st22"/><polygon id="Fill-533" points="41.788 72.577 43.349 71.748 43.349 72.051 41.788 72.88" class="st25"/><polygon id="Fill-535" points="40.439 71.767 42.003 70.938 43.349 71.747 41.788 72.577" class="st15"/><polygon id="Fill-537" points="41.788 72.577 41.788 72.88 40.439 72.071 40.438 71.767" class="st22"/><polygon id="Fill-539" points="43.782 73.775 45.345 72.946 45.345 73.25 43.782 74.079" class="st25"/><polygon id="Fill-541" points="42.434 72.966 43.996 72.136 45.345 72.945 43.782 73.775" class="st15"/><polygon id="Fill-543" points="43.782 73.775 43.782 74.079 42.434 73.268 42.434 72.966" class="st22"/><polygon id="Fill-545" points="45.744 74.955 47.307 74.125 47.307 74.429 45.744 75.258" class="st25"/><polygon id="Fill-547" points="44.396 74.145 45.959 73.315 47.307 74.124 45.744 74.955" class="st15"/><polygon id="Fill-549" points="45.744 74.955 45.744 75.258 44.396 74.448 44.396 74.145" class="st22"/><polygon id="Fill-551" points="47.738 76.154 49.301 75.324 49.301 75.626 47.738 76.457" class="st25"/><polygon id="Fill-553" points="46.391 75.343 47.953 74.514 49.301 75.323 47.738 76.154" class="st15"/><polygon id="Fill-555" points="47.738 76.154 47.738 76.457 46.391 75.647 46.391 75.343" class="st22"/><polygon id="Fill-557" points="49.832 77.411 51.394 76.581 51.394 76.885 49.832 77.714" class="st25"/><polygon id="Fill-559" points="48.485 76.602 50.048 75.772 51.395 76.581 49.833 77.411" class="st15"/><polygon id="Fill-561" points="49.832 77.411 49.832 77.714 48.484 76.904 48.484 76.602" class="st22"/><polygon id="Fill-563" points="51.833 78.614 53.396 77.785 53.396 78.088 51.833 78.917" class="st25"/><polygon id="Fill-565" points="50.487 77.803 52.049 76.974 53.397 77.784 51.834 78.614" class="st15"/><polygon id="Fill-567" points="51.833 78.614 51.833 78.917 50.486 78.107 50.486 77.803" class="st22"/><polygon id="Fill-569" points="53.901 79.856 55.463 79.027 55.463 79.329 53.901 80.16" class="st25"/><polygon id="Fill-571" points="52.553 79.046 54.116 78.216 55.463 79.026 53.901 79.856" class="st15"/><polygon id="Fill-573" points="53.901 79.856 53.901 80.16 52.553 79.349 52.553 79.046" class="st22"/><polygon id="Fill-575" points="55.857 81.031 57.419 80.201 57.419 80.504 55.857 81.334" class="st25"/><polygon id="Fill-577" points="54.508 80.221 56.071 79.391 57.418 80.2 55.857 81.031" class="st15"/><polygon id="Fill-579" points="55.857 81.031 55.857 81.334 54.509 80.524 54.508 80.221" class="st22"/><polygon id="Fill-581" points="23.621 69.425 25.183 68.595 25.183 68.89 23.621 69.72" class="st25"/><polygon id="Fill-583" points="22.272 68.616 23.834 67.787 25.183 68.595 23.621 69.426" class="st15"/><polygon id="Fill-585" points="23.621 69.425 23.621 69.72 22.273 68.909 22.271 68.615" class="st22"/><polygon id="Fill-587" points="25.516 70.565 27.079 69.735 27.079 70.029 25.516 70.859" class="st25"/><polygon id="Fill-589" points="24.168 69.754 25.731 68.925 27.079 69.734 25.516 70.565" class="st15"/><polygon id="Fill-591" points="25.516 70.565 25.516 70.859 24.168 70.049 24.168 69.754" class="st22"/><polygon id="Fill-593" points="27.511 71.762 29.073 70.933 29.073 71.228 27.511 72.058" class="st25"/><polygon id="Fill-595" points="26.163 70.954 27.726 70.123 29.073 70.933 27.512 71.763" class="st15"/><polygon id="Fill-597" points="27.511 71.762 27.511 72.058 26.163 71.247 26.163 70.953" class="st22"/><polygon id="Fill-599" points="44.191 81.754 45.754 80.924 45.754 81.219 44.191 82.049" class="st25"/><polygon id="Fill-601" points="42.842 80.945 44.405 80.116 45.754 80.924 44.191 81.755" class="st15"/><polygon id="Fill-603" points="44.191 81.754 44.191 82.049 42.843 81.238 42.842 80.944" class="st22"/><polygon id="Fill-605" points="46.087 82.894 47.649 82.064 47.649 82.358 46.087 83.188" class="st25"/><polygon id="Fill-607" points="44.74 82.084 46.303 81.255 47.65 82.064 46.088 82.895" class="st15"/><polygon id="Fill-609" points="46.087 82.894 46.087 83.188 44.739 82.378 44.739 82.083" class="st22"/><polygon id="Fill-611" points="48.082 84.091 49.645 83.262 49.645 83.557 48.082 84.387" class="st25"/><polygon id="Fill-613" points="46.734 83.283 48.297 82.452 49.645 83.262 48.082 84.092" class="st15"/><polygon id="Fill-615" points="48.082 84.091 48.082 84.387 46.734 83.576 46.734 83.282" class="st22"/><polygon id="Fill-617" points="42.062 80.517 43.624 79.688 43.624 79.983 42.062 80.813" class="st25"/><polygon id="Fill-619" points="28.238 72.211 29.8 71.382 43.625 79.689 42.062 80.518" class="st15"/><polygon id="Fill-621" points="42.062 80.517 42.062 80.813 28.238 72.506 28.238 72.21" class="st22"/><polygon id="Fill-623" points="59.039 88.094 60.602 87.265 60.602 87.568 59.039 88.397" class="st25"/><polygon id="Fill-625" points="57.691 87.284 59.254 86.455 60.602 87.265 59.039 88.095" class="st15"/><polygon id="Fill-627" points="59.039 88.094 59.039 88.397 57.691 87.587 57.691 87.283" class="st22"/><polygon id="Fill-629" points="61.105 89.337 62.668 88.508 62.668 88.81 61.105 89.641" class="st25"/><polygon id="Fill-631" points="59.757 88.527 61.32 87.697 62.668 88.507 61.105 89.337" class="st15"/><polygon id="Fill-633" points="61.105 89.337 61.105 89.641 59.757 88.83 59.757 88.527" class="st22"/><polygon id="Fill-635" points="63.061 90.511 64.623 89.682 64.624 89.984 63.061 90.815" class="st25"/><polygon id="Fill-637" points="61.712 89.702 63.276 88.872 64.622 89.682 63.061 90.512" class="st15"/><polygon id="Fill-639" points="63.061 90.511 63.061 90.815 61.713 90.004 61.712 89.701" class="st22"/><polygon id="Fill-641" points="61.183 86.888 62.745 86.059 62.745 86.362 61.183 87.191" class="st25"/><polygon id="Fill-643" points="59.835 86.078 61.397 85.249 62.745 86.059 61.183 86.889" class="st15"/><polygon id="Fill-645" points="61.183 86.888 61.183 87.191 59.835 86.381 59.835 86.077" class="st22"/><polygon id="Fill-647" points="63.249 88.13 64.812 87.301 64.812 87.603 63.249 88.434" class="st25"/><polygon id="Fill-649" points="61.902 87.321 63.465 86.491 64.813 87.301 63.25 88.131" class="st15"/><polygon id="Fill-651" points="63.249 88.13 63.249 88.434 61.901 87.623 61.901 87.32" class="st22"/><polygon id="Fill-653" points="65.205 89.305 66.767 88.475 66.767 88.778 65.205 89.608" class="st25"/><polygon id="Fill-655" points="63.857 88.496 65.42 87.666 66.767 88.475 65.206 89.306" class="st15"/><polygon id="Fill-657" points="65.205 89.305 65.205 89.608 63.858 88.798 63.856 88.495" class="st22"/><polygon id="Fill-659" points="63.46 85.682 65.023 84.853 65.023 85.156 63.46 85.985" class="st25"/><polygon id="Fill-661" points="62.114 84.872 63.676 84.043 65.024 84.853 63.461 85.683" class="st15"/><polygon id="Fill-663" points="63.46 85.682 63.46 85.985 62.113 85.175 62.113 84.871" class="st22"/><polygon id="Fill-665" points="65.528 86.924 67.09 86.095 67.09 86.397 65.528 87.228" class="st25"/><polygon id="Fill-667" points="64.18 86.115 65.743 85.285 67.09 86.095 65.528 86.925" class="st15"/><polygon id="Fill-669" points="65.528 86.924 65.528 87.228 64.18 86.417 64.18 86.114" class="st22"/><polygon id="Fill-671" points="67.484 88.099 69.046 87.269 69.046 87.572 67.484 88.402" class="st25"/><polygon id="Fill-673" points="66.135 87.29 67.698 86.46 69.045 87.269 67.484 88.1" class="st15"/><polygon id="Fill-675" points="67.484 88.099 67.484 88.402 66.136 87.592 66.135 87.289" class="st22"/><polygon id="Fill-677" points="54.228 85.142 55.791 84.313 55.791 84.615 54.228 85.446" class="st25"/><polygon id="Fill-679" points="52.88 84.333 54.443 83.503 55.791 84.313 54.228 85.143" class="st15"/><polygon id="Fill-681" points="54.228 85.142 54.228 85.446 52.88 84.635 52.88 84.332" class="st22"/><polygon id="Fill-683" points="56.184 86.317 57.746 85.488 57.747 85.79 56.184 86.621" class="st25"/><polygon id="Fill-685" points="54.835 85.507 56.399 84.677 57.745 85.487 56.184 86.317" class="st15"/><polygon id="Fill-687" points="56.184 86.317 56.184 86.621 54.836 85.81 54.835 85.507" class="st22"/><polygon id="Fill-689" points="56.373 83.936 57.936 83.107 57.936 83.409 56.373 84.24" class="st25"/><polygon id="Fill-691" points="55.025 83.127 56.588 82.297 57.936 83.107 56.373 83.937" class="st15"/><polygon id="Fill-693" points="56.373 83.936 56.373 84.24 55.025 83.429 55.025 83.126" class="st22"/><polygon id="Fill-695" points="58.328 85.111 59.89 84.281 59.89 84.584 58.328 85.414" class="st25"/><polygon id="Fill-697" points="56.98 84.301 58.543 83.471 59.89 84.28 58.329 85.111" class="st15"/><polygon id="Fill-699" points="58.328 85.111 58.328 85.414 56.98 84.604 56.979 84.301" class="st22"/><polygon id="Fill-701" points="58.651 82.73 60.213 81.901 60.213 82.203 58.651 83.034" class="st25"/><polygon id="Fill-703" points="57.303 81.921 58.866 81.091 60.213 81.901 58.651 82.731" class="st15"/><polygon id="Fill-705" points="58.651 82.73 58.651 83.034 57.303 82.223 57.303 81.92" class="st22"/><polygon id="Fill-707" points="60.607 83.905 62.169 83.075 62.169 83.378 60.607 84.208" class="st25"/><polygon id="Fill-709" points="59.258 83.095 60.821 82.265 62.168 83.074 60.607 83.905" class="st15"/><polygon id="Fill-711" points="60.607 83.905 60.607 84.208 59.259 83.398 59.258 83.095" class="st22"/><polygon id="Fill-713" points="51.993 86.459 53.555 85.63 53.556 85.934 51.993 86.763" class="st25"/><polygon id="Fill-715" points="50.645 85.649 52.208 84.82 53.555 85.629 51.993 86.459" class="st15"/><polygon id="Fill-717" points="51.993 86.459 51.993 86.763 50.645 85.952 50.645 85.649" class="st22"/><polyline id="Stroke-719" points="16.516 69.031 60.372 95.385 60.375 97.311" class="st4"/><path id="Stroke-723" d="M0.798,76.056l5.508-2.929" class="st26"/></svg>