<svg xmlns="http://www.w3.org/2000/svg" xmlns:svg="http://www.w3.org/2000/svg" xmlns:xlink="http://www.w3.org/1999/xlink" id="Layer_1" x="0" y="0" version="1.1" viewBox="0 0 92.647 65.448" xml:space="preserve" style="enable-background:new 0 0 92.647 65.448"><style type="text/css">.st0{fill:none;stroke:#626366;stroke-width:2.409;stroke-linejoin:round}.st1{fill:#bbbdbf}.st2{fill:#a4a6a9}.st3{fill:#e21b23}.st4{fill:#b3b5b7}.st5{fill:#fefefe}.st6{fill:none;stroke:#dfe0df;stroke-width:.637;stroke-linecap:round;stroke-linejoin:round}</style><title id="title4">icon-router-VPN</title><desc id="desc6">Created with Sketch.</desc><path id="Stroke-47" d="M1.725,21.032L38.903,1.299	c0.295-0.157,0.69-0.124,1.127,0.138L2.852,21.171C2.417,20.909,2.02,20.876,1.725,21.032z" class="st0"/><path id="Stroke-83" d="M90.92,44.414L53.744,64.148	c0.321-0.17,0.522-0.565,0.521-1.136l37.176-19.734C91.441,43.85,91.241,44.244,90.92,44.414z" class="st0"/><polygon id="Stroke-85" points="2.852 21.171 40.029 1.437 89.785 31.334 52.609 51.067" class="st0"/><polygon id="Stroke-87" points="91.442 43.279 54.265 63.013 54.258 54.048 91.436 34.314" class="st0"/><path id="Stroke-196" d="M52.609,51.068l37.177-19.734	c0.905,0.545,1.65,1.888,1.651,2.98L54.258,54.048C54.258,52.956,53.514,51.612,52.609,51.068z" class="st0"/><path id="Stroke-198" d="M52.609,51.068c0.906,0.544,1.65,1.888,1.65,2.98l0.007,8.965	c0.001,1.098-0.742,1.542-1.647,0.997L2.862,34.114c-0.912-0.547-1.65-1.881-1.651-2.98l-0.007-8.965	c0-1.092,0.737-1.545,1.648-0.997L52.609,51.068z" class="st0"/><polygon id="Fill-281" points="89.785 31.334 52.609 51.067 2.852 21.171 40.029 1.437" class="st1"/><polygon id="Fill-282" points="91.442 43.279 54.265 63.013 54.258 54.048 91.436 34.314" class="st2"/><path id="Fill-391" d="M52.609,51.068c1.65,0.987,1.65,1.911,1.65,2.98l0.007,8.965	c0.001,1.098-0.742,1.542-1.647,0.997L2.862,34.114c-0.912-0.547-1.65-1.881-1.651-2.98l-0.007-8.965	c0-1.092,0.737-1.545,1.648-0.997L52.609,51.068z" class="st3"/><path id="Fill-393" d="M52.321,53.557c1.386,1.065,1.712,1.403,1.713,3.525l0.005,6.064	c0.001,0.879-0.497,1.623-1.649,0.997L5.66,35.942c-0.729-0.438-1.32-1.505-1.321-2.384l-0.005-7.171	c0-0.874,0.59-1.237,1.318-0.799L52.321,53.557z" class="st4"/><polygon id="Fill-397" points="27.819 44.72 16.372 37.842 16.372 37.859 7.764 32.688 7.764 35.387 19.208 42.263 19.208 42.244 27.819 47.418" class="st5"/><polygon id="Fill-399" points="50.006 60.484 47.097 58.731 47.091 55.707 49.998 57.459" class="st5"/><polygon id="Fill-401" points="44.182 57.487 39.993 54.963 39.986 50.608 44.169 53.131" class="st5"/><polygon id="Fill-403" points="33.361 50.67 30.451 48.917 30.448 45.893 33.353 47.645" class="st5"/><polygon id="Fill-405" points="36.938 52.999 34.028 51.246 34.023 48.222 36.93 49.974" class="st5"/><path id="Stroke-47-2" d="M1.725,21.032L38.903,1.299	c0.295-0.157,0.69-0.124,1.127,0.138L2.852,21.171C2.417,20.909,2.02,20.876,1.725,21.032z" class="st1"/><path id="Stroke-196-7" d="M52.608,51.068l37.177-19.734	c0.905,0.545,1.65,1.888,1.651,2.98L54.258,54.048C54.258,52.956,53.514,51.612,52.608,51.068z" class="st2"/><path id="Stroke-83-1" d="M90.92,44.414L53.745,64.148	c0.321-0.17,0.522-0.565,0.521-1.136l37.176-19.734C91.441,43.85,91.241,44.244,90.92,44.414z" class="st2"/><path id="Stroke-395" d="M1.205,22.169c-0.207-2.126,2.86-0.405,2.86-0.405L52.853,51.08	c-0.117-0.115,0.354,0.212,0.893,0.868c0.521,0.635,0.474,1.641,0.474,1.641l0.08,8.716c0,0,0.247,1.075-0.828,1.648" class="st6"/></svg>