<svg xmlns="http://www.w3.org/2000/svg" xmlns:svg="http://www.w3.org/2000/svg" xmlns:xlink="http://www.w3.org/1999/xlink" id="Layer_1" x="0" y="0" version="1.1" viewBox="0 0 92.702 65.41" xml:space="preserve" style="enable-background:new 0 0 92.702 65.41"><style type="text/css">.st0,.st1{fill:none;stroke:#626366;stroke-width:2.409;stroke-linejoin:round}.st1{fill:#a4a6a9}.st2{fill:#bbbdbf}.st3{fill:#a4a6a9}.st4{fill:#e21b23}.st5{fill:#b3b5b7}.st6{fill:#fefefe}.st7{fill:#96989b}.st8{fill:none;stroke:#dfe0df;stroke-width:.637;stroke-linecap:round;stroke-linejoin:round}</style><title id="title4">icon-router-UTM</title><desc id="desc6">Created with Sketch.</desc><polygon id="Stroke-87" points="54.344 54.008 91.467 34.175 91.497 43.141 54.373 62.973" class="st0"/><path id="Stroke-47" d="M1.722,21.132L38.847,1.3	c0.294-0.158,0.689-0.126,1.127,0.135L2.85,21.267C2.413,21.007,2.017,20.974,1.722,21.132z" class="st0"/><path id="Stroke-83" d="M90.98,44.278L53.856,64.11	c0.32-0.171,0.52-0.566,0.518-1.138L91.498,43.14C91.5,43.713,91.3,44.107,90.98,44.278z" class="st1"/><polygon id="Stroke-85" points="89.809 31.2 52.685 51.033 2.85 21.268 39.974 1.435" class="st0"/><path id="Stroke-196" d="M52.685,51.032l37.124-19.833	c0.907,0.542,1.655,1.884,1.658,2.976L54.344,54.008C54.34,52.915,53.592,51.574,52.685,51.032z" class="st0"/><path id="Stroke-198" d="M52.685,51.032c0.907,0.542,1.655,1.883,1.659,2.976l0.029,8.964	c0.004,1.099-0.738,1.544-1.645,1.002L2.893,34.21c-0.913-0.545-1.655-1.877-1.658-2.976l-0.03-8.965	C1.2,21.177,1.937,20.722,2.85,21.267L52.685,51.032z" class="st0"/><polygon id="Fill-281" points="89.809 31.2 52.685 51.033 2.85 21.268 39.974 1.435" class="st2"/><polygon id="Fill-282" points="54.344 54.008 91.467 34.175 91.497 43.141 54.373 62.973" class="st3"/><path id="Fill-283" d="M52.685,51.032l37.124-19.833	c0.907,0.542,1.655,1.884,1.658,2.976L54.344,54.008C54.34,52.915,53.592,51.574,52.685,51.032" class="st2"/><path id="Fill-391" d="M52.685,51.032c1.653,0.982,1.656,1.906,1.659,2.976l0.029,8.964	c0.004,1.099-0.738,1.544-1.645,1.002L2.893,34.21c-0.913-0.545-1.655-1.877-1.658-2.976l-0.03-8.965	C1.2,21.177,1.937,20.722,2.85,21.267L52.685,51.032z" class="st4"/><path id="Fill-393" d="M52.403,53.523c1.39,1.062,1.717,1.399,1.725,3.521l0.019,6.063	c0.003,0.879-0.492,1.626-1.645,1.002L5.696,36.032c-0.731-0.436-1.324-1.501-1.328-2.38L4.344,26.48	c-0.003-0.874,0.586-1.238,1.318-0.802L52.403,53.523z" class="st5"/><polygon id="Fill-397" points="19.293 38.238 7.827 31.39 7.82 28.693 19.285 35.54" class="st6"/><polygon id="Fill-399" points="19.261 42.316 7.798 35.47 7.791 32.771 19.254 39.616" class="st6"/><polygon id="Fill-401" points="27.68 47.499 21.851 44.009 21.826 37.96 27.648 41.449" class="st6"/><polygon id="Fill-403" points="50.107 60.456 47.192 58.711 47.18 55.686 50.091 57.431" class="st6"/><polygon id="Fill-405" points="44.276 57.474 40.079 54.961 40.06 50.606 44.252 53.118" class="st6"/><path id="Fill-407" d="M47.747,17.571l-8.397,4.268c-4.903,2.492-8.882,1.994-11.659,0.345	c-2.942-1.747-3.07-4.023,1.508-6.35l8.418-4.279l2.526,1.5l-8.505,4.323c-2.126,1.081-2.352,2.358-0.897,3.222	c1.336,0.794,3.589,1.008,6.235-0.338l8.246-4.191L47.747,17.571z" class="st4"/><polygon id="Fill-409" points="56.369 25.681 52.701 23.502 40.617 29.645 38.091 28.146 50.176 22.003 46.507 19.824 49.22 18.446 59.082 24.302" class="st4"/><polygon id="Fill-411" points="69.316 30.382 71.513 31.687 56.716 39.208 54.192 37.709 63.435 33.01 56.06 33.748 55.673 33.519 57.584 29.535 48.341 34.234 45.816 32.735 60.613 25.212 62.811 26.517 60.574 31.239" class="st4"/><path id="Stroke-83-4" d="M90.98,44.278L53.856,64.11	c0.32-0.171,0.52-0.566,0.518-1.138L91.498,43.14C91.5,43.713,91.3,44.107,90.98,44.278z" class="st3"/><path id="Stroke-47-5" d="M1.722,21.132L38.847,1.3	c0.294-0.158,0.689-0.126,1.127,0.135L2.85,21.267C2.413,21.007,2.017,20.974,1.722,21.132z" class="st7"/><path id="Stroke-395" d="M1.204,22.27c-0.212-2.125,2.858-0.413,2.858-0.413l48.867,29.187	c-0.119-0.114,0.354,0.211,0.894,0.866c0.523,0.633,0.478,1.639,0.478,1.639l0.103,8.716c0,0,0.251,1.074-0.823,1.651" class="st8"/></svg>