<svg xmlns="http://www.w3.org/2000/svg" xmlns:xlink="http://www.w3.org/1999/xlink" id="Layer_1" x="0" y="0" version="1.1" viewBox="0 0 65 64.9" xml:space="preserve" style="enable-background:new 0 0 65 64.9"><style type="text/css">.st0{fill:#eabe1b}.st1{fill:#fff}</style><title>INDIVIDUAL ICONS 3</title><ellipse cx="32.5" cy="32.5" class="st0" rx="32.5" ry="32.5" transform="matrix(1 -3.316120e-03 3.316120e-03 1 -0.1074 0.108)"/><path d="M47.8,56.6H18.6V56c0-14.7,0-29.5,0-44.3c0-1.7,1.4-3.1,3.1-3.1c0,0,0,0,0,0c7.6,0,15.3,0,22.9,0	c1.7,0,3.1,1.4,3.1,3.1c0,0,0,0,0,0c0,14.7,0,29.5,0,44.3L47.8,56.6z M46.1,54.9c0-0.2,0-0.3,0-0.5c0-14.3,0-28.6,0-43	c0-0.8-0.3-1.1-1.2-1.1H21.6c-0.7,0-1.2,0.5-1.2,1.2c0,14.4,0,28.9,0,43.3L46.1,54.9L46.1,54.9z" class="st1"/><path d="M44.3,27.5H22.1v-5.1h22.3V27.5z M23.8,25.8h18.9V24H23.8V25.8z" class="st1"/><path d="M22.1,34.3v-5.1h22.3v5.1H22.1z M24.6,32.6h18v-1.7h-18L24.6,32.6z" class="st1"/><path d="M22.1,42v-5.1h22.3V42H22.1z M24.6,40.3h18v-1.7h-18L24.6,40.3z" class="st1"/><path d="M44.3,14.6v5.1H22.1v-5.1H44.3z M24.6,18h18v-1.7h-18L24.6,18z" class="st1"/></svg>