<svg xmlns="http://www.w3.org/2000/svg" xmlns:xlink="http://www.w3.org/1999/xlink" id="Layer_1" x="0" y="0" version="1.1" viewBox="0 0 60.2 60.2" xml:space="preserve" style="enable-background:new 0 0 60.2 60.2"><style type="text/css">.st0{fill:#ecc01b}.st1{fill:#fff}</style><title>INDIVIDUAL ICONS</title><circle cx="30.1" cy="30.1" r="30.1" class="st0"/><path d="M30.1,22.9c-4,0-7.2,3.2-7.2,7.2s3.2,7.2,7.2,7.2s7.2-3.2,7.2-7.2l0,0C37.3,26.2,34.1,22.9,30.1,22.9z M30.1,32.5c-1.3,0-2.4-1.1-2.4-2.4c0-1.3,1.1-2.4,2.4-2.4c1.3,0,2.4,1.1,2.4,2.4C32.5,31.4,31.5,32.5,30.1,32.5L30.1,32.5z" class="st1"/><path d="M30.1,19.3c-8.1,0-14.2,4.3-18,10.8c3.8,6.4,9.9,10.8,18,10.8s14.2-4.3,18-10.8C44.3,23.7,38.2,19.3,30.1,19.3z M30.1,39.7c-6.9,0-12.7-3.4-16.6-9.6c3.9-6.2,9.7-9.6,16.6-9.6s12.7,3.4,16.6,9.6C42.8,36.3,37,39.7,30.1,39.7z" class="st1"/></svg>