<svg xmlns="http://www.w3.org/2000/svg" xmlns:svg="http://www.w3.org/2000/svg" id="Layer_1" width="50.03" height="49.986" x="0" y="0" enable-background="new 0 0 50 50" version="1.1" viewBox="0 0 50.03 49.986" xml:space="preserve"><metadata id="metadata21"/><polygon id="polygon3" points="18.5 34.8 18.5 17.3 1 17.3 1 29.7 6.1 34.8" transform="translate(0,-0.01386178)" style="fill:#3999c6"/><polygon id="polygon5" points="15.3 31.6 32.8 31.6 32.8 49.1 20.5 49.1 15.3 44" transform="translate(0,-0.01386178)" style="fill:#3999c6"/><rect id="rect7" width="35" height="20.4" x="-20.301" y="25.087" transform="matrix(0.70710678,-0.70710678,0.70710678,0.70710678,0,0)" style="fill:#e5e5e5"/><polygon id="polygon9" points="3.4 32.1 17.9 46.6 8.9 50 0 41.1" transform="translate(0,-0.01386178)" style="fill:#59b4d9"/><path id="path11" d="M 28.2,7.3861382 C 37.1,-1.5138618 49.9,0.18613822 49.9,0.18613822 49.9,0.18613822 51.6,12.886138 42.7,21.886138 L 28.2,7.3861382 Z" style="fill:#59b4d9"/><circle id="circle13" cx="27.2" cy="22.786" r="3.9" style="fill:#0072c6"/><path id="path15" d="M 49.5,0.08613822 C 47.3,-0.11386178 36.2,-0.61386178 28.2,7.3861382 L 18.3,17.286138 1,17.286138 1,29.686138 3.5,32.186138 0,41.086138 4.2,45.286138 49.5,0.08613822 Z" style="opacity:.15;fill:#fff"/></svg>