<svg xmlns="http://www.w3.org/2000/svg" xmlns:svg="http://www.w3.org/2000/svg" id="Layer_1" width="50.1" height="50" x="0" y="0" enable-background="new 0 0 50 50" version="1.1" viewBox="0 0 50.1 50" xml:space="preserve"><metadata id="metadata19"/><path id="path3" d="M 25,50 C 23.8,50 22.6,49.5 21.7,48.6 L 1.4,28.3 C 0.5,27.4 0,26.2 0,25 0,23.8 0.5,22.6 1.4,21.7 L 21.7,1.4 C 22.6,0.5 23.8,0 25,0 26.2,0 27.4,0.5 28.3,1.4 L 48.7,21.8 C 49.6,22.7 50.1,23.8 50.1,25.1 50.1,26.3 49.6,27.5 48.7,28.4 L 28.3,48.6 C 27.4,49.5 26.2,50 25,50" style="fill:#3999c6"/><path id="path5" d="M 28.3,1.4 C 27.4,0.5 26.2,0 25,0 23.8,0 22.6,0.5 21.7,1.4 L 1.4,21.7 C 0.5,22.6 0,23.8 0,25 0,26.2 0.5,27.4 1.4,28.3 L 12.9,39.8 34.6,7.7 28.3,1.4 Z" style="opacity:.15;fill:#fff"/><polygon id="polygon7" points="23.1 20.6 27 20.6 27 11 31.6 11 25 4.4 18.4 11 23.1 11" style="fill:#fff"/><polygon id="polygon9" points="26.9 29.6 23 29.6 23 39 18.4 39 25 45.6 31.6 39 26.9 39" style="fill:#fff"/><polygon id="polygon11" points="43.6 27 43.6 23 34.7 23 34.7 18.4 28.1 25 34.7 31.6 34.7 27" style="fill:#fff"/><polygon id="polygon13" points="6.4 23 6.4 27 15.4 27 15.4 31.6 22 25 15.4 18.4 15.4 23" style="fill:#fff"/></svg>