<svg xmlns="http://www.w3.org/2000/svg" xmlns:svg="http://www.w3.org/2000/svg" id="Layer_1" width="50" height="50" x="0" y="0" enable-background="new -162 256 50 50" version="1.1" viewBox="-162 256 50 50" xml:space="preserve"><metadata id="metadata67"/><g id="g3"><path id="path5" d="M -162,262.8 -162,299.1 C -162,302.9 -153.6,305.9 -143.1,305.9 L -143.1,262.8 -162,262.8 Z" style="fill:#3e3e3e"/><path id="path7" d="M -143.4,306 -143.1,306 C -132.7,306 -124.2,302.9 -124.2,299.2 L -124.2,262.8 -143.4,262.8 -143.4,306 Z" style="fill:#a0a1a2"/><path id="path9" d="M -124.2,262.8 C -124.2,266.6 -132.6,269.6 -143.1,269.6 -153.6,269.6 -162,266.6 -162,262.8 -162,259.1 -153.5,256 -143.1,256 -132.7,256 -124.2,259.1 -124.2,262.8" style="fill:#fff"/><path id="path11" d="M -128.1,262.4 C -128.1,264.9 -134.8,266.9 -143.1,266.9 -151.4,266.9 -158.1,264.9 -158.1,262.4 -158.1,259.9 -151.4,257.9 -143.1,257.9 -134.8,257.9 -128.1,259.9 -128.1,262.4" style="fill:#7fba00"/><path id="path13" d="M -131.2,265.2 C -129.2,264.4 -128.1,263.5 -128.1,262.4 -128.1,259.9 -134.8,257.9 -143.1,257.9 -151.4,257.9 -158.1,259.9 -158.1,262.4 -158.1,263.4 -156.9,264.4 -155,265.2 -152.3,264.1 -148,263.4 -143.1,263.4 -138.3,263.4 -134,264.1 -131.2,265.2" style="fill:#b8d432"/></g><g id="g15"><path id="path17" d="M -143.4,306 -143.4,288 C -146.2,288 -148.6,286.5 -150,284.3 -151.4,286.5 -153.7,288 -156.5,288 -158.7,288 -160.6,287.1 -162,285.6 L -162,299.2 C -162,302.9 -153.7,305.9 -143.4,306 Z" style="fill:#3999c6"/><path id="path19" d="M -143.1,306 -143.1,306 -143.1,306 -143.1,306 Z" style="fill:#3999c6"/><path id="path21" d="M -143.4,306 -143.1,306 C -143.2,306 -143.3,306 -143.4,306 L -143.4,306 Z" style="fill:#59b4d9"/><path id="path23" d="M -130,288 C -132.8,288 -135.3,286.5 -136.7,284.3 -138,286.5 -140.4,287.9 -143.2,288 L -143.2,306 -143.2,306 C -132.8,306 -124.3,302.9 -124.3,299.2 L -124.3,285.5 C -125.7,287 -127.7,288 -130,288 Z" style="fill:#59b4d9"/><path id="path25" d="M -143.3,288 -143.3,288 -143.4,306 C -143.3,306 -143.3,306 -143.2,306 L -143.2,306 -143.2,288 C -143.2,288 -143.2,288 -143.3,288 Z" style="fill:#59b4d9"/></g><g id="g27"><rect id="rect29" width="4.89" height="14.067" x="-139.084" y="291.933" style="fill:#68217a"/></g><g id="g31"><rect id="rect33" width="4.89" height="17.375" x="-131.806" y="288.625" style="fill:#68217a"/></g><g id="g35"><rect id="rect37" width="4.906" height="11.808" x="-124.537" y="294.192" style="fill:#68217a"/></g><g id="g39"><rect id="rect41" width="4.89" height="16.03" x="-117.251" y="289.97" style="fill:#68217a"/></g><g id="g43"><polygon id="polygon45" points="-138.111 287.473 -127.679 279.808 -122.307 287.628 -113.925 280.308 -113.396 280.915 -113.864 281.323 -113.576 281.653 -122.541 289.483 -127.977 281.569 -137.374 288.474" style="fill:#68217a"/></g><g id="g47"><circle id="circle49" cx="-137.969" cy="288.05" r="1.864" style="fill:#804998"/></g><g id="g51"><circle id="circle53" cx="-127.864" cy="280.88" r="1.864" style="fill:#804998"/></g><g id="g55"><circle id="circle57" cx="-122.552" cy="288.556" r="1.864" style="fill:#804998"/></g><g id="g59"><circle id="circle61" cx="-113.864" cy="281.141" r="1.864" style="fill:#804998"/></g></svg>