<svg xmlns="http://www.w3.org/2000/svg" xmlns:svg="http://www.w3.org/2000/svg" id="Layer_1" width="50" height="49.4" x="0" y="0" enable-background="new 0 0 50 50" version="1.1" viewBox="0 0 50 49.4" xml:space="preserve"><metadata id="metadata31"/><g id="g3" transform="translate(0,-0.6)"><polygon id="polygon5" points="24.9 5.9 4.5 17.3 4.5 50 0 50 0 14.6 24.9 .6 50 14.6 50 50 45.5 50 45.5 17.3" style="fill:#3999c6"/></g><rect id="rect7" width="8.4" height="6" x="20.8" y="34.7" style="fill:#b8d432"/><rect id="rect9" width="8.4" height="6.9" x="20.8" y="25.2" style="fill:#b8d432"/><rect id="rect11" width="8.4" height="6" x="20.8" y="16.5" style="fill:#b8d432"/><rect id="rect13" width="8.4" height="6.1" x="20.8" y="43.3" style="fill:#b8d432"/><rect id="rect15" width="8.4" height="6.1" x="31.8" y="43.3" style="fill:#b8d432"/><rect id="rect17" width="8.4" height="6" x="31.8" y="34.7" style="fill:#b8d432"/><rect id="rect19" width="8.4" height="6.9" x="31.8" y="25.2" style="fill:#b8d432"/><rect id="rect21" width="8.4" height="6.9" x="9.8" y="25.2" style="fill:#b8d432"/><rect id="rect23" width="8.4" height="6" x="9.8" y="34.7" style="fill:#b8d432"/><rect id="rect25" width="8.4" height="6.1" x="9.8" y="43.3" style="fill:#b8d432"/></svg>