<svg xmlns="http://www.w3.org/2000/svg" xmlns:svg="http://www.w3.org/2000/svg" id="Layer_1" width="50" height="50" x="0" y="0" enable-background="new -162 256 50 50" version="1.1" viewBox="-162 256 50 50" xml:space="preserve"><metadata id="metadata35"/><g id="g3"><path id="path5" d="M -162,262.8 -162,299.1 C -162,302.9 -153.6,305.9 -143.1,305.9 L -143.1,262.8 -162,262.8 Z" style="fill:#3e3e3e"/><path id="path7" d="M -143.4,306 -143.1,306 C -132.7,306 -124.2,302.9 -124.2,299.2 L -124.2,262.8 -143.4,262.8 -143.4,306 Z" style="fill:#a0a1a2"/><path id="path9" d="M -124.2,262.8 C -124.2,266.6 -132.6,269.6 -143.1,269.6 -153.6,269.6 -162,266.6 -162,262.8 -162,259.1 -153.5,256 -143.1,256 -132.7,256 -124.2,259.1 -124.2,262.8" style="fill:#fff"/><path id="path11" d="M -128.1,262.4 C -128.1,264.9 -134.8,266.9 -143.1,266.9 -151.4,266.9 -158.1,264.9 -158.1,262.4 -158.1,259.9 -151.4,257.9 -143.1,257.9 -134.8,257.9 -128.1,259.9 -128.1,262.4" style="fill:#7fba00"/><path id="path13" d="M -131.2,265.2 C -129.2,264.4 -128.1,263.5 -128.1,262.4 -128.1,259.9 -134.8,257.9 -143.1,257.9 -151.4,257.9 -158.1,259.9 -158.1,262.4 -158.1,263.4 -156.9,264.4 -155,265.2 -152.3,264.1 -148,263.4 -143.1,263.4 -138.3,263.4 -134,264.1 -131.2,265.2" style="fill:#b8d432"/></g><g id="g15"><path id="path17" d="M -143.4,306 -143.4,288 C -146.2,288 -148.6,286.5 -150,284.3 -151.4,286.5 -153.7,288 -156.5,288 -158.7,288 -160.6,287.1 -162,285.6 L -162,299.2 C -162,302.9 -153.7,305.9 -143.4,306 Z" style="fill:#3999c6"/><path id="path19" d="M -143.1,306 -143.1,306 -143.1,306 -143.1,306 Z" style="fill:#3999c6"/><path id="path21" d="M -143.4,306 -143.1,306 C -143.2,306 -143.3,306 -143.4,306 L -143.4,306 Z" style="fill:#59b4d9"/><path id="path23" d="M -130,288 C -132.8,288 -135.3,286.5 -136.7,284.3 -138,286.5 -140.4,287.9 -143.2,288 L -143.2,306 -143.2,306 C -132.8,306 -124.3,302.9 -124.3,299.2 L -124.3,285.5 C -125.7,287 -127.7,288 -130,288 Z" style="fill:#59b4d9"/><path id="path25" d="M -143.3,288 -143.3,288 -143.4,306 C -143.3,306 -143.3,306 -143.2,306 L -143.2,306 -143.2,288 C -143.2,288 -143.2,288 -143.3,288 Z" style="fill:#59b4d9"/></g><path id="path27" d="M -113.049,286.378 -113.049,284.22 -127.246,284.22 -130.465,281 -139.126,281 -139.126,304.713 C -139.126,305.423 -138.551,306 -137.84,306 L -137.84,306 -113.286,306 C -112.576,306 -112,305.424 -112,304.713 L -112,286.377 -113.049,286.377 Z" style="fill:#fee087"/><path id="path29" d="M -136.553,286.378 -136.553,304.713 C -136.553,305.424 -137.129,306 -137.839,306 -138.55,306 -139.125,305.424 -139.125,304.713 L -139.125,281 -130.464,281 -127.245,284.22 -113.048,284.22 -113.048,286.378 -136.553,286.378 Z" style="opacity:.2;fill:#1e1e1e"/></svg>