<svg xmlns="http://www.w3.org/2000/svg" xmlns:xlink="http://www.w3.org/1999/xlink" width="65.5" height="65.5" baseProfile="full" contentScriptType="text/ecmascript" contentStyleType="text/css" preserveAspectRatio="none meet" version="1.0" viewBox="0 -0.1 65.5 65.4" zoomAndPan="magnify"><defs><style>.cls-1{fill:url(#linear-gradient)}.cls-2{fill:#2684ff}</style><linearGradient id="linear-gradient" x1="28.121" x2="11.239" y1="35.051" y2="64.292" gradientUnits="userSpaceOnUse"><stop offset="0" stop-color="#0052cc"/><stop offset=".923" stop-color="#2684ff"/></linearGradient></defs><title>Atlassian-horizontal-blue-rgb</title><path d="M 19.463167 30.115 a 1.856 1.856 0.0 0 0 -3.157 0.343 L 0.30916667 62.442 a 1.912 1.912 0.0 0 0 1.71 2.767 H 24.294167 a 1.843 1.843 0.0 0 0 1.71 -1.057 C 30.809168 54.223 27.897167 39.126 19.463167 30.115 z" class="cls-1"/><path d="M 31.196167 1.024 a 42.188 42.188 0.0 0 0 -2.463 41.65 L 39.472164 64.152 a 1.912 1.912 0.0 0 0 1.71 1.057 H 63.453167 a 1.912 1.912 0.0 0 0 1.71 -2.767 S 35.201164 2.511 34.448166 1.012 A 1.806 1.806 0.0 0 0 31.196167 1.024 z" class="cls-2"/></svg>