<svg xmlns="http://www.w3.org/2000/svg" xmlns:xlink="http://www.w3.org/1999/xlink" width="71.3" height="70.8" baseProfile="full" contentScriptType="text/ecmascript" contentStyleType="text/css" preserveAspectRatio="none meet" version="1.0" viewBox="-0.2 0 71.1 70.8" zoomAndPan="magnify"><defs><style>.cls-2{fill:#2684ff}.cls-3{fill:url(#linear-gradient)}</style><linearGradient id="linear-gradient" x1="28.56" x2="53.19" y1="70.6" y2="31.22" gradientUnits="userSpaceOnUse"><stop offset="0" stop-color="#0049b0"/><stop offset="1" stop-color="#2684ff"/></linearGradient></defs><title>Clover-icon-blue-white</title><path d="M52.48,17.69h.59a17.69,17.69,0,0,0-35.38,0,17.69,17.69,0,1,0,0,35.38h0a17.69,17.69,0,0,0,35.38,0A17.69,17.69,0,0,0,70.76,35C70.58,25.31,62.22,17.69,52.48,17.69Zm.6,20.6H46.9a8.6,8.6,0,0,0-8.6,8.6v6.18H32.48V46.89a8.6,8.6,0,0,0-8.6-8.6H17.7V32.47h6.18a8.6,8.6,0,0,0,8.6-8.6V17.69H38.3v6.18a8.6,8.6,0,0,0,8.6,8.6h6.18Z" class="cls-2"/><path d="M52.48,17.69H38.3v6.18a8.6,8.6,0,0,0,8.6,8.6h6.18v5.82H46.9a8.6,8.6,0,0,0-8.6,8.6v6.18H17.69a17.69,17.69,0,0,0,35.38,0A17.69,17.69,0,0,0,70.76,35C70.58,25.31,62.22,17.69,52.48,17.69Z" class="cls-3"/></svg>