<svg xmlns="http://www.w3.org/2000/svg" xmlns:xlink="http://www.w3.org/1999/xlink" width="70.9" height="59.2" baseProfile="full" contentScriptType="text/ecmascript" contentStyleType="text/css" preserveAspectRatio="none meet" version="1.0" viewBox="-0.1 2.6 70.8 61.8" zoomAndPan="magnify"><defs><style>.cls-2{fill:#2684ff}.cls-3{fill:url(#New_Gradient_Swatch_1)}</style><linearGradient id="New_Gradient_Swatch_1" x1=".07" x2="45.5" y1="33.68" y2="47.33" gradientUnits="userSpaceOnUse"><stop offset=".18" stop-color="#0052cc"/><stop offset="1" stop-color="#2684ff"/></linearGradient></defs><title>Fisheye-blue</title><path d="M33.12,2.71c-11.19,0-20,8-20,18,0,7.64,5.24,13.2,11.44,13.2A10.76,10.76,0,0,0,35.63,23.15a7.24,7.24,0,0,0-.29-2.06A39.06,39.06,0,0,1,48.5,32.31C45.05,38.46,39.65,45,31.62,45h0A12.68,12.68,0,0,1,19.24,34.17a2,2,0,0,0-2-1.72H2a2,2,0,0,0-2,2.16A31.39,31.39,0,0,0,31.5,64.22h0c19,0,30.26-13.66,38.85-31.31a2,2,0,0,0,0-1.77C67.88,26.2,54.2,2.71,33.12,2.71Z" class="cls-2"/><path d="M70.52,32.31h-22C45.05,38.46,39.65,45,31.62,45h0A12.68,12.68,0,0,1,19.24,34.17a2,2,0,0,0-2-1.72H2a2,2,0,0,0-2,2.16A31.39,31.39,0,0,0,31.5,64.22h0c19,0,30.26-13.66,38.85-31.31A2,2,0,0,0,70.52,32.31Z" class="cls-3"/></svg>