<svg xmlns="http://www.w3.org/2000/svg" xmlns:xlink="http://www.w3.org/1999/xlink" width="72.2" height="72.4" baseProfile="full" contentScriptType="text/ecmascript" contentStyleType="text/css" preserveAspectRatio="none meet" version="1.0" viewBox="-0.1 -0.2 72.1 72.2" zoomAndPan="magnify"><defs><style>.cls-2{fill:#2684ff}.cls-3{fill:url(#New_Gradient_Swatch_1)}.cls-4{fill:url(#New_Gradient_Swatch_1-2)}</style><linearGradient id="New_Gradient_Swatch_1" x1="53.96" x2="39.25" y1="17.29" y2="32.46" gradientUnits="userSpaceOnUse"><stop offset=".18" stop-color="#0052cc"/><stop offset="1" stop-color="#2684ff"/></linearGradient><linearGradient id="New_Gradient_Swatch_1-2" x1="37.83" x2="20.82" y1="34.62" y2="51.16" xlink:href="#New_Gradient_Swatch_1"/></defs><title>Jira-blue</title><path d="M68.81,0H34.23A15.61,15.61,0,0,0,49.84,15.61h6.37v6.15A15.61,15.61,0,0,0,71.81,37.36V3A3,3,0,0,0,68.81,0Z" class="cls-2"/><path d="M51.7,17.23H17.12A15.61,15.61,0,0,0,32.72,32.83h6.37V39A15.61,15.61,0,0,0,54.7,54.59V20.23A3,3,0,0,0,51.7,17.23Z" class="cls-3"/><path d="M34.58,34.45H0A15.61,15.61,0,0,0,15.61,50.06H22v6.15A15.61,15.61,0,0,0,37.58,71.81V37.45A3,3,0,0,0,34.58,34.45Z" class="cls-4"/></svg>