<svg xmlns="http://www.w3.org/2000/svg" xmlns:xlink="http://www.w3.org/1999/xlink" width="57.4" height="71.3" baseProfile="full" contentScriptType="text/ecmascript" contentStyleType="text/css" preserveAspectRatio="none meet" version="1.0" viewBox="-0.2 -0.2 57.2 72.1" zoomAndPan="magnify"><defs><style>.cls-2{fill:url(#linear-gradient)}.cls-3{fill:#2684ff}.cls-4{fill:url(#New_Gradient_Swatch_1)}</style><linearGradient id="linear-gradient" x1="28.44" x2="28.44" y1=".12" y2=".12" gradientUnits="userSpaceOnUse"><stop offset="0" stop-color="#0052cc"/><stop offset="1" stop-color="#2684ff"/></linearGradient><linearGradient id="New_Gradient_Swatch_1" x1="42.66" x2="42.66" y1="50.35" y2="20.14" gradientUnits="userSpaceOnUse"><stop offset=".18" stop-color="#0052cc"/><stop offset="1" stop-color="#2684ff"/></linearGradient></defs><title>Sourcetree-blue</title><polygon points="28.44 .12 28.44 .12 28.44 .12 28.44 .12" class="cls-2"/><path d="M56.88,28.44A28.44,28.44,0,0,0,28.44,0h0a28.43,28.43,0,0,0-8.79,55.48V69.73a2,2,0,0,0,2,2h13.5a2,2,0,0,0,2-2V55.49A28.45,28.45,0,0,0,56.88,28.44ZM28.44,38.05h0a9.61,9.61,0,1,1,0-19.23h0a9.61,9.61,0,0,1,0,19.23Z" class="cls-3"/><path d="M28.44,0V18.83h0a9.61,9.61,0,0,1,0,19.23h0a8.79,8.79,0,0,1,8.79,8.79v8.65A28.44,28.44,0,0,0,28.44,0Z" class="cls-4"/></svg>