<svg xmlns="http://www.w3.org/2000/svg" xmlns:xlink="http://www.w3.org/1999/xlink" width="68.5" height="47.9" baseProfile="full" contentScriptType="text/ecmascript" contentStyleType="text/css" preserveAspectRatio="none meet" version="1.0" viewBox="-0.1 7.3 68.4 55.2" zoomAndPan="magnify"><defs><style>.cls-2{fill:url(#New_Gradient_Swatch_1)}.cls-3{fill:#2684ff}</style><linearGradient id="New_Gradient_Swatch_1" x1="31.3" x2="1.32" y1="24.34" y2="46.28" gradientUnits="userSpaceOnUse"><stop offset=".18" stop-color="#0052cc"/><stop offset="1" stop-color="#2684ff"/></linearGradient></defs><title>Stride-blue</title><path d="M19.16,7.39v11c0,15.26-7.63,21.14-17.35,22.06a2,2,0,0,0-1.8,2c0,4.1,0,13.79,0,18a2,2,0,0,0,2.11,2c24.34-1.24,39-19,39-41.05h.07v-14Z" class="cls-2"/><path d="M68,59.5,42.23,7.39H19.16L46.38,60.75a3,3,0,0,0,2.67,1.64H66.23A2,2,0,0,0,68,59.5Z" class="cls-3"/></svg>