<svg xmlns="http://www.w3.org/2000/svg" xmlns:xlink="http://www.w3.org/1999/xlink" id="Layer_1" x="0" y="0" version="1.1" viewBox="0 0 59.8 59.5" xml:space="preserve" style="enable-background:new 0 0 59.8 59.5"><style type="text/css">.st0{fill:#89c540}.st1{fill:#fff}.st2{fill:none;stroke:#fff;stroke-width:.26;stroke-miterlimit:10}</style><title>INDIVIDUAL ICONS</title><ellipse cx="29.9" cy="29.8" class="st0" rx="29.9" ry="29.8"/><path d="M9.3,13.3v32.9h41.2V13.3H9.3z M47.7,43.5H12v-22h35.7V43.5z" class="st1"/><rect width="35.7" height="22" x="12.1" y="21.5" class="st2"/><line x1="12.1" x2="47.7" y1="39.8" y2="39.8" class="st2"/><line x1="12.1" x2="47.7" y1="36.2" y2="36.2" class="st2"/><line x1="12.1" x2="47.7" y1="32.5" y2="32.5" class="st2"/><line x1="12.1" x2="47.7" y1="28.8" y2="28.8" class="st2"/><line x1="12.1" x2="47.7" y1="25.2" y2="25.2" class="st2"/><line x1="41.8" x2="41.8" y1="21.5" y2="43.5" class="st2"/><line x1="35.8" x2="35.8" y1="21.5" y2="43.5" class="st2"/><line x1="29.9" x2="29.9" y1="21.5" y2="43.5" class="st2"/><line x1="23.9" x2="23.9" y1="21.5" y2="43.5" class="st2"/><line x1="18" x2="18" y1="21.5" y2="43.5" class="st2"/></svg>