<svg xmlns="http://www.w3.org/2000/svg" xmlns:xlink="http://www.w3.org/1999/xlink" id="Layer_1" x="0" y="0" version="1.1" viewBox="0 0 58.5 58.5" xml:space="preserve" style="enable-background:new 0 0 58.5 58.5"><style type="text/css">.st0{fill:#8dc63f}.st1{fill:#fff}</style><title>INDIVIDUAL ICONS</title><g id="Layer_2"><ellipse cx="29.3" cy="29.3" class="st0" rx="29.3" ry="29.3"/></g><path d="M42.2,16.1c-5.3-5.3-13.8-5.3-19.1,0c-3.4,3.4-4.8,8.4-3.5,13h-0.4c-3.7,0-6.8,3-6.8,6.8c0,1.9,0.7,3.7,2,5.1	l4.8,5.1v-3.4c3.2,0,5.9-2.2,6.6-5.3c2.1,1.3,4.5,1.9,6.9,1.9V46l9.6-10.2c2.6-2.7,4-6.4,4-10.1C46.2,22.1,44.7,18.6,42.2,16.1z M41.3,35l-7.6,8.1v-5h-1.1c-2.4,0-4.8-0.7-6.8-2c0-0.1,0-0.2,0-0.2c0-3.1-2.1-5.8-5.1-6.6c-0.3-1.2-0.5-2.4-0.5-3.6	c0-6.8,5.6-12.4,12.4-12.4c6.8,0,12.4,5.6,12.4,12.4C45,29.2,43.7,32.5,41.3,35z" class="st1"/><circle cx="32.6" cy="25.7" r="1.7" class="st1"/><circle cx="38.2" cy="25.7" r="1.7" class="st1"/><circle cx="27" cy="25.7" r="1.7" class="st1"/></svg>