<svg xmlns="http://www.w3.org/2000/svg" xmlns:xlink="http://www.w3.org/1999/xlink" id="Layer_1" x="0" y="0" version="1.1" viewBox="0 0 58.8 58.7" xml:space="preserve" style="enable-background:new 0 0 58.8 58.7"><style type="text/css">.st0{fill:#8dc63f}.st1{fill:#fff}</style><title>INDIVIDUAL ICONS</title><g id="Layer_2"><ellipse cx="29.4" cy="29.4" class="st0" rx="29.4" ry="29.4"/></g><polygon points="13.2 41.3 13.2 17 12 17 12 41.3 12 42.4 13.2 42.4 46.7 42.4 46.7 41.3" class="st1"/><rect width="8.1" height="9.3" x="15.5" y="29.7" class="st1"/><path d="M34,20.5h-8.1v18.5H34V20.5z M32.8,37.8h-5.8V21.6h5.8V37.8z" class="st1"/><rect width="8.1" height="1.2" x="36.3" y="26.2" class="st1"/><rect width="8.1" height="1.2" x="36.3" y="28.5" class="st1"/><rect width="8.1" height="1.2" x="36.3" y="30.9" class="st1"/><rect width="8.1" height="1.2" x="36.3" y="33.2" class="st1"/><rect width="8.1" height="1.2" x="36.3" y="35.5" class="st1"/><rect width="8.1" height="1.2" x="36.3" y="37.8" class="st1"/></svg>