<svg xmlns="http://www.w3.org/2000/svg" xmlns:xlink="http://www.w3.org/1999/xlink" id="Layer_1" x="0" y="0" version="1.1" viewBox="0 0 59.5 59.5" xml:space="preserve" style="enable-background:new 0 0 59.5 59.5"><style type="text/css">.st0{fill:#8cc441}.st1{fill:#fff}</style><title>INDIVIDUAL ICONS</title><circle cx="29.8" cy="29.8" r="29.8" class="st0"/><path d="M25.1,12.3c-7.1,0-12.8,5.7-12.8,12.8s5.7,12.8,12.8,12.8s12.8-5.7,12.8-12.8c0,0,0,0,0,0	C37.9,18.1,32.2,12.3,25.1,12.3z M25.1,36.7c-6.4,0-11.6-5.2-11.6-11.6c0-6.4,5.2-11.6,11.6-11.6c6.4,0,11.6,5.2,11.6,11.6	C36.7,31.5,31.5,36.7,25.1,36.7z" class="st1"/><rect width="4.9" height="11.5" x="38.9" y="35.6" class="st1" transform="matrix(0.7071 -0.7071 0.7071 0.7071 -17.1364 41.3757)"/><circle cx="35.6" cy="35.6" r="1.2" class="st1"/></svg>