<svg xmlns="http://www.w3.org/2000/svg" xmlns:xlink="http://www.w3.org/1999/xlink" id="Layer_1" x="0" y="0" version="1.1" viewBox="0 0 59.5 59.5" xml:space="preserve" style="enable-background:new 0 0 59.5 59.5"><style type="text/css">.st0{fill:#8cc441}.st1{fill:#fff}</style><title>INDIVIDUAL ICONS</title><circle cx="29.8" cy="29.8" r="29.8" class="st0"/><path d="M19.4,42.7C13.1,42.7,8,37.6,8,31.3C8,25.1,13.1,20,19.4,20c4.4,0,8.5,2.6,10.3,6.7l-1.2,0.5	c-2.3-5-8.2-7.2-13.3-4.9S8,30.5,10.3,35.5c1.6,3.5,5.1,5.8,9,5.8h0.2v1.3h-0.1C19.4,42.7,19.4,42.7,19.4,42.7z" class="st1"/><polygon points="31 22.4 30 22.1 28.8 26.7 24.4 25.2 24.1 26.1 29.5 27.9" class="st1"/><rect width="16.5" height="1.3" x="19.4" y="41.4" class="st1"/><path d="M40.8,21.7C40.4,15.6,35.1,11,29,11.4c-5.1,0.4-9.3,4.2-10.1,9.3l-1.3-0.3c1.1-6.7,7.4-11.3,14.1-10.2	c5.6,0.9,9.9,5.5,10.4,11.2L40.8,21.7z" class="st1"/><path d="M40.5,43.8c-5.5,0-10.2-3.9-11.2-9.3l1.3-0.2c1,5.5,6.3,9.1,11.7,8.1s9.1-6.3,8.1-11.7	c-0.9-4.7-4.9-8.1-9.7-8.3V21c6.3,0.2,11.2,5.5,10.9,11.8C51.5,38.9,46.5,43.7,40.5,43.8L40.5,43.8z" class="st1"/><polygon points="27.1 38.3 28 38.8 30.2 34.7 34.2 37.2 34.7 36.4 29.9 33.3" class="st1"/></svg>