<svg xmlns="http://www.w3.org/2000/svg" xmlns:svg="http://www.w3.org/2000/svg" xmlns:xlink="http://www.w3.org/1999/xlink" id="Layer_1" x="0" y="0" version="1.1" viewBox="0 0 82.075 84.463" xml:space="preserve" style="enable-background:new 0 0 82.075 84.463"><style type="text/css">.st0{fill:none;stroke:#626366;stroke-width:3;stroke-linecap:round;stroke-linejoin:round}.st1{fill:#898b8e}.st2{fill:#bbbdbf}.st3{fill:#b3b5b7}.st4{fill:#fefefe}.st5{fill:#c4cace}.st6{fill:none;stroke:#636466;stroke-width:1.3}.st7{fill:none;stroke:#e1e2e3;stroke-linecap:round;stroke-linejoin:round}.st8{fill:none;stroke:#636466;stroke-width:1.45}.st9{fill:none;stroke-linecap:round;stroke-linejoin:round}.st10,.st11,.st9{stroke:#636466;stroke-width:2}.st10{fill:#636466;stroke-linecap:round;stroke-linejoin:round}.st11{fill:none}.st12{fill:#636466}.st13{fill:#f5f6f6}.st14{fill:#626366}.st15{fill:#787a7d}</style><title id="title4">icon-IP-TV</title><desc id="desc6">Created with Sketch.</desc><polygon id="Stroke-1" points="75.644 35.017 80.54 32.417 80.575 80.363 75.677 82.963" class="st0"/><polygon id="Stroke-3" points="24.188 4.1 29.085 1.5 80.54 32.417 75.644 35.017" class="st0"/><polygon id="Stroke-5" points="75.644 35.017 75.677 82.963 24.223 52.045 24.189 4.1" class="st0"/><polygon id="Fill-8" points="75.643 35.017 80.54 32.417 80.574 80.363 75.676 82.963" class="st1"/><polygon id="Fill-9" points="24.188 4.1 29.084 1.5 80.54 32.417 75.643 35.017" class="st2"/><polygon id="Fill-10" points="75.643 35.017 75.676 82.963 24.222 52.045 24.188 4.1" class="st3"/><polygon id="Fill-11" points="70.985 69.122 28.917 43.845 28.917 13.621 70.985 38.898" class="st4"/><path id="Fill-12" d="M53.929,30.612l15.564,9.35l0.087,8.702c0,0-0.277-6.24-4.903-10.151	C58.77,33.521,53.929,30.612,53.929,30.612" class="st5"/><polygon id="Fill-14" points="64.392 70.68 53.863 64.353 53.863 62.802 64.392 69.128" class="st4"/><path id="Fill-16" d="M67.824,72.04c0,0.468-0.38,0.619-0.85,0.338c-0.466-0.281-0.849-0.892-0.849-1.359	c0-0.469,0.383-0.62,0.849-0.339C67.444,70.961,67.824,71.571,67.824,72.04" class="st4"/><path id="Fill-18" d="M70.338,73.55c0,0.468-0.381,0.619-0.85,0.338c-0.467-0.281-0.848-0.891-0.848-1.358	c0-0.469,0.381-0.621,0.848-0.34C69.957,72.472,70.338,73.081,70.338,73.55" class="st4"/><path id="Stroke-20" d="M24.788,53.037L75.671,83.61" class="st6"/><polyline id="Stroke-22" points="24.622 4.261 75.624 34.906 75.658 82.557" class="st7"/><path id="Stroke-24" d="M81.178,64.547v12.598" class="st8"/><path id="Stroke-85" d="M33.043,62.077l-14.169,7.521	c0.386-0.205,0.625-0.679,0.628-1.366l14.168-7.521C33.67,61.397,33.429,61.873,33.043,62.077z" class="st9"/><polygon id="Stroke-87" points="3.156 38.438 17.326 30.917 31.844 39.64 17.674 47.162" class="st9"/><polygon id="Stroke-89" points="19.502 50.572 33.673 43.05 33.684 60.555 19.516 68.076" class="st9"/><path id="Stroke-129" d="M17.5,47.144c1.099,0.658,1.985,2.258,1.987,3.583l0.015,17.505	c-0.003,1.318-0.888,1.858-1.985,1.198L3,60.707c-1.097-0.659-1.986-2.264-1.988-3.583L1,39.619	c-0.001-1.323,0.888-1.857,1.984-1.198L17.5,47.144z" class="st9"/><path id="Stroke-163" d="M17.5,47.144l14.171-7.522c1.097,0.659,1.982,2.261,1.987,3.585l-14.171,7.52	C19.485,49.402,18.599,47.802,17.5,47.144z" class="st10"/><path id="Fill-228" d="M1.796,38.269c4.725-2.507,9.447-5.015,14.17-7.521	c0.354-0.189,0.833-0.146,1.359,0.169L3.156,38.438C2.629,38.123,2.152,38.082,1.796,38.269" class="st11"/><polygon id="Fill-256" points="2.749 38.438 16.918 30.917 31.436 39.639 17.265 47.162" class="st3"/><polygon id="Fill-258" points="19.252 50.745 33.423 43.224 33.435 60.728 19.266 68.249" class="st1"/><path id="Fill-292" d="M18.68,67.896l-0.014-17.504c0-0.933-0.625-2.062-1.4-2.527L2.749,39.142	c-0.773-0.464-1.397-0.086-1.397,0.846l0.013,17.504c0,0.93,0.626,2.059,1.4,2.527l14.517,8.723	C18.055,69.205,18.68,68.826,18.68,67.896z M17.265,47.161c1.099,0.658,1.985,2.258,1.987,3.583l0.014,17.505	c-0.002,1.318-0.887,1.857-1.984,1.198L2.765,60.724c-1.097-0.66-1.986-2.265-1.988-3.583L0.765,39.636	c-0.001-1.323,0.888-1.857,1.984-1.198L17.265,47.161z" class="st12"/><path id="Fill-294" d="M17.266,47.866c0.775,0.464,1.4,1.594,1.4,2.527l0.014,17.504c0,0.929-0.625,1.309-1.398,0.846	L2.765,60.02c-0.774-0.468-1.4-1.597-1.4-2.527L1.352,39.989c0-0.933,0.624-1.311,1.397-0.847L17.266,47.866z" class="st13"/><polygon id="Fill-328" points="6.608 59.455 3.881 57.816 3.881 43.936 6.608 45.575" class="st14"/><path id="Fill-330" d="M10.638,53.128l1.268,0.761c1.251,0.752,1.7,0.513,1.7-0.411c0-1.052-0.53-1.751-2.006-2.638	l-0.962-0.578C10.638,50.262,10.638,53.128,10.638,53.128z M12.787,49.286c2.503,1.503,3.626,4.154,3.626,5.842	c0,1.741-1.09,3.082-3.609,1.568l-2.166-1.301v6.48l-2.727-1.638v-13.88L12.787,49.286z" class="st14"/><path id="Stroke-163-1" d="M17.265,47.161l14.171-7.522	c1.097,0.659,1.982,2.261,1.987,3.585l-14.171,7.52C19.25,49.419,18.364,47.819,17.265,47.161z" class="st2"/><path id="Fill-228-8" d="M1.389,38.269c4.725-2.507,9.447-5.015,14.17-7.521	c0.354-0.189,0.833-0.146,1.359,0.169L2.749,38.438C2.222,38.123,1.745,38.082,1.389,38.269" class="st2"/><path id="Stroke-85-0" d="M32.808,62.094l-14.169,7.521	c0.386-0.205,0.625-0.679,0.628-1.366l14.168-7.521C33.435,61.414,33.194,61.89,32.808,62.094z" class="st15"/></svg>