<svg xmlns="http://www.w3.org/2000/svg" xmlns:xlink="http://www.w3.org/1999/xlink" id="Layer_1" x="0" y="0" version="1.1" viewBox="0 0 103.97 103.382" xml:space="preserve" style="enable-background:new 0 0 103.97 103.382"><style type="text/css">.st0{fill:none;stroke:#626366;stroke-width:3;stroke-linejoin:round}.st1{fill:#898b8e}.st2{fill:#bbbdbf}.st3{fill:#b3b5b7}.st4{fill:none;stroke:#dfe0df;stroke-width:.75;stroke-linecap:round;stroke-linejoin:round}.st5{fill:#fefefe}.st6,.st7{fill:none;stroke:#e1e2e3;stroke-linecap:round;stroke-linejoin:round}.st7{stroke:#626366;stroke-width:2.668}.st8{fill:#c4cace}.st10,.st9{fill:none}.st9{stroke:#636466;stroke-width:1.156}.st10{stroke:#e1e2e3;stroke-width:.889;stroke-linecap:round;stroke-linejoin:round}.st11{filter:url(#Adobe_OpacityMaskFilter)}.st12{fill:#fff}.st13{mask:url(#mask-2_1_);fill:none;stroke:#636466;stroke-width:1.29}.st14{fill:none;stroke:#626366;stroke-width:3;stroke-linecap:round;stroke-linejoin:round}.st15{fill:#e1e2e3}.st16{fill:#231f20}.st17{fill:#626366}</style><title>icon-pc-server</title><desc>Created with Sketch.</desc><g id="Page-1"><g id="Desktop" transform="translate(-193.000000, -51.000000)"><g id="icon-pc-server" transform="translate(194.000000, 51.000000)"><polygon id="Stroke-1" points="16.801 38.037 49.084 20.901 49.109 55.86 16.825 72.996" class="st0"/><g id="Group-6" transform="translate(0.000000, 10.383000)"><polygon id="Stroke-2" points=".5 17.859 32.783 .723 49.084 10.518 16.801 27.654" class="st0"/><polygon id="Stroke-4" points="16.801 27.654 16.825 62.613 .524 52.818 .5 17.859" class="st0"/></g><polygon id="Fill-7" points="16.801 38.038 49.084 20.902 49.109 55.86 16.825 72.997" class="st1"/><polygon id="Fill-8" points=".5 28.243 32.783 11.106 49.084 20.901 16.801 38.037" class="st2"/><polygon id="Fill-9" points="16.801 38.038 16.825 72.997 .524 63.202 .5 28.244" class="st3"/><polyline id="Stroke-10" points="1.002 28.274 16.938 37.851 16.938 72.847" class="st4"/><polygon id="Fill-11" points="14.658 45.228 2.302 37.804 2.302 33.163 14.658 40.587" class="st5"/><polygon id="Fill-12" points="14.658 49.668 2.302 42.244 2.302 39.62 14.658 47.044" class="st5"/><polygon id="Fill-13" points="14.658 63.42 2.302 55.996 2.302 54.784 14.658 62.209" class="st5"/><polygon id="Fill-14" points="14.658 66.111 2.302 58.687 2.302 57.476 14.658 64.9" class="st5"/><polygon id="Fill-15" points="14.658 68.939 2.302 61.514 2.302 60.303 14.658 67.727" class="st5"/><polygon id="Stroke-16" points="77.718 82.545 89.427 76.33 89.43 79.627 77.72 85.844" class="st0"/><polygon id="Stroke-17" points="47.819 64.581 59.528 58.366 89.427 76.331 77.718 82.546" class="st0"/><polygon id="Stroke-18" points="77.718 82.545 77.72 85.844 47.821 67.877 47.819 64.58" class="st0"/><polygon id="Fill-19" points="77.718 82.545 89.427 76.33 89.43 79.627 77.72 85.844" class="st1"/><polygon id="Fill-20" points="47.819 64.581 59.528 58.366 89.427 76.331 77.718 82.546" class="st2"/><polygon id="Fill-21" points="77.718 82.545 77.72 85.844 47.821 67.877 47.819 64.58" class="st3"/><polyline id="Stroke-22" points="48.061 64.614 77.471 82.284 77.471 85.489" class="st6"/><g id="Group-29" transform="translate(41.000000, 0.383000)"><polygon id="Stroke-23" points="55.414 36.448 60.6 33.695 60.636 84.473 55.449 87.227" class="st7"/><polygon id="Stroke-25" points=".919 3.705 6.106 .951 60.6 33.695 55.414 36.448" class="st7"/><polygon id="Stroke-27" points="55.414 36.448 55.449 87.227 .955 54.483 .919 3.705" class="st7"/></g><polygon id="Fill-30" points="96.412 36.831 101.599 34.078 101.635 84.856 96.449 87.61" class="st1"/><polygon id="Fill-31" points="41.919 4.088 47.105 1.334 101.6 34.078 96.412 36.831" class="st2"/><polygon id="Fill-32" points="96.412 36.831 96.449 87.61 41.954 54.866 41.919 4.088" class="st3"/><polygon id="Fill-33" points="93.561 81.903 43.896 51.698 43.896 8.783 93.561 38.985" class="st5"/><g id="Group-361" transform="translate(28.000000, 3.383000)"><path id="Fill-34" d="M47.134,27.198L63.617,37.1l0.092,9.216c0,0-0.293-6.608-5.193-10.75 C52.26,30.28,47.134,27.198,47.134,27.198" class="st8"/><path id="Stroke-36" d="M14.554,52.532l53.89,32.379" class="st9"/><polyline id="Stroke-38" points="14.378 .875 68.393 33.33 68.43 83.795" class="st10"/><g id="Group-42" transform="translate(74.000000, 64.000000)"><defs><filter id="Adobe_OpacityMaskFilter" width="1.29" height="13.342" x="-.369" y=".723" filterUnits="userSpaceOnUse"><feColorMatrix type="matrix" values="1 0 0 0 0 0 1 0 0 0 0 0 1 0 0 0 0 0 1 0"/></filter></defs><mask id="mask-2_1_" width="1.29" height="13.342" x="-.369" y=".723" maskUnits="userSpaceOnUse"><g class="st11"><polygon id="path-1_1_" points=".276 .723 .97 .723 .97 14.065 .276 14.065" class="st12"/></g></mask><path id="Stroke-40" d="M0.276,0.723v13.342" class="st13"/></g><path id="Stroke-43" d="M48.926,90.78c0,0,1.375-0.734,2.5-0.766c1.125-0.031,2.516,0.641,2.516,0.641 s1.375,0.734,2.046,1.437c0.672,0.704,0.719,0.985,0.766,1.235s0.031,0.828-0.047,0.953c-0.078,0.125-7.75,4.094-7.75,4.094 s-0.453,0.203-1.187,0.093c-0.735-0.109-2-1-2.407-1.578c-0.406-0.578-0.375-1.468-0.375-1.468s0.016-1.047,1.391-2.61 C47.285,91.717,48.926,90.78,48.926,90.78z" class="st14"/><path id="Fill-45" d="M48.926,90.78c0,0,1.375-0.734,2.5-0.766c1.125-0.031,2.516,0.641,2.516,0.641 s1.377,0.734,2.046,1.437c0.672,0.704,0.719,0.985,0.766,1.235s0.031,0.828-0.047,0.953c-0.078,0.125-7.75,4.094-7.75,4.094 s-0.453,0.203-1.187,0.093c-0.735-0.109-2-1-2.407-1.578c-0.406-0.578-0.375-1.468-0.375-1.468s0.016-1.047,1.391-2.61 C47.285,91.717,48.926,90.78,48.926,90.78" class="st2"/><path id="Fill-47" d="M49.127,98.069c0.012-0.09,0.889-2.551,3.768-4.107c2.884-1.518,3.548,0.121,3.49-0.223 l-0.006,0.547c-2.078,1.109-5.115,2.728-7.191,3.836" class="st1"/><path id="Fill-49" d="M46.832,96.506c0.187-0.75,1.266-2.391,1.992-3.141c0.727-0.75,1.36-1.242,2.461-1.804 c1.102-0.563,2.438-0.985,3.094-0.657c0.656,0.329,1.57,1.149,1.945,1.641c0.375,0.492,0.281,1.008,0.281,1.008 s-1.382-0.469-2.203-0.188c-0.82,0.282-2.133,0.938-2.976,1.758c-0.844,0.821-1.172,1.899-1.758,2.578 c-0.586,0.68-1.711,0.774-1.711,0.774s-1.148-0.235-1.266-0.446C46.574,97.818,46.645,97.256,46.832,96.506" class="st3"/><path id="Fill-51" d="M48.738,93.864l-0.504-0.303c-0.918,0.996-1.445,1.975-1.699,2.524l0.506,0.302 C47.293,95.839,47.822,94.858,48.738,93.864" class="st15"/><polygon id="Stroke-53" points="30.77 91.095 42.479 84.88 42.481 88.177 30.772 94.394" class="st0"/><polygon id="Stroke-55" points=".87 73.131 12.579 66.914 42.478 84.88 30.769 91.095" class="st0"/><polygon id="Stroke-57" points="30.77 91.095 30.772 94.394 .873 76.428 .871 73.131" class="st0"/><polygon id="Fill-59" points="30.77 91.095 42.479 84.88 42.481 88.177 30.772 94.394" class="st1"/><polygon id="Fill-61" points=".87 73.131 12.579 66.914 42.478 84.88 30.769 91.095" class="st2"/><polygon id="Fill-63" points="30.77 91.095 30.772 94.394 .873 76.428 .871 73.131" class="st3"/><polygon id="Fill-65" points="8.027 72.784 9.486 72.011 9.486 72.292 8.027 73.067" class="st16"/><polygon id="Fill-67" points="6.771 72.028 8.228 71.255 9.486 72.01 8.027 72.784" class="st5"/><polygon id="Fill-69" points="8.027 72.784 8.027 73.067 6.771 72.311 6.771 72.028" class="st17"/><polygon id="Fill-71" points="9.888 73.901 11.345 73.128 11.345 73.411 9.888 74.184" class="st16"/><polygon id="Fill-73" points="8.63 73.147 10.089 72.372 11.345 73.127 9.888 73.901" class="st5"/><polygon id="Fill-75" points="9.888 73.901 9.888 74.184 8.63 73.428 8.63 73.147" class="st17"/><polygon id="Fill-77" points="11.841 75.075 13.298 74.302 13.298 74.585 11.841 75.358" class="st16"/><polygon id="Fill-79" points="10.583 74.319 12.042 73.546 13.298 74.301 11.841 75.075" class="st5"/><polygon id="Fill-81" points="11.841 75.075 11.841 75.358 10.583 74.602 10.583 74.319" class="st17"/><polygon id="Fill-83" points="13.708 76.198 15.165 75.423 15.165 75.706 13.708 76.479" class="st16"/><polygon id="Fill-85" points="12.45 75.442 13.909 74.669 15.165 75.422 13.708 76.198" class="st5"/><polygon id="Fill-87" points="13.708 76.198 13.708 76.479 12.45 75.725 12.45 75.442" class="st17"/><polygon id="Fill-89" points="15.636 77.356 17.093 76.581 17.093 76.864 15.636 77.637" class="st16"/><polygon id="Fill-91" points="14.378 76.6 15.837 75.827 17.093 76.58 15.636 77.356" class="st5"/><polygon id="Fill-93" points="15.636 77.356 15.636 77.637 14.378 76.883 14.378 76.6" class="st17"/><polygon id="Fill-95" points="17.503 78.477 18.96 77.704 18.96 77.985 17.503 78.76" class="st16"/><polygon id="Fill-97" points="16.24 77.717 17.697 76.944 18.961 77.703 17.503 78.477" class="st5"/><polygon id="Fill-99" points="17.503 78.477 17.503 78.76 16.239 78 16.239 77.717" class="st17"/><polygon id="Fill-101" points="19.456 79.651 20.913 78.878 20.913 79.159 19.456 79.932" class="st16"/><polygon id="Fill-103" points="18.198 78.895 19.658 78.122 20.913 78.877 19.457 79.651" class="st5"/><polygon id="Fill-105" points="19.456 79.651 19.456 79.932 18.198 79.178 18.198 78.895" class="st17"/><polygon id="Fill-107" points="21.316 80.768 22.775 79.995 22.775 80.278 21.316 81.051" class="st16"/><polygon id="Fill-109" points="20.06 80.014 21.517 79.239 22.775 79.994 21.316 80.768" class="st5"/><polygon id="Fill-111" points="21.316 80.768 21.316 81.051 20.06 80.295 20.06 80.014" class="st17"/><polygon id="Fill-113" points="23.146 81.869 24.605 81.095 24.605 81.378 23.146 82.15" class="st16"/><polygon id="Fill-115" points="21.89 81.114 23.347 80.339 24.605 81.094 23.146 81.869" class="st5"/><polygon id="Fill-117" points="23.146 81.869 23.146 82.15 21.89 81.395 21.89 81.114" class="st17"/><polygon id="Fill-119" points="25.007 82.986 26.464 82.213 26.464 82.494 25.007 83.269" class="st16"/><polygon id="Fill-121" points="23.749 82.23 25.208 81.458 26.464 82.212 25.007 82.986" class="st5"/><polygon id="Fill-123" points="25.007 82.986 25.007 83.269 23.749 82.513 23.749 82.23" class="st17"/><polygon id="Fill-125" points="26.96 84.16 28.417 83.385 28.417 83.668 26.96 84.441" class="st16"/><polygon id="Fill-127" points="25.702 83.404 27.161 82.631 28.417 83.384 26.96 84.16" class="st5"/><polygon id="Fill-129" points="26.96 84.16 26.96 84.441 25.702 83.687 25.702 83.404" class="st17"/><polygon id="Fill-131" points="28.826 85.281 30.285 84.508 30.285 84.791 28.826 85.564" class="st16"/><polygon id="Fill-133" points="27.57 84.525 29.028 83.752 30.286 84.507 28.827 85.281" class="st5"/><polygon id="Fill-135" points="28.826 85.281 28.826 85.564 27.569 84.808 27.569 84.525" class="st17"/><polygon id="Fill-137" points="30.754 86.439 32.213 85.666 32.213 85.949 30.754 86.722" class="st16"/><polygon id="Fill-139" points="29.498 85.685 30.955 84.91 32.213 85.665 30.754 86.439" class="st5"/><polygon id="Fill-141" points="30.754 86.439 30.754 86.722 29.498 85.966 29.498 85.685" class="st17"/><polygon id="Fill-143" points="32.578 87.535 34.035 86.762 34.037 87.045 32.578 87.818" class="st16"/><polygon id="Fill-145" points="31.32 86.781 32.779 86.006 34.035 86.761 32.578 87.535" class="st5"/><polygon id="Fill-147" points="32.578 87.535 32.578 87.818 31.322 87.062 31.32 86.781" class="st17"/><polygon id="Fill-149" points="10.027 71.659 11.486 70.886 11.486 71.167 10.027 71.942" class="st16"/><polygon id="Fill-151" points="8.771 70.903 10.228 70.13 11.486 70.885 10.027 71.659" class="st5"/><polygon id="Fill-153" points="10.027 71.659 10.027 71.942 8.771 71.186 8.771 70.903" class="st17"/><polygon id="Fill-155" points="11.888 72.776 13.345 72.003 13.345 72.286 11.888 73.059" class="st16"/><polygon id="Fill-157" points="10.63 72.022 12.089 71.247 13.345 72.002 11.888 72.776" class="st5"/><polygon id="Fill-159" points="11.888 72.776 11.888 73.059 10.63 72.303 10.63 72.022" class="st17"/><polygon id="Fill-161" points="13.841 73.95 15.298 73.177 15.298 73.46 13.841 74.233" class="st16"/><polygon id="Fill-163" points="12.583 73.194 14.042 72.421 15.298 73.176 13.841 73.95" class="st5"/><polygon id="Fill-165" points="13.841 73.95 13.841 74.233 12.583 73.477 12.583 73.194" class="st17"/><polygon id="Fill-167" points="15.708 75.073 17.165 74.298 17.165 74.581 15.708 75.354" class="st16"/><polygon id="Fill-169" points="14.45 74.317 15.909 73.544 17.165 74.297 15.708 75.073" class="st5"/><polygon id="Fill-171" points="15.708 75.073 15.708 75.354 14.45 74.6 14.45 74.317" class="st17"/><polygon id="Fill-173" points="17.636 76.231 19.093 75.456 19.093 75.739 17.636 76.512" class="st16"/><polygon id="Fill-175" points="16.378 75.475 17.837 74.702 19.093 75.455 17.636 76.231" class="st5"/><polygon id="Fill-177" points="17.636 76.231 17.636 76.512 16.378 75.758 16.378 75.475" class="st17"/><polygon id="Fill-179" points="19.503 77.352 20.96 76.579 20.96 76.86 19.503 77.635" class="st16"/><polygon id="Fill-181" points="18.24 76.592 19.697 75.819 20.961 76.578 19.503 77.352" class="st5"/><polygon id="Fill-183" points="19.503 77.352 19.503 77.635 18.239 76.875 18.239 76.592" class="st17"/><polygon id="Fill-185" points="21.456 78.526 22.913 77.753 22.913 78.034 21.456 78.807" class="st16"/><polygon id="Fill-187" points="20.198 77.77 21.658 76.997 22.913 77.752 21.457 78.526" class="st5"/><polygon id="Fill-189" points="21.456 78.526 21.456 78.807 20.198 78.053 20.198 77.77" class="st17"/><polygon id="Fill-191" points="23.316 79.643 24.775 78.87 24.775 79.153 23.316 79.926" class="st16"/><polygon id="Fill-193" points="22.06 78.889 23.517 78.114 24.775 78.869 23.316 79.643" class="st5"/><polygon id="Fill-195" points="23.316 79.643 23.316 79.926 22.06 79.17 22.06 78.889" class="st17"/><polygon id="Fill-197" points="25.146 80.743 26.605 79.97 26.605 80.253 25.146 81.026" class="st16"/><polygon id="Fill-199" points="23.89 79.989 25.347 79.214 26.605 79.969 25.146 80.743" class="st5"/><polygon id="Fill-201" points="25.146 80.743 25.146 81.026 23.89 80.27 23.89 79.989" class="st17"/><polygon id="Fill-203" points="27.007 81.861 28.464 81.087 28.464 81.37 27.007 82.144" class="st16"/><polygon id="Fill-205" points="25.749 81.106 27.208 80.333 28.464 81.086 27.007 81.861" class="st5"/><polygon id="Fill-207" points="27.007 81.861 27.007 82.144 25.749 81.389 25.749 81.106" class="st17"/><polygon id="Fill-209" points="28.959 83.035 30.418 82.26 30.418 82.543 28.959 83.316" class="st16"/><polygon id="Fill-211" points="27.702 82.279 29.16 81.507 30.418 82.259 28.959 83.035" class="st5"/><polygon id="Fill-213" points="28.959 83.035 28.959 83.316 27.702 82.562 27.702 82.279" class="st17"/><polygon id="Fill-215" points="30.826 84.156 32.285 83.383 32.285 83.666 30.826 84.439" class="st16"/><polygon id="Fill-217" points="29.57 83.4 31.028 82.627 32.285 83.382 30.826 84.156" class="st5"/><polygon id="Fill-219" points="30.826 84.156 30.826 84.439 29.57 83.683 29.57 83.4" class="st17"/><polygon id="Fill-221" points="32.754 85.314 34.213 84.541 34.213 84.824 32.754 85.597" class="st16"/><polygon id="Fill-223" points="31.498 84.56 32.955 83.785 34.213 84.54 32.754 85.314" class="st5"/><polygon id="Fill-225" points="32.754 85.314 32.754 85.597 31.498 84.841 31.498 84.56" class="st17"/><polygon id="Fill-227" points="34.578 86.41 36.035 85.637 36.037 85.92 34.578 86.693" class="st16"/><polygon id="Fill-229" points="33.32 85.656 34.779 84.881 36.035 85.636 34.578 86.41" class="st5"/><polygon id="Fill-231" points="34.578 86.41 34.578 86.693 33.322 85.937 33.32 85.656" class="st17"/><polygon id="Fill-233" points="12.152 70.534 13.611 69.761 13.611 70.042 12.152 70.817" class="st16"/><polygon id="Fill-235" points="10.896 69.778 12.353 69.005 13.611 69.76 12.152 70.534" class="st5"/><polygon id="Fill-237" points="12.152 70.534 12.152 70.817 10.896 70.061 10.896 69.778" class="st17"/><polygon id="Fill-239" points="14.013 71.651 15.47 70.878 15.47 71.161 14.013 71.934" class="st16"/><polygon id="Fill-241" points="12.755 70.897 14.214 70.122 15.47 70.877 14.013 71.651" class="st5"/><polygon id="Fill-243" points="14.013 71.651 14.013 71.934 12.755 71.178 12.755 70.897" class="st17"/><polygon id="Fill-245" points="15.966 72.825 17.423 72.052 17.423 72.335 15.966 73.108" class="st16"/><polygon id="Fill-247" points="14.708 72.069 16.167 71.296 17.423 72.051 15.966 72.825" class="st5"/><polygon id="Fill-249" points="15.966 72.825 15.966 73.108 14.708 72.352 14.708 72.069" class="st17"/><polygon id="Fill-251" points="17.833 73.948 19.29 73.173 19.29 73.456 17.833 74.229" class="st16"/><polygon id="Fill-253" points="16.575 73.192 18.034 72.419 19.29 73.172 17.833 73.948" class="st5"/><polygon id="Fill-255" points="17.833 73.948 17.833 74.229 16.575 73.475 16.575 73.192" class="st17"/><polygon id="Fill-257" points="19.761 75.106 21.218 74.331 21.218 74.614 19.761 75.387" class="st16"/><polygon id="Fill-259" points="18.503 74.35 19.962 73.577 21.218 74.33 19.761 75.106" class="st5"/><polygon id="Fill-261" points="19.761 75.106 19.761 75.387 18.503 74.633 18.503 74.35" class="st17"/><polygon id="Fill-263" points="21.628 76.227 23.085 75.454 23.085 75.735 21.628 76.51" class="st16"/><polygon id="Fill-265" points="20.365 75.467 21.822 74.694 23.086 75.453 21.628 76.227" class="st5"/><polygon id="Fill-267" points="21.628 76.227 21.628 76.51 20.364 75.75 20.364 75.467" class="st17"/><polygon id="Fill-269" points="23.581 77.401 25.038 76.628 25.038 76.909 23.581 77.682" class="st16"/><polygon id="Fill-271" points="22.323 76.645 23.783 75.872 25.038 76.627 23.582 77.401" class="st5"/><polygon id="Fill-273" points="23.581 77.401 23.581 77.682 22.323 76.928 22.323 76.645" class="st17"/><polygon id="Fill-275" points="25.441 78.518 26.9 77.745 26.9 78.028 25.441 78.801" class="st16"/><polygon id="Fill-277" points="24.185 77.764 25.642 76.989 26.9 77.744 25.441 78.518" class="st5"/><polygon id="Fill-279" points="25.441 78.518 25.441 78.801 24.185 78.045 24.185 77.764" class="st17"/><polygon id="Fill-281" points="27.271 79.618 28.729 78.845 28.729 79.128 27.271 79.901" class="st16"/><polygon id="Fill-283" points="26.015 78.864 27.472 78.089 28.729 78.844 27.271 79.618" class="st5"/><polygon id="Fill-285" points="27.271 79.618 27.271 79.901 26.015 79.145 26.015 78.864" class="st17"/><polygon id="Fill-287" points="29.131 80.737 30.59 79.962 30.59 80.245 29.131 81.018" class="st16"/><polygon id="Fill-289" points="27.874 79.981 29.332 79.208 30.59 79.961 29.131 80.737" class="st5"/><polygon id="Fill-291" points="29.131 80.737 29.131 81.018 27.874 80.264 27.874 79.981" class="st17"/><polygon id="Fill-293" points="31.084 81.91 32.543 81.136 32.543 81.419 31.084 82.191" class="st16"/><polygon id="Fill-295" points="29.828 81.155 31.285 80.382 32.543 81.135 31.084 81.91" class="st5"/><polygon id="Fill-297" points="31.084 81.91 31.084 82.191 29.828 81.436 29.828 81.155" class="st17"/><polygon id="Fill-299" points="32.951 83.031 34.41 82.258 34.41 82.541 32.951 83.314" class="st16"/><polygon id="Fill-301" points="31.695 82.275 33.153 81.503 34.41 82.257 32.951 83.031" class="st5"/><polygon id="Fill-303" points="32.951 83.031 32.951 83.314 31.695 82.558 31.695 82.275" class="st17"/><polygon id="Fill-305" points="34.879 84.189 36.338 83.416 36.338 83.699 34.879 84.472" class="st16"/><polygon id="Fill-307" points="33.623 83.435 35.08 82.66 36.338 83.415 34.879 84.189" class="st5"/><polygon id="Fill-309" points="34.879 84.189 34.879 84.472 33.623 83.716 33.623 83.435" class="st17"/><polygon id="Fill-311" points="36.703 85.285 38.16 84.512 38.162 84.795 36.703 85.568" class="st16"/><polygon id="Fill-313" points="35.445 84.531 36.904 83.756 38.16 84.511 36.703 85.285" class="st5"/><polygon id="Fill-315" points="36.703 85.285 36.703 85.568 35.447 84.812 35.445 84.531" class="st17"/><polygon id="Fill-317" points="6.636 74.461 8.093 73.686 8.093 73.961 6.636 74.734" class="st16"/><polygon id="Fill-319" points="5.378 73.705 6.835 72.932 8.093 73.685 6.636 74.461" class="st5"/><polygon id="Fill-321" points="6.636 74.461 6.636 74.734 5.378 73.979 5.378 73.705" class="st17"/><polygon id="Fill-323" points="8.404 75.524 9.863 74.749 9.863 75.024 8.404 75.797" class="st16"/><polygon id="Fill-325" points="7.148 74.768 8.605 73.995 9.863 74.748 8.404 75.524" class="st5"/><polygon id="Fill-327" points="8.404 75.524 8.404 75.797 7.147 75.044 7.147 74.768" class="st17"/><polygon id="Fill-329" points="10.265 76.641 11.722 75.868 11.722 76.141 10.265 76.916" class="st16"/><polygon id="Fill-331" points="9.007 75.885 10.466 75.112 11.722 75.867 10.265 76.641" class="st5"/><polygon id="Fill-333" points="10.265 76.641 10.265 76.916 9.007 76.161 9.007 75.885" class="st17"/><polygon id="Fill-335" points="25.823 85.96 27.281 85.187 27.281 85.46 25.823 86.235" class="st16"/><polygon id="Fill-337" points="24.566 85.204 26.023 84.431 27.281 85.186 25.824 85.96" class="st5"/><polygon id="Fill-339" points="25.823 85.96 25.823 86.235 24.566 85.48 24.566 85.204" class="st17"/><polygon id="Fill-341" points="27.591 87.023 29.049 86.25 29.049 86.523 27.591 87.298" class="st16"/><polygon id="Fill-343" points="26.335 86.267 27.792 85.494 29.049 86.249 27.591 87.023" class="st5"/><polygon id="Fill-345" points="27.591 87.023 27.591 87.298 26.335 86.543 26.335 86.267" class="st17"/><polygon id="Fill-347" points="29.451 88.14 30.91 87.367 30.91 87.642 29.451 88.415" class="st16"/><polygon id="Fill-349" points="28.195 87.386 29.653 86.611 30.911 87.366 29.452 88.14" class="st5"/><polygon id="Fill-351" points="29.451 88.14 29.451 88.415 28.194 87.66 28.194 87.386" class="st17"/><polygon id="Fill-353" points="23.837 84.806 25.294 84.033 25.294 84.308 23.837 85.081" class="st16"/><polygon id="Fill-355" points="10.943 77.059 12.4 76.286 25.295 84.033 23.838 84.806" class="st5"/><polygon id="Fill-357" points="23.837 84.806 23.837 85.081 10.942 77.334 10.942 77.059" class="st17"/><polyline id="Stroke-359" points="1.113 73.164 30.521 90.833 30.521 94.038" class="st6"/></g></g></g></g></svg>