<svg xmlns="http://www.w3.org/2000/svg" xmlns:xlink="http://www.w3.org/1999/xlink" id="Layer_1" x="0" y="0" version="1.1" viewBox="0 0 58 79.6" xml:space="preserve" style="enable-background:new 0 0 58 79.6"><style type="text/css">.st0{fill:none;stroke:#626366;stroke-width:3;stroke-linecap:round;stroke-linejoin:round}.st1{fill:#898b8e}.st2{fill:#bbbdbf}.st3{fill:#b3b5b7}.st4{fill:none;stroke:#dfe0df;stroke-width:.75;stroke-linecap:round;stroke-linejoin:round}.st5{fill:#fefefe}.st6{fill:#c4cace}.st7,.st8{fill:none;stroke:#636466;stroke-width:2;stroke-linecap:round}.st8{stroke-width:3}</style><title>icon-PDA</title><desc>Created with Sketch.</desc><g id="Page-1"><g id="Desktop" transform="translate(-1224.000000, -76.000000)"><g id="icon-PDA" transform="translate(1225.000000, 76.000000)"><g id="Group-7" transform="translate(15.000000, 0.603500)"><polygon id="Stroke-1" points="36.8 24.9 40.5 22.9 40.5 75.6 36.8 77.5" class="st0"/><polygon id="Stroke-3" points=".1 2.8 3.8 .9 40.5 22.9 36.8 24.9" class="st0"/><polygon id="Stroke-5" points="36.8 24.9 36.8 77.5 .2 55.5 .1 2.8" class="st0"/></g><polygon id="Fill-8" points="51.8 25.5 55.5 23.5 55.5 76.2 51.8 78.1" class="st1"/><polygon id="Fill-9" points="15.1 3.4 18.8 1.5 55.5 23.5 51.8 25.5" class="st2"/><polygon id="Fill-10" points="51.8 25.5 51.8 78.1 15.2 56.1 15.1 3.4" class="st3"/><polyline id="Stroke-11" points="15.4 3.6 52 25.6 52 77.8" class="st4"/><polygon id="Fill-12" points="48.4 69.5 18 52 17.9 9.1 48.4 26.8" class="st5"/><polygon id="Fill-13" points="41.1 69.8 28.6 62.2 28.6 60.4 41.1 67.9" class="st5"/><g id="Group-24" transform="translate(0.000000, 16.603500)"><path id="Fill-14" d="M45.2,54.8c0,0.6-0.5,0.7-1,0.4c-0.6-0.3-1-1.1-1-1.6c0-0.6,0.5-0.7,1-0.4 C44.8,53.5,45.2,54.2,45.2,54.8" class="st5"/><path id="Fill-16" d="M48.2,56.6c0,0.6-0.5,0.7-1,0.4c-0.6-0.3-1-1.1-1-1.6c0-0.6,0.5-0.7,1-0.4 C47.8,55.3,48.2,56,48.2,56.6" class="st5"/><path id="Fill-18" d="M28,0.8l18.5,11.1l0.1,10.4c0,0-0.3-7.4-5.8-12.1C33.8,4.3,28,0.8,28,0.8" class="st6"/><path id="Stroke-20" d="M0.6,1.8l24.1,13.9" class="st7"/><path id="Stroke-22" d="M0.5,1.8l9.3,5.9" class="st8"/></g></g></g></g></svg>