<svg xmlns="http://www.w3.org/2000/svg" xmlns:xlink="http://www.w3.org/1999/xlink" id="Layer_1" x="0" y="0" version="1.1" viewBox="0 0 59.7 59.7" xml:space="preserve" style="enable-background:new 0 0 59.7 59.7"><style type="text/css">.st0{fill:#a8226e}.st1{fill:#fff}.st2{fill:#2d3f4a}</style><title>INDIVIDUAL ICONS</title><circle cx="29.8" cy="29.8" r="29.8" class="st0"/><path d="M22.8,41.9v-8.2l-7.5-4l-7.5,4v8.3l7.5,4L22.8,41.9z M11.3,39.8v-4.1l4-2.1l4,2.1v4l-4,2.1L11.3,39.8L11.3,39.8	z" class="st1"/><path d="M51.9,26v-8.3l-7.5-4l-7.5,4V26l7.5,4L51.9,26z M40.4,19.9l4-2.1l4,2.1v4.1l-4,2.1l-4-2.1V19.9z" class="st1"/><polygon points="40.4 24 40.4 35.6 29.8 41.4 19.3 35.6 19.3 24 29.8 18.3" class="st1"/><polygon points="29.4 29.2 21 25.4 21 34.6 29.4 39.2" class="st2"/><polygon points="29.8 28.5 38 24.7 29.8 20.2 21.6 24.7" class="st2"/><polygon points="38.6 34.6 38.6 25.4 30.3 29.2 30.3 39.1 38.6 34.6" class="st2"/><polygon points="21 25.4 29.4 29.2 29.4 39.2 21 34.6" class="st0"/><polygon points="30.3 29.2 38.6 25.4 38.6 34.6 30.3 39.2" class="st0"/><polygon points="21.6 24.7 29.8 20.3 38 24.7 29.8 28.5" class="st0"/></svg>