<svg xmlns="http://www.w3.org/2000/svg" xmlns:xlink="http://www.w3.org/1999/xlink" id="Layer_1" x="0" y="0" version="1.1" viewBox="0 0 71.7 66.4" xml:space="preserve" style="enable-background:new 0 0 71.7 66.4"><style type="text/css">.st0{fill:#e8bd1f}.st1{fill:#fff}.st2{fill:#fcd5c3}.st3{fill:#f16922}.st4{fill:#f27236}.st5{fill:#f26f2f}.st6{fill:#fefdfd}.st7{fill:#f26d2e}.st8{fill:#f37438}.st9{fill:#f16522}.st10{fill:#f16322}.st11{fill:#f26c2c}.st12{fill:#f16422}.st13{fill:#fbd0bd}.st14{fill:#fbd2bf}.st15{fill:#fbd1be}.st16{fill:#f37338}.st17{fill:#fcd9ca}.st18{fill:#f26f30}.st19{fill:#f16222}.st20{fill:#f16923}.st21{fill:#f3753b}.st22{fill:#f27235}</style><title>INDIVIDUAL ICONS 3</title><circle cx="32.5" cy="33.9" r="32.5" class="st0"/><path d="M40.6,22.2h-2.8c0,2-0.4,4-1.2,5.8l-8.8-4.2c0.9-3-0.8-6.1-3.8-6.9c-1.5-0.4-3.1-0.2-4.4,0.5l-2.1-2.1l-2,2	l2.1,2.1c-1.6,2.7-0.7,6.1,2,7.6c1.3,0.8,2.9,1,4.4,0.5l12.1,25l1.3-0.6l-6.6-13.7c3.3-1.7,6.1-4.5,7.8-7.8l13.7,6.6l0.6-1.3	l-13.7-6.6C40.1,27,40.6,24.6,40.6,22.2z M21.5,21.2c0.6-0.5,1.4-0.5,2,0c0.5,0.6,0.5,1.4,0,2c-0.5,0.5-1.4,0.5-1.9,0	C20.9,22.6,20.9,21.7,21.5,21.2C21.5,21.2,21.5,21.2,21.5,21.2L21.5,21.2z M29.6,35.8L25.3,27c0.8-0.5,1.5-1.1,1.9-1.9l8.8,4.3	C34.6,32,32.4,34.3,29.6,35.8z" class="st1"/><path d="M40.6,14.6c-0.2-0.2-0.6-0.1-0.7-0.5c0.2-0.1,0.4-0.2,0.6-0.1c1.1,0.2,2.2,0.2,3.3,0.2h21.4	c1.8,0.1,3.6,0,5.4-0.2c0.3,0.1,0.3,0.2,0.1,0.4s-0.4,0.1-0.6,0.2H40.6z" class="st2"/><path d="M71.5,13.2c-0.1,0.4-0.5,0.6-0.8,0.9c-0.9,0.2-1.8,0.3-2.7,0.3H42.5c-0.9,0-1.8,0-2.6-0.3	c-0.1-0.2-0.4-0.3-0.5-0.6S39.1,13,39,12.8l0,0c-0.1-0.4-0.1-0.8-0.1-1.3c0-2.9,0-5.8,0-8.6c0-0.4,0-0.8,0.2-1.2l0,0	c0.3-0.5,0.7-1,1.2-1.3c0,0,0.1,0,0.1,0c0.4-0.1,0.9-0.1,1.3-0.1H69c0.5,0,0.9,0,1.3,0.1c0.3,0,0.5,0.2,0.7,0.3	c0.2,0.3,0.6,0.6,0.6,1c0,0.1,0,0.3,0,0.4c0,3.3,0,6.6,0,9.9c0,0.3,0,0.5,0,0.8C71.6,12.9,71.6,13.1,71.5,13.2z" class="st3"/><path d="M70.3,0.3H52H40.3C40.6,0.1,41,0,41.4,0h27.7C69.6,0,70,0.1,70.3,0.3z" class="st4"/><path d="M39,1.6c0,3.7,0,7.4,0,11.1c-0.2-0.3-0.3-0.7-0.3-1.1c0-2.9,0-5.9,0-8.8C38.7,2.4,38.8,2,39,1.6z" class="st5"/><path d="M40.2,0.3L39,1.6C39.1,1,39.6,0.5,40.2,0.3z" class="st5"/><path d="M39,12.8c0.3,0.1,0.5,0.4,0.5,0.8C39.2,13.4,39,13.1,39,12.8z" class="st5"/><path d="M56.1,3.3c3.3,1,3.2,5.8,1.3,7.3c-0.3,0.2-0.5,0.4-0.8,0.5c-0.7,0.4-1.5,0.6-2.3,0.6c-0.8,0.1-1.7,0-2.5,0	c-0.4,0.1-0.8-0.2-0.8-0.6c0-0.1,0-0.1,0-0.2c0-2.4,0-4.8,0-7.2c0-0.4,0.2-0.8,0.6-0.8C53.1,2.7,54.7,2.8,56.1,3.3z" class="st6"/><path d="M63.4,8.6c-0.4-0.4-0.5,0.1-0.8,0.3c-0.2,0.6-0.2,1.3-0.1,1.9c0,0.9-0.1,1-1.1,1s-1.1-0.1-1.1-1	c0-2.3,0-4.6,0-6.8c0-0.4,0-0.9,0.4-0.9c0.5-0.2,1.1-0.1,1.5,0.1c0.2,0.1,0.2,0.4,0.2,0.6c0,0.6,0,1.1,0,1.7c0,0.2-0.1,0.4,0.2,0.5	s0.3-0.1,0.4-0.2s0.2-0.3,0.4-0.4c0.5-0.4,0.9-0.8,1.3-1.3c0.5-0.8,1.4-1.2,2.3-1c0.2,0,0.5-0.1,0.6,0.1s-0.1,0.4-0.3,0.6	c-0.8,0.9-1.6,1.7-2.4,2.6c-0.6,0.4-0.3,0.8,0,1.2c0.3,0.3,0.6,0.6,0.7,1c0.4,0.6,0.8,1.1,1.2,1.7c0.2,0.1,0.3,0.3,0.3,0.4	c0,0.1,0.1,0.2,0.2,0.3c0.3,0.4,0.2,0.5-0.3,0.5c-0.9,0.2-1.9-0.3-2.3-1.1l-0.7-0.8C63.8,9.2,63.6,8.9,63.4,8.6z" class="st6"/><path d="M47.1,8.4C46.4,8.2,45.7,8,45,7.8c-1.2-0.2-2-1.3-1.8-2.5c0-1.2,0.9-2.1,2-2.3c1.3-0.3,2.6,0,3.8,0.7	c0.5,0.3,0.3,0.6,0,0.9s-0.3,1-1,0.6c-0.6-0.4-1.2-0.6-1.9-0.5c-0.4,0-0.8,0.2-0.9,0.6c-0.1,0.5,0.2,0.8,0.6,0.9	c0.6,0.2,1.3,0.4,1.9,0.6c1,0.2,1.7,1,1.9,2c0.1,0,0.1,0,0.1,0.1c0,0.1,0,0-0.1,0v0.7c0,0.5-0.2,1.1-0.6,1.5	c-1.4,1.1-3.3,1.2-4.8,0.2l-0.4-0.3c-0.9-0.6-0.9-0.6-0.3-1.4c0.4-0.5,0.7-0.6,1.1-0.1c0.6,0.5,1.3,0.7,2,0.7c0.4,0,0.8-0.1,0.9-0.6	C47.6,9,47.5,8.6,47.1,8.4z" class="st6"/><path d="M56.1,3.3C54.7,3,53.2,2.9,51.7,3c-0.5,0-0.6,0.2-0.6,0.6c0,2.4,0,4.9,0,7.3c0,0.3,0,0.6,0.5,0.6	c1.7,0,3.4,0.2,5-0.5c-0.6,0.5-1.4,0.8-2.3,0.7c-0.9,0.1-1.9,0-2.8,0c-0.2,0-0.5-0.1-0.6-0.3c-0.1-0.4-0.1-0.8-0.1-1.2	c0-2.2,0-4.3,0-6.5c0-0.2,0-0.5,0.1-0.7c0.2-0.3,0.6-0.5,1-0.5c1.3-0.1,2.6,0,3.9,0.3C56,3,56.1,3.1,56.1,3.3z" class="st7"/><path d="M63.4,5.3c-0.3,0.5-0.6,0.9-1.1,1.2c0-1-0.1-1.8,0-2.7S61.9,3,61.3,3s-0.9,0.1-0.9,0.8c0,2.3,0,4.7,0,7	c0,0.6,0.2,0.8,0.8,0.7s1.1,0.2,1.1-0.7c0-0.4,0-0.9,0-1.3c0-0.3,0-0.6,0.3-0.7c0,0.6,0,1.3,0,1.9c0,0.4-0.1,0.7-0.3,1	c-0.6,0.1-1.2,0.1-1.8,0l-0.3-0.1C60.1,11.4,60,11.2,60,11c0-2.4,0-4.9,0-7.3c0-0.2,0-0.5,0.2-0.6c0.6-0.2,1.3-0.2,1.9-0.1	c0.4,0,0.5,0.4,0.5,0.8c0,0.7,0,1.4,0,2.1C63,5.7,63.1,5.3,63.4,5.3z" class="st8"/><path d="M60.2,3c0,2.9,0,5.7,0,8.6c-0.4,0-0.3-0.4-0.3-0.6c0-2.4,0-4.9,0-7.3C59.9,3.4,59.9,3.1,60.2,3z" class="st9"/><path d="M71.5,1.8c0.2,0.2,0.2,0.4,0.2,0.6c0,3.2,0,6.5,0,9.7c0,0.2,0.1,0.5-0.2,0.6C71.5,9.1,71.5,5.4,71.5,1.8z" class="st10"/><path d="M44.1,11.1c0.9,0.4,1.8,0.6,2.8,0.5c0.7-0.1,1.4-0.3,2-0.8c0-0.1,0.1-0.1,0.2,0c0,0,0,0,0,0	C47.8,12.3,45,12.1,44.1,11.1z" class="st11"/><path d="M50.9,3.1c0,2.8,0,5.6,0,8.4c-0.1-0.1-0.2-0.2-0.2-0.4c0-2.6,0-5.3,0-7.9c0,0,0-0.1,0-0.1	C50.7,3.2,50.8,3.1,50.9,3.1z" class="st12"/><path d="M47.1,8.4c0.3,0,0.6,0.3,0.6,0.6c0,0,0,0.1,0,0.1c0,0.4-0.3,0.8-0.7,0.9c-0.9,0.2-1.9,0-2.5-0.7	c0.5,0.3,1.1,0.5,1.7,0.6c0.4,0,0.9,0,1.1-0.4S47.4,8.8,47.1,8.4z" class="st13"/><path d="M64.9,10.4c0.2,0,0.3,0.2,0.4,0.3c0.4,0.6,1.2,0.9,1.9,0.7c0.6-0.2-0.2-0.5,0-0.8c0.1,0.2,0.3,0.3,0.4,0.5	c0.1,0.2,0.2,0.4-0.1,0.5C66.5,12,65.3,11.5,64.9,10.4C64.9,10.4,64.9,10.4,64.9,10.4z" class="st14"/><path d="M66.9,10.2c-0.5-0.4-1-1-1.2-1.7C66.2,9,66.6,9.6,66.9,10.2z" class="st15"/><path d="M49.1,10.8h-0.2c0.3-0.4,0.5-0.9,0.6-1.4C49.6,9.9,49.4,10.5,49.1,10.8z" class="st16"/><path d="M64.9,7.5c-0.7-0.6-0.7-0.7,0-1.2C64.5,6.7,64.8,7.1,64.9,7.5z" class="st17"/><path d="M60.5,11.8h1.8C61.7,12,61.1,12,60.5,11.8z" class="st18"/><path d="M63.4,8.6c0.3,0.3,0.6,0.6,0.8,1C63.7,9.4,63.4,9,63.4,8.6z" class="st18"/><path d="M49.5,8.8c0,0,0-0.1,0-0.1c0-0.2,0-0.4,0.2-0.6C49.9,8.3,49.8,8.6,49.5,8.8z" class="st19"/><path d="M59,6.4c-0.1-0.2-0.1-0.4,0-0.5C59.1,6,59,6.1,59,6.4z" class="st19"/><path d="M55.5,4.9c0.3,0.1,0.6,0.3,0.8,0.6c0.5,0.9,0.6,2,0.3,3c-0.2,0.3-0.3,0.8-0.8,0.9c-0.3,0.1-0.7,0.2-1.1,0.2	c-0.6-0.1-1.1,0.1-1.7-0.1c-0.1-1.4,0-2.9-0.1-4.3c0-0.4,0.2-0.5,0.6-0.5C54.3,4.7,54.9,4.8,55.5,4.9z" class="st20"/><path d="M55.5,4.9h-1.9c-0.3,0-0.5,0-0.5,0.4c0,1.4,0,2.8,0,4.2c0,2.1,0.1,0.1,0.1,0.1c0.1,0,0.1,0,0.2,0	c0.3,0.1,0.6,0.1,0.9,0c0.1,0,0.3,0,0.4,0.1c0.3-0.1,0.7-0.2,1.1-0.1c-0.8,0.4-1.7,0.6-2.5,0.4c-0.3,0-0.3-0.3-0.3-0.5	c0-1.4,0-2.8,0-4.1c0-0.4,0.2-0.6,0.6-0.6C54.2,4.6,54.9,4.7,55.5,4.9z" class="st21"/><path d="M56.6,8.5c0.1-1,0-2-0.3-3C57,6.4,57.1,7.6,56.6,8.5z" class="st22"/><path d="M53.4,9.6h-0.1c0.5-0.2,1-0.2,1.5,0h-0.4C54,9.7,53.7,9.7,53.4,9.6z" class="st10"/><path d="M53.4,9.6h0.9C54.1,9.8,53.7,9.8,53.4,9.6z" class="st20"/></svg>