<svg xmlns="http://www.w3.org/2000/svg" xmlns:xlink="http://www.w3.org/1999/xlink" id="Layer_1" x="0" y="0" version="1.1" viewBox="0 0 65.4 65.4" xml:space="preserve" style="enable-background:new 0 0 65.4 65.4"><style type="text/css">.st0,.st1{fill:none;stroke:#4277ba;stroke-width:4;stroke-miterlimit:10}.st1{stroke-width:5}</style><title>INDIVIDUAL ICONS 3</title><polygon points="13 41.2 16.7 38.5 10.7 35.6 17.8 34.2 12.8 30.5 20.4 30 18.8 25.3 26.2 28.4 28.5 23.3 31.5 26.2 37.6 21.3 37.3 27.6 43.5 24.8 40.7 28.6 50.1 28.7 41.9 31.8 44 33.9 40.8 35 45.2 38.7 37.5 37.3 38 40.5 33.1 39.1 32 42.3 28.8 40.7 26.5 43.3 24.4 41.5 19.7 45.3 19.5 41.6" class="st0"/><circle cx="32.7" cy="32.7" r="30.2" class="st1"/></svg>