<svg xmlns="http://www.w3.org/2000/svg" xmlns:xlink="http://www.w3.org/1999/xlink" id="Layer_1" x="0" y="0" version="1.1" viewBox="0 0 49.359 94.707" xml:space="preserve" style="enable-background:new 0 0 49.359 94.707"><style type="text/css">.st0{fill:none;stroke:#626366;stroke-width:2.835;stroke-linejoin:round}.st1{fill:#231f20}.st2{fill:#bbbdbf}.st3{fill:#b3b5b7}.st4{fill:#fefefe}.st5,.st6{fill:none;stroke:#626366;stroke-width:2.126;stroke-linejoin:round}.st6{stroke-linecap:round}.st7{fill:#b8bdc1}.st8{fill:#939ba0}.st9{fill:#e1e2e3}.st10{fill:#898b8e}.st11,.st12{fill:none;stroke:#e1e2e3;stroke-width:.511;stroke-linecap:round;stroke-linejoin:round}.st12{stroke-width:.85}</style><title>icon-IC100-1000-poe</title><desc>Created with Sketch.</desc><g id="Page-1"><g id="Desktop" transform="translate(-1684.000000, -862.000000)"><g id="icon-IC100-1000-poe" transform="translate(1685.000000, 862.000000)"><g id="Group-7" transform="translate(0.000000, 0.706700)"><polygon id="Stroke-1" points="10.448 26.085 46.895 6.737 46.942 73.236 10.495 92.583" class="st0"/><polygon id="Stroke-3" points=".418 20.058 36.863 .711 46.896 6.738 10.448 26.085" class="st0"/><polygon id="Stroke-5" points="10.448 26.085 10.495 92.583 .465 86.557 .418 20.058" class="st0"/></g><polygon id="Fill-8" points="10.448 26.792 46.895 7.444 46.942 73.943 10.495 93.29" class="st1"/><polygon id="Fill-9" points=".418 20.764 36.863 1.418 46.896 7.444 10.448 26.792" class="st2"/><polygon id="Fill-10" points="10.448 26.792 10.495 93.29 .465 87.264 .418 20.765" class="st3"/><polygon id="Fill-11" points="7.508 80.593 3.403 78.101 3.403 72.259 7.508 74.751" class="st4"/><polygon id="Fill-12" points="7.51 40.934 3.403 38.443 3.403 32.6 7.51 35.092" class="st4"/><polygon id="Fill-13" points="7.51 48.35 3.403 45.859 3.403 40.014 7.51 42.508" class="st4"/><polygon id="Fill-14" points="7.51 62.741 3.403 60.248 3.403 54.406 7.51 56.898" class="st4"/><g id="Group-21" transform="translate(25.000000, 3.706700)"><g id="Group-17"><path id="Stroke-15" d="M7.044,4.389L0.62,0.583c0,0,0.005-0.002,0.008-0.004l6.425,3.805 C7.05,4.386,7.048,4.388,7.048,4.388" class="st5"/></g><g id="Group-20"><path id="Stroke-18" d="M7.053,4.384L0.628,0.579c0.127-0.064,0.244-0.065,0.33-0.013L7.383,4.37 C7.296,4.319,7.179,4.32,7.053,4.384" class="st5"/></g></g><path id="Stroke-22" d="M25.958,4.272l6.425,3.805c-0.089-0.053-0.208-0.051-0.339,0.018L25.622,4.29 C25.75,4.221,25.871,4.219,25.958,4.272z" class="st5"/><g id="Group-26" transform="translate(18.000000, 13.706700)"><path id="Stroke-24" d="M6.093,3.581L0.531,0.287C0.46,0.244,0.412,0.159,0.405,0.042l5.562,3.295 C5.974,3.454,6.022,3.538,6.093,3.581" class="st5"/></g><path id="Stroke-27" d="M24.094,17.288l-5.562-3.294c-0.072-0.043-0.12-0.128-0.126-0.245l5.562,3.295 C23.975,17.161,24.023,17.245,24.094,17.288z" class="st5"/><polygon id="Stroke-29" points="24.017 17.086 17.591 13.281 17.358 9.181 23.784 12.985" class="st5"/><polygon id="Stroke-30" points="24.207 12.241 17.781 8.436 25.589 4.284 32.014 8.09" class="st5"/><g id="Group-37" transform="translate(17.000000, 7.706700)"><g id="Group-33"><path id="Stroke-31" d="M6.783,5.278L0.359,1.473C0.358,1.46,0.358,1.446,0.358,1.432l6.425,3.805 C6.781,5.251,6.782,5.264,6.783,5.278" class="st5"/></g><g id="Group-36"><path id="Stroke-34" d="M6.782,5.237L0.358,1.432c0.004-0.269,0.188-0.578,0.424-0.703l6.425,3.805 C6.969,4.659,6.785,4.967,6.782,5.237" class="st5"/></g></g><g id="Group-44" transform="translate(17.000000, 7.706700)"><path id="Stroke-38" d="M6.783,5.278L0.359,1.473C0.344,1.194,0.533,0.861,0.781,0.729l6.425,3.805 C6.957,4.666,6.767,4.999,6.783,5.278z" class="st5"/><path id="Stroke-40" d="M15.014,0.383c0.251-0.134,0.467-0.017,0.483,0.262l0.234,4.101 c0.015,0.279-0.174,0.613-0.426,0.746L7.497,9.644c-0.248,0.131-0.464,0.013-0.48-0.265l-0.234-4.1 c-0.016-0.28,0.173-0.613,0.422-0.745L15.014,0.383z" class="st5"/><path id="Stroke-42" d="M6.97,4.69L7.217,9.4" class="st6"/></g><g id="Group-47" transform="translate(17.000000, 12.706700)"><path id="Stroke-45" d="M6.309,4.13L0.748,0.836c-0.072-0.043-0.12-0.128-0.126-0.245l5.562,3.295 C6.189,4.003,6.238,4.087,6.309,4.13" class="st5"/></g><path id="Stroke-48" d="M23.309,16.837l-5.562-3.294c-0.072-0.043-0.12-0.128-0.126-0.245l5.562,3.295 C23.19,16.71,23.239,16.794,23.309,16.837z" class="st5"/><g id="Group-56" transform="translate(25.000000, 3.706700)"><g id="Group-52"><path id="Fill-50" d="M7.044,4.389L0.62,0.583c0,0,0.005-0.002,0.008-0.004l6.425,3.805 C7.05,4.386,7.048,4.388,7.048,4.388" class="st7"/></g><g id="Group-55"><path id="Fill-53" d="M7.053,4.384L0.628,0.579c0.127-0.064,0.244-0.065,0.33-0.013L7.383,4.37 C7.296,4.319,7.179,4.32,7.053,4.384" class="st8"/></g></g><g id="Group-59" transform="translate(18.000000, 13.706700)"><path id="Fill-57" d="M6.093,3.581L0.531,0.287C0.46,0.244,0.412,0.159,0.405,0.042l5.562,3.295 C5.974,3.454,6.022,3.538,6.093,3.581" class="st8"/></g><g id="Group-64" transform="translate(17.000000, 3.706700)"><polygon id="Fill-60" points="7.017 13.379 .592 9.574 .359 5.474 6.783 9.278" class="st3"/><polygon id="Fill-62" points="7.206 8.534 .781 4.729 8.589 .577 15.015 4.383" class="st2"/></g><g id="Group-71" transform="translate(17.000000, 7.706700)"><g id="Group-67"><path id="Fill-65" d="M6.783,5.278L0.359,1.473C0.358,1.46,0.358,1.446,0.358,1.432l6.425,3.805 C6.781,5.251,6.782,5.264,6.783,5.278" class="st8"/></g><g id="Group-70"><path id="Fill-68" d="M6.782,5.237L0.358,1.432c0.004-0.269,0.188-0.578,0.424-0.703l6.425,3.805 C6.969,4.659,6.785,4.967,6.782,5.237" class="st9"/></g></g><g id="Group-76" transform="translate(23.000000, 7.706700)"><path id="Fill-72" d="M9.014,0.383c0.251-0.134,0.467-0.017,0.483,0.262l0.234,4.101 c0.015,0.279-0.174,0.613-0.426,0.746L1.498,9.644C1.25,9.775,1.034,9.657,1.018,9.379l-0.234-4.1 c-0.016-0.28,0.173-0.613,0.422-0.745L9.014,0.383z" class="st10"/><path id="Stroke-74" d="M0.97,4.69L1.218,9.4" class="st11"/></g><g id="Group-79" transform="translate(17.000000, 12.706700)"><path id="Fill-77" d="M6.309,4.13L0.748,0.836c-0.072-0.043-0.12-0.128-0.126-0.245l5.562,3.295 C6.189,4.003,6.238,4.087,6.309,4.13" class="st8"/></g><g id="Group-90" transform="translate(0.000000, 20.706700)"><polyline id="Stroke-80" points=".418 .058 10.448 6.085 10.495 72.583" class="st12"/><polygon id="Fill-82" points="35.31 3.825 27.962 17.635 36.444 16.713 30.715 25.713 36.597 25.072 26.45 41.021 30.931 28.281 23.545 29.083 28.344 21.54 19.917 22.457 34.743 4.561" class="st4"/><path id="Fill-84" d="M23.188,56.1l1.28-0.69c0.841-0.456,1.384-1.215,1.384-2.031c0-0.599-0.311-1.079-1.339-0.524 l-1.325,0.715V56.1z M24.514,51.798c1.72-0.927,2.504-0.295,2.504,1c0,1.283-0.83,2.74-2.653,3.723l-1.176,0.635v3.538 l-1.131,0.61v-8.18L24.514,51.798z" class="st4"/><path id="Fill-86" d="M28.311,55.184c0,1.139,0.68,1.528,1.672,0.992c1.084-0.585,1.765-1.672,1.765-2.835 c0-1.044-0.739-1.4-1.765-0.846C29.014,53.017,28.311,54.152,28.311,55.184 M32.798,52.763c0,1.703-1.142,3.471-2.803,4.367 c-1.592,0.86-2.735,0.276-2.735-1.379c0-1.548,1.189-3.388,2.735-4.222C31.622,50.651,32.798,51.167,32.798,52.763" class="st4"/><polygon id="Fill-88" points="38.542 45.284 35.208 47.083 35.208 49.554 38.428 47.817 38.428 48.874 35.208 50.61 35.208 53.151 38.646 51.297 38.646 52.352 34.078 54.817 34.078 46.638 38.542 44.229" class="st4"/></g></g></g></g></svg>