<svg xmlns="http://www.w3.org/2000/svg" xmlns:xlink="http://www.w3.org/1999/xlink" id="Layer_1" x="0" y="0" version="1.1" viewBox="0 0 75.713 61.359" xml:space="preserve" style="enable-background:new 0 0 75.713 61.359"><style type="text/css">.st0{fill:none;stroke:#626366;stroke-width:3;stroke-linecap:round;stroke-linejoin:round}.st1{fill:#231f20}.st2{fill:none;stroke:#dfe0df;stroke-width:.525;stroke-linecap:round;stroke-linejoin:round}.st3{fill:#b3b5b7}.st4{fill:#fefefe}.st5{fill:#898b8e}</style><title>icon-media-converter-poe</title><desc>Created with Sketch.</desc><g id="Page-1"><g id="Desktop" transform="translate(-1520.000000, -726.000000)"><g id="icon-media-converter-poe" transform="translate(1521.000000, 727.000000)"><g id="Group-7" transform="translate(0.000000, 0.359400)"><polygon id="Stroke-1" points="39.02 41.586 73.208 23.439 73.213 40.354 39.024 58.5" class="st0"/><polygon id="Stroke-3" points="39.02 41.586 39.024 58.5 .5 35.399 .5 18.528" class="st0"/><polygon id="Stroke-5" points=".5 18.529 34.581 .141 73.208 23.439 39.021 41.587" class="st0"/></g><polygon id="Fill-8" points=".821 18.64 34.901 .252 73.528 23.551 39.341 41.698" class="st1"/><polyline id="Stroke-9" points=".698 18.879 39.02 41.713 39.02 58.648" class="st2"/><polygon id="Fill-10" points="39.02 41.946 39.024 58.861 .5 35.759 .5 18.888" class="st3"/><polygon id="Fill-11" points="23.914 47.768 17.358 43.821 17.372 37.253 23.893 41.186" class="st4"/><polygon id="Fill-12" points="34.741 54.23 28.182 50.284 28.196 43.716 34.718 47.649" class="st4"/><polygon id="Fill-13" points="39.02 41.946 73.208 23.8 73.213 40.715 39.024 58.861" class="st5"/><polygon id="Fill-14" points="34.15 3.357 32.946 17.316 40.145 13.219 38.52 23.449 43.51 20.607 40.633 38.733 39.704 25.653 33.435 29.22 34.796 20.648 27.642 24.72 33.936 3.054" class="st4"/></g></g></g></svg>