<svg xmlns="http://www.w3.org/2000/svg" xmlns:xlink="http://www.w3.org/1999/xlink" id="Layer_1" x="0" y="0" version="1.1" viewBox="0 0 59.8 59.8" xml:space="preserve" style="enable-background:new 0 0 59.8 59.8"><style type="text/css">.st0{fill:#e02333}.st1{fill:#fff}.st2{fill:#2d3f4a}</style><title>INDIVIDUAL ICONS</title><circle cx="29.9" cy="29.9" r="29.9" class="st0"/><path d="M23.9,38.9v-7.1l-6.4-3.5l-6.4,3.5v7.1l6.4,3.5L23.9,38.9z M14.1,37.1v-3.5l3.4-1.8l3.4,1.8v3.5l-3.4,1.8	L14.1,37.1L14.1,37.1z" class="st1"/><path d="M48.7,25.4v-7.1l-6.4-3.5l-6.4,3.5v7.1l6.4,3.5L48.7,25.4z M38.9,20.1l3.4-1.8l3.4,1.8v3.5l-3.4,1.8l-3.4-1.8	V20.1z" class="st1"/><polygon points="38.9 23.6 38.9 33.6 29.9 38.5 20.8 33.6 20.8 23.6 29.9 18.7" class="st1"/><polygon points="29.5 28.1 22.4 24.9 22.4 32.7 29.5 36.6" class="st2"/><polygon points="29.9 27.4 36.9 24.3 29.9 20.4 22.9 24.3" class="st2"/><polygon points="37.4 32.7 37.4 24.9 30.3 28.1 30.3 36.6 37.4 32.7" class="st2"/><polygon points="22.4 24.9 29.5 28.1 29.5 36.6 22.4 32.7" class="st0"/><polygon points="30.3 28.1 37.4 24.9 37.4 32.7 30.3 36.6" class="st0"/><polygon points="22.9 24.3 29.9 20.4 36.9 24.3 29.9 27.5" class="st0"/></svg>