<svg xmlns="http://www.w3.org/2000/svg" xmlns:xlink="http://www.w3.org/1999/xlink" id="Layer_1" x="0" y="0" version="1.1" viewBox="0 0 59.6 59.3" xml:space="preserve" style="enable-background:new 0 0 59.6 59.3"><style type="text/css">.st0{fill:#e02133}.st1{fill:#fff}.st2{fill:#e52134}</style><title>INDIVIDUAL ICONS</title><ellipse cx="29.8" cy="29.7" class="st0" rx="29.8" ry="29.7"/><rect width="12" height="6.3" x="17.7" y="19.2" class="st1"/><rect width="9.8" height="4.2" x="18.8" y="20.2" class="st2"/><rect width="12" height="6.3" x="31.2" y="19.2" class="st1"/><rect width="9.8" height="4.2" x="32.3" y="20.2" class="st2"/><rect width="12" height="6.3" x="24" y="26.6" class="st1"/><rect width="9.8" height="4.2" x="25.1" y="27.6" class="st2"/><rect width="12" height="6.3" x="37" y="26.7" class="st1"/><rect width="9.8" height="4.2" x="38.1" y="27.7" class="st2"/><rect width="12" height="6.3" x="31.1" y="33.7" class="st1"/><rect width="9.8" height="4.2" x="32.2" y="34.8" class="st2"/><rect width="12" height="6.3" x="17.9" y="33.9" class="st1"/><rect width="9.8" height="4.2" x="19" y="34.9" class="st2"/><rect width="12" height="6.3" x="10.6" y="26.6" class="st1"/><rect width="9.8" height="4.2" x="11.7" y="27.6" class="st2"/></svg>