<svg xmlns="http://www.w3.org/2000/svg" xmlns:xlink="http://www.w3.org/1999/xlink" id="Layer_1" x="0" y="0" version="1.1" viewBox="0 0 59.8 59.8" xml:space="preserve" style="enable-background:new 0 0 59.8 59.8"><style type="text/css">.st0{fill:#e02533}.st1{fill:#fff}</style><title>INDIVIDUAL ICONS</title><circle cx="29.9" cy="29.9" r="29.9" class="st0"/><path d="M13.3,45.2V14.7c0-0.4,0.4-0.6,0.7-0.6c0.3,0,0.5,0.3,0.6,0.6v28.9l10.1-3V18c0-0.4,0.4-0.6,0.7-0.6	c0.3,0,0.5,0.3,0.6,0.6v23.4L13.3,45.2z" class="st1"/><path d="M16.5,44c-0.2,0-0.4-0.2-0.4-0.4c0,0,0,0,0,0V15.8c0-0.2,0.3-0.4,0.5-0.4c0.2,0,0.3,0.2,0.4,0.4v27.8	C17,43.8,16.8,44,16.5,44z" class="st1"/><path d="M19.5,43.1c-0.2,0-0.4-0.2-0.4-0.4c0,0,0,0,0,0V16.5c0-0.2,0.3-0.4,0.5-0.4c0.2,0,0.3,0.2,0.4,0.4v26.2	C20,42.9,19.8,43.1,19.5,43.1z" class="st1"/><path d="M22.4,42.1c-0.2,0-0.4-0.2-0.4-0.4c0,0,0,0,0,0V17.2c0-0.2,0.3-0.4,0.5-0.4c0.2,0,0.3,0.2,0.4,0.4v24.6	C22.8,42,22.6,42.2,22.4,42.1z" class="st1"/><polygon points="25.1 21.5 13.7 18.4 14 17.7 25.3 20.8" class="st1"/><rect width="2.6" height="31.7" x="11.9" y="14.1" class="st1"/><path d="M46.6,45.2L34,41.5V18.1c0-0.4,0.4-0.6,0.7-0.6c0.3,0,0.5,0.3,0.6,0.6v22.6l10.1,3v-29c0-0.4,0.4-0.6,0.7-0.6	c0.3,0,0.5,0.3,0.6,0.6L46.6,45.2L46.6,45.2z" class="st1"/><path d="M43.3,44c-0.2,0-0.4-0.2-0.4-0.4c0,0,0,0,0,0V15.8c0-0.2,0.3-0.4,0.5-0.4c0.2,0,0.3,0.2,0.4,0.4v27.8	C43.7,43.8,43.5,44,43.3,44C43.3,44,43.3,44,43.3,44z" class="st1"/><path d="M40.3,43.1c-0.2,0-0.4-0.2-0.4-0.4c0,0,0,0,0,0V16.5c0-0.2,0.3-0.4,0.5-0.4c0.2,0,0.3,0.2,0.4,0.4v26.3	C40.6,43,40.5,43.1,40.3,43.1z" class="st1"/><path d="M37.4,42.1c-0.2,0-0.4-0.2-0.4-0.4c0,0,0,0,0,0V17.2c0-0.2,0.3-0.4,0.5-0.4c0.2,0,0.3,0.2,0.4,0.4v24.6	C37.8,42,37.6,42.1,37.4,42.1z" class="st1"/><polygon points="34.7 21.5 34.5 20.8 45.8 17.7 46.1 18.4" class="st1"/><rect width="2.6" height="31.7" x="45.3" y="14" class="st1"/></svg>