<svg xmlns="http://www.w3.org/2000/svg" xmlns:xlink="http://www.w3.org/1999/xlink" id="Layer_1" x="0" y="0" version="1.1" viewBox="0 0 60.1 60.1" xml:space="preserve" style="enable-background:new 0 0 60.1 60.1"><style type="text/css">.st0{fill:#d81f2e}.st1{fill:#fff}.st2,.st3{fill:none;stroke:#fff;stroke-miterlimit:10}.st3{fill:#d81f2e}</style><title>INDIVIDUAL ICONS</title><ellipse cx="30.1" cy="30.1" class="st0" rx="30.1" ry="30.1" transform="matrix(0.7071 -0.7071 0.7071 0.7071 -12.4554 30.07)"/><rect width="6.4" height="6.4" x="47.3" y="13.9" class="st1"/><rect width="6.4" height="6.4" x="47.3" y="39.6" class="st1"/><rect width="6.4" height="6.4" x="47.3" y="26.9" class="st1"/><line x1="49.5" x2="13.9" y1="30.1" y2="30.1" class="st2"/><rect width="3.8" height="16.5" x="12" y="21.8" class="st1"/><polyline points="50.5 17.1 45 17.1 45 42.9 50.5 42.9" class="st2"/><ellipse cx="30.1" cy="30.1" class="st3" rx="7.5" ry="7.5" transform="matrix(0.7071 -0.7071 0.7071 0.7071 -12.4554 30.07)"/><path d="M32.8,27.8c0.1-1.5-1.1-2.8-2.6-2.9c-1.5-0.1-2.8,1.1-2.9,2.6c0,0.1,0,0.2,0,0.3V29c-1.3,1.5-1.2,3.8,0.3,5.2	s3.8,1.2,5.2-0.3c1.2-1.4,1.2-3.5,0-4.8V27.8z M28.2,27.8c0-1,0.8-1.8,1.8-1.8c1,0,1.8,0.8,1.8,1.8c0,0,0,0,0,0v0.5	c-1.1-0.7-2.5-0.7-3.7,0V27.8z M29.4,33.5l-1.7-1.7l0.7-0.6l1,1l2.4-2.4l0.7,0.6L29.4,33.5z" class="st1"/></svg>