<svg xmlns="http://www.w3.org/2000/svg" xmlns:xlink="http://www.w3.org/1999/xlink" id="Layer_1" x="0" y="0" version="1.1" viewBox="0 0 59.6 59.6" xml:space="preserve" style="enable-background:new 0 0 59.6 59.6"><style type="text/css">.st0{fill:#d81f2e}.st1{fill:none;stroke:#fff;stroke-miterlimit:10}</style><title>INDIVIDUAL ICONS</title><ellipse cx="29.8" cy="29.8" class="st0" rx="29.8" ry="29.8" transform="matrix(0.7071 -0.7071 0.7071 0.7071 -12.3518 29.82)"/><circle cx="13.8" cy="30.9" r="2.3" class="st1"/><circle cx="25.3" cy="22.7" r="2.3" class="st1"/><circle cx="29.1" cy="30.2" r="2.3" class="st1"/><circle cx="35.6" cy="31.6" r="2.3" class="st1"/><circle cx="37.4" cy="39.6" r="2.3" class="st1"/><circle cx="45.9" cy="28.6" r="2.3" class="st1"/><line x1="15.7" x2="23.2" y1="29.6" y2="23.7" class="st1"/><line x1="27.1" x2="28.4" y1="24.4" y2="27.9" class="st1"/><line x1="31.4" x2="33.3" y1="30.9" y2="30.9" class="st1"/><line x1="35.1" x2="36.1" y1="33.8" y2="38.1" class="st1"/><line x1="39" x2="44.2" y1="38" y2="30.2" class="st1"/><line x1="21.5" x2="20.1" y1="20.4" y2="19" class="st1"/><line x1="20" x2="18.1" y1="23.7" y2="23.7" class="st1"/><line x1="25.4" x2="25.4" y1="19.1" y2="17.2" class="st1"/><line x1="28.2" x2="29.7" y1="20.3" y2="19.1" class="st1"/><line x1="31.7" x2="29.7" y1="23.7" y2="23.7" class="st1"/></svg>