<svg xmlns="http://www.w3.org/2000/svg" xmlns:svg="http://www.w3.org/2000/svg" xmlns:xlink="http://www.w3.org/1999/xlink" id="Layer_1" x="0" y="0" version="1.1" viewBox="0 0 96.172 79.399" xml:space="preserve" style="enable-background:new 0 0 96.172 79.399"><style type="text/css">.st0{fill:none;stroke:#626366;stroke-width:3;stroke-linecap:round;stroke-linejoin:round}.st1{fill:#898b8e}.st2{fill:#bbbdbf}.st3{fill:#b3b5b7}.st4{fill:none;stroke:#e1e2e3;stroke-linecap:round;stroke-linejoin:round}.st5{fill:#fefefe}.st6{fill:none;stroke:#626366}.st7{fill:#c4cace}.st8,.st9{fill:none;stroke:#636466}.st9{stroke:#626366;stroke-linecap:round;stroke-linejoin:round}.st10{fill:#231f20}.st11{fill:#626366}.st12{fill:none;stroke:#636466;stroke-width:2;stroke-linecap:round;stroke-linejoin:round}.st13{fill:#636466}.st14{fill:#f5f6f6}.st15,.st16{fill:none;stroke:#626366;stroke-width:1.854;stroke-linecap:round;stroke-linejoin:round}.st16{stroke-width:1.246}.st17{fill:#727378}.st18{fill:#a1a4a6}</style><title id="title1056">icon-laptop-wireless</title><desc id="desc1058">Created with Sketch.</desc><polygon id="Stroke-1" points="30.79 65.566 56.303 52.023 56.306 55.893 30.792 69.436" class="st0"/><polygon id="Stroke-2" points="1.5 47.967 27.014 34.425 56.303 52.024 30.79 65.567" class="st0"/><polygon id="Stroke-4" points="30.79 65.566 30.792 69.436 1.503 51.838 1.5 47.966" class="st0"/><polyline id="Stroke-6" points="1.5 47.967 30.79 65.567 30.792 69.436" class="st0"/><polygon id="Stroke-9" points="64.491 20.5 68.011 19.907 59.817 52.412 56.299 53.005" class="st0"/><polygon id="Stroke-10" points="35.34 2.092 38.859 1.5 68.011 19.907 64.491 20.5" class="st0"/><polygon id="Stroke-12" points="64.491 20.5 56.299 53.005 27.146 34.598 35.34 2.092" class="st0"/><polygon id="Fill-15" points="30.79 65.566 56.303 52.023 56.306 55.893 30.792 69.436" class="st1"/><polygon id="Fill-16" points="1.5 47.967 27.014 34.425 56.303 52.024 30.79 65.567" class="st2"/><polygon id="Fill-17" points="30.79 65.566 30.792 69.436 1.503 51.838 1.5 47.966" class="st3"/><polyline id="Stroke-18" points="1.896 48.204 30.79 65.566 30.792 69.031" class="st4"/><polygon id="Fill-20" points="64.491 20.5 68.011 19.907 59.817 52.412 56.299 53.005" class="st1"/><polygon id="Fill-21" points="35.34 2.092 38.859 1.5 68.011 19.907 64.491 20.5" class="st1"/><polygon id="Fill-22" points="64.491 20.5 56.299 53.005 27.146 34.598 35.34 2.092" class="st3"/><polygon id="Fill-23" points="59.719 22.054 53.72 45.855 32.374 32.375 38.373 8.575" class="st5"/><polygon id="Stroke-24" points="59.719 22.054 53.72 45.855 32.374 32.375 38.373 8.575" class="st6"/><path id="Fill-25" d="M57.416,22.751c-0.777-0.455-15.551-9.099-16.942-7.598c-1.06,1.11-4.52,10.715-4.703,11.221	l3.76-14.799L57.416,22.751z" class="st7"/><polygon id="Fill-27" points="16.049 53.3 20.314 51.035 26.888 54.986 22.622 57.25" class="st5"/><polygon id="Stroke-28" points="16.049 53.3 20.314 51.035 26.888 54.986 22.622 57.25" class="st8"/><path id="Stroke-29" d="M56.467,53.247L26.731,34.27" class="st9"/><polygon id="Fill-30" points="16.342 43.444 17.799 42.671 17.799 42.953 16.342 43.726" class="st10"/><polygon id="Fill-31" points="15.084 42.689 16.543 41.917 17.799 42.671 16.342 43.444" class="st5"/><polygon id="Fill-32" points="16.342 43.444 16.342 43.726 15.084 42.971 15.084 42.689" class="st11"/><polygon id="Fill-33" points="18.201 44.563 19.66 43.79 19.66 44.072 18.201 44.845" class="st10"/><polygon id="Fill-34" points="16.945 43.807 18.402 43.034 19.66 43.789 18.201 44.563" class="st5"/><polygon id="Fill-35" points="18.201 44.563 18.201 44.845 16.945 44.09 16.945 43.807" class="st11"/><polygon id="Fill-36" points="20.154 45.736 21.611 44.962 21.613 45.244 20.154 46.018" class="st10"/><polygon id="Fill-37" points="18.898 44.98 20.355 44.208 21.611 44.961 20.154 45.736" class="st5"/><polygon id="Fill-38" points="20.154 45.736 20.154 46.018 18.898 45.263 18.898 44.98" class="st11"/><polygon id="Fill-39" points="22.021 46.857 23.478 46.084 23.48 46.367 22.021 47.14" class="st10"/><polygon id="Fill-40" points="20.766 46.103 22.223 45.329 23.479 46.084 22.022 46.858" class="st5"/><polygon id="Fill-41" points="22.021 46.857 22.021 47.14 20.765 46.384 20.765 46.103" class="st11"/><polygon id="Fill-42" points="23.949 48.016 25.408 47.243 25.408 47.526 23.949 48.299" class="st10"/><polygon id="Fill-43" points="22.693 47.262 24.15 46.488 25.408 47.242 23.949 48.016" class="st5"/><polygon id="Fill-44" points="23.949 48.016 23.949 48.299 22.693 47.543 22.693 47.262" class="st11"/><polygon id="Fill-45" points="25.816 49.139 27.275 48.365 27.275 48.647 25.816 49.42" class="st10"/><polygon id="Fill-46" points="24.553 48.379 26.012 47.606 27.276 48.364 25.817 49.139" class="st5"/><polygon id="Fill-47" points="25.816 49.139 25.816 49.42 24.552 48.662 24.552 48.379" class="st11"/><polygon id="Fill-48" points="27.77 50.312 29.226 49.538 29.229 49.821 27.77 50.594" class="st10"/><polygon id="Fill-49" points="26.512 49.557 27.971 48.783 29.227 49.537 27.77 50.312" class="st5"/><polygon id="Fill-50" points="27.77 50.312 27.77 50.594 26.514 49.839 26.511 49.557" class="st11"/><polygon id="Fill-51" points="29.631 51.43 31.088 50.656 31.088 50.938 29.631 51.712" class="st10"/><polygon id="Fill-52" points="28.373 50.674 29.83 49.901 31.088 50.655 29.631 51.43" class="st5"/><polygon id="Fill-53" points="29.631 51.43 29.631 51.712 28.373 50.957 28.373 50.674" class="st11"/><polygon id="Fill-54" points="31.461 52.529 32.918 51.756 32.918 52.037 31.461 52.811" class="st10"/><polygon id="Fill-55" points="30.203 51.773 31.662 51 32.918 51.756 31.461 52.529" class="st5"/><polygon id="Fill-56" points="31.461 52.529 31.461 52.811 30.203 52.056 30.203 51.773" class="st11"/><polygon id="Fill-57" points="33.32 53.647 34.779 52.874 34.779 53.157 33.32 53.93" class="st10"/><polygon id="Fill-58" points="32.064 52.893 33.521 52.119 34.779 52.873 33.32 53.647" class="st5"/><polygon id="Fill-59" points="33.32 53.647 33.32 53.93 32.064 53.174 32.064 52.893" class="st11"/><polygon id="Fill-60" points="35.273 54.82 36.732 54.047 36.732 54.329 35.273 55.103" class="st10"/><polygon id="Fill-61" points="34.018 54.065 35.474 53.292 36.732 54.047 35.273 54.82" class="st5"/><polygon id="Fill-62" points="35.273 54.82 35.273 55.103 34.017 54.347 34.017 54.065" class="st11"/><polygon id="Fill-63" points="37.141 55.943 38.6 55.168 38.6 55.451 37.141 56.224" class="st10"/><polygon id="Fill-64" points="35.885 55.188 37.342 54.414 38.6 55.168 37.141 55.943" class="st5"/><polygon id="Fill-65" points="37.141 55.943 37.141 56.224 35.885 55.47 35.885 55.188" class="st11"/><polygon id="Fill-66" points="39.068 57.101 40.527 56.328 40.527 56.61 39.068 57.383" class="st10"/><polygon id="Fill-67" points="37.813 56.346 39.27 55.573 40.528 56.327 39.069 57.101" class="st5"/><polygon id="Fill-68" points="39.068 57.101 39.068 57.383 37.812 56.628 37.812 56.346" class="st11"/><polygon id="Fill-69" points="40.893 58.197 42.349 57.423 42.352 57.705 40.893 58.478" class="st10"/><polygon id="Fill-70" points="39.635 57.442 41.094 56.668 42.35 57.423 40.893 58.197" class="st5"/><polygon id="Fill-71" points="40.893 58.197 40.893 58.478 39.637 57.723 39.634 57.441" class="st11"/><polygon id="Fill-72" points="18.342 42.319 19.799 41.546 19.799 41.828 18.342 42.601" class="st10"/><polygon id="Fill-73" points="17.084 41.564 18.543 40.792 19.799 41.546 18.342 42.319" class="st5"/><polygon id="Fill-74" points="18.342 42.319 18.342 42.601 17.084 41.846 17.084 41.564" class="st11"/><polygon id="Fill-75" points="20.201 43.438 21.66 42.665 21.66 42.947 20.201 43.72" class="st10"/><polygon id="Fill-76" points="18.945 42.682 20.402 41.909 21.66 42.664 20.201 43.438" class="st5"/><polygon id="Fill-77" points="20.201 43.438 20.201 43.72 18.945 42.965 18.945 42.682" class="st11"/><polygon id="Fill-78" points="22.154 44.611 23.611 43.837 23.613 44.119 22.154 44.893" class="st10"/><polygon id="Fill-79" points="20.898 43.855 22.355 43.083 23.611 43.836 22.154 44.611" class="st5"/><polygon id="Fill-80" points="22.154 44.611 22.154 44.893 20.898 44.138 20.898 43.855" class="st11"/><polygon id="Fill-81" points="24.021 45.732 25.478 44.959 25.48 45.242 24.021 46.015" class="st10"/><polygon id="Fill-82" points="22.766 44.978 24.223 44.204 25.479 44.959 24.022 45.733" class="st5"/><polygon id="Fill-83" points="24.021 45.732 24.021 46.015 22.765 45.259 22.765 44.978" class="st11"/><polygon id="Fill-84" points="25.949 46.891 27.408 46.118 27.408 46.401 25.949 47.174" class="st10"/><polygon id="Fill-85" points="24.693 46.137 26.15 45.363 27.408 46.117 25.949 46.891" class="st5"/><polygon id="Fill-86" points="25.949 46.891 25.949 47.174 24.693 46.418 24.693 46.137" class="st11"/><polygon id="Fill-87" points="27.816 48.014 29.275 47.24 29.275 47.522 27.816 48.295" class="st10"/><polygon id="Fill-88" points="26.553 47.254 28.012 46.481 29.276 47.239 27.817 48.014" class="st5"/><polygon id="Fill-89" points="27.816 48.014 27.816 48.295 26.552 47.537 26.552 47.254" class="st11"/><polygon id="Fill-90" points="29.77 49.187 31.226 48.413 31.229 48.696 29.77 49.469" class="st10"/><polygon id="Fill-91" points="28.512 48.432 29.971 47.658 31.227 48.412 29.77 49.187" class="st5"/><polygon id="Fill-92" points="29.77 49.187 29.77 49.469 28.514 48.714 28.511 48.432" class="st11"/><polygon id="Fill-93" points="31.631 50.305 33.088 49.531 33.088 49.813 31.631 50.587" class="st10"/><polygon id="Fill-94" points="30.373 49.549 31.83 48.776 33.088 49.53 31.631 50.305" class="st5"/><polygon id="Fill-95" points="31.631 50.305 31.631 50.587 30.373 49.832 30.373 49.549" class="st11"/><polygon id="Fill-96" points="33.461 51.404 34.918 50.631 34.918 50.912 33.461 51.686" class="st10"/><polygon id="Fill-97" points="32.203 50.648 33.662 49.875 34.918 50.631 33.461 51.404" class="st5"/><polygon id="Fill-98" points="33.461 51.404 33.461 51.686 32.203 50.931 32.203 50.648" class="st11"/><polygon id="Fill-99" points="35.32 52.522 36.779 51.749 36.779 52.032 35.32 52.805" class="st10"/><polygon id="Fill-100" points="34.064 51.768 35.521 50.994 36.779 51.748 35.32 52.522" class="st5"/><polygon id="Fill-101" points="35.32 52.522 35.32 52.805 34.064 52.049 34.064 51.768" class="st11"/><polygon id="Fill-102" points="37.273 53.695 38.732 52.922 38.732 53.204 37.273 53.978" class="st10"/><polygon id="Fill-103" points="36.018 52.94 37.474 52.167 38.732 52.922 37.273 53.695" class="st5"/><polygon id="Fill-104" points="37.273 53.695 37.273 53.978 36.017 53.222 36.017 52.94" class="st11"/><polygon id="Fill-105" points="39.141 54.818 40.6 54.043 40.6 54.326 39.141 55.099" class="st10"/><polygon id="Fill-106" points="37.885 54.063 39.342 53.289 40.6 54.043 39.141 54.818" class="st5"/><polygon id="Fill-107" points="39.141 54.818 39.141 55.099 37.885 54.345 37.885 54.063" class="st11"/><polygon id="Fill-108" points="41.068 55.976 42.527 55.203 42.527 55.485 41.068 56.258" class="st10"/><polygon id="Fill-109" points="39.813 55.221 41.27 54.448 42.528 55.202 41.069 55.976" class="st5"/><polygon id="Fill-110" points="41.068 55.976 41.068 56.258 39.812 55.503 39.812 55.221" class="st11"/><polygon id="Fill-111" points="42.893 57.072 44.349 56.298 44.352 56.58 42.893 57.353" class="st10"/><polygon id="Fill-112" points="41.635 56.317 43.094 55.543 44.35 56.298 42.893 57.072" class="st5"/><polygon id="Fill-113" points="42.893 57.072 42.893 57.353 41.637 56.598 41.634 56.316" class="st11"/><polygon id="Fill-114" points="20.467 41.194 21.924 40.421 21.924 40.703 20.467 41.476" class="st10"/><polygon id="Fill-115" points="19.209 40.439 20.668 39.667 21.924 40.421 20.467 41.194" class="st5"/><polygon id="Fill-116" points="20.467 41.194 20.467 41.476 19.209 40.721 19.209 40.439" class="st11"/><polygon id="Fill-117" points="22.326 42.313 23.785 41.54 23.785 41.822 22.326 42.595" class="st10"/><polygon id="Fill-118" points="21.07 41.557 22.527 40.784 23.785 41.539 22.326 42.313" class="st5"/><polygon id="Fill-119" points="22.326 42.313 22.326 42.595 21.07 41.84 21.07 41.557" class="st11"/><polygon id="Fill-120" points="24.279 43.486 25.736 42.712 25.738 42.994 24.279 43.768" class="st10"/><polygon id="Fill-121" points="23.023 42.73 24.48 41.958 25.736 42.711 24.279 43.486" class="st5"/><polygon id="Fill-122" points="24.279 43.486 24.279 43.768 23.023 43.013 23.023 42.73" class="st11"/><polygon id="Fill-123" points="26.146 44.607 27.603 43.834 27.605 44.117 26.146 44.89" class="st10"/><polygon id="Fill-124" points="24.891 43.853 26.348 43.079 27.604 43.834 26.147 44.608" class="st5"/><polygon id="Fill-125" points="26.146 44.607 26.146 44.89 24.89 44.134 24.89 43.853" class="st11"/><polygon id="Fill-126" points="28.074 45.766 29.533 44.993 29.533 45.276 28.074 46.049" class="st10"/><polygon id="Fill-127" points="26.818 45.012 28.275 44.238 29.533 44.992 28.074 45.766" class="st5"/><polygon id="Fill-128" points="28.074 45.766 28.074 46.049 26.818 45.293 26.818 45.012" class="st11"/><polygon id="Fill-129" points="29.941 46.889 31.4 46.115 31.4 46.397 29.941 47.17" class="st10"/><polygon id="Fill-130" points="28.678 46.129 30.137 45.356 31.401 46.114 29.942 46.889" class="st5"/><polygon id="Fill-131" points="29.941 46.889 29.941 47.17 28.677 46.412 28.677 46.129" class="st11"/><polygon id="Fill-132" points="31.895 48.062 33.352 47.288 33.354 47.571 31.895 48.344" class="st10"/><polygon id="Fill-133" points="30.637 47.307 32.096 46.533 33.352 47.287 31.895 48.062" class="st5"/><polygon id="Fill-134" points="31.895 48.062 31.895 48.344 30.639 47.589 30.636 47.307" class="st11"/><polygon id="Fill-135" points="33.756 49.18 35.213 48.406 35.213 48.688 33.756 49.462" class="st10"/><polygon id="Fill-136" points="32.498 48.424 33.955 47.651 35.213 48.405 33.756 49.18" class="st5"/><polygon id="Fill-137" points="33.756 49.18 33.756 49.462 32.498 48.707 32.498 48.424" class="st11"/><polygon id="Fill-138" points="35.586 50.279 37.043 49.506 37.043 49.787 35.586 50.561" class="st10"/><polygon id="Fill-139" points="34.328 49.523 35.787 48.75 37.043 49.506 35.586 50.279" class="st5"/><polygon id="Fill-140" points="35.586 50.279 35.586 50.561 34.328 49.806 34.328 49.523" class="st11"/><polygon id="Fill-141" points="37.445 51.397 38.904 50.624 38.904 50.907 37.445 51.68" class="st10"/><polygon id="Fill-142" points="36.189 50.643 37.646 49.869 38.904 50.623 37.445 51.397" class="st5"/><polygon id="Fill-143" points="37.445 51.397 37.445 51.68 36.189 50.924 36.189 50.643" class="st11"/><polygon id="Fill-144" points="39.398 52.57 40.857 51.797 40.857 52.079 39.398 52.853" class="st10"/><polygon id="Fill-145" points="38.143 51.815 39.599 51.042 40.857 51.797 39.398 52.57" class="st5"/><polygon id="Fill-146" points="39.398 52.57 39.398 52.853 38.142 52.097 38.142 51.815" class="st11"/><polygon id="Fill-147" points="41.266 53.693 42.725 52.918 42.725 53.201 41.266 53.974" class="st10"/><polygon id="Fill-148" points="40.01 52.938 41.467 52.164 42.725 52.918 41.266 53.693" class="st5"/><polygon id="Fill-149" points="41.266 53.693 41.266 53.974 40.01 53.22 40.01 52.938" class="st11"/><polygon id="Fill-150" points="43.193 54.851 44.652 54.078 44.652 54.36 43.193 55.133" class="st10"/><polygon id="Fill-151" points="41.938 54.096 43.395 53.323 44.653 54.077 43.194 54.851" class="st5"/><polygon id="Fill-152" points="43.193 54.851 43.193 55.133 41.937 54.378 41.937 54.096" class="st11"/><polygon id="Fill-153" points="45.018 55.947 46.474 55.173 46.477 55.455 45.018 56.228" class="st10"/><polygon id="Fill-154" points="43.76 55.192 45.219 54.418 46.475 55.173 45.018 55.947" class="st5"/><polygon id="Fill-155" points="45.018 55.947 45.018 56.228 43.762 55.473 43.759 55.191" class="st11"/><polygon id="Fill-156" points="14.949 45.121 16.408 44.348 16.408 44.623 14.949 45.396" class="st10"/><polygon id="Fill-157" points="13.691 44.366 15.15 43.592 16.408 44.347 14.949 45.121" class="st5"/><polygon id="Fill-158" points="14.949 45.121 14.949 45.396 13.693 44.641 13.691 44.366" class="st11"/><polygon id="Fill-159" points="16.719 46.184 18.176 45.411 18.176 45.686 16.719 46.459" class="st10"/><polygon id="Fill-160" points="15.461 45.429 16.92 44.656 18.176 45.41 16.719 46.184" class="st5"/><polygon id="Fill-161" points="16.719 46.184 16.719 46.459 15.461 45.704 15.461 45.429" class="st11"/><polygon id="Fill-162" points="18.578 47.302 20.037 46.529 20.037 46.803 18.578 47.576" class="st10"/><polygon id="Fill-163" points="17.322 46.547 18.779 45.774 20.037 46.528 18.578 47.302" class="st5"/><polygon id="Fill-164" points="18.578 47.302 18.578 47.576 17.322 46.823 17.322 46.547" class="st11"/><polygon id="Fill-165" points="34.137 56.621 35.596 55.848 35.596 56.123 34.137 56.896" class="st10"/><polygon id="Fill-166" points="32.879 55.866 34.338 55.092 35.596 55.847 34.137 56.621" class="st5"/><polygon id="Fill-167" points="34.137 56.621 34.137 56.896 32.881 56.141 32.879 55.866" class="st11"/><polygon id="Fill-168" points="35.906 57.684 37.363 56.911 37.363 57.186 35.906 57.959" class="st10"/><polygon id="Fill-169" points="34.648 56.929 36.107 56.156 37.363 56.91 35.906 57.684" class="st5"/><polygon id="Fill-170" points="35.906 57.684 35.906 57.959 34.648 57.204 34.648 56.929" class="st11"/><polygon id="Fill-171" points="37.766 58.802 39.225 58.029 39.225 58.303 37.766 59.076" class="st10"/><polygon id="Fill-172" points="36.51 58.047 37.967 57.274 39.225 58.028 37.766 58.802" class="st5"/><polygon id="Fill-173" points="37.766 58.802 37.766 59.076 36.51 58.323 36.51 58.047" class="st11"/><polygon id="Fill-174" points="32.15 55.469 33.609 54.695 33.609 54.969 32.15 55.743" class="st10"/><polygon id="Fill-175" points="19.256 47.721 20.715 46.947 33.61 54.695 32.151 55.469" class="st5"/><polygon id="Fill-176" points="32.15 55.469 32.15 55.743 19.255 47.995 19.255 47.721" class="st11"/><polygon id="Fill-177" points="22.678 39.936 24.135 39.163 24.135 39.445 22.678 40.218" class="st10"/><polygon id="Fill-178" points="21.42 39.181 22.879 38.408 24.135 39.162 22.678 39.936" class="st5"/><polygon id="Fill-179" points="22.678 39.936 22.678 40.218 21.42 39.463 21.42 39.181" class="st11"/><polygon id="Fill-180" points="24.537 41.054 25.996 40.281 25.996 40.563 24.537 41.336" class="st10"/><polygon id="Fill-181" points="23.281 40.298 24.738 39.525 25.996 40.28 24.537 41.054" class="st5"/><polygon id="Fill-182" points="24.537 41.054 24.537 41.336 23.281 40.581 23.281 40.298" class="st11"/><polygon id="Fill-183" points="26.49 42.228 27.947 41.454 27.949 41.736 26.49 42.51" class="st10"/><polygon id="Fill-184" points="25.234 41.472 26.691 40.699 27.947 41.453 26.49 42.228" class="st5"/><polygon id="Fill-185" points="26.49 42.228 26.49 42.51 25.234 41.755 25.234 41.472" class="st11"/><polygon id="Fill-186" points="28.357 43.349 29.814 42.576 29.816 42.858 28.357 43.632" class="st10"/><polygon id="Fill-187" points="27.101 42.594 28.559 41.82 29.815 42.575 28.358 43.349" class="st5"/><polygon id="Fill-188" points="28.357 43.349 28.357 43.632 27.101 42.876 27.101 42.594" class="st11"/><polygon id="Fill-189" points="30.285 44.507 31.744 43.734 31.744 44.017 30.285 44.79" class="st10"/><polygon id="Fill-190" points="29.029 43.753 30.486 42.979 31.744 43.733 30.285 44.507" class="st5"/><polygon id="Fill-191" points="30.285 44.507 30.285 44.79 29.029 44.034 29.029 43.753" class="st11"/><polygon id="Fill-192" points="32.152 45.63 33.611 44.856 33.611 45.138 32.152 45.911" class="st10"/><polygon id="Fill-193" points="30.889 44.87 32.348 44.097 33.612 44.855 32.153 45.63" class="st5"/><polygon id="Fill-194" points="32.152 45.63 32.152 45.911 30.888 45.153 30.888 44.87" class="st11"/><polygon id="Fill-195" points="34.105 46.803 35.562 46.029 35.564 46.312 34.105 47.085" class="st10"/><polygon id="Fill-196" points="32.848 46.048 34.307 45.274 35.563 46.028 34.106 46.803" class="st5"/><polygon id="Fill-197" points="34.105 46.803 34.105 47.085 32.849 46.33 32.847 46.048" class="st11"/><polygon id="Fill-198" points="35.967 47.921 37.424 47.147 37.424 47.429 35.967 48.203" class="st10"/><polygon id="Fill-199" points="34.709 47.165 36.166 46.392 37.424 47.146 35.967 47.921" class="st5"/><polygon id="Fill-200" points="35.967 47.921 35.967 48.203 34.709 47.448 34.709 47.165" class="st11"/><polygon id="Fill-201" points="37.797 49.021 39.254 48.248 39.254 48.529 37.797 49.303" class="st10"/><polygon id="Fill-202" points="36.539 48.265 37.998 47.492 39.254 48.247 37.797 49.021" class="st5"/><polygon id="Fill-203" points="37.797 49.021 37.797 49.303 36.539 48.548 36.539 48.265" class="st11"/><polygon id="Fill-204" points="39.656 50.138 41.115 49.365 41.115 49.648 39.656 50.421" class="st10"/><polygon id="Fill-205" points="38.4 49.384 39.857 48.61 41.115 49.364 39.656 50.138" class="st5"/><polygon id="Fill-206" points="39.656 50.138 39.656 50.421 38.4 49.665 38.4 49.384" class="st11"/><polygon id="Fill-207" points="41.609 51.312 43.068 50.539 43.068 50.821 41.609 51.595" class="st10"/><polygon id="Fill-208" points="40.354 50.557 41.811 49.783 43.069 50.538 41.61 51.312" class="st5"/><polygon id="Fill-209" points="41.609 51.312 41.609 51.595 40.353 50.839 40.353 50.557" class="st11"/><polygon id="Fill-210" points="43.477 52.434 44.936 51.66 44.936 51.943 43.477 52.716" class="st10"/><polygon id="Fill-211" points="42.221 51.679 43.678 50.905 44.936 51.659 43.477 52.434" class="st5"/><polygon id="Fill-212" points="43.477 52.434 43.477 52.716 42.221 51.961 42.221 51.679" class="st11"/><polygon id="Fill-213" points="45.404 53.592 46.863 52.819 46.863 53.101 45.404 53.874" class="st10"/><polygon id="Fill-214" points="44.148 52.837 45.605 52.064 46.863 52.818 45.404 53.592" class="st5"/><polygon id="Fill-215" points="45.404 53.592 45.404 53.874 44.148 53.119 44.148 52.837" class="st11"/><polygon id="Fill-216" points="47.229 54.689 48.686 53.915 48.688 54.197 47.229 54.97" class="st10"/><polygon id="Fill-217" points="45.971 53.933 47.43 53.16 48.686 53.914 47.229 54.689" class="st5"/><polygon id="Fill-218" points="47.229 54.689 47.229 54.97 45.972 54.215 45.971 53.933" class="st11"/><path id="Stroke-262" d="M57.016,40.939c5.625-2.985,11.248-5.971,16.871-8.956	c0.423-0.224,0.992-0.174,1.619,0.202l-16.871,8.956C58.008,40.765,57.44,40.716,57.016,40.939z" class="st12"/><path id="Stroke-276" d="M94.426,69.308l-16.871,8.956	c0.459-0.245,0.744-0.81,0.747-1.628l16.87-8.954C95.172,68.498,94.885,69.065,94.426,69.308z" class="st12"/><polygon id="Stroke-281" points="58.635 41.141 75.506 32.185 92.792 42.571 75.919 51.528" class="st12"/><polygon id="Stroke-282" points="78.285 55.794 95.158 46.84 95.172 67.682 78.302 76.636" class="st12"/><path id="Stroke-317" d="M75.919,51.528c1.308,0.784,2.363,2.689,2.366,4.267l0.017,20.841	c-0.003,1.571-1.057,2.213-2.363,1.428L58.654,67.677c-1.306-0.785-2.365-2.696-2.368-4.266l-0.013-20.843	c-0.001-1.575,1.056-2.211,2.362-1.427L75.919,51.528z" class="st12"/><path id="Stroke-351" d="M75.919,51.528l16.873-8.957	c1.306,0.785,2.36,2.692,2.366,4.269l-16.873,8.955C78.282,54.217,77.227,52.312,75.919,51.528z" class="st12"/><polygon id="Fill-439" points="58.354 41.162 75.225 32.206 92.511 42.592 75.638 51.549" class="st3"/><polygon id="Fill-440" points="78.005 55.815 94.878 46.86 94.892 67.702 78.022 76.657" class="st1"/><path id="Fill-472" d="M77.323,76.237l-0.017-20.842c0-1.111-0.744-2.455-1.667-3.008L58.354,42	c-0.921-0.553-1.664-0.102-1.664,1.008l0.016,20.841c0,1.107,0.745,2.452,1.667,3.009l17.285,10.386	C76.579,77.796,77.323,77.344,77.323,76.237z M75.638,51.548c1.308,0.784,2.364,2.689,2.367,4.267l0.016,20.841	c-0.003,1.571-1.056,2.213-2.363,1.428L58.374,67.697c-1.307-0.785-2.365-2.696-2.368-4.266l-0.014-20.843	c-0.001-1.575,1.057-2.211,2.362-1.427L75.638,51.548z" class="st13"/><path id="Fill-474" d="M75.64,52.387c0.923,0.553,1.667,1.897,1.667,3.008	l0.017,20.842c0,1.107-0.745,1.559-1.665,1.007L58.373,66.858c-0.921-0.557-1.667-1.902-1.667-3.009l-0.015-20.841	c0-1.11,0.743-1.56,1.664-1.008L75.64,52.387z" class="st14"/><path id="Fill-508" d="M68.91,60.398c0,1.479-1.061,2.04-2.368,1.255c-1.307-0.787-2.368-2.623-2.368-4.102	c0-1.48,1.061-2.042,2.368-1.255C67.849,57.083,68.91,58.92,68.91,60.398" class="st11"/><path id="Stroke-510" d="M66.538,60.118v9.665" class="st15"/><path id="Fill-512" d="M67.923,59.142c0,0.347-0.249,0.479-0.558,0.294c-0.305-0.183-0.553-0.614-0.553-0.961	s0.248-0.479,0.553-0.295C67.674,58.366,67.923,58.795,67.923,59.142" class="st5"/><path id="Stroke-514" d="M72.418,62.674c-0.418-3.54-2.914-7.571-5.938-9.39c-2.992-1.797-5.465-0.807-5.922,2.154" class="st16"/><path id="Stroke-516" d="M75.046,61.858c-0.072-0.28-0.152-0.562-0.24-0.844c-1.351-4.399-4.492-8.802-8.156-11.006	c-3.871-2.325-7.154-1.498-8.367,1.681" class="st16"/><path id="Stroke-262-9" d="M56.735,40.96c5.625-2.985,11.248-5.971,16.871-8.956	c0.423-0.224,0.992-0.174,1.619,0.202l-16.871,8.956C57.727,40.786,57.159,40.737,56.735,40.96z" class="st2"/><path id="Stroke-276-0" d="M94.146,69.328l-16.871,8.956	c0.459-0.245,0.744-0.81,0.747-1.628l16.87-8.954C94.892,68.518,94.605,69.085,94.146,69.328z" class="st17"/><path id="Stroke-351-2" d="M75.638,51.549l16.873-8.957	c1.306,0.785,2.36,2.692,2.366,4.269l-16.873,8.955C78.001,54.238,76.946,52.333,75.638,51.549z" class="st18"/></svg>