<svg xmlns="http://www.w3.org/2000/svg" xmlns:svg="http://www.w3.org/2000/svg" id="svg1220" width="100" height="100" class="st2" version="1.1" viewBox="0 0 75 75" xml:space="preserve" style="font-size:12px;overflow:visible;color-interpolation-filters:sRGB;fill:none;fill-rule:evenodd;stroke-linecap:square;stroke-miterlimit:3"><metadata id="metadata1226"/><defs id="defs1224"><defs id="defs1171"><path id="mfid20" d="m 639960,101770 c 146430,135680 146430,355690 0,491360 -146390,135720 -383760,135720 -530150,0 -146426,-135670 -146426,-355680 0,-491360 146390,-135707 383760,-135707 530150,0 z"/></defs></defs><style id="style1162" type="text/css">.st2{fill:none;fill-rule:evenodd;font-size:12px;overflow:visible;stroke-linecap:square;stroke-miterlimit:3}</style><circle style="font-size:12px;overflow:visible;color-interpolation-filters:sRGB;fill:#8dc53f;fill-opacity:1;fill-rule:evenodd;stroke:none;stroke-width:1.00000024;stroke-linecap:square;stroke-miterlimit:3" id="circle1396" cx="37.5" cy="37.5" r="37.5"/><path id="path1993-1-4" d="M 19.096155,49.792997 V 62.553244 H 56.686956 V 49.792997 Z m 11.091791,3.328124 a 3.0526425,3.0526425 0 0 1 3.052733,3.052733 3.0526425,3.0526425 0 0 1 -3.052733,3.051268 3.0526425,3.0526425 0 0 1 -3.052733,-3.051268 3.0526425,3.0526425 0 0 1 3.052733,-3.052733 z M 19.096154,13.870322 V 26.63057 H 56.686957 V 13.870322 Z m 11.091792,3.328124 a 3.0526426,3.0526426 0 0 1 3.052733,3.052733 3.0526426,3.0526426 0 0 1 -3.052733,3.051268 3.0526426,3.0526426 0 0 1 -3.052733,-3.051268 3.0526426,3.0526426 0 0 1 3.052733,-3.052733 z M 19.096154,31.831659 V 44.591908 H 56.686957 V 31.831659 Z m 11.091792,3.328124 a 3.0526426,3.0526426 0 0 1 3.052733,3.052733 3.0526426,3.0526426 0 0 1 -3.052733,3.051268 3.0526426,3.0526426 0 0 1 -3.052733,-3.051268 3.0526426,3.0526426 0 0 1 3.052733,-3.052733 z" style="font-size:12px;overflow:visible;opacity:1;color-interpolation-filters:sRGB;vector-effect:none;fill:#fff;fill-opacity:1;fill-rule:evenodd;stroke:none;stroke-width:2.99930978;stroke-linecap:butt;stroke-linejoin:miter;stroke-miterlimit:3;stroke-dasharray:none;stroke-dashoffset:0;stroke-opacity:1;paint-order:normal"/></svg>