<svg xmlns="http://www.w3.org/2000/svg" xmlns:svg="http://www.w3.org/2000/svg" id="svg3687" width="273.396" height="376.623" version="1.1" viewBox="0 0 72.336 99.648"><metadata id="metadata3684"/><g id="layer1" transform="translate(-42.41191,-92.229725)"><path style="opacity:1;vector-effect:none;fill:#af1f23;fill-opacity:1;stroke:none;stroke-width:2;stroke-linecap:round;stroke-linejoin:round;stroke-miterlimit:4;stroke-dasharray:none;stroke-dashoffset:0;stroke-opacity:1;paint-order:normal" id="path4243" d="m 78.565258,92.229725 c -14.079772,0 -26.865026,12.364995 -26.865026,26.876915 v 12.46229 a 36.16829,36.16829 0 0 0 -9.288322,24.14064 36.16829,36.16829 0 0 0 36.168334,36.16834 36.16829,36.16829 0 0 0 36.167816,-36.16834 36.16829,36.16829 0 0 0 -9.31726,-24.16803 v -12.4349 c 0,-14.39479 -12.55675,-26.876915 -26.865542,-26.876915 z m 0,8.000025 c 9.379595,0 18.865515,9.40865 18.865515,18.87689 v 5.78879 a 36.16829,36.16829 0 0 0 -18.850529,-5.35368 36.16829,36.16829 0 0 0 -18.879984,5.35368 v -5.78879 c 0,-9.49496 9.796235,-18.87689 18.864998,-18.87689 z"/><path style="color:#000;font-style:normal;font-variant:normal;font-weight:400;font-stretch:normal;font-size:medium;line-height:normal;font-family:sans-serif;font-variant-ligatures:normal;font-variant-position:normal;font-variant-caps:normal;font-variant-numeric:normal;font-variant-alternates:normal;font-feature-settings:normal;text-indent:0;text-align:start;text-decoration:none;text-decoration-line:none;text-decoration-style:solid;text-decoration-color:#000;letter-spacing:normal;word-spacing:normal;text-transform:none;writing-mode:lr-tb;direction:ltr;text-orientation:mixed;dominant-baseline:auto;baseline-shift:baseline;text-anchor:start;white-space:normal;shape-padding:0;clip-rule:nonzero;display:inline;overflow:visible;visibility:visible;opacity:1;isolation:auto;mix-blend-mode:normal;color-interpolation:sRGB;color-interpolation-filters:linearRGB;solid-color:#000;solid-opacity:1;vector-effect:none;fill:#fff;fill-opacity:1;fill-rule:nonzero;stroke:none;stroke-width:10;stroke-linecap:butt;stroke-linejoin:miter;stroke-miterlimit:4;stroke-dasharray:none;stroke-dashoffset:0;stroke-opacity:1;color-rendering:auto;image-rendering:auto;shape-rendering:auto;text-rendering:auto;enable-background:accumulate" id="path4247" d="m 96.147452,138.10452 -24.388672,23.97461 -10.574218,-10.29102 -6.97461,7.16602 17.583984,17.11328 31.363284,-30.83203 z"/></g></svg>