<svg xmlns="http://www.w3.org/2000/svg" xmlns:xlink="http://www.w3.org/1999/xlink" id="Layer_1" x="0" y="0" version="1.1" viewBox="0 0 59.9 59.9" xml:space="preserve" style="enable-background:new 0 0 59.9 59.9"><style type="text/css">.st0{fill:#325c80}.st1{fill:#fff}</style><title>INDIVIDUAL ICONS</title><circle cx="29.9" cy="29.9" r="29.9" class="st0"/><rect width="8.4" height="6.7" x="10.8" y="13.8" class="st1"/><rect width="5.9" height="4.4" x="12.1" y="15" class="st1"/><rect width="8.4" height="6.7" x="30.8" y="13.8" class="st1"/><rect width="5.9" height="4.4" x="32.1" y="15" class="st1"/><rect width="8.4" height="6.7" x="40.5" y="13.8" class="st1"/><rect width="5.9" height="4.4" x="41.8" y="15" class="st1"/><rect width="8.4" height="6.7" x="40.5" y="22.5" class="st1"/><rect width="5.9" height="4.4" x="41.8" y="23.7" class="st1"/><rect width="8.4" height="6.7" x="30.6" y="30.9" class="st1"/><rect width="5.9" height="4.4" x="31.8" y="32" class="st1"/><rect width="8.4" height="6.7" x="20.8" y="22.5" class="st1"/><rect width="5.9" height="4.4" x="22.1" y="23.7" class="st1"/><rect width="8.4" height="6.7" x="10.9" y="30.9" class="st1"/><rect width="5.9" height="4.4" x="12.2" y="32" class="st1"/><rect width="8.4" height="6.7" x="20.7" y="30.6" class="st1"/><rect width="5.9" height="4.4" x="22" y="31.8" class="st1"/><rect width="8.4" height="6.7" x="10.8" y="39" class="st1"/><rect width="5.9" height="4.4" x="12.1" y="40.2" class="st1"/><rect width="8.4" height="6.7" x="20.7" y="39.4" class="st1"/><rect width="5.9" height="4.4" x="21.9" y="40.5" class="st1"/><rect width="8.4" height="6.7" x="40.7" y="39.2" class="st1"/><rect width="5.9" height="4.4" x="41.9" y="40.3" class="st1"/></svg>