<svg xmlns="http://www.w3.org/2000/svg" xmlns:svg="http://www.w3.org/2000/svg" xmlns:xlink="http://www.w3.org/1999/xlink" id="svg2" width="319.405" height="319.612" baseProfile="full" contentScriptType="text/ecmascript" contentStyleType="text/css" preserveAspectRatio="xMidYMid meet" version="1.1" viewBox="0 0 299.442 299.636" zoomAndPan="magnify"><metadata id="metadata4160"/><path id="path4152" fill="#325c80" d="M 150.38549,299.63588 C 64.714,299.63588 0,228.69174 0,150.45007 0,60.68903 74.63158,0 149.23083,0 238.43725,0 299.44241,73.66153 299.44241,148.63703 299.44241,240.27503 224.1838,299.63588 150.38549,299.63588 Z"/><path id="path4154" d="M 200.45602,206.55699 C 218.03164,206.11714 233.44933,195.17201 239.45379,175.15087 244.28232,159.64735 238.50953,145.7238 227.23075,134.32514 223.44781,130.92838 218.30401,127.64503 209.79086,124.64246 209.35035,115.33228 207.96035,109.10966 204.8753,102.06652 196.29179,83.43817 175.30774,73.69022 161.63217,74.15514 149.60509,75.32986 129.57713,80.11902 118.65173,100.6628 115.60656,106.59441 113.47354,112.68576 112.17964,126.00397 105.15847,124.97873 98.11922,123.89919 91.48259,124.02755 78.11096,124.46339 52.64331,137.46023 53.35005,166.77078 54.89185,186.40902 72.68571,205.36887 94.40939,206.55699 Z M 89.818,218.33688 C 71.7926,218.33688 41.95184,200.5554 41.95184,166.90175 41.95184,138.81762 54.44285,124.3586 75.12225,115.46661 85.97008,111.28071 87.90104,110.49704 101.86096,111.99515 107.68985,83.61372 129.14456,64.90603 160.10985,62.55136 177.27031,61.8292 194.46074,69.56693 205.44362,81.14463 216.26639,93.747 219.71961,105.62546 220.83068,115.50263 241.0718,127.27013 253.70371,140.73363 252.72037,167.75824 252.72037,187.48901 237.45507,214.21741 208.43372,218.33688 Z" style="fill:#fff"/></svg>