<svg xmlns="http://www.w3.org/2000/svg" xmlns:xlink="http://www.w3.org/1999/xlink" id="Layer_1" x="0" y="0" version="1.1" viewBox="0 0 60 59.9" xml:space="preserve" style="enable-background:new 0 0 60 59.9"><style type="text/css">.st0{fill:#325c80}.st1{fill:#fff}</style><title>INDIVIDUAL ICONS</title><ellipse cx="30" cy="29.9" class="st0" rx="30" ry="29.9"/><ellipse cx="30" cy="27.4" class="st1" rx="9.3" ry="3.9"/><path d="M39.7,28.8c-0.5,2.1-4.6,3.7-9.7,3.7s-9.2-1.6-9.7-3.7l0,0v15.4l0,0c0,2.3,4.4,4.1,9.7,4.1s9.7-1.8,9.7-4.1	V28.8H39.7z" class="st1"/><polygon points="19.6 15.7 18 15.8 18.3 21.2 12.9 21 12.9 22.5 19.9 22.7" class="st1"/><polygon points="18.5 22.4 12.1 16.3 13.2 15.1 19.6 21.3" class="st1"/><polygon points="47.8 22.9 47.7 21.4 42.3 21.7 42.5 16.2 40.9 16.2 40.7 23.3" class="st1"/><polygon points="42.3 22.8 41.2 21.7 47.6 15.6 48.7 16.7" class="st1"/><polygon points="34.9 13 33.8 12 30.2 16 26.5 12 25.3 13.1 30.2 18.2" class="st1"/><rect width="1.6" height="9" x="29.3" y="7.9" class="st1"/><polygon points="49.1 38.2 50.1 37.1 46.1 33.5 50.1 29.8 49 28.7 43.8 33.5" class="st1"/><rect width="8.1" height="1.6" x="45.3" y="32.7" class="st1"/><polygon points="10.8 28.7 9.7 29.8 13.8 33.4 9.8 37.1 10.8 38.2 16 33.4" class="st1"/><rect width="7.9" height="1.6" x="6.6" y="32.7" class="st1"/></svg>