<svg xmlns="http://www.w3.org/2000/svg" xmlns:xlink="http://www.w3.org/1999/xlink" id="Layer_1" x="0" y="0" version="1.1" viewBox="0 0 59.2 59.2" xml:space="preserve" style="enable-background:new 0 0 59.2 59.2"><style type="text/css">.st0{fill:#345d80}.st1{fill:#fff}</style><title>INDIVIDUAL ICONS</title><circle cx="29.6" cy="29.6" r="29.6" class="st0"/><ellipse cx="29.3" cy="11.4" class="st1" rx="6.9" ry="2.9"/><path d="M36.4,12.5C36,14,33,15.2,29.3,15.2s-6.8-1.2-7.1-2.7l0,0v11.4l0,0c0,1.7,3.2,3,7.2,3s7.2-1.4,7.2-3L36.4,12.5	L36.4,12.5z" class="st1"/><ellipse cx="18.5" cy="30.6" class="st1" rx="6.9" ry="2.9"/><path d="M25.6,31.6c-0.4,1.5-3.4,2.7-7.1,2.7s-6.8-1.2-7.1-2.7l0,0V43l0,0c0,1.7,3.2,3,7.1,3s7.1-1.3,7.1-3L25.6,31.6	L25.6,31.6z" class="st1"/><ellipse cx="40.7" cy="30.6" class="st1" rx="6.9" ry="2.9"/><path d="M47.8,31.6c-0.4,1.5-3.4,2.7-7.1,2.7s-6.8-1.2-7.1-2.7l0,0V43l0,0c0,1.7,3.2,3,7.2,3s7.2-1.3,7.2-3L47.8,31.6	L47.8,31.6z" class="st1"/><rect width="6.2" height="3.5" x="26.5" y="37" class="st1"/><path d="M21.5,23.7l-3.3,3.2h0.5c1.2,0,2.5,0.1,3.7,0.5l0.9-0.9c-1.1-0.5-1.9-1.3-1.9-2l0,0L21.5,23.7z" class="st1"/><path d="M40.2,26.9h0.4l-3.4-3.4v1c0,0.7-0.6,1.4-1.7,1.9l0.9,0.9C37.6,27,38.9,26.8,40.2,26.9z" class="st1"/></svg>