<svg xmlns="http://www.w3.org/2000/svg" xmlns:xlink="http://www.w3.org/1999/xlink" id="Layer_1" x="0" y="0" version="1.1" viewBox="0 0 59.2 59.2" xml:space="preserve" style="enable-background:new 0 0 59.2 59.2"><style type="text/css">.st0{fill:#335d80}.st1{fill:#fff}.st2{fill:none;stroke:#fff;stroke-width:.51;stroke-miterlimit:10}</style><title>INDIVIDUAL ICONS</title><circle cx="29.6" cy="29.6" r="29.6" class="st0"/><path d="M26.3,20.1v-3.6l-14.2-0.1V20v3.6l-0.1,19l35.6,0.3l0.1-19v-3.6L26.3,20.1z M46.3,41.6l-33.2-0.2l0.2-17.8	l33.2,0.2L46.3,41.6z" class="st1"/><path d="M33.1,35.8h-5.7c-0.8,0-1.4,0.6-1.4,1.4c0,0,0,0,0,0v1.4l8.5,0.1v-1.5C34.5,36.5,33.8,35.8,33.1,35.8	C33.1,35.8,33.1,35.8,33.1,35.8z" class="st1"/><circle cx="30.2" cy="30.8" r="3.4" class="st2"/></svg>