<svg xmlns="http://www.w3.org/2000/svg" xmlns:xlink="http://www.w3.org/1999/xlink" id="Layer_1" x="0" y="0" version="1.1" viewBox="0 0 60 59.9" xml:space="preserve" style="enable-background:new 0 0 60 59.9"><style type="text/css">.st0{fill:#325c80}.st1{fill:#fff}</style><title>INDIVIDUAL ICONS</title><ellipse cx="30" cy="29.9" class="st0" rx="30" ry="29.9"/><path d="M47.5,37.1l-0.7-0.3c-2.4-0.8-4.8-1.2-7.3-1.2c-2.5,0-5.1,0.4-7.5,1.2L31.4,37V16.2l0.3-0.1	c2.5-0.8,5.1-1.2,7.8-1.2c2.6,0,5.2,0.4,7.7,1.3l0.3,0.1V37.1z M32.4,16.9v18.9c2.3-0.7,4.7-1,7.2-1c2.4,0,4.7,0.3,7,1V16.9	c-2.3-0.7-4.6-1.1-7-1.1C37.1,15.8,34.7,16.1,32.4,16.9z" class="st1"/><polygon points="49 38.8 31 38.8 31 37.8 48.1 37.8 48.1 17.7 49 17.7" class="st1"/><path d="M14.7,27.3v-9.7h-0.9v9.9C14.1,27.5,14.4,27.4,14.7,27.3z" class="st1"/><path d="M31.2,16.1c-2.5-0.8-5.1-1.2-7.8-1.2c-2.6,0-5.2,0.4-7.7,1.3l-0.3,0.1v11.1c0.3-0.1,0.6-0.1,0.9-0.1V16.9	c2.3-0.7,4.6-1.1,7-1.1c2.4,0,4.9,0.4,7.2,1.1v18.9c-1.4-0.4-2.8-0.7-4.2-0.9v1c1.5,0.2,3,0.5,4.5,1l0.6,0.2V16.2L31.2,16.1z" class="st1"/><rect width="5" height=".9" x="26.4" y="37.8" class="st1"/><ellipse cx="18.1" cy="30.9" class="st1" rx="6.9" ry="2.9"/><path d="M25.3,31.9c-0.4,1.5-3.5,2.8-7.2,2.8s-6.9-1.2-7.2-2.8l0,0v11.5l0,0c0,1.7,3.2,3.1,7.3,3.1s7.3-1.4,7.3-3.1	L25.3,31.9L25.3,31.9z" class="st1"/></svg>