<svg xmlns="http://www.w3.org/2000/svg" xmlns:xlink="http://www.w3.org/1999/xlink" id="Layer_1" x="0" y="0" version="1.1" viewBox="0 0 60.6 60.6" xml:space="preserve" style="enable-background:new 0 0 60.6 60.6"><style type="text/css">.st0{fill:#325c80}.st1{fill:#fff}</style><title>INDIVIDUAL ICONS</title><circle cx="30.3" cy="30.3" r="30.3" class="st0"/><rect width="41" height="34.7" x="9.8" y="13" class="st1"/><rect width="11.9" height="9.3" x="11" y="14.1" class="st0"/><rect width="5.4" height="1" x="14.2" y="18.3" class="st1"/><rect width="12.8" height="9.3" x="23.7" y="14.1" class="st0"/><rect width="5.9" height="1" x="27.2" y="18.3" class="st1"/><rect width="11.9" height="9.3" x="38" y="14.1" class="st0"/><rect width="5.4" height="1" x="41.2" y="18.3" class="st1"/><rect width="11.3" height="11.3" x="38" y="24.5" class="st0"/><rect width="5.2" height="1.2" x="41.1" y="29.5" class="st1"/><rect width="11.9" height="11.3" x="10.7" y="24.5" class="st0"/><rect width="5.4" height="1.2" x="14" y="29.5" class="st1"/><rect width="12.9" height="11.6" x="23.7" y="24.5" class="st0"/><rect width="5.9" height="1.3" x="27.2" y="29.6" class="st1"/><rect width="11.9" height="9.3" x="11" y="37.2" class="st0"/><rect width="5.4" height="1" x="14.2" y="41.3" class="st1"/><rect width="12.9" height="9.3" x="23.7" y="37.2" class="st0"/><rect width="5.9" height="1" x="27.2" y="41.3" class="st1"/><rect width="11.3" height="9.3" x="38" y="37.2" class="st0"/><rect width="5.2" height="1" x="41.1" y="41.3" class="st1"/></svg>