<svg xmlns="http://www.w3.org/2000/svg" xmlns:xlink="http://www.w3.org/1999/xlink" id="Layer_1" x="0" y="0" version="1.1" viewBox="0 0 59.9 59" xml:space="preserve" style="enable-background:new 0 0 59.9 59"><style type="text/css">.st0{fill:#325c80}.st1,.st2{fill:none;stroke:#fff;stroke-width:3;stroke-miterlimit:10}.st2{fill:#fff;stroke-width:2}</style><title>INDIVIDUAL ICONS</title><ellipse cx="29.9" cy="29.5" class="st0" rx="29.9" ry="29.5"/><ellipse cx="30.1" cy="29.5" class="st1" rx="14.4" ry="14.2"/><ellipse cx="30.1" cy="29.5" class="st2" rx="4.2" ry="4.1"/><ellipse cx="29.9" cy="29.5" class="st1" rx="22.2" ry="21.9"/><path d="M43.2,36.1l8.9,2.5l-5.5,4.7l-1.3,2.3l-2,1l-4.8,5.9L36.4,43l-2.1-9.4L43.2,36.1z" class="st0"/><polygon points="51.9 48.4 48.5 51.7 42.5 45.6 45.9 42.3" class="st0"/><path d="M44,43.7l-1.3,0.1L39.4,48l-1.5-6l-1.5-6.1l6.1,1.8l6.1,1.8l-4.4,3L44,43.7z" class="st2"/><line x1="44" x2="49.6" y1="43.7" y2="49.5" class="st1"/></svg>