<svg xmlns="http://www.w3.org/2000/svg" xmlns:xlink="http://www.w3.org/1999/xlink" id="Layer_1" x="0" y="0" version="1.1" viewBox="0 0 61 60.8" xml:space="preserve" style="enable-background:new 0 0 61 60.8"><style type="text/css">.st0{fill:#744298}.st1{fill:#fff}.st2{fill:none;stroke:#fff;stroke-miterlimit:10}</style><title>INDIVIDUAL ICONS</title><ellipse cx="30.5" cy="30.4" class="st0" rx="30.5" ry="30.4"/><path d="M38,52.5H22.9c-2.8,0-5.1-2.3-5.1-5.1v-34c0-2.8,2.3-5.1,5.1-5.1H38c2.8,0,5.1,2.3,5.1,5.1v34	C43.2,50.2,40.9,52.5,38,52.5C38.1,52.5,38,52.5,38,52.5z M23,9.6c-2.1,0-3.8,1.7-3.8,3.8v34c0,2.1,1.7,3.8,3.8,3.8h15	c2.1,0,3.8-1.7,3.8-3.8v-34c0-2.1-1.7-3.8-3.8-3.8L23,9.6L23,9.6z" class="st1"/><ellipse cx="30.5" cy="48" class="st1" rx="1.8" ry="1.9"/><rect width="5" height=".9" x="28" y="10.9" class="st1"/><rect width="18.8" height="31.6" x="21.1" y="13.8" class="st2"/><line x1="27.3" x2="27.3" y1="22.3" y2="36.9" class="st2"/><line x1="30.6" x2="30.6" y1="25.5" y2="36.9" class="st2"/><line x1="33.8" x2="33.8" y1="28.9" y2="36.9" class="st2"/></svg>