<svg xmlns="http://www.w3.org/2000/svg" xmlns:xlink="http://www.w3.org/1999/xlink" id="Layer_1" x="0" y="0" version="1.1" viewBox="0 0 59.9 59.8" xml:space="preserve" style="enable-background:new 0 0 59.9 59.8"><style type="text/css">.st0{fill:#734198}.st1{fill:#fff}</style><title>INDIVIDUAL ICONS</title><ellipse cx="30" cy="29.9" class="st0" rx="30" ry="29.9"/><path d="M43.4,24.5c-1.1,0-1.9,0.8-1.9,1.9c0,0.7,0.3,1.3,0.9,1.6l0,0l-3.7,8.2c-0.2,0-0.3-0.1-0.5-0.1	c-0.4,0-0.8,0.1-1.1,0.3l0,0l-0.8-4c0.7-0.3,1.2-1,1.2-1.8c0-1.1-0.9-1.9-2-1.9c-0.6,0-1.1,0.2-1.5,0.6l0,0L32,28.9	c-0.1-1-0.9-1.7-1.9-1.8c-0.1,0-0.2,0.1-0.4,0.1l-1.5-4.8l0,0c0.1-0.3,0.1-0.5,0.2-0.8c0-1.1-0.9-2-1.9-2c-1.1,0-1.9,0.8-1.9,1.9	c0,0,0,0,0,0l0,0l-7.8,6.6c-0.7-0.8-1.9-0.9-2.7-0.2c-0.8,0.7-0.9,1.9-0.2,2.7c0.7,0.8,1.9,0.9,2.7,0.2c0.4-0.3,0.6-0.8,0.6-1.3	c0-0.2,0-0.3,0-0.5l7.6-6.5l0,0c0.3,0.6,0.9,1,1.6,1c0.4,0,0.8-0.1,1.1-0.4l0,0l1.4,4.3l0,0c-0.5,0.3-0.8,0.9-0.8,1.5	c0,1.1,0.9,1.9,1.9,1.9c0.8,0,1.5-0.5,1.7-1.2l1.6,0.4c0,0.2,0,0.3,0,0.5c0.1,1,0.8,1.8,1.8,1.9l1,4.8c-0.1,0.2-0.1,0.5-0.1,0.7	c0,1.1,0.8,1.9,1.9,1.9c1.1,0,1.9-0.8,1.9-1.9c0-0.6-0.2-1.1-0.6-1.5l0,0l3.8-8.3h0.3c1.1,0.1,2-0.7,2.1-1.8s-0.7-2-1.8-2.1	C43.6,24.5,43.5,24.5,43.4,24.5L43.4,24.5z M15.3,30.7c-0.6,0-1.1-0.5-1.1-1.1c0-0.6,0.5-1.1,1.1-1.1c0.6,0,1.1,0.5,1.1,1.1l0,0	C16.4,30.2,15.9,30.7,15.3,30.7z M26.4,22.8c-0.6,0-1.1-0.5-1.1-1.1s0.5-1.1,1.1-1.1c0.6,0,1.1,0.5,1.1,1.1l0,0	C27.5,22.3,27,22.8,26.4,22.8z M30.1,30.2c-0.6,0-1.1-0.5-1.1-1.1c0-0.6,0.5-1.1,1.1-1.1c0.6,0,1,0.5,1.1,1	C31.2,29.7,30.7,30.1,30.1,30.2C30.1,30.1,30.1,30.1,30.1,30.2L30.1,30.2z M32,29.5c0-0.1,0-0.2,0-0.4C32,29.2,32,29.3,32,29.5	L32,29.5z M34.4,30.7c0-0.6,0.5-1.1,1.1-1.1c0.6,0,1.1,0.5,1.1,1.1c0,0.6-0.5,1.1-1.1,1.1l0,0C34.8,31.8,34.4,31.3,34.4,30.7	C34.4,30.7,34.4,30.7,34.4,30.7L34.4,30.7z M35.4,32.6L35.4,32.6c0.1,0,0.3,0,0.4,0C35.7,32.6,35.6,32.6,35.4,32.6L35.4,32.6z M38.1,39.2c-0.6,0-1.1-0.5-1.1-1.1s0.5-1.1,1.1-1.1s1.1,0.5,1.1,1.1l0,0C39.1,38.7,38.7,39.1,38.1,39.2L38.1,39.2z M43.4,27.6	c-0.6,0-1.1-0.5-1.1-1.1s0.5-1.1,1.1-1.1c0.6,0,1.1,0.5,1.1,1.1l0,0C44.4,27.1,44,27.5,43.4,27.6L43.4,27.6z" class="st1"/><polygon points="8.3 16 8.6 17.6 14.2 16.7 14.6 22.3 16.2 22.2 15.7 14.8" class="st1"/><path d="M29.9,51.8c-1.7,0-3.4-0.2-5.1-0.6c-11.6-2.8-18.8-14.4-16-26c0.9-3.7,2.7-7.1,5.4-9.9l1.4,1.3	c-7.5,8-7,20.4,0.9,27.9c6.5,6.1,16.2,7.1,23.7,2.5l1,1.6C37.7,50.7,33.8,51.8,29.9,51.8z" class="st1"/><polygon points="52.2 43.1 51.8 41.5 46.3 42.9 45.4 37.2 43.8 37.5 44.9 44.8" class="st1"/><path d="M46.3,44.1l-1.4-1.2c7-8.3,6-20.8-2.3-27.8c-6.5-5.5-15.8-6.2-23-1.8l-1-1.6C28.7,5.5,42,8.7,48.2,18.9	C53.1,26.8,52.3,37,46.3,44.1z" class="st1"/></svg>