<svg xmlns="http://www.w3.org/2000/svg" xmlns:svg="http://www.w3.org/2000/svg" xmlns:xlink="http://www.w3.org/1999/xlink" id="Layer_1" x="0" y="0" version="1.1" viewBox="0 0 208.73 215.073" xml:space="preserve" style="enable-background:new 0 0 208.73 215.073"><style type="text/css">.st0{fill:#216391}.st1{fill:#18547d}.st2{fill:#276e9f}.st3{fill:#19557d}.st4{filter:url(#Adobe_OpacityMaskFilter)}.st5{fill:#fff}.st6{mask:url(#mask-98_2_);fill:#1f608c}.st7{fill:#fefefe}.st8{fill:#d6dee6}</style><title id="title4">icon-long-building</title><desc id="desc6">Created with Sketch.</desc><g id="g22"><path id="path8" d="M1.84,26.193 c1.46-0.631,2.88-0.194,3.977,0.486l48.84-25.924c-1.235-0.783-2.045-0.865-3.582-0.658L1.84,26.193z" class="st0"/></g><g id="g38"><path id="path34" d="M208.73,184.806l-48.841,25.926 c0.018,1.83-0.628,3.252-1.842,4.008l48.84-25.924C208.338,188.101,208.73,186.193,208.73,184.806z" class="st1"/></g><polygon id="Fill-98" points="54.656 .755 202.848 89.798 154.01 115.722 5.816 26.679" class="st2"/><polygon id="Fill-100" points="159.83 126.236 208.669 100.311 208.729 184.806 159.889 210.732" class="st3"/><g id="g56"><path id="path42" d="M202.85,89.798l-48.84,25.924 c3.223,2.066,5.82,6.829,5.82,10.514l48.84-25.924C208.67,96.41,206.098,91.849,202.85,89.798z" class="st3"/></g><defs><filter id="Adobe_OpacityMaskFilter" width="159.889" height="189.214" x="0" y="25.859" filterUnits="userSpaceOnUse"><feColorMatrix type="matrix" values="1 0 0 0 0 0 1 0 0 0 0 0 1 0 0 0 0 0 1 0"/></filter></defs><mask id="mask-98_2_" width="159.889" height="189.214" x="0" y="25.859" maskUnits="userSpaceOnUse"><g id="g64_1_" class="st4"><polygon id="path-97_2_" points="0 25.859 159.889 25.859 159.889 215.073 0 215.073" class="st5"/></g></mask><path id="Fill-209" d="M154.01,115.722c3.197,1.922,5.816,6.651,5.82,10.514l0.059,84.496	c0.004,3.861-2.613,5.445-5.811,3.524L5.887,125.213c-3.205-1.925-5.826-6.655-5.828-10.517L0,30.201	c-0.004-3.864,2.614-5.447,5.817-3.522L154.01,115.722z" class="st6"/><path id="Fill-212" d="M95.582,129.974l-8.691-5.223v-12.853l8.691,5.222V129.974z M95.582,149.103l-8.691-5.221	v-12.851l8.691,5.22V149.103z M95.582,167.839l-8.691-5.22v-12.852l8.691,5.221V167.839z M83.941,122.978l-8.693-5.221v-12.855	l8.693,5.224V122.978z M83.941,142.109l-8.693-5.223v-12.851l8.693,5.222V142.109z M64.264,130.285v-12.852l8.695,5.225v12.853	L64.264,130.285z M61.258,109.349l-8.694-5.223V91.273l8.694,5.222V109.349z M61.258,128.48l-8.694-5.225v-12.851l8.694,5.224	V128.48z M60.918,147.013l-8.691-5.223v-12.853l8.691,5.223V147.013z M64.264,98.302l8.695,5.225v12.853l-8.695-5.224V98.302z M65.389,156.923v-19.322l7.283,4.377v19.32L65.389,156.923z M74.652,162.49v-19.323l7.071,4.248v19.323L74.652,162.49z" class="st7"/><path id="Fill-214" d="M88.186,113.962l6.668,4.02l-0.016,8.242c0,0-0.406-4.832-3.24-8.532	C88.996,114.302,88.186,113.962,88.186,113.962" class="st8"/><path id="Fill-216" d="M53.765,93.214l6.666,4.018l-0.016,8.242c0,0-0.406-4.83-3.242-8.53	C54.575,93.552,53.765,93.214,53.765,93.214" class="st8"/><path id="Fill-218" d="M88.154,132.951l6.668,4.02l-0.016,8.246c0,0-0.404-4.832-3.24-8.532	C88.966,133.29,88.154,132.951,88.154,132.951" class="st8"/><path id="Fill-220" d="M76.553,106.951l6.668,4.018l-0.016,8.242c0,0-0.406-4.83-3.238-8.528	C77.365,107.29,76.553,106.951,76.553,106.951" class="st8"/><path id="Fill-222" d="M76.523,125.939l6.666,4.02l-0.016,8.246c0,0-0.404-4.832-3.238-8.532	C77.334,126.279,76.523,125.939,76.523,125.939" class="st8"/><path id="Fill-224" d="M65.582,100.337l6.67,4.02l-0.016,8.242c0,0-0.41-4.832-3.244-8.532	C66.391,100.677,65.582,100.337,65.582,100.337" class="st8"/><path id="Fill-226" d="M65.551,119.326l6.67,4.02l-0.016,8.246c0,0-0.408-4.832-3.242-8.534	C66.362,119.665,65.551,119.326,65.551,119.326" class="st8"/><path id="Fill-228" d="M53.736,112.203l6.666,4.02l-0.016,8.246c0,0-0.406-4.832-3.242-8.534	C54.545,112.542,53.736,112.203,53.736,112.203" class="st8"/><path id="Fill-230" d="M88.125,151.894l6.668,4.02l-0.016,8.246c0,0-0.404-4.832-3.24-8.532	C88.937,152.238,88.125,151.894,88.125,151.894" class="st8"/><path id="Fill-232" d="M53.496,131.021l6.666,4.018l-0.016,8.244c0,0-0.408-4.832-3.238-8.53	C54.307,131.361,53.496,131.021,53.496,131.021" class="st8"/><path id="Fill-234" d="M141.455,158.66l-8.689-5.221v-12.854l8.689,5.22V158.66z M141.455,177.79l-8.689-5.223v-12.851	l8.689,5.222V177.79z M141.455,196.527l-8.689-5.221v-12.853l8.689,5.223V196.527z M129.814,151.665l-8.691-5.223v-12.853	l8.691,5.222V151.665z M129.814,170.796l-8.691-5.225V152.72l8.691,5.224V170.796z M110.139,158.971V146.12l8.695,5.225v12.851	L110.139,158.971z M107.133,138.037l-8.694-5.225v-12.853l8.694,5.224V138.037z M107.133,157.165l-8.694-5.223v-12.851l8.694,5.222	V157.165z M106.793,175.699l-8.692-5.223v-12.851l8.692,5.222V175.699z M110.139,126.987l8.695,5.225v12.855l-8.695-5.224V126.987z" class="st7"/><path id="Fill-236" d="M134.061,142.65l6.666,4.018l-0.016,8.242c0,0-0.404-4.83-3.24-8.53	C134.872,142.99,134.061,142.65,134.061,142.65" class="st8"/><path id="Fill-238" d="M99.641,121.902l6.666,4.018l-0.016,8.24c0,0-0.406-4.83-3.242-8.529	C100.45,122.24,99.641,121.902,99.641,121.902" class="st8"/><path id="Fill-240" d="M134.029,161.638l6.668,4.018l-0.018,8.248c0,0-0.402-4.832-3.238-8.532	C134.841,161.978,134.029,161.638,134.029,161.638" class="st8"/><path id="Fill-242" d="M122.428,135.636l6.666,4.02l-0.016,8.24c0,0-0.404-4.828-3.238-8.528	C123.239,135.976,122.428,135.636,122.428,135.636" class="st8"/><path id="Fill-244" d="M122.398,154.626l6.666,4.018l-0.016,8.248c0,0-0.406-4.834-3.238-8.532	C123.209,154.966,122.398,154.626,122.398,154.626" class="st8"/><path id="Fill-246" d="M111.457,129.023l6.67,4.021l-0.018,8.241c0,0-0.408-4.83-3.242-8.53	C112.266,129.363,111.457,129.023,111.457,129.023" class="st8"/><path id="Fill-248" d="M111.426,148.011l6.67,4.021l-0.016,8.247c0,0-0.408-4.834-3.242-8.534	C112.237,148.351,111.426,148.011,111.426,148.011" class="st8"/><path id="Fill-250" d="M99.611,140.89l6.664,4.018l-0.016,8.248c0,0-0.406-4.834-3.24-8.536	C100.42,141.228,99.611,140.89,99.611,140.89" class="st8"/><path id="Fill-252" d="M134,180.581l6.668,4.02l-0.016,8.244c0,0-0.406-4.832-3.24-8.532	C134.811,180.923,134,180.581,134,180.581" class="st8"/><path id="Fill-254" d="M99.371,159.706l6.666,4.02l-0.018,8.244c0,0-0.406-4.832-3.236-8.532	C100.18,160.048,99.371,159.706,99.371,159.706" class="st8"/><path id="Fill-256" d="M49.332,103.371l-8.689-5.222V85.296l8.689,5.221V103.371z M49.332,122.501l-8.689-5.222v-12.851	l8.689,5.221V122.501z M49.332,141.237l-8.689-5.22v-12.853l8.689,5.222V141.237z M37.691,96.376L29,91.154V78.3l8.691,5.223V96.376	z M37.691,115.507L29,110.283V97.432l8.691,5.223V115.507z M18.016,103.683V90.831l8.695,5.225v12.852L18.016,103.683z M15.01,82.747l-8.694-5.224V64.67l8.694,5.223V82.747z M15.01,101.877l-8.694-5.224V83.802l8.694,5.223V101.877z M14.67,120.41	l-8.692-5.223v-12.852l8.692,5.223V120.41z M18.016,71.699l8.695,5.225v12.854l-8.695-5.224V71.699z" class="st7"/><path id="Fill-258" d="M41.937,87.361l6.666,4.019l-0.016,8.242c0,0-0.404-4.831-3.24-8.531	C42.748,87.701,41.937,87.361,41.937,87.361" class="st8"/><path id="Fill-260" d="M7.517,66.613l6.666,4.018l-0.016,8.241c0,0-0.406-4.83-3.242-8.53	C8.326,66.951,7.517,66.613,7.517,66.613" class="st8"/><path id="Fill-262" d="M41.906,106.349l6.668,4.019l-0.018,8.247c0,0-0.402-4.832-3.238-8.532	C42.718,106.689,41.906,106.349,41.906,106.349" class="st8"/><path id="Fill-264" d="M30.305,80.348l6.666,4.019l-0.016,8.241c0,0-0.404-4.829-3.238-8.528	C31.116,80.688,30.305,80.348,30.305,80.348" class="st8"/><path id="Fill-266" d="M30.275,99.337l6.666,4.019l-0.016,8.247c0,0-0.406-4.833-3.238-8.532	C31.086,99.677,30.275,99.337,30.275,99.337" class="st8"/><path id="Fill-268" d="M19.334,73.735l6.67,4.021l-0.018,8.241c0,0-0.408-4.831-3.242-8.531	C20.143,74.075,19.334,73.735,19.334,73.735" class="st8"/><path id="Fill-270" d="M19.303,92.723l6.67,4.021l-0.016,8.246c0,0-0.408-4.833-3.242-8.534	C20.114,93.063,19.303,92.723,19.303,92.723" class="st8"/><path id="Fill-272" d="M7.488,85.601l6.664,4.019l-0.016,8.247c0,0-0.406-4.833-3.24-8.535	C8.297,85.94,7.488,85.601,7.488,85.601" class="st8"/><path id="Fill-274" d="M41.877,125.292l6.668,4.02l-0.016,8.245c0,0-0.406-4.832-3.24-8.532	C42.688,125.635,41.877,125.292,41.877,125.292" class="st8"/><path id="Fill-276" d="M7.248,104.418l6.666,4.019l-0.018,8.244c0,0-0.406-4.832-3.236-8.531	C8.057,104.759,7.248,104.418,7.248,104.418" class="st8"/><polygon id="Fill-278" points="153.484 202.308 144.795 197.087 144.795 184.236 153.484 189.456" class="st7"/><polygon id="Fill-280" points="153.484 183.572 144.795 178.351 144.795 165.5 153.484 170.72" class="st7"/><polygon id="Fill-282" points="153.484 164.443 144.795 159.22 144.795 146.367 153.484 151.589" class="st7"/><path id="Fill-284" d="M146.09,148.431l6.666,4.02l-0.016,8.242c0,0-0.404-4.832-3.24-8.532	C146.901,148.771,146.09,148.431,146.09,148.431" class="st8"/><path id="Fill-286" d="M146.059,167.419l6.668,4.02l-0.018,8.246c0,0-0.402-4.832-3.238-8.532	C146.87,167.759,146.059,167.419,146.059,167.419" class="st8"/><path id="Fill-288" d="M146.029,186.363l6.668,4.02l-0.016,8.246c0,0-0.406-4.832-3.24-8.532	C146.84,186.707,146.029,186.363,146.029,186.363" class="st8"/><polyline id="Fill-290" points="109.871 163.492 118.562 168.716 118.562 181.568 109.871 176.346" class="st7"/><polygon id="Fill-292" points="130.203 188.564 121.514 183.342 121.514 170.489 130.203 175.71" class="st7"/><path id="Fill-294" d="M129.459,184.814c0,0-0.404-4.831-3.24-8.53c-2.6-3.391-3.41-3.731-3.41-3.731l6.666,4.019	L129.459,184.814" class="st8"/><path id="Fill-296" d="M111.176,165.54l6.666,4.019l-0.016,8.241c0,0-0.404-4.829-3.238-8.528	C111.987,165.88,111.176,165.54,111.176,165.54" class="st8"/><polyline id="Fill-298" points="17.664 108.804 26.357 114.029 26.357 126.88 17.664 121.659" class="st7"/><polygon id="Fill-300" points="37.998 133.876 29.307 128.653 29.307 115.8 37.998 121.022" class="st7"/><path id="Fill-302" d="M37.254,130.126c0,0-0.406-4.832-3.24-8.531c-2.602-3.391-3.412-3.731-3.412-3.731l6.668,4.02	L37.254,130.126" class="st8"/><path id="Fill-304" d="M18.969,110.853l6.668,4.018l-0.016,8.242c0,0-0.406-4.83-3.238-8.528	C19.781,111.193,18.969,110.853,18.969,110.853" class="st8"/><path id="Fill-306" d="M50.709,82.384l-8.691-5.221V64.312l8.691,5.22V82.384z M39.068,75.39l-8.693-5.223V57.316	l8.693,5.222V75.39z M19.391,63.566V50.714l8.695,5.225v12.853L19.391,63.566z M16.385,61.761l-8.694-5.225V43.685l8.694,5.224	V61.761z" class="st7"/><path id="Fill-308" d="M43.281,66.232l6.668,4.02l-0.016,8.246c0,0-0.404-4.832-3.24-8.532	C44.093,66.572,43.281,66.232,43.281,66.232" class="st8"/><path id="Fill-310" d="M31.65,59.22l6.666,4.02L38.3,71.486c0,0-0.404-4.832-3.238-8.532	C32.461,59.56,31.65,59.22,31.65,59.22" class="st8"/><path id="Fill-312" d="M20.678,52.607l6.67,4.02l-0.016,8.246c0,0-0.408-4.832-3.242-8.534	C21.489,52.947,20.678,52.607,20.678,52.607" class="st8"/><path id="Fill-314" d="M8.863,45.484l6.666,4.02l-0.016,8.246c0,0-0.406-4.832-3.242-8.534	C9.672,45.824,8.863,45.484,8.863,45.484" class="st8"/><path id="Fill-316" d="M96.965,110.394l-8.689-5.222V92.321l8.689,5.221V110.394z M85.324,103.4l-8.691-5.224V85.325	l8.691,5.223V103.4z M65.649,91.576V78.724l8.695,5.225v12.852L65.649,91.576z M62.643,89.77l-8.694-5.224V71.695l8.694,5.223V89.77	z" class="st7"/><path id="Fill-318" d="M89.539,94.242l6.668,4.019l-0.018,8.247c0,0-0.402-4.832-3.238-8.532	C90.351,94.581,89.539,94.242,89.539,94.242" class="st8"/><path id="Fill-320" d="M77.908,87.23l6.666,4.019l-0.016,8.247c0,0-0.406-4.833-3.238-8.532	C78.719,87.57,77.908,87.23,77.908,87.23" class="st8"/><path id="Fill-322" d="M66.936,80.616l6.67,4.021l-0.016,8.246c0,0-0.408-4.833-3.242-8.534	C67.746,80.956,66.936,80.616,66.936,80.616" class="st8"/><path id="Fill-324" d="M55.121,73.494l6.664,4.019l-0.016,8.247c0,0-0.406-4.833-3.24-8.535	C55.93,73.832,55.121,73.494,55.121,73.494" class="st8"/><path id="Fill-326" d="M142.375,137.554l-8.691-5.223V119.48l8.691,5.222V137.554z M130.734,130.56l-8.693-5.225	v-12.851l8.693,5.224V130.56z M111.057,118.736v-12.852l8.695,5.225v12.851L111.057,118.736z M108.051,116.929l-8.694-5.223V98.855	l8.694,5.222V116.929z" class="st7"/><path id="Fill-328" d="M134.947,121.402l6.668,4.018l-0.016,8.248c0,0-0.404-4.832-3.24-8.532	C135.759,121.742,134.947,121.402,134.947,121.402" class="st8"/><path id="Fill-330" d="M123.316,114.39l6.666,4.018l-0.016,8.248c0,0-0.404-4.834-3.238-8.532	C124.127,114.73,123.316,114.39,123.316,114.39" class="st8"/><path id="Fill-332" d="M112.344,107.775l6.67,4.021l-0.016,8.247c0,0-0.408-4.834-3.242-8.534	C113.155,108.115,112.344,107.775,112.344,107.775" class="st8"/><path id="Fill-334" d="M100.529,100.654l6.666,4.018l-0.016,8.248c0,0-0.406-4.834-3.242-8.536	C101.338,100.992,100.529,100.654,100.529,100.654" class="st8"/><polygon id="Fill-336" points="153.883 144.089 145.19 138.866 145.19 126.015 153.883 131.237" class="st7"/><path id="Fill-338" d="M146.361,127.814l6.666,4.018l-0.016,8.248c0,0-0.406-4.834-3.242-8.536	C147.17,128.152,146.361,127.814,146.361,127.814" class="st8"/></svg>