<svg xmlns="http://www.w3.org/2000/svg" xmlns:xlink="http://www.w3.org/1999/xlink" id="Layer_1" x="0" y="0" version="1.1" viewBox="0 0 64.5 65" xml:space="preserve" style="enable-background:new 0 0 64.5 65"><style type="text/css">.st0{fill:#5f707b}.st1{fill:#2ec3b5}.st2{fill:#37c3e2}.st3{fill:none;stroke:#fff;stroke-width:.5;stroke-miterlimit:10}</style><title>INDIVIDUAL ICONS 3</title><polygon points="8.6 47 0 30.7 9.8 15.1 28.1 15.8 36.7 32.1 26.9 47.7" class="st0"/><polygon points="36.8 32.2 27.9 15.9 37.3 0 55.6 .3 64.5 16.6 55.1 32.5" class="st1"/><path d="M35.4,64.2l-8.5-16.5l9.8-15.7L55,32.5l8.5,16.8L53.7,65L35.4,64.2z" class="st2"/><line x1="27.6" x2="36.7" y1="16.2" y2="31.9" class="st3"/><line x1="36.7" x2="54.3" y1="31.9" y2="31.6" class="st3"/><ellipse cx="36.7" cy="31.4" class="st3" rx="18.7" ry="18.7" transform="matrix(2.164036e-02 -0.9998 0.9998 2.164036e-02 4.5065 67.4099)"/><polygon points="41 23.6 54.3 31.6 40.7 39.2 27.1 46.8 27.3 31.2 27.6 15.6" class="st3"/><line x1="36.7" x2="27.1" y1="31.9" y2="46.8" class="st3"/></svg>