<svg xmlns="http://www.w3.org/2000/svg" xmlns:xlink="http://www.w3.org/1999/xlink" id="Layer_1" x="0" y="0" version="1.1" viewBox="0 0 62 59.5" xml:space="preserve" style="enable-background:new 0 0 62 59.5"><style type="text/css">.st0{fill:#73c6e6}.st1{fill:#243771}.st2{fill:#fff}</style><title>INDIVIDUAL ICONS 2</title><ellipse cx="31" cy="29.8" class="st0" rx="31" ry="29.8"/><path d="M49.6,25.8v11.2l0,0c0,3.5-5.4,6.5-12.3,6.7c-3.3,0.2-6.7-0.5-9.7-2c-1.5,0.4-3,0.7-4.5,0.7	c-6.3,0.4-11.6-2-11.8-5.3l0,0l0,0V25.9L49.6,25.8z" class="st1"/><path d="M45.1,21.2c0.8-0.7,1.2-1.8,1.2-2.9c-0.2-3.2-5.5-5.5-11.9-5.2s-11.3,3.1-11.3,6.2c-0.2,0-0.4,0-0.6,0	c-6.3,0.4-11.3,3.4-11.1,6.7s5.5,5.7,11.8,5.3c1.5-0.1,3-0.3,4.5-0.7c3,1.5,6.3,2.2,9.7,2c6.9-0.2,12.4-3.2,12.3-6.7	C49.6,24,47.8,22.3,45.1,21.2z" class="st2"/></svg>