<svg xmlns="http://www.w3.org/2000/svg" xmlns:xlink="http://www.w3.org/1999/xlink" id="Layer_1" x="0" y="0" version="1.1" viewBox="0 0 59.7 59.9" xml:space="preserve" style="enable-background:new 0 0 59.7 59.9"><style type="text/css">.st0{fill:#fff;stroke:#1975b8;stroke-width:2;stroke-miterlimit:10}.st1{fill:#89c542}.st2{fill:#06adcf}.st3{fill:#fff}.st4{fill:#074469}</style><title>INDIVIDUAL ICONS 2</title><ellipse cx="29.8" cy="30" class="st0" rx="28.8" ry="29"/><rect width="14.4" height="14.5" x="14.5" y="12.8" class="st1"/><rect width="14.4" height="14.5" x="14.5" y="29" class="st2"/><rect width="14.4" height="14.5" x="30.6" y="12.8" class="st2"/><rect width="14.4" height="14.5" x="30.6" y="29" class="st1"/><rect width=".9" height="10.5" x="16.8" y="14.7" class="st3"/><rect width=".9" height="10.5" x="25.9" y="14.7" class="st3"/><rect width=".9" height="10.5" x="22.9" y="14.7" class="st3"/><rect width=".9" height="10.5" x="19.8" y="14.7" class="st3"/><rect width=".9" height="10.5" x="32.8" y="14.7" class="st3"/><rect width=".9" height="10.5" x="42" y="14.7" class="st3"/><rect width=".9" height="10.5" x="38.9" y="14.7" class="st3"/><rect width=".9" height="10.5" x="35.9" y="14.7" class="st3"/><rect width=".9" height="10.5" x="16.8" y="30.9" class="st3"/><rect width=".9" height="10.5" x="25.9" y="30.9" class="st3"/><rect width=".9" height="10.5" x="22.9" y="30.9" class="st3"/><rect width=".9" height="10.5" x="19.8" y="30.9" class="st3"/><rect width=".9" height="10.5" x="32.8" y="30.9" class="st3"/><rect width=".9" height="10.5" x="42" y="30.9" class="st3"/><rect width=".9" height="10.5" x="38.9" y="30.9" class="st3"/><rect width=".9" height="10.5" x="35.9" y="30.9" class="st3"/><polygon points="49.4 47.2 10.3 47.2 10.3 39.2 12.3 39.2 12.3 45.1 47.3 45.1 47.3 39.2 49.4 39.2" class="st4"/></svg>