<svg xmlns="http://www.w3.org/2000/svg" xmlns:xlink="http://www.w3.org/1999/xlink" id="Layer_1" x="0" y="0" version="1.1" viewBox="0 0 59.5 60" xml:space="preserve" style="enable-background:new 0 0 59.5 60"><style type="text/css">.st0{fill:#4d5d68}.st1{fill:#2bbaa7}.st2{fill:#31b8dc}.st3{fill:none;stroke:#fff;stroke-width:.5;stroke-miterlimit:10}</style><title>INDIVIDUAL ICONS 2</title><polygon points="7.9 43.4 0 28.3 9 13.9 26 14.6 33.9 29.6 24.8 44" class="st0"/><polygon points="33.9 29.7 25.7 14.7 34.4 0 51.3 .3 59.5 15.3 50.8 30" class="st1"/><path d="M32.6,59.3l-7.8-15.2l9.1-14.5L50.7,30l7.8,15.5l-9,14.5L32.6,59.3z" class="st2"/><line x1="25.4" x2="33.8" y1="15" y2="29.4" class="st3"/><line x1="33.8" x2="50.1" y1="29.4" y2="29.2" class="st3"/><ellipse cx="33.8" cy="28.9" class="st3" rx="17.3" ry="17.3" transform="matrix(1.999600e-02 -0.9998 0.9998 1.999600e-02 4.2076 62.1118)"/><polygon points="37.8 21.8 50.1 29.2 37.6 36.2 25 43.2 25.2 28.8 25.4 14.4" class="st3"/><line x1="33.8" x2="25" y1="29.4" y2="43.2" class="st3"/></svg>