<svg xmlns="http://www.w3.org/2000/svg" xmlns:xlink="http://www.w3.org/1999/xlink" id="Layer_1" x="0" y="0" version="1.1" viewBox="0 0 59.3 59.2" xml:space="preserve" style="enable-background:new 0 0 59.3 59.2"><style type="text/css">.st0{fill:#325c80}.st1{fill:#fff}.st2{fill:#0d4269}.st3{fill:#05add0}.st4{fill:#86c440}</style><title>INDIVIDUAL ICONS 2</title><ellipse cx="29.7" cy="29.6" class="st0" rx="29.7" ry="29.6"/><polygon points="11.2 46.1 48.2 46.1 29.7 14.1" class="st1"/><path d="M49.8,48H9.5c-0.3,0-0.7-0.2-0.8-0.5c-0.2-0.3-0.2-0.6,0-0.9l20.1-34.8c0.2-0.3,0.5-0.5,0.8-0.5	c0.3,0,0.7,0.2,0.8,0.5l20.1,34.7c0.1,0.2,0.2,0.4,0.2,0.6C50.7,47.5,50.3,48,49.8,48C49.8,48,49.8,48,49.8,48z M11.2,46.1h37	l-18.5-32L11.2,46.1z" class="st2"/><polygon points="41.9 38.6 38.4 44.7 34.8 38.6" class="st3"/><polygon points="26.1 37.7 29.7 31.6 33.2 37.7" class="st3"/><polygon points="34.8 37.7 38.3 31.6 41.9 37.7" class="st2"/><polygon points="37.5 31.3 34 37.4 30.5 31.3" class="st4"/><polygon points="13 45 16.6 38.8 20.1 45" class="st4"/><polygon points="21.8 45 25.3 38.8 28.8 45" class="st2"/><polygon points="24.5 38.6 20.9 44.7 17.4 38.6" class="st3"/><polygon points="30.5 45 34 38.8 37.5 45" class="st2"/><polygon points="33.2 38.6 29.6 44.7 26.1 38.6" class="st4"/><polygon points="39.3 45 42.8 38.8 46.3 45" class="st4"/></svg>