<svg xmlns="http://www.w3.org/2000/svg" xmlns:xlink="http://www.w3.org/1999/xlink" id="Layer_1" x="0" y="0" version="1.1" viewBox="0 0 59.9 59.9" xml:space="preserve" style="enable-background:new 0 0 59.9 59.9"><style type="text/css">.st0{fill:#a5276e}.st1{fill:#fff}</style><title>INDIVIDUAL ICONS</title><circle cx="30" cy="30" r="30" class="st0"/><path d="M37.3,51.5H22.7c-2.8,0-5-2.2-5-5v-33c0-2.8,2.2-5,5-5h14.6c2.8,0,5,2.2,5,5v33.1C42.3,49.3,40,51.5,37.3,51.5z M22.7,9.8c-2,0-3.7,1.6-3.7,3.7l0,0v33.1c0,2,1.6,3.7,3.7,3.7l0,0h14.6c2,0,3.7-1.7,3.7-3.7V13.4c0-2-1.6-3.7-3.7-3.7l0,0H22.7z" class="st1"/><ellipse cx="30" cy="47.1" class="st1" rx="1.8" ry="1.8"/><rect width="4.8" height=".9" x="27.6" y="11" class="st1"/><path d="M20.9,13.4v30.2h18.2V13.4H20.9z M29.9,35l-7.1-7.7c0.4-0.8,7.4-6.6,14.3,0L29.9,35z" class="st1"/></svg>