<svg xmlns="http://www.w3.org/2000/svg" xmlns:xlink="http://www.w3.org/1999/xlink" id="Layer_1" x="0" y="0" version="1.1" viewBox="0 0 60 60" xml:space="preserve" style="enable-background:new 0 0 60 60"><style type="text/css">.st0{fill:#5f92cd}.st1{fill:#325c80}.st2{fill:#4278bb}.st3{fill:#fff}.st4{fill:#274b60}</style><title>INDIVIDUAL ICONS 2</title><circle cx="30" cy="30" r="30" class="st0"/><path d="M12.3,19.4h38v2.7h-38L12.3,19.4z M12.3,28.5h28.9v2.7H12.3V28.5z M12.7,38h33.5v2.7H12.7V38z" class="st1"/><circle cx="18.9" cy="25" r="12.1" class="st2"/><path d="M13.1,18.6h15.8v4.6H13.1V18.6z M13.1,27.6h16.4v4.6H13.1V27.6z" class="st3"/><path d="M27.9,37.1l3.1-3.1l9.6,9.6l-3.1,3.1L27.9,37.1z" class="st4"/><circle cx="28.4" cy="34.2" r="3.1" class="st4"/><path d="M18.2,37.7c-7.2,0-13-5.8-13-13s5.8-13,13-13s13,5.8,13,13S25.4,37.7,18.2,37.7z M18.2,15	c-5.3,0-9.6,4.3-9.6,9.6s4.3,9.6,9.6,9.6s9.6-4.3,9.6-9.6v0C27.8,19.3,23.5,15,18.2,15C18.2,15,18.2,15,18.2,15L18.2,15z" class="st4"/></svg>