<svg xmlns="http://www.w3.org/2000/svg" xmlns:svg="http://www.w3.org/2000/svg" id="svg2" width="151.422" height="148.006" contentScriptType="text/ecmascript" contentStyleType="text/css" preserveAspectRatio="xMidYMid meet" version="1.1" viewBox="0 0 141.959 138.756" zoomAndPan="magnify"><metadata id="metadata4184"/><path style="opacity:1;fill:#e7e8e8;fill-opacity:1;fill-rule:evenodd;stroke:none;stroke-width:.2;stroke-linecap:butt;stroke-linejoin:miter;stroke-miterlimit:4;stroke-dasharray:none;stroke-opacity:1" id="path4176" d="M 11.16819,138.75573 C 5.21797,138.75573 0,134.40094 0,127.66549 L 0,12.40281 C 0,4.57526 5.38744,0 11.78308,0 L 129.334,0 C 138.46574,0 141.95858,6.64787 141.95858,12.91402 L 141.95858,125.50024 C 141.95858,132.85013 137.48994,138.75573 130.59364,138.75573 Z"/><path style="opacity:1;fill:#999;fill-opacity:1;fill-rule:evenodd;stroke:none;stroke-width:.2;stroke-linecap:butt;stroke-linejoin:miter;stroke-miterlimit:4;stroke-dasharray:none;stroke-opacity:1" id="path4178" d="M 97.84624,16.96564 129.22003,16.96564 129.22003,48.57483 122.35996,48.57483 122.35996,24.17663 97.84624,24.17663 Z M 42.23016,96.37712 42.23016,64.02567 48.65387,64.02567 48.65387,85.26296 86.14575,48.78477 64.69697,48.78477 64.69697,42.66695 96.99002,42.66695 96.99002,74.80846 89.72655,74.80846 89.93339,54.83827 53.23781,90.73758 75.3928,90.73758 75.3928,96.37712 Z M 17.8214,124.34712 17.8214,93.6631 25.10443,93.6631 25.10443,118.20075 50.00948,118.20075 50.00948,124.34712 Z"/></svg>